<?xml version="1.0" encoding="iso-8859-1"?>
<!-- Generator: Adobe Illustrator 16.0.0, SVG Export Plug-In . SVG Version: 6.00 Build 0)  -->
<!DOCTYPE svg PUBLIC "-//W3C//DTD SVG 1.1//EN" "http://www.w3.org/Graphics/SVG/1.1/DTD/svg11.dtd">
<svg version="1.1" id="Capa_1" xmlns="http://www.w3.org/2000/svg" xmlns:xlink="http://www.w3.org/1999/xlink" x="0px" y="0px"
	 width="195.986px" height="195.985px" viewBox="0 0 195.986 195.985" style="enable-background:new 0 0 195.986 195.985;"
	 xml:space="preserve">
<g>
	<g>
		<path d="M93.979,33.935c-0.08,0.104-0.16,0.208-0.239,0.312c0.03-0.023,0.069-0.029,0.1-0.051
			C94.536,33.604,95.016,33.207,93.979,33.935z"/>
		<path d="M193.506,27.267c0.119-2.719-2.494-3.685-4.479-2.949c-0.65-0.389-1.448-0.601-2.518-0.319
			c-3.254,0.858-6.977,0.573-10.321,0.9c-2.043,0.2-4.031,0.546-6.005,0.968c-1.307-1.978-4.753-1.558-4.954,1.401
			c-0.005,0.072-0.007,0.144-0.012,0.217c-0.518,0.658-0.546,1.618-0.123,2.29c-0.313,5.229-0.479,10.451-0.566,15.668
			c-17.075-3.501-34.443-3.514-51.891-2.534c0.388-2.952,0.855-5.903,1.384-8.866c1.169-6.565-8.291-7.84-8.997-1.218
			c-0.373,3.491-0.761,7.059-0.925,10.626c-1.445,0.102-2.889,0.199-4.333,0.309c0.053-0.304,0.121-0.62,0.169-0.922
			c0.434-2.741,0.834-5.856-1.169-8.122c-1.371-1.551-3.45-1.534-4.926-0.521c-0.058,0.05-0.115,0.098-0.177,0.15l0.077-0.099
			c-0.194,0.142-0.349,0.301-0.516,0.48c-0.375,0.33-0.715,0.644-0.829,0.811c-0.539,0.79-0.948,1.863-1.04,2.441
			c-0.349,2.163-0.633,4.338-0.928,6.511c-16.834,1.345-33.661,2.664-50.292,1.766c-0.727-0.039-1.278,0.162-1.749,0.446
			c-0.455-8.091-1.225-16.1-2.492-23.965c2.102-1.349,2.002-4.228-0.537-5.242C30.789,15.668,25,16.826,20.163,17.121
			c-4.677,0.285-9.586,0.64-14.084,2.01c-1.535,0.468-2.074,1.948-1.795,3.222c-0.897,11.15-1.791,22.466-2.503,33.86
			c-1.045,0.642-1.426,2.456-0.177,3.114c-1.042,17.571-1.619,35.306-1.026,52.899c-0.754,0.456-0.81,1.702,0.073,2.271
			c0.718,18.19,2.705,36.209,6.728,53.705c0.334,1.452,1.526,1.855,2.586,1.549c-0.284,1.246,0.216,2.701,1.706,3.08
			c4.377,1.121,8.893,1.297,13.38,0.895c2.764-0.247,5.115-0.631,6.927-2.614c1.04-0.021,2.027-0.706,2.039-2.125
			c0.073-8.614,0.471-17.403,0.959-26.252c0.308,0.104,0.614,0.212,0.993,0.226c27.48,0.957,55.019-0.48,82.542-1.783
			c-0.12,1.414-0.303,2.82-0.664,4.199c-1.216,4.635,5.597,7.76,7.876,3.32c1.257-2.447,1.716-5.154,1.873-7.936
			c1.885-0.086,3.77-0.176,5.654-0.256c0.075,2.121,0.221,4.216,0.48,6.25c0.47,3.693,6.526,5.439,7.198,0.974
			c0.369-2.455,0.766-4.994,1.144-7.562c2.263-0.084,4.526-0.181,6.789-0.252c-0.153,1.432-0.334,2.855-0.582,4.237
			c-1.027,5.738,7.702,8.22,8.798,2.427c0.429-2.264,0.734-4.565,0.957-6.882c1.919-0.041,3.84-0.11,5.759-0.137
			c0.7-0.011,1.28-0.19,1.786-0.454c-0.433,10.174-1.291,20.364-2.888,30.582c-0.263,1.686,0.911,2.865,2.196,3.152
			c-2.961,1.535-2.047,6.846,1.684,6.652c1.061-0.054,1.86-0.126,2.669-0.443c7.17-1.252,14.995-0.555,21.783-2.875
			c0.448-0.152,0.808-0.401,1.124-0.686c1.453,0.471,3.297-0.295,3.387-2.335C197.68,124.529,191.356,75.951,193.506,27.267z
			 M9.278,87.55c5.817,2.199,12.347,4.232,18.185,4.265c-0.035,1.772-0.097,3.543-0.123,5.315c-0.1-0.125-0.169-0.28-0.305-0.365
			c-3.034-1.892-7.189-2.188-10.638-3.053c-2.4-0.602-4.813-1.192-7.238-1.717C9.197,90.514,9.239,89.032,9.278,87.55z
			 M8.855,106.173c1.545,0.914,3.112,1.789,4.732,2.593c3.357,1.663,7.451,3.741,11.262,3.478c1.521-0.104,2.302-2.184,0.814-3.004
			c-3.122-1.721-6.852-2.363-10.144-3.779c-2.287-0.981-4.472-2.181-6.607-3.465c0.04-2.134,0.108-4.266,0.158-6.398
			c2.107,0.592,4.211,1.186,6.31,1.802c3.624,1.064,7.478,2.786,11.278,2.247c0.299-0.042,0.497-0.199,0.674-0.369
			c-0.077,6.411-0.137,12.825-0.07,19.215c-6.048-1.792-12.307-2.994-18.497-4.468C8.777,111.406,8.819,108.79,8.855,106.173z
			 M8.769,117.657c6.047,2.239,12.367,4.268,18.522,4.383c0.038,2.461-0.006,4.939,0.058,7.393
			c-3.121-1.296-6.501-2.083-9.675-3.243c-2.972-1.087-5.929-2.205-8.901-3.284C8.751,121.155,8.771,119.407,8.769,117.657z
			 M8.998,133.896c-0.084-2.32-0.097-4.639-0.143-6.957c2.587,1.032,5.164,2.089,7.745,3.143c3.429,1.397,7.116,3.146,10.872,3.172
			c0.08,2.471,0.132,4.951,0.242,7.412c-0.799-0.196-1.926-0.561-2.324-0.653c-2.339-0.552-4.628-1.335-6.894-2.126
			C15.268,136.757,12.083,135.398,8.998,133.896z M9.172,138.048c2.856,1.787,6.462,2.943,9.173,4.054
			c2.308,0.946,6.438,3.091,9.584,2.764c0.126,2.429,0.213,4.872,0.372,7.288c-3.392-1.632-7.213-2.197-10.678-3.797
			c-2.916-1.346-5.606-3.126-8.227-4.995C9.285,141.589,9.256,139.819,9.172,138.048z M12.346,167.829
			c-0.233-0.011-0.425,0.051-0.627,0.096c0.065-0.288,0.088-0.598,0.039-0.932c-0.298-2.004-0.534-4.006-0.783-6.008
			c3.692,2.57,7.794,5.164,11.973,6.766C19.473,168.257,15.803,167.983,12.346,167.829z M18.958,161.572
			c-2.897-1.354-5.668-2.948-8.46-4.499c-0.324-2.966-0.484-5.927-0.715-8.89c5.384,3.981,11.829,7.753,17.846,7.223
			c0.335-0.03,0.626-0.19,0.886-0.382c0.246,3.445,0.454,6.906,0.773,10.319C25.853,164.069,22.334,163.15,18.958,161.572z
			 M27.56,87.633c-3.074-1.115-6.533-1.338-9.736-1.91c-2.865-0.512-5.667-1.215-8.442-2.034c0.08-2.921,0.151-5.842,0.225-8.763
			c2.352,0.647,4.707,1.283,7.065,1.905c2.557,0.675,6.678,2.352,9.094,0.631c0.861-0.613,1.348-2.053,0.367-2.849
			c-2.193-1.779-5.615-1.518-8.302-1.986c-2.715-0.473-5.419-0.999-8.126-1.514c0.066-2.76,0.112-5.521,0.16-8.282
			c1.273,0.531,2.531,1.101,3.816,1.604c3.331,1.306,8.099,3.598,11.685,2.218c1.404-0.54,2.139-2.749,0.464-3.55
			c-2.945-1.408-6.513-1.536-9.663-2.435c-2.102-0.6-4.172-1.306-6.232-2.045c0.028-2.18-0.005-4.362,0.004-6.543
			c1.92,0.593,3.886,1.049,5.881,1.443c3.477,0.685,8.007,1.924,11.344,0.334c1.22-0.582,1.172-2.567,0-3.164
			c-2.528-1.287-5.583-0.988-8.348-1.284c-2.96-0.316-5.963-1.007-8.874-1.902c-0.009-3.195-0.052-6.391-0.11-9.587
			c2.023,1.207,4.132,2.267,6.358,3.13c4.08,1.581,8.724,3.966,13.158,3.314C28.574,58.673,27.902,73.101,27.56,87.633z
			 M29.552,40.767c-3.287-1.684-7.309-1.648-10.857-2.775c-3.178-1.009-6.158-2.506-8.968-4.275c-0.034-1.25-0.1-2.501-0.141-3.751
			c3.312,0.888,6.573,1.93,9.8,3.129c3.393,1.261,6.829,3.041,10.37,4.05C29.69,38.356,29.62,39.558,29.552,40.767z M30.062,31.723
			c-2.561-0.931-5.263-1.625-7.767-2.443c-4.224-1.381-8.501-2.543-12.861-3.376c-0.026-0.54-0.031-1.079-0.061-1.619
			c3.595-0.13,7.187-0.383,10.789-0.418c3.271-0.032,6.902,0.417,10.332,0.207C30.331,26.591,30.202,29.167,30.062,31.723z
			 M179.599,111.794c-1.656-0.543-3.377-1.23-5.114-1.871c0.044-2.004-0.016-4.014,0.001-6.021c0.857,0.146,1.597,0.263,2.031,0.374
			c2.291,0.588,4.576,1.202,6.843,1.876c0.928,0.276,1.849,0.577,2.761,0.902c0.432,0.153,0.694,0.251,0.895,0.321
			c0.09,2.293,0.151,4.584,0.251,6.875C184.818,113.411,182.128,112.624,179.599,111.794z M187.411,117.983
			c0.007-0.001,0.01-0.008,0.019-0.009c0.143,3.162,0.255,6.327,0.413,9.487c-2.047-0.707-4.196-1.222-6.191-1.979
			c-2.634-1-5.145-2.309-7.593-3.724c0.146-2.821,0.228-5.654,0.312-8.485c1.178,0.448,2.368,0.889,3.493,1.364
			C180.535,115.768,184.396,118.389,187.411,117.983z M183.044,102.241c-2.764-0.625-5.55-1.15-8.334-1.68
			c-0.074-0.014-0.149-0.025-0.225-0.04c0.003-2.809-0.086-5.617-0.127-8.426c1.691,0.658,3.4,1.271,5.106,1.861
			c2.153,0.744,4.771,1.907,7.174,1.737c0.078,2.504,0.133,5.009,0.224,7.511C185.335,102.704,183.763,102.404,183.044,102.241z
			 M174.307,88.707c-0.058-2.76-0.171-5.512-0.263-8.268c1.684,0.68,3.34,1.429,4.979,2.21c2.259,1.075,4.786,2.682,7.364,3.008
			c0.049,2.087,0.079,4.173,0.138,6.259C182.615,90.488,178.391,89.836,174.307,88.707z M180.338,79.529
			c-2.123-0.795-4.25-1.586-6.396-2.318c-0.08-2.111-0.233-4.195-0.329-6.302c1.051,0.432,2.105,0.86,3.172,1.265
			c3.161,1.201,6.272,2.714,9.475,3.786c0.028,1.932,0.004,3.862,0.043,5.795C184.402,80.824,182.25,80.247,180.338,79.529z
			 M173.444,67.648c-0.128-2.564-0.301-5.103-0.446-7.66c1.81,0.657,3.583,1.454,5.339,2.22c2.085,0.909,5.141,2.729,7.883,3.126
			c0.012,2.197-0.016,4.392,0.009,6.589C182.305,69.957,177.732,68.978,173.444,67.648z M186.213,60.453
			c-1.129-0.324-2.289-0.586-3.343-0.952c-3.072-1.068-6.077-2.352-9.234-3.156c-0.292-0.074-0.574-0.108-0.859-0.157
			c-0.191-3.19-0.459-6.305-0.671-9.477c1.961,0.581,3.945,1.1,5.865,1.67c2.33,0.692,5.816,2.261,8.312,1.283
			C186.248,53.258,186.21,56.854,186.213,60.453z M173.871,125.026c1.68,1.061,3.399,2.059,5.178,2.984
			c2.659,1.382,5.862,3.008,8.993,3.421c0.209,4.045,0.425,8.09,0.649,12.131c-0.116-0.039-0.232-0.074-0.347-0.116
			c-2.983-1.074-5.88-2.396-8.768-3.701c-2.203-0.996-4.39-2.033-6.587-3.047C173.361,132.824,173.635,128.93,173.871,125.026z
			 M186.305,46.539c-2.113-1.121-5.188-1.024-7.439-1.404c-2.357-0.397-4.667-0.982-6.98-1.547
			c-0.188-2.703-0.387-5.395-0.574-8.098c1.394,0.629,2.788,1.257,4.175,1.903c2.556,1.189,5.096,2.414,7.628,3.654
			c1.074,0.526,2.163,1.168,3.299,1.619C186.388,43.958,186.324,45.247,186.305,46.539z M172.652,139.587
			c2.082,1.209,4.133,2.47,6.25,3.623c2.585,1.406,6.529,4.222,10.058,5.076c0.172,3.014,0.34,6.03,0.516,9.041
			c-1.974-0.636-3.982-1.189-5.936-1.863c-4.183-1.443-8.169-3.235-12.143-5.139C171.906,146.771,172.274,143.177,172.652,139.587z
			 M186.51,30.535c0.093,0.025,0.153-0.008,0.243,0.01c-0.098,2.176-0.117,4.356-0.183,6.533c-2.884-1.48-6.386-2.478-8.839-3.526
			c-2.129-0.91-4.423-2.072-6.758-2.831c-0.017-0.197-0.025-0.402-0.042-0.599C176.131,29.667,181.839,29.308,186.51,30.535z
			 M38.647,52.221c0.422,0.263,0.902,0.463,1.486,0.52c16.39,1.619,32.734,1.227,49.071,0.46c-0.296,3.185-0.211,6.384,1.124,9.051
			c1.746,3.487,8.01,1.979,7.568-2.05c-0.267-2.437-0.053-4.942,0.3-7.448c2.053-0.107,4.107-0.214,6.16-0.32
			c0.35,3.074,1.001,6.102,2.191,9.021c1.527,3.744,6.882,2.4,6.112-1.685c-0.486-2.586-0.639-5.153-0.654-7.712
			c17.46-0.821,34.931-1.217,52.463,0.807c-0.009,12.271,0.417,24.519,0.814,36.764c-0.204-0.082-0.371-0.196-0.616-0.24
			c-27.667-5.079-57.944-2.384-87.473,0.77c0.31-2.321,0.581-4.621-0.235-6.885c-0.845-2.347-4.122-3.812-6.033-1.593
			c-2.089,2.427-2.951,5.843-3.138,9.487c-1.55,0.167-3.112,0.337-4.654,0.502c0.25-2.54,0.473-5.082,0.85-7.613
			c0.842-5.663-7.502-8.287-8.799-2.425c-0.785,3.55-1.116,7.258-1.194,10.983c-1.24,0.124-2.486,0.253-3.721,0.371
			c0.06-0.671,0.133-1.339,0.194-2.01c0.302-3.34,2.202-9.958-2.523-11.257c-4.607-1.268-5.942,4.458-6.345,7.658
			c-0.268,2.132-0.424,4.277-0.571,6.424c-1.008,0.081-2.026,0.174-3.029,0.248C38.743,80.01,39.163,65.997,38.647,52.221z
			 M165.825,132.331c-0.558-0.351-1.202-0.611-2.034-0.611c-1.838,0-3.679,0.072-5.517,0.083c-0.087-3.337-0.378-6.664-1.094-9.908
			c-1.295-5.875-10.365-3.388-9.011,2.483c0.563,2.44,0.813,4.992,0.923,7.562c-2.021,0.029-4.041,0.112-6.062,0.15
			c0.367-3.975,0.548-7.939,0.185-11.733c-0.553-5.757-8.199-5.651-8.868,0c-0.455,3.849-0.823,7.905-1.015,11.976
			c-1.932,0.052-3.864,0.137-5.797,0.194c-0.09-2.856-0.101-5.639,0.449-8.153c1.282-5.858-7.75-8.336-8.975-2.474
			c-0.745,3.563-0.619,7.247-0.473,10.929c-27.546,0.963-55.098,2.483-82.573,3.83c-0.256,0.012-0.449,0.107-0.673,0.163
			c0.755-12.437,1.686-25.012,2.421-37.599c0.961,0.035,1.933,0.04,2.896,0.07c-0.139,1.543-0.305,3.082-0.548,4.612
			c-0.872,5.484,7.298,7.966,8.48,2.339c0.468-2.229,0.775-4.478,1.049-6.73c1.507,0.027,3.037-0.014,4.547,0.006
			c0.148,2.193,0.362,4.37,0.649,6.495c0.457,3.392,6.36,3.39,6.819,0c0.292-2.156,0.471-4.322,0.681-6.485
			c2.017,0.006,4.049-0.055,6.07-0.062c0.416,2.406,0.976,4.686,1.571,6.587c1.201,3.836,7.499,3.313,7.234-0.979
			c-0.118-1.906-0.231-3.801-0.301-5.695c29.093-0.358,58.418-1.855,86.93-3.51c0.654-0.038,1.195-0.301,1.671-0.643
			C165.845,107.587,166.124,119.949,165.825,132.331z M167.022,172.249c0.284-0.297,0.527-0.662,0.649-1.187
			c0.542-2.326,1.023-4.672,1.493-7.021c1.088,0.672,2.188,1.332,3.326,1.914c-0.092,0.156-0.209,0.301-0.299,0.457
			c0.016-0.035,0.053-0.11,0.062-0.131c0.076-0.17-0.172-0.318-0.254-0.148c-0.246,0.518-0.434,1.054-0.658,1.572
			c-0.24,0.385-0.449,0.784-0.747,1.139c-0.124,0.148,0.007,0.281,0.149,0.287c-0.15,0.385-0.335,0.752-0.479,1.146
			c-0.199,0.466-0.228,0.966-0.327,1.45C168.964,171.89,167.987,172.044,167.022,172.249z M180.5,170.327
			c-3.434,0.362-6.895,0.793-10.324,1.357c0.181-0.896,0.56-1.965,0.964-2.939c0.64-0.834,1.164-1.73,1.736-2.604
			c1.203,0.604,2.396,1.229,3.645,1.763c1.52,0.651,3.395,1.595,5.274,2.269C181.363,170.226,180.928,170.281,180.5,170.327z
			 M187.687,169.729c0.369-0.786,0.246-1.76-0.687-2.42c-2.368-1.68-6.271-1.857-9.058-2.78c-2.853-0.942-5.557-2.225-8.159-3.702
			c0.449-2.41,0.741-4.869,1.12-7.301c5.585,3.467,12.458,6.57,18.827,8.192c0.162,2.76,0.323,5.524,0.486,8.28
			C189.384,169.827,188.538,169.751,187.687,169.729z"/>
	</g>
</g>
<g>
</g>
<g>
</g>
<g>
</g>
<g>
</g>
<g>
</g>
<g>
</g>
<g>
</g>
<g>
</g>
<g>
</g>
<g>
</g>
<g>
</g>
<g>
</g>
<g>
</g>
<g>
</g>
<g>
</g>
</svg>
