<?xml version="1.0" encoding="iso-8859-1"?>
<!-- Generator: Adobe Illustrator 16.0.0, SVG Export Plug-In . SVG Version: 6.00 Build 0)  -->
<!DOCTYPE svg PUBLIC "-//W3C//DTD SVG 1.1//EN" "http://www.w3.org/Graphics/SVG/1.1/DTD/svg11.dtd">
<svg version="1.1" id="Capa_1" xmlns="http://www.w3.org/2000/svg" xmlns:xlink="http://www.w3.org/1999/xlink" x="0px" y="0px"
	 width="193.274px" height="193.274px" viewBox="0 0 193.274 193.274" style="enable-background:new 0 0 193.274 193.274;"
	 xml:space="preserve">
<g>
	<g>
		<path d="M86.014,95.458c-26.71-1.213-53.344,1.429-79.662,5.895c-1.439,0.244-3.075,1.842-3.298,3.298
			c-3.968,25.892-1.928,52.148-3.051,78.236c-0.14,3.26,4.607,4.354,6.113,2.013c8.087,2.982,20.12,1.575,28.074,1.908
			c15.834,0.662,31.755,0.869,47.546,2.277c2.608,0.231,4.754-2.348,4.771-4.771c0.199-28.1,2.685-56.068,4.251-84.109
			C90.909,97.533,88.485,95.569,86.014,95.458z M14.78,176.313c-2.172-0.122-4.34-0.28-6.507-0.46
			c-0.309-0.025-0.482-0.04-0.742-0.062c2.043-19.432,1.531-39.037,3.272-58.513c1.198-13.399,25.714-10.743,36.008-11.628
			c11.368-0.979,22.775-1.203,34.172-0.855c-1.481,24.8-3.459,49.559-3.885,74.406c-13.035-0.981-26.145-1.277-39.196-1.812
			C30.192,177.074,22.483,176.744,14.78,176.313z"/>
		<path d="M144.809,7.692c-0.306-2.075-2.69-3.519-4.622-3.519h-71.28c-2.621,0-4.783,2.181-4.794,4.793
			c-0.1,24.796-1.22,49.571-1.391,74.365c-2.251,0.655-3.637,3.906-0.941,5.051c0.743,0.315,1.499,0.568,2.248,0.853
			c0.978,0.941,2.338,1.372,3.707,1.303c23.465,7.396,49.758,1.873,73.875,1.603c2.617-0.029,4.747-2.148,4.769-4.769
			C146.615,60.707,148.704,34.204,144.809,7.692z M72.297,84.269c0.138-23.508,1.127-47.001,1.341-70.508h62.343
			c2.88,22.909,1.268,45.966,0.929,68.992C115.386,83.436,93.763,86.351,72.297,84.269z"/>
		<path d="M186.727,106.101c-11.733-23.579-52.807-7.562-72.201-4.988c-0.358,0.048-0.625,0.216-0.94,0.32
			c-2.154-1.22-5.481-0.237-5.633,3.048c-1.199,26.139-2.205,52.247-1.021,78.407c0.121,2.687,2.07,4.606,4.743,4.744
			c24.237,1.245,48.456,0.159,72.704,0.05c1.933-0.008,4.319-1.438,4.622-3.52C192.382,160.975,197.626,128.004,186.727,106.101z
			 M116.286,178.269c-0.863-22.571-0.183-45.156-0.766-67.733c15.916-2.468,56.321-16.627,63.419,1.787
			c7.387,19.164,4.26,45.286,1.311,65.82C158.923,178.326,137.607,179.043,116.286,178.269z"/>
		<path d="M59.436,163.027c-0.057-1.523-0.198-2.92-0.594-4.402c-1.255-4.698-2.563-9.385-3.85-14.076
			c-2.587-9.434-5.031-19.946-10.468-28.227c-1.806-2.75-6.627-3.449-8.257,0c-7.576,16.03-10.341,33.363-11.957,50.883
			c-0.556,6.026,8.772,5.938,9.362,0c0.223-2.24,0.498-4.487,0.77-6.733c2.091,0.087,4.188,0.056,6.279,0.016
			c1.543-0.028,3.086-0.055,4.628-0.081c0.749-0.012,1.498-0.023,2.247-0.035c0.337-0.006,2.12,0.293,0.773-0.008
			c0.411,0.092,0.781,0.119,1.144,0.139c1.699,4.824,4.593,10.043,8.983,6.271c0.841-0.723,1.117-1.825,0.953-2.873
			C59.459,163.781,59.456,163.545,59.436,163.027z M35.488,153.06c1.204-7.729,2.827-15.397,5.37-22.771
			c2.704,6.867,4.399,14.346,6.178,21.355C43.607,152.537,39.432,152.506,35.488,153.06z"/>
		<path d="M165.666,147.112c-1.014-1.226-2.241-2.124-3.558-2.86c2.859-3.811,4.233-8.787,3.357-14.67
			c-1.974-13.25-16.05-15.649-26.265-10.693c-1.479,0.718-2.366,2.543-2.365,4.124c0.003,13.731-0.513,27.657,0.753,41.342
			c0.294,3.174,3.065,4.381,5.281,3.665c2.228,4.95,9.365,7.08,14.42,5.93c5.778-1.315,9.479-5.627,11.526-10.979
			C170.915,157.484,169.269,151.466,165.666,147.112z M147.432,142.264c-0.326,0.036-0.633,0.079-0.951,0.12
			c0.008-5.392-0.049-10.78-0.074-16.15C157.558,123.199,160.053,140.424,147.432,142.264z M159.578,160.424
			c-2.308,7.695-8.995,1.712-13.688,1.691c-0.042,0-0.073,0.025-0.114,0.026c0.266-3.378,0.451-6.765,0.551-10.164
			c0.495-0.026,0.951-0.127,1.432-0.179C154.106,150.968,162.001,152.341,159.578,160.424z"/>
		<path d="M124.505,53.357c-6.462,0.85-10.553,9.171-17.796,8.113c-4.54-0.663-7.596-4.613-9.111-8.891
			c-1.584-4.468-1.749-9.719,0.487-13.662c2.685-4.733,9.002-4.001,13.901-3.099c5.398,0.994,7.189-6.064,2.229-8.084
			c-7.679-3.128-17.528-2.443-22.916,4.516c-4.893,6.32-5.334,14.792-3.116,22.261c2.16,7.274,7.361,13.736,14.798,15.929
			c4.068,1.2,8.598,0.585,12.468-0.97c4.418-1.775,12.208-5.848,12.989-10.949C128.789,56.229,127.403,52.976,124.505,53.357z"/>
	</g>
</g>
<g>
</g>
<g>
</g>
<g>
</g>
<g>
</g>
<g>
</g>
<g>
</g>
<g>
</g>
<g>
</g>
<g>
</g>
<g>
</g>
<g>
</g>
<g>
</g>
<g>
</g>
<g>
</g>
<g>
</g>
</svg>
