<?xml version="1.0" encoding="iso-8859-1"?>
<!-- Generator: Adobe Illustrator 16.0.0, SVG Export Plug-In . SVG Version: 6.00 Build 0)  -->
<!DOCTYPE svg PUBLIC "-//W3C//DTD SVG 1.1//EN" "http://www.w3.org/Graphics/SVG/1.1/DTD/svg11.dtd">
<svg version="1.1" id="Capa_1" xmlns="http://www.w3.org/2000/svg" xmlns:xlink="http://www.w3.org/1999/xlink" x="0px" y="0px"
	 width="192.333px" height="192.333px" viewBox="0 0 192.333 192.333" style="enable-background:new 0 0 192.333 192.333;"
	 xml:space="preserve">
<g>
	<g>
		<path d="M171.933,42.143C166.761,4.459,130.776,4.314,99.406,1.482C72.626-0.935,27.425-4.93,22.919,31.393
			c-2.167,17.464,0.833,34.864,0.526,52.374c-0.544,30.951-0.791,61.674-3.711,92.518c-0.249,2.626,3.267,3.102,4.529,1.266
			c17.465,18.605,114.144,14.621,132.032,14.005c0.888,0.442,1.787,0.356,2.555-0.071c0.015,0,0.049-0.001,0.062-0.001
			c5.355,0.006,5.355-8.306,0-8.303c-0.735,0-1.469-0.023-2.205-0.023c-1.79-2.423-3.028-5.179-3.633-8.263
			c-1.184-6.044,3.546-7.438,8.208-8.741c1.818,0.49,3.769-0.205,4.131-2.645c3.661-24.644,3.324-49.381,4.436-74.216
			C170.544,73.744,174.068,57.695,171.933,42.143z M147.959,183.063c-24.858-0.139-49.665-0.691-74.524-1.486
			c-14.331-0.459-63.571-1.032-32.313-24.764c31.017-23.548,72.373,5.46,107.019,7.495c-1.645,2.178-2.705,4.858-2.992,7.812
			C144.776,175.95,145.948,179.728,147.959,183.063z M158.5,156.856c-22.403-9.476-53.144-12.07-76.355-14.444
			c-19.492-1.993-39.939,0.537-52.897,14.677c4.224-25.836,2.428-53.018,2.872-78.893c0.204-11.888-1.49-23.793-1.579-35.692
			c-0.076-10.194,2.642-17.294,7.17-22.255c-5.155,41.744-3.477,85.348-0.168,127.038c0.125,1.572,2.448,1.614,2.477,0
			c0.759-43.534,0.641-86.989,1.697-130.517C51.932,9.472,67.67,8.893,82.668,9.037c18.202,0.174,36.478,2.765,54.407,5.631
			c21.96,3.51,26.803,20.681,26.975,39.721C164.353,87.75,162.697,123.636,158.5,156.856z"/>
		<path d="M79.586,74.26c-3.255-7.244-7.644-15.866-15.375-19.054c-7.793-3.213-12.306,6.051-13.004,12.09
			c-0.925,8.004-0.3,17.956,2.75,25.521c1.114,2.763,5.941,2.741,5.651-0.765c-0.092-1.115-0.406-5.003-0.585-9.568
			c1.727-0.234,4.705,0.154,6.733,0.309c2.576,0.195,6.007,1.102,8.499,0.291c0.072-0.023,0.118-0.068,0.187-0.096
			c0.215,0.555,0.483,1.086,0.69,1.645c0.375,1.013,0.597,2.341,1.19,3.25c0.697,1.068,0.578,1.493,0.592,0.525
			c0.094,0.622,0.369,1.259,0.935,1.858c0.02,0.021,0.04,0.042,0.06,0.063c1.213,1.285,3.55,1.328,4.756,0
			C86.379,86.237,81.336,78.156,79.586,74.26z M65.062,75.933c-2.002,0.013-4.143-0.009-6.16,0.367
			c0.018-7.503,0.764-14.481,3.664-12.893c4.05,2.219,6.714,7.991,8.751,12.329C69.204,75.662,66.911,75.921,65.062,75.933z"/>
		<path d="M137.107,70.8c-1.606-1.193-3.365-1.854-5.195-2.136c0.242-1.03,0.416-2.105,0.477-3.247
			c0.354-6.823-4.368-13.81-10.979-15.555c-5.597-1.477-10.396,1.548-13.185,5.952c-1.246,0.342-2.303,1.351-2.39,3.097
			c-0.058,1.172-0.025,2.369-0.046,3.554c-1.022,6.491,0.062,13.262,1.466,19.828c0.484,2.771,1.067,5.512,1.788,8.183
			c0.943,3.496,4.512,3.88,6.778,2.314c2.585,5.391,9.543,8.015,15.193,6.164c5.662-1.856,9.241-7.588,10.554-13.12
			C142.85,80.43,141.753,74.253,137.107,70.8z M117.592,58.75c3.116-1.286,5.049,2.302,5.741,4.749
			c0.867,3.06-0.333,5.343-2.359,6.919c-2.038,0.794-3.987,1.723-5.718,2.629c-0.335,0.176-0.545,0.418-0.799,0.638
			C113.418,67.03,113.455,60.458,117.592,58.75z M132.786,84.185c-0.521,2.169-1.938,5.194-4.155,6.123
			c-3.098,1.299-6.03-2.227-8.773-3.218c-0.825-0.298-1.658-0.181-2.4,0.159c-0.368-1.599-0.956-3.833-1.559-6.391
			c0.816,0.364,1.742,0.531,2.766,0.267c2.24-0.577,4.252-1.458,6.038-2.571C129.59,76.945,134.52,76.969,132.786,84.185z"/>
		<path d="M106.009,110.954c-2.142,2.134-3.541,3.966-5.906,5.313c-0.772,0.44-0.86,0.501-2.313,0.842
			c-0.141,0.033-0.146,0.043-0.17,0.056c-0.079-0.001-0.161-0.002-0.419,0.013c-0.466,0.027-0.934-0.003-1.399-0.042
			c1.544,0.128-2.274-0.846-0.927-0.258c-0.41-0.18-0.799-0.401-1.184-0.627c-0.101-0.06-0.416-0.285-0.624-0.431
			c-0.562-0.467-1.073-0.99-1.552-1.542c-0.155-0.2-0.409-0.523-0.477-0.626c-0.252-0.376-0.473-0.771-0.689-1.168
			c-0.063-0.114-0.251-0.534-0.354-0.753c-0.114-0.311-0.227-0.623-0.324-0.938c-0.128-0.417-0.221-0.845-0.308-1.271
			c-0.016-0.079-0.015-0.048-0.024-0.083c-0.003-0.08,0-0.1-0.014-0.291c-0.031-0.415-0.022-0.832-0.005-1.248
			c0.005-0.135,0.006-0.219,0.007-0.295c0.001-0.006,0.002-0.005,0.002-0.012c0.07-0.393,0.186-0.774,0.309-1.153
			c0.006-0.019-0.001-0.004,0.004-0.02c0.041-0.062,0.06-0.081,0.155-0.253c0.101-0.184,0.114-0.223,0.143-0.287
			c0.017-0.021,0.005,0,0.029-0.03c0.261-0.323,0.552-0.612,0.857-0.893c0.041-0.038,0.024-0.029,0.045-0.051
			c0.057-0.022,0.172-0.085,0.416-0.231c0.192-0.111,0.389-0.214,0.589-0.312c0.031-0.012,0.019-0.007,0.056-0.021
			c2.398-0.903,4.842-0.796,7.605-0.656c3.907,0.199,4.383-5.474,0.89-6.581c-6.208-1.968-13.888-1.679-18.011,4.059
			c-3.281,4.565-2.451,10.524-0.262,15.328c2.155,4.729,6.883,8.822,12.082,9.643c7.528,1.187,14.964-3.396,18.867-9.711
			C115.833,112.006,109.619,107.359,106.009,110.954z"/>
	</g>
</g>
<g>
</g>
<g>
</g>
<g>
</g>
<g>
</g>
<g>
</g>
<g>
</g>
<g>
</g>
<g>
</g>
<g>
</g>
<g>
</g>
<g>
</g>
<g>
</g>
<g>
</g>
<g>
</g>
<g>
</g>
</svg>
