<?xml version='1.0' encoding='iso-8859-1'?>
<!DOCTYPE svg PUBLIC '-//W3C//DTD SVG 1.1//EN' 'http://www.w3.org/Graphics/SVG/1.1/DTD/svg11.dtd'>
<svg version="1.1" xmlns="http://www.w3.org/2000/svg" viewBox="0 0 424.839 424.839" xmlns:xlink="http://www.w3.org/1999/xlink" enable-background="new 0 0 424.839 424.839">
  <g>
    <path d="m370.92,191.874c0,36.485 0.5,72.978-0.16,109.451-0.518,28.668-0.33,57.483-6.45,85.751-1.32,6.097-3.126,12.113-5.09,18.041-3.178,9.592-10.294,15.061-19.837,17.391-4.625,1.128-9.418,2.203-14.137,2.207-30.941,0.028-61.909,0.505-92.816-0.623-31.948-1.166-63.841-3.91-95.747-6.116-13.92-0.962-27.701-2.426-41.275-6.39-23.65-6.909-35.805-22.221-39.122-46.476-3.267-23.892-2.632-47.737-2.181-71.653 0.146-7.735 0.439-15.467 0.548-23.203 0.499-35.353 1.047-70.705 1.393-106.059 0.198-20.241 0.217-40.488-0.007-60.729-0.179-16.195-1.2-32.385-1.225-48.578-0.05-31.856 19.499-51.918 51.236-52.811 23.558-0.663 47.124-1.204 70.69-1.392 10.284-0.082 20.585,1.388 30.862,1.214 23.149-0.391 46.311-2.344 69.425-1.806 19.403,0.451 38.797,3.135 58.083,5.677 5.983,0.788 11.986,3.682 17.298,6.782 8.783,5.124 13.76,13.167 14.153,23.579 0.749,19.86 1.8,39.719 2.008,59.586 0.336,32.049 0.09,64.104 0.09,96.157 0.755-0.001 1.508-8.52651e-14 2.261-8.52651e-14zm-160.735,218.39c0.406,0.955 0.811,1.91 1.217,2.864 11.661,0 23.323-0.126 34.982,0.027 22.471,0.294 44.94,0.938 67.411,1.016 6.571,0.023 13.145-1.388 19.72-2.123 8.318-0.929 13.434-5.475 15.305-13.612 2.222-9.666 5.677-19.262 6.319-29.038 1.975-30.101 4.112-60.281 3.915-90.415-0.428-65.602-2.263-131.194-3.52-196.79-0.247-12.898-0.277-25.804-0.772-38.692-0.639-16.627-6.67-24.233-22.013-26.98-11.925-2.136-24.009-3.417-36.041-4.925-17.575-2.202-35.111-1.929-52.844-1.076-26.484,1.274-53.078,0.063-79.618,0.424-20.975,0.286-42.006,0.539-62.889,2.286-21.777,1.822-34.17,16.38-34.377,38.443-0.19,20.277 0.057,40.559 0.208,60.837 0.014,1.889 0.729,3.774 1.214,6.124 1.904-1.774 3.13-2.916 4.356-4.058-6.607,14.813-6.607,14.813-3.599,23.494 2.663-3.647 5.267-7.213 7.871-10.778-2.815,12.537-14.708,22.498-7.755,37.872 3.606-4.942 6.893-9.447 10.181-13.952 0.617,0.412 1.234,0.825 1.852,1.238-3.648,7.121-7.272,14.254-10.952,21.359-3.853,7.44-2.992,15.019-1.609,24.55 2.526-3.811 3.905-5.951 5.345-8.049 1.233-1.797 2.536-3.547 3.808-5.318-5.66,14.519-13.96,27.915-8.794,45.442 4.222-6.808 8.055-12.989 11.888-19.17 0.653,0.362 1.307,0.724 1.96,1.087-3.733,7.851-7.049,15.936-11.307,23.491-4.978,8.833-4.014,17.827-1.92,27.355 4.445-7.676 8.891-15.352 13.336-23.028 0.656,0.286 1.312,0.572 1.967,0.858-8.422,19.696-23.205,37.786-16.518,62.187 5.839-11.247 11.332-21.827 16.825-32.407 0.637,0.337 1.274,0.675 1.911,1.012-5.512,12.413-10.628,25.021-16.629,37.193-9.344,18.955-2.655,37.515-0.101,56.368 8.205-13.278 14.281-27.409 24.087-39.235-6.018,13.534-12.19,26.968-19.69,39.614-4.842,8.165-3.008,14.618 1.612,21.438 5.024,7.416 12.467,10.624 20.528,12.591 5.852-12.747 11.389-24.805 16.925-36.863 0.696,0.304 1.392,0.609 2.089,0.913-4.943,12.412-9.886,24.824-15.086,37.881 17.983,5.215 34.807,5.34 51.16,5.654 5.273-9.122 10.178-17.608 15.083-26.095 0.665,0.378 1.33,0.756 1.994,1.134-4.109,7.945-8.218,15.89-13.154,25.435 15.92,1.278 30.15,2.333 44.361,3.608 4.658,0.419 6.422-2.738 8.442-5.825 3.885-5.935 7.777-11.866 11.665-17.798 0.762,0.465 1.525,0.93 2.287,1.395-4.213,7.013-8.424,14.025-12.636,21.037z"/>
    <path d="m214.507,165.028c2.367-2.114 4.741-4.154 7.026-6.288 13.401-12.518 29.563-19.249 47.52-20.85 22.729-2.026 40.011,11.668 43.279,34.613 1.318,9.252 0.824,19.168-0.947,28.378-5.264,27.363-19.693,50.514-36.077,72.444-10.333,13.831-21.309,27.184-32.11,40.661-6.006,7.494-7.936,8.423-17.006,4.999-24.538-9.261-47.717-21.411-68.558-37.279-13.952-10.623-27.558-22.141-39.327-35.07-12.492-13.724-20.235-30.273-20.348-49.912-0.15-26.383 22.125-51.72 47.847-57.443 22.618-5.031 56.125,8.815 68.701,25.747z"/>
    <path d="m289.653,346.073c-2.595-1.726-4.958-3.298-7.9-5.255 1.108-1.822 1.634-3.835 2.905-4.586 6.639-3.924 14.434-2.96 21.635,2.881-2.747,2.412-5.362,4.708-8.062,7.079-0.888,22.071 3.296,29.511 19.15,33.878 10.281-9.742 11.909-16.125 8.446-34.391-1.021-0.277-2.482-0.411-3.68-1.043-6.054-3.194-6.756-7.593-0.981-10.262 5.118-2.365 11.181-3.768 16.796-3.676 6.003,0.097 8.343,5.414 4.397,9.881-3.385,3.833-2.779,7.515-1.986,11.216 2.611,12.181-1.647,22.455-8.341,32.02-5.735,8.195-11.8,9.949-21.068,6.862-15.696-5.23-22.978-15.828-22.266-32.548 0.155-3.663 0.571-7.315 0.955-12.056z"/>
    <path d="m85.554,79.088c3.586-1.588 7.34-3.251 11.903-5.272 0-9.132 0-18.85 0-28.869-4.947-0.715-9.706-1.403-14.67-2.121 1.108-7.054 5.886-8.165 9.926-8.725 6.87-0.952 13.905-1.064 20.853-0.883 2.056,0.053 4.056,2.274 6.081,3.502-1.404,1.866-2.484,4.186-4.298,5.477-2.013,1.433-4.695,1.928-7.775,3.092 0.62,9.413 1.243,18.848 1.854,28.131 4.95,1.63 9.655,2.534 13.693,4.689 4.073,2.174 3.668,7.551-0.643,8.187-12.146,1.792-24.52,3.052-35.864-3.744-0.45-0.271-0.433-1.32-1.06-3.464z"/>
    <path d="m94.352,299.129c-6.913,14.291-13.827,28.583-20.74,42.875-0.858-8.651 9.483-30.778 20.74-42.875z"/>
    <path d="m138.286,399.752c5.104-9.844 10.208-19.688 15.313-29.532 0.839,0.415 1.678,0.83 2.517,1.246-4.899,9.913-9.797,19.826-14.696,29.739-1.045-0.485-2.089-0.969-3.134-1.453z"/>
    <path d="m99.816,354.621c-3.453,6.991-6.907,13.981-10.36,20.971-0.478-8.724 5.912-14.294 8.123-21.767 0.745,0.266 1.491,0.531 2.237,0.796z"/>
    <path d="m121.405,395.53c3.217-6.597 6.433-13.193 9.65-19.79 0.663,0.297 1.327,0.595 1.99,0.892-3.027,6.56-6.053,13.119-9.08,19.679-0.853-0.261-1.706-0.521-2.56-0.781z"/>
    <path d="m193.717,403.41c0.669-1.526 1.172-3.154 2.038-4.559 2.813-4.564 5.758-9.046 10.242-12.613-3.422,6.05-6.844,12.1-10.266,18.151-0.671-0.326-1.343-0.653-2.014-0.979z"/>
    <path d="m239.832,398.474c-2.299,3.423-4.598,6.846-6.897,10.268-0.638-0.392-1.275-0.783-1.913-1.175 2.29-3.588 4.58-7.177 6.871-10.766 0.646,0.558 1.293,1.115 1.939,1.673z"/>
  </g>
</svg>
