<?xml version="1.0" encoding="iso-8859-1"?>
<!-- Generator: Adobe Illustrator 16.0.0, SVG Export Plug-In . SVG Version: 6.00 Build 0)  -->
<!DOCTYPE svg PUBLIC "-//W3C//DTD SVG 1.1//EN" "http://www.w3.org/Graphics/SVG/1.1/DTD/svg11.dtd">
<svg version="1.1" id="Capa_1" xmlns="http://www.w3.org/2000/svg" xmlns:xlink="http://www.w3.org/1999/xlink" x="0px" y="0px"
	 width="189.77px" height="189.771px" viewBox="0 0 189.77 189.771" style="enable-background:new 0 0 189.77 189.771;"
	 xml:space="preserve">
<g>
	<g>
		<path d="M123.429,59.801c-1.483-0.744-2.876-0.518-4.003,0.141c-3.894-13.42-9.271-25.063-15.859-32.691
			c5.115,0.472,10.295,0.501,15.174,0.391c7.005-0.158,20.697-0.714,23.385-9.105c2.986-9.325-7.63-16.889-15.509-18.13
			c-9.315-1.466-28.014,0.937-34.834,8.762c-0.847-0.925-2.061-1.504-3.355-1.022c-1.085,0.405-2.092,0.898-2.957,1.564
			c-7.329-3.408-16.894-3.744-24.588-3.963c-7.579-0.216-19.639,0.527-23.6,8.3c-4.552,8.934,5.294,15.452,12.754,16.41
			c6.797,0.873,14.322-1.104,20.88-2.649c0.484-0.114,1.026-0.222,1.591-0.33c-7.477,7.76-12.669,20.575-15.522,35.434
			C41.958,73.595-6.517,91.778,4.632,117.427c6.406,14.735,38.959,7.577,52.757,4.851c3.068,15.148,8.5,28.651,16.385,37.589
			c-10.143,5.246-17.384,13.699-19.892,25.115c-0.537,2.444,1.083,4.395,3.504,4.601c21.547,1.832,45.45-10.512,66.053-1.771
			c2.562,1.087,5.461-0.145,5.568-3.196c0.375-10.632-4.175-19.937-12.985-25.013c7.019-10.799,10.3-28.056,10.487-46.866
			c16.149,5.128,55.953,3.841,59.966-15.974C191.385,72.514,136.983,66.598,123.429,59.801z M16.151,116.088
			c-0.854-0.323-1.741-0.573-2.549-0.994c-5.286-2.759-2.035-8.688,2.943-14.198c0.042,1.428,0.134,2.86,0.131,4.241
			C16.669,108.791,16.441,112.443,16.151,116.088z M19.053,117.067c0.713-3.431,1.197-6.847,1.483-10.359
			c0.256-3.148,0.772-6.786,0.155-9.986c1.329-1.237,2.615-2.342,3.838-3.364c-0.082,2.036,0.054,4.083,0.087,5.706
			c0.132,6.347,1.11,12.702,2.211,18.947C24.142,117.936,21.521,117.682,19.053,117.067z M34.832,117.644
			c-1.843,0.179-3.688,0.347-5.498,0.383c-0.573-5.723-0.912-11.451-0.891-17.204c0.014-3.729,1.235-7.749,1.274-11.501
			c0.015-0.01,0.048-0.035,0.063-0.045c1.717-1.152,3.474-2.249,5.229-3.348C32.987,96.267,33.89,107.234,34.832,117.644z
			 M37.326,117.389c0.741-10.813-0.143-21.36,2.15-32.086c0.167-0.781-0.082-1.41-0.502-1.874c1.424-0.884,2.844-1.771,4.253-2.673
			c-1.059,11.824-0.249,23.914,0.694,35.663C41.739,116.775,39.538,117.117,37.326,117.389z M46.891,115.93
			c0.83-13.035,0.408-25.943,1.867-38.926c2.382-1.7,4.701-3.481,6.866-5.461c-1.75,13.831-1.625,28.821,0.413,42.891
			C53.153,114.843,50.071,115.387,46.891,115.93z M119.958,6.902c4.982-0.259,9.91,0.455,13.326,4.341
			c2.443,2.779,3.096,5.034-0.295,6.808c-6.258,3.273-15.493,2.387-22.274,2.056c-5.214-0.254-10.702-0.746-15.855-2.046
			c-0.634-1.699-1.013-3.468-1.473-5.217C102.411,11.464,110.544,7.392,119.958,6.902z M64.887,21.633
			c-5.021,1.068-10.386,1.936-15.522,1.235c-2.768-0.378-7.362-3.546-4.495-6.449c4.396-4.453,15.484-3.509,21.097-3.555
			c5.454-0.045,11.412,0.156,16.906,1.328c-0.243,1.124-0.4,2.271-0.629,3.403C76.767,17.333,69.417,20.669,64.887,21.633z
			 M62.231,182.509c2.986-7.808,8.831-13.452,15.247-18.924c3.291,2.865,6.922,5.038,10.931,6.283
			c0.798,0.248,1.542,0.363,2.314,0.544c0.239,0.482,0.45,0.976,0.713,1.447c0.171,0.307,0.432,0.476,0.657,0.702
			c0.205,1.347,0.385,2.698,0.442,4.064c0.022,0.99,0.414,1.726,0.957,2.277C83.101,180.313,72.637,182.564,62.231,182.509z
			 M121.222,179.447c-6.87-1.809-13.832-1.91-20.841-1.315c-0.279-1.282-0.576-2.566-0.895-3.853
			c0.009-0.114,0.062-0.195,0.061-0.316c-0.004-0.926,0.025-1.977-0.018-3.02c4.576-0.573,8.542-2.543,11.89-5.708
			C116.697,169.252,120.158,173.358,121.222,179.447z M103.683,159.623c0.318-4.746-0.881-9.731-2.996-14.253
			c-1.274-2.727-5.434-2.326-6.741,0.082c-1.286-1.222-3.743-1.088-4.611,1.137c-1.99,5.106-2.353,10.592-1.338,15.853
			c-35.914-8.681-33.809-118.596,2.536-136.377c0.256,0.262,0.489,0.535,0.859,0.744c22.088,12.468,26.462,45.189,27.927,67.942
			C120.307,110.108,120.247,148.098,103.683,159.623z M126.491,107.846c-0.237-13.222-1.94-26.985-4.908-39.665
			c2.524,1.155,5.175,2.134,7.888,3.026c-0.009,0.076-0.047,0.129-0.051,0.209c-0.7,12.024-0.145,24.55,1.835,36.437
			C129.667,107.854,128.079,107.857,126.491,107.846z M135.33,107.812c0.028-0.145,0.081-0.277,0.075-0.438
			c-0.45-11.518-0.231-23.107-0.838-34.61c0.555,0.158,1.12,0.303,1.678,0.456c0.921,11.416,2.438,23.157,4.863,34.367
			C139.183,107.672,137.258,107.783,135.33,107.812z M147.486,107.185c-1.211,0.108-2.421,0.219-3.632,0.295
			c-0.074-10.904-1.097-22.067-2.57-32.896c1.544,0.405,3.09,0.81,4.633,1.222c-0.816,2.739,0.587,6.165,1.083,8.902
			C148.336,92.082,148.842,99.774,147.486,107.185z M154.106,106.396c-0.821,0.132-1.646,0.214-2.471,0.322
			c1.08-6.292,0.939-12.644,0.551-19.032c-0.15-2.496,0.022-7.117-1.048-10.426c1.656,0.485,3.289,1.009,4.907,1.558
			c-0.08,9.018,0.292,18.099,0.769,27.107C155.672,106.139,154.726,106.297,154.106,106.396z M160.42,105.188
			c0.425-8.137,0.727-16.324,0.711-24.473c0.969,0.402,1.904,0.858,2.845,1.303c-1.01,7.014-1.059,14.325-0.368,21.361
			c0.041,0.413,0.243,0.676,0.446,0.928C162.801,104.639,161.573,104.933,160.42,105.188z M166.911,103.378
			c0.624-6.306,0.776-12.545,1.906-18.768c0.954,0.585,1.854,1.255,2.764,1.911c-0.563,2.197-0.172,4.675-0.104,6.921
			c0.083,2.745,0.194,5.487,0.336,8.23c-1.551,0.684-3.239,1.295-4.96,1.827C166.862,103.447,166.906,103.432,166.911,103.378z
			 M174.75,100.154c0.104-2.237,0.206-4.474,0.273-6.713c0.038-1.25,0.193-2.578,0.229-3.889c0.446,0.416,0.928,0.776,1.354,1.22
			C180.376,94.687,178.614,97.779,174.75,100.154z"/>
		<path d="M103.661,55.142c-3.314-4.189-7.952-7.555-13.395-8.125C77.7,45.701,72.642,58.157,73.431,68.753
			c0.175,2.353,2.679,3.038,4.144,2.039c0.315,0.179,0.676,0.314,1.118,0.349c5.242,0.425,10.474,0.593,15.733,0.616
			c3.271,0.014,6.942,0.161,9.997-1.043c0.223,0.307,0.441,0.618,0.71,0.899c0.875,0.913,2.846,0.853,3.393-0.437
			C110.724,65.99,106.914,59.253,103.661,55.142z M94.427,65.252c-5.21,0.487-10.44,0.685-15.655,1.108
			c0.602-6.755,3.385-14.703,11.614-13.245c3.892,0.689,7.036,3.581,9.242,6.693c1.012,1.429,1.61,3.065,2.146,4.718
			C99.359,64.56,96.896,65.021,94.427,65.252z"/>
	</g>
</g>
<g>
</g>
<g>
</g>
<g>
</g>
<g>
</g>
<g>
</g>
<g>
</g>
<g>
</g>
<g>
</g>
<g>
</g>
<g>
</g>
<g>
</g>
<g>
</g>
<g>
</g>
<g>
</g>
<g>
</g>
</svg>
