<?xml version="1.0" encoding="iso-8859-1"?>
<!-- Generator: Adobe Illustrator 16.0.0, SVG Export Plug-In . SVG Version: 6.00 Build 0)  -->
<!DOCTYPE svg PUBLIC "-//W3C//DTD SVG 1.1//EN" "http://www.w3.org/Graphics/SVG/1.1/DTD/svg11.dtd">
<svg version="1.1" id="Capa_1" xmlns="http://www.w3.org/2000/svg" xmlns:xlink="http://www.w3.org/1999/xlink" x="0px" y="0px"
	 width="191.646px" height="191.646px" viewBox="0 0 191.646 191.646" style="enable-background:new 0 0 191.646 191.646;"
	 xml:space="preserve">
<g>
	<g>
		<g>
			<path d="M145.55,136.244c-0.017,0.008-0.032,0.009-0.048,0.017C145.11,136.48,144.873,136.59,145.55,136.244z"/>
			<path d="M146.991,134.723C147.131,134.471,147.138,134.447,146.991,134.723L146.991,134.723z"/>
			<path d="M146.312,130.322c-0.687-0.793-1.467-1.823-2.396-2.329c-1.389-0.756-2.229-1.564-3.388-2.71
				c-2.057-2.037-3.943-4.219-5.918-6.332c-0.531-0.568-1.129-0.796-1.706-0.792c7.226-7.509,11.896-16.103,11.695-24.454
				c-0.721-29.937-34.333-67.964-55.327-86.774C65.834-14.07,26.648,17.376,14.841,38.565c-1.276,2.29-0.217,4.438,1.498,5.516
				C16.748,60.937,27.511,76.05,36.5,89.605c1.702,2.565,3.546,5.652,5.514,9.009c0.003,0.228-0.014,0.447-0.009,0.676
				c0.034,1.796,1.06,2.876,2.325,3.284c7.874,13.479,17.518,29.629,28.267,35.173c15.23,7.856,41.59-2.018,57.845-17.26
				c-0.074,0.494-0.046,1.012,0.202,1.524c1.254,2.596,3.258,4.845,5.075,7.062c1.8,2.198,3.131,4.704,5.262,6.58
				c1.326,1.167,2.94,1.394,4.522,0.605c0.303-0.17,0.692-0.399,0.854-0.562c0.161-0.161,0.39-0.546,0.562-0.848
				C147.721,133.265,147.469,131.655,146.312,130.322z M132.603,84.44c2.385,5.825,2.024,10.991,0.088,15.623
				c-1.222-0.941-2.749-1.254-3.951-2.421c-0.918-0.891-1.688-2.006-2.36-3.181c3.016-3.12,5.38-6.501,6.209-10.056
				C132.593,84.417,132.599,84.429,132.603,84.44z M63.974,10.122c0.256,2.177,2.034,4.26,3.304,5.835
				c0.869,1.078,2.085,2.521,3.468,3.685c-0.926,0.725-1.816,1.494-2.761,2.193c-0.898-1.157-2.088-2.158-3.109-3.331
				c-1.913-2.199-3.606-4.579-5.292-6.953C61.115,10.914,62.559,10.481,63.974,10.122z M55.232,13.632
				c1.56,2.49,3.136,4.966,4.861,7.347c0.98,1.352,1.972,2.931,3.177,4.171c-0.813,0.559-1.603,1.146-2.423,1.695
				c-2.426-1.699-4.832-2.967-6.982-5.162c-1.484-1.516-2.732-3.21-3.889-4.969C51.715,15.657,53.459,14.609,55.232,13.632z
				 M47.103,18.52c2.185,4.245,5.123,8.758,9.021,11.444c-1.027,0.664-2.051,1.333-3.081,1.992c-1.273-0.725-2.64-1.336-3.85-2.192
				c-2.603-1.842-4.762-4.404-6.395-7.118c-0.222-0.369-0.507-0.571-0.806-0.699C43.657,20.749,45.379,19.63,47.103,18.52z
				 M39.656,23.662c0.011,0.229,0.066,0.469,0.179,0.714c1.569,3.43,3.933,6.271,6.809,8.69c0.683,0.573,1.389,1.133,2.113,1.654
				c-1.362,0.875-2.732,1.744-4.083,2.632c-1.718-0.957-3.657-1.269-5.39-2.301c-2.474-1.475-4.4-3.732-5.883-6.178
				C35.384,27.027,37.495,25.314,39.656,23.662z M30.591,31.765c1.51,2.595,3.374,4.986,5.771,6.809
				c0.996,0.757,2.11,1.531,3.282,2.095c-1.829,1.216-3.934,2.598-6.11,4.215c-0.011-0.51-0.167-1.048-0.586-1.564
				c-2.017-2.495-4.669-4.241-6.631-6.811C27.622,34.818,29.121,33.305,30.591,31.765z M23.508,42.098
				c-0.037-0.428-0.177-0.776-0.313-1.127c0.271-0.433,0.588-0.824,0.87-1.249c1.512,2.572,3.534,5.2,5.602,6.875
				c0.344,0.279,0.697,0.43,1.047,0.52c-2.008,1.715-3.82,3.574-5.045,5.545C24.591,49.17,23.812,45.649,23.508,42.098z
				 M45.366,68.016c-1.177,5.32-2.071,10.522-2.646,15.76c-5.829-8.087-11.3-16.536-14.92-25.241c2.321-1.286,4.01-3.356,6.12-5.203
				c4.782-4.188,10.401-7.509,15.733-10.935c10.222-6.568,20.749-12.636,29.969-20.616c3.192-2.763-0.674-7.115-4.043-5.728
				c-1.268-0.912-2.727-1.681-3.825-2.645c-1.032-0.907-2.998-2.555-3.954-3.904c9.552-0.844,16.731,4.717,24.525,13.13
				c5.755,6.213,11.299,12.957,16.481,20.047c-8.086-1.435-16.085-1.36-24.444,0.5c-2.077,0.463-3.524,2.578-3.53,4.637
				c-0.021,7.955-0.256,15.668-1.83,23.395c-9.435-1.336-18.448-4.877-27.859-6.477C48.727,64.325,45.959,65.336,45.366,68.016z
				 M71.907,124.577c-4.031-4.587-7.222-10.771-10.524-15.584c-3.424-4.991-7.471-10.256-11.611-15.712
				c0.703-6.284,1.871-12.428,3.501-18.546c9.851,2.23,19.351,5.692,29.507,6.466c2.103,0.16,4.081-1.579,4.616-3.515
				c2.358-8.526,2.873-17.025,2.994-25.755c8.163-1.225,15.897-0.432,23.997,1.951c0.791,0.233,1.511,0.25,2.17,0.138
				c4.914,7.678,9.355,15.633,13.085,23.718c-0.871,0.002-1.71,0.429-2.218,1.479c-5.863,12.147-18.752,20.112-29.582,27.367
				C89.758,112.002,78.211,116.971,71.907,124.577z M75.208,127.737c3.412-0.986,6.853-2.548,10.262-4.376
				c0.443,0.58,0.931,1.132,1.402,1.683c1.666,1.951,3.527,3.813,5.469,5.553C86.54,132.119,80.529,131.895,75.208,127.737z
				 M98.578,128.326c-0.155-0.149-0.256-0.315-0.458-0.449c-2.437-1.622-4.673-3.418-6.834-5.398
				c-0.541-0.495-1.039-1.03-1.551-1.552c1.976-1.198,3.917-2.472,5.834-3.761c0.079,0.163,0.162,0.328,0.309,0.482
				c1.977,2.078,4.16,3.943,6.374,5.766c0.696,0.574,1.414,1.214,2.145,1.853C102.55,126.343,100.619,127.399,98.578,128.326z
				 M108.651,122.68c-1.329-0.844-2.756-1.598-3.955-2.433c-2.21-1.539-4.373-3.156-6.371-4.963
				c2.171-1.503,4.256-2.977,6.288-4.406c1.71,2.62,3.7,5.006,5.722,7.396c0.602,0.712,1.299,1.418,2.059,1.997
				C111.119,121.104,109.859,121.913,108.651,122.68z M116.523,117.485c-0.228-0.25-0.667-0.879-1.03-1.128
				c-0.838-0.572-1.671-1.135-2.467-1.765c-2.043-1.617-3.88-3.688-5.482-5.762c0.169-0.117,0.354-0.25,0.521-0.365
				c1.248-0.857,2.757-1.865,4.344-2.933c0.034,0.159,0.043,0.313,0.118,0.477c1.521,3.311,3.338,6.962,6.561,8.918
				c0.191,0.117,0.379,0.169,0.568,0.256C118.622,115.972,117.577,116.744,116.523,117.485z M122.872,109.356
				c-1.42,1.345-1.688,1.465-3.077,0.16c-1.622-1.521-2.761-3.593-3.85-5.507c-0.14-0.247-0.311-0.423-0.489-0.573
				c2.488-1.74,5.089-3.685,7.511-5.772c1.834,3.233,4.45,6.668,7.118,7.15c-1.225,1.751-2.643,3.422-4.223,5.002
				C125.278,108.824,123.896,108.386,122.872,109.356z"/>
			<path d="M146.902,134.892c0.062-0.116,0.054-0.102,0.09-0.169c-0.021,0.037-0.052,0.089-0.075,0.129
				C146.909,134.865,146.909,134.878,146.902,134.892z"/>
		</g>
		<path d="M177.202,146.582c-1.663-17.167-18.021-20.917-31.936-14.721c-3.891,1.731-1.083,7.784,2.833,6.72
			c9.991-2.717,20.068-3.174,21.226,9.501c0.951,10.411-4.513,21.208-11.765,28.303c-10.116,9.897-25.925,9.504-37.137,2.015
			c-4.362-2.914-7.666-7.521-8.918-12.583c-1.83-7.402,6.294-11.248,11.856-13.07c1.774-0.581,1.863-3.159,0.414-3.852
			c-0.041-1.087-0.562-2.151-1.869-2.898c-2.487-1.419-4.503-3.596-6.488-5.631c-0.835-0.855-1.66-1.717-2.498-2.568
			c-0.357-0.361-0.955-0.751-1.449-0.887c-0.084-0.023-0.179-0.046-0.272-0.07c-0.553-0.862-1.088-1.739-1.719-2.549
			c-1.521-1.954-5.237-0.363-4.975,2.06c0.474,4.378,4.15,9.596,7.989,11.674c0.467,0.252,0.938,0.359,1.4,0.39
			c0.553,0.627,1.097,1.26,1.671,1.871c-11.177,4.128-15.222,15.371-6.969,27.081c10.815,15.346,32.221,17.98,48.039,9.547
			C170.327,179.612,178.669,161.709,177.202,146.582z"/>
		<path d="M149.449,147.509c-1.647-0.379-2.906,0.374-3.604,1.485c-1.953-0.299-4.08-0.054-5.97,0.301
			c-5.282,0.994-10.391,4.003-13.191,8.652c-4.938,8.197,1.479,18.642,10.583,18.67c8.012,0.023,16.284-5.645,20.649-12.064
			C163.363,156.54,157.758,149.423,149.449,147.509z M151.754,161.569c-2.863,4.271-8.267,7.316-13.219,8.29
			c-5.023,0.987-8.399-3.975-6.219-8.619c1.61-3.426,5.683-5.312,9.086-6.402c1.413-0.453,3.185-1.045,4.934-1.45
			c0.349,0.278,0.784,0.497,1.317,0.63C152.585,155.245,154.708,157.162,151.754,161.569z"/>
		<path d="M68.056,88.151c-2.815-3.979-10.314-1.451-8.463,3.829c0.837,2.386,1.863,4.991,4.575,5.713
			c1.503,0.398,3.579,0.065,4.614-1.221c1.13-1.402,1.51-2.55,1.572-4.331C70.426,90.112,69.408,88.828,68.056,88.151z"/>
		<path d="M106.017,65.518c-0.443-1.418-1.697-2.459-3.218-2.449c-0.335,0.002-0.671,0.004-1.006,0.006
			c-2.275,0.013-3.747,1.469-4.54,3.457c-0.303,0.754-0.414,1.496-0.392,2.311c0.129,4.549,6.098,6.206,8.498,2.303
			C106.505,69.28,106.663,67.592,106.017,65.518z"/>
		<path d="M64.194,48.992c-5.861,0-5.861,9.088,0,9.088C70.054,58.08,70.054,48.992,64.194,48.992z"/>
	</g>
</g>
<g>
</g>
<g>
</g>
<g>
</g>
<g>
</g>
<g>
</g>
<g>
</g>
<g>
</g>
<g>
</g>
<g>
</g>
<g>
</g>
<g>
</g>
<g>
</g>
<g>
</g>
<g>
</g>
<g>
</g>
</svg>
