<?xml version="1.0" encoding="iso-8859-1"?>
<!-- Generator: Adobe Illustrator 16.0.0, SVG Export Plug-In . SVG Version: 6.00 Build 0)  -->
<!DOCTYPE svg PUBLIC "-//W3C//DTD SVG 1.1//EN" "http://www.w3.org/Graphics/SVG/1.1/DTD/svg11.dtd">
<svg version="1.1" id="Capa_1" xmlns="http://www.w3.org/2000/svg" xmlns:xlink="http://www.w3.org/1999/xlink" x="0px" y="0px"
	 width="193.962px" height="193.963px" viewBox="0 0 193.962 193.963" style="enable-background:new 0 0 193.962 193.963;"
	 xml:space="preserve">
<g>
	<g>
		<path d="M141.084,121.86c17.815-12.54,30.967-26.814,35.453-44.431c2.164-0.831,2.524-3.744,1.07-5.274
			c1.37-9.111,0.492-19.091-3.132-30.142C163.853,9.624,123.735-1.757,93.563,0.215C61.29,2.326,31.653,21.784,19.466,51.73
			c-7.588,18.647-3.554,32.12,5.481,43.237c-0.151,0.629-0.088,1.289,0.531,1.768c0.653,0.507,1.358,0.897,2.088,1.227
			c9.526,10.297,23.109,18.659,35.042,27.506c-0.792,3.34-1.306,6.742-1.416,10.162c-13.711-1.5-22.766,2.403-24.341,19.281
			c-0.999,10.707,2.173,33.71,15.341,35.606c32.5,4.683,68.806,5.156,100.979-2.124c19.516-4.415,15.69-26.91,14.884-41.827
			c-0.111-2.054-1.635-3.779-3.778-3.777c-8.133,0.009-19.412-1.855-27.272,1.628c0.095-0.866,0.116-1.751,0.054-2.669
			c0.385-0.571,0.658-1.239,0.6-2.117c-0.391-5.962-0.353-11.831-0.032-17.757C138.627,122.533,139.895,122.697,141.084,121.86z
			 M143.877,70.563c0.275,0.171,0.591,0.288,0.982,0.253c5.602-0.5,11.185-1.143,16.755-1.925c3.164-0.444,6.662-0.768,9.782-1.828
			c-0.168,1.44-0.442,2.856-0.767,4.26c-5.348,0.128-10.719,0.481-16.023,0.848c-2.924,0.202-7.206,0.179-10.174,1.679
			C144.3,72.742,144.121,71.643,143.877,70.563z M171.582,61.25c-3.771,0.395-7.703,2.009-11.304,2.791
			c-5.28,1.147-10.627,1.968-15.929,3.003c-0.608,0.119-0.98,0.507-1.183,0.981c-0.477-1.544-1.02-3.064-1.692-4.531
			c5.569-0.014,11.193-2.588,16.265-4.563c3.807-1.483,8.899-2.882,12.869-5.116C171.217,56.349,171.485,58.816,171.582,61.25z
			 M110.629,8.186c-0.089-0.202-0.254-0.32-0.397-0.46c17.244,1.709,33.792,8.951,45.799,21.212
			c-0.043,0.023-0.085,0.021-0.128,0.046c-3.989,2.346-7.491,5.652-11.224,8.399c-4.001,2.945-8.075,5.784-12.051,8.766
			c-2.258,1.694-0.296,5.397,2.271,3.885c4.266-2.512,8.431-5.16,12.569-7.878c4.014-2.637,8.554-5.213,11.892-8.691
			c0.167-0.174,0.252-0.369,0.365-0.557c1.631,1.978,3.17,4.05,4.565,6.251c1.881,2.966,3.25,5.847,4.393,8.689
			c-3.893,1.232-7.728,3.781-11.2,5.405c-5.755,2.689-11.771,4.705-17.538,7.315c-0.493-0.866-0.944-1.754-1.501-2.583
			c5.031-1.568,9.859-3.83,14.652-5.988c2.662-1.199,5.318-2.405,7.986-3.589c1.319-0.585,2.69-1.921,3.774-2.379
			c2.208-0.931,2.013-4.122-0.579-4.275c-3.757-0.223-7.067,2.175-10.261,3.855c-5.907,3.107-11.867,6.225-18.033,8.794
			c-0.053,0.022-0.082,0.062-0.132,0.086c-5.409-6.49-12.771-11.499-20.534-14.289c-2.819-1.013-5.916-1.623-9.138-1.956
			c0.164-0.198,0.295-0.432,0.36-0.723c1.279-5.566,2.074-11.24,3.026-16.87C110.229,16.747,112.278,11.937,110.629,8.186z
			 M114.346,96.063c-0.558-0.005-1.038,0.091-1.448,0.26c-7.224-0.596-14.459-0.729-21.669-2.143
			C78.737,91.73,62.59,80.835,64.844,66.213c3.134-20.331,35.301-23.568,50.483-18.136c11.672,4.176,20.633,15.86,21.911,28.098
			C138.764,90.777,127.004,96.173,114.346,96.063z M102.579,9.256c-0.096-0.797-0.669-1.568-1.381-1.939
			c2.122-0.025,4.239,0.147,6.357,0.287c-0.081,0.058-0.188,0.083-0.258,0.151c-2.802,2.742-2.371,8.522-2.788,12.211
			c-0.641,5.672-1.303,11.347-1.848,17.029c-0.038,0.396,0.072,0.712,0.235,0.991c-1.336-0.051-2.686-0.065-4.045-0.023
			c0.847-4.716,1.469-9.466,2.099-14.216C101.568,19.092,103.149,13.947,102.579,9.256z M81.941,9.852
			c5.796-1.528,11.782-2.357,17.791-2.535c-0.256,0.107-0.519,0.181-0.743,0.452c-2.85,3.452-2.603,8.584-3.029,12.843
			c-0.587,5.875-1.057,11.765-1.704,17.634c-1.967,0.224-3.938,0.49-5.886,0.919c0.038-0.09,0.1-0.159,0.123-0.261
			c1.17-4.802,1.471-9.819,1.776-14.737c0.239-3.855,1.601-9.779-0.302-13.29c-0.807-1.488-3.142-1.487-3.948,0
			c-1.734,3.195-0.622,8.145-0.634,11.687c-0.018,5.295-0.389,10.542-0.737,15.82c-0.046,0.704,0.289,1.204,0.76,1.523
			c-1.781,0.494-3.543,1.047-5.251,1.714c-0.096-0.219-0.139-0.461-0.309-0.641c-6.593-6.965-9.739-16.966-12.16-26.144
			C72.474,12.777,77.289,11.078,81.941,9.852z M64.687,16.146c0.755,5.728,2.568,11.429,4.618,16.779
			c-0.488-0.644-0.98-1.288-1.42-1.93c-2.782-4.062-5.375-8.358-8.444-12.224C61.171,17.838,62.926,16.97,64.687,16.146z
			 M23.913,63.628c5.843,1.103,11.742,1.963,17.608,2.869c4.144,0.64,11.664,3.314,15.035,0.088c1.041-0.996,0.977-2.695,0-3.699
			c-2.94-3.025-10.302-1.816-14.254-2.147c-5.874-0.491-11.706-1.43-17.566-2.046c3.696-16.41,16.594-29.339,31.598-38.142
			c2.129,4.907,4.996,9.573,7.677,14.177c2.083,3.579,4.09,8.369,8.115,10.039c1.16,0.481,2.343-0.402,2.751-1.5
			c0.203,0.172,0.426,0.305,0.643,0.451c-9.402,4.839-16.699,12.581-18.325,23.021c-0.613,3.94,0.04,7.735,1.521,11.277
			c-1.434,0.344-2.862,0.734-4.292,1.174c0.345-0.234,0.708-0.453,0.951-0.77c0.455-0.593,0.455-1.807,0-2.4
			c-0.341-0.446-0.802-0.796-1.337-1.082c0.223,0.002,0.45,0.046,0.671,0.042c1.902-0.038,2.632-2.593,0.97-3.579
			c-4.117-2.44-9.422-2.446-14.108-2.91c-5.93-0.588-11.905-0.929-17.853-1.325C23.758,65.979,23.79,64.789,23.913,63.628z
			 M23.946,73.936c-0.133-1.061-0.139-2.083-0.188-3.118c4.382,0.664,8.795,1.086,13.204,1.547c3.016,0.315,6.108,1.027,9.196,1.633
			c-3.114,0.184-6.215,0.654-8.052,0.704c-4.686,0.128-9.223,0.449-13.795,1.033C24.203,75.125,24.024,74.562,23.946,73.936z
			 M24.929,78.772c4.362,0.529,8.702,0.843,13.177,0.964c2.757,0.075,8.323,1.094,12.548,0.639c-2.425,0.804-4.839,1.617-7.221,2.29
			c-4.973,1.406-10.369,2.347-15.062,4.489C26.929,84.552,25.738,81.787,24.929,78.772z M136.829,116.346
			c-0.108,0.099-0.146,0.22-0.236,0.325c-1.338-0.729-3.414-0.3-3.945,1.468c-2.082,6.934-2.302,14.32-2.778,21.495
			c-0.058,0.879,0.215,1.547,0.601,2.119c-0.047,0.669-0.039,1.307-0.013,1.962c-0.17,0.962-0.326,1.922-0.311,2.854
			c0.035,2.138,2.174,2.617,3.483,1.676c0.192,1.343,1.273,2.575,2.909,2.712c11.032,0.914,23.867-6.502,24.627,8.031
			c1.437,27.462-26.238,24.909-46.15,26.292c-19.234,1.337-38.654,0.981-57.771-1.534c-8.623-1.136-8.94-6.09-11.074-13.921
			c-3.825-14.051,0.38-27.264,16-29.349c1.502,2.358,4.348,3.533,6.945,1.087c1.383-1.302,0.789-3.354-0.682-4.226
			c-0.133-0.327-0.264-0.656-0.403-0.981c-0.442-1.026-0.387-2.364-0.443-3.455c-0.192-3.75,0.145-7.551,0.337-11.296
			c0.123-2.431-3.508-2.821-4.159-0.58c-8.117-7.7-18.212-14.242-26.255-22.158c1.742-0.218,3.45-0.525,5.026-0.821
			c5.951-1.121,17.111-3.869,19.978-9.794c0.793-1.641-0.125-4.087-2.259-3.935c-5.403,0.386-10.686,4.724-15.874,6.485
			c-4.13,1.402-8.091,1.911-12.194,2.146c-0.783-0.999-1.519-2.03-2.214-3.087c4.159,0.699,9.151-0.855,13.015-1.712
			c6.13-1.36,12.741-2.569,18.746-4.716c3.796,5.482,9.298,10.079,14.452,13.242c9.682,5.943,23.302,5.299,35.145,3.632
			c0.4,1.21,1.411,2.259,3.017,2.454c16.593,2.013,30.17-7.833,30.319-24.993c0.002-0.306-0.041-0.602-0.047-0.906
			c3.644-0.773,9.46,0.32,12.958,0.366c3.701,0.049,7.412,0.216,11.121,0.339C162.828,92.444,149.182,105.241,136.829,116.346z"/>
		<path d="M81.891,28.921c-1.937-4.713-3.715-9.562-5.022-14.491c-0.475-1.792-2.997-1.003-2.716,0.749
			c0.809,5.047,2.307,9.947,3.616,14.88c0.777,2.936,1.176,6.036,3.357,8.257c1.215,1.235,3.062,0.237,3.186-1.319
			C84.542,34.089,82.976,31.563,81.891,28.921z"/>
	</g>
</g>
<g>
</g>
<g>
</g>
<g>
</g>
<g>
</g>
<g>
</g>
<g>
</g>
<g>
</g>
<g>
</g>
<g>
</g>
<g>
</g>
<g>
</g>
<g>
</g>
<g>
</g>
<g>
</g>
<g>
</g>
</svg>
