<?xml version="1.0" encoding="iso-8859-1"?>
<!-- Generator: Adobe Illustrator 16.0.0, SVG Export Plug-In . SVG Version: 6.00 Build 0)  -->
<!DOCTYPE svg PUBLIC "-//W3C//DTD SVG 1.1//EN" "http://www.w3.org/Graphics/SVG/1.1/DTD/svg11.dtd">
<svg version="1.1" id="Capa_1" xmlns="http://www.w3.org/2000/svg" xmlns:xlink="http://www.w3.org/1999/xlink" x="0px" y="0px"
	 width="192.12px" height="192.12px" viewBox="0 0 192.12 192.12" style="enable-background:new 0 0 192.12 192.12;"
	 xml:space="preserve">
<g>
	<g>
		<path d="M111.048,139.695c2.007-0.94,3.992-1.957,5.988-2.962c1.846-0.929,2.227-3.365,1.325-5.053
			c-2.44-4.563-6.05-8.564-9.636-12.341c34.771-9.443,46.553-49.953,38.493-82.047C137.692-0.647,92.916-9.569,62.607,10.209
			c-46.341,30.24-3.101,123.533,33.576,114.192c-0.498,4.877-1.47,9.644-2.432,14.585c-0.432,2.22,0.993,4.664,3.489,4.58
			c2.831-0.095,5.499-0.68,8.081-1.536c1.904,6.505,9.151,10.029,15.893,12.852c12.195,5.104,17.063,13.927,6.915,25.372
			c-6.147,6.934-16.954,3.032-23.958,0.015c-8.808-3.794-52.431-37.819-56.638-13.136c-0.717,4.208,4.324,6.418,6.822,2.876
			c6.843-9.701,28.103,7.951,35.489,12.189c10.789,6.192,23.939,12.834,36.55,8.569c11.102-3.754,17.804-18.747,14.761-29.574
			C137.401,147.843,116.362,150.331,111.048,139.695z M97.285,115.354c-39.803,8.552-59.462-67.985-34.441-94.283
			C86.752-4.058,129.1,8.606,138.913,39.582c8.744,27.604-3.893,64.602-33.852,71.879c-1.533,0.372-2.389,1.328-2.784,2.45
			c-1.129,0.431-2.237,0.755-3.338,1.054C98.362,114.865,97.756,115.019,97.285,115.354z M101.51,122.452
			c0.123,0.18,0.196,0.38,0.354,0.543c2.785,2.87,5.689,5.831,8.042,9.126c-2.769,1.427-5.581,2.758-8.564,3.535
			C101.773,131.263,101.951,126.825,101.51,122.452z"/>
		<path d="M128.777,50.47c-2.111-0.639-3.399,0.273-4.947,0.789c-1.672,0.557-3.369,1.039-5.06,1.535
			c-1.631,0.478-3.304,0.949-4.868,1.611c-0.626,0.265-1.531,0.886-1.818,1.553c0.151-0.352,0.939-1.186-0.233,0.041
			c-1.026,1.074-1.101,2.844,0,3.908c0.562,0.543,1.233,0.703,1.941,0.714c0.896,0.338,1.864,0.364,2.804,0.208
			c3.58,13.24-0.701,25.3-15.224,28.809c-5.355,1.294-11.161,0.407-15.855-2.417c-6.335-3.813-6.54-11.174-6.57-17.717
			c-0.002-0.388-0.097-0.719-0.199-1.043c2.924,0.325,6.893,1.07,9.026-1.205c1.716-1.829,1.381-4.717-0.778-6.04
			c-2.333-1.43-6.756-0.7-9.458-0.834c-2.92-0.146-6.507-0.548-9.101,1.085c-3.481,2.192-1.275,8.158,2.873,6.814
			c0.092-0.03,0.184-0.06,0.276-0.089c-0.684,0.068-0.457,0.032,0.682-0.106c-0.186,0.028-0.089,0.034,0.078,0.034
			c-0.072,0.159-0.18,0.28-0.233,0.46c-5.47,18.719,11.33,32.355,28.997,29.722c19.693-2.935,29.183-20.777,24.084-38.907
			c2.421-0.47,4.878-1.26,5.927-3.169C132.358,53.972,131.239,51.216,128.777,50.47z"/>
		<path d="M84.071,43.971c0.027-2.166-0.438-4.302-0.76-6.454c-0.039-1.299-0.115-2.595-0.28-3.874
			c0.102-2.027-1.769-3.721-3.721-3.721c-2.225,0-3.46,1.71-3.721,3.721c-0.278,2.147-0.258,4.308-0.304,6.47
			c-0.048,2.238-0.067,4.46,1.708,6.093c1.12,1.031,2.613,1.16,3.868,0.486c0.527,0.128,0.606,0.096,0.465,0.001
			c0.695,0.232,1.499,0.069,1.875-0.603c0.054-0.096,0.039-0.208,0.075-0.308C83.737,45.267,84.062,44.607,84.071,43.971z"/>
		<path d="M116.344,27.597c0.01-0.119-0.002-0.238,0.012-0.358c0.463-4.188-6.676-5.147-7.357-0.996
			c-0.546,3.327-0.53,6.914-0.492,10.282c0.015,1.374,0.753,2.907,2.033,3.544c1.536,0.764,2.606,0.764,4.143,0
			c1.28-0.637,2.018-2.17,2.033-3.544C116.747,33.603,116.698,30.537,116.344,27.597z"/>
	</g>
</g>
<g>
</g>
<g>
</g>
<g>
</g>
<g>
</g>
<g>
</g>
<g>
</g>
<g>
</g>
<g>
</g>
<g>
</g>
<g>
</g>
<g>
</g>
<g>
</g>
<g>
</g>
<g>
</g>
<g>
</g>
</svg>
