<?xml version="1.0" encoding="iso-8859-1"?>
<!-- Generator: Adobe Illustrator 16.0.0, SVG Export Plug-In . SVG Version: 6.00 Build 0)  -->
<!DOCTYPE svg PUBLIC "-//W3C//DTD SVG 1.1//EN" "http://www.w3.org/Graphics/SVG/1.1/DTD/svg11.dtd">
<svg version="1.1" id="Capa_1" xmlns="http://www.w3.org/2000/svg" xmlns:xlink="http://www.w3.org/1999/xlink" x="0px" y="0px"
	 width="194.109px" height="194.109px" viewBox="0 0 194.109 194.109" style="enable-background:new 0 0 194.109 194.109;"
	 xml:space="preserve">
<g>
	<g>
		<path d="M165.887,98.45c-7.34-41.968-44.987-63.194-85.067-56.892c-0.461,0.073-0.779,0.272-1.144,0.431
			c-0.144-0.124-0.27-0.263-0.457-0.347C67.541,36.428,54.223,51.951,47.103,59.02C29.675,76.32,20.42,92.081,20.291,116.855
			c-0.279,53.378,56.046,84.641,103.358,68.629C159.542,173.338,171.844,132.511,165.887,98.45z M77.324,47.065
			c0.071,0.006,0.156-0.018,0.225-0.009c0.685,2.296,2.837,4.328,5.85,3.854c37.314-5.87,65.068,19.594,72.92,50.135
			c-0.288-0.092-0.538-0.174-0.876-0.281c-1.646-0.519-3.229,0.462-4.013,1.837c-20.729-0.977-44.2-8.362-56.353-25.444
			c-5.592-7.861-10.692-20.487-19.67-24.388C75.98,50.84,76.599,48.93,77.324,47.065z M106.333,98.024
			c3.761,2.375,7.767,4.422,11.926,6.157c-14.017-0.56-28.054,0.639-42.161-0.556c-0.712-2.481-1.362-4.98-1.881-7.509
			C84.84,97.326,95.623,97.958,106.333,98.024z M73.498,92.434c-0.412-2.481-0.75-4.97-0.971-7.465
			c6.947,0.772,13.944,2.165,20.837,2.469c0.796,0.89,1.61,1.768,2.483,2.602c1.047,1,2.222,1.863,3.337,2.79
			C90.626,92.84,82.075,92.83,73.498,92.434z M74.783,54.951c2.024,3.377,3.777,9.386,5.642,12.739
			c0.855,1.538,1.716,3.07,2.582,4.599c-1.06-0.109-2.127-0.195-3.19-0.294c-2.541-0.237-5.053-0.575-7.57-0.911
			C72.58,65.581,73.407,60.163,74.783,54.951z M78.049,75.688c2.511,0.367,5.127,1.055,7.699,1.217
			c0.912,1.496,1.869,2.957,2.855,4.397c-5.419-0.685-10.995-0.91-16.386-0.924c-0.076-1.905-0.149-3.811-0.109-5.706
			C74.078,75.074,76.065,75.396,78.049,75.688z M45.191,75.392c-1.488,4.122-2.578,8.424-3.395,12.756
			c-1.728-0.215-3.457-0.399-5.188-0.506C38.995,83.456,41.866,79.431,45.191,75.392z M34.319,91.941
			c2.237,0.211,4.469,0.542,6.701,0.849c-0.214,1.545-0.413,3.09-0.555,4.624c-1.791,0.009-3.647,0.253-5.237,0.303
			c-1.067,0.034-2.133,0.095-3.201,0.129C32.667,95.813,33.437,93.853,34.319,91.941z M31.002,101.733
			c1.409,0.051,2.818,0.125,4.228,0.169c1.494,0.049,3.226,0.273,4.916,0.311c-0.075,1.834-0.171,3.679-0.137,5.452
			c-2.271-0.152-5.11,0.619-6.725,0.821c-0.827,0.104-2.067,0.15-3.336,0.254C30.114,106.287,30.506,103.979,31.002,101.733z
			 M32.647,130.473c-0.511-1.672-0.906-3.382-1.295-5.093c1.287-0.04,2.668-0.032,3.57-0.09c2.005-0.129,4.187,0.029,5.997-0.943
			c1.248-0.671,0.887-2.514-0.378-2.896c-2.075-0.628-4.474,0.114-6.564,0.433c-0.917,0.14-2.097,0.196-3.255,0.342
			c-0.312-1.774-0.616-3.554-0.764-5.368c-0.117-1.426-0.097-2.754-0.11-4.104c1.525-0.104,3.051-0.19,4.578-0.265
			c1.488-0.072,3.865,0.156,5.812-0.19c0.179,2.326,0.42,4.594,0.797,6.706c0.359,2.011,1.002,5.954,1.923,10.874
			c-3.349-0.066-6.815,0.339-10.078,0.49C32.775,130.372,32.737,130.451,32.647,130.473z M33.434,133
			c3.327,0.18,6.828,0.543,10.202,0.407c0.353,1.789,0.731,3.648,1.148,5.577c-0.445-0.04-0.892-0.076-1.323-0.117
			c-2.573-0.245-5.156-0.16-7.734-0.037C34.874,136.925,34.121,134.975,33.434,133z M37.24,142.022
			c1.443,0.09,2.887,0.162,4.326,0.296c1.356,0.126,2.75,0.505,4.139,0.768c1.382,5.951,3.046,12.145,5.002,17.635
			C45.308,155.255,40.746,148.92,37.24,142.022z M131.788,170.57c-20.76,14.874-44.524,13.686-63.901,3.128
			c0.205-2.354-2.564-3.619-4.596-2.717c-0.019-0.012-0.04-0.023-0.059-0.036c2.581-1.655,3.002,1.028,0.413-4.327
			c-2.225-4.604-3.726-9.718-5.351-14.559c-3.074-9.156-5.567-18.511-7.807-27.899c-2.471-10.359-2.755-20.882-1.154-31.05
			c1.76-0.504,1.948-2.672,0.635-3.643c2.918-14.29,9.623-27.727,19.444-38.794c0.243-0.179,0.497-0.397,0.737-0.565
			c-4.208,9.804-6.035,20.638-5.834,31.66c-0.137,0.461-0.131,0.966,0.036,1.419c0.224,6.565,1.232,13.172,2.825,19.669
			c-1.23,0.524-1.581,2.422,0.045,2.789c0.213,0.048,0.437,0.085,0.65,0.133c2.073,7.491,5.039,14.764,8.733,21.577
			c-0.676,0.109-1.369,0.174-2.041,0.292c-1.103,0.192-1.131,2.081,0,2.246c1.198,0.175,2.427,0.191,3.64,0.295
			c12.223,20.896,31.702,36.754,55.28,39.056C132.906,169.681,132.382,170.146,131.788,170.57z M94.766,135.205
			c7.65,4.108,18.211,2.5,26.553,2.159c11.093-0.454,22.876-0.143,33.805-2.022c0.793-0.137,1.297-0.721,1.521-1.421
			c-0.797,3.332-1.945,6.592-3.282,9.8c-8.86-1.083-18.658,0.5-27.549,0.422c-8.545-0.074-17.37-1.274-25.868-0.388
			c-4.236-3.943-8.087-8.369-11.413-13.27c6.456-0.176,12.948-0.745,19.252-1.034c13.242-0.605,26.042-0.331,39.049,0.968
			c-7.258,0.107-14.657,1.345-21.748,1.99c-9.901,0.899-20.418-0.197-30.142,1.435C94.298,133.952,94.231,134.918,94.766,135.205z
			 M144.125,159.141c-0.808-0.459-1.645-0.866-2.438-1.352c-2.32-1.353-4.771,0.602-4.924,2.766
			c-12.756-1.069-23.924-6.054-33.237-13.594c6.193,1.552,13.036,1.483,19.236,1.85c8.413,0.496,19.017,2.106,27.863,0.613
			C148.792,152.787,146.702,156.062,144.125,159.141z M157.963,127.067c-0.31-0.358-0.704-0.681-1.297-0.876
			c-12.483-4.111-26.498-2.957-39.424-2.303c-10.349,0.524-21.048,1.013-31.51,2.191c-1.351-2.275-2.534-4.668-3.696-7.069
			c23.762,3.538,48.005,4.828,71.801,0.992c3.694-0.596,2.147-6.289-1.553-5.634c-23.852,4.222-47.709,3.409-71.729,1.504
			c-1.19-2.708-2.314-5.453-3.252-8.277c16.741,2.836,34.822,3.694,51.142,1.573c0.811-0.105,1.301-0.525,1.63-1.031
			c9.304,2.462,18.944,3.555,28.114,3.26C158.734,116.604,158.625,121.864,157.963,127.067z"/>
		<path d="M101.47,23.979c-9.054-10.293-32.673-3.054-43.269,0.745c-3.338,1.197-2.021,6.366,1.482,5.376
			c7.201-2.035,14.4-3.581,21.89-4.004c6.429-0.363,11.788,2.18,17.913,2.675C102.116,28.982,102.943,25.652,101.47,23.979z"/>
		<path d="M104.623,10.69c-8.91-8.069-25.75-8.101-35.427-1.482c-2.32,1.587-0.924,5.933,2.031,4.816
			c4.947-1.871,9.421-3.117,14.778-2.978c5.701,0.148,10.393,2.925,15.534,4.942C104.526,17.16,106.884,12.739,104.623,10.69z"/>
		<path d="M186.451,66.48c-1.513-3.999-3.959-8.061-6.493-11.5c-1.355-1.842-5.26-3.886-6.662-0.924
			c-0.522,1.104,0.301,2.378,1.286,2.613c0.032,0.089,0.039,0.171,0.082,0.267c0.548,1.236,1.207,2.416,1.778,3.644
			c1.293,2.778,2.212,5.903,3.813,8.513c0.835,1.36,2.301,1.876,3.828,1.557c0.612-0.128,1.039-0.473,1.495-0.872
			C186.412,69.051,186.847,67.526,186.451,66.48z"/>
		<path d="M181.624,47.694c-1.556,0.453-1.318,3.143,0.396,2.925c2.128-0.271,4.1,5.657,4.576,7.172
			c1.285,4.074,0.776,8.218,1.387,12.362c0.454,3.085,4.565,2.268,5.448,0C195.936,63.734,191.396,44.847,181.624,47.694z"/>
		<path d="M29.739,173.044c-1.965-1.433-3.857-2.934-5.551-4.704c-2.697-2.819-4.747-6.172-7.376-9.025
			c-1.22-1.323-3.734,0.045-3.096,1.803c1.634,4.499,4.7,8.688,7.715,12.367c2.088,2.549,4.81,5.333,8.308,3.682
			C31.517,176.326,31.042,173.994,29.739,173.044z"/>
		<path d="M22.02,182.607c-4.563-1.163-8.633-1.515-12.437-4.645c-4.126-3.396-6.061-8.691-5.234-13.923
			c0.383-2.422-3.09-3.516-3.756-1.036c-3.326,12.373,7.821,27.471,21.427,24.87C24.728,187.355,24.536,183.249,22.02,182.607z"/>
	</g>
</g>
<g>
</g>
<g>
</g>
<g>
</g>
<g>
</g>
<g>
</g>
<g>
</g>
<g>
</g>
<g>
</g>
<g>
</g>
<g>
</g>
<g>
</g>
<g>
</g>
<g>
</g>
<g>
</g>
<g>
</g>
</svg>
