<?xml version='1.0' encoding='iso-8859-1'?>
<!DOCTYPE svg PUBLIC '-//W3C//DTD SVG 1.1//EN' 'http://www.w3.org/Graphics/SVG/1.1/DTD/svg11.dtd'>
<svg version="1.1" xmlns="http://www.w3.org/2000/svg" viewBox="0 0 472.299 472.299" xmlns:xlink="http://www.w3.org/1999/xlink" enable-background="new 0 0 472.299 472.299">
  <g>
    <path d="m324.306,0c6.409,1.093 12.824,2.153 19.227,3.285 29.983,5.3 51.702,21.073 64.378,49.309 15.52,34.572 13.436,68.492-1.943,102.342-10.63,23.395-25.262,44.3-39.676,65.423-11.584,16.976-21.529,34.97-25.989,55.445-0.987,4.531-0.611,7.099 4.41,9.165 8.102,3.332 13.676,10.043 17.52,17.768 3.558,7.149-0.218,12.517-9.31,14.213-0.867,0.162-1.75,0.24-2.582,0.351-0.02,7.724 2.286,13.546 7.093,19.9 13.562,17.929 14.097,30.751 1.572,50.595-7.416,11.751-14.976,23.643-20.421,36.351-7.52,17.55 0.241,31.745 18.691,37.01 13.866,3.958 26.86,2.284 38.54-6.914 10.921-8.601 15.044-25.762 8.932-38.388-4.732-9.775-19.629-10.231-27.216-0.859-1.832,2.263-3.78,4.431-5.711,6.684-5.17-5.574-4.63-11.257 1.816-15.635 8.504-5.776 17.671-8.979 27.953-4.403 10.233,4.554 13.716,13.627 14.841,23.595 2.634,23.322-15.643,44.694-39.064,46.735-11.403,0.994-22.317-0.132-32.536-5.493-16.362-8.584-23.431-23.871-17.145-41.199 4.339-11.961 11.203-23.015 17.061-34.412 2.69-5.233 6.073-10.139 8.441-15.502 5.839-13.228 1.106-24.777-6.81-35.385-2.16-2.894-5.372-5.145-8.44-7.179-3.039-2.015-6.506-3.384-10.04-5.165-1.271,2.258-2.374,5.045-4.187,7.247-2.848,3.459-6.351,6.835-11.307,5.19-4.901-1.627-7.287-5.876-6.788-10.883 0.929-9.323 2.434-18.588 3.723-28.059-15.465-10.039-33.005-9.239-50.578-7.351-17.891,1.922-35.684,4.874-53.604,6.352-10.446,0.862-21.06-0.203-31.593-0.55-7.007-0.231-14.003-0.79-21.009-1.092-12.198-0.527-23.024-5.437-33.951-10.225-15.197-6.66-29.787-13.91-41.616-26.19-12.252-12.718-19.312-27.784-21.866-44.771-4.636-30.838 2.255-59.522 20.783-84.47 19.073-25.681 45.395-41.154 76.766-46.943 14.934-2.756 30.276-3.658 45.482-4.429 7.171-0.364 14.457,1.56 21.725,2.452 3.551-8.227 6.555-16.967 10.925-24.961 10.964-20.058 27.921-34.134 47.967-44.341 11.077-5.64 22.913-9.79 34.407-14.612 3.709-0.001 7.419-0.001 11.129-0.001zm-129.841,92.086c-11.521,1.698-25.867,2.901-39.771,6.053-27.99,6.346-51.286,20.562-68.147,44.341-10.126,14.28-14.839,30.542-17.329,47.585-2.839,19.43 0.879,37.568 11.32,54.216 6.213,9.907 14.66,17.647 25.013,22.942 15.172,7.76 30.148,16.299 47.505,18.332 6.41,0.751 12.948,0.354 19.386,0.939 17.201,1.562 34.236,0.553 51.273-2.129 12.689-1.998 25.44-3.983 38.239-4.809 18.024-1.164 35.481,1.638 51.965,9.821 2.579,1.28 6.934,0.014 10.079-1.137 3.871-1.415 3.823-4.931 3.43-8.783-0.397-3.888 0.022-8.056 1.015-11.858 5.199-19.909 14.798-37.817 26.254-54.701 16.08-23.698 32.648-47.082 42.604-74.266 8.696-23.747 9.754-47.798 1.46-71.791-4.783-13.835-11.197-27.409-22.925-36.512-17.154-13.315-37.724-18.397-59.048-16.758-9.244,0.711-18.347,5.871-27.089,9.926-15.923,7.387-30.15,17.582-40.164,32.06-6.91,9.99-11.874,21.382-17.166,32.407-2.185,4.551-4.479,7.301-9.902,6.689-8.406-0.948-16.85-1.565-28.002-2.567zm123.374,230.436c1.174-2.123 1.624-3.227 2.321-4.143 1.875-2.463 4.033-6.933 5.756-6.787 2.825,0.238 5.501,3.37 8.038,5.521 1.935,1.641 3.556,3.653 5.947,6.161 0.058-16.899 0.058-16.899 13.047-17.569-4.916-5.317-9.833-10.634-15.32-16.568-3.816,7.691-9.075,10.986-15.53,12.935-1.329,0.401-2.889,2.382-3.075,3.801-0.662,5.057-0.777,10.188-1.184,16.649z"/>
    <path d="m326.512,46.434c18.805,0.938 35.639,9.165 49.322,24.116 1.616,1.766 3.065,3.696 4.487,5.627 9.451,12.834 7.389,29.31-4.823,38.775-11.176,8.661-27.881,6.429-37.791-5.049-1.209-1.4-2.549-2.709-3.606-4.215-5.07-7.22-12.243-9.964-20.688-9.24-9.341,0.801-18.627,2.227-27.958,3.178-2.887,0.294-5.955,0.407-8.741-0.244-6.2-1.45-8.363-5.176-7.343-11.497 2.835-17.567 22.773-37.231 40.702-39.932 4.894-0.738 9.872-0.93 16.439-1.519zm-44.153,49.393c9.673-1.306 19.333-2.707 29.021-3.889 8.994-1.098 17.205,0.614 23.82,7.385 3.489,3.571 6.85,7.298 10.602,10.572 7.738,6.754 20.021,6.582 27.909-0.108 7.62-6.463 10.246-19.032 5.658-27.082-12.022-21.092-41.287-35.847-65.255-31.909-19.953,3.279-32.648,16.048-39.736,34.426-2.739,7.103 0.09,11.52 7.981,10.605z"/>
    <path d="m78.633,230.726c-0.353-2.336-1.327-4.774-0.962-6.992 3.344-20.297 10.031-39.527 19.22-57.893 0.956-1.91 2.55-3.502 4.55-4.88-7.323,23.073-14.647,46.145-21.97,69.218-0.28,0.182-0.559,0.365-0.838,0.547z"/>
    <path d="m127.074,256.709c-3.91,0.938-5.815-0.244-5.169-5.787 1.383-11.863 3.325-23.673 5.442-35.431 0.921-5.117 2.835-10.055 4.298-15.075 0.835,0.156 1.67,0.313 2.505,0.469-2.323,18.317-4.644,36.635-7.076,55.824z"/>
    <path d="m90.713,242.024c-0.595-2.063-1.848-4.18-1.684-6.181 1.609-19.614 6.118-38.432 16.144-55.62 0.162-0.278 0.57-0.414 1.953-1.366-5.306,21.471-10.381,42.009-15.457,62.546-0.318,0.207-0.637,0.414-0.956,0.621z"/>
    <path d="m106.349,248.566c-0.856-1.82-2.615-3.75-2.408-5.441 0.822-6.72 1.848-13.473 3.56-20.014 2.592-9.904 5.776-19.655 8.818-29.437 0.558-1.794 1.636-3.427 3.37-4.845-1.106,20.307-9.221,39.113-11.614,59.052-0.575,0.229-1.151,0.457-1.726,0.685z"/>
    <path d="m149.584,208.411c3.205,16.887-2.999,33.594-1.085,50.653-6.198,0.55-6.438-3.886-6.302-7.202 0.348-8.453 1.357-16.884 2.233-25.31 0.475-4.567 1.159-9.115 1.875-13.652 0.257-1.628 0.884-3.197 1.343-4.794 0.646,0.102 1.291,0.204 1.936,0.305z"/>
    <path d="m168.96,214.412c0.561,2.685 1.618,5.374 1.596,8.054-0.083,9.944-0.58,19.885-0.784,29.829-0.048,2.336 0.624,4.682 0.622,7.024-0.001,1.284-0.72,2.568-1.115,3.852-1.401-0.563-2.923-0.944-4.151-1.765-0.608-0.406-0.968-1.634-0.939-2.472 0.51-14.728 1.099-29.454 1.67-44.18 1.033-0.114 2.067-0.228 3.101-0.342z"/>
    <path d="m187.754,225.009c0.958,4.28 2.47,8.524 2.75,12.848 0.464,7.18 0.234,14.415 0.056,21.62-0.034,1.391-1.172,2.754-1.801,4.131-1.175-1.142-2.901-2.087-3.4-3.472-0.786-2.186-1.051-4.674-1.006-7.024 0.16-8.314 0.521-16.624 0.873-24.933 0.042-0.989 0.497-1.96 0.76-2.94 0.59-0.077 1.179-0.154 1.768-0.23z"/>
    <path d="m206.227,233.943c0.466,9.909 0.933,19.817 1.459,31.005-1.952-1.411-3.993-2.087-4.369-3.285-2.942-9.388-0.909-18.62 0.611-27.845 0.767,0.042 1.533,0.084 2.299,0.125z"/>
    <path d="m225.589,230.684c5.123,7.247 3.711,15.573 3.868,23.796-5.524-1.219-7.716-13.371-3.868-23.796z"/>
    <path d="m248.265,230.085c5.001,5.231 3.601,11.362 2.54,17.461-5.324-5.091-2.409-11.507-2.54-17.461z"/>
  </g>
</svg>
