<?xml version="1.0" encoding="iso-8859-1"?>
<!-- Generator: Adobe Illustrator 16.0.0, SVG Export Plug-In . SVG Version: 6.00 Build 0)  -->
<!DOCTYPE svg PUBLIC "-//W3C//DTD SVG 1.1//EN" "http://www.w3.org/Graphics/SVG/1.1/DTD/svg11.dtd">
<svg version="1.1" id="Capa_1" xmlns="http://www.w3.org/2000/svg" xmlns:xlink="http://www.w3.org/1999/xlink" x="0px" y="0px"
	 width="190.536px" height="190.536px" viewBox="0 0 190.536 190.536" style="enable-background:new 0 0 190.536 190.536;"
	 xml:space="preserve">
<g>
	<path d="M104.141,3.312C65.609-4.208,25.025,18.61,8.167,53.199c-1.304,0.332-2.278,1.723-1.561,3.429
		c-3.307,7.648-5.539,15.786-6.275,24.296c-3.667,42.395,23.409,96.635,69.905,101.098c0.422,0.728,1.044,1.373,1.999,1.756
		c46.81,18.812,111.906-19.311,117.697-70.244C196.016,60.012,155.362,13.309,104.141,3.312z M135.884,98.969
		c-0.7-8.418,0.811-17.031,5.144-24.309c5.973-10.032,17.815-12.288,28.642-14.054c4.769,8.741,8.276,18.143,10.251,27.787
		c-0.499,0.053-1.011,0.179-1.528,0.472C164.825,96.534,150.519,99.069,135.884,98.969z M166.695,55.505
		c-24.803-2.494-38.784,19.654-38.265,43.217c-10.523-0.666-21.182-2.474-31.824-4.548c-4.348-0.847-8.957-1.813-13.686-2.904
		c9.641-27.416,26.441-53.714,40.921-73.513C141.544,25.359,156.438,39.008,166.695,55.505z M96.731,11.292
		c7.147,0.379,14.022,1.798,20.593,3.978C95.923,31.769,83.777,65.299,75.802,89.546c-6.636-1.701-13.404-3.746-20.051-6.131
		c1.557-2.944,2.915-5.982,3.997-9.08c5.206-14.908,0.438-45.059-19.164-46.15C56.441,16.591,76.466,10.216,96.731,11.292z
		 M35.333,32.354c5.314,4.952,11.824,6.624,16.03,13.27c4.965,7.845,3.462,18.34,1.07,26.696c-0.85,2.971-1.995,5.826-3.347,8.56
		C36,75.547,23.839,68.562,14.971,59.107C19.667,48.771,26.739,39.743,35.333,32.354z M8.62,93.022
		c-0.52-9.617,0.876-18.692,3.709-27.091c7.662,9.676,19.44,16.834,32.277,22.357c-8.007,10.985-20.261,18.43-34.215,18.958
		C9.51,102.75,8.891,98.034,8.62,93.022z M74.259,176.431c-0.353-0.1-0.65-0.072-0.968-0.089
		c-30.584-13.967-53.705-32.719-61.729-64.05c16.362,0.77,30.302-8.477,39.542-21.367c7.37,2.798,14.91,5.156,22.128,7.105
		c-7.413,26.689-8.974,58.21,9.181,80.186C79.648,177.769,76.92,177.188,74.259,176.431z M89.319,178.999
		c0.1-0.58,0.013-1.198-0.421-1.795c-16.672-22.936-16.602-50.414-8.736-77.38c4.982,1.242,9.718,2.335,13.975,3.306
		c8.005,1.826,21.371,4.669,35.455,5.998c2.396,11.767,8.424,24.375,17.903,31.695c4.948,3.821,12.914,6.555,19.361,4.943
		C148.89,168.062,117.612,180.98,89.319,178.999z M173.209,136.542c-0.75-0.457-1.67-0.693-2.562-0.573
		c-9.235,1.248-13.41,3.611-21.107-3.937c-6.008-5.891-9.53-14.13-11.683-22.317c17.785,0.792,35.303-1.602,43.459-12.308
		c0.091,0.878,0.25,1.75,0.314,2.629C182.621,113.539,179.362,125.852,173.209,136.542z"/>
</g>
<g>
</g>
<g>
</g>
<g>
</g>
<g>
</g>
<g>
</g>
<g>
</g>
<g>
</g>
<g>
</g>
<g>
</g>
<g>
</g>
<g>
</g>
<g>
</g>
<g>
</g>
<g>
</g>
<g>
</g>
</svg>
