<?xml version="1.0" encoding="iso-8859-1"?>
<!-- Generator: Adobe Illustrator 16.0.0, SVG Export Plug-In . SVG Version: 6.00 Build 0)  -->
<!DOCTYPE svg PUBLIC "-//W3C//DTD SVG 1.1//EN" "http://www.w3.org/Graphics/SVG/1.1/DTD/svg11.dtd">
<svg version="1.1" id="Capa_1" xmlns="http://www.w3.org/2000/svg" xmlns:xlink="http://www.w3.org/1999/xlink" x="0px" y="0px"
	 width="193.62px" height="193.621px" viewBox="0 0 193.62 193.621" style="enable-background:new 0 0 193.62 193.621;"
	 xml:space="preserve">
<g>
	<g>
		<path d="M43.625,24.706c-0.137-0.168-0.205-0.376-0.414-0.495C7.443,3.96-15.419,68.681,12.356,89.079
			c17.372,12.756,42.152,3.547,50.347-15.201C70.735,55.5,64.452,29.804,43.625,24.706z M24.262,75.218
			c-1.206,0.177-2.407,0.38-3.578,0.727c-0.638,0.189-1.307,0.868-1.213,1.593c0.003,0.017,0.004,0.034,0.007,0.051
			c0.034,0.265,0.122,0.503,0.242,0.71l-0.044,0.026c0.007,0.015,0.014,0.031,0.02,0.047c0.093,0.22,0.309,0.301,0.49,0.424
			c0.019,0.013,0.031,0.033,0.051,0.044c0.404,0.244,0.886,0.364,1.325,0.291c0.681-0.113,1.411-0.164,2.157-0.198
			c-0.333,1.954-0.727,3.922-1.164,5.893c-0.059,0.266-0.052,0.508-0.021,0.736c-2.879-1.067-5.566-2.707-7.864-5.007
			c-8.912-8.921-7.891-24.628-3.998-35.477c0.278-0.775,0.64-1.42,0.959-2.133c2.042,1.299,3.793,2.706,5.288,4.206
			c-1.121,1.515,0.665,3.366,2.306,2.683c2.932,3.88,4.496,8.254,5.124,12.936c-1.866,0.925-3.802,1.656-5.903,1.801
			c-1.845,0.128-1.886,2.93,0,2.899c1.922-0.032,4.122-0.466,6.242-1.17C24.804,69.196,24.641,72.178,24.262,75.218z M55.205,72.197
			c-4.879,10.978-18.006,16.684-29.336,14.306c0.144-0.185,0.27-0.398,0.352-0.667c0.703-2.31,1.31-4.704,1.809-7.132
			c0.925-0.102,1.822-0.256,2.624-0.574c1.561-0.619,1.805-2.89,0-3.415c-0.593-0.172-1.249-0.175-1.913-0.127
			c0.504-3.513,0.718-7.053,0.539-10.499c0.728-0.482,1.46-0.966,2.033-1.539c1.058-1.058-0.048-2.543-1.353-2.324
			c-0.388,0.065-0.718,0.257-1.078,0.383c-0.678-4.919-2.309-9.527-5.163-13.48c1.087-0.521,2.197-1.006,3.262-1.492
			c2.534-1.158,0.302-5.165-2.214-3.789c-1.257,0.688-2.532,1.374-3.765,2.123c-1.969-1.939-4.298-3.671-7.149-5.072
			c5.344-7.942,13.892-10.804,23.622-11.052c0.033,1.227,0.738,2.376,2.373,2.748c3.508,0.799,6.479,2.231,8.949,4.129
			c-2.453,2.963-3.082,7.523-2.946,11.669c-1.693,0.304-3.419,0.295-5.123,0.493c-1.686,0.196-1.689,2.431,0,2.625
			c1.549,0.177,3.485,0.321,5.4,0.248c0.051,0.386,0.096,0.783,0.156,1.146c0.409,2.471,1.115,4.883,1.953,7.25
			c-1.654,0.793-3.288,1.612-4.867,2.222c-1.452,0.561-0.899,2.843,0.656,2.38c1.782-0.531,3.536-1.142,5.29-1.755
			c1.602,3.656,3.692,7.096,6.314,10.112C55.483,71.472,55.36,71.845,55.205,72.197z M57.189,66.436
			c-1.273-2.249-2.37-4.561-3.342-6.948c0.86-0.302,1.713-0.62,2.484-1.091c1.169-0.714,0.8-2.948-0.752-2.774
			c-0.945,0.106-1.89,0.359-2.832,0.662c-0.272-0.837-0.628-1.615-0.854-2.487c-0.481-1.857-0.603-3.565-0.608-5.229
			c0.234-0.12,0.527-0.172,0.739-0.316c1.392-0.945,0.844-2.855-0.555-3.169c0.267-2.21,0.697-4.381,1.038-6.666
			C58.418,45.791,59.685,56.736,57.189,66.436z"/>
		<path d="M190.043,44.193c-13.251-33.433-42.616-27.045-65.242-8.265C108.895,49.13,94.232,65.4,79.649,80.062
			c-11.152,11.211-21.904,23.753-25.721,39.269c-6.223-4.555-15.007-6.249-20.999-1.324c-8.145,6.694-5.562,21.237-2.171,29.513
			c4.607,11.241,14.702,20.686,26.123,24.779c10.611,3.804,18.108-3.966,18.265-13.617c0.243,0,0.461,0.058,0.721,0.011
			c10.173-1.854,22.831-5.835,36.034-11.527c-0.005,0.034-0.014,0.068-0.019,0.103c-0.322,2.091,2.717,3.051,3.248,0.896
			c0.228-0.926,0.502-1.829,0.75-2.745C159.592,125.567,207.164,87.392,190.043,44.193z M98.865,122.171
			c-1.402-1.422-2.784-2.864-4.01-4.433c2.645-6.666,4.376-13.656,6.114-20.608c1.926-7.705,4.739-14.899,7.25-22.344
			c0.809,2.781,2.01,5.465,3.346,8.092C104.205,93.608,101.657,109.161,98.865,122.171z M114.121,87.469
			c1.734,2.817,3.619,5.522,5.562,8.051c-5.126,10.594-8.177,23.064-11.148,34.415c-2.607-1.68-5.081-3.518-7.349-5.557
			c2.171-6.767,4.193-13.575,6.338-20.352C109.331,98.318,111.823,92.937,114.121,87.469z M97.234,73.931
			c3.289-3.012,6.536-5.971,9.598-8.855c-0.049,1.859,0.147,3.692,0.44,5.511c-0.39,0.074-0.761,0.252-1.024,0.607
			c-8.57,11.48-9.963,29.021-13.583,43.299c-1.617-2.437-2.954-5.06-4.151-7.766c0.241,0.451,0.53,0.864,0.924,1.189
			c0.22,0.181,0.514,0.16,0.677-0.087c2.488-3.791,2.35-10.995,3.409-15.47C94.857,86.716,97.766,79.823,97.234,73.931z
			 M92.467,78.339c-1.232,4.869-1.801,10.181-2.765,14.817c-0.643,3.094-2.848,9.489-1.385,13.107
			c-2.182-5.069-3.668-10.541-4.083-16.475c-0.08-1.138-0.915-1.735-1.785-1.821C85.724,84.655,89.1,81.467,92.467,78.339z
			 M73.909,151.591c-2.456,0.481-3.035,2.64-2.391,4.467c-1.253,3.642-2.474,8.062-6.362,9.387
			c-3.249,1.107-7.078-0.666-9.902-2.116c-7.772-3.992-14.421-10.979-17.762-19.049c-2.475-5.977-3.867-14.043-0.394-19.901
			c4.329-7.305,14.423,3.207,18.493,5.062c2.558,1.166,5.532-1.271,3.993-3.993c-0.324-0.572-0.779-1.091-1.177-1.635
			c2.126-7.078,5.775-13.683,10.275-19.929c-0.148,10.241,5.294,20.654,11.249,28.52c3.1,4.096,8.779,10.217,14.866,13.307
			C87.111,148.4,79.965,150.403,73.909,151.591z M104.417,142.083c-2.963-1.158-6.066-1.695-8.995-3.246
			c-4.393-2.327-7.953-6.06-11.192-9.749c-7.163-8.161-11.415-18.144-12.349-28.903c-0.011-0.127-0.114-0.203-0.154-0.316
			c2.695-3.382,5.625-6.65,8.678-9.83c-0.045,18.821,11.806,41.754,30.142,49.44C108.492,140.376,106.438,141.268,104.417,142.083z
			 M114.854,133.455c-1.078-0.531-2.145-1.077-3.186-1.658c3.715-10.481,8.402-21.153,11.68-31.852
			c0.857,0.974,1.783,1.975,2.749,2.983C121.668,112.681,117.67,122.989,114.854,133.455z M119.001,135.29
			c3.341-9.654,7.391-18.984,10.941-28.595c1.711,1.592,3.536,3.103,5.402,4.543c-1.063,2.684-1.779,5.568-2.763,8.234
			c-1.497,4.054-3.281,8.008-5.239,11.86c-2.659,1.425-5.331,2.8-8.005,4.102C119.223,135.39,119.115,135.333,119.001,135.29z
			 M133.354,127.982c2.583-4.268,5.013-8.978,6.423-13.635c2.836,1.787,5.732,3.262,8.591,4.071
			C143.565,121.819,138.513,125.005,133.354,127.982z M154.449,113.903c-7.732-5.021-15.307-8.555-22.414-14.295
			c-0.248-0.846-1.036-1.455-1.908-1.622c-0.681-0.598-1.362-1.181-2.032-1.83c-0.987-0.957-1.948-1.954-2.895-2.968
			c0.116-0.486,0.261-0.971,0.367-1.457c0.396-1.79-1.844-2.851-2.952-1.487c-2.285-2.723-4.396-5.598-6.17-8.643
			c0.036-0.099,0.079-0.195,0.115-0.294c0.356-0.981-0.458-1.783-1.352-1.956c-2.863-5.553-4.637-11.569-4.506-17.994
			c2.629-2.573,5.218-5.161,7.771-7.753c5.127,23.781,21.681,45.958,45.771,51.873C161.193,108.391,157.906,111.201,154.449,113.903
			z M169.898,99.683c-25.223-4.13-41.371-26.149-47.916-49.609c5.544-5.55,11.208-10.951,17.686-15.711
			c22.924-16.846,46.317,4.324,46.354,29.269C186.041,76.527,179.739,88.707,169.898,99.683z"/>
	</g>
</g>
<g>
</g>
<g>
</g>
<g>
</g>
<g>
</g>
<g>
</g>
<g>
</g>
<g>
</g>
<g>
</g>
<g>
</g>
<g>
</g>
<g>
</g>
<g>
</g>
<g>
</g>
<g>
</g>
<g>
</g>
</svg>
