<?xml version="1.0" encoding="iso-8859-1"?>
<!-- Generator: Adobe Illustrator 16.0.0, SVG Export Plug-In . SVG Version: 6.00 Build 0)  -->
<!DOCTYPE svg PUBLIC "-//W3C//DTD SVG 1.1//EN" "http://www.w3.org/Graphics/SVG/1.1/DTD/svg11.dtd">
<svg version="1.1" id="Capa_1" xmlns="http://www.w3.org/2000/svg" xmlns:xlink="http://www.w3.org/1999/xlink" x="0px" y="0px"
	 width="193.947px" height="193.947px" viewBox="0 0 193.947 193.947" style="enable-background:new 0 0 193.947 193.947;"
	 xml:space="preserve">
<g>
	<g>
		<path d="M187.772,92.746c-3.946-18.009-35.591-12.827-48.298-15.958c-0.033-0.008-0.059,0.004-0.092-0.004
			c8.607-8.709,5.476-22.71,0.422-33.314c0.104-0.036,0.203-0.026,0.309-0.073c7.963-3.517,14.496-10.366,15.545-19.192
			c0.851-7.157-3.441-14.288-8.78-18.666c-5.378-4.411-12.312-6.585-19.19-5.048c-7.739,1.729-12.17,8.877-13.754,16.15
			c-6.826-3.523-14.304-5.69-22.021-5.898c-11.899-0.321-23.172,4.149-32.059,11.304c-4.241-6.786-12.425-10.871-20.32-9.262
			c-7.305,1.488-12.947,8.258-16.003,14.643c-3.084,6.444-4.37,14.259-0.962,20.824c3.605,6.945,12.004,7.425,18.816,5.895
			c-1.029,10.082,2.005,20.392,10.568,29.13c-19.397-1.084-49.705,2.348-46.052,25.788c1.529,9.812,10.968,14.214,19.542,16.8
			c5.813,1.753,11.936,2.519,17.948,3.23c2.864,0.339,6.483,1.06,9.863,1.179c-5.158,17.752-20.258,48.965-0.535,59.603
			c18.161,9.794,39.109-16.911,49.584-30.831c2.106,6.973,9.591,14.214,16.469,20.171c10.229,8.857,24.132,18.999,37.933,12.847
			c13.698-6.106,13.466-22.936,10.294-35.132c-2.159-8.299-8.133-24.397-16.311-32.011
			C168.819,125.896,192.339,113.585,187.772,92.746z M139.269,29.556c-0.604,0.956-1.481,1.738-2.323,2.478
			c-0.994,0.873-1.748,1.661-2.506,2.59c-3.153-4.448-6.87-8.475-11.12-11.866c0.152-0.548,0.33-1.106,0.4-1.463
			c0.155-0.781,0.209-1.593,0.51-2.284c0.491-1.128,1.132-1.546,2.149-1.836c2.439-0.696,5.864,0.403,8.425,1.855
			c2.784,1.579,5.046,3.89,5.584,6.813C140.557,26.759,140.079,28.273,139.269,29.556z M129.181,5.91
			c4.76-0.927,10.076,1.711,13.589,4.707c3.809,3.249,6.45,7.838,6.314,12.921c-0.102,3.774-2.105,6.687-4.742,9.083
			c1.362-2.242,2.141-4.804,1.882-7.242c-0.548-5.166-4.428-9.131-8.849-11.467c-4.039-2.134-9.227-3.341-13.554-1.374
			c-2.015,0.916-3.315,2.549-4.13,4.561c-0.347,0.858-0.391,1.865-0.367,2.825c-0.75-0.5-1.455-1.066-2.227-1.53
			C119.354,12.67,122.734,7.167,129.181,5.91z M42.138,49.402c-5.106,0.559-11.158,0.592-13.909-4.459
			c-2.234-4.101-0.601-10.148,1.168-14.085c2.096-4.667,5.716-9.369,10.674-11.163c6.522-2.36,10.866,2.485,15.248,6.467
			c-0.173,0.175-0.311,0.376-0.481,0.552c-2.635-3.743-9.247-3.531-13.189-2.526c-3.945,1.006-7.413,3.853-9.298,7.429
			c-1.8,3.414-1.758,7.405,0.155,10.75c2.16,3.777,6.345,4.598,10.297,4.9C42.598,47.983,42.302,48.68,42.138,49.402z
			 M37.903,33.605c1.286-2.123,3.617-3.318,5.945-3.891c2.685-0.661,5.21,0.499,7.773,0.694c-3.498,4.361-6.218,9.186-8.011,14.258
			C38.693,43.044,34.846,38.654,37.903,33.605z M144.793,121.232c-2.093-0.671-4.67,1.604-3.802,3.801
			c3.323,8.405,11.166,15.663,15.199,24.171c5.091,10.739,11.277,36.239-7.754,37.603c-11.623,0.832-25.083-12.929-32.719-20.074
			c-2.119-1.984-10.547-8.884-11.707-9.957c0.158-0.21,0.341-0.454,0.492-0.655c2.708-3.596-3.354-7.067-6.023-3.521
			c-8.108,10.777-27.908,39.008-43.998,30.341c-8.802-4.742-2.734-22.899-1.159-30.085c1.676-7.645,3.822-15.241,4.691-23.03
			c0.124-0.037,0.278-0.024,0.399-0.066c2.279-0.778,3.023-4.035,0.695-5.317c-5.4-2.975-14.429-1.947-20.49-2.828
			c-8.019-1.166-19.259-2.922-24.403-9.928C6.074,100.6,23.624,93.171,31.326,91.491c9.646-2.103,19.751-2.448,29.52-3.96
			c1.68-0.26,1.681-3.122,0-3.38c-0.804-0.123-1.715-0.234-2.63-0.343c-0.084-0.284-0.224-0.569-0.439-0.845
			c-22.743-29.197-0.35-62.89,34.136-64.783c15.312-0.841,28.515,10.492,37.09,21.983c8.86,11.874,8.73,22.142,3.993,35.327
			c-0.56,1.56,0.722,3.191,2.221,3.568c-0.754,1.874-0.234,4.251,2.29,4.874c12.79,3.159,27.978-0.194,39.73,6.586
			c8.66,4.996,0.755,17.394-4.652,21.313c-6.79,4.925-16.626,6.936-24.895,6.793c-1.618-0.027-2.64,1.241-2.883,2.611
			C144.801,121.236,144.797,121.233,144.793,121.232z"/>
		<path d="M92.92,50.063c-9.949-4.768-22.508,10.96-25.118,19.777c-6.007,20.294,11.28,35.021,30.621,34.272
			C136.124,102.653,119.368,36.979,92.92,50.063z M73.689,75.476c0.026-0.283,0.017-0.558,0.056-0.844
			c0.931-6.837,4.211-12.826,9.05-16.135c-0.003,0.183-0.025,0.361,0.021,0.553c0.693,2.863,1.685,5.79,3.204,8.365
			c0.403,2.513,0.499,5.166-0.371,7.221c-0.848,2.002-2.521,2.857-4.401,3.185c0.035-0.095,0.098-0.177,0.126-0.276
			c0.411-1.493,0.191-2.872-0.652-4.143c-1.123-1.694-3.08-1.807-4.597-0.592C75.234,73.522,74.388,74.448,73.689,75.476z
			 M101.876,96.673c-10.922,3.426-22.549-2.229-26.712-11.736c3.17,1.627,7.919,0.794,10.838-0.769
			c3.247-1.739,5.087-4.29,5.987-7.189c1.068,2.127,2.687,3.932,4.996,5.051c5.932,2.874,15.549-2.043,14.162-9.294
			c-0.367-1.916-2.729-2.569-4.273-1.738c-2.607,1.402-3.776,6.568-7.479,4.788c-3.524-1.694-4.162-6.165-3.85-9.708
			c0.583-1.018,1.234-1.996,1.776-3.03c0.506-0.968,1.019-1.932,1.555-2.885c0.197-0.352,0.374-0.713,0.561-1.07
			c0.24-0.46,0.582-0.698,0.199-0.38c0.459-0.637,0.712-1.216,0.824-2.113c0.012-0.099-0.022-0.199-0.025-0.299
			c6.7,1.529,10.676,6.253,12.722,14.768C115.534,80.964,112.487,93.345,101.876,96.673z"/>
		<path d="M70.5,44.167c-0.291,0.026-0.595-0.036-0.891-0.042c0.649-0.699,1.315-1.382,2.068-1.957
			c4.364-3.337-1.405-8.996-4.623-4.623c-1.267,1.721-2.462,3.398-3.57,5.104c-0.789-0.307-1.556-0.619-2.284-0.897
			c-3.369-1.287-5.279,3.89-2.381,5.648c0.518,0.315,1.11,0.634,1.683,0.953c-0.459,1.249-0.83,2.555-1.053,3.967
			c-0.48,3.034,3.495,4.166,4.6,1.268c0.385-1.009,0.821-2.032,1.303-3.043c1.727,0.595,3.483,1.01,5.147,0.923
			C75.215,51.218,75.156,43.757,70.5,44.167z"/>
		<path d="M119.305,35.617c-1.485,0.171-2.965,0.444-4.449,0.688c-0.518-1.301-1.101-2.561-1.901-3.632
			c-1.227-1.641-4.023-1.231-4.041,1.094c-0.008,1.125,0.157,2.269,0.368,3.415c-1.8,0.289-3.619,0.639-5.237,1.382
			c-1.743,0.799-1.301,3.748,0.536,4.107c1.941,0.379,3.956,0.379,5.983,0.311c0.002,0.009,0.005,0.019,0.006,0.029
			c0.599,2.977,0.314,6.13,3.632,7.419c1.511,0.586,2.984-0.421,3.83-1.559c1.34-1.801,0.343-4.069-0.597-6.038
			c0.624,0.012,1.254-0.01,1.868,0.048C124.021,43.322,123.947,35.081,119.305,35.617z"/>
	</g>
</g>
<g>
</g>
<g>
</g>
<g>
</g>
<g>
</g>
<g>
</g>
<g>
</g>
<g>
</g>
<g>
</g>
<g>
</g>
<g>
</g>
<g>
</g>
<g>
</g>
<g>
</g>
<g>
</g>
<g>
</g>
</svg>
