<?xml version="1.0" encoding="iso-8859-1"?>
<!-- Generator: Adobe Illustrator 16.0.0, SVG Export Plug-In . SVG Version: 6.00 Build 0)  -->
<!DOCTYPE svg PUBLIC "-//W3C//DTD SVG 1.1//EN" "http://www.w3.org/Graphics/SVG/1.1/DTD/svg11.dtd">
<svg version="1.1" id="Capa_1" xmlns="http://www.w3.org/2000/svg" xmlns:xlink="http://www.w3.org/1999/xlink" x="0px" y="0px"
	 width="192.804px" height="192.804px" viewBox="0 0 192.804 192.804" style="enable-background:new 0 0 192.804 192.804;"
	 xml:space="preserve">
<g>
	<g>
		<path d="M191.267,88.05c-2.868-0.78-5.47,1.365-8.011,2.532c-0.034,0.016-0.069,0.028-0.103,0.043
			c-1.853-2.107-4.163-3.841-6.984-4.91c-8.536-3.237-17.906-1.462-26.837-0.134c2.792-3.172,5.205-6.673,7.017-10.607
			c5.538-12.029,3.177-23.181-3.271-32.529c5.342-1.077,9.18-7.205,9.775-12.355c0.674-5.817-1.632-11.004-5.368-15.348
			c-8.424-9.796-24.685-9.198-32.014,1.485c-1.949,2.842,2.612,6.392,4.789,3.696c5.788-7.174,15.044-7.493,21.823-1.569
			c3.083,2.693,4.732,6.541,4.697,10.589c-0.04,4.575-4.035,6.709-6.425,9.948c-0.948-1.127-2.008-2.189-3.065-3.252
			c0.668,0.104,1.372-0.089,1.929-0.712c3.769-4.223,0.051-11.36-3.864-14.075c-4.868-3.377-10.619-1.885-13.322,3.286
			c-0.011,0.02,0.002,0.038-0.008,0.058c-7.522-4.216-15.593-7.165-22.874-8.444c-0.425-0.246-0.911-0.425-1.521-0.426
			c-0.192-0.001-0.385-0.001-0.576-0.002c-0.064-0.027-0.104-0.07-0.173-0.093c-11.096-3.636-23.807-3.106-35.31,0.876
			c-2.715-4.776-9.191-8.199-14.076-9.101c-6.06-1.119-11.861,1.059-16.496,4.889c-9.129,7.543-8.684,21.75,1.606,27.539
			c-1.268,2.29-2.401,4.668-3.241,7.21C33.527,64.294,40,80.099,52.133,90.999c-9.021-2.93-21.526-1.471-29.336,0.502
			c-6.582,1.663-12.574,6.714-15.229,13.009c-1.885-0.11-3.765-0.293-5.631-0.646c-1.941-0.367-2.776,2.456-0.825,2.991
			c1.629,0.447,3.465,0.907,5.363,1.273c-0.358,1.87-0.506,3.788-0.181,5.753c0.02,0.123,0.064,0.232,0.087,0.354
			c-1.069,0.438-2.101,0.896-3.057,1.334c-1.62,0.744-0.423,3.082,1.156,2.743c1.041-0.224,2.071-0.489,3.102-0.749
			c3.915,7.201,14.943,10.427,21.939,11.835c4.548,0.916,16.212,2.706,23.476,0.577c-2.222,13.255-15.785,40.879-0.664,49.956
			c16.822,10.098,39.333,4.825,57.855,4.48c20.062-0.372,36.607,4.951,45.71-16.719c3.358-7.995,1.026-31.808-5.092-38.599
			c12.264,2.772,29.487-4.205,35.274-16.183c0.483-0.022,0.965-0.008,1.452-0.113c2.171-0.474,2.2-3.325,0.576-4.406
			c-0.136-0.091-0.294-0.12-0.434-0.2c0.127-0.63,0.272-1.255,0.336-1.905c0.38-3.904-0.338-7.806-1.958-11.232
			c2.679-0.939,5.489-1.751,6.641-4.493C193.121,89.534,192.235,88.313,191.267,88.05z M142.698,25.229
			c1.162,0.94,1.989,2.2,2.452,3.611c0.504,1.539-0.138,2.847-0.063,4.375c0.007,0.131,0.051,0.252,0.077,0.377
			c-3.272-2.979-6.92-5.644-10.773-7.986C136.909,23.43,140.011,23.056,142.698,25.229z M45.487,16.384
			c2.986-2.699,7.367-3.848,11.29-3.176c3.864,0.662,6.144,3.148,8.645,5.459c-0.666,0.317-1.279,0.724-1.932,1.065
			c-0.088-0.118-0.163-0.239-0.285-0.346c-4.092-3.562-12.52-2.505-16.64,0.572c-4.944,3.693-3.374,9.353,0.526,13.034
			c-0.8,0.987-1.654,1.93-2.37,2.982C39.601,29.765,38.743,22.477,45.487,16.384z M58.284,22.796c-3.29,2.2-6.344,4.707-9.024,7.567
			c-1.468-2.332-2.176-4.905,0.689-6.716c1.547-0.978,3.48-1.22,5.267-1.265C56.266,22.354,57.278,22.573,58.284,22.796z
			 M51.363,82.337c-8.153-9.994-11.459-23.21-5.642-36.802c9.669-22.594,35.39-29.488,57.612-26.781
			c0.01,1.265,0.656,2.45,2.192,2.669c25.777,3.677,59.609,27.153,42.149,56.658c-0.028-0.375-0.091-0.758-0.265-1.151
			C131.797,41.837,58.334,40.747,51.363,82.337z M81.266,75.324c-0.016-0.069-0.015-0.045-0.026-0.083
			c-0.002-0.032,0.002-0.011-0.001-0.055c-0.02-0.261-0.005-0.522,0.01-0.782c0.007-0.126,0.15-0.977,0.019-0.237
			c0.085-0.48,0.192-0.877,0.248-1.384c-0.074,0.665,0.077-0.319,0.089-0.374c0.117-0.518,0.157-1.044,0.227-1.569
			c0.255-1.914-2.12-2.675-3.501-2.009C74.435,70.71,74.188,75.5,75.72,79c1.401,3.202,4.91,5.139,8.236,5.536
			c3.852,0.461,7.24-1.708,9.244-4.874c0.459-0.725,0.806-1.499,1.092-2.295c1.189,2.462,3.041,4.556,5.68,5.794
			c7.417,3.48,15.188-3.597,15.468-11.043c0.107-2.858-3.6-3.443-5.026-1.362c-1.977,2.885-3.805,9.096-8.564,6.939
			c-3.676-1.665-5.077-5.644-5.411-9.452c2.917-1.458,4.848-4.545,6.062-7.518c1.026-2.512-1.788-4.023-3.843-3.238
			c-0.029-0.124-0.075-0.23-0.121-0.347c17.685-0.509,35.485,6.879,43.459,22.951c0.766,1.542,2.117,1.824,3.321,1.416
			c-13.574,17.446-43.84,20.51-63.597,17.739c-10.568-1.481-20.369-6.551-27.518-13.756c0.024-0.051,0.063-0.087,0.083-0.141
			c4.688-13.249,16.144-21.991,29.436-25.911c-0.008,0.339,0.041,0.69,0.197,1.052c1.308,3.041,3.4,6.707,6.544,8.109
			c-0.248,2.495-0.772,4.962-1.982,7.066c-0.335,0.582-0.678,1.064-0.899,1.308c-0.605,0.669-0.394,0.441-0.966,0.787
			c-0.715,0.432-1.097,0.484-2.156,0.425c-0.017-0.001-0.006,0.001-0.021,0c-0.039-0.012-0.023-0.014-0.126-0.036
			c-0.248-0.051-0.489-0.129-0.729-0.206c-0.065-0.021-0.045-0.011-0.084-0.022c-0.036-0.019-0.014-0.012-0.078-0.043
			c-0.227-0.109-0.442-0.24-0.657-0.372c-0.511-0.313-0.836-0.674-1.219-1.34C81.161,75.499,81.503,76.332,81.266,75.324z
			 M126.203,177.369c-6.994,0.322-14.272-0.252-19.821-0.13c-10.932,0.239-21.728,1.536-32.597,1.048
			c-0.002-0.021,0.007-0.037,0.005-0.06c-2.069-18.595,6.69-62.831,33.697-55.854c12.099,3.128,16.156,19.202,18.087,29.685
			C127.135,160.527,125.59,169.047,126.203,177.369z M181.326,106.926c-0.725-0.004-1.448,0.002-2.152-0.012
			c-3.549-0.064-7.117,0.164-10.632,0.652c-1.616,0.225-1.615,3.025,0,3.251c3.12,0.437,6.267,0.625,9.397,0.973
			c0.447,0.051,0.888,0.146,1.332,0.226c-5.398,8.124-19.081,12.293-27.304,10.626c-3.438-0.697-5.186,3.425-3.277,5.428
			c-1.594-0.05-3.256,1.05-3.087,2.856c0.822,8.77,3.058,17.301,3.726,26.147c0.978,12.938-6.341,17.781-15.78,19.507
			c2.397-9.545-0.524-22.869-2.341-31.28c-2.88-13.34-10.159-26.506-24.134-30.112c-29.407-7.588-44.886,41.473-37.373,62.832
			c-1.404-0.127-2.808-0.266-4.216-0.472c-21.851-3.199-6.637-35.107-8.299-49.179c-0.021-0.176-0.088-0.312-0.137-0.464
			c0.685-0.598,1.256-1.278,1.612-2.103c0.654-1.518,0.177-3.149-1.501-3.69c-2.536-0.817-4.948,0.451-7.439,1.009
			c-4.16,0.933-8.584,0.806-12.81,0.548c-6.854-0.421-16.335-2.164-21.609-7.396c0.265-0.036,0.532-0.05,0.797-0.095
			c2.342-0.396,1.465-3.575-0.515-3.809c-0.963-0.112-1.961-0.067-2.967,0.063c-0.484-1.269-0.525-2.481-0.293-3.646
			c1.751,0.031,3.45-0.107,4.977-0.558c1.578-0.465,1.576-2.721,0-3.186c-0.918-0.271-1.829-0.375-2.745-0.421
			c3.861-4.344,11.449-7.335,15.402-8.026c8.857-1.55,17.724-0.135,26.534,0.438c1.001,0.065,1.574-0.546,1.752-1.297
			c6.503,4.385,14.012,7.6,21.896,9.235c20.299,4.212,46.723,0.013,63.603-13.948c0.283,0.119,0.592,0.215,0.959,0.243
			c8.702,0.653,23.16-2.867,31.164,2.211c-0.784,0.266-1.558,0.562-2.348,0.801c-2.734,0.829-1.602,4.87,1.174,4.259
			c1.649-0.362,3.268-0.81,4.877-1.294c0.944,1.582,1.619,3.502,1.911,5.891C181.642,104.46,181.544,105.712,181.326,106.926z"/>
		<path d="M69.103,42.412c-0.331-0.042-0.63,0.007-0.938,0.045c0.863-1.108,1.672-2.248,2.251-3.442
			c1.318-2.717-2.151-5.888-4.395-3.391c-1.591,1.77-2.824,3.951-4.139,5.969c-1.18-0.342-2.347-0.73-3.469-1.202
			c-2.549-1.072-4.21,3.118-1.858,4.406c0.773,0.423,1.578,0.793,2.39,1.148c-0.698,1.053-1.376,2.117-1.961,3.232
			c-1.212,2.307,1.935,5.068,3.76,2.901c1.168-1.387,2.247-2.846,3.32-4.309c0.441,0.122,0.872,0.277,1.318,0.381
			c0.449,0.105,0.908,0.169,1.363,0.245c0.129,0.02,0.258,0.041,0.387,0.061c0.069,0.011,0.092,0.014,0.151,0.023
			c0.892,0.448,2.125,0.358,2.935-0.14c0.636-0.392,1.035-0.823,1.47-1.426C73.178,44.85,71.085,42.667,69.103,42.412z"/>
		<path d="M136.734,42.717c0.08-1.251-1.089-2.232-2.259-2.259c-1.932-0.045-3.448,1.275-5.041,2.337
			c-0.968-1.36-1.956-2.698-2.871-3.987c-1.966-2.769-6.461-0.292-4.629,2.706c0.688,1.127,1.328,2.325,1.965,3.532
			c-1.313,0.347-2.638,0.652-3.965,1.046c-1.655,0.492-1.79,3.056,0,3.479c1.941,0.458,4.16,0.112,6.259-0.411
			c0.713,1.177,1.466,2.318,2.351,3.326c2.358,2.688,6.031-0.728,4.66-3.596c-0.256-0.536-0.573-1.064-0.873-1.595
			C134.54,46.454,136.575,45.206,136.734,42.717z"/>
		<path d="M157.073,97.092c-0.18,0.064-0.333,0.172-0.508,0.244c-0.524-0.117-1.105-0.034-1.598,0.39
			c-0.401,0.344-0.806,0.732-1.21,1.107c-0.569,0.377-1.141,0.747-1.686,1.171c-0.34,0.258-0.674,0.523-1.001,0.799
			c-0.266,0.217-0.391,0.335-0.458,0.409c-0.015,0.009-0.018,0.01-0.034,0.019c-1.035,0.606-1.77,1.822-1.689,3.036
			c0.036,0.542,0.196,1.017,0.403,1.466c-0.056,0.282-0.19,0.539-0.215,0.829c-0.278,3.456,3.448,5.413,6.22,6.207
			c2.884,0.826,6.654,1.761,9.292-0.218c2.312-1.735,3.304-4.293,3.472-7.123C168.428,99.256,162.902,94.999,157.073,97.092z"/>
		<path d="M40.773,111.96c-0.794-1.852-2.037-4.085-3.564-5.982c-0.011-0.016-0.025-0.029-0.036-0.045
			c-1.191-1.471-2.548-2.741-4.028-3.437c-1.73-0.812-3.452-0.363-4.487,0.844c-3.598,1.738-7.217,5.098-5.458,9.3
			c1.729,4.131,7.04,6.892,11.168,7.96c2.534,0.656,5.211,0.34,6.774-1.942C42.505,116.669,41.624,113.941,40.773,111.96z"/>
	</g>
</g>
<g>
</g>
<g>
</g>
<g>
</g>
<g>
</g>
<g>
</g>
<g>
</g>
<g>
</g>
<g>
</g>
<g>
</g>
<g>
</g>
<g>
</g>
<g>
</g>
<g>
</g>
<g>
</g>
<g>
</g>
</svg>
