<?xml version="1.0" encoding="iso-8859-1"?>
<!-- Generator: Adobe Illustrator 16.0.0, SVG Export Plug-In . SVG Version: 6.00 Build 0)  -->
<!DOCTYPE svg PUBLIC "-//W3C//DTD SVG 1.1//EN" "http://www.w3.org/Graphics/SVG/1.1/DTD/svg11.dtd">
<svg version="1.1" id="Capa_1" xmlns="http://www.w3.org/2000/svg" xmlns:xlink="http://www.w3.org/1999/xlink" x="0px" y="0px"
	 width="190.331px" height="190.331px" viewBox="0 0 190.331 190.331" style="enable-background:new 0 0 190.331 190.331;"
	 xml:space="preserve">
<g>
	<g>
		<path d="M130.414,43.134c-3.108-2.588-6.521-0.404-9.679,1.049c-0.038-0.071-0.079-0.141-0.117-0.213
			c-0.03-0.057-0.155-0.328-0.254-0.54c0.227-0.62,0.168-1.328-0.408-1.817c-0.483-0.412-1.007-0.745-1.514-1.124
			c-1.613-1.207-3.829,0.121-4.363,1.775c-0.506,1.57-0.008,3.238,0.644,4.782c-1.069,0.527-2.133,1.065-3.196,1.603
			c-1.216,0.133-2.466,0.788-3.664,2.061c-3.204,3.404,0.812,8.283,4.849,6.284c1.931-0.955,3.876-1.878,5.814-2.815
			c0.384,0.593,0.748,1.201,1.155,1.774c1.491,2.105,3.263,4.744,6.171,4.628c3.388-0.135,4.934-3.785,2.733-6.304
			c-0.08-0.091-0.191-0.123-0.281-0.198c-0.099-0.118-0.173-0.257-0.279-0.369c-1.857-1.966,0.352,0.396-0.789-0.661
			c-0.661-0.613-1.269-1.299-1.821-1.971c2.552-0.947,5.367-2.112,5.878-4.614C131.526,45.333,131.373,43.932,130.414,43.134z"/>
		<path d="M76.869,43.993c-0.131-0.046-0.28-0.097-0.479-0.166c-0.799-0.272-1.724-0.229-2.517,0.039
			c-0.976,0.329-2.039,0.49-3.081,0.651c0.143-0.436,0.257-0.88,0.407-1.313c0.159-0.455,0.327-0.905,0.542-1.335
			c0.088-0.174,0.845-1.05,0.237-0.428c3.608-3.691-2.661-8.722-5.65-4.359c-1.489,2.173-1.971,5.429-2.524,7.938
			c-0.022,0.098-0.041,0.199-0.062,0.297c-0.189,0.042-0.401,0.063-0.579,0.116c-0.359-0.098-0.766-0.089-1.179,0.086
			c-1.527,0.648-1.797,2.133-0.984,3.264c0.352,0.798,1.015,1.304,1.826,1.637c-0.187,1.484-0.292,2.975-0.209,4.448
			c0.205,3.693,5.282,3.581,5.651,0c0.137-1.335,0.41-2.673,0.727-4.002c0.446-0.029,0.864-0.059,1.221-0.072
			c2.64-0.108,7.069,0.425,8.478-2.418C79.48,46.787,78.741,44.319,76.869,43.993z"/>
		<path d="M183.701,45.239c2.945-10.688-4.179-22.13-10.809-29.851c-6.691-7.792-16.967-15.582-27.737-15.385
			c-12.158,0.222-17.597,12.291-17.923,22.961c-7.262-3.502-15.222-5.748-23.33-6.628c-0.853-0.869-2.049-1.422-3.556-1.141
			c-1.16,0.217-2.326,0.45-3.495,0.697c-0.267-0.004-0.532-0.028-0.797-0.028c-0.754-0.001-1.314,0.254-1.779,0.599
			c-4.86,1.112-9.752,2.499-14.523,4.167C76.116,9.624,63.583,0.074,52.037,0.888C41.08,1.659,32.308,10.082,26.555,18.775
			c-5.478,8.279-9.379,19.437-6.661,29.338c2.314,8.432,10.552,11.855,18.422,10.675c-1.442,7.563-0.675,16.216,3.085,26.093
			c2.376,6.24,5.989,11.546,10.48,15.973c-0.454-0.267-1.019-0.405-1.688-0.289c-8.513,1.48-14.391,6.118-19.199,13.313
			c-2.376,3.556-3.807,8.114-3.133,12.254c-3.372-0.167-6.709,0.209-9.912,1.28c-1.388,0.466-2.083,1.422-2.312,2.459
			c-12.416,2.6-11.075,18.233-6.062,29.087c7.103,15.375,22.979,33.893,41.969,31.09c9.422-1.392,15.712-6.057,18.833-12.257
			c0.138,0.14,0.239,0.294,0.418,0.417c12.697,8.705,31.471,8.212,45.073,1.089c1.142,1.559,2.49,3.074,4.178,4.508
			c20.977,17.808,72.728-22.951,61.645-42.831c1.215-0.424,2.172-2.02,1.495-3.402c-4.589-9.378-12.732-13.046-21.906-12.879
			c-0.555-2.089-2.061-4.098-3.188-5.778c-1.989-2.973-4.312-5.789-6.848-8.311c-1.831-1.821-4.386-4.311-7.029-5.032
			c12.556-10.991,17.333-28.274,13.568-45.346c5.628,0.373,12.42-1.694,16.854-3.898C179.104,54.108,182.384,50.018,183.701,45.239z
			 M39.435,54.411c-6.157-0.841-11.759-2.287-13.201-9.561c-1.502-7.577,2.625-16.261,6.563-22.427
			c4.21-6.592,11.109-13.355,19.241-14.31c10.79-1.265,15.515,7.955,21.45,14.908c-1.106,0.461-2.169,0.981-3.25,1.478
			c-2.978-6.156-10.772-9.914-17.341-9.445c-6.868,0.491-13.035,4.794-17.315,9.964c-3.865,4.669-6.868,10.979-5.568,17.151
			c1.15,5.458,6.107,7.765,11.116,8.111C40.507,51.627,39.896,52.98,39.435,54.411z M47.796,30.275
			c-1.77-0.916-3.456-1.992-5.086-3.145c1.611-1.561,3.484-2.911,5.502-3.904c1.517,1.35,3.062,2.666,4.562,4.037
			c1.472,1.346,3.145,3.014,4.942,4.407c-0.985,0.697-1.987,1.381-2.922,2.12c-0.038-0.044-0.031-0.097-0.075-0.139
			C52.935,31.977,49.969,31.399,47.796,30.275z M51.679,36.403c-1.275,1.163-2.488,2.371-3.621,3.632
			c-0.027-0.042-0.053-0.109-0.079-0.138c-0.372-0.392-0.808-0.715-1.283-0.968c-1.048-0.559-2.094-1.118-3.139-1.684
			c-2.006-1.085-4.033-2.131-6.067-3.161c0.904-1.83,2.112-3.514,3.361-4.996c1.429,1.26,2.91,2.46,4.467,3.574
			C47,33.867,49.385,35.746,51.679,36.403z M55.012,24.364c-1.062-0.774-2.101-1.58-3.143-2.381
			c0.345-0.067,0.677-0.195,1.027-0.234c5.435-0.621,8.009,2.656,11.366,5.76c-0.785,0.433-1.513,0.92-2.272,1.378
			C59.807,27.225,57.113,25.896,55.012,24.364z M43.451,46.04c-3.751-0.555-7.465-1.978-7.462-6.298
			c0.001-0.68,0.167-1.347,0.297-2.017c0.483,0.294,0.96,0.598,1.436,0.9c1.825,1.158,3.653,2.312,5.489,3.454
			c0.73,0.453,1.491,0.95,2.287,1.205C44.813,44.202,44.055,45.073,43.451,46.04z M51.491,182.9
			c-22.043,5.263-49.506-41.639-34.866-49.805c0.745,0.728,1.802,1.183,3.151,0.951c5.109-0.88,10.104-0.317,14.859,1.177
			c-1.293-0.063-2.58,0.971-2.884,2.206c-0.542,2.206,1.355,5.909,2.351,7.813c1.352,2.586,4.748,0.65,4.363-1.839
			c-0.031-0.203-0.09-0.401-0.129-0.604c0.152-0.229,0.323-0.451,0.365-0.724c0.312-2.005-0.409-4.904-2.228-6.19
			c7.663,2.842,14.636,8.046,20.26,13.81C67.995,161.236,70.45,178.375,51.491,182.9z M112.738,173.197
			c-12.189,6.028-27.107,6.967-39.338,0.556c-0.493-0.259-0.954-0.316-1.394-0.298c1.438-5.796,0.543-12.438-2.768-18.89
			c5.929-8.898,16.804-12.566,27.148-13.235c5.04-0.325,10.215,0.488,14.712,2.816c3.604,1.866,4.26,4.944,5.5,8.058
			C112.473,159.09,110.646,166.426,112.738,173.197z M175.077,135.991c-1.479,0.57-2.441,2.551-1.61,4.151
			c10.539,20.285-28.321,44.565-45.698,39.817c-3.611-0.987-5.877-2.686-7.172-4.812c0.123-1.112-0.318-2.238-1.11-3.002
			c-1.831-9.163,8.213-22.835,13.629-27.528C143.923,135.254,162.63,127.21,175.077,135.991z M148.586,116.021
			c1.7,2.192,3.256,4.462,4.657,6.857c0.489,0.837,0.87,1.722,1.264,2.59c-7.818,1.582-15.929,5.438-22.957,10.652
			c0.406-1.83-0.695-3.743-1.452-5.573c-1.178-2.843-2.417-6.188-4.782-8.275c-2.589-2.283-6.982,0.664-4.963,3.829
			c1.902,2.982,3.854,5.824,5.525,8.963c0.598,1.12,1.665,2.991,3.163,3c-2.632,2.154-5.025,4.514-7.191,6.976
			c-3.909-6.474-14.859-9.967-21.41-10.347c-12.225-0.708-27.407,4.559-33.763,15.655c-6.991-10.221-20.021-20.562-33.295-23.442
			c-0.62-9.582,9.665-18.971,18.035-21.907c1.803-0.633,1.979-2.462,1.123-3.576c19.576,18.607,54.962,21.194,78.361,12.171
			c3.941-1.521,7.462-3.497,10.594-5.812c0.012,0.06,0.044,0.193,0.21,0.585c0.271,0.637,1.207,1.228,1.697,1.688
			C145.31,111.855,146.982,113.952,148.586,116.021z M74.167,76.901c-7.594,7.245-4.461,20.35,6.422,21.791
			c4.574,0.606,8.922-1.845,11.448-5.554c0.407-0.597,0.739-1.232,1.05-1.875c1.747,3.227,4.356,5.952,7.717,7.492
			c3.826,1.753,8.114,1.569,11.686-0.688c3.894-2.462,7.622-8.717,6.135-13.306c-0.591-1.823-3.097-2.788-4.517-1.193
			c-3.561,3.999-3.445,12.045-10.915,9.522c-4.482-1.514-6.481-5.527-7.396-9.83c0.729-0.24,1.419-0.63,1.919-1.356
			c2.431-3.528,5.409-8.186,6.334-12.548c0.149-0.367,0.244-0.735,0.271-1.101c0.008-0.062,0.04-0.128,0.046-0.19
			c-0.017,0.041-0.034,0.081-0.05,0.121c0.014-0.29,0.017-0.579-0.047-0.854c14.334,3.583,27.875,18.232,28.625,31.454
			c0.096,1.688,1.353,2.778,2.731,2.983c-0.585,0.426-1.151,0.868-1.768,1.267c-22.533,14.589-56.256,8.216-75.675-8.693
			c1.132-11.856,13.681-20.083,25.491-24.526c0.104,0.29,0.242,0.569,0.397,0.851c0.721,1.312,1.55,2.557,2.386,3.798
			c1.114,1.655,2.315,3.266,3.488,4.89c-0.327,3.292-1.06,6.525-2.912,9.305c-1.63,2.446-3.489,3.079-5.785,2.864
			c-1.229-0.116-3.279-1.574-3.811-2.927c-1.01-2.572,0.036-5.894,1.277-9.05C79.768,76.871,75.99,75.162,74.167,76.901z
			 M139.647,98.472c8.773-19.423-29.81-40.049-44.79-39.203C80.087,60.103,55.571,73.161,53.42,89.576
			c-13.392-16.315-7.34-41.611,8.846-53.709c11.137-8.323,26.922-10.333,40.143-13.19h0.001
			c18.697,2.573,34.831,11.98,44.149,29.213C155.167,67.81,152.138,86.579,139.647,98.472z M150.723,42.994
			c-0.067,0.061-0.094,0.128-0.147,0.19c-1.01-1.538-2.027-3.071-3.182-4.481c3.092-3.444,6.87-6.282,9.742-9.866
			c0.074-0.095,0.099-0.191,0.158-0.286c0.562,0.586,1.074,1.219,1.503,1.916c0.798,1.294,1.213,2.835,1.358,4.407
			C157.005,37.569,153.797,40.238,150.723,42.994z M148.975,31.309c-1.336,1.626-2.577,3.321-3.73,5.076
			c-1.063-1.152-2.089-2.342-3.244-3.402c1.017-1.397,2.433-2.725,3.403-3.744c1.116-1.172,2.336-2.268,3.635-3.232
			c0.588-0.437,1.136-0.864,1.522-1.388c1.124,0.33,2.192,0.81,3.221,1.357C151.988,27.493,150.451,29.511,148.975,31.309z
			 M142.311,26.853c-0.953,1.253-1.892,2.698-2.53,4.234c-0.801-0.663-1.583-1.35-2.419-1.97c1.128-2.986,3.412-4.71,7.085-5.092
			C143.575,25.078,142.83,26.169,142.311,26.853z M155.471,52.455c-0.24-0.619-0.537-1.198-0.799-1.804
			c3.845,0.746,7.784-1.951,10.05-5.387c3.546-5.379,2.944-12.818-0.022-18.249c-6.559-12.005-27.864-12.835-31.623-0.802
			c-0.609-0.376-1.201-0.777-1.823-1.134c0.036-0.091,0.095-0.155,0.119-0.257c1.952-7.782,4.489-18.144,14.414-17.586
			c8.261,0.465,15.882,7.127,21.153,12.918c4.962,5.449,10.727,14.014,9.625,21.834C175.074,52.577,163.215,50.656,155.471,52.455z"
			/>
		<path d="M143.741,150.319c-3.531-1.343-5.782,0.581-7.215,3.412c-0.123,0.134-0.271,0.23-0.37,0.396
			c-0.507-0.065-1.052,0.061-1.54,0.524c-2.605,2.478-5.231,5.973-4.379,9.814c1.028,4.632,6.035,6.207,10.188,6.676
			c5.876,0.664,10.394-3.068,10.305-9.059C150.663,157.6,148.164,152.002,143.741,150.319z"/>
		<path d="M157.261,139.3c-1.09-2.193-3.851-2.013-5.479-0.706c-0.946,0.759-1.232,2.22-1.388,3.584
			c-0.226,0.738-0.486,1.467-0.769,2.185c-1.762,4.492,6.101,6.831,7.312,2.016C157.497,144.15,158.346,141.485,157.261,139.3z"/>
		<path d="M163.453,147.674c-0.492-0.604-0.991-1.075-1.642-1.521c-1.213-0.832-3.259-0.566-4.223,0.545
			c-1.596,1.844-1.104,3.49-0.002,5.37c0.287,0.489,0.704,0.812,1.166,1.028C161.928,155.402,166.454,151.357,163.453,147.674z"/>
		<path d="M162.414,155.166c-1.464-0.167-2.96-0.056-4.432-0.036c-2.31-0.03-3.445,1.759-3.425,3.549
			c-0.011,0.863,0.261,1.714,0.792,2.373c-0.221,1.438,1.516,2.851,2.898,1.955c0.341-0.222,0.697-0.489,1.062-0.748
			c1.038,0.028,2.079,0.05,3.104-0.067C166.934,161.677,166.934,155.681,162.414,155.166z"/>
		<path d="M51.114,151.876c-3.291-2.386-7.819-3.271-11.911-2.471c-9.105-0.404-16.687,7.542-11.358,16.51
			c0.725,1.221,1.655,2.388,2.664,3.517c0.294,0.575,0.588,1.151,0.961,1.674c1.474,2.063,3.48,3.232,5.645,3.748
			c4.333,2.571,9.309,4.004,13.913,3.259c4.506-0.729,7.057-4.958,7.437-9.187C59.068,162.209,56.601,155.852,51.114,151.876z
			 M52.048,169.151c-0.031-0.363-0.13-0.732-0.394-1.102c-0.16-0.225-0.391-0.38-0.59-0.57c1.595-4.561-1.558-8.646-5.816-11.223
			c1.22,0.407,2.333,0.989,3.17,1.67C51.185,160.168,53.006,165.358,52.048,169.151z"/>
		<g>
			<path d="M21.657,146.085c-1.543-0.224-3.192-0.377-4.401,0.832c-1.219,1.219-1.281,3.437,0.027,4.632
				c0.482,0.439,0.949,0.766,1.596,0.916c0.516,0.139,1.031,0.139,1.547,0c0.183-0.079,0.314-0.136,0.425-0.184h0.002
				c0.004-0.001,0.006-0.004,0.009-0.005c0.322-0.137,0.313-0.129,0.016,0.007C24.189,152.294,25.293,146.611,21.657,146.085z"/>
			<path d="M20.673,152.376c0.094-0.043,0.138-0.063,0.203-0.093c-0.008,0-0.016-0.002-0.025-0.002
				C20.787,152.306,20.743,152.355,20.673,152.376z"/>
		</g>
		<path d="M29.704,140.774c-1.243-0.702-3.367-1.015-4.233-2.257c-2.209-3.167-7.418-0.218-5.231,3.058
			c0.424,0.845,1.048,1.578,1.739,2.262c0.963,1.163,1.986,2.273,3.119,3.282c1.099,0.979,2.355,0.797,3.206,0.111
			C31.209,147.101,32.626,142.423,29.704,140.774z"/>
		<path d="M65.625,118.899c-3.301,0.479-4.747,5.417-5.617,8.077c-1.425,4.35-1.654,9.196-0.621,13.64
			c0.547,2.354,4.3,1.846,4.205-0.568c-0.144-3.672,0.411-7.081,1.594-10.555c0.893-2.623,3.205-4.54,3.958-7.074
			C69.827,120.117,67.663,118.604,65.625,118.899z"/>
	</g>
</g>
<g>
</g>
<g>
</g>
<g>
</g>
<g>
</g>
<g>
</g>
<g>
</g>
<g>
</g>
<g>
</g>
<g>
</g>
<g>
</g>
<g>
</g>
<g>
</g>
<g>
</g>
<g>
</g>
<g>
</g>
</svg>
