<?xml version='1.0' encoding='iso-8859-1'?>
<!DOCTYPE svg PUBLIC '-//W3C//DTD SVG 1.1//EN' 'http://www.w3.org/Graphics/SVG/1.1/DTD/svg11.dtd'>
<svg version="1.1" xmlns="http://www.w3.org/2000/svg" viewBox="0 0 439.474 439.474" xmlns:xlink="http://www.w3.org/1999/xlink" enable-background="new 0 0 439.474 439.474">
  <g>
    <path d="m366.705,156.529c3.604-10.964 7.035-20.216 9.659-29.692 3.144-11.355 2.796-11.167 13.858-8.147 5.616,1.534 11.552,2.031 17.382,2.619 11.255,1.136 13.805,4.045 14.408,15.183 1.01,18.668-3.74,36.578-7.113,54.595-4.26,22.753-9.713,45.287-14.905,67.857-1.467,6.376-2.589,13.163-9.483,17.524 10.057,12.51 13.175,27.047 13.66,42.255 0.41,12.834-0.431,13.791-13.437,19.783 1.27,6.686 2.598,13.768 3.964,20.841 2.474,12.806 2.293,25.646 0.187,38.447-1.306,7.935-4.692,13.958-14.242,13.715-2.006-0.051-4.048,1.328-6.619,2.242 0.362,3.596 0.863,6.81 0.976,10.038 0.261,7.423-2.808,11.25-10.108,11.612-15.058,0.747-30.135,1.112-45.207,1.536-2.179,0.061-4.429-0.191-6.552-0.696-7.601-1.808-9.705-4.731-9.185-12.502 0.169-2.535 0.511-5.059 0.888-8.688-55.996-0.683-111.438,0.348-167.779,3.25-0.87,3.756-1.883,7.564-2.62,11.425-1.577,8.267-3.9,9.87-11.817,9.281-5.758-0.428-11.582-0.014-17.376,0.078-6.985,0.111-13.973,0.48-20.954,0.368-7.783-0.125-10.17-2.477-11.141-10.527-0.476-3.941-0.57-7.929-0.929-13.26-4.136,0-7.707-0.083-11.273,0.018-6.478,0.184-10.435-3.019-12.189-9.047-0.914-3.141-1.929-6.353-2.138-9.582-1.113-17.252-1.87-34.527-3.065-51.773-0.186-2.689-1.514-5.617-3.134-7.836-10.159-13.907-9.373-29.079-4.72-44.311 1.293-4.234 5.392-7.747 8.614-11.209 2.456-2.64 5.56-4.677 9.381-7.804-6.585-24.748-13.23-49.566-19.786-74.408-5.161-19.558-10.434-39.091-15.234-58.738-3.057-12.51-1.544-14.643 10.917-19.511 5.828-2.277 11.519-4.985 17.477-6.833 7.192-2.231 9.863-0.949 12.913,6.124 3.054,7.085 5.466,14.445 8.199,21.67 1.94,5.127 3.946,10.229 6.412,16.607 7.875-1.408 15.403-2.42 22.77-4.131 28.654-6.654 57.235-13.494 86.482-17.341 35.469-4.666 70.973-7.662 106.742-5.236 21.535,1.461 42.064,6.747 61.067,17.371 4.112,2.301 8.596,3.932 15.05,6.833zm-189.86,165.967l-.204-.185c-1.494,4.223-2.989,8.446-4.762,13.457 7.499,0 13.695,0.028 19.891-0.01 4.363-0.027 7.48-1.804 9.93-5.704 3.924-6.249 8.48-12.1 12.769-18.119 0.531,0.369 1.062,0.737 1.593,1.106-3.904,6.421-7.808,12.842-11.749,19.325 8.326,3.672 13.452,0.216 18.404-8.558-1.094,4.811-1.556,6.847-2.22,9.768 3.085-0.321 5.55-0.915 7.958-0.734 2.524,0.19 5.016,1.042 7.48,1.749 5.24,1.503 8.721,0.006 12.123-4.624 6.486-8.827 10.17-11.41 16.631-14.5-4.036,6.984-12.315,10.592-14.553,19.644 6.019,0.307 11.136,0.976 16.211,0.739 9.174-0.429 18.31-1.618 27.483-2.102 21.305-1.125 42.626-1.94 63.931-3.052 7.348-0.383 14.697-1.066 21.994-2.009 3.808-0.492 7.506-1.843 11.262-2.809 0-5.277 0.257-9.327-0.072-13.329-0.33-4.013-1.094-8.01-1.927-11.96-3.381-16.034-22.775-33.248-38.865-35.104-7.557-0.872-15.145-2.12-22.483-4.081-9.233-2.467-18.198-5.92-27.324-8.802-26.486-8.364-53.473-14.733-81.385-12.289-18.983,1.663-37.876,5.18-56.584,8.976-30.317,6.151-60.591,12.828-88.6,26.665-7.217,3.565-14.142,7.876-20.734,12.51-7.375,5.184-9.093,13.021-8.823,24.117 5.395-8.608 9.486-15.135 13.577-21.662 0.641,0.38 1.282,0.76 1.924,1.14-4.011,7.295-7.61,14.859-12.149,21.809-4.577,7.009-3.905,12.84 2.031,19.093 4.272-7.284 8.359-14.252 12.445-21.22 0.63,0.356 1.261,0.712 1.891,1.068-3.03,6.136-6.19,12.213-9.057,18.424-3.505,7.594-2.866,8.6 6.315,11.427 3.252-6.565 6.511-13.142 9.769-19.72 0.639,0.294 1.278,0.588 1.917,0.881-2.394,5.805-4.789,11.61-7.768,18.832 9.553-2.24 16.372-4.709 19.191-13.27 0.597-1.812 2.663-3.139 4.052-4.69l-.219-.19c-0.426,2.671-0.851,5.342-1.501,9.422 11.111-5.019 21.711-6.95 32.034-5.439 3.154-4.749 5.595-8.425 8.035-12.1 0.459,0.264 0.918,0.529 1.377,0.793-1.451,3.575-2.901,7.151-4.768,11.75 5.369,0.516 10.638,2.502 14.502,0.962 3.581-1.427 5.658-6.625 9.669-11.803-1.984,5.26-3.227,8.557-4.738,12.562 3.97,0.901 7.372,1.674 10.663,2.421 2.684-4.356 4.908-7.964 7.131-11.572 0.204,0.103 0.409,0.206 0.613,0.308-1.439,3.962-2.878,7.924-4.606,12.684 4.034,0.496 7.15,0.88 9.592,1.18 3.954-4.868 7.329-9.022 10.703-13.175zm-133.323-127.52c2.673-4.555 5.188-8.841 7.702-13.128-0.125,4.137-1.667,7.735-2.681,11.475-1.135,4.187-2.357,8.487-2.486,12.77-0.11,3.689 0.391,8.176 5.025,7.245 0.494,5.612 0.591,10.946 1.51,16.134 1.263,7.129 3.293,14.12 4.724,21.224 1.267,6.291 2.165,12.657 3.349,19.723 12.473-5.228 23.984-10.053 35.512-14.886-5.625-5.305-10.974-9.378-15.114-14.44-11.329-13.853-6.754-29.093 10.185-34.916 2.733-0.939 5.747-1.13 8.654-1.486 11.03-1.351 21.025,2.112 30.676,7.445 2.976-3.465 5.155-7.06 8.277-9.396 4.908-3.673 10.079-7.736 15.794-9.453 18.203-5.469 33.544,9.121 29.725,27.699-0.988,4.809-2.564,9.497-4.052,14.903 11.511-1.397 22.003-3.187 32.564-3.81 10.852-0.64 21.771-0.142 32.748-0.142-13.767-19.309-15.498-29.439-6.158-37.894 5.588-5.06 12.351-7.728 19.928-8.596 9.248-1.059 14.528,5.565 20.41,10.593 3.441-1.877 6.252-3.67 9.263-5.01 13.875-6.173 27.914-6.203 41.709-0.023 10.635,4.764 14.139,12.394 10.52,23.408-2.162,6.58-5.59,12.764-8.679,19.012-2.197,4.444-4.779,8.698-7.117,12.908 19.965,7.817 39.047,15.288 58.573,22.934 0.972-3.086 2.303-6.508 3.125-10.049 7.982-34.376 16.081-68.728 23.656-103.195 1.851-8.425 1.904-17.245 2.849-26.523-10.414-1.731-19.303-3.21-28.209-4.69-3.237,12.283-6.133,24.02-9.463,35.633-2.115,7.376-5.102,8.94-12.224,6.227-6.512-2.481-13.011-5.279-18.991-8.823-18.885-11.194-39.504-15.7-61.09-16.745-23.562-1.141-47.044-0.688-70.549,2.033-29.588,3.426-59.074,7.127-88.079,14.17-14.994,3.641-30.123,6.798-45.296,9.609-9.277,1.719-11.826,0.233-15.537-8.339-3.059-7.067-5.241-14.513-7.791-21.799-1.767-5.048-3.497-10.109-5.392-15.593-8.375,3.858-15.601,7.187-22.938,10.567 0.174,3.15-0.225,5.875 0.563,8.197 1.84,5.422 4.812,10.502 6.269,16 1.423,5.369 1.507,11.089 2.279,16.641 0.054,0.391 0.933,0.667 1.654,1.147 1.957-3.564 3.867-7.042 6.86-12.491-1.225,12.484-11.013,22.144-2.257,33.73zm127.168,188.547c-4.572,7.253-9.144,14.506-14.362,22.783 5.9,0 10.173,0 14.462,0 3.369-7.449 7.149-14.094 13.861-18.554-3.55,5.829-7.1,11.657-10.8,17.732 8.588,2.903 13.811,0.416 17.909-6.087 2.768-4.391 6.37-8.256 9.599-12.357 0.556,0.407 1.112,0.814 1.668,1.22-3.395,5.427-6.79,10.854-10.699,17.102 7.946,1.295 13.452,0.421 17.799-6.267 4.601-7.079 10.263-13.475 15.57-20.082 1.084-1.349 2.65-2.31 3.994-3.45 0.381,0.405 0.763,0.81 1.144,1.215-5.922,8.726-11.844,17.452-18.239,26.875 8.729,1.847 15.006,1.785 19.831-6.223 3.884-6.445 9.558-11.812 14.438-17.656 0.576,0.4 1.153,0.8 1.729,1.2-4.952,7.332-9.904,14.664-15.329,22.697 7.512,2.182 12.771,1.811 17.34-4.178 4.502-5.901 9.899-11.12 14.904-16.638 0.591,0.488 1.182,0.977 1.773,1.465-4.637,6.238-9.274,12.476-14.614,19.659 3.984,0.249 6.491,0.266 8.959,0.585 8.469,1.097 14.824-1.648 19.489-9.139 2.737-4.394 6.691-8.03 10.098-12.007 0.558,0.478 1.116,0.956 1.675,1.435-4.486,5.991-8.973,11.983-13.75,18.363 7.262,2.562 11.945,1.454 16.086-4.343 3.328-4.658 8.088-8.293 12.213-12.382 0.391,0.441 0.782,0.881 1.174,1.322-3.592,4.96-7.184,9.92-11.584,15.995 10.871,0 20.299,0.18 29.718-0.04 16.2-0.378 32.392-1.062 48.591-1.499 5.48-0.148 8.607-2.005 9.74-8.045 3.478-18.548 0.44-36.361-4.264-54.499-15.629,0-30.715-0.021-45.801,0.027-1.833,0.006-3.659,0.444-5.497,0.57-11.004,0.756-22.009,1.495-33.015,2.206-3.67,0.237-7.344,0.501-11.019,0.539-16.527,0.173-33.055,0.276-49.583,0.392-10.995,0.078-22.01-0.258-32.98,0.297-16.181,0.818-32.418,2.956-48.364-1.278-14.741-3.914-29.675-5.751-44.809-4.924-6.464,0.353-12.99,2.125-19.182,4.176-6.258,2.072-11.933,6.008-18.241,7.797-6.166,1.749-12.808,1.819-19.462,2.653 1.174,8.281 2.333,16.446 3.754,26.471 4.244-5.563 7.233-9.482 10.223-13.4-1.538,10.748-14.052,17.712-7.854,31.647 6.236-9.708 11.921-18.561 17.607-27.414 0.485,0.333 0.97,0.666 1.455,1-6.34,11.453-12.68,22.906-19.687,35.563 5.115,0 8.612,0 12.055,0 4.608-7.211 9.169-14.349 13.73-21.487 0.678,0.397 1.356,0.795 2.034,1.192-3.351,6.551-6.702,13.102-10.646,20.813 10.937,0 20.058,0 28.973,0 4.995-8.002 9.838-15.761 14.682-23.521 0.657,0.407 1.314,0.814 1.972,1.221-4.151,7.564-8.302,15.128-12.486,22.752 7.886,3.33 12.164-0.54 16.159-7.07-0.246,3.545-0.386,5.565-0.541,7.81 5.602,0 10.646,0 14.554,0 4.723-8.195 8.962-15.551 13.201-22.908 0.699,0.372 1.398,0.744 2.097,1.117-3.589,6.932-7.178,13.864-10.768,20.796 14.494-2.302 15.649-17.606 27.316-23.239zm145.159-138.814c5.462-10.459 11.345-20.251 15.786-30.659 4.067-9.53 1.266-14.372-8.544-17.53-13.574-4.371-26.108-2.413-37.202,6.908-6.672,5.606-7.792,5.524-12.949-1.12-0.9-1.16-1.618-2.465-2.556-3.59-5.037-6.043-11.833-6.976-19.743-2.763-7.742,4.123-10.229,9.32-7.151,17.274 4.396,11.36 13.57,18.966 24.529,22.135 15.079,4.359 30.894,6.172 47.83,9.345zm-146.006-6.838c2.145-5.91 4.367-11.716 6.322-17.611 0.563-1.698 0.484-3.649 0.487-5.485 0.019-10.815-8.636-17.412-19.184-14.916-9.166,2.169-14.424,7.912-17.319,16.71-2.254,6.852-4.084,7.361-10.554,4.362-5-2.317-9.736-5.289-14.875-7.198-8.264-3.07-16.657-3.032-24.462,1.643-7.08,4.24-8.506,9.339-4.918,16.873 4.165,8.746 11.587,14.162 19.855,18.465 1.77,0.921 4.394,0.958 6.424,0.504 19.358-4.321 38.673-8.836 58.224-13.347zm144.217,189.378c16.971,2.694 33.157-0.627 49.748-1.168 0-4.619 0-8.44 0-12.173-16.972,0-33.273,0-49.748,0 0,5.007 0,8.925 0,13.341zm-187.632-9.323c-15.808,0-30.258,0-45.464,0 0.495,4.563 0.912,8.408 1.407,12.977 7.755,0 14.644,0.152 21.524-0.043 6.854-0.193 13.699-0.733 20.945-1.144 0.499-3.705 0.924-6.859 1.588-11.79z"/>
    <path d="m236.88,36.608c0.535,0.099 2.205-0.022 3.363,0.69 6.385,3.932 12.421,4.506 19.158,0.269 3.787-2.382 8.17-0.513 10.813,2.865 3.058,3.91 7.017,8.388 4.287,13.711-4.144,8.079-8.441,16.294-14.054,23.355-7.708,9.698-21.554,8.392-27.221-2.501-4.011-7.711-6.742-16.234-8.981-24.676-1.917-7.231 4.192-13.708 12.635-13.713z"/>
    <path d="m173.229,83.823c1.843-3.601 2.603-6.86 4.651-8.632 2.509-2.172 6.092-4.275 9.215-4.281 4.429-0.009 7.555,3.702 7.316,8.166-0.547,10.22-1.199,20.512-3.012,30.558-1.176,6.515-6.93,9.99-13.465,8.395-8.838-2.158-17.703-4.907-25.902-8.786-8.219-3.888-10.869-9.876-9.155-15.609 2.063-6.904 9.957-12.365 17.99-11.928 3.968,0.215 7.889,1.32 12.362,2.117z"/>
    <path d="m294.669,7.32c0.86-1.009 1.804-2.106 2.739-3.212 2.499-2.959 5.24-5.325 9.464-3.425 4.425,1.99 5.408,5.74 4.768,10.086-0.318,2.16-0.899,4.321-1.666,6.367-4.75,12.656-12.063,14.453-22.554,5.702-4.036-3.367-6.354-7.531-4.417-12.598 2.19-5.735 7.195-3.412 11.666-2.92z"/>
    <path d="m88.357,324.694c2.01-4.816 4.021-9.633 6.031-14.449 0.054,5.818-1.674,10.782-6.252,14.258 0.003,0.002 0.221,0.191 0.221,0.191z"/>
    <path d="m176.845,322.496c1.261-3.125 2.522-6.249 3.783-9.374 0.733,0.397 1.466,0.795 2.199,1.192-2.063,2.664-4.126,5.329-6.188,7.995 0.001,0.002 0.206,0.187 0.206,0.187z"/>
    <path d="m236.302,319.966c1.278-1.533 2.557-3.066 3.835-4.6 0.498,0.483 0.997,0.966 1.495,1.448-1.274,1.509-2.548,3.017-3.821,4.526-0.503-0.457-1.006-0.915-1.509-1.374z"/>
    <path d="m106.784,383.11c-3.059,5.916-6.119,11.831-9.178,17.747-0.794-7.824 3.94-12.913 9.178-17.747z"/>
  </g>
</svg>
