<?xml version="1.0" encoding="iso-8859-1"?>
<!-- Generator: Adobe Illustrator 16.0.0, SVG Export Plug-In . SVG Version: 6.00 Build 0)  -->
<!DOCTYPE svg PUBLIC "-//W3C//DTD SVG 1.1//EN" "http://www.w3.org/Graphics/SVG/1.1/DTD/svg11.dtd">
<svg version="1.1" id="Capa_1" xmlns="http://www.w3.org/2000/svg" xmlns:xlink="http://www.w3.org/1999/xlink" x="0px" y="0px"
	 width="192.51px" height="192.511px" viewBox="0 0 192.51 192.511" style="enable-background:new 0 0 192.51 192.511;"
	 xml:space="preserve">
<g>
	<g>
		<path d="M173.712,62.913c-14.958-6.652-25.206,4.783-29.367,18.504c-0.163-0.057-0.267-0.159-0.448-0.2
			c-8.849-2.024-18.322-1.989-27.349-2.07c-4.382-0.039-8.753,0.035-13.133,0.19c-1.486,0.052-3.26-0.051-4.709,0.349
			c-0.275,0.076-0.777,0.576-1.216,1.084c-0.159-7.084,1.153-14.686,1.669-21.091c1.209-15.044,4.061-30.404-1.616-44.868
			C87.67-10.349,52.419-0.624,48.705,22.854c-0.519-0.454-1.176-0.792-2.061-0.821C27.503,21.408,12.068,35.459,8.212,53.794
			c-3.249,15.449,6.708,30.688,22.53,29.283c-9.187,36.466,18.941,53.209,52.251,57.367c-0.02,0.089-0.032,0.181-0.047,0.271
			c-0.199-0.204-0.468-0.349-0.756-0.275c-9.428,2.39-5.677,15.833-1.789,21.312c-10.276,0.543-32.114,8.981-22.692,22.142
			c8.05,11.244,26.347,6.601,38.086,6.909c13.285,0.347,38.212,6.735,46.892-7.671c9.229-15.317-9.944-21.37-22.459-21.359
			c-0.017-6.854-0.032-13.711-0.05-20.568c-0.001-0.343-0.107-0.609-0.184-0.899c14.437-1.803,27.618-5.526,36.785-10.596
			c13.778-7.62,23.831-19.923,27.508-35.143C186.394,85.845,183.255,67.158,173.712,62.913z M135.872,106.879
			c0.186-3.338,0.303-6.67,0.388-10.013c0.069-2.729,0.529-5.821,0.058-8.593c1.812,0.23,3.619,0.477,5.413,0.804
			c0.346,0.063,0.641-0.001,0.957-0.012c-0.497,3.695-0.564,7.35-0.154,10.673c-1.743,4.242-4.278,6.924-7.241,8.472
			C135.608,107.894,135.839,107.461,135.872,106.879z M128.987,87.504c0.865,0.07,1.727,0.174,2.591,0.256
			c-0.527,2.486-0.154,5.2-0.089,7.727c0.097,3.802,0.211,7.594,0.423,11.393c0.079,1.431,1.265,2.028,2.319,1.855
			c-2.187,0.91-4.572,1.26-7.052,1.136C128.604,102.976,129.845,94.7,128.987,87.504z M110.877,102.588
			c0.267-2.608,0.343-5.246,0.446-7.866c0.106-2.726,0.611-5.666-0.146-8.309c-0.001-0.005-0.005-0.005-0.006-0.009
			c1.096,0.055,2.195,0.108,3.288,0.168c0.63,0.035,1.265,0.07,1.896,0.104c-0.643,1.921-0.335,3.944-0.239,6.006
			c0.173,3.768,0.214,7.59,0.685,11.336c0.219,1.746,2.497,1.746,2.716,0c0.439-3.496,0.488-7.059,0.65-10.577
			c0.1-2.187,0.476-4.48-0.152-6.564c1.465,0.081,2.931,0.213,4.396,0.308c-0.955,7.186,0.249,14.812-0.902,22.059
			c-0.009,0.056,0.01,0.101,0.005,0.153c-4.481-0.959-9.051-3.158-13.048-5.955C110.67,103.232,110.838,102.967,110.877,102.588z
			 M97.992,85.167c1.106,0.647,2.74,0.524,3.969,0.642c2.037,0.194,4.086,0.324,6.135,0.436c-0.03,0.068-0.097,0.095-0.119,0.169
			c-0.671,2.341-0.281,4.822-0.188,7.234c0.104,2.705,0.19,5.426,0.43,8.125c-4.638-3.712-8.223-8.115-9.44-11.986
			c-0.482-1.532-0.769-3.163-0.979-4.826C97.873,85.041,97.972,85.154,97.992,85.167z M29.963,75.452
			c-0.123,0.169-0.158,0.336-0.235,0.506c-10.445-2.756-16.122-9.053-13.678-21.864c2.112-11.069,9.768-19.507,19.642-23.27
			c0.389,1.655,0.86,3.245,1.091,4.368C39.587,48.807,38.261,64.054,29.963,75.452z M72.854,182.684
			c0.028,0.295,0.12,0.537,0.213,0.776c-4.963-0.451-10.421-2.202-7.401-8.866c1.209-2.669,4.212-4.462,7.564-5.721
			c-0.313,1.24-0.413,2.57-0.516,3.821C72.442,176.01,72.541,179.379,72.854,182.684z M82.704,173.587
			c-0.492,3.3-0.791,6.608-0.641,9.939c-1.23,0.038-2.459,0.079-3.688,0.084c-0.289,0.001-0.626,0.004-0.987,0.005
			c0.126-0.273,0.223-0.577,0.256-0.932c0.284-2.975,0.349-5.961,0.635-8.938c0.208-2.163,0.872-4.358,0.542-6.512
			c1.54-0.358,2.997-0.648,4.201-0.889c0.6-0.12,0.999-0.416,1.273-0.783c0.07,0.049,0.155,0.074,0.226,0.121
			C83.241,168.013,83.089,171.006,82.704,173.587z M82.819,153.819c-0.863-1.271-1.703-10.225,0.058-11.929
			c-0.002,1.479,0.325,3.036,0.561,4.339c0.689,3.795,1.654,7.552,2.9,11.199c0.785,2.296,3.925,1.34,3.565-0.983
			c-0.562-3.622-1.251-7.223-1.677-10.865c-0.179-1.52-0.213-3.142-0.572-4.636c2.035,0.182,4.102,0.181,6.156,0.274
			c-0.114,0.122-0.272,0.199-0.345,0.357c-1.356,2.954-0.579,6.617-0.537,9.808c0.044,3.318-0.044,6.65-0.254,9.971
			c-0.084-0.019-0.171-0.021-0.255-0.041C88.123,160.324,85.211,157.346,82.819,153.819z M92.855,183.251
			c-2.387,0.004-4.775,0.064-7.164,0.158c0.342-3.337,0.845-6.639,1.545-9.922c0.407-1.91,1.141-3.86,1.325-5.809
			c2.203,0.811,4.591,1.295,7.058,1.575c-0.319,1.659-0.403,3.461-0.686,4.804C94.284,177.127,93.449,180.17,92.855,183.251z
			 M103.422,173.482c-0.457,3.414-0.605,6.858-0.505,10.298c-1.586-0.136-3.173-0.274-4.741-0.389
			c-0.91-0.066-1.823-0.046-2.734-0.073c1.237-2.674,2.302-5.445,3.199-8.241c0.485-1.51,1.312-3.599,1.49-5.541
			c1.276,0.033,2.555,0.019,3.828-0.007C103.694,170.833,103.594,172.195,103.422,173.482z M97.082,141.579
			c-0.045-0.099-0.152-0.138-0.214-0.223c2.227,0.057,4.451,0.053,6.672,0.034c-0.04,0.057-0.108,0.078-0.144,0.14
			c-1.604,2.816-0.704,6.621-0.582,9.758c0.136,3.477,0.204,6.979,0.726,10.423c0.042,0.275,0.237,0.433,0.394,0.62
			c-2.641-0.003-5.274-0.1-7.874-0.436c0.56-3.002,0.999-6.021,1.253-9.077C97.605,149.305,98.585,144.86,97.082,141.579z
			 M111.178,173.68c-0.432,3.479-0.723,6.932-0.438,10.434c0.009,0.119,0.099,0.16,0.123,0.267
			c-1.961-0.121-3.922-0.267-5.874-0.432c0.346-3.001,0.868-5.979,1.53-8.926c0.403-1.792,1.211-3.727,1.584-5.635
			c1.298-0.062,2.552-0.127,3.786-0.188C111.496,170.663,111.357,172.239,111.178,173.68z M113.277,141.204
			c-0.018,6.968-0.034,13.935-0.052,20.901c-2.181,0.071-4.375,0.149-6.568,0.196c0.145-0.184,0.335-0.328,0.376-0.591
			c0.521-3.443,0.59-6.946,0.725-10.423c0.122-3.136,1.023-6.941-0.582-9.758c-0.056-0.097-0.157-0.135-0.224-0.219
			c2.13-0.065,4.26-0.134,6.365-0.305C113.313,141.08,113.277,141.13,113.277,141.204z M126.367,176.984
			c0.626-2.129,1.216-5.143,0.276-7.342c1.064,0.154,2.086,0.239,3.234,0.491c6.585,0.779,7.685,4.79,3.3,12.03
			c-2.791,1.299-5.73,2.004-8.821,2.115c-0.372,0.04-0.75,0.037-1.123,0.069C124.463,181.971,125.611,179.554,126.367,176.984z
			 M121.5,169.232c-0.759,2.23-0.053,4.979-0.569,7.383c-0.588,2.739-1.492,5.383-2.54,7.975c-1.484,0.014-2.973,0.005-4.465-0.053
			c0.058-0.154,0.188-0.235,0.209-0.423c0.323-2.99,0.917-5.994,1.517-8.939c0.419-2.059,1.103-4.06,1.396-6.12
			c0.342,0.095,0.688,0.187,1.112,0.162C119.345,169.148,120.403,169.218,121.5,169.232z M172.952,102.474
			c-2.844,5.102-6.471,9.526-10.883,13.272c-13.963,13.499-35.393,18.512-54.163,19.379c-32.624,1.509-76.627-12.81-71.287-52.562
			c0.088-0.653-0.094-1.165-0.382-1.59c0.567-1.2,0.398-2.753-0.613-3.545c11.363-11.755,11.957-33.011,7.692-48.407
			c1.105-0.137,2.196-0.325,3.328-0.35c1.916-0.042,2.924-1.354,3.125-2.795c1.183,0.753,2.901,0.522,3.494-1.313
			C58.179,9.529,68.399,4.744,83.922,10.21c8.428,3.82,9.06,14.885,9.42,22.42c0.363,7.6-0.855,15.358-1.603,22.903
			c-1.55,15.627-3.966,31.551,3.516,45.949c9.492,18.268,41.047,20.949,52.478,4.519c1.53-0.348,2.829-1.495,2.691-3.413
			c-0.036-0.501-0.051-0.978-0.079-1.468c0.047-0.127,0.121-0.231,0.167-0.359c0.433-1.222,0.242-2.25-0.288-3.041
			c-0.096-7.064,0.936-13.219,4.481-20.097C176.223,75.094,182.306,83.378,172.952,102.474z"/>
		<path d="M58.961,45.377c-0.035-0.348-0.128-0.666-0.23-0.98c0.032-0.004,0.064-0.009,0.096-0.013
			c-0.237-0.663-0.518-1.25-0.838-1.797c-0.211-0.484-0.399-0.974-0.459-1.501c-0.575-5.029-7.157-4.428-7.322,0.02
			c-0.05-0.007-0.1-0.013-0.15-0.02c0,0.23,0.031,0.448,0.042,0.674c-0.072,0.07,0.011,1.795,0.017,2.186
			c0.007,0.504,0.133,0.927,0.287,1.324c-0.028,0.551-0.029,1.083,0.023,1.537c0.394,3.403,4.636,4.146,6.156,1.967
			C58.016,48.385,59.154,47.276,58.961,45.377z"/>
		<path d="M74.81,16.095c-7.448-3.072-12.056,5.749-13.004,11.566c-0.319,1.957,2.299,3.599,3.498,2.034
			c0.328,0.398,0.749,0.736,1.352,0.891c3.825,0.974,7.488,2.292,11.454,2.66c2.381,0.222,3.528-1.779,3.451-3.731
			C85.216,24.685,79.35,17.968,74.81,16.095z M72.665,22.355c1.677,0.729,2.406,2.13,3.011,3.617c-2.655-0.211-5.284-0.8-7.953-0.93
			C68.98,23.083,70.645,21.479,72.665,22.355z"/>
	</g>
</g>
<g>
</g>
<g>
</g>
<g>
</g>
<g>
</g>
<g>
</g>
<g>
</g>
<g>
</g>
<g>
</g>
<g>
</g>
<g>
</g>
<g>
</g>
<g>
</g>
<g>
</g>
<g>
</g>
<g>
</g>
</svg>
