<?xml version="1.0" encoding="iso-8859-1"?>
<!-- Generator: Adobe Illustrator 16.0.0, SVG Export Plug-In . SVG Version: 6.00 Build 0)  -->
<!DOCTYPE svg PUBLIC "-//W3C//DTD SVG 1.1//EN" "http://www.w3.org/Graphics/SVG/1.1/DTD/svg11.dtd">
<svg version="1.1" id="Capa_1" xmlns="http://www.w3.org/2000/svg" xmlns:xlink="http://www.w3.org/1999/xlink" x="0px" y="0px"
	 width="195.586px" height="195.585px" viewBox="0 0 195.586 195.585" style="enable-background:new 0 0 195.586 195.585;"
	 xml:space="preserve">
<g>
	<g>
		<path d="M193.801,66.083c-7.887-5.007-22.953-12.527-32.415-8.007c-0.646-0.772-1.749-1.18-2.796-0.564
			c-5.823,3.424-11.07,8.217-11.679,15.303c-0.233,2.72,0.819,5.154,2.466,7.205c-1.746,5.326-1.309,10.495,1.104,14.545
			c11.607,49.227-27.215,71.076-70.833,73.128c-23.167,1.09-49.938-2.225-64.702-22.141c-9.244-12.471-12.855-45.41,0.971-56.079
			c12.493,13.083,70.59,32.756,76.092,4.101c3.796-19.77-15.861-34.729-0.474-54.479c18.118-23.255,54.091-10.449,61.931,14.271
			c1.387,4.371,8.295,2.493,6.881-1.896c-8.925-27.726-36.367-37.441-62.364-25.922c-10.291,4.56-19.242,16.251-20.142,27.585
			c-0.496,6.241-0.705,12.961,2.075,18.816c6.595,13.892-6.65,27.909-21.146,27.647c-15.815-0.285-27.939-2.307-40.673-13.514
			c-0.661-0.582-1.387-0.636-1.995-0.407c-0.362-0.166-0.797-0.225-1.309-0.079C-1.894,90.329-1.14,115.098,1.345,128.655
			c4.851,26.469,23.536,41.535,49.962,44.875c51.319,6.488,118.817-11.254,108.59-72c1.006,0.291,2.005,0.595,3.13,0.74
			c13.677,1.766,25.13-8.394,26.537-21.813c0.067-0.65-0.107-1.168-0.367-1.622c2.344-2.243,4.373-4.833,5.917-7.748
			C196.073,69.276,195.536,67.185,193.801,66.083z M159.959,62.205c0.359,0.719,0.887,1.345,1.749,1.549
			c4.47,1.059,9.082,0.674,13.638,1.871c4.042,1.062,7.879,2.764,11.509,4.818c-5.685,7.835-15.163,11.622-24.96,9.294
			c-3.383-0.803-7.136-2.739-8.146-6.308C152.579,69.307,156.872,65.04,159.959,62.205z M165.169,96.073
			c-2.651-0.015-4.923-0.737-6.835-1.883c-0.184-0.718-0.32-1.409-0.524-2.137c-0.588-2.088-2.293-2.822-3.938-2.651
			c-0.991-1.931-1.54-4.13-1.49-6.498c1.287,0.97,2.666,1.788,4.021,2.387c8.336,3.688,17.593,2.854,25.31-1.116
			C178.859,91.158,173.759,96.124,165.169,96.073z"/>
		<path d="M137.979,50.561c-2.743-3.371-7.243-5.402-11.498-5.805c-11.576-1.095-15.979,10.249-13.903,19.89
			c0.92,4.274,7.481,3.214,7.481-1.012c-0.001-2.486-0.05-6.005,1.604-8.095c1.136-1.435,2.745-1.783,4.149-1.575
			c2.284,0.34,4.049,1.479,5.573,3.188c1.738,1.946,1.26,4.607,1.684,6.945c0.874,4.82,7.212,3.685,8.641,0
			C143.479,59.539,140.813,54.044,137.979,50.561z"/>
		<path d="M102.973,110.434c-4.971-2.147-9.315,5.146-4.292,7.342c5.174,2.263,14.188,5.834,14.503,12.588
			c0.215,4.607-5.464,7.881-8.905,9.6c-12.077,6.03-24.454,0.605-26.423-12.85c-0.62-4.235-7.831-3.239-7.466,1.01
			c1.443,16.801-19.39,10.206-19.05-4.206c0.075-3.166-4.381-2.944-4.77,0c-2.496,18.888,19.641,26.388,28.175,16.181
			c6.918,10.196,20.479,12.58,33.659,6.922c6.904-2.965,12.546-9.004,13.145-16.656
			C122.339,120.246,110.635,113.741,102.973,110.434z"/>
	</g>
</g>
<g>
</g>
<g>
</g>
<g>
</g>
<g>
</g>
<g>
</g>
<g>
</g>
<g>
</g>
<g>
</g>
<g>
</g>
<g>
</g>
<g>
</g>
<g>
</g>
<g>
</g>
<g>
</g>
<g>
</g>
</svg>
