<?xml version='1.0' encoding='iso-8859-1'?>
<!DOCTYPE svg PUBLIC '-//W3C//DTD SVG 1.1//EN' 'http://www.w3.org/Graphics/SVG/1.1/DTD/svg11.dtd'>
<svg version="1.1" xmlns="http://www.w3.org/2000/svg" viewBox="0 0 453.499 453.499" xmlns:xlink="http://www.w3.org/1999/xlink" enable-background="new 0 0 453.499 453.499">
  <g>
    <path d="m31.581,344.507c-8.292-2.51-9.122-8.562-8.065-15.788 4.158-28.429 0.531-56.498-3.123-84.726-2.207-17.056-2.547-34.558-1.673-51.756 1.103-21.716 11.82-39.356 28.868-52.639 20.848-16.243 44.977-24.812 71.048-28.006 3.823-0.468 7.81,0.396 13.022,0.726-1.131,8.353-1.729,15.574-3.141,22.633-3.379,16.895-1.466,32.385 7.069,47.96 8.799,16.058 15.243,33.435 22.323,50.4 10.865,26.036 9.813,52.398 1.308,78.82-0.564,1.753-1.222,3.476-1.77,5.235-0.087,0.28 0.181,0.671 0.44,1.517 4.508,2.345 9.68,4.4 14.131,7.493 7.662,5.324 14.414,3.777 21.24-1.299 7.686-5.716 15.49-11.275 23.159-17.014 16.045-12.009 33.442-21.467 52.282-28.334 6.131-2.235 12.083-4.96 19.363-7.977 0.664-3.837 1.513-8.743 2.189-12.654-11.124-4.728-21.667-8.77-31.825-13.621-19.348-9.239-32.672-24.756-43.154-43.003-9.908-17.247-19.916-34.455-26.482-53.353-4.322-12.439-12.607-21.455-23.731-28.109-6.324-3.783-12.694-7.49-18.967-11.356-2.094-1.29-3.948-2.969-6.87-5.203 2.978-3.906 5.172-7.706 8.214-10.623 18.45-17.689 40.003-30.073 64.942-35.92 24.964-5.853 47.803-0.38 67.328,16.024 12.937,10.869 25.564,22.376 36.75,34.996 17.249,19.46 36.045,36.881 57.917,50.888 6.124,3.922 10.595,8.035 6.887,16.188 13.478,7.482 26.391,14.547 39.195,21.806 5.44,3.084 10.686,6.517 15.952,9.898 4.078,2.618 7.088,6.666 4.647,11.07-1.654,2.984-5.863,5.354-9.382,6.281-3.722,0.981-8.038,0.294-11.994-0.315-9.436-1.451-18.814-3.285-28.81-5.071-3.187,10.555-11.344,10.883-20.94,9.084-4.608,13.075-14.923,11.582-25.712,9.019-7.557,19.195-25.202,18.007-41.33,20.612 0,3.124 0,5.911 0,9.112 1.63,0 3.09,0.336 4.324-0.05 19.388-6.066 38.122-13.724 55.697-23.963 5.376-3.132 10.971-4.01 16.936-3.713 7.203,0.359 12.765,4.429 14.617,11.312 4.298,15.97 2.301,30.098-10.023,42.742-17.077,17.521-37.345,28.453-60.982,33.58-17.484,3.793-33.731,10.493-48.724,20.202-18.552,12.013-36.948,24.272-55.594,36.136-6.187,3.936-12.753,7.408-19.469,10.356-22.765,9.995-42.009,24.514-56.922,44.374-7.132,9.497-15.625,16.303-27.755,14.818-14.492-1.774-27.976-6.462-37.035-19.345-3.674-5.225-3.608-9.983-0.263-15.232 5.712-8.962 14.003-15.031 22.626-20.765 11.04-7.342 22.344-14.315 33.082-22.074 6.171-4.459 11.446-10.159 18.074-16.159-8.162-3.231-14.86-5.883-21.966-8.696-7.879,4.642-16.34,7.972-26.141,4.088-5.659,8.223-9.481,19.233-22.934,13.893-5.753,6.521-9.768,16.412-21.107,10.145-5.097,9.013-9.621,17.436-14.581,25.595-2.269,3.732-5.1,7.242-8.218,10.301-2.941,2.887-7.143,5.372-10.869,2.366-2.469-1.992-4.236-5.906-4.625-9.162-0.511-4.279 0.352-8.809 1.129-13.14 2.988-16.669 6.179-33.3 9.418-50.604zm198.97,17.433c11.006-6.631 22.247-12.905 32.965-19.971 18.7-12.329 38.915-20.541 60.771-25.415 18.932-4.221 35.973-12.915 51.076-25.186 11.356-9.227 16.004-20.849 12.157-35.327-1.995-7.508-7.378-10.776-15.01-8.814-2.806,0.721-5.495,2.124-8.052,3.548-15.793,8.794-31.814,17.02-49.306,22.053-4.49,1.292-8.74,3.418-13.362,5.266 0.443,11.552-2.861,23.191 8.949,33.632-5.602,0.946-8.902,1.586-12.228,2.028-1.602,0.213-4.23-0.581-4.719,0.171-2.664,4.093-6.562,4.113-9.609,2.065-3.159-2.123-5.87-5.525-7.608-8.959-1.468-2.9-1.264-6.646-1.801-10.017-2.179,3.801-3.129,7.646-3.153,11.496-0.024,3.749 3.632,7.477 0.182,11.309-13.036-2.803-14.84-7.172-11.307-26.968-14.128,3.567-48.539,25.117-59.043,36.619 2.834,6.292 5.837,12.044 7.884,18.117 0.541,1.605-1.406,5.379-3.046,6.021-1.7,0.665-5.094-0.636-6.534-2.197-2.439-2.641-3.711-6.318-5.861-9.278-3.114-4.288-6.502-4.27-8.354-1.704 3.559,4.644 7.128,8.83 10.129,13.391 1.814,2.756 3.301,6.716-0.704,8.546-1.842,0.842-5.481-0.595-7.439-2.115-2.07-1.607-3.109-4.541-4.598-6.896-0.91,0.765-1.821,1.529-2.731,2.294 2.216,3.999 4.782,7.853 6.529,12.047 1.228,2.948 2.238,6.852-1.655,8.777-3.791,1.875-6.078-0.776-7.919-3.866-2.944-4.942-6.014-9.809-9.676-15.755-5.927,5.3-10.489,10.058-15.713,13.922-14.791,10.939-29.787,21.605-44.832,32.195-9.311,6.553-19.265,12.375-23.494,23.673 7.77,13.818 22.703,19.431 39.723,15.281 0-12.219 0-24.407 0-36.595 0.65-0.044 1.301-0.088 1.951-0.132 0.851,10.494 1.702,20.989 2.617,32.267 7.614-5.318 10.116-11.196 9.796-18.822-0.256-6.08 0.541-12.205 0.87-18.31 0.588,0.049 1.176,0.098 1.764,0.148 0.354,6.454 0.709,12.909 1.113,20.267 5.504-2.522 8.486-5.281 8.172-11.04-0.349-6.419-0.08-12.871-0.08-19.309 0.646-0.045 1.293-0.091 1.939-0.136 0.715,5.968 1.43,11.937 2.168,18.094 5.997-0.922 7.505-4.345 7.481-9.385-0.024-5.049-1.072-10.346 2.796-15.018 0.442,5.269 0.884,10.538 1.409,16.806 5.273-3.091 9.547-5.875 14.062-8.187 9.504-4.866 19.09-9.577 28.729-14.171 5.546-2.643 8.531-6.214 7.79-12.913-0.403-3.644 1.142-7.504 1.809-11.266 0.534,0.11 1.068,0.221 1.602,0.331-0.351,4.896-0.701,9.792-1.24,17.315 5.618-4.458 9.243-7.334 12.868-10.211l-.227,.284zm71.321-115.436c5.501-0.31 11.044-0.301 16.494-1.008 7.594-0.985 14.357-3.354 16.609-12.093 1.258-4.883 5.283-5.761 9.668-5.128 4.286,0.619 8.533,1.512 12.868,2.298 0.987-10.901 1.294-11.038 10.929-9.584 3.99,0.602 8.079,0.547 12.123,0.791-1.58-3.62-3.438-5.253-5.504-6.552-2.624-1.65-5.652-3.7-3.608-6.758 1.07-1.601 5.065-2.266 7.441-1.807 13.358,2.582 26.611,5.699 39.933,8.477 3.013,0.628 6.156,0.632 9.239,0.923 0.253-0.72 0.507-1.44 0.76-2.16-17.469-10.333-34.938-20.666-52.601-31.113-9.63,10.389-21.289,13.529-33.826,11.64-28.633-4.315-53.544-15.816-71.238-39.907-2.376-3.235-4.664-6.535-6.992-9.805 2.548-0.037 3.598,0.951 4.684,1.897 18.22,15.872 38.008,29.073 61.541,35.781 8.909,2.539 17.92,4.192 27.236,2.108 7.579-1.696 13.134-5.591 16.294-13.69-27.373-13.233-47.745-33.773-66.369-56.407-7.25-8.812-14.844-17.363-22.634-25.704-23.291-24.938-51.179-32.064-83.418-20.525-17.694,6.333-33.847,15.409-48.232,28.447 14.498,5.68 24.814,1.752 27.082-9.934 5.084,1.937 7.903,5.024 6.925,10.782-9.084,3.5-17.967,6.923-27.399,10.557 1.442,0.945 2.853,2.006 4.384,2.851 19.146,10.577 32.899,25.499 39.657,46.787 2.303,7.255 6.796,13.824 10.427,20.632 0.354,0.664 1.691,0.803 2.643,1.216 0.72-3.262 1.37-6.205 2.554-11.562 1.944,12.617-1.903,24.294 8.843,32.018 1.809-9.143 3.554-17.96 5.299-26.776 0.951,9.827 0.155,19.345-0.628,28.863-0.447,5.437 0.548,10.205 6.254,13.173 1.992-10.544 3.934-20.827 5.877-31.109 1.487,5.035 1.727,9.814 1.426,14.559-0.372,5.869-1.345,11.698-1.771,17.566-0.374,5.151 0.997,9.321 7.525,10.25 1.63-11.116 1.552-22.13 6.483-32.101 0.09,10.001-0.743,19.873-1.28,29.762-0.494,9.086-0.353,9.094 9.966,12.2 1.214-8.119 2.43-16.252 3.646-24.384 1.732,6.247 1.832,12.308 1.709,18.364-0.214,10.579 4.483,16.346 15.147,17.165 4.648,0.357 9.412-0.801 14.124-1.27l-.29,.27zm-185.685-128.712c-21.356,3.728-40.77,10.935-58.243,22.854-21.557,14.705-33.987,35.004-32.385,61.514 1.128,18.666 4.366,37.246 7.403,55.743 2.937,17.891 4.842,35.769 3.17,53.864-0.731,7.914-2.088,15.77-3.203,23.971 13.063,3.216 21.277-3.134 27.857-12.154 10.452-14.328 15.553-30.85 17.624-48.244 1.567-13.164 2.289-26.429 3.562-41.767 11.352,34.65 6.079,65.025-12.164,93.466-5.7,8.886-13.456,15.626-24.702,16.778-3.863,0.396-5.883,2.447-6.217,6.406-0.278,3.296-0.928,6.562-1.435,9.838-2.35,15.168-4.707,30.336-7.062,45.504 3.79-1.999 6.061-4.721 7.674-7.788 6.333-12.038 12.351-24.242 18.768-36.233 1.035-1.934 3.517-4.374 5.312-4.359 3.911,0.032 3.794,3.508 3.609,6.609-0.174,2.93-0.037,5.878-0.037,8.818 4.251-2.595 6.159-5.644 8.274-8.542 1.89-2.591 3.6-6.326 6.148-7.12 2.226-0.694 5.509,2.007 7.956,3.05 4.961-6.187 9.843-12.276 15.641-19.508 0-7.512 0-17.017 0-26.523 2.015,8.905 2.668,17.948 3.712,26.947 0.722,6.229 1.338,6.375 8.996,3.819 0-9.254 0-18.684 0-28.114 0.426-0.034 0.851-0.068 1.277-0.102 0.922,8.549 1.843,17.099 2.786,25.846 7.112-2.117 7.788-6.433 7.241-11.709-0.492-4.754-0.484-9.565-0.582-14.353-0.088-4.306-0.018-8.615-0.018-12.923 0.683,0.034 1.366,0.068 2.048,0.102 1.047,9.204 2.093,18.407 3.282,28.86 9.593-8.187 16.605-15.778 17.807-27.343 0.53-5.1 2.338-10.061 2.955-15.159 1.554-12.822 2.261-25.625-1.556-38.296-6.373-21.158-12.834-42.337-24.059-61.504-9.279-15.844-10.969-32.502-8.152-50.113 0.511-3.193 0.769-6.427 1.11-9.351-8.916,4.934-17.573,9.726-27.816,15.394-1.116-5.26-1.915-9.031-2.991-14.102 12.337,6.313 21.517,0.991 26.41-14.076zm56.239,222.674c-7.782-4.29-14.68-8.093-21.785-12.011-4.106,5.205-7.63,9.671-11.353,14.39 11.444,7.005 21.745,5.873 33.138-2.379zm118.007-32.035c0-7.202 0-12.466 0-17.73-4.171,5.317-4.89,10.588 0,17.73z"/>
    <path d="m104.783,67.908c0-3.796-0.259-7.405 0.052-10.963 0.724-8.277 7.859-14.122 16.799-14.051 6.502,0.052 11.387,5.093 12.343,13.132 0.388,3.265 0.428,6.622 0.18,9.903-0.677,8.953 2.085,20.052-7.083,25.285-13.023,7.433-27.305,13.082-43.005,8.064-6.561-2.097-10.132-7.105-9.944-12.928 0.262-8.136 6.295-16.039 14.224-17.505 4.947-0.915 10.116-0.625 16.434-0.937z"/>
    <path d="m64.125,33.954c0.475-2.728 0.723-5.646 1.516-8.406 1.914-6.657 9.066-12.035 15.708-11.905 4.298,0.084 6.785,2.78 7.744,6.64 0.702,2.827 0.527,5.86 0.989,8.761 1.152,7.229 4.428,15.668-1.45,21.097-7.85,7.25-18.22,11.112-29.181,11.648-6.664,0.326-11.443-3.368-12.703-8.518-1.248-5.098 2.27-12.695 7.844-15.822 2.792-1.566 6.072-2.262 9.533-3.495z"/>
    <path d="m25.883,31.739c-0.991-0.095-3.968-0.133-6.833-0.719-3.774-0.772-7.767-2.66-7.466-6.825 0.231-3.196 2.711-6.41 4.747-9.212 0.939-1.292 3.149-1.815 4.887-2.337 3.202-0.962 5.897-1.689 6.968-5.848 1.377-5.341 5.974-6.938 11.294-6.789 5.539,0.156 7.332,3.882 8.866,8.314 5.522,15.953-1.694,24.27-22.463,23.416z"/>
    <path d="m86.764,165.427c-11.356-1.053-11.276-1.018-15.552,8.789-0.606,1.391-2.825,3.399-3.601,3.127-1.776-0.621-3.896-2.197-4.499-3.878-1.963-5.472 2.659-14.195 8.73-17.429 5.241-2.793 14.805-1.712 18.405,2.454 0.921,1.066 1.389,3.839 0.687,4.692-1.161,1.409-3.443,1.894-4.17,2.245z"/>
    <path d="m139.67,317.276c-4.563-7.191-2.691-14.778-2.98-23.972 5.499,8.689 1.89,16.734 2.98,23.972z"/>
    <path d="m228.284,99.139c-2.187-1.101-4.025-2.243-6.013-2.985-6.073-2.267-8.313-1.456-11.784,4.062-0.97,1.542-1.465,3.611-2.797,4.629-1.205,0.921-3.374,1.231-4.888,0.863-0.95-0.231-1.949-2.151-2.108-3.416-0.658-5.237 4.173-12.894 9.263-15.133 6.456-2.841 15.651-1.308 19.442,3.33 2.071,2.533 2.735,5.162-1.115,8.65z"/>
    <path d="m291.411,214.38c-0.815,5.005-1.818,9.988-2.391,15.02-0.536,4.707-0.617,9.466-0.907,14.364-5.777-5.09-4.986-16.196 3.298-29.384z"/>
    <path d="m302.159,246.232c-8.414-7.501-1.206-14.275 1.551-21.243-0.61,7.165-1.22,14.329-1.834,21.504-0.004,0.011 0.283-0.261 0.283-0.261z"/>
    <path d="m230.776,361.657c-3.908-7.111-1.129-13.574 2.965-19.87-1.049,6.699-2.098,13.399-3.169,20.126-0.021,0.027 0.204-0.256 0.204-0.256z"/>
    <path d="m110.403,435.144c0-3.896 0-7.793 0-11.689 0.19-0.003 0.38-0.006 0.57-0.009 0,3.896 0,7.791 0,11.686-0.19,0.004-0.38,0.008-0.57,0.012z"/>
  </g>
</svg>
