<?xml version="1.0" encoding="iso-8859-1"?>
<!-- Generator: Adobe Illustrator 16.0.0, SVG Export Plug-In . SVG Version: 6.00 Build 0)  -->
<!DOCTYPE svg PUBLIC "-//W3C//DTD SVG 1.1//EN" "http://www.w3.org/Graphics/SVG/1.1/DTD/svg11.dtd">
<svg version="1.1" id="Capa_1" xmlns="http://www.w3.org/2000/svg" xmlns:xlink="http://www.w3.org/1999/xlink" x="0px" y="0px"
	 width="194.064px" height="194.065px" viewBox="0 0 194.064 194.065" style="enable-background:new 0 0 194.064 194.065;"
	 xml:space="preserve">
<g>
	<path d="M189.938,25.723c-10.984-14.233-36.273-16.76-52.501-18.954c-24.88-3.364-50.237-2.207-74.64,3.726
		C-9.594,28.097-6.109,119.742,8.511,177.528c0.25,0.986,0.979,1.556,1.818,1.818c0.075,0.258,0.084,0.507,0.218,0.771
		c9.264,18.327,34.927,5.033,43.493-6.812c7.14-9.874,3.445-29.124,3.046-40.12c-0.686-18.905-2.811-40.817,10.296-56.238
		c23.221-27.32,73.602,1.939,103.013-11.826C184.471,58.53,202.233,41.656,189.938,25.723z M41.706,45.068
		c0.647-5.544,3.193-11.768,3.659-17.417c0.929-0.577,1.847-1.162,2.822-1.704c0.12,2.162,0.534,4.43,1.007,6.57
		c-0.595,4.895-0.472,9.956-0.864,14.861c-0.603,7.542-1.35,15.105-1.065,22.679c0.006,0.153,0.059,0.268,0.091,0.401
		c-2.639-0.461-5.267-1.081-7.824-1.85C40.455,60.782,40.792,52.898,41.706,45.068z M28.688,63.64
		c1.129-5.833,1.6-11.777,2.47-17.651c0.429-2.896,1.204-5.732,1.897-8.576c1.694-1.709,3.524-3.318,5.435-4.869
		c-0.474,2.834-0.613,5.763-0.873,8.008c-1.035,8.929-1.531,18.265-0.652,27.243c-1.209-0.394-2.405-0.796-3.572-1.199
		c-1.426-0.493-3.49-1.228-5.676-2.136C28.166,64.397,28.583,64.182,28.688,63.64z M26.943,44.464
		c-0.744,6.554-0.523,13.504-0.74,18.84c-0.01,0.253,0.119,0.426,0.233,0.606c-3.036-1.337-6.116-2.979-7.931-4.801
		C20.787,53.883,23.581,48.978,26.943,44.464z M9.188,123.301c0.184,0.095,0.397,0.221,0.543,0.273
		c1.825,0.668,3.636,1.188,5.482,1.656c-0.278,0.245-0.512,0.553-0.613,0.992c-2.096,9.112-1.131,19.418,0.672,28.562
		c-1.249-0.158-2.496-0.317-3.792-0.475C10.415,144.28,9.528,133.806,9.188,123.301z M48.582,164.377
		c-5.404,14.624-15.806,18.54-31.207,11.748c-0.881-1.558-2.255-2.048-3.575-1.894c-0.562-4.607-1.144-9.404-1.702-14.322
		c11.976,4.393,25.893,5.52,36.871-0.944C48.839,160.769,48.71,162.573,48.582,164.377z M18.667,125.993
		c1.467,0.269,2.958,0.385,4.446,0.517c-0.437,2.397-0.177,5.203-0.21,7.037c-0.128,7.2,0.081,14.424,0.491,21.612
		c0.013,0.232,0.153,0.352,0.24,0.522c-1.857-0.149-3.736-0.335-5.674-0.571c-0.589-9.624,0.492-18.758,0.838-28.318
		C18.811,126.495,18.761,126.229,18.667,125.993z M25.824,155.842c0.137-0.2,0.297-0.381,0.314-0.685
		c0.539-9.418,0.506-19.023,1.418-28.42c1.168,0.017,2.339,0.072,3.5,0.037c0.624-0.019,1.3-0.043,2.01-0.076
		c0.016,9.706,0.214,19.374-0.632,29.072C30.256,155.943,28.062,155.958,25.824,155.842z M36.192,155.269
		c1.239-9.593,1.801-19.305,1.86-28.983c3.716-0.457,7.597-1.352,10.345-3.225c0.078,3.367,0.187,6.739,0.329,10.123
		c0.234,5.537,0.396,11.076,0.588,16.614C44.831,152.844,40.521,154.471,36.192,155.269z M49.023,99.912
		c-0.517,5.379-0.704,10.734-0.715,16.092c-2.198-0.182-3.764,0.511-6.254,1.363c-5.196,1.78-10.725,2.204-16.173,2.332
		c-4.945,0.117-9.768-0.763-14.534-1.987c-0.83-0.213-1.575-0.481-2.29-0.738c-0.184-18.876,1.723-37.555,7.826-53.713
		c6.363,10.374,25.452,15.883,38.326,15.594C51.656,85.392,49.689,92.992,49.023,99.912z M61.091,70.821
		c-0.64-0.173-1.329-0.226-2.08-0.093c-2.748,0.486-5.558,0.45-8.37,0.175c0.135-0.239,0.235-0.511,0.257-0.845
		c0.427-6.722,1.096-13.4,1.848-20.093c0.082-0.732,0.196-1.489,0.296-2.233c2.216,7.717,5.673,16.707,11.299,20.253
		C63.194,68.859,62.104,69.797,61.091,70.821z M70.791,64.158c-2.428-5.873-6.952-10.994-9.424-17.09
		C58.573,40.177,55.538,32.427,54.759,25c-0.073-0.702-0.205-1.422-0.375-2.125c1.594-0.7,3.158-1.423,4.859-2.039
		c15.545-5.633,34.849-8.344,54.313-8.085c-6.648,3.891-10.076,13.065-12.133,20.032c-2.406,8.158-2,17.187,1.209,25.037
		C91.606,57.736,80.88,59.108,70.791,64.158z M123.578,59.174c-0.816-0.084-1.662-0.176-2.441-0.249
		c-3.909-0.365-7.799-0.678-11.664-0.887c-2.28-7.821-2.725-15.089-0.616-23.206c1.047-4.029,3.187-7.169,5.38-10.254
		c-1.966,10.715-1.527,22.706,0.529,32.484c0.441,2.101,4.068,1.646,3.779-0.511c-1.953-14.567,2.314-27.595,3.021-41.875
		c0.039-0.778-0.252-1.316-0.684-1.669c2.154,0.113,4.297,0.297,6.438,0.484c-0.064,0.089-0.164,0.097-0.219,0.206
		c-2.826,5.668-2.285,12.979-2.502,19.177C124.291,41.639,124.324,50.431,123.578,59.174z M128.949,38.794
		c0.428-7.814,2.353-16.39,1.77-24.119c-0.026-0.347-0.203-0.633-0.385-0.91c2.737,0.285,5.422,0.712,8.112,1.116
		c-2.259,6.062-1.788,13.193-2.085,19.564c-0.404,8.677-0.988,17.285-2.794,25.76c-2.394-0.228-4.739-0.482-6.979-0.723
		C127.896,52.648,128.568,45.765,128.949,38.794z M141.504,60.811c-1.451-0.075-2.867-0.21-4.299-0.323
		c1.945-6.417,2.932-13.057,3.651-19.749c0.86-7.997,2.797-17.071,2.362-25.121c3.51,0.632,6.98,1.338,10.349,2.192
		c-3.135,0.896-6.198,5.047-7.506,7.543C140.623,35.735,140.014,49.377,141.504,60.811z M171.559,54.976
		c-6.229,4.419-14.508,5.835-23.089,5.97c0.003-0.121,0.056-0.216,0.045-0.343c-0.666-7.373-0.06-14.412,1.55-21.639
		c0.732-3.29,1.723-6.365,3.165-9.421c0.295-0.625,3.658-5.218,2.565-5.103c2.07-0.219,4.01-2.455,2.6-4.529
		c-0.284-0.417-0.578-0.76-0.878-1.055c6.55,1.869,12.754,4.149,18.383,6.895C192.166,33.685,182.258,47.384,171.559,54.976z"/>
</g>
<g>
</g>
<g>
</g>
<g>
</g>
<g>
</g>
<g>
</g>
<g>
</g>
<g>
</g>
<g>
</g>
<g>
</g>
<g>
</g>
<g>
</g>
<g>
</g>
<g>
</g>
<g>
</g>
<g>
</g>
</svg>
