<?xml version='1.0' encoding='iso-8859-1'?>
<!DOCTYPE svg PUBLIC '-//W3C//DTD SVG 1.1//EN' 'http://www.w3.org/Graphics/SVG/1.1/DTD/svg11.dtd'>
<svg version="1.1" xmlns="http://www.w3.org/2000/svg" viewBox="0 0 430.644 430.644" xmlns:xlink="http://www.w3.org/1999/xlink" enable-background="new 0 0 430.644 430.644">
  <g>
    <path d="m252.668,353.426c-2.397,5.663-4.386,10.723-6.671,15.646-1.774,3.823-2.377,9.324-8.291,8.838-4.822-0.396-5.84-4.744-7.321-8.642-3.889-10.234-8.14-20.331-13.127-32.657-1.572,5.084-2.842,8.637-3.764,12.278-2.438,9.633-4.653,19.322-7.118,28.947-0.726,2.835-1.685,5.694-3.063,8.26-3.419,6.368-9.02,6.688-12.818,0.598-1.713-2.747-2.54-6.092-3.517-9.244-2.038-6.578-3.909-13.209-6.156-20.866-2.791,2.068-4.69,3.618-6.729,4.956-4.611,3.026-9.226,6.055-13.963,8.875-3.342,1.989-7.511,3.191-9.98-0.358-1.544-2.22-1.25-6.085-0.925-9.12 0.263-2.463 1.807-4.786 2.772-7.176 15.71-38.921 31.424-77.84 47.095-116.777 0.37-0.92 0.249-2.038 0.585-5.228-2.483,3.437-3.848,5.229-5.112,7.091-13.222,19.484-24.221,40.539-41,57.505-14.762,14.926-31.304,27.168-52.106,31.827-23.819,5.335-45.469,0.204-63.217-17.047-9.808-9.533-12.752-21.982-11.809-35.477 1.621-23.203 11.781-43.087 23.937-62.212 1.768-2.782 3.712-5.453 6.106-8.952-5.25-3.161-10.202-6.112-15.124-9.113-20.438-12.46-34.858-29.591-39.292-53.54-3.249-17.551-2.736-35.364 2.094-52.596 7.857-28.027 33.297-48.042 62.65-49.513 36.165-1.813 65.995,11.915 90.477,38.124 18.437,19.737 31.774,42.325 38.785,68.54 1.036,3.873 2.753,7.564 4.302,11.735 14.033-4.087 27.911-5.239 42.663-0.12 1.144-3.297 2.318-6.608 3.444-9.935 10.484-30.987 26.648-58.263 52.46-79.008 27.118-21.795 57.782-30.729 92.056-22.532 31.764,7.597 47.905,40.865 35.431,71.168-7.191,17.468-18.927,31.473-33.369,43.338-8.812,7.239-17.809,14.254-27.32,21.848 6.408,6.1 12.778,11.961 18.919,18.053 10.569,10.487 18.713,22.752 25.404,35.976 10.748,21.241 8.994,40.91-6.681,59.495-13.159,15.602-28.468,26.588-49.505,27.611-3.629,0.176-7.349,0.095-10.925-0.492-30.517-5.006-56.677-17.94-76.137-42.66-7.198-9.143-14.077-18.537-21.102-27.817-0.76,0.321-1.52,0.642-2.28,0.963 1.799,7.674 2.894,15.6 5.525,22.978 9.025,25.299 18.627,50.392 27.91,75.6 1.557,4.228 5.722,8.996 0.323,12.942-5.392,3.94-8.552-1.353-12.144-4.229-2.285-1.83-4.633-3.598-7.069-5.219-1.445-0.96-3.113-1.581-5.303-2.662zm-212.997-237.305c0.446,0.264 0.892,0.529 1.337,0.793-1.042,2.16-1.917,4.42-3.156,6.46-4.207,6.928-8.607,13.74-12.814,20.668-6.148,10.125-6.045,10.559 3.199,19.586 3.613-5.598 7.176-11.104 10.724-16.618 3.329-5.173 6.63-10.366 10.784-14.815 0.586,0.458 1.173,0.916 1.759,1.374-6.759,11.725-13.517,23.451-20.672,35.865 3.485,3.177 6.572,5.99 9.928,9.049 6.597-11.352 12.556-21.606 18.515-31.86 0.743,0.386 1.486,0.772 2.229,1.159-5.279,11.087-10.559,22.175-16.228,34.082 7.929,4.402 15.227,8.492 22.562,12.514 9.319,5.108 10.213,8.498 3.271,15.86-11.056,11.726-18.542,25.597-24.934,40.155-1.562,3.557-2.476,7.398-3.688,11.108 0.618,0.303 1.236,0.605 1.853,0.908 7.021-9.981 14.042-19.962 21.063-29.943 0.635,0.381 1.269,0.762 1.904,1.143-1.483,2.707-2.808,5.516-4.476,8.105-6.584,10.224-13.167,20.453-19.966,30.535-4.409,6.538-5.34,12.918-0.424,20.286 5.078-8.347 9.594-16.329 14.661-23.944 5.13-7.709 10.805-15.055 16.241-22.56 0.573,0.411 1.146,0.823 1.72,1.234-10.156,17.708-20.311,35.416-30.682,53.499 3.372,3.061 5.642,5.121 8.432,7.654 5.883-14.737 11.831-28.069 21.186-39.71-5.817,13.789-11.634,27.577-17.821,42.244 4.724,1.98 8.585,3.597 12.768,5.35 3.341-6.716 6.185-12.66 9.234-18.499 3-5.745 6.206-11.383 9.321-17.068 0.731,0.403 1.462,0.806 2.193,1.209-5.22,11.489-10.441,22.978-16.393,36.078 7.732,0.402 13.386,0.696 19.107,0.994 2.926-14.722 9.198-26.745 16.098-38.551-0.815,12.662-10.563,22.857-10.373,36.592 2.968-0.76 4.753-1.124 6.48-1.674 16.451-5.239 29.68-16.106 40.162-28.661 15.963-19.12 29.326-40.41 43.8-60.787-10.698-13.141-9.437-26.347-4.837-39.783 1.427-4.167 2.987-8.355 5.086-12.206 2.278-4.178 2.419-7.907 1.099-12.564-8.609-30.352-22.858-57.188-45.702-79.483-15.322-14.953-33.55-23.756-53.802-28.881-16.833-4.26-32.91-1.046-47.965,7.234-19.629,10.795-31.352,36.581-26.264,58.538 8.478-10.234 16.644-20.091 24.81-29.948 0.568,0.458 1.136,0.916 1.704,1.374-1.546,2.316-2.965,4.731-4.661,6.93-5.626,7.295-11.018,14.81-17.126,21.683-7.22,8.124-7.983,16.508-2.784,26.826 7.455-10.225 14.496-19.88 21.538-29.534zm237.948,106.795c0.589,0.459 1.178,0.919 1.766,1.378-5.536,9.422-11.071,18.844-16.823,28.633 3.301,4.206 6.325,8.059 9.997,12.737 3.008-5.45 5.218-9.632 7.598-13.714 2.225-3.816 4.514-7.607 6.992-11.261 2.446-3.606 4.432-7.714 9.564-9.113-7.085,12.728-14.17,25.457-21.33,38.319 3.213,3.992 5.89,7.317 8.839,10.98 3.38-6.525 5.969-12.104 9.084-17.372 3.056-5.169 6.645-10.022 10-15.014 0.654,0.405 1.309,0.811 1.963,1.217-5.852,11.247-11.705,22.494-17.742,34.097 2.56,2.331 4.409,4.793 6.869,6.121 11.297,6.098 22.311,13.112 34.266,17.521 25.731,9.489 44.952,2.94 62.723-18.055 13.118-15.499 14.963-31.932 4.937-48.845-7.452-12.572-16.525-24.3-25.846-35.605-5.793-7.027-13.001-12.994-23.388-13.058-2.018-0.012-4.968-3.16-5.702-5.437-0.527-1.635 1.782-4.32 3.112-6.349 0.541-0.826 1.908-1.065 2.782-1.726 13.795-10.426 27.905-20.47 41.254-31.44 12.758-10.484 21.794-23.971 26.688-39.845 6.445-20.908-6.525-44.284-27.64-49.118-19.116-4.377-37.924-2.994-55.958,5.555-20.844,9.882-38.071,24.277-50.104,43.725-11.358,18.355-20.76,37.921-30.542,56.062 18.016,24.916 17.172,47.789-1.202,69.98 3.486,5.328 6.586,10.064 10.198,15.585 6.522-9.595 12.083-17.776 17.645-25.958zm-62.104,6.211c12.84,3.244 22.228-1.99 29.114-9.303 11.205-11.897 11.545-25.727 5.206-40.144-3.825-8.7-10.814-15.708-21.919-15.972-2.432-0.058-4.941-1.301-7.221-2.401-5.279-2.545-9.876-1.249-14.544,1.687-12.595,7.922-18.657,27.318-13.867,45.239 1.504-1.137 2.955-2.234 5.134-3.881-3.961,9.865-3.961,9.865 1.476,13.007 5.39-7.014 10.76-14.004 16.131-20.994 0.524,0.39 1.048,0.78 1.572,1.17-4.921,7.931-9.842,15.863-15.119,24.368 3.978,2.011 6.798,3.437 9.825,4.967 3.295-4.622 6.179-8.668 9.063-12.714 0.477,0.238 0.954,0.476 1.431,0.715-1.97,4.473-3.942,8.946-6.282,14.256zm-6.891,9.165c-14.773,39.106-29.126,77.1-44.073,116.666 3.143-2.099 4.899-3.231 6.61-4.426 1.81-1.264 3.497-2.722 5.378-3.865 8.186-4.97 11.84-3.507 14.421,5.668 1.562,5.553 3.124,11.105 5.233,18.6 13.103-43.69 25.018-85.217 27.877-128.979-5.43-1.288-10.72-2.543-15.446-3.664zm26.01,16.009c-1.037,1.731-1.333,2.019-1.39,2.348-3.683,21.324-7.384,42.646-10.937,63.992-0.271,1.63-0.091,4.01 0.908,5.068 6.196,6.558 6.581,15.401 9.629,23.18 1.531,3.908 3.316,7.717 5.345,12.4 1.447-2.191 2.156-3.05 2.624-4.025 0.633-1.318 1.129-2.709 1.599-4.097 4.723-13.927 4.713-13.921 17.757-6.406 0.261,0.15 0.982-0.498 1.734-0.908-10.545-29.645-21.91-59.099-27.269-91.552z"/>
    <path d="m57.359,185.426c2.353-11.756 10.246-19.838 17.412-28.405-4.134,10.533-9.823,20.134-17.412,28.405z"/>
    <path d="m124.618,283.537c-3.593,7.913-7.186,15.826-10.778,23.739-1.371-10.208 4.292-17.253 8.86-24.784 0.639,0.348 1.278,0.697 1.918,1.045z"/>
    <path d="m84.282,170.375c-2.99,5.415-5.979,10.83-8.969,16.244-0.722-0.381-1.443-0.761-2.165-1.142 2.832-5.533 5.664-11.066 8.496-16.599 0.88,0.499 1.759,0.998 2.638,1.497z"/>
    <path d="m301.348,289.529c3.088-11.74 10.363-21.313 17.97-30.872-0.35,1.295-0.489,2.698-1.085,3.868-4.761,9.356-9.609,18.668-14.43,27.993-0.818-0.33-1.636-0.659-2.455-0.989z"/>
    <path d="m319.193,295.489c1.038-10.793 7.779-18.696 14.585-28.007-1.298,8.681-6.019,18.122-14.585,28.007z"/>
    <path d="m331.774,300.684c-1.429-7.017 3.577-10.176 8.365-13.461-2.788,4.487-5.577,8.974-8.365,13.461z"/>
    <path d="m349.064,300.521c-1.226,1.384-2.453,2.768-3.679,4.152-0.384-0.331-0.767-0.661-1.151-0.992 1.246-1.501 2.491-3.002 3.737-4.504 0.365,0.448 0.729,0.896 1.093,1.344z"/>
  </g>
</svg>
