<?xml version='1.0' encoding='iso-8859-1'?>
<!DOCTYPE svg PUBLIC '-//W3C//DTD SVG 1.1//EN' 'http://www.w3.org/Graphics/SVG/1.1/DTD/svg11.dtd'>
<svg version="1.1" xmlns="http://www.w3.org/2000/svg" viewBox="0 0 426.48 426.48" xmlns:xlink="http://www.w3.org/1999/xlink" enable-background="new 0 0 426.48 426.48">
  <g>
    <path d="m361.085,131.202c-3.597,2.999-6.597,5.5-10.018,8.353 2.691,3.823 5.124,7.315 7.593,10.78 8.697,12.205 14.61,25.693 18.581,40.092 2.357,8.546 2.393,8.536-2.881,17.782 10.829,20.407 11.498,42.978 12.301,65.916 1.076,30.773-2.138,60.512-13.319,89.294-5.596,14.406-13.071,27.408-25.864,36.684-14.324,10.386-30.242,11.636-46.22,5.846-5.044-1.828-9.64-7.761-12.155-12.928-2.743-5.634-6.155-8.457-11.932-9.334-2.133-0.323-4.224-0.926-6.337-1.39-27.84-6.116-55.781-11.814-83.491-18.472-22.929-5.51-46.147-8.536-69.539-10.776-4.604-0.441-8.454,0.561-11.995,3.609-13.39,11.523-30.261,18.391-42.281,31.848-3.148,3.524-7.793,1.895-9.016-2.709-0.633-2.385-0.526-5.03-0.409-7.541 0.625-13.341 1.36-26.676 1.962-38.203-4.582-6.058-8.343-11.029-13.615-17.999-13.464-4.149-29.544-9.198-42.45-20.3 1.871-7.214 7.306-10.003 12.048-13.008 11.289-7.154 22.844-13.903 34.441-20.553 4.868-2.791 6.862-6.575 7.632-12.126 3.567-25.721 7.29-51.428 11.544-77.043 4.967-29.907 10.501-59.72 15.905-89.552 0.652-3.597 0.176-6.555-2.964-8.528-10.863-6.828-12.333-17.981-13.714-29.229-1.205-9.805 2.682-17.249 11.356-21.387 7.444-3.552 15.288-6.697 23.296-8.561 35.358-8.232 70.241-4.948 104.898,4.877 24.01,6.807 45.739,17.671 65.199,33.256 1.699,1.36 4.444,2.425 6.502,2.147 7.91-1.07 13.969,2.228 19.838,6.873 17.054,13.495 29.699,30.394 39.411,50.843 4.496-3.388 8.735-6.581 13.934-10.498-14.065-7.456-19.015-19.698-20.973-33.697-1.203-8.601 1.254-13.749 8.733-17.979 10.395-5.879 21.545-5.749 32.621-3.21 13.146,3.013 26.317,3.954 39.754,3.46 17.603-0.647 18.988,1.077 15.456,18.414-2.45,12.026-5.043,24.053-8.332,35.868-1.818,6.529-4.936,12.751-7.932,18.885-7.793,15.955-34.868,22.17-47.568,0.196zm-33.791,49.049l.065,.061c0.693,3.395-4.287,7.282 0.9,10.299 2.089-1.359 4.178-2.718 6.267-4.077-1.237,3.89-3.37,6.708-4.962,9.804-2.688,5.227-3.655,10.574 0.591,15.626l-.097-.261c1.437,6.232 5.5,9.236 10.875,6.284 8.134-4.468 15.763-10.001 23.027-15.807 1.931-1.543 2.884-5.957 2.348-8.671-3.585-18.178-11.991-34.267-22.248-50.03-9.902,6.204-19.232,12.05-29.245,18.325 2.231,2.425 3.487,3.791 4.997,5.433 2.51-3.129 4.385-5.465 6.259-7.801-0.054,3.519-1.413,6.275-2.635,9.091-2.174,5.016-1.352,9.107 3.858,11.724zm-265.783,77.057c10.937-6.411 10.86-6.325 19.766,1.684 6.966,6.264 14.155,12.281 21.604,18.718 14.695-8.86 29.956-17.156 44.261-26.86 39.773-26.98 79.162-54.528 118.674-81.891 9.115-6.312 18.12-12.781 27.133-19.148-2.009-2.817-3.63-4.426-4.471-6.372-6.765-15.665-17.321-27.203-33.82-33.048-6.371-2.257-8.868-8.318-9.945-14.554-0.596-3.449-0.107-7.085-0.107-12.432-8.94-4.302-18.369-9.638-28.371-13.487-21.52-8.282-42.67-17.914-65.855-21.005-4.074-0.543-8.204-0.662-13.028-1.031 2.322,14.781-1.325,26.104-12.905,33.564-10.815,6.967-22.95,7.833-35.003,4.643-5.266,11.978-27.02,145.908-27.933,171.219zm246.317-89.614c-9.313,6.831-17.94,13.334-26.744,19.588-36.553,25.966-73.155,51.864-109.749,77.773-16.151,11.435-33.477,21.35-46.763,35.93 1.054,8.586 2.237,16.777 3.018,25.006 0.726,7.647 1.244,15.405-8.743,20.637 5.571,0.969 8.988,2.026 12.423,2.09 33.973,0.637 66.06,11.659 99.016,17.86 17.635,3.318 35.171,7.157 53.217,10.857 1.505-15.345 9.501-25.651 20.885-33.55 7.868-5.46 16.772-7.393 25.685-3.302 4.366,2.004 7.774,6.094 12.734,10.155 12.864-41.319 12.097-82.248 3.686-123.843-2.835,0.474-4.243,0.833-5.668,0.928-14.433,0.969-21.473-5.281-22.558-19.851-0.375-5.041-0.194-10.297-1.623-15.047-2.429-8.068-1.54-17.286-8.816-25.231zm-168.951,112.518c3.471-2.258 6.521-4.137 9.462-6.173 20.21-13.99 40.421-27.978 60.585-42.034 19.87-13.85 40.132-27.189 59.412-41.819 25.354-19.238 50.162-39.166 78.026-54.808 2.509-1.409 4.803-3.228 7.102-4.98 8.507-6.486 8.562-7.026 2.237-17.355-9.476,7.16-18.642,14.751-28.452,21.393-67.944,45.999-136.16,91.597-203.977,137.782-22.394,15.251-43.869,31.852-65.76,47.843-0.876,0.64-2.183,1.204-2.446,2.061-0.58,1.892-1.45,4.441-0.645,5.798 0.773,1.303 3.75,2.323 5.331,1.893 2.687-0.73 5.045-2.682 7.528-4.145 12.762-7.52 25.192-15.69 38.371-22.389 13.077-6.648 24.443-14.704 32.009-28.137 0.376,1.566 0.618,2.575 1.217,5.07zm-25.016-215.674c-8.8,4.209-14.287,2.87-18.224-3.598-3.289-5.403-2.458-10.855 3.791-14.919 4.712-3.064 10.353-5.708 15.838-6.352 9.623-1.13 19.557-1.617 29.159-0.554 32.784,3.627 62.696,16.439 92.096,30.514 3.212,1.538 5.931,4.1 8.898,6.159 1.984,1.377 4.002,2.704 6.129,4.137 5.842-4.609 11.19-8.828 17.298-13.646-15.821-9.802-30.236-20.025-46.966-26.139-30.243-11.052-61.39-16.574-93.628-14.089-10.396,0.801-20.815,2.345-30.988,4.606-6.224,1.384-12.353,4.181-17.885,7.431-6.305,3.703-7,7.58-4.622,14.969 1.112-1.264 2.223-2.528 3.335-3.792 0.278,0.247 0.556,0.494 0.835,0.741-1.657,4.176-3.315,8.352-5.369,13.529 2.627-0.661 3.938-0.99 5.345-1.344-0.442,2.62-1.717,5.504-1.147,7.961 0.729,3.144 3.608,4.179 6.868,2.754 0.188-0.082 0.684,0.065 0.732,0.207 3.219,9.617 11.93,6.993 18.239,6.992 18.637-0.005 27.952-13.686 22.021-32.769-5.366,1.111-11.089,1.703-16.313,3.64-2.441,0.906-3.917,4.414-5.83,6.743 2.127,1.601 4.224,3.244 6.396,4.783 0.841,0.595 1.851,0.959 3.992,2.036zm251.75,184.232c-8.417,6.249-6.076,13.985-5.111,20.748 3.488,24.455-0.047,48.227-4.901,72.059-3.665,17.997-14.259,31.369-27.418,43.106-5.085,4.535-10.673,4.362-14.679,0.592-5.881-5.534-5.377-19.773 1.308-24.351 2.488-1.703 6.076-1.799 11.039-3.131-3.279,8.062-13.748,12.265-4.966,21.699 5.713-6.32 10.909-12.069 16.042-17.748-2.228-3.336-3.76-5.756-5.417-8.087-5.39-7.583-12.295-9.09-20.669-4.571-14.561,7.858-20.415,21.482-15.993,37.212 2.751,9.784 7.487,13.75 17.651,14.721 18.311,1.748 32.331-5.495 42.493-20.535 9.263-13.709 14.152-29.25 17.811-45.129 6.815-29.567 5.269-59.693 4.586-89.654-0.243-10.645-3.346-21.189-8.696-31.953-6.236,3.92-11.816,7.427-17.887,11.244 2.056,3.033 3.559,5.25 5.088,7.507 2.142-1.597 3.635-2.71 5.127-3.823-3.679,6.862-4.378,13.423-1.83,20.427 1.496-0.076 2.82-0.145 6.422-0.333zm51.179-178.627c-18.358-3.534-34.863-7.065-51.508-9.727-5.921-0.947-12.307-0.486-18.256,0.583-9.451,1.699-12.717,5.742-11.151,15.021 1.167,6.909 4.074,13.705 7.282,20.003 1.381,2.711 5.375,5.468 8.374,5.699 6.712,0.516 9.374,4.537 11.456,9.781 1.987,5.004 4.737,9.893 5.634,15.093 1.146,6.641 5.338,8.954 10.825,10.404 8.078,2.134 15.081-0.961 20.133-8.687 11.695-17.882 10.914-39.187 17.211-58.17zm-86.421,53.726c-2.591-3.904-4.509-6.933-6.564-9.868-9.757-13.939-19.899-27.574-33.184-38.443-8.032-6.571-11.617-9.194-20.379-0.501-1.528,1.517-3.476,2.601-5.12,4.013-5.305,4.554-13.589,7.494-12.838,15.989 0.862,9.75 10.132,11.089 17.332,14.074 0.563,0.234 1.385-0.155 2.513-0.314 2.443-3.695 5.038-7.62 7.633-11.545 0.401,0.253 0.802,0.507 1.203,0.76-2.063,4.385-4.125,8.769-6.356,13.511 2.902,1.864 5.176,3.324 7.525,4.832 2.43-4.062 4.493-7.511 6.556-10.96-3.724,14.567-3.724,14.567 1.413,17.948 1.45-2.919 2.73-5.92 4.386-8.698 1.411-2.367 3.252-4.477 4.904-6.7 0.39,0.27 0.779,0.541 1.169,0.811-3.02,6.419-6.041,12.838-9.105,19.352 3.247,5.34 6.336,10.419 9.9,16.279 10.305-7.297 19.385-13.725 29.012-20.54zm-246.116,167.269c-12.529-5.585-23.536-10.491-35.016-15.609-6.849,4.017-13.862,8.129-22.446,13.164 15.156,5.025 28.554,9.466 42.686,14.151 4.044-3.203 8.74-6.924 14.776-11.706zm-3.757,72.179c9.951-5.323 19.385-9.12 17.105-22.307-0.41-2.374 0.578-4.971 0.784-7.476 0.487-5.93 0.891-11.866 1.363-18.27-17.349,5.909-17.947,6.746-18.306,22.576-0.073,3.217-0.797,6.418-0.904,9.637-0.161,4.86-0.042,9.73-0.042,15.84zm-71.852-62.247c16.014,5.901 29.412,10.838 42.708,15.737 4.202-3.241 7.871-6.071 13.23-10.206-15.612-5.34-29.662-10.146-43.63-14.924-3.689,2.817-6.756,5.158-12.308,9.393zm62.953-40.26c-5.499,3.898-10.67,7.563-16.773,11.89 12.284,4.958 23.273,9.394 35.015,14.134 1.985-1.625 4.27-3.496 7.006-5.736-8.62-6.928-16.468-13.233-25.248-20.288zm-7.021,112.697c0.819,0.442 1.637,0.883 2.456,1.325 2.636-3.407 7.226-6.641 7.546-10.253 0.992-11.216 0.363-22.575 0.363-35.634-4.989,3.045-8.789,5.365-12.264,7.486 0.661,12.905 1.28,24.991 1.899,37.076zm39.573-28.267c6.278-3.934 15.095-4.931 14.829-14.116-0.237-8.203-1.432-16.378-2.308-25.676-4.443,2.141-7.621,3.673-10.799,5.204-0.591,11.871-1.157,23.23-1.722,34.588z"/>
    <path d="m330.156,211.964c1.693-7.916 1.693-7.916 7.802-14.412-0.902,6.49-4.309,10.336-7.929,14.101 0.03,0.049 0.127,0.311 0.127,0.311z"/>
    <path d="m327.294,180.251c1.37-2.574 2.74-5.148 4.11-7.722 0.679,0.461 1.358,0.922 2.037,1.383-2.028,2.133-4.056,4.266-6.083,6.4 0.002,0-0.064-0.061-0.064-0.061z"/>
  </g>
</svg>
