<?xml version='1.0' encoding='iso-8859-1'?>
<!DOCTYPE svg PUBLIC '-//W3C//DTD SVG 1.1//EN' 'http://www.w3.org/Graphics/SVG/1.1/DTD/svg11.dtd'>
<svg version="1.1" xmlns="http://www.w3.org/2000/svg" viewBox="0 0 364.743 364.743" xmlns:xlink="http://www.w3.org/1999/xlink" enable-background="new 0 0 364.743 364.743">
  <g>
    <path d="m220.343,347.217c1.211-19.628 2.903-39.015 3.419-58.433 0.311-11.689-0.548-23.514-2.081-35.12-1.724-13.054-12.048-19.086-23.082-22.831-10.515-3.569-20.384-1.176-28.102,7.585-6.752,7.664-10.567,16.761-13.055,26.487-4.607,18.011-4.805,36.434-4.906,54.854-0.038,7.004 0.196,14.01 0.071,21.011-0.141,7.87-1.687,10.332-9.286,10.939-13.174,1.053-26.428,1.598-39.643,1.521-12.114-0.07-24.227-1.155-36.33-1.95-17.244-1.132-34.516-2.025-51.705-3.743-13.823-1.379-15.873-3.904-15.624-17.34 0.565-30.561 1.806-61.115 2.023-91.676 0.167-23.566-0.763-47.14-1.285-70.709-0.669-30.284 2.732-60.228 6.951-90.147 1.947-13.808 3.099-27.756 3.967-41.681 0.726-11.65 2.135-14.033 13.327-16.77 2.482-0.607 5.019-1.211 7.555-1.341 29.386-1.516 58.764-3.571 88.171-4.22 32.718-0.721 65.465-0.273 98.198-0.058 13.975,0.092 27.957,1.5 41.914,1.211 19.481-0.403 38.938-1.894 58.411-2.795 6.602-0.305 13.292-0.878 19.816-0.167 7.775,0.847 10.02,3.755 10.414,11.6 1.108,22.058 1.648,44.151 3.123,66.183 3.071,45.857 6.664,91.679 9.886,137.526 0.619,8.812 0.509,17.675 0.757,26.514 0.546,19.482 1.385,38.962 1.496,58.446 0.035,6.12-0.677,12.842-3.312,18.168-1.737,3.511-7.252,6.262-11.544,7.193-13.639,2.96-27.42,5.696-41.289,7.072-24.15,2.396-48.397,3.878-72.627,5.349-5.288,0.321-11.153,1.46-15.628-2.678zm-200.331-55.392l-.291-.284c-0.516,1.65-0.585,3.688-1.623,4.886-5.585,6.445-5.315,13.669-3.991,23.342 7.28-7.465 13.224-13.559 19.168-19.653 0.61,0.582 1.22,1.164 1.83,1.747-6.539,7.155-12.859,14.528-19.701,21.381-4.04,4.047-4.617,7.892-1.908,13.03 11.081,1.387 12.471-12.124 22.495-14.279-2.778,3.168-4.73,5.339-6.618,7.563-1.943,2.289-3.824,4.631-6.215,7.538 19.648,3.351 102.193,5.222 115.858,2.651 0.358-7.373 0.381-15.064 1.173-22.677 1.824-17.54 3.546-35.114 6.244-52.529 1.641-10.598 6.001-20.496 12.774-29.077 9.648-12.222 21.76-18.583 37.625-15.126 4.199,0.915 6.952,0.003 9.452-3.481 2.666-3.715 5.88-7.037 8.854-10.531 0.516,0.382 1.031,0.765 1.547,1.148-3.369,4.924-6.739,9.848-9.798,14.318 6.488,8.377 11.098,1.448 18.051-2.783-3.105,4.789-4.891,7.544-7.928,12.228 5.354,0.246 8.866,0.407 12.034,0.552-4.781,5.981 0.251,10.155 3.898,14.889 3.232-2.032 5.935-3.732 9.483-5.963-1.937,6.553-10.901,8.268-6.865,16.579 2.954-1.869 5.488-3.473 8.021-5.076-4.44,7.174-11.595,12.781-7.035,23.24 4.089-3.186 8.081-6.296 12.072-9.406-2.198,4.848-5.117,8.665-8.59,11.882-5.227,4.842-5.632,10.411-3.879,17.53 3.868-2.64 7.183-4.902 10.498-7.165 0.61,0.758 1.22,1.516 1.83,2.274-3.881,3.306-8.194,6.232-11.527,10.021-3.606,4.1-2.706,9.176-1.693,14.898 4.44-2.909 7.822-5.126 11.205-7.343-5.058,8.122-16.033,12.21-12.412,25.62 3.366-2.758 6.364-5.23 9.378-7.681 3.206-2.607 6.427-5.196 9.642-7.793 0.465,0.6 0.931,1.2 1.396,1.8-6.292,6.205-12.585,12.41-19.924,19.648 21.429-2.002 40.766-3.946 60.129-5.579 21.466-1.81 50.414-8.081 57.616-12.846-3.47-16.595-3.18-33.451-2.875-50.387 0.292-16.174-0.123-32.402-1.135-48.549-1.933-30.844-4.769-61.631-6.736-92.473-1.407-22.051-1.989-44.154-3.002-66.231-0.114-2.473-0.642-4.926-1.037-7.826-2.334,0.204-4.1,0.374-5.868,0.511-12.092,0.941-24.353,3.569-36.237,2.395-16-1.58-31.608,0.448-47.362,1.293-9.339,0.501-18.635,1.811-28.219,2.785 0.965,9.973 2.454,18.737 2.536,27.514 0.199,21.329 0.3,42.689-0.672,63.986-0.524,11.482-7.309,16.83-18.825,17.69-9.762,0.729-19.048-1.417-27.997-5.121-10.512-4.351-16.283-12.483-17.488-23.603-0.672-6.202-0.479-12.508-0.495-18.767-0.052-20.064-0.019-40.127-0.019-60.283-44.301,0-89.032,0-134.052,0-1.98,10.889-4.085,21.272-4.275,33.149 3.838-3.35 6.347-5.541 8.857-7.731-12.332,18.856-12.332,18.856-10.227,28.675 5.11-4.731 9.99-9.25 14.871-13.768-4.269,11.624-19.456,16.71-17.731,33.183 4.603-3.532 8.029-6.161 11.455-8.79-2.862,5.675-7.179,9.789-10.28,14.675-3.402,5.36-1.962,11.362-0.937,17.052 0.806,0.428 1.611,0.857 2.417,1.285 3.694-4.054 7.388-8.109 11.082-12.163-2.734,5.319-6.077,10.081-9.922,14.395-5.185,5.819-5.236,11.96-2.855,19.314 3.836-3.394 6.941-6.142 10.047-8.89-0.889,3.953-2.561,7.199-5.031,9.635-5.128,5.056-6.888,10.882-6.423,17.972 0.468,7.131 1.683,14.296 0.18,21.496-0.306,1.465 0.495,3.16 0.799,4.823 1.932-0.519 3.039-0.816 6.825-1.832-8.794,6.873-8.557,13.543-6.488,22.347 8.375-9.029 15.617-16.836 22.86-24.643 0.622,0.577 1.244,1.155 1.865,1.732-6.882,8.009-13.461,16.308-20.759,23.917-4.268,4.451-6.087,9.031-4.82,14.907 0.099,0.461 1.03,0.741 1.689,1.183 2.282-1.798 4.6-3.625 6.918-5.452-10.471,9.792-10.045,21.552-8.215,34.537 2.282-1.477 3.794-2.456 5.306-3.435zm145.225-228.128c0,11.186 0.104,20.713-0.026,30.238-0.17,12.497-0.846,24.994-0.728,37.486 0.194,20.439 6.345,27.402 26.599,31.133 1.796,0.331 3.626,0.566 5.449,0.641 11.717,0.484 15.313-2.542 16.243-14.187 0.731-9.151 1.047-18.335 1.596-27.501 1.186-19.81-0.461-39.329-5.26-57.81-14.877,2.84217e-14-29.112,2.84217e-14-43.873,2.84217e-14zm-10.138-8.592c0.86-11.124 1.638-21.187 2.371-30.671-12.406,0-23.623,0-35.087,0 1.272,10.823 2.418,20.568 3.606,30.671 9.897,0 18.992,0 29.11,0zm-39.117-30.185c-10.405,0-20.8,0-31.432,0 1.191,11.168 2.26,21.197 3.461,32.457 9.464-0.652 18.322-1.261 27.971-1.926 0-10.963 0-20.425 0-30.531zm79.173-2.13c-10.843-0.572-20.838-0.909-31.372,0.145 0.918,11.447 1.73,21.565 2.566,31.983 9.519,0 18.448,0 26.61,0 0.758-11.105 1.45-21.226 2.196-32.128zm-117.484,33.688c0.506-10.643 0.954-20.06 1.46-30.703-9.783,0.453-19.456,0.902-29.652,1.374 1.021,10.273 1.945,19.574 2.915,29.328 8.579,0.001 16.469,0.001 25.277,0.001zm126.291-2.195c7.864,0 14.712,0 22.675,0 0.507-10.247 0.984-19.898 1.474-29.804-9.464,0-17.354,0-26.112,0 0.672,10.194 1.293,19.622 1.963,29.804zm95.684-29.177c-10.031-1.475-19.362,0.426-28.902,1.999 0.863,8.156 1.617,15.276 2.401,22.683 8.757,0 16.558,0 24.639,0 0.635-8.407 1.209-16.017 1.862-24.682zm37.829,20.93c-0.461-8.307-0.839-15.114-1.279-23.048-10.131,0.526-19.04,0.989-27.532,1.431 0,9.454 0,17.34 0,25.702 9.856-1.398 18.815-2.668 28.811-4.085zm-99.243,7.411c8.214-0.951 15.656-1.813 23.188-2.685 0-8.601 0-16.134 0-23.999-9.002-2.902-17.697-2.972-26.549-1.62 1.116,9.389 2.138,18.005 3.361,28.304zm-194.619-25.777c-6.714,0.867-12.66,1.634-18.563,2.396 0,9.783 0,17.987 0,26.287 6.562,0 12.262,0 18.563,0 0-9.306 0-17.972 0-28.683z"/>
    <path d="m69.627,149.894c2.673-5.691 4.337-11.085 7.438-15.46 6.902-9.74 16.796-8.994 21.298,1.944 6.661,16.183 9.76,33.037 6.523,50.728-1.02,5.573-3.687,8.876-8.831,9.816-5.367,0.981-11.148,2.408-16.288,1.368-11.125-2.251-22.157-5.396-32.839-9.253-7.31-2.64-14.344-7.233-14.995-16.092-0.682-9.27 5.965-14.544 12.887-19.104 7.698-5.072 16.178-6.414 24.807-3.947zm6.408,8.307c-4.386-0.742-8.068-2.135-11.574-1.783-5.654,0.568-11.503,1.547-16.691,3.728-5.155,2.166-10.203,7.013-8.658,12.651 1.139,4.157 6.096,8.735 10.378,10.276 10.657,3.835 21.867,6.177 32.931,8.799 2.39,0.566 5.138,0.016 7.652-0.42 4.363-0.756 7.208-2.878 7.533-7.93 0.852-13.264 1.601-26.529-2.446-39.409-1.242-3.953-3.836-7.481-6.06-11.671-10.706,6.159-12.066,15.405-13.065,25.759z"/>
    <path d="m273.22,179.992c5.314-6.124 11.064-10.831 18.524-6.585 7.327,4.171 7.979,11.884 6.922,19.486-2.172,15.62-11.715,26.622-23.786,35.51-2.273,1.673-7.225,1.408-10.167,0.18-13.898-5.798-23.371-16.102-28.408-30.364-2.887-8.175-3.026-16.233 3.915-22.324 6.825-5.988 15.074-4.791 22.887-1.94 3.328,1.215 6.208,3.654 10.113,6.037zm-.738,11.031c-3.091-3.205-5.837-6.651-9.176-9.37-4.938-4.023-13.567-4.308-17.55-1.129-4.226,3.374-5.063,9.065-2.246,16.198 4.875,12.342 13.754,20.378 25.911,24.674 19.839-15.106 26.095-30.828 16.283-42.101-4.239,3.76-8.507,7.545-13.222,11.728z"/>
    <path d="m80.18,258.03c2.706-5.125 4.826-10.663 8.237-15.237 4.873-6.534 12.252-5.852 15.816,1.479 2.181,4.487 3.703,9.781 3.737,14.725 0.077,10.949-0.525,21.954-1.703,32.845-0.924,8.548-3.947,10.889-12.291,10.674-12.253-0.314-23.963-3.396-34.756-9.148-6.246-3.329-12.229-8.064-11.632-15.985 0.607-8.058 6.451-13.284 13.71-15.731 6.099-2.055 12.739-2.506 18.882-3.622zm7.637,10.509c-3.547-1.057-6.657-2.16-9.852-2.899-6.904-1.596-13.166,0.277-18.619,4.466-6.408,4.922-6.303,12.346 0.872,16.061 11.395,5.9 23.528,9.633 36.439,7.806 7.08-22.109 6.858-39.732-1.318-48.131-2.557,7.715-4.913,14.824-7.522,22.697z"/>
    <path d="m300.305,256.353c2.265-0.956 4.301-1.763 6.295-2.666 4.396-1.992 8.622-2.005 12.31,1.397 3.715,3.426 3.708,7.829 2.462,12.271-5.08,18.098-17.971,28.976-34.268,36.529-4.354,2.019-7.67-0.114-10.502-3.58-9.194-11.252-9.107-35.409 0.272-46.666 4.53-5.437 9.374-6.495 15.509-2.993 2.833,1.617 5.335,3.819 7.922,5.708zm12.932,2.64c-6.172,2.7-11.314,4.949-16.975,7.426-1.9-5.907-3.717-10.753-9.946-11.115-12.606,11.296-13.037,29.035-0.999,41.086 19.236-8.452 29.602-21.606 27.92-37.397z"/>
    <path d="m118.68,91.557c3.92-3.435 7.187-6.947 11.064-9.549 6.322-4.242 11.429-1.599 12.419,5.955 2.114,16.133-5.884,32.568-19.631,40.341-7.229,4.087-11.13,3.591-16.447-2.544-7.209-8.319-10.879-18.256-12.315-29.019-0.597-4.479-0.453-9.899 4.25-11.524 3.667-1.267 8.541-0.346 12.479,0.883 3.272,1.02 5.961,3.905 8.181,5.457zm-.393,6.656c-10.152-7.327-10.152-7.327-16.898-7.971-2.757,11.172 3.974,25.908 15.079,33.016 14.021-8.158 19.518-18.837 17.349-35.196-5.442,3.557-10.497,6.862-15.53,10.151z"/>
    <path d="m277.071,101.383c0.707-1.359 2.084-4.789 4.123-7.766 4.795-7.003 11.773-7.097 15.649,0.18 6.139,11.526 5.963,24.092 3.377,36.432-0.573,2.732-4.616,5.738-7.683,6.766-11.236,3.765-30.383-2.744-37.909-12.197-4.894-6.148-4.766-11.797 1.894-15.798 5.383-3.234 11.931-4.533 20.549-7.617zm-20.36,16.591c8.244,10.639 18.937,13.977 31.284,12.875 1.969-0.176 5.089-2.57 5.352-4.292 1.594-10.468 2.204-20.995-3.681-31.168-5.952,4.658-6.653,10.586-5.772,17.59-9.766-2.252-19.353-7.285-27.183,4.995z"/>
    <path d="m142.309,192.608c2.79-3.583 4.68-6.819 7.325-9.223 4.268-3.881 9.55-2.824 11.609,2.463 3.954,10.151 3.092,20.268-2.689,29.484-1.574,2.51-4.93,4.501-7.878,5.436-8.317,2.636-24.461-5.597-27.824-13.685-2.544-6.117 1.815-13.151 9.295-14.386 3.191-0.528 6.541-0.089 10.162-0.089zm5.292,6.385c-4.448-0.751-7.726-1.959-10.84-1.625-2.549,0.273-6.175,1.866-6.967,3.827-0.734,1.814 0.97,5.779 2.825,7.221 3.371,2.621 7.504,4.549 11.612,5.816 2.063,0.637 6.102-0.036 6.936-1.466 2.51-4.298 4.258-9.157 5.57-13.996 0.89-3.281 0.737-6.967-3.271-9.737-2.119,3.598-3.922,6.66-5.865,9.96z"/>
    <path d="m20.013,291.825c1.304-2.03 2.607-4.061 3.911-6.091 0.472,0.455 0.944,0.909 1.415,1.364-1.865,1.488-3.729,2.976-5.605,4.453-0.012-0.01 0.278,0.274 0.279,0.274z"/>
  </g>
</svg>
