<?xml version='1.0' encoding='iso-8859-1'?>
<!DOCTYPE svg PUBLIC '-//W3C//DTD SVG 1.1//EN' 'http://www.w3.org/Graphics/SVG/1.1/DTD/svg11.dtd'>
<svg version="1.1" xmlns="http://www.w3.org/2000/svg" viewBox="0 0 424.894 424.894" xmlns:xlink="http://www.w3.org/1999/xlink" enable-background="new 0 0 424.894 424.894">
  <g>
    <path d="m176.145,359.613c-11.722,5.68-22.171,11.087-32.928,15.794-4.628,2.025-9.831,3.046-14.88,3.747-20.854,2.895-34.598-10.192-33.02-33.174 0.377-5.485 0.892-10.96 1.417-17.336-4.009-1.917-7.875-3.783-11.754-5.618-8.064-3.814-8.626-4.992-6.201-13.646 0.79-2.819 1.722-5.598 2.932-9.503-3.279-2.494-6.658-5.163-10.138-7.693-9.788-7.116-10.165-8.373-6.64-20.404 1.317-4.493 2.281-9.09 3.366-13.478-10.163-6.314-19.583-11.976-28.797-17.956-6.557-4.256-7.486-6.869-3.155-13.451 5.652-8.588 11.731-17.039 18.655-24.609 10.099-11.041 14.325-23.314 13.393-38.295-0.936-15.042 0.088-30.194-0.289-45.285-0.467-18.661 6.034-34.498 17.948-48.509 28.984-34.084 65.982-54.692 109.093-65.025 7.153-1.715 14.333-3.829 21.608-4.403 10.918-0.861 21.941-0.902 32.901-0.602 14.244,0.389 28.734-0.005 42.653,2.509 36.986,6.679 68.805,22.438 86.533,57.915 12.776,25.568 15.401,52.645 8.982,80.637-7.531,32.842-20.758,62.826-42.884,88.581-4.074,4.742-7.768,9.819-11.523,14.827-19.96,26.623-24.178,56.167-16.291,87.968 1.857,7.487 3.542,15.017 5.233,22.544 1.188,5.289-0.825,9.255-5.133,12.371-28.063,20.299-55.942,40.845-88.764,53.27-23.575,8.924-33.502,3.82-38.976-20.579-1.93-8.605-3.638-17.294-6.229-25.704-1.595-5.174-4.668-9.896-7.112-14.893zm128.596-22.936c0.791,4.362 1.582,8.724 2.373,13.086 0.862-0.28 1.723-0.561 2.585-0.841-1.731-4.024-3.461-8.047-5.192-12.07-0.988-4.2-1.676-8.498-3.019-12.581-4.202-12.78-8.652-25.479-13.005-38.21 0.748-0.262 1.496-0.524 2.243-0.787 2.672,6.313 5.344,12.626 8.016,18.938 1.752-5.328 1.643-10.182 2.651-14.792 1.308-5.979 0.66-11.379-1.166-17.215-3.485-11.139-6.01-22.579-8.933-33.894 7.824,9.38 7.865,21.43 12.395,33.034 3.841-5.56 5.313-10.252 3.834-16.169-2.075-8.307-3.385-16.806-5.023-25.222 0.619-0.144 1.237-0.288 1.856-0.431 2.308,7.592 4.616,15.184 7.343,24.153 7.506-10.249-2.165-19.03 0.503-29.876 2.436,7.09 4.193,12.201 6.037,17.566 6.885-7.159 6.875-7.157 5.556-14.369-1.111-6.075-2.195-12.155-3.291-18.233 0.521-0.125 1.041-0.249 1.562-0.374 1.914,6.472 3.827,12.944 5.819,19.683 6.125-6.169 6.131-6.169 5.117-13.467-1.038-7.477-2.089-14.953-3.134-22.429 0.718-0.099 1.437-0.198 2.155-0.296 1.599,8.077 3.198,16.153 4.796,24.23 0.698,0.17 1.396,0.34 2.095,0.509 1.735-3.31 3.47-6.621 5.205-9.931l-.246,.256c6.718-4.307 8.85-10.368 7.248-18.089-0.743-3.581-0.986-7.273-1.342-10.926-0.308-3.172-0.455-6.359-0.674-9.539 0.69-0.033 1.381-0.066 2.071-0.099 1.098,6.931 2.196,13.863 3.588,22.649 2.421-4.015 4.396-6.249 5.233-8.849 5.403-16.778 11.963-33.348 15.475-50.532 5.759-28.182 0.419-54.994-16.207-78.86-12.715-18.252-31.564-28.346-51.5-36.629-12.073-5.016-24.851-4.534-37.643-5.659-26.746-2.353-52.794-1.783-78.731,5.461-40.271,11.244-74.351,31.817-99.377,65.786-4.676,6.347-9.027,14.084-10.124,21.672-2.094,14.485-2.002,29.319-2.294,44.019-0.168,8.443 0.72,16.905 1.077,25.361 0.453,10.759-2.849,20.358-9.451,28.754-4.778,6.077-9.915,11.871-14.837,17.836-4.339,5.258-8.602,10.578-13.358,16.435 9.376,4.896 17.624,8.967 25.638,13.455 8.002,4.481 8.939,7.193 6.686,16.278-1.392,5.614-2.818,11.221-4.169,16.593 8.861,7.344 18.229,9.958 28.368,10.257 9.441,0.278 19.116,6.053 28.718-2.786 1.62,6.131 2.853,10.796 4.692,17.753-14.305-8.245-27.656-7.508-40.843-8.806-1.525,3.009-2.865,5.208-3.779,7.573-1.011,2.616-1.631,5.382-2.542,8.492 3.992,1.695 7.38,2.999 10.651,4.55 8.286,3.928 9.029,5.578 8.241,14.519-0.548,6.217-1.148,12.504-0.809,18.71 0.822,15.038 16.596,23.527 29.426,14.909 1.189-7.973 2.359-15.811 3.528-23.649 0.762,0.089 1.523,0.178 2.285,0.267-0.77,7.479-1.541,14.958-2.32,22.527 7.417-0.463 10.57-3.885 11.063-11.099 0.385-5.636 2.584-11.149 3.976-16.716 0.55,0.11 1.1,0.219 1.65,0.329-1.109,7.076-2.218,14.152-3.399,21.693 7.511-1.32 10.801-4.523 11.522-11.739 0.668-6.681 1.184-13.961 7.166-19.279-1.242,7.192-2.484,14.384-3.822,22.13 8.534-1.932 12.116-5.914 12.579-13.329 0.341-5.453 1.962-10.852 3.301-16.203 0.418-1.672 1.779-3.108 2.708-4.652 0.415,0.172 0.831,0.344 1.246,0.516-0.803,7.82-1.606,15.64-2.409,23.459 0.99,0.284 1.98,0.568 2.97,0.851 8.193-7.345 3.813-20.412 12.072-30.661-1.017,9.229-1.764,16.013-2.526,22.928 6.399-1.995 6.364-2.003 7.629-7.261 1.753-7.285 3.564-14.556 5.35-21.832 0.86,0.15 1.719,0.3 2.579,0.45-0.973,7.55-1.946,15.1-3.102,24.068 7.776-3.683 14.079-6.632 20.351-9.648 9.518-4.577 15.723-11.729 18.165-22.253 2.324-10.017 5.226-19.9 7.896-29.837 0.969-3.606 0.854-7.888 6.06-10.136 2.368,17.237-1.054,32.873-5.476,48.471-2.126,7.499-6.121,13.41-12.764,17.302-6.653,3.898-13.404,7.691-20.373,10.974-12.546,5.911-25.072,11.797-38.016,20.152 12.534,11.829 14.939,26.907 18.465,41.549 0.859,3.567 1.723,7.177 3.071,10.574 2.805,7.071 4.598,8.46 11.684,5.497 14.905-6.232 29.453-13.327 44.068-20.237 4.284-2.025 5.872-5.441 3.43-10.005 0,0 0.009,0.161 0.009,0.161 1.342,1.582 2.685,3.165 3.86,4.55 3.915-2.506 7.184-4.699 10.552-6.729 3.678-2.216 4.552-4.923 3.433-9.272-1.623-6.307-2.214-12.879-3.244-19.338 0.291-0.048 0.583-0.096 0.874-0.144 1.759,7.649 3.519,15.298 5.316,23.114 9.079-4.445 9.075-4.444 7.202-12.097-0.7-2.861-1.405-5.721-2.052-8.594-2.561-11.368-5.1-22.741-7.647-34.113 0.711-0.169 1.421-0.338 2.132-0.507 3.969,15.806 7.937,31.611 12.078,48.104 2.352-1.544 4.132-2.767 5.967-3.9 1.867-1.153 3.79-2.216 4.942-2.886-6.031-19.124-13.138-35.611-17.195-53.091 3.455,5.358 5.735,11.143 8.312,16.792 1.899,4.158 4.182,8.135 6.29,12.193z"/>
    <path d="m262.779,67.988c7.708-9.933 17.292-15.424 28.967-17.626 27.262-5.142 58.34,11.858 67.872,37.781 4.764,12.957 1.599,25.596-4.219,37.337-3.039,6.134-7.164,12.444-12.426,16.626-15.256,12.126-31.104,23.552-47.153,34.623-18.362,12.667-37.878,15.538-59.494,7.525-23.208-8.603-46.387-16.875-65.839-32.762-5.115-4.178-9.732-8.986-14.426-13.657-13.087-13.022-17.61-28.524-13.041-46.5 5.692-22.396 17.438-40.071 40.543-46.972 21.338-6.373 42.065-5.261 60.364,9.667 5.691,4.644 11.807,8.769 18.852,13.958zm-113.198,36.567c-0.033,7.988 1.739,15.645 7.121,21.568 10.413,11.458 21.378,22.303 35.674,29.214 20.301,9.815 41.24,17.77 63.192,22.936 2.703,0.636 5.838,0.784 8.489,0.084 28.956-7.639 52.608-24.605 74.205-44.315 11.702-10.68 17.382-25.677 12.793-41.179-4.613-15.585-14.875-27.741-31.805-32.466-19.767-5.516-36.164-0.689-49.566,14.952-6.619,7.724-8.783,7.582-16.05,0.935-6.789-6.21-13.352-12.751-20.688-18.247-4.883-3.658-10.666-7.007-16.531-8.316-34.931-7.794-66.981,18.76-66.834,54.834z"/>
    <path d="m108.697,179.112c-2.521-1.078-5.004-2.14-7.565-3.235 0.737-1.205 1.01-2.205 1.445-2.282 13.418-2.37 26.306,0.551 38.914,4.596 6.639,2.13 11.025,7.786 10.472,11.519-0.624,4.211-6.634,8.501-13.554,9.351-4.739,0.582-9.528,0.752-14.289,1.17-8.774,0.77-10.328-0.03-12.836-8.119-1.186-3.829-1.601-7.895-2.587-13zm33.252,12.248c0.213-1.125 0.426-2.251 0.639-3.376-5.156-1.836-10.311-3.671-16.026-5.706-1.058,4.508-1.765,7.524-2.745,11.701 6.792-0.981 12.462-1.8 18.132-2.619z"/>
    <path d="m94.714,153.563c12.371-5.062 25.084-8.606 38.709-4.719 2.972,0.848 5.308,3.93 6.914,7.597-15.067,0-30.133,0-45.2,0-0.141-0.96-0.282-1.919-0.423-2.878z"/>
    <path d="m344.12,206.686c-2.19-8.653-4.381-17.306-6.571-25.959 0.809-0.17 1.617-0.34 2.426-0.511 2.457,8.679 4.91,17.358 3.913,26.708-0.015,0.018 0.232-0.238 0.232-0.238z"/>
    <path d="m218.749,317.495c0.939-5.64 1.878-11.281 2.817-16.921 2.755,7.396 2.38,9.657-2.817,16.921z"/>
    <path d="m263.915,382.437c-0.313-3.134-0.626-6.268-0.939-9.403 0.323-0.027 0.646-0.053 0.969-0.08 0,3.187 0,6.374-0.01,9.602-0.011,0.042-0.02-0.119-0.02-0.119z"/>
  </g>
</svg>
