<?xml version='1.0' encoding='iso-8859-1'?>
<!DOCTYPE svg PUBLIC '-//W3C//DTD SVG 1.1//EN' 'http://www.w3.org/Graphics/SVG/1.1/DTD/svg11.dtd'>
<svg version="1.1" xmlns="http://www.w3.org/2000/svg" viewBox="0 0 418.552 418.552" xmlns:xlink="http://www.w3.org/1999/xlink" enable-background="new 0 0 418.552 418.552">
  <g>
    <path d="m200.897,115.371c-7.407,13.136-15.237,26.55-22.601,40.216-7.354,13.646-14.241,27.544-21.941,42.516 5.581,2.714 9.806,5.291 14.374,6.894 14.999,5.264 30.096,10.256 45.219,15.156 3.405,1.103 7.046,1.575 10.617,2.05 11.514,1.531 13.78,5.246 8.561,15.899-6.045,12.341-12.673,24.396-19.036,36.581-2.511,4.809-5.217,9.532-7.44,14.471-5.168,11.484-3.837,15.843 6.64,22.673 8.788,5.729 17.477,11.635 26.503,16.966 17.015,10.05 31.12,23.52 44.959,37.337 2.292,2.288 4.706,4.686 6.173,7.499 1.355,2.599 2.884,6.536 1.821,8.572-1.099,2.105-5.266,3.759-8.019,3.658-14.075-0.518-28.176-1.197-42.177-2.68-46.511-4.928-90.28-18.7-131.781-40.399-16.443-8.597-32.293-17.902-46.721-29.425-24.108-19.255-43.62-42.24-54.305-71.699-11.04-30.44-15.037-61.467-8.783-93.716 8.021-41.361 33.307-67.219 71.651-81.273 28.335-10.386 56.983-11.145 83.834,4.346 11.428,6.593 21.159,16.163 31.483,24.599 1.861,1.521 3.022,4.015 4.208,6.22 2.135,3.973 4.046,8.067 6.761,13.539zm-130.227,185.001l-.031,.004c2.1,5.847 7.164,7.706 12.571,9.939 3.186-10.989 5.169-21.803 10.715-31.24 0.777,0.218 1.554,0.436 2.33,0.654-2.87,11.702-5.74,23.404-8.651,35.275 4.822,3.17 8.855,5.823 13.768,9.054 3.63-14.006 7.004-26.533 13.574-37.905 0.286,14.004-6.451,26.348-8.533,40.384 2.19,1.011 4.627,2.136 7.381,3.408 4.16-10.095 8.045-19.522 11.931-28.95 0.869,0.305 1.738,0.609 2.606,0.914-3.072,10.173-6.144,20.346-9.166,30.355 15.002,9.901 25.05,14.386 36,15.913 0-3.829 0-7.55 0-11.271 0.737-0.064 1.473-0.129 2.21-0.193 0.518,4.694 1.036,9.388 1.528,13.852 33.221,14.529 100.278,25.977 117.125,19.39-7.971-7.526-14.962-15.415-23.218-21.623-12.696-9.545-26.262-17.935-39.458-26.815-3.595-2.419-7.387-4.594-10.745-7.305-6.952-5.613-8.961-12.968-6.219-21.401 1.335-4.104 3.09-8.114 5.049-11.966 6.722-13.215 13.651-26.325 20.42-39.516 1.394-2.717 2.434-5.616 3.239-7.498-23.352-8.143-45.984-15.594-68.259-23.991-11.057-4.168-12.715-8.791-7.834-19.437 6.468-14.109 13.632-27.913 20.859-41.658 6.873-13.072 14.212-25.899 21.5-39.112-2.266-2.932-3.774-6.108-6.274-7.906-10.843-7.799-21.741-15.573-33.076-22.621-9.009-5.601-19.285-8.118-29.89-8.874-23.127-1.649-44.507,3.91-64.165,16.044-23.03,14.215-37.587,34.483-43.051,61.12-3.373,16.445-4.027,33.074-1.927,49.644 1.257,9.92 1.825,20.242 7.197,30.106 6.326-20.522 15.194-38.834 25.07-56.806-0.312,5.411-1.511,10.521-3.463,15.324-5.446,13.398-10.55,27.001-17.079,39.869-4.039,7.962-2.426,13.874 2.575,21.388 5.405-18.814 9.806-36.806 20.071-52.643 0.195,4.342-0.661,8.396-1.893,12.332-4.318,13.797-8.644,27.594-13.214,41.308-2.3,6.904-0.988,12.217 5.254,16.506 2.226-7.517 4.086-14.504 6.378-21.346 2.358-7.038 5.139-13.935 7.735-20.894 0.92,0.304 1.84,0.608 2.76,0.912-4.514,15.794-9.029,31.588-13.739,48.067 4.21,4.165 8.254,8.166 12.298,12.167l-.281-.184c4.827,6.979 9.118,14.515 18.022,17.226z"/>
    <path d="m275.992,215.422c-17.234-8.052-32.979-15.226-48.551-22.759-7.783-3.765-15.649-7.601-22.756-12.46-8.4-5.744-9.064-9.184-5.251-18.507 2.871-7.018 6.34-13.792 9.557-20.668 9.015-19.271 17.333-38.684 23.906-59.088 7.51-23.314 25.41-38.335 48.954-45.502 37.793-11.505 86.155,4.124 109.796,37.793 17.049,24.28 24.8,50.954 26.625,80.038 2.084,33.223-7.751,63.631-22.043,92.778-16.977,34.623-40.829,64.778-64.277,95.098-7.481,9.674-9.766,9.899-20.585,2.978-19.454-12.446-39.178-24.586-57.735-38.282-14.645-10.809-14.747-14.798-6.561-31.295 7.064-14.235 14.833-28.119 21.947-42.33 2.714-5.419 4.472-11.315 6.974-17.794zm-42.529-33.96l-.299-.238c3.515,2.184 7.029,4.367 10.839,6.734 5.115-10.093 9.697-19.133 14.278-28.173 0.9,0.404 1.799,0.807 2.699,1.211-3.895,9.467-7.79,18.934-11.87,28.85 2.198,1.11 3.993,2.017 6.096,3.079 4.154-8.158 8.04-15.79 11.926-23.422 0.687,0.292 1.373,0.584 2.06,0.875-3.287,8.011-6.575,16.022-10.075,24.55 2.769,0.951 4.925,1.691 7.163,2.46 3.624-8.383 6.931-16.031 10.238-23.679 2.806,10.014-4.284,17.163-5.639,26.129 1.802,0.923 3.37,1.751 4.96,2.536 12.74,6.29 14.779,9.931 9.37,22.975-5.656,13.638-12.454,26.829-19.244,39.961-4.432,8.572-10.154,16.51-12.23,27.74 21.882,14.748 43.867,29.567 67.259,45.333 0.48-0.796 1.288-2.443 2.37-3.886 20.606-27.486 41.654-54.659 57.579-85.318 15.531-29.9 26.29-60.9 24.406-95.319-1.496-27.338-8.217-52.643-25.271-74.718-23.064-29.854-53.404-41.052-89.874-33.923-23.075,4.511-39.627,19.359-49.184,40.555-9.943,22.05-18.274,44.829-27.24,67.317-2.106,5.282-3.93,10.676-5.935,16.159 8.375,6.023 15.732,11.703 25.618,12.212z"/>
    <path d="m17.891,200.349c3.618-20.719 14.998-38.096 26.284-55.53-6.156,19.603-17.286,36.929-26.284,55.53z"/>
    <path d="m52.93,283.331c3.221-10.944 6.358-21.913 9.708-32.817 1.115-3.631 2.774-7.095 6.022-10.158-0.172,2.602 0.091,5.325-0.592,7.785-2.784,10.034-5.824,19.998-8.842,29.966-0.954,3.153-1.963,6.455-6.55,5.056-0.026-0.016 0.254,0.168 0.254,0.168z"/>
    <path d="m70.67,300.372c-2.732-2.895-3.265-6.293-2.141-9.985 3.53-11.594 7.106-23.175 10.663-34.761 0.936,0.224 1.872,0.448 2.808,0.672-0.541,3.345-0.789,6.77-1.677,10.02-3.112,11.386-6.444,22.713-9.689,34.06 0.005-0.002 0.036-0.006 0.036-0.006z"/>
    <path d="m45.258,118.21c-7.413,14.153-14.827,28.305-22.241,42.458-0.765-0.391-1.529-0.783-2.294-1.174 5.343-15.316 13.557-29.186 22.115-42.883 0.808,0.533 1.614,1.066 2.42,1.599z"/>
    <path d="m132.476,336.392c2.733-7.159 5.467-14.317 8.68-22.732 0.933,8.387-0.861,14.066-8.68,22.732z"/>
    <path d="m291.412,253.163c-5.589,12.808-11.178,25.615-16.767,38.423-0.884-0.374-1.768-0.748-2.652-1.122 3.867-13.413 9.911-25.93 16.511-38.219 0.969,0.306 1.939,0.612 2.908,0.918z"/>
    <path d="m301.414,264.157c-5.913,11.45-11.826,22.9-17.738,34.35-0.814-10.142 7.806-27.222 17.738-34.35z"/>
    <path d="m233.463,181.462c3.835-10.775 7.627-21.569 14.75-30.856-2.946,10.548-6.559,20.817-11.912,30.395-0.281,0.503-2.037,0.182-3.122,0.234-0.016-0.011 0.284,0.227 0.284,0.227z"/>
    <path d="m237.939,143.638c-3.204,8.965-6.408,17.93-9.612,26.895-0.715-10.45 3.042-19.33 7.654-27.916 0.652,0.341 1.305,0.681 1.958,1.021z"/>
    <path d="m288.24,309.784c4.352-7.768 8.704-15.536 13.057-23.304 0.876,0.468 1.753,0.937 2.629,1.405-4.126,7.934-8.252,15.868-12.378,23.802-1.103-0.634-2.205-1.269-3.308-1.903z"/>
  </g>
</svg>
