<?xml version="1.0" encoding="iso-8859-1"?>
<!-- Generator: Adobe Illustrator 16.0.0, SVG Export Plug-In . SVG Version: 6.00 Build 0)  -->
<!DOCTYPE svg PUBLIC "-//W3C//DTD SVG 1.1//EN" "http://www.w3.org/Graphics/SVG/1.1/DTD/svg11.dtd">
<svg version="1.1" id="Capa_1" xmlns="http://www.w3.org/2000/svg" xmlns:xlink="http://www.w3.org/1999/xlink" x="0px" y="0px"
	 width="191.292px" height="191.292px" viewBox="0 0 191.292 191.292" style="enable-background:new 0 0 191.292 191.292;"
	 xml:space="preserve">
<g>
	<g>
		<path d="M190.445,92.127c-3.651-35.035-21.648-42.976-54.409-44.079c-36.963-1.245-87.42-24.607-120.623,0.717
			c-23.662,18.047-14.381,61.221-9.179,85.482c0.326,1.52,1.969,2.738,3.507,2.67c5.033-0.222,6.423-0.287,9.178-0.727
			c1.859,9.255,9.515,17.354,19.213,18.025c10.577,0.732,21.302-7.57,25.712-16.738c10.645,2.32,21.63,3.009,32.48,3.505
			c10.035,0.459,22,1.835,32.01-0.297c3.656,8.897,15.222,13.038,24.726,11.225c7.257-1.385,11.71-6.839,13.787-13.37
			C192.593,140.505,192.573,112.534,190.445,92.127z M175.731,71.755c-0.215,0.13-0.427,0.274-0.615,0.477
			c-1.889,2.032-2.959,4.737-6.018,5.116c-3.175,0.393-6.336-1.178-9.028-2.636c-6.946-3.763-11.597-10.476-13.435-17.998
			c5.294,0.528,10.552,1.242,15.729,2.413C167.549,60.299,172.119,65.143,175.731,71.755z M105.237,52.94
			c7.638,1.329,15.381,1.932,23.131,2.419c-0.491,7.927-2.313,17.501-12.281,17.463C105.783,72.783,105.072,60.697,105.237,52.94z
			 M86.773,49.379c-0.047,0.27-0.123,0.525-0.089,0.835c0.618,5.704,1.008,12.024-4.12,15.862
			c-4.559,3.411-11.546,2.626-16.73,1.506c-4.481-0.968-5.218-3.812-5.576-7.944c-0.407-4.687-0.675-9.323-1.418-13.961
			C68.385,46.177,78.058,47.733,86.773,49.379z M36.543,47.078c-1.003,7.173,2.6,14.398-5.16,19.142
			c-5.748,3.513-13.526,3.297-20.314,4.303C14.5,56.649,24.24,49.846,36.543,47.078z M7.837,100.677
			c-0.027-4.301,0.188-8.595,0.559-12.663c3.24,0.321,7.439,1.32,7.879,5.006c0.539,4.515-5.042,6.552-8.376,7.623
			C7.875,100.65,7.86,100.668,7.837,100.677z M19.637,125.104c-0.584,1.614-0.94,3.271-1.093,4.934
			c-4.516-1.964-7.264-6.696-8.867-12.685c0.028,0.004,0.036,0.027,0.064,0.03c2.872,0.281,5.774,0.319,8.657,0.445
			c1.546,0.068,3.107,0.337,4.652,0.431C21.656,120.409,20.5,122.722,19.637,125.104z M57.077,132.595
			c-2.13,6.494-8.895,11.492-15.302,13.075c-8.271,2.044-14.568-5.634-15.056-13.354c-0.364-5.769,3.494-11.091,7.633-14.658
			c4.296-3.7,8.958-4.208,13.881-2.05c0.06,0.201,0.065,0.415,0.158,0.603c1.688,3.404,6.133,4.359,8.253,7.705
			C58.347,126.603,58.021,129.718,57.077,132.595z M127.195,133.715c-8.57-1.401-18.174,0.077-26.706,0.175
			c-11.744,0.133-23.368-0.062-35.041-1.017c0.772-3.288,0.742-6.712-0.372-9.942c20.961,2.699,43.637,3.915,64.45,1.456
			C128.18,127.377,127.353,130.579,127.195,133.715z M152.102,144.439c-8.345,2.95-17.925-2.947-17.566-11.818
			c0.333-8.223,7.022-14.221,14.367-16.486c0.578,0.995,1.584,1.755,2.858,1.782c2.82,0.062,4.845-0.507,7.016,1.679
			c2.094,2.106,2.467,5.771,2.542,8.555C161.49,134.526,158.526,142.168,152.102,144.439z M168.195,131.058
			c0.205-3.763-0.256-7.516-1.306-10.789c2.033,0.32,4.075,0.586,6.128,0.8c2.468,0.258,5.508,0.812,8.287,0.739
			C178.821,127.541,174.591,131.218,168.195,131.058z M183.223,115.496c-2.825-0.479-6.097,0.072-8.847,0.115
			c-3.306,0.052-6.607-0.091-9.895-0.423c-2.901-4.322-7.382-6.489-13.158-4.146c-0.273-0.148-0.574-0.257-0.903-0.298
			c-7.151-0.877-13.328,2.683-17.519,8.025c-0.373-0.245-0.779-0.44-1.239-0.499c-22.612-2.905-46.483,0.271-69.448-0.582
			c-2.954-3.909-7.451-7.332-11.827-6.386c-0.14,0.029-0.219,0.133-0.346,0.179c-3.577-4.562-10.048-5.217-15.523-3.061
			c-3.063,1.206-5.702,3.113-7.954,5.424c-0.065-0.026-0.087-0.092-0.157-0.112c-2.596-0.76-5.326,0.048-8.007,0.165
			c-2.883,0.126-5.785,0.163-8.657,0.444c-0.305,0.03-0.477,0.199-0.686,0.33c-0.65-3.232-0.986-6.762-1.141-10.366
			c0.156,0.026,0.305,0.066,0.487,0.049c6.282-0.589,12.692-4.442,12.927-11.335c0.226-6.595-6.485-10.124-12.312-10.72
			c0.351-2.731,0.739-5.225,1.124-7.396c8.426-0.134,18.683-0.22,26.041-4.257c7.541-4.138,9.73-17.173,5.779-24.507
			c4.043-0.527,8.304-0.63,12.619-0.557c0.912,12.127-3.237,25.977,12.392,28.852c6.863,1.262,15.326,1.291,20.858-3.673
			c5.759-5.168,6.99-12.726,5.841-20.048c2.782,0.557,5.379,1.077,7.81,1.551c-3.463,11.482,1.188,25.874,14.606,26.922
			c12.47,0.973,19.823-12.339,18.985-23.401c2.052,0.13,4.1,0.274,6.145,0.432c0.688,10.89,8.41,20.727,17.831,25.762
			c5.995,3.203,16.6,3.396,20.019-2.91C183.444,90.61,185.299,104.83,183.223,115.496z"/>
	</g>
</g>
<g>
</g>
<g>
</g>
<g>
</g>
<g>
</g>
<g>
</g>
<g>
</g>
<g>
</g>
<g>
</g>
<g>
</g>
<g>
</g>
<g>
</g>
<g>
</g>
<g>
</g>
<g>
</g>
<g>
</g>
</svg>
