<?xml version='1.0' encoding='iso-8859-1'?>
<!DOCTYPE svg PUBLIC '-//W3C//DTD SVG 1.1//EN' 'http://www.w3.org/Graphics/SVG/1.1/DTD/svg11.dtd'>
<svg version="1.1" xmlns="http://www.w3.org/2000/svg" viewBox="0 0 427.388 427.388" xmlns:xlink="http://www.w3.org/1999/xlink" enable-background="new 0 0 427.388 427.388">
  <g>
    <path d="m339.224,278.814c12.646,8.817 21.183,21.017 26.111,35.699 6.146,18.311 6.182,36.217-4.559,53.068-6.439,10.102-15.349,16.895-27.497,18.441-34.158,4.348-65.315-1.472-90.312-27.378-2.809-2.911-5.277-6.152-8.696-10.172-5.997,9.381-12.616,14.868-23.136,13.01-10.184-1.798-15.043-9.484-19.618-17.429-7.917,7.995-14.876,16.055-22.878,22.894-18.133,15.495-38.738,25.586-63.284,24.736-6.538-0.227-13.205-1.385-19.498-3.203-19.84-5.73-28.925-16.935-29.808-37.471-1.132-26.341 5.347-51.16 17.266-74.51 5.845-11.451 12.522-22.477 19.362-34.655-4.932-2.908-10.042-6.395-15.543-9.078-18.4-8.975-34.23-21.669-49.773-34.626-15.45-12.879-23.315-30.796-26.058-49.965-5.094-35.589 4.695-67.263 30.526-92.974 15.2-15.129 34.169-20.236 54.955-16.385 19.828,3.674 38.031,11.454 52.727,25.995 3.927,3.885 8.092,7.533 12.213,11.217 20,17.881 30.96,40.819 37.246,66.391 0.79,3.215 1.682,6.405 2.578,9.592 0.067,0.24 0.547,0.363 2.007,1.265 2.912-3.097 6.051-6.433 9.285-9.872-9.05-16.903-11.024-35.765-16.299-53.636-1.771-5.999-3.084-12.155-5.228-18.013-1.203-3.287-3.308-6.435-5.651-9.074-5.661-6.375-6.503-16.634-1.463-23.24 3.679-4.822 10.288-5.133 14.328-0.395 4.417,5.178 4.727,11.231 3.493,17.722-0.718,3.776-1.428,7.985-0.496,11.572 5.919,22.768 12.296,45.417 18.858,69.325 4.225-0.792 9.083-1.703 14.082-2.64 3.147-15.468 6.16-30.555 9.299-45.615 2.531-12.142 7.872-23.784 5.158-36.804-0.821-3.939 1.06-8.63 5.72-9.523 2.801-0.537 6.746,0.348 8.927,2.126 3.88,3.164 4.158,8.288 0.975,11.916-4.464,5.088-5.308,11.113-6.724,17.179-4.269,18.282-8.289,36.638-13.261,54.73-1.648,5.997-0.539,9.73 3.167,12.503 8.053-13.41 15.509-27.324 24.406-40.245 10.054-14.6 22.295-27.406 36.801-37.89 17.315-12.515 36.92-17.783 57.928-19.01 9.538-0.557 18.171,1.992 26.444,6.508 12.5,6.823 22.78,16.263 31.827,27.057 8.132,9.702 11.125,21.491 11.964,33.801 1.431,21.002-2.389,40.839-12.201,59.77-13.585,26.209-27.129,52.428-45.904,75.363-9.053,11.057-19.488,20.986-29.766,31.923zm-90.388,67.598l-.199-.24c12.168,14.097 26.751,24.32 45.607,26.756 9.809,1.267 19.768,1.528 29.672,1.868 12.369,0.425 20.857-5.58 26.456-16.443 12.346-23.951 0.347-59.874-24.347-72.416-9.367-4.758-9.272-7.963-1.355-14.85 10.518-9.15 21.1-18.438 30.272-28.88 19.351-22.03 32.346-48.202 46.155-73.838 7.329-13.607 11.373-27.958 12.598-43.107 1.113-13.76 0.13-27.64-8.328-39.156-7.185-9.782-16.161-18.028-26.859-24.314-7.974-4.685-16.223-6.709-25.341-5.63-15.905,1.883-31.168,5.684-44.322,15.378-31.884,23.498-52.222,55.418-66.496,91.697-0.515,1.308-0.343,2.915-0.364,4.385-0.307,21.736-0.79,43.472-0.834,65.208-0.064,30.9 2.227,61.874-3.566,92.559-0.624,3.303-0.533,6.74-0.774,10.115 0.596,0.099 1.191,0.198 1.787,0.297 2.614-4.601 5.228-9.202 7.841-13.802 0.466,0.269 0.932,0.538 1.398,0.807-2.179,4.951-4.358,9.902-6.639,15.084 2.774,3.096 5.206,5.809 7.638,8.522zm-151.845,32.667c3.688,0.669 6.454,1.564 9.234,1.611 19.402,0.333 35.354-8.331 50.574-19.26 12.547-9.01 20.262-22.143 29.875-33.657 1.024-1.227 1.4-3.318 1.415-5.014 0.134-15.05 0.286-30.104 0.115-45.152-0.398-34.971-0.968-69.941-1.491-104.911-0.022-1.454-0.009-2.992-0.457-4.343-3.332-10.053-7.065-19.982-10.127-30.114-7.589-25.117-22.31-45.092-41.823-62.416-13.02-11.56-27.193-20.017-43.895-24.369-22.279-5.805-40.508,0.719-55.178,18.235-8.437,10.071-13.332,21.844-17.893,33.986-4.727,12.585-2.166,25.598-3.545,38.351-0.045,0.416 0.819,0.931 1.273,1.397 1.119-0.486 2.239-0.972 4.199-1.824-4.698,10.797-4.698,10.797 0.458,18.74 1.83-1.538 3.648-3.067 5.466-4.596 0.32,0.235 0.639,0.471 0.959,0.706-1.811,3.416-3.622,6.833-5.729,10.808 2.199,3.844 4.414,7.716 7.053,12.33 2.192-2.989 3.415-4.656 4.637-6.322 0.501,0.313 1.002,0.627 1.504,0.94-1.026,3-2.052,6.001-3.271,9.564 2.709,2.443 5.319,4.796 7.919,7.14 3.553-3.76 6.485-6.863 9.417-9.966 0.47,0.375 0.94,0.749 1.41,1.124-2.044,4.114-4.088,8.228-6.326,12.731 3.865,2.559 7.097,4.699 10.09,6.682 3.315-2.658 5.933-4.759 10.173-8.159-2.657,5.147-4.259,8.251-6.043,11.705 3.19,2.207 5.812,4.02 8.572,5.929 3.871-3.483 7.312-6.578 10.752-9.673 0.328,0.408 0.655,0.816 0.983,1.224-2.415,3.596-4.829,7.193-7.731,11.514 3.955,2.165 7.341,4.019 10.723,5.87 5.552-6.112 10.51-11.571 15.468-17.03 0.525,0.429 1.049,0.859 1.574,1.289-3.736,5.631-7.473,11.262-11.743,17.696 4.176,2.147 7.605,3.909 12.142,6.241 7.294-7.334 14.316-14.396 21.339-21.457 0.256,0.22 0.512,0.44 0.768,0.66-6.054,7.629-12.109,15.258-18.007,22.69 2.31,4.562 4.675,5.247 7.792,1.752 2.787-3.124 5.676-6.157 8.52-9.23-2.647,8.299-10.714,13.732-9.729,23.402 0.082,0.805-1.319,1.7-1.883,2.641-8.297,13.856-17.021,27.484-24.655,41.697-3.779,7.036-5.816,15.077-8.018,22.841-0.568,2.003 1.22,4.674 2.636,9.42-2.546,6.167-10.947,14.024-5.58,25.701 3.478-3.791 6.555-7.144 9.631-10.497-1.04,5.427-3.678,9.664-6.395,13.85-4.608,7.099-4.43,11.372 1.066,17.601 4.245,4.81 9.581,7.683 15.741,8.847 3.871-5.929 7.457-11.42 11.043-16.912 0.588,0.369 1.175,0.738 1.763,1.108-2.117,5.283-4.234,10.565-6.765,16.879zm114.23-148.704c0.521,0.453 1.042,0.906 1.563,1.359-3.429,4.529-6.851,9.064-10.291,13.585-3.466,4.555-4.904,9.269-1.526,15.122 5.19-4.841 9.871-9.207 14.552-13.574 0.575,0.492 1.149,0.983 1.724,1.475-3.545,4.417-7.141,8.794-10.62,13.263-3.49,4.482-9.867,7.898-6.315,15.819 3.783-3.291 7.067-6.147 10.35-9.002-4.949,10.988-15.997,19.137-9.872,33.852 3.225-3.697 5.991-6.869 8.758-10.04-0.606,4.667-2.223,8.837-5.019,11.946-5.572,6.194-6.216,13.253-4.45,20.628 1.774,7.412 3.139,15.402 7.006,21.716 5.292,8.641 14.939,6.837 18.581-2.645 1.312-3.416 2.224-7.063 2.752-10.687 1.749-12.01 3.312-24.048 4.796-36.094 0.628-5.101 1.418-10.269 1.217-15.37-1.204-30.525-2.826-61.034-3.967-91.562-0.357-9.559 0.678-19.166 0.42-28.733-0.144-5.329-1.638-10.621-2.448-15.471-14.612-2.386-16.1-2.048-22.286,4.513-8.651,9.175-11.99,22.056-8.891,35.276 3.15-2.901 6.111-5.627 9.072-8.353-3.215,9.369-14.367,15.359-8.05,27.715 3.312-3.097 6.525-6.102 11.21-10.484-3.729,10.34-15.614,15.102-10.31,27.246 4.317-3.69 8.224-7.028 12.13-10.367 0.493,0.513 0.987,1.026 1.48,1.54-3.28,3.783-6.254,7.899-9.915,11.267-5.069,4.663-6.501,9.501-2.53,15.888 3.693-3.337 7.286-6.582 10.879-9.828z"/>
    <path d="m344.559,124.406c2.854-1.075 5.157-2.003 7.499-2.814 6.931-2.401 13.738-5.349 20.845-7.008 15.85-3.701 26.346,6.834 22.076,22.418-5.675,20.71-16.836,37.673-37.309,46.392-16.722,7.121-33.834,13.348-50.904,19.615-4.455,1.635-6.884-2.358-8.209-5.658-3.276-8.161-7.012-16.356-8.673-24.904-3.902-20.078-4.113-40.147 4.543-59.422 3.769-8.392 9.171-14.888 18.272-17.875 14.267-4.683 27.006,2.177 30.297,16.735 0.869,3.837 1.003,7.841 1.563,12.521z"/>
    <path d="m296.474,318.058c2.964-5.4 5.003-10.609 8.329-14.797 4.155-5.232 9.398-4.813 12.387,1.07 7.242,14.255 9.249,29.342 4.099,44.747-2.349,7.026-9.508,6.844-14.928,6.728-13.598-0.292-25.53-6.184-36.418-13.958-5.064-3.616-5.49-7.801-2.489-13.532 5.898-11.263 13.977-14.185 29.02-10.258z"/>
    <path d="m248.836,346.412c0.024-8.997 5.117-15.184 12.588-19.999-4.271,6.576-8.542,13.152-12.8,19.744 0.012,0.015 0.212,0.255 0.212,0.255z"/>
    <path d="m73.005,111.087c2.064-6.056 3.315-11.09 5.45-15.716 4.647-10.068 12.443-13.302 22.712-8.809 6.675,2.92 12.93,6.972 18.993,11.078 7.341,4.97 9.814,13.098 10.188,21.196 0.714,15.43 0.366,30.914 0.299,46.374-0.025,5.789-2.083,9.222-8.928,7.113-1.692-0.521-4.176,0.62-5.996,1.57-12.033,6.28-24.574,6.961-37.528,3.78-11.452-2.812-23.05-5.376-32.834-12.442-19.959-14.414-20.986-34.435 0.833-49.23 7.866-5.334 16.619-7.372 26.811-4.914z"/>
    <path d="m115.182,351.312c-11.048-11.36-18.774-23.914-21.034-38.663-1.972-12.872 5.757-22.575 15.682-29.733 4.612-3.326 10.681-2.512 15.842,0.283 2.847,1.542 5.372,3.68 8.217,5.671 3.822-1.454 7.758-3.536 11.946-4.424 8.743-1.854 14.297,2.801 14.289,11.79-0.011,12.69-3.584,24.006-14.182,32.002-7.6,5.735-15.439,11.153-23.12,16.783-2.232,1.637-4.286,3.516-7.64,6.291z"/>
    <path d="m89.081,352.14c-3.058,5.582-6.115,11.164-9.79,17.874-0.255-8.661 0.629-10.495 9.79-17.874z"/>
  </g>
</svg>
