<?xml version='1.0' encoding='iso-8859-1'?>
<!DOCTYPE svg PUBLIC '-//W3C//DTD SVG 1.1//EN' 'http://www.w3.org/Graphics/SVG/1.1/DTD/svg11.dtd'>
<svg version="1.1" xmlns="http://www.w3.org/2000/svg" viewBox="0 0 424.381 424.381" xmlns:xlink="http://www.w3.org/1999/xlink" enable-background="new 0 0 424.381 424.381">
  <g>
    <path d="m25.943,267.954c-0.52-7.348-1.281-14.482-1.473-21.631-0.329-12.269-0.135-24.554-0.547-36.819-0.1-2.967-1.089-6.297-2.729-8.751-6.77-10.13-7.426-19.912-0.278-30.21 4.779-6.886 8.275-14.409 8.001-23.205-0.048-1.542 1.178-3.123 1.749-4.522 1.343,0.114 2.442-0.093 2.688,0.273 4.975,7.401 10.772,14.437 14.509,22.432 4.368,9.343 4.472,19.605 0.948,29.579-1.079,3.055-2.355,6.04-3.731,9.541 6.336,6.066 6.04,14.105 6.242,22.018 0.35,13.718 0.703,27.436 1.077,42.016 7.49,0 14.142,0 21.285,0 0-4.741 0.176-9.322-0.03-13.885-1.067-23.661-1.797-47.35-3.51-70.966-1.212-16.705-1.365-17.386 14.937-22.298-0.289-6.583-0.381-13.389-0.934-20.158-0.762-9.329-2.156-18.615-2.64-27.952-0.125-2.403 2.142-4.93 3.558-7.925-8.171-9.035-7.243-18.731-0.951-29.282 3.161-5.301 4.284-11.817 6.874-19.374 10.255,16.282 16.66,31.954 10.813,50.461 10.885,17.212 7.617,36.879 9.153,56.214 4.247,0 8,0 12.668,0-0.915-8.764-1.889-16.905-2.583-25.068-0.734-8.631-1.589-17.28-1.682-25.929-0.109-10.11 1.321-11.164 11.202-11.433 11.075-0.301 22.146-0.718 33.219-1.084 0.257-0.742 0.514-1.485 0.771-2.227-5.597-4.236-10.987-8.787-16.83-12.651-19.665-13.005-24.289-32.799-22.965-54.111 1.188-19.128 28.648-31.538 43.202-19.384 4.434,3.703 9.073,7.159 13.8,10.871 4.167-4.42 7.815-9.611 12.684-13.1 5.42-3.885 11.667-7.687 18.057-8.924 12.974-2.511 24.581,5.31 28.438,17.978 2.987,9.808 4.087,19.858 0.591,29.883-4.514,12.946-9.042,25.887-13.601,38.817-1.173,3.328-2.483,6.607-4.088,10.858 10.314,0 19.583-0.253 28.834,0.06 13.596,0.46 15.357,2.537 16.164,15.997 0.82,13.675 1.952,27.332 3.06,42.541 9.493-0.504 18.283-0.97 27.321-1.449 3.646-16.582-3.954-33.46 2.44-51.417-0.683-1.06-2.887-3.908-4.481-7.064-4.272-8.458-4.776-17.267-1.626-26.23 2.953-8.402 5.956-16.786 8.984-25.313 4.672,0.863 17.217,15.283 20.665,24.496 3.323,8.88 2.411,16.478-4.003,32.744 8.309,11.678 4.774,25.319 5.626,38.309 0.305,4.652 0.049,9.34 0.049,14.876 2.678,0.365 5.408,0.755 8.143,1.107 8.41,1.084 11.329,4.006 12.241,12.38 3.088,28.327 6.157,56.656 9.259,84.981 0.074,0.679 0.446,1.326 0.935,2.712 4.204,0 8.647,0 14.505,0 0-5.895 0.031-11.204-0.006-16.513-0.087-12.302-0.445-24.611-0.161-36.904 0.08-3.473 2-6.904 3.576-11.956-1.998-2.856-5.427-7.453-8.511-12.27-2.381-3.718-4.21-7.941-1.87-12.249 6.623-12.197 10.779-25.087 10.903-39.248 7.757,2.482 16.295,16.272 19.965,29.438 3.648,13.088-3.427,23.018-8.541,32.77 2.29,3.165 5.635,5.688 5.911,8.512 1.823,18.589 2.985,37.243 4.416,56.608 1.07,0.267 3.474,0.878 5.883,1.464 4.792,1.165 7.337,3.919 7.529,9.127 0.558,15.153 1.17,30.31 2.163,45.439 1.063,16.191 3.342,32.338 3.662,48.532 0.253,12.813 3.313,24.967 5.446,37.378 3.431,19.958 1.2,22.701-19.142,23.435-8.674,0.313-17.371-0.001-26.057,0.003-49.563,0.023-99.133-0.461-148.687,0.247-41.196,0.588-82.364,3.108-123.56,3.756-25.289,0.398-50.622-0.806-75.9-2.025-5.434-0.262-11.178-2.941-15.936-5.875-4.799-2.959-6.316-8.612-6.465-14.284-0.197-7.537-0.163-15.083-0.529-22.611-0.383-7.861-0.759-15.751-1.777-23.545-2.812-21.537-5.105-43.063-2.15-64.775 0.389-2.859 0.85-5.724 1.534-8.524 2.62-10.719 4.099-11.91 15.235-13.183 2.111-0.244 4.173-0.892 7.059-1.529zm94.382-16.499c-2.535,5.587-5.07,11.173-7.906,17.422 5.874,0.759 10.79,1.205 14.074-2.627 6.435-7.51 12.292-15.516 18.404-23.336-12.034-7.605-12.034-7.605-18.871,1.94-15.507,0.585-24.809,8.155-29.318,23.871 6.876,2.332 11.529,0.331 14.946-6.343 2.078-4.058 5.727-7.312 8.671-10.927zm14.165,108.595c13.066,16.053 35.547,15.105 55.909-2-10.808-14.967-11.344-30.828-3.146-46.997 4.16-8.205 10.183-10.587 19.021-8.15 8.243,2.273 14.008,7.262 15.739,16.083 2.302,11.731-0.793,22.153-7.676,31.629-2.248,3.095-4.697,6.045-7.135,9.166 20.721,11.461 39.902,9.642 57.016-4.948-1.997-4.494-4.131-8.998-6.019-13.603-3.964-9.672-4.724-19.583-1.826-29.698 2.66-9.287 9.23-14.679 17.838-14.633 8.198,0.043 14.618,4.983 17.303,13.875 3.552,11.763 1.549,22.877-4.798,33.254-2.402,3.927-5.051,7.704-7.566,11.517 15.62,11.203 38.98,9.56 54.654-3.615-1.22-1.309-2.308-2.747-3.653-3.878-13.401-11.267-12.208-40.042 5.938-52.373 10.044-6.826 19.524-3.423 22.379,8.304 3.379,13.881 2.029,27.251-5.116,39.849-1.497,2.639-2.738,5.423-4.248,8.443 18.591,7.599 36.277,8.621 53.798,2.602-1.208-26.751-2.313-52.303-3.589-77.847-0.138-2.757-1.272-5.463-1.907-8.04-11.06,0-21.521-0.397-31.942,0.071-39.687,1.779-79.357,3.953-119.043,5.758-36.099,1.642-72.265,2.212-108.302,4.701-34.715,2.398-69.363,1.532-104.056,1.078-5.295-0.069-10.599,0.517-15.453,0.777-4.879,17.111-6.43,44.719-3.29,57.494 3.938-5.188 7.595-10.004 11.251-14.821-1.623,6.312-4.628,11.572-8.073,16.524-3.247,4.668-2.886,8.461 1.946,12.507 5.07-7.204 9.958-14.149 14.846-21.093 0.633,0.415 1.266,0.83 1.899,1.244-2.525,4.668-5.355,9.202-7.486,14.044-1.976,4.491-8.587,8.023-3.658,15.345 2.623-2.85 4.661-5.064 6.699-7.279 0.297,0.205 0.594,0.41 0.891,0.615-1.235,3.512-2.47,7.024-3.645,10.363 12.761,9.225 27.368,7.772 40.951-3.967-11.501-12.488-11.997-27.121-7.827-42.633 1.184-4.405 2.696-8.628 7.579-9.612 5.38-1.084 8.904,2.475 11.46,6.562 6.824,10.91 9.453,22.577 5.284,35.182-1.113,3.364-2.388,6.674-3.877,10.809 14.396,6.273 26.199,0.758 38.382-5.665-0.424-2.976-0.705-5.449-1.137-7.896-1.922-10.886-1.07-21.677 1.947-32.179 2.832-9.856 9.023-12.257 18.354-8.035 5.253,2.377 9.477,6.204 10.54,11.671 2.282,11.735 1.932,23.175-8.409,31.784-2.993,2.493-5.85,5.149-8.747,7.711zm136.684,1.678c-21.818,15.824-44.537,18.833-68.352,5.834-3.879-2.117-6.648-0.823-10.071,0.644-8.929,3.826-17.833,7.889-27.095,10.716-12.385,3.78-23.447-0.288-33.294-8.081-2.212-1.751-4.203-3.781-6.707-6.056-15.881,7.489-31.916,12.682-47.387,4.071-19.115,5.583-23.484,23.497-35.352,37.69 1.473-11.902 9.953-17.76 13.094-26.912-6.073,0-11.622,0-17.415,0-6.262,10.687-12.418,21.193-19.104,32.603 11.709,2.439 23.308,2.203 33.953,0.196 7.152-11.199 13.663-21.396 20.175-31.593 0.683,0.399 1.366,0.797 2.048,1.196-5.475,9.795-10.949,19.591-17.374,31.087 7.175-0.658 12.398-1.137 16.151-1.481 6.098-9.388 11.395-17.542 16.691-25.695 0.664,0.41 1.329,0.821 1.993,1.232-4.213,7.727-8.426,15.454-13.233,24.271 6.779,0 12.053,0 17.358,0 4.658-6.867 9.329-13.753 14-20.639 0.648,0.389 1.295,0.778 1.943,1.167-3.442,6.276-6.885,12.552-10.745,19.59 5.89,0 10.176,0 14.528,0 5.48-9.014 11.029-17.698 19.725-23.902-4.727,7.517-9.454,15.034-14.806,23.544 6.229,0 11.098,0 15.186,0 6.003-8.891 11.681-17.302 17.359-25.712 0.834,0.511 1.669,1.022 2.503,1.533-4.73,7.77-9.459,15.54-15.174,24.931 5.787-0.594 9.886-1.014 13.636-1.399 4.09-9.291 9.216-16.817 17.474-22.104-4.187,6.813-8.373,13.626-13.157,21.411 2.921,0.301 4.598,0.675 6.26,0.614 27.8-1.008 55.591-2.704 83.397-2.982 49.184-0.492 98.376-0.118 147.565-0.145 3.795-0.002 7.591-0.309 12.542-0.524-2.217-14.864-4.218-28.273-6.329-42.423-19.635,4.921-38.454,3.141-56.672-4.333-4.083-1.675-6.703,0.205-9.93,1.983-21.381,11.778-42.897,14.521-65.384-0.332zm69.596-134.751c-2.351-20.59-4.51-39.494-6.7-58.676-17.056-1.876-33.495-2.26-50.151-1.038-33.157,2.433-66.369,4.402-99.593,5.558-31.786,1.105-63.618,0.917-95.428,1.366-2.009,0.028-4.01,0.649-7.282,1.211 1.388,14.5 3.167,28.409 3.849,42.371 0.295,6.045 0.216,11.514 5.592,16.017 3.587-4.549 6.744-8.552 9.9-12.556 0.426,0.276 0.852,0.552 1.278,0.829-2.942,5.545-5.884,11.09-8.62,16.246 8.032,8.52 15.385,1.503 22.613,0.014 4.205-0.867 7.969-3.874 11.858-5.881-6.494-13.292-7.54-22.314-4.168-31.456 3.673-9.958 12.04-11.457 19.145-3.431 5.641,6.373 6.677,16.947 2.367,25.458-1.54,3.04-3.357,5.939-5.289,9.324 19.7,9.619 34.638-0.437 50.678-8.347-5.071-9.66-6.266-18.796-3.699-28.252 2.612-9.619 11.024-12.762 19.473-7.416 8.203,5.19 10.471,16.347 4.981,25.97-2.096,3.674-4.873,6.959-7.294,10.358 14.5,12.611 29.532,12.294 49.149-1.082-4.822-10.01-4.838-20.644-2.035-31.357 1.314-5.02 3.168-9.734 9.266-10.759 5.523-0.928 11.161,1.66 14.42,7.548 5.376,9.712 4.706,19.425-1.17,28.77-1.647,2.62-3.535,5.088-5.656,8.116 13.675,5.164 24.723,0.957 35.041-4.592-0.496-6.368-1.338-11.728-1.226-17.067 0.152-7.198 3.121-13.386 9.016-17.764 7.061-5.244 13.458-2.231 14.465,6.599 1.206,10.571 0.356,20.714-8.209,31.134 8.666,1.033 15.217,1.81 23.429,2.785zm-129.007-128.7c6.154-16.908 12.421-33.789 18.422-50.765 2.823-7.985 3.068-16.198 0.995-24.495-3.571-14.292-15.288-18.531-26.959-9.419-6.986,5.454-12.384,11.941-12.751,21.592-0.091,2.395-2.103,6.472-3.631,6.667-2.669,0.342-5.814-1.428-8.428-2.902-1.424-0.802-2.024-2.947-3.243-4.256-4.665-5.004-9.283-10.069-14.211-14.806-3.287-3.159-7.352-4.331-12.002-2.92-9.367,2.843-15.332,10.255-14.611,20.147 0.489,6.705 2.041,13.472 4.153,19.869 1.301,3.941 0.205,9.779 6.245,11.296 1.774-1.854 3.468-3.625 5.162-5.395 0.301,0.281 0.602,0.562 0.903,0.843-1.278,2.849-2.555,5.697-4.162,9.28 5.299,3.95 10.339,7.707 15.691,11.696 5.336-8.224 10.353-15.18 18.652-18.764-4.991,6.945-9.982,13.889-15.454,21.503 5.652,4.099 10.479,7.769 15.509,11.134 1.376,0.921 3.384,1.353 5.069,1.278 7.547-0.337 15.084-0.94 24.651-1.583zm-21.922,165.735c50.787-1.568 101.601,0.189 153.531-5.395-0.721-8.618-1.336-15.978-1.913-22.876-11.202-2.324-21.301-4.418-33.598-6.968-0.301,0.137-2.895,1.358-5.524,2.501-12.709,5.528-25.617,7.863-38.623,1.256-4.042-2.054-6.985-0.312-10.065,1.456-19.535,11.213-38.374,11.12-56.458-3.188-0.496-0.392-1.371-0.306-2.427-0.513-14.255,7.119-28.592,15.135-45.872,12.825-6.043,8.052-11.938,15.907-18.492,24.641 11.555-0.199 11.46-0.285 17.422-6.871 2.313-2.555 3.632-6.657 8.72-6.639-2.505,4.208-4.734,7.952-7.032,11.814 8.434,3.25 11.922-3.279 17.164-6.579-0.202,2.479-0.357,4.381-0.53,6.495 8.946,0.333 17.232,0.528 23.392-7.57 0.123,2.282 0.196,3.617 0.305,5.611zm67.662-125.826c0-10.88 0-20.402 0-30.703-42.944,1.065-84.735,2.102-127.775,3.169 0.538,8.806 0.404,16.739 1.672,24.441 1.198,7.278 7.084,12.471 13.287,12.311 6.382-0.165 12.909-0.857 18.077-5.169-0.765-5.327-1.752-10.221-2.084-15.158-0.247-3.677 0.501-8.232 4.857-8.368 2.919-0.091 6.627,2.268 8.771,4.63 5.432,5.983 3.221,12.686-0.675,19.528 10.775,5.826 17.512-1.337 25.287-5.268-0.49-2.501-1.029-4.568-1.268-6.668-0.244-2.143-0.382-4.333-0.237-6.48 0.412-6.111 3.718-10.354 7.912-9.735 5.125,0.756 7.392,4.505 7.185,9.332-0.225,5.234-1.144,10.439-1.789,15.902 7.955,3.781 15.189,3.552 22.373-2.501-0.797-3-2.128-5.735-2.111-8.462 0.028-4.576 0.32-9.336 1.693-13.639 0.672-2.108 4.021-3.362 6.159-5.002 1.614,2.14 4.303,4.125 4.639,6.45 0.966,6.683 0.982,13.503 1.387,20.556 0.57,0.183 1.581,0.752 2.611,0.791 3.241,0.12 6.488,0.043 10.029,0.043zm-124.019,25.596c42.516-0.691 84.539-1.852 126.793-6.979-0.676-4.209-1.28-7.964-1.912-11.897-10.391-0.066-19.935-2.149-29.91,2.359-5.15,2.327-13.001,1.09-18.746-0.986-5.732-2.071-9.936-2.137-15.116,0.789-7.451,4.21-15.323,6.146-23.635,1.508-1.532-0.854-4.247-0.632-5.987,0.106-10.158,4.305-20.446,6.085-31.486,1.78-0.001,4.817-0.001,8.666-0.001,13.32zm65.848,190.857c4.961-6.265 9.264-11.018 12.762-16.305 3.705-5.598 4.307-12.134 3.107-18.681-1.06-5.778-5.997-10.237-11.717-11.121-6.529-1.01-8.704,3.545-10.789,8.315-5.734,13.123-3.658,24.98 6.637,37.792zm-171.97-143.147c1.452,19.794 2.802,38.196 4.198,57.215 4.342,0 8.032,0 11.957,0 0-19.378 0-37.95 0-57.215-5.033,0-9.493,0-16.155,0zm312.81,134.054c12.679-13.428 15.747-34.989 6.77-46.601-9.421,2.088-14.601,8.573-16.194,17.605-1.908,10.817-2.348,21.654 9.424,28.996zm-67.91,3.289c11.452-10.7 15.54-22.236 12.325-36.07-1.175-5.055-4.235-8.228-9.753-8.341-5.081-0.104-7.981,2.763-9.427,7.278-4.25,13.263-1.617,25.247 6.855,37.133zm-236.354-143.621c12.139-19.687 11.285-37.279-1.566-45.093-3.046,5.253-6.176,10.459-9.117,15.77-4.597,8.301-3.767,15.746 2.679,22.612 2.173,2.314 4.882,4.125 8.004,6.711zm273.377-101.428c13.675-16.485 13.575-32.616-0.286-46.368-13.746,20.063-13.662,33.623 0.286,46.368zm9.083,51.262c0-15.43 0-29.997 0-45.325-4.857,0.98-9.317,1.88-14.536,2.933 0.809,14.366 1.589,28.226 2.387,42.392 3.802,0 6.981,0 12.149,0zm-230.074-40.072c1.324,16.728 2.584,32.654 3.845,48.59 3.188,0 5.591,0 8.561,0 0.052-16.96 3.334-33.58-2.211-49.906-3.886,0.501-7.054,0.91-10.195,1.316zm43.584,199.168c-5.243,12.468-4.806,24.545-2.681,37.332 12.469-5.345 17.975-14.279 16.88-25.817-0.694-7.303-3.483-9.753-14.199-11.515zm257.468-58.264c-0.65-19.751-1.264-38.393-1.912-58.1-4.188,0.834-6.726,1.34-8.749,1.743 0.614,19.265 1.198,37.57 1.797,56.358 2.99-0.001 5.341-0.001 8.864-0.001zm-7.749-112.805c-1.517,4.482-2.514,8.329-4.115,11.904-1.61,3.595-3.672,7.016-5.808,10.339-2.929,4.558-2.704,8.828 0.713,12.896 2.052,2.442 4.333,4.692 6.565,7.086 12.059-14.714 12.819-25.929 2.645-42.225zm-308.46,173.81c-7.947,16.25-6.517,29.698 3.699,38.425 8.382-12.882 7.261-27.217-3.699-38.425zm187.941-98.471c10.838-7.313 13.796-19.11 7.23-27.472-2.965-3.776-6.911-3.964-8.349,0.109-3.215,9.109-5.615,18.444 1.119,27.363zm-168.788-147.834c-2.575,6.377-5.169,11.457-6.668,16.842-2.034,7.308 1.361,12.728 7.468,17.698 6.911-11.932 4.73-22.549-0.8-34.54zm41.323,155.252c11.396-8.783 11.369-20.485-0.063-26.751-6.968,9.826-6.951,17.314 0.063,26.751zm-46.785,43.561c7.532-4.715 10.701-12.703 15.551-19.661-4.637-1.764-8.602-3.272-12.607-4.795-7.796,6.899-4.388,15.408-2.944,24.456zm111.615-76.681c-6.666,9.723-6.593,16.159 0.303,25.265 5.79-4.455 9.316-9.947 8.244-17.505-0.688-4.854-3.614-7.556-8.547-7.76zm-173.084,180.347c-8.197,9.16-6.468,18.561-4.803,30.094 5.534-9.43 9.958-16.968 14.487-24.685-3.802-2.124-6.555-3.661-9.684-5.409zm286.186-157.226c8.662-8.095 9.541-12.947 4.109-23.704-6.566,7.211-8.689,14.717-4.109,23.704zm-144.54-89.306c0.322,2.836 0.644,5.672 1.156,10.176 4.527-4.809 3.24-7.592-1.156-10.176zm-146.814,240.55c-0.901,0.039-1.803,0.078-2.704,0.117 0.214,1.998 0.427,3.996 0.641,5.993 0.688-0.036 1.375-0.072 2.063-0.108 0-2 0-4.001 0-6.002z"/>
  </g>
</svg>
