<?xml version='1.0' encoding='iso-8859-1'?>
<!DOCTYPE svg PUBLIC '-//W3C//DTD SVG 1.1//EN' 'http://www.w3.org/Graphics/SVG/1.1/DTD/svg11.dtd'>
<svg version="1.1" xmlns="http://www.w3.org/2000/svg" viewBox="0 0 386.483 386.483" xmlns:xlink="http://www.w3.org/1999/xlink" enable-background="new 0 0 386.483 386.483">
  <g>
    <path d="m194.597,76.327c0.837-3.111 1.426-4.818 1.75-6.573 7.429-40.271 57.673-70.793 93.109-69.726 5.776,0.174 11.657-0.257 17.306,0.688 15.855,2.65 28.823,10.08 39.538,22.577 16.892,19.701 24.697,42.965 29.631,67.699 4.024,20.17 1.697,40.285-0.103,60.451-0.993,11.126-1.897,22.344-1.588,33.486 1.017,36.763-2.53,73.182-12.581,108.352-7.606,26.615-18.048,52.56-36.088,74.671-7.454,9.136-16.469,14.233-27.578,15.234-36.041,3.247-72.265,5.874-108.06-1.131-21.207-4.15-41.766-11.501-62.826-16.538-29.79-7.125-55.327-22.661-80.566-38.987-6.629-4.288-11.624-10.159-13.546-17.727-2.746-10.815-5.353-21.785-6.521-32.848-1.168-11.059-0.364-22.318-0.714-33.48-0.086-2.753-1.307-5.467-1.985-8.204-1.895-7.647-3.945-15.262-5.624-22.956-1.837-8.418-2.362-17.248-5.167-25.303-6.206-17.819-5.824-35.502-1.088-53.331 3.907-14.709 11.498-27.078 23.495-36.848 24.242-19.743 50.438-35.306 82.297-38.207 8.468-0.771 17.47-0.229 25.691,1.84 14.305,3.599 28.2,8.832 42.249,13.435 2.685,0.877 5.289,2.01 8.969,3.426zm19.825,197.907c-1.166,6.223-3.025,11.084-2.759,15.825 0.484,8.604 2,17.179 3.541,25.683 0.958,5.288 2.152,10.69 4.302,15.573 4.033,9.16 16.082,16.711 24.369,15.138 10.242-1.944 12.836-10.692 15.016-19.224 1.788-6.995 2.653-14.248 4.751-21.135 1.949-6.397 3.232-14.066 11.54-15.619 7.734-1.446 11.746,4.378 15.658,9.606 3.151,4.212 6.744,6.121 12.133,4.65 5.1-1.393 8.666-4.194 8.969-9.49 0.681-11.892 7.345-20.978 13.632-30.2 8.595-12.607 16.827-25.514 20.979-40.234 6.069-21.514 12.086-43.136 16.209-65.073 2.982-15.868 4.643-32.437 3.601-48.479-1.016-15.639-5.86-31.093-9.674-46.468-3.944-15.898-13.561-28.799-24.82-40.095-5.122-5.138-12.267-9.111-19.222-11.4-16.338-5.375-32.952-3.387-49.012,1.918-30.49,10.071-51.341,29.962-60.514,61.216-1.055,3.593-1.695,7.307-2.496,10.825-1.719,0-2.546,0.244-3.116-0.035-18.608-9.127-38.158-15.579-58.588-18.667-8.761-1.324-18.1-1.309-26.837,0.141-28.437,4.719-52.026,19.579-72.466,38.975-17.92,17.004-22.507,39.684-18.316,62.986 2.989,16.618 7.942,32.87 9.518,49.87 0.58,6.259 2.708,13.071 9.598,16.082 4.259-11.345 8.178-21.784 12.097-32.223-0.107,11.812-6.45,21.961-6.935,34.198 7.439,0.503 11.571-2.79 14.091-8.44 1.614-3.617 2.752-7.445 4.209-11.136 0.157-0.398 1.016-0.52 2.062-1.01-0.411,3.343-0.785,6.388-1.077,8.767 5.31,1.749 9.953,3.279 15.001,4.941 0.559-0.89 1.221-2.127 2.064-3.226 0.593-0.772 1.431-1.356 2.16-2.024-2.997,9.103-1.876,16.784 3.767,24.608 2.991-5.435 5.678-10.316 8.365-15.198-0.37,6.615-2.396,12.35-4.65,17.993-2.303,5.764-0.585,9.623 5.152,12.36 3.593-8.699 7.028-17.014 10.463-25.33 0.674,0.244 1.348,0.487 2.022,0.73-2.32,8.019-4.641,16.038-7.093,24.514 11.66-1.785 13.956-10.968 17.456-17.053 5.854-0.727 11.107-2.767 15.459-1.559 5.172,1.435 9.569,5.662 12.863,7.761 2.569,12.215 1.388,23.336 6.013,34.603 5.798-8.65 7.361-18.35 16.278-23.731-4.424,10.045-8.847,20.091-13.422,30.48 1.678,1.773 3.334,3.522 5.415,5.721 4.247-9.52 8.193-18.365 12.139-27.209 0.767,0.308 1.533,0.616 2.3,0.924-3.206,8.939-6.412,17.879-10.069,28.076 8.552-0.977 12.51-5.07 15.399-10.698 3.789-7.381 7.605-14.747 11.475-22.085 0.191-0.362 1.009-0.394 2.148-0.795-0.456,2.657-0.844,4.917-1.128,6.572 4.857,1.351 9.232,2.569 14.124,3.929 1.45-1.694 3.297-3.846 5.856-6.829zm90.83,100.665c3.099-10.989 1.332-22.282 1.525-33.332-13.596,0-25.815,0-38.708,0-1.086,1.497-2.479,3.581-4.034,5.534-8.245,10.349-17.45,13.677-29.653,8.864-6.857-2.704-13.233-7.246-18.942-12.016-3.646-3.046-6.469-5.603-11.693-6.284-14.984-1.953-29.99-4.131-43.463-12.168-4.156-2.48-9.513-3.596-14.434-4.024-15.12-1.317-28.963-5.787-41.523-14.378-2.951-2.019-6.238-3.883-9.645-4.84-11.944-3.355-24.008-6.283-37.043-9.635-1.612,8.166-3.321,16.825-5.074,25.71 3.713,2.167 6.71,3.917 10.252,5.984 2.372-7.615 4.508-14.471 7.167-23.006 0.903,2.466 1.173,2.819 1.118,3.112-0.792,4.257-1.647,8.502-2.449,12.757-1.983,10.523-1.824,10.858 7.91,15.891 0.929,0.48 2.02,0.645 3.68,1.153 1.038-4.342 1.854-8.564 3.083-12.663 1.132-3.778 2.707-7.424 4.087-11.128 0.501,0.165 1.002,0.33 1.504,0.495-1.716,8.687-3.431,17.375-5.164,26.149 5.715,3.043 10.384,5.53 15.328,8.162 1.203-5.32 2.015-9.573 3.15-13.739 1.085-3.978 2.507-7.864 3.78-11.791 0.695,0.214 1.39,0.428 2.085,0.643-1.215,6.994-2.597,13.964-3.597,20.989-0.917,6.44-0.735,6.466 7.675,7.425 4.025-7.553 4.837-16.741 12.401-22.773-2.497,8.421-4.993,16.843-7.635,25.756 5.246,1.577 9.286,2.791 13.876,4.17 2.473-7.441 4.723-14.209 6.972-20.978 0.564,0.164 1.129,0.328 1.693,0.492-1.127,7.316-2.253,14.632-3.468,22.522 4.206,0.416 7.267,0.719 10.296,1.019 2.612-7.361 4.955-13.962 7.297-20.562 0.729,0.235 1.459,0.469 2.188,0.704-1.583,7.094-3.166,14.187-4.846,21.716 3.006,0.643 4.71,1.007 6.81,1.456 1.237-3.612 2.248-7.037 3.582-10.331 1.301-3.214 2.932-6.294 4.418-9.434 0.537,0.257 1.073,0.515 1.61,0.772-1.553,6.552-3.106,13.104-4.809,20.289 3.645,1.037 6.521,1.856 9.654,2.748 2.392-8.004 4.528-15.151 6.665-22.297 0.186,6.248-1.35,12.072-2.591,17.957-1.028,4.873 0.398,7.807 5.872,6.774 1.846-4.696 3.546-9.02 5.245-13.345 0.54,0.209 1.079,0.417 1.619,0.626-0.88,4.448-1.759,8.895-2.598,13.139 13.854,6.641 100.567,7.787 118.827,5.716zm-271.844-129.209c0.691,8.644 0.978,16.192 2.067,23.623 0.361,2.461 2.251,5.518 4.354,6.772 13.957,8.326 28.04,16.751 44.452,19.154 8.793,1.288 16.733,3.964 24.223,8.671 10.179,6.397 20.964,11.44 33.272,11.998 9.946,0.451 19.23,3.341 27.987,7.795 11.526,5.862 24.108,4.973 38.338,7.655-5.425-11.304 0.038-23.208-8.59-32.378 0.672-3.799 5.335-8.155-1.439-12.578-1.665,2.332-3.411,4.477-4.816,6.826-1.665,2.785-2.812,5.892-4.57,8.609-10.346,15.989-29.318,16.326-40.333,0.744-4.485-6.344-6.811-13.414-7.255-21.231-0.389-6.844-0.813-13.769-2.275-20.427-0.571-2.602-3.682-5.363-6.304-6.469-1.156-0.488-4.655,2.57-5.913,4.709-3.765,6.401-8.281,11.796-15.136,14.997-12.878,6.013-23.715,2.671-29.934-9.938-2.854-5.786-4.444-12.186-6.745-18.256-1.471-3.881-3.191-7.667-5.589-13.376-9.657,13.077-20.058,20.491-35.794,13.1zm330.664-39.056c-5.103,12.644-9.345,26.2-15.893,38.532-6.726,12.67-15.945,23.994-23.541,36.237-2.142,3.453-3.361,8.068-3.34,12.142 0.035,6.896-0.837,12.766-6.774,17.284-1.625,1.237-2.686,4.164-2.723,6.337-0.074,4.248 0.755,8.511 1.316,13.749 10.137-8.196 17.036-17.77 22.17-28.511 14.616-30.585 30.351-60.886 28.785-95.77zm-8.961,63.525c-0.657,0.841-1.596,1.584-1.929,2.538-7.968,22.796-19.505,43.414-36.428,60.879-1.891,1.951-3.693,4.975-3.744,7.537-0.163,8.096 0.525,16.209 0.885,24.316 0.759,0.159 1.518,0.319 2.277,0.478 19.511-29.027 33.689-60.361 38.939-95.748zm-49.167,67.247c2.655-8.206 3.512-15.092 0.794-21.406-5.983-1.039-11.744-0.871-16.278-3.148-4.752-2.387-8.325-7.12-14.021-12.285-2.169,12.315-4.046,22.978-6.199,35.203 12.432,0.57 23.723,1.087 35.704,1.636zm-269.447-58.769c1.872,13.809 4.907,25.07 12.614,36.602 2.65-9.932 4.735-17.75 6.848-25.667-6.33-3.556-12.089-6.792-19.462-10.935z"/>
    <path d="m300.693,270.569c1.033-3.725 1.114-5.218 1.805-6.331 15.523-24.964 24.671-52.896 36.687-79.471 13.474-29.802 17.005-61.669 15.134-94.159-0.224-3.898-1.122-7.758-0.012-12.195 1.363,5.013 3.163,9.952 4.017,15.049 5.187,30.982 2.171,61.311-9.862,90.244-9.826,23.627-21.081,46.666-31.983,69.834-3.019,6.416-6.792,12.588-15.786,17.029z"/>
    <path d="m107.354,124.112c-2.067,4.14-3.572,9.621-6.991,13.344-3.754,4.088-8.969,7.2-14.083,9.594-10.229,4.786-13.888,3.826-21.1-3.713-5.797-6.06-8.148-15.934-4.181-22.871 5.711-9.987 12.117-19.605 18.753-29.01 1.141-1.618 4.872-1.577 7.457-1.909 0.818-0.105 1.873,0.984 2.697,1.673 9.911,8.282 14.302,19.456 17.448,32.892zm-21.239-27.298c-5.242,8.112-10.608,16.178-15.691,24.417-1.662,2.693-3.255,5.738-3.72,8.798-1.121,7.373 6.076,15.494 12.541,13.977 8.643-2.028 16.1-5.948 19.109-15.465 3.007-9.509-2.125-23.254-12.239-31.727z"/>
    <path d="m261.326,247.636c-5.359,0.225-12.147,0.401-17.649-5.148-6.265-6.319-7.978-12.714-4.209-20.65 3.869-8.147 8.382-15.986 12.353-24.087 2.23-4.549 5.438-5.398 9.766-3.591 3.334,1.392 6.677,2.78 9.926,4.356 11.972,5.808 16.504,13.796 15.433,26.983-1.305,16.086-7.912,22.166-25.62,22.137zm-1.235-47.786c-4.784,8.648-9.36,16.296-13.324,24.25-4.435,8.9 1.471,17.575 11.386,17.28 3.226-0.096 6.475,0.045 9.672-0.304 2.034-0.222 4.409-0.629 5.913-1.843 9.297-7.502 8.351-26.347-1.734-33.196-3.73-2.534-8.043-4.21-11.913-6.187z"/>
    <path d="m97.032,155.996c18.823,9.343 26.137,24.659 20.817,41.136-3.036,9.403-9.734,14.074-19.09,15.088-2.661,0.288-6.378-0.164-8.093-1.834-5.374-5.235-10.544-10.867-14.679-17.086-1.493-2.245 0.111-6.592 0.442-9.967 0.06-0.617 0.728-1.237 1.231-1.74 3.822-3.826 8.133-7.273 11.384-11.53 3.148-4.125 5.218-9.073 7.988-14.067zm3.92,10.268c-4.149,4.392-8.036,9.065-12.491,13.112-10.429,9.474-10.518,12.577 0.25,21.958 1.084,0.945 2.291,1.751 3.448,2.611 7.048,5.235 12.301,3.928 16.279-4.046 5.763-11.553 2.874-24.478-7.486-33.635z"/>
    <path d="m310.529,42.003c16.064-0.229 27.277,9.965 28.783,26.589 0.258,2.852 0.236,5.766-0.006,8.621-1.039,12.27-9.055,20.56-19.544,20.386-9.904-0.165-19.738-10.816-19.61-22.023 0.048-4.173 1.469-8.421 2.779-12.468 2.187-6.754 4.788-13.375 7.598-21.105zm5.031,5.617c-0.923,3.457-1.512,6.595-2.614,9.541-1.259,3.366-2.982,6.557-4.491,9.83-2.959,6.414-2.642,12.67 1.368,18.487 4.485,6.506 12.645,7.693 17.682,2.233 6.194-6.714 6.696-15.168 4.448-23.415-2.209-8.106-6.239-15.284-16.393-16.676z"/>
    <path d="m215.864,78.185c2.412,2.045 4.788,4.202 7.309,6.174 12.408,9.712 15.909,25.536 8.855,39.524-3.546,7.032-9.665,9.936-16.869,9.429-7.031-0.495-14.715-0.876-18.443-8.909-3.48-7.498-3.468-14.111 2.159-21.085 6.177-7.655 11.113-16.313 16.989-25.133zm1.911,9.413c-4.888,7.11-9.44,13.407-13.61,19.948-1.837,2.881-4.29,6.393-3.997,9.376 0.484,4.934 4.425,8.393 9.606,8.837 5.226,0.448 10.854,1.778 14.688-4.022 7.45-11.273 4.205-26.715-6.687-34.139z"/>
    <path d="m193.94,220.702c-0.161,1.046-0.337,3.955-1.08,6.711-4.247,15.76-9.638,18.364-25.067,12.679-5.367-1.978-11.241-2.776-14.485-8.434-4.049-7.064-5.149-14.23-0.834-21.5 2.754-4.641 5.781-9.13 8.863-13.565 4.368-6.287 5.101-6.571 12.359-2.925 4.46,2.24 8.965,4.722 12.729,7.939 5.649,4.827 7.379,9.837 7.515,19.095zm-23.956-22.689c-2.944,4.107-5.432,7.6-7.942,11.077-10.579,14.652-5.96,25.148 12.072,27.296 2.071,0.247 4.196,0.033 5.997,0.033 12.066-20.058 9.68-29.339-10.127-38.406z"/>
    <path d="m318.301,120.632c2.689,1.791 4.683,3.317 6.852,4.53 9.789,5.475 12.744,14.089 11.568,24.679-1.227,11.049-7.249,18.719-17.188,23.063-5.209,2.277-10.72,1.844-14.967-2.645-5.825-6.158-11.05-12.744-8.079-22.052 0.853-2.671 2.402-5.291 4.208-7.454 5.488-6.572 11.257-12.91 17.606-20.121zm2.047,7.94c-5.426,6.176-11.17,12.149-16.233,18.652-4.098,5.264-2.641,11.701 2.586,17.545 3.446,3.854 7.251,4.469 11.625,2.218 14.857-7.643 16.055-28.408 2.022-38.415z"/>
    <path d="m278.565,56.015c-0.159,1.201-0.216,3.408-0.766,5.486-2.08,7.867-4.648,15.417-13.917,17.673-8.653,2.106-14.851-2.264-19.801-8.31-5.716-6.981-6.98-15.274-2.629-23.34 3.059-5.67 7.174-10.853 11.389-15.763 1.24-1.444 4.603-2.047 6.696-1.612 10.301,2.145 19.145,14.014 19.028,25.866zm-20.32-19.277c-3.055,3.452-5.706,6.386-8.289,9.38-5.745,6.66-5.307,13.925-1.637,21.226 3.595,7.153 14.135,8.039 19.008,1.794 8.869-11.365 5.202-25.438-9.082-32.4z"/>
    <path d="m163.476,101.188c-0.157,9.339-6.948,16.698-17.187,17.698-7.904,0.772-18.468-6.811-19.705-15.149-0.522-3.521 0.812-7.709 2.441-11.037 1.34-2.738 4.025-5.231 6.716-6.799 4.273-2.49 6.931-11.081 12.924-6.679 6.887,5.057 15.239,10.3 14.811,21.966zm-15.842-16.853c-4.713,4.419-8.715,7.554-11.867,11.388-1.576,1.918-3.026,6.056-2.042,7.543 2.435,3.682 5.881,7.996 9.733,9.029 3.054,0.82 8.177-2.003 10.827-4.724 3.677-3.774 4.075-9.237 1.007-13.972-2.105-3.246-4.937-6.022-7.658-9.264z"/>
    <path d="m41.724,205.503c-1.616,6.681-3.231,13.362-4.847,20.043-2.662-7.714 0.965-13.909 4.847-20.043z"/>
  </g>
</svg>
