<?xml version='1.0' encoding='iso-8859-1'?>
<!DOCTYPE svg PUBLIC '-//W3C//DTD SVG 1.1//EN' 'http://www.w3.org/Graphics/SVG/1.1/DTD/svg11.dtd'>
<svg version="1.1" xmlns="http://www.w3.org/2000/svg" viewBox="0 0 393.006 393.006" xmlns:xlink="http://www.w3.org/1999/xlink" enable-background="new 0 0 393.006 393.006">
  <g>
    <path d="m203.071,80.128c3.705-2.156 6.701-3.9 10.077-5.866 12.989,14.862 7.441,31.455 5.872,48.677 28.282,0.641 45.045,14.891 48.544,44.166 10.347-0.721 20.487-1.42 30.627-2.137 17.475-1.236 35.175,0.375 50.904,7.018 16.561,6.993 30.653,19.277 35.854,37.852 3.147,11.239 5.425,23.006 5.951,34.633 0.98,21.662 0.792,43.402 0.358,65.095-0.494,24.731-12.325,43.107-34.601,53.473-11.885,5.531-24.802,9.227-37.595,12.35-31.893,7.785-64.167,12.477-97.223,12.213-16.065-0.128-32.126,3.455-48.244,4.499-13.936,0.904-27.969,1.131-41.927,0.675-15.422-0.504-30.84-1.811-46.202-3.34-19.002-1.89-37.931-4.5-56.92-6.531-7.753-0.83-12.144-5.051-13.61-12.287-3.795-18.727-7.454-37.484-10.9-56.278-1.191-6.496-1.531-13.143-2.375-19.707-1.002-7.781 0.777-14.566 6.503-20.203 2.88-2.835 5.263-6.196 8.257-8.891 19.161-17.243 38.739-34.036 57.542-51.657 10.719-10.046 20.21-21.401 30.296-32.127 6.516-6.929 13.106-13.788 20.032-21.066-8.673-10.668-14.735-22.294-14.917-36.099-0.082-6.209-0.58-12.785 1.175-18.569 3.839-12.65 8.648-25.046 13.754-37.256 2.948-7.048 6.428-7.014 10.938-0.69 1.875,2.63 3.345,5.548 5.357,8.94 6.966-6.318 9.96-13.838 9.292-22.702-1.322-17.525-2.906-35.031-4.499-53.937 1.593,0 4.705-0.943 6.706,0.149 16.191,8.837 32.139,17.707 41.155,35.393 5.667,11.115 9.717,22.155 9.352,34.68-0.083,2.876 0.268,5.763 0.467,9.53zm173.685,149.854c-0.82-0.32-1.639-0.64-2.458-0.959-9.328,12.405-22.861,17.277-36.885,20.68-14.635,3.551-29.411,6.779-44.298,8.992-35.985,5.349-72.006,10.569-108.134,14.81-32.482,3.813-65.113,6.38-97.701,9.239-14.286,1.253-28.649,1.629-42.939,2.845-10.491,0.892-20.921,2.504-31.136,3.765-0.916,14.472 4.952,46.242 10.091,55.356 4.759-10.976 9.402-21.684 14.045-32.392 0.699,0.3 1.398,0.6 2.097,0.9-4.57,11.55-8.779,23.262-13.833,34.597-3.59,8.052-1.268,14.483 3.13,22.002 4.274-10.217 7.993-19.406 11.955-28.49 3.826-8.772 7.902-17.434 11.869-26.144 0.763,0.33 1.526,0.659 2.289,0.989-7.476,18.472-14.951,36.944-22.881,56.538 5.679,0.488 9.545,0.819 13.107,1.125 6.914-18.318 14.215-35.196 23.161-51.283 0.703,0.306 1.405,0.612 2.108,0.918-6.89,16.793-13.78,33.586-21.084,51.387 32.669,4.812 64.146,5.198 94.237,7.35 9.293-19.449 17.988-37.645 26.683-55.841 0.697,0.291 1.393,0.583 2.09,0.875-4.93,18.895-15.998,35.515-23.297,55.572 14.701-0.774 27.514-1.17 40.28-2.178 26.739-2.113 53.556-3.725 80.148-7.077 27.372-3.45 54.442-8.641 79.833-20.627 18.434-8.702 27.211-23.151 28.146-42.65 0.829-17.292 0.764-34.637 0.708-51.957-0.03-9.451-0.861-18.896-1.331-28.342zm-334.199,47.07c3.323,0.653 4.337,1.084 5.312,1.011 27.108-2.046 54.227-3.961 81.31-6.299 17.561-1.516 35.127-3.226 52.586-5.619 33.121-4.54 66.22-9.294 99.223-14.612 22.459-3.618 45.082-6.767 66.672-14.529 12.787-4.596 16.464-14.904 9.341-26.574-5.647-9.253-13.548-15.633-24.335-17.514-7.578-1.322-15.341-2.635-22.969-2.379-14.303,0.479-28.589,1.882-42.843,3.296-20.033,1.987-37.667-4.689-31.367-29.915 2.121-8.492-2.045-16.088-10.177-20.192-4.448-2.244-9.498-3.297-13.156-4.514-6.976,6.588-13.485,11.603-18.562,17.792-7.911,9.643-14.862,20.075-22.195,30.191-3.104,4.282-2.76,7.78 1.626,11.355 6.556,5.342 13.135,10.815 18.767,17.077 3.764,4.184 6.386,9.63 8.591,14.899 1.394,3.331 1.328,7.866-3.498,8.991-4.343,1.013-6.863-1.625-7.51-5.97-1.255-8.441-6.662-14.378-13.624-17.789-12.552-6.148-17.871-16.895-21.546-29.193-1.038-3.473-1.963-6.98-2.983-10.627-2.385-0.656-4.478-1.251-6.582-1.806-2.376-0.627-4.762-1.218-6.447-1.647-30.112,36.381-57.687,73.743-95.634,104.567zm112.601-266.624c0.605,15.1 0.897,29.032 1.793,42.927 0.898,13.905-5.629,24.015-15.577,32.506-1.714,1.463-4.287,1.918-7.365,3.22-0.931-4.874-1.644-8.61-2.807-14.7-5.083,13.588-10.32,24.697-12.855,36.948-2.11,10.197-0.775,19.973 3.094,29.176 5.559,13.224 14.516,23.504 28.906,28.535 2.753-13.02 4.9-25.247 7.989-37.232 3.489-13.533 7.8-26.85 7.397-41.068-0.01-0.36 0.925-0.747 1.799-1.41 3.867,4.006 3.725,9.097 4.208,14.113 1.804,18.757-4.376,36.398-7.354,54.486-1.112,6.752-1.984,13.514 0.917,21.214 2.157-2.368 3.851-3.769 4.974-5.533 6.977-10.961 15.484-20.458 25.393-28.921 10.183-8.697 15.635-20.623 18.024-33.439 1.611-8.644 2.463-17.868-1.276-28.132-4.308,4.989-7.098,8.877-10.59,11.972-1.602,1.42-5.074,2.337-6.796,1.538-1.544-0.716-2.601-4.11-2.566-6.302 0.116-7.351 1.619-14.744 1.15-22.028-1.681-26.093-12.661-46.352-38.458-57.87zm58.892,120.975c0.038,0.967 0.076,1.935 0.114,2.902 1.31,0.463 2.589,1.077 3.936,1.366 15.162,3.255 25.617,14.081 22.351,32.26-0.194,1.08-0.2,2.199-0.246,3.302-0.486,11.546 1.35,14.501 12.449,17.188 4.107,0.994 8.648,0.488 12.969,0.251 17.24-0.942 34.49-3.093 51.7-2.779 15.128,0.276 30.495,2.969 40.259,16.797 4.15,5.877 7.027,12.653 10.574,19.19 2.442-4.17 6.194-8.916 3.215-14.43-7.137-13.21-16.725-24.744-31.769-28.569-26.137-6.646-52.41-5.409-78.496,1.553-3.091,0.825-7.391,0.153-9.994-1.556-1.231-0.809-0.436-5.949 0.575-8.711 4.202-11.489-1.548-27.976-12.454-33.113-5.96-2.807-12.351-4.789-18.695-6.633-1.906-0.555-4.311,0.606-6.488,0.982zm-80.4,37.538c-0.822-0.57-1.643-1.141-2.465-1.711-17.764,19.231-34.655,39.375-53.536,57.438-19.227,18.394-38.721,36.501-57.66,55.609 5.496-0.228 11.027-0.534 14.955-3.201 7.246-4.92 13.76-11.002 20.213-16.993 24.583-22.821 45.918-48.627 67.405-74.263 4.295-5.125 7.422-11.227 11.088-16.879z"/>
    <path d="m275.791,365.097c11.592-19.775 23.183-39.55 34.423-58.724 0.362,11.327-19.207,47.378-34.423,58.724z"/>
    <path d="m292.469,364.139c1.438-7.756 20.001-37.692 29.166-47.036-3.328,12.446-21.209,41.282-29.166,47.036z"/>
    <path d="m188.17,376.449c6.291-18.765 16.181-35.702 27.249-52.042-6.907,18.453-16.157,35.716-27.249,52.042z"/>
    <path d="m203.746,373.734c8.019-15.574 16.037-31.148 24.056-46.722-3.207,17.947-11.367,33.486-21.091,48.272-0.988-0.517-1.976-1.034-2.965-1.55z"/>
    <path d="m268.48,320.232c-7.274,17.516-17.062,33.634-29.333,48.275 7.575-17.348 19.135-32.369 29.333-48.275z"/>
    <path d="m280.45,317.425c-4.647,17.764-12.804,33.661-22.937,48.512-0.82-0.438-1.64-0.876-2.46-1.314 8.466-15.732 16.931-31.465 25.397-47.198z"/>
    <path d="m333.316,315.115c-6.55,15.772-15.766,29.723-27.013,42.381 6.646-15.635 17.468-28.675 27.013-42.381z"/>
    <path d="m169.635,372.14c4.637-16.275 12.59-31.006 21.25-45.408-4.145,16.505-12.874,30.874-21.25,45.408z"/>
    <path d="m107.171,331.13c-3.414,15.475-10.61,29.504-17.234,43.751 2.775-15.72 9.781-29.821 17.234-43.751z"/>
    <path d="m238.54,337.078c-6.3,12.463-12.601,24.927-18.901,37.39-0.891-0.449-1.781-0.897-2.672-1.346 5.363-12.887 12.725-24.789 19.471-36.994 0.7,0.317 1.401,0.633 2.102,0.95z"/>
    <path d="m115.997,369.223c5.426-11.888 10.852-23.776 16.83-36.873 0.308,8.935-7.276,27.26-16.83,36.873z"/>
    <path d="m347.414,317.583c-5.672,9.841-11.345,19.682-17.017,29.524-0.756-0.422-1.512-0.844-2.268-1.265 2.745-11.483 10.935-19.92 17.03-29.528 0.752,0.422 1.503,0.845 2.255,1.269z"/>
    <path d="m92.114,335.257c-3.466,8.724-6.866,17.476-10.427,26.161-1.634,3.984-3.586,7.837-6.497,11.264 3.139-13.402 9.264-25.571 16.924-37.425z"/>
    <path d="m130.039,373.034c5.165-9.943 10.329-19.887 16.122-31.04-0.616,9.236-6.712,22.382-16.122,31.04z"/>
  </g>
</svg>
