<?xml version='1.0' encoding='iso-8859-1'?>
<!DOCTYPE svg PUBLIC '-//W3C//DTD SVG 1.1//EN' 'http://www.w3.org/Graphics/SVG/1.1/DTD/svg11.dtd'>
<svg version="1.1" xmlns="http://www.w3.org/2000/svg" viewBox="0 0 442.463 442.463" xmlns:xlink="http://www.w3.org/1999/xlink" enable-background="new 0 0 442.463 442.463">
  <g>
    <path d="m156.92,109.43c21.392,2.111 41.843,3.982 62.256,6.202 11.697,1.272 21.703,5.505 26.662,17.419 3.905,9.38 4.287,19.028-2.438,26.629-9.178,10.373-10.04,21.873-8.348,34.467 1.676,12.472 3.175,24.968 4.9,38.634 17.902-6.691 36.325-5.006 54.616-5.23 6.716-0.082 6.714-0.221 11.159-8.56-2.49-1.225-5.015-2.356-7.437-3.677-16.564-9.031-23.336-24.868-17.99-43.057 1.719-5.849 3.952-11.712 6.972-16.982 8.47-14.782 17.72-29.177 14.399-47.168 6.041-1.898 6.485,3.368 9.198,5.194 13.606,9.157 20.043,23.317 26.321,37.656 4.47,10.209 5.406,21.085 5.396,31.834-0.014,14.637-8.072,25.249-20.526,32.226-5.309,2.974-9.173,6.492-11.553,14.106 7.742-1.413 14.408-2.202 20.84-3.888 15.283-4.007 30.289-1.201 44.994,2.223 12.253,2.853 13.703,16.192 5.146,22.448-4.774,3.49-5.322,7.428-4.001,13.199 1.757,7.671 2.036,15.739 2.382,23.662 0.537,12.284 0.706,24.588 0.807,36.886 0.051,6.252 2.172,11.321 7.293,14.929 6.453,4.545 12.66,9.606 19.599,13.254 9.593,5.044 15.88,12.297 18.857,22.555 4.163,14.344-3.764,26.559-18.544,27.725-14.753,1.164-29.564,1.616-44.354,2.291-3.973,0.181-8.073-0.568-11.922,0.146-17.402,3.229-34.281,2.78-51.178-3.52-5.334-1.989-12.035-0.31-19.093-0.31-0.508,7.306-2.071,14.886-9.579,17.775-5.533,2.129-11.89,3.28-17.785,2.982-6.086-0.307-11.407,0.178-16.466,3.577-13.809,9.277-28.768,14.533-45.687,14.747-13.328,0.168-26.625,2.256-39.96,2.64-12.18,0.351-21.881-3.756-25.392-17.182-2.061-7.88-9.192-10.123-16.123-10.587-6.395-0.428-12.901,1.005-19.37,1.428-7.883,0.515-15.913,1.936-23.641,0.999-15.349-1.863-20.454-14.328-11.145-26.73 4.501-5.997 9.946-11.577 15.897-16.125 7.965-6.089 11.444-13.524 11.136-23.307-0.431-13.714-1.157-27.456-0.706-41.151 0.511-15.509 2.579-30.963 3.206-46.472 0.391-9.658-0.926-19.373-0.929-29.063-0.003-7.502 1.231-15.004 1.229-22.505-0.006-15.856-0.393-31.714-0.765-47.568-0.15-6.411-2.816-11.538-7.5-16.2-9.192-9.149-8.212-20.635 3.05-27.148 6.666-3.855 14.737-6.119 22.438-7.158 12.454-1.68 25.118-2.141 37.706-2.339 5.403-0.085 6.809-2.906 8.044-7.568-3.425-1.31-7.042-2.471-10.471-4.043-14.103-6.466-20.928-19.672-17.109-34.676 1.758-6.905 4.795-13.595 8.045-19.979 3.269-6.42 7.558-12.317 11.334-18.484 2.451-4.002 5.308-7.867 7.022-12.176 1.675-4.212 2.13-8.91 3.344-14.406 2.286,1.471 4.086,2.343 5.527,3.621 2.428,2.154 4.336,4.993 6.972,6.8 17.889,12.267 22.522,31.031 25.102,50.765 1.569,11.996-4.229,20.954-12.872,28.34-3.552,3.036-7.48,5.736-11.55,8.034-4.491,2.533-6.931,6.009-7.415,11.866zm143.067,253.85c-0.602-1.452-1.13-4.114-1.817-4.156-3.761-0.227-8.09-1.743-10.834,2.431-1.923,2.924-3.603,6.008-5.407,9.047 7.18,3.638 7.1,3.564 10.957-0.578 2.346-2.519 4.986-4.766 7.494-7.135-2.112,4.059-4.223,8.117-6.335,12.178 5.767,3.786 10.24,2.296 14.298-2.6 1.859-2.242 4.297-4.005 6.472-5.986 0.332,0.359 0.664,0.717 0.996,1.076-2.14,3.097-4.279,6.194-6.842,9.903 9.733,2.143 17.97,0.102 26.257-2.304 12.823-3.724 25.603-7.112 39.339-4.656 5.112,0.914 10.783-0.356 16.032-1.44 4.5-0.928 7.451-3.991 7.362-8.896-6.125-4.521-11.865-8.758-18.069-13.337-16.666,11.785-34.432,15.109-54.403,9.531-8.73-2.437-18.75-1.791-25.5,6.922zm-14.944-45.9c-5.234-2.685-11.638-5.056-15.931-0.856-6.715,6.57-11.81,14.795-18.717,23.785 5.955,0.682 9.663,1.108 12.541,1.437 7.089-7.992 13.467-15.183 19.845-22.373-4.901,8.342-9.802,16.683-15.02,25.564 2.073,1.612 4.246,3.3 6.682,5.194 3.973-4.46 7.575-8.504 11.178-12.547 0.486,0.362 0.972,0.723 1.457,1.085-2.521,4.13-5.042,8.261-7.887,12.922 2.323,0.727 4.589,2.292 6.279,1.816 7.054-1.989 14.287,0.364 21.333-1.487 9.606-2.523 19.096-1.769 28.802,0.683 14.695,3.712 27.384-1.585 40.333-10.841-10.822-10.699-2.456-24.463-6.839-36.666-16.267,7.141-32.416,8.483-48.638,9.552-11.816,0.778-23.613,1.812-35.418,2.732zm-169.202-141.258c12.438,1.295 23.533,2.335 34.599,3.629 19.993,2.338 39.704,0.229 59.324-3.489 7.256-1.375 13.943-3.316 16.222-11.937 0.78-2.95 3.443-5.446 5.398-8.034 10.666-14.119 4.899-28.031-12.692-30.489-1.787-0.25-3.61-0.234-5.403-0.454-15.049-1.847-30.097-3.706-45.14-5.599-3.23-0.406-6.433-1.309-9.661-1.379-4.883-0.106-6.744,2.269-5.287,6.86 1.06,3.342 2.926,6.428 4.545,9.869 14.184,0 27.921,0.151 41.65-0.116 3.06-0.059 6.548-0.918 9.025-2.604 3.349-2.279 6.235-2.829 8.241,0.637 2.324,4.015-0.959,6.391-4.201,6.998-8.451,1.583-17.013,3.446-25.548,3.531-21.691,0.217-43.393-0.407-65.088-0.845-7.943-0.161-15.911-0.444-23.801-1.289-3.179-0.341-6.18-2.338-10.76-4.186 11.042-11.808 23.883-11.021 36.229-11.783-8.113,2.749-16.227,5.497-24.34,8.246 0.201,0.978 0.403,1.955 0.604,2.933 16.149-0.623 32.298-1.246 49.14-1.895-2.326-6.069-4.107-10.717-5.946-15.515-3.571-0.292-6.833-1.02-10.005-0.735-10.789,0.97-21.585,2.033-32.297,3.611-4.557,0.671-9.268,2.057-13.285,4.258-8.196,4.49-9.001,10.819-2.314,17.258 5.519,5.315 8.581,11.424 9.147,19.034 0.208,2.796 1.304,5.527 1.893,7.88 8.288,4.345 15.487,5.328 21.137-3.175 0.162-0.244 1.151,0.06 2.163,0.142-0.958,2.331-1.868,4.545-3.549,8.638zm140.104,206.215c-9.007,16.133-28.693,23.096-43.262,15.137-6.27-3.425-10.667-3.286-16.768-0.287-16.757,8.237-24.488,6.919-37.55-6.578-5.57-5.755-11.734-6.511-18.724-5.472-5.709,0.849-11.311,2.778-17.03,3.139-15.185,0.957-30.992,6.043-45.302-6.821-5.07,5.876-10.252,10.903-14.206,16.759-3.449,5.108-1.649,9.178 4.397,10.481 4.817,1.038 10.017,1.05 14.958,0.579 6.807-0.65 13.49-2.584 20.297-3.258 14.566-1.443 28.414,5.121 32.206,16.515 2.993,8.993 8.591,11.923 16.987,11.352 13.3-0.904 26.574-2.93 39.867-3.009 14.04-0.083 26.04-4.759 37.577-12.026 4.235-2.668 8.873-5.125 13.667-6.353 4.363-1.117 9.186-0.415 13.805-0.555 10.288-0.312 13.785-6.084 8.793-15.069-2.602-4.686-5.946-8.957-9.712-14.534zm-172.177-2.765c3.42,4.279 8.465,5.802 14.016,5.272 11.827-1.128 23.696-2.154 35.403-4.09 12.438-2.057 23.479-1.817 32.132,9.397 5.808,7.527 14.157,7.914 22.658,4.934 3.045-1.067 5.913-2.679 8.784-4.19 5.147-2.711 10.056-3.347 15.238,0.223 10.289,7.088 20.8,4.085 30.967-0.266 5.728-2.451 9.031-11.875 6.087-16.481-6.153-9.627-12.624-19.051-19.097-28.756-0.332,0-1.137-0.23-1.72,0.033-34.497,15.519-70.577,16.415-107.205,11.307-5.493-0.766-8.873,0.594-11.702,5.136-1.969,3.161-4.599,5.91-6.933,8.843-0.543-0.391-1.085-0.782-1.628-1.174 2.998-4.664 5.995-9.328 9.583-14.91-3.832-1.187-7.066-2.189-10.894-3.374-5.385,9.643-10.404,18.631-15.689,28.096zm157.221-104.515c43.731,5.223 86.26,8.14 129.4-6.816-5.622-12.144 2.772-20.543 8.137-29.899-24.355-7.685-46.8-2.701-69.947,1.425 1.095,3.01 2.031,5.582 3.088,8.484 7.681-0.374 14.918-0.466 22.09-1.2 2.977-0.305 8.756,2.729 7.691-4.672 3.769-0.08 7.676-0.773 11.244,0.034 1.627,0.368 4.083,4.42 3.543,5.538-1.249,2.589-3.779,5.628-6.356,6.295-5.885,1.522-12.101,2.278-18.197,2.369-18.819,0.282-37.645,0.238-56.465,0.022-5.012-0.057-10.09-0.842-14.988-1.95-2.866-0.649-5.438-2.598-9.831-4.815 10.292-7.982 20.08-8.827 31.687-8.756-6.255,5.451-14.437,2.311-20.1,9.025 14.975-0.073 28.532,1.159 42.547-2.227-1.697-4.004-3.061-7.221-4.363-10.294-20.48-2.181-40.181-2.404-60.89,2.839 0.531,10.758 1.061,21.47 1.71,34.598zm-120.864-27.533c38.013,8.397 73.222,6.75 106.551-13.365-0.699-7.984 0.784-15.533-3.031-22.847-34.482,16.168-69.583,7.526-104.484,3.901-6.321,8.374-12.352,16.363-19.068,25.259 5.737,1.959 10.325,3.525 15.099,5.154 5.344-6.74 10.191-12.853 15.038-18.967 0.462,0.302 0.924,0.605 1.386,0.907-3.482,6.048-6.965,12.097-11.491,19.958zm103.569-44.078c-1.069-8.899-2.017-16.793-3.01-25.063-36.824,11.45-72.585,6.913-108.737,1.354-4.768,7.103-9.269,13.81-13.945,20.775 6.529,2.337 6.611,2.414 9.106-0.211 3.743-3.939 7.359-8 11.029-12.009 0.453,0.375 0.906,0.75 1.359,1.125-3.324,5.225-6.649,10.45-10.135,15.929 5.684,2.664 10.372,4.873 15.826-1.29-1.686,6.15 0.927,6.946 4.13,7.135 19.757,1.164 39.519,3.207 59.272,3.131 12.095-0.046 24.168-3.38 35.105-10.876zm-101.033,112.018c3.014,1.448 5.286,3.43 7.63,3.518 13.727,0.52 27.477,0.947 41.206,0.695 8.626-0.158 17.442-0.642 25.804-2.576 25.935-6 31.444-13.551 30.576-39.657-0.017-0.516-0.748-1.008-1.591-2.075-10.471,8.445-23.117,11.161-36.118,11.841-18.717,0.981-37.477,1.109-56.213,1.778-3.019,0.108-7.343,0.093-8.773,1.924-5.903,7.56-10.925,15.809-16.652,24.376 6.094,2.963 10.911,3.657 14.131,0.176zm-5.046,32.247c2.748,1.927 4.47,4.152 6.375,4.32 35.881,3.18 71.287,2.675 104.575-14.055-0.986-9.4-1.877-17.904-2.848-27.161-2.419,0.992-4.453,1.584-6.245,2.601-12.186,6.914-25.13,10.937-39.259,10.8-17.701-0.172-35.403-0.36-53.104-0.285-2.972,0.012-7.083,0.334-8.698,2.208-5.342,6.2-9.783,13.177-14.79,20.162 5.573,2.624 10.02,5.336 13.994,1.41zm192.606-228.637c-0.855,0.291-1.71,0.582-2.566,0.873 0.269,14.58-6.746,26.277-13.467,38.227-3.31,5.885-5.503,12.483-7.581,18.958-3.306,10.302 0.002,19.364 7.223,26.718 4.152,4.228 9.511,7.269 13.905,10.531 13.327-8.721 6.932-19.593 4.822-29.785 0.785-0.138 1.571-0.276 2.356-0.413 2.603,7.415 5.206,14.829 8.017,22.835 8.298-6.443 12.776-14.639 13.597-24.765 1.658-20.451-6.064-38.108-17.094-54.556-2.28-3.404-6.101-5.776-9.212-8.623zm-158.968-21.376c6.959-8.078 5.29-18.581 6.921-29.157 7.542,6.304 3.804,14.402 6.408,21.754 11.399-7.431 19.284-15.92 17.762-30.053-0.579-5.377-1.499-10.72-2.338-16.066-2.23-14.209-10.868-23.811-22.287-31.582-4.443,7.473-8.658,14.556-12.868,21.641-4.056,6.826-8.346,13.526-12.115,20.508-9.362,17.343-6.766,36.391 17.44,42.944 0.331,0.089 0.706,0.011 1.077,0.011zm218.739,176.724c-13.058,3.336-24.698,6.99-36.612,9.122-8.451,1.512-17.272,1.325-25.923,1.263-15.823-0.113-31.643-0.695-48.21-1.099-3.233,5.261-6.786,11.042-10.777,17.536 3.086,1.417 5.467,2.51 7.596,3.488 3.606-3.821 6.61-7.004 9.615-10.188 0.392,0.307 0.783,0.614 1.175,0.922-1.993,3.254-3.986,6.508-6.972,11.384 12.735,1.113 24.292,2.678 35.88,2.957 8.97,0.216 17.991-1.039 26.966-1.888 13.63-1.289 27.311-2.203 40.271-7.435 4.512-1.821 7.367-3.912 7.064-9.277-0.323-5.714-0.073-11.459-0.073-16.785zm-256.205,5.438c2.333,0.611 3.704,1.185 5.115,1.308 27.353,2.396 54.627,3.447 81.889-1.721 10.308-1.954 19.104-5.985 26.997-12.889-0.018-8.283 1.279-16.734-1.913-24.734-30.284,17.639-62.133,17.683-94.553,14.363-5.732,7.739-11.296,15.251-17.535,23.673zm164.403,113.854c12.079-1.928 22.719-0.48 33.004,3.45 7.615,2.91 15.371,3.336 23.42,2.731 12.213-0.918 24.476-1.163 36.695-2.012 10.774-0.749 21.561-1.608 32.262-3.026 9.156-1.213 13.095-6.791 11.725-15.887-0.992-6.584-4.007-12.124-10.52-16.176-6.714,13.098-18.595,14.536-30.761,13.105-11.84-1.392-23.092-0.287-33.983,4.033-9.198,3.649-18.654,3.955-28.304,4.089-4.353,0.06-8.687,1.482-13.366,2.348 0.582-5.285-3.756-5.462-8.497-5.481-2.226,2.575-4.426,5.12-6.626,7.664-0.429-0.27-0.858-0.539-1.286-0.809 1.096-2.841 2.193-5.681 3.481-9.02-2.132-1.014-4.26-2.026-6.87-3.267-2.173,3.405-4.058,6.36-6.094,9.552 1.975,3.005 3.701,5.633 5.72,8.706zm-174.441-79.824c5.821-8.092 12.912-15.759 17.918-25.106-9.707-4.607-15.754-2.042-20.18,5.633-1.067,1.85-2.66,3.392-3.973,5.105-6.914,9.018-6.204,10.947 6.235,14.368zm4.263-34.981c6.769-8.112 12.936-15.503 20.05-24.028-4.812-1.246-8.389-2.172-12.121-3.138-5.706,7.981-10.887,15.225-16.449,23.004 3.107,1.517 5.279,2.578 8.52,4.162zm-11.758,66.352c5.983-3.05 12.091-10.275 19.017-22.636-3.479-0.891-6.835-1.751-9.851-2.523-13.202,15.089-13.274,15.293-9.166,25.159zm18.916-130.965c-8.597-4.447-8.916-4.637-11.902-2.069-7.362,6.331-9.959,14.115-6.461,24.887 6.501-8.079 12.393-15.401 18.363-22.818zm150.34,99.62c-5.273-0.927-9.273-3.136-12.127,1.597-3.542,5.873-7.175,11.692-10.657,17.6-1.895,3.214-1.312,5.85 2.104,8.025 6.875-9.051 13.369-17.599 20.68-27.222zm-153.806-63.769c-5.328-1.899-9.797-3.492-14.85-5.294 0,8.573 0,15.75 0,25.321 5.646-7.614 9.852-13.287 14.85-20.027zm129.695,28.729c-0.657,4.842-1.672,9.076-1.609,13.295 0.029,1.974 2.137,3.918 3.303,5.875 1.674-1.01 3.809-1.66 4.929-3.1 2.774-3.565 5.084-7.492 8.146-12.129-5.55-1.48-9.861-2.631-14.769-3.941zm-.675,50.542c4.354-7.159 7.786-12.801 11.586-19.048-2.993-1.193-5.138-2.049-7.072-2.82-5.565,6.133-7.86,12.461-4.514,21.868zm30.531,25.702c-2.465-1.907-4.607-3.564-6.756-5.226-9.569,12.672-9.569,12.672-3.187,18.766 3.202-4.361 6.362-8.665 9.943-13.54zm-4.229,12.968c4.602,0.682 7.379,1.093 10.454,1.548 2.37-3.38 4.569-6.518 7.209-10.284-3.781-1.003-6.771-1.796-9.937-2.635-2.502,3.683-4.663,6.863-7.726,11.371zm-159.268-189.708c-4.869-1.084-7.832-1.743-10.94-2.435 0,5.667 0,10.426 0,15.184 0.539,0.221 1.079,0.441 1.618,0.662 2.749-3.954 5.498-7.909 9.322-13.411zm144.727,181.751c2.72-5.56 6.801-8.273 5.923-13.402-4.095,0-7.734,0-13.19,0 2.687,4.956 4.564,8.417 7.267,13.402zm-149.046-75.962c-2.182-2.974-4.354-4.86-7.206-1.92-3.212,3.311-2.873,6.951-0.639,11.677 3.141-3.907 5.532-6.88 7.845-9.757zm159.493,87.858c3.064,3.939 4.836,6.218 7.241,9.309 1.673-3.184 2.692-5.124 4.146-7.89-3.847-0.479-6.507-0.811-11.387-1.419zm-162.941-53.279c-2.293-0.989-4.051-1.747-6.876-2.965 0.206,3.817 0.358,6.626 0.644,11.939 2.932-4.223 4.419-6.363 6.232-8.974zm-3.285-113.332c-0.489,1.813-1.072,3.02-1.029,4.204 0.022,0.614 1.152,1.188 1.781,1.781 0.722-1.124 1.712-2.179 2.025-3.407 0.115-0.452-1.365-1.312-2.777-2.578z"/>
    <path d="m252.594,74.447c3.241-6.465 6.018-12.655 9.384-18.505 2.532-4.4 6.358-7.018 11.801-4.59 5.362,2.392 10.382,8.972 8.812,13.525-3.634,10.542-7.664,21.047-12.782,30.919-1.546,2.982-7.336,5.612-10.933,5.321-9.25-0.749-18.397-3.06-27.501-5.122-2.34-0.53-4.632-2.148-6.488-3.785-6.618-5.841-5.832-13.343 1.851-17.777 6.717-3.877 13.799-3.681 20.975-1.272 1.652,0.555 3.376,0.895 4.881,1.286z"/>
    <path d="m39.232,162.182c0-4.089-0.949-8.351 0.277-11.85 1.142-3.26 4.087-6.815 7.164-8.24 4.067-1.884 7.656,1.086 9.519,4.962 5.183,10.783 6.384,22.015 2.603,33.479-0.614,1.863-2.342,3.648-4.01,4.826-9.723,6.872-23.583,6.918-33.641,0.421-3.446-2.226-6.475-4.607-6.192-9.289 0.298-4.938 3.182-8.054 7.51-9.573 5.025-1.765 10.258-2.931 16.77-4.736z"/>
    <path d="m335.534,55.598c0.358,0.035 0.724,0.031 1.072,0.11 7.839,1.775 15.511,3.312 23.751,1.188 4.584-1.182 9.064,1.017 11.655,5.898 2.543,4.791 1.965,9.23-1.211,13.109-16.112,19.679-22.237,21.364-39.981,0.603-2.244-2.626-3.897-6.182-4.648-9.568-1.491-6.716 2.483-11.14 9.362-11.34z"/>
  </g>
</svg>
