<?xml version='1.0' encoding='iso-8859-1'?>
<!DOCTYPE svg PUBLIC '-//W3C//DTD SVG 1.1//EN' 'http://www.w3.org/Graphics/SVG/1.1/DTD/svg11.dtd'>
<svg version="1.1" xmlns="http://www.w3.org/2000/svg" viewBox="0 0 447.405 447.405" xmlns:xlink="http://www.w3.org/1999/xlink" enable-background="new 0 0 447.405 447.405">
  <g>
    <path d="m353.903,213.982c-4.581,3.625-9.051,7.163-14.392,11.389-0.57,4.919-1.698,10.948-1.897,17.007-0.823,25.035-12.056,45.898-26.54,65.191-4.206,5.603-10.501,9.94-16.499,13.841-27.287,17.748-57.28,25.168-89.773,22.579-14.478-1.153-28.758-3.134-42.135-9.148-7.898-3.551-16.033-6.826-23.33-11.394-6.986-4.372-13.025-10.254-19.908-15.819-4.654,1.146-9.83,2.42-14.902,3.669-7.305,16.263-6.566,33.98-10.411,50.752-2.333,10.177-5.702,20.122-8.769,30.121-0.733,2.392-1.624,5.087-3.322,6.741-2.114,2.061-5.327,4.621-7.718,4.308-2.356-0.308-5.903-3.796-6.104-6.131-0.796-9.26-6.152-14.184-13.903-17.694-8.891-4.027-12.842-11.231-12.819-20.821 0.008-3.256-0.229-6.527-0.001-9.766 0.674-9.578-2.272-17.857-8.81-24.78-7.645-8.095-9.205-17.685-7.428-28.202 0.542-3.208 1.177-6.4 1.695-9.611 1.613-10.001-0.637-18.67-8.78-25.303-0.836-0.681-1.539-1.529-2.288-2.315-17.044-17.895-18.966-25.52-12.323-48.867 1.64-5.766 4.723-7.804 10.446-6.51 2.071,0.468 4.136,1.407 5.938,2.551 22.259,14.13 44.468,28.337 66.723,42.546 5.559-1.875 6.892-5.914 7.074-11.671 0.589-18.647 5.489-36.392 13.335-53.249 14.479-31.108 41.498-44.992 73.085-51.988 11.883-2.632 23.866-4.709 35.751-7.457 18.193-4.206 37.275-5.131 55.272,3.237 3.924,1.824 8.057,3.193 12.011,4.956 14.759,6.578 27.92,15.243 37.549,29.584 2.843-0.431 5.93-0.9 8.931-1.355 0.533-1.503 1.043-2.461 1.208-3.475 5.611-34.541 11.182-69.088 16.776-103.632 1.527-9.428 2.417-10.018 12.044-8.43 3.562,0.588 7.152,1.019 10.702,1.671 11.931,2.192 17.828,8.429 18.588,20.412 0.411,6.477 0.083,13.013-0.139,19.515-0.29,8.481 1.202,16.553 4.946,24.176 8.69,17.697 13.404,36.641 16.53,55.912 1.336,8.237 5,13.739 11.506,18.556 12.346,9.142 19.431,22.298 24.313,36.393 4.254,12.285-2.554,19.54-15.035,16.015-17.007-4.804-33.659-10.85-50.542-16.109-8.895-2.769-17.96-5.001-26.655-7.395zm-191.667,107.969l-.001-.015c14.888,5.136 29.651,10.988 45.623,8.774 1.367-6.397 2.411-12.045 3.81-17.603 1.266-5.026 2.92-9.953 4.403-14.925 0.697,0.193 1.394,0.386 2.09,0.579-2.231,10.509-4.462,21.019-6.816,32.109 15.98,0.886 31.264,0.711 45.204-5.556 3.655-13.054 7.108-25.385 10.56-37.716 0.882,0.227 1.764,0.455 2.646,0.682-2.406,11.087-4.812,22.174-7.267,33.485 16.26-3.085 35.319-16.697 44.317-30.902 22.305-35.211 22.563-72.176 8.708-110.145-4.712-12.914-12.726-23.822-24.984-30.363-11.421-6.094-23.159-12.326-35.521-15.694-9.81-2.674-21.066-2.693-31.117-0.841-6.161,1.135-12.249,3.087-18.674,3.107-24.821,0.075-46.303,9.89-66.49,23.144-3.529,2.317-6.584,5.733-9.069,9.206-22.907,32.01-29.615,66.838-17.265,104.643 4.534,13.879 19.597,30.838 31.761,36.527 3.056-9.536 6.1-19.033 9.143-28.53 0.343,0.078 0.686,0.156 1.028,0.235-2.492,10.666-4.984,21.333-7.535,32.249 5.813,2.84 10.63,5.195 15.446,7.55zm215.571-139.088c-6.757,6.242-15.644,6.673-22.61,11.393 0.455,2.718 0.913,5.456 1.397,8.35 13.239,4.478 26.049,9.197 39.1,13.115 12.902,3.873 24.887,11.001 39.488,12.094-0.353-3.013-0.032-5.37-0.928-7.095-5.654-10.886-10.682-22.316-21.207-29.687-7.913-5.541-11.485-13.111-13.453-22.519-3.321-15.874-6.839-31.901-12.486-47.038-5.411-14.502-8.885-28.738-8.378-44.278 0.602-18.455-1.143-20.007-19.096-23.743-0.638-0.133-1.369,0.182-2.7,0.387-0.6,2.505-1.496,5.239-1.887,8.042-2.498,17.884-4.535,35.84-7.413,53.662-2.52,15.605-1.101,31.874-7.798,46.79-1.866,4.155 1.126,5.702 4.413,7.455 5.826-10.793 11.56-21.414 17.293-32.035 1.33,3.102 1.067,5.517 0.205,7.695-3.458,8.738-6.955,17.468-10.73,26.073-2.426,5.529-2.577,10.225 2.84,13.871 16.111-4.924 16.111-4.924 23.95-2.532zm-300.421,198.452c1.143-3.331 2.352-5.937 2.927-8.676 4.002-19.062 8.158-38.099 11.632-57.259 1.252-6.908 0.784-14.137-4.04-20.195-7.22,3.372-11.444,11.193-20.66,12.06 3.644-11.532 14.286-16.187 19.971-25.221-7.999-9.34-21.348-8.309-31.537-17.104 10.803-2.178 18.45,2.113 26.841,4.886 0-5.116 0-9.712 0-13.997-22.716-13.863-45.382-27.697-68.145-41.589-6.77,14.52-4.958,26.618 6.977,36.707 1.929,1.631 3.581,3.589 5.493,5.243 9.419,8.146 12.103,18.436 9.874,30.366-0.729,3.902-1.174,7.86-1.983,11.744-1.701,8.175 0.38,14.642 7.005,20.201 7.192,6.034 11.052,14.12 11.328,23.75 0.134,4.686 1.158,9.39 0.893,14.035-0.449,7.878 2.543,12.823 9.894,16.01 4.513,1.957 8.342,5.493 13.53,9.039zm31.563-83.308c-5.546-14.892-10.899-29.266-16.252-43.64-2.304,4.551-3.785,9.176-3.229,13.541 0.898,7.053 2.766,14.052 4.903,20.861 2.646,8.436 5.434,9.818 14.578,9.238zm229.526-87.366c7.218-10.445 7.139-19.064-0.603-32.179-2.613-4.426-4.675-10.309-11.419-9.435 4.07,14.091 7.955,27.539 12.022,41.614z"/>
    <path d="m217.843,199.362c3.925-12.147 12.969-18.195 23.701-22.6 19.601-8.046 31.605,1.011 38.023,19.818 1.848,5.414 1.268,12.285-0.081,18.048-4.568,19.518-13.529,37.223-24.67,53.795-1.484,2.207-4.154,4.646-6.583,5.031-28.632,4.54-57.082,3.966-83.366-9.493-20.258-10.374-22.902-35.708-5.742-50.736 6.564-5.748 15.179-9.599 23.434-12.859 9.969-3.937 18.855-3.511 35.284-1.004z"/>
    <path d="m272.765,313.189c3.117-10.748 6.234-21.497 9.224-31.805 4.131,4.966 0.428,21.123-9.224,31.805z"/>
    <path d="m243.626,325.11c0.881-13.535 6.155-24.058 9.609-36.505 1.53,9.787-2.835,26.386-9.609,36.505z"/>
    <path d="m225.514,327.42c3.37-11.353 6.739-22.705 10.108-34.058 1.252,12.594-3.503,23.59-7.02,34.908-1.029-0.283-2.059-0.567-3.088-0.85z"/>
    <path d="m186.675,290.341c-3.045,10.96-6.091,21.921-9.364,33.703-4.112-3.953-0.861-8.122-0.477-11.658 0.417-3.836 2.161-7.567 3.585-11.243 1.482-3.827 3.271-7.535 4.926-11.295 0.443,0.165 0.886,0.329 1.33,0.493z"/>
    <path d="m200.463,297.408c-2.203,9.096-4.406,18.191-6.61,27.287-0.965-0.243-1.931-0.487-2.896-0.73 2.329-9.123 4.657-18.245 6.986-27.368 0.84,0.27 1.68,0.54 2.52,0.811z"/>
    <path d="m162.236,321.951c-3.008-11.163 0.917-20.802 7.02-29.967-2.337,9.982-4.673,19.964-7.016,29.949-0.005,0.003-0.004,0.018-0.004,0.018z"/>
    <path d="m78.444,333.574c-2.844,10.804-5.689,21.609-8.533,32.413-0.961-0.263-1.922-0.526-2.883-0.79 2.943-10.811 5.886-21.622 8.829-32.433 0.862,0.27 1.725,0.54 2.587,0.81z"/>
    <path d="m64.496,347.487c-1.349,3.837-2.697,7.674-4.046,11.512 0.108-4.297-1.297-9.248 4.215-11.325l-.169-.187z"/>
    <path d="m64.664,347.674c0.252-4.756 0.505-9.512 0.757-14.267 0.721,0.086 1.442,0.173 2.163,0.259-1.059,4.571-2.118,9.142-3.133,13.767 0.045,0.054 0.214,0.241 0.213,0.241z"/>
  </g>
</svg>
