<?xml version="1.0" encoding="iso-8859-1"?>
<!-- Generator: Adobe Illustrator 16.0.0, SVG Export Plug-In . SVG Version: 6.00 Build 0)  -->
<!DOCTYPE svg PUBLIC "-//W3C//DTD SVG 1.1//EN" "http://www.w3.org/Graphics/SVG/1.1/DTD/svg11.dtd">
<svg version="1.1" id="Capa_1" xmlns="http://www.w3.org/2000/svg" xmlns:xlink="http://www.w3.org/1999/xlink" x="0px" y="0px"
	 width="191.66px" height="191.66px" viewBox="0 0 191.66 191.66" style="enable-background:new 0 0 191.66 191.66;"
	 xml:space="preserve">
<g>
	<path d="M187.128,118.657c-2.063-0.099-4.128-0.162-6.19-0.252c6.881-21.219,16.651-53.812,6.023-74.521
		c-7.408-14.434-25.634-26.095-35.875-7.251c-0.081,0.15-0.039,0.306-0.072,0.462c-8.115,0.484-8.774,13.065-8.439,20.824
		c-18.193-0.105-36.475-0.197-54.386,3.421c-6.252,1.263-17.79,7.569-18.6,14.143c-1.613,0.092-3.223,0.203-4.834,0.324
		c0.261-4.32,0.485-8.643,0.695-12.971c0.016-0.323,0.07-0.743,0.101-1.102c0.365-0.64,0.467-1.439,0.198-2.125
		c0.353-3.151,0.764-6.888-0.109-9.723c4.564,0.067,9.122,0.128,13.665,0.215c2.322,0.044,3.714-1.84,3.942-3.942
		c3.557-32.73-40.211-18.832-58.572-19.792c-2.166-0.113-3.978,1.896-3.977,3.979c0.001,4.863,0.031,9.018,1.053,13.745
		c0.257,1.188,1.182,1.863,2.222,2.079c0.005,1.047,0.717,2.091,2.14,2.208c5.336,0.437,10.701,0.71,16.075,0.925
		c-3.165,5.613-1.951,18.19-0.479,27.182c-0.262-0.721-0.836-1.311-1.891-1.476C15.911,71.27,2.985,96.935,6.843,117.555
		c0.005,0.024,0.021,0.039,0.026,0.062c-0.774,0.011-1.547,0.022-2.322,0.034c-6.058,0.088-6.068,9.429,0,9.403
		c24.51-0.104,48.797-1.431,73.096-1.777c-0.657,0.667-1.102,1.586-1.071,2.826c0.876,35.017-62.504,33.807-56.636,2.112
		c0.604-3.263-3.692-4.37-4.899-1.35c-15.019,37.569,71.872,48.841,69.877-0.762c-0.052-1.287-0.584-2.249-1.337-2.92
		c7.556-0.053,15.116,0.024,22.685,0.271c-6.726,19.488,4.942,39.426,25.916,41.727c22.746,2.492,37.391-15.003,37.869-35.993
		c10.256-0.04,18.916-1.863,20.646-7.854C191.387,120.937,189.486,118.771,187.128,118.657z M85.618,69.914
		c7.335-2.208,15.183-2.766,22.78-3.312c12.81-0.921,25.646-0.667,38.476-0.598c2.048,0.011,4.229-1.847,4.031-4.031
		c-0.738-8.149-0.093-23.429,8.088-10.208c5.333,8.619,4.188,19.556-4.239,25.548c-10.586,7.526-28.958,4.46-41.002,3.364
		c-11.938-1.086-23.867-3.129-35.885-2.502c-0.113,0.006-0.19,0.062-0.298,0.075C77.071,73.507,79.267,71.826,85.618,69.914z
		 M27.641,43.845c0.697-3.327,0.913-6.389,0.976-9.618c15.102-1.006,44.923-8.826,46.764,8.051
		C59.494,42.538,43.466,42.628,27.641,43.845z M48.747,79.535c1.593,0.233,3.296,0.132,4.822,0.001
		c2.054-0.176,4.241-0.474,5.918-1.511c0.162,2.326,0.297,4.655,0.507,6.976c-3.745,0.273-7.512,0.561-11.207,1.175
		c0.165-0.35,0.275-0.74,0.257-1.201C48.977,83.16,48.853,81.348,48.747,79.535z M58.162,55.787
		c0.059,0.725,0.131,1.443,0.201,2.138c-1.683,0.316-3.331,0.782-4.641,1.051c-1.844,0.378-3.684,0.848-5.526,1.297
		c0.102-1.54,0.269-3.116,0.465-4.602C51.808,55.796,55.016,55.971,58.162,55.787z M49.661,50.989
		c0.082-0.208,0.156-0.511,0.242-0.653c0.144-0.237,0.18-0.505,0.234-0.767c2.794,0.075,5.585,0.14,8.379,0.19
		c-0.114,0.364-0.161,0.764-0.229,1.153C55.434,50.734,52.527,50.864,49.661,50.989z M53.242,64.562
		c1.82-0.297,3.648-0.512,5.478-0.721c0.03,0.645,0.057,1.289,0.084,1.934c-2.098,0.558-4.129,1.342-6.261,1.827
		c-1.427,0.325-2.881,0.474-4.341,0.562c-0.035-0.885-0.08-1.771-0.114-2.656C49.828,65.241,51.572,64.834,53.242,64.562z
		 M59.042,71.248c0.022,0.41,0.031,0.82,0.054,1.229c-0.201-0.007-0.405-0.071-0.599-0.033c0.666-0.131-0.539,0.062-0.509,0.058
		c-0.692,0.09-1.073,0.226-1.718,0.471c-1.117,0.424-2.298,0.682-3.464,0.921c-1.409,0.288-2.878,0.388-4.338,0.441
		c-0.028-0.461-0.033-0.923-0.06-1.383C52.058,72.934,55.791,72.615,59.042,71.248z M135.341,159.008
		c-18.884,0.094-26.131-16.688-22.94-32.978c0.022-0.111-0.006-0.198,0.006-0.304c6.355,0.295,12.718,0.69,19.095,1.312
		c4.697,0.457,17.276,2.9,29.666,3.819C160.527,146.118,152.518,158.924,135.341,159.008z M13.755,117.519
		c0.065-0.294,0.151-0.577,0.126-0.916c-1.326-17.901,5.581-34.145,25.17-35.935c1.705-0.156,2.79-1.788,2.81-3.269
		c0.651,3.824,1.323,6.906,1.673,8.321c0.158,0.642,0.521,1.086,0.957,1.414c-0.535,0.14-1.086,0.218-1.616,0.38
		c-1.921,0.587-1.648,3.761,0.489,3.612c7.255-0.506,14.309-0.713,21.565-0.035c4.179,0.391,4.177-6.877,0-6.484
		c-0.263,0.025-0.532,0.04-0.796,0.063c0.144-1.64,0.229-3.282,0.345-4.923c1.856,0.143,3.712,0.269,5.571,0.374
		c0.35,0.019,0.725,0.067,1.097,0.11c0.74,0.888,1.683,1.764,3.027,2.606c0.227,1.721,1.414,3.254,3.694,3.186
		c23.615-0.709,96.314,18.966,91.869-25.874c-0.811-8.168-5.906-19.033-14.211-22.186c22.312-12.477,28.377,16.957,27.045,33.66
		c-1.26,15.779-7.303,30.808-8.713,46.493C120.617,116.041,67.308,116.736,13.755,117.519z"/>
</g>
<g>
</g>
<g>
</g>
<g>
</g>
<g>
</g>
<g>
</g>
<g>
</g>
<g>
</g>
<g>
</g>
<g>
</g>
<g>
</g>
<g>
</g>
<g>
</g>
<g>
</g>
<g>
</g>
<g>
</g>
</svg>
