<?xml version="1.0" encoding="iso-8859-1"?>
<!-- Generator: Adobe Illustrator 16.0.0, SVG Export Plug-In . SVG Version: 6.00 Build 0)  -->
<!DOCTYPE svg PUBLIC "-//W3C//DTD SVG 1.1//EN" "http://www.w3.org/Graphics/SVG/1.1/DTD/svg11.dtd">
<svg version="1.1" id="Capa_1" xmlns="http://www.w3.org/2000/svg" xmlns:xlink="http://www.w3.org/1999/xlink" x="0px" y="0px"
	 width="190.919px" height="190.919px" viewBox="0 0 190.919 190.919" style="enable-background:new 0 0 190.919 190.919;"
	 xml:space="preserve">
<g>
	<g>
		<path d="M188.475,102.042c-3.227-8.453-9.954-14.946-18.121-18.419c1.722-64.689-132.42-62.415-132.248-9.412
			c-0.565,0.174-0.953,0.55-1.138,1.029c-7.794,0.167-18.083,10.634-22.138,16.445c-3.059,4.385-5.432,9.436-5.695,14.871
			c-0.145,2.979-1.409,8.848-0.362,12.365c-3.69,1.39-7.755,3.992-8.615,8.134c-0.892,4.293,2.128,7.641,5.923,9.075
			c5.574,2.108,13.485,0.994,18.84-1.162c0.442-0.178,0.768-0.492,0.985-0.859c3.386,12.676,15.347,24.068,29.441,21.771
			c8.884-1.448,16.337-9.287,18.857-18.092c14.886-0.55,29.764-0.989,44.65-1.49c3.373,8.693,11.757,15.496,20.994,16.544
			c11.026,1.252,22.91-3.882,26.764-13.874c8.016,3.812,19.191,2.059,20.343-8.195c0.133-1.184,0.062-2.264-0.113-3.286
			C192.642,120.866,191.367,109.62,188.475,102.042z M170.174,90.496c4.754,2.985,8.438,7.157,11.21,12.305
			c0.268,0.497,0.463,0.981,0.678,1.469c-1.503,0.449-2.94,1.319-4.559,1.431c-1.875,0.129-3.412-0.914-4.645-2.213
			c-3.006-3.168-3.4-8.654-2.682-12.714C170.194,90.673,170.17,90.59,170.174,90.496z M90.738,43.718
			c3.43-0.463,6.741-0.788,9.772-0.973c6.95-0.424,13.983-0.103,20.726,1.037c-0.812,3.719-0.354,7.809-0.31,11.555
			c0.063,5.456,0.095,10.916,0.009,16.374c-11.965,0.284-23.933,0.717-35.898,1.141c1.655-5.35,2.985-10.817,4.077-16.301
			C89.872,52.743,91.348,47.815,90.738,43.718z M85.064,44.617c-0.647,3.641-0.31,7.757-0.722,11.289
			c-0.669,5.733-1.815,11.382-2.773,17.066c-13.006,0.457-26.011,0.882-39.012,1.054C46.744,56.018,66.782,47.95,85.064,44.617z
			 M19.356,98.988c0.004,0.003,0.022-0.007,0.021-0.016c0.008-0.011,0.036-0.041,0.01-0.041c0.013-0.056,0.054-0.154,0.256-0.408
			c0.192-0.241,0.151-0.499,0.029-0.698c0.61-1.07,1.303-2.137,2.15-3.216c2.971-3.781,8.302-6.642,12.415-10.064
			c0.54,2.624,1.365,5.047,0.062,7.796c-1.146,2.42-3.492,3.977-5.83,5.1c-2.051,0.984-4.483,1.515-6.753,1.556
			c-0.808,0.015-1.78-0.332-2.52,0.109C19.336,99.023,19.33,99.015,19.356,98.988z M24.426,131.303
			c-4.999,0.157-9.9,1.03-14.798-0.466c-1.064-0.324-2.581-1.236-2.915-1.547c-0.18-0.168-0.286-0.323-0.334-0.4
			c-0.042-0.151-0.087-0.389-0.096-0.378c0.004-0.017,0.004-0.004,0.009-0.025c0.132-0.672,0.484-1.135,1.426-1.983
			c0.992-0.895,2.721-1.674,4.173-2.17c2.118-0.723,4.348-1.104,6.574-1.264c1.948-0.141,4.791,0.453,6.924-0.083
			c-0.495,2.796-0.467,5.685,0.034,8.575C25.153,131.402,24.838,131.29,24.426,131.303z M50.768,148.355
			c-7.511,0.116-13.887-6.848-16.506-13.271c-3.257-7.988-0.69-14.256,4.887-19.498c10.169-2.748,21.637,0.711,26.998,10.193
			C71.796,135.775,60.955,148.197,50.768,148.355z M139.431,145.359c-7.656-1.428-13.796-8.384-14.756-16.021
			c-1.403-11.153,8.104-12.459,16.132-15.237c0.664-0.229,1.192-0.674,1.571-1.217c8.733,1.79,16.147,7.946,18.227,16.864
			C163.373,141.616,148.82,147.11,139.431,145.359z M167.48,135.858c0.28-1.4,0.448-2.861,0.417-4.413
			c-0.058-2.875-0.69-5.585-1.741-8.093c5.453-0.555,14.377-0.322,14.79,7.018C181.353,137.587,172.435,136.71,167.48,135.858z
			 M182.573,120.751c-4.723-3.573-12.204-4.594-17.474-3.637c-0.853,0.155-1.44,0.633-1.809,1.249
			c-5.305-7.151-14.429-11.584-23.312-11.219c-0.708,0.028-1.228,0.282-1.641,0.62c-11.397-0.789-21.081,9.113-21.095,20.408
			c-0.001,0.681,0.147,1.337,0.21,2.008c-14.105,0.021-28.474,1.597-42.417,3.39c0.339-3.519-0.164-7.054-1.738-10.28
			c-5.705-11.705-19.33-16.935-31.346-13.736c-1.01-1.573-3.162-2.615-5.104-1.635c-4.94,2.494-8.132,6.052-9.969,10.094
			c-2.225-1.785-6.468-1.111-9.069-0.922c-0.692,0.05-1.375,0.18-2.064,0.263c0.03-1.595,0.488-3.196,0.62-6.256
			c0.168-3.89,0.655-7.21,1.904-10.377c0.164,0.274,0.361,0.544,0.615,0.798c1.997,1.997,7.092,0.872,9.414,0.282
			c3.821-0.974,7.158-3.101,9.429-6.335c2.562-3.65,2.988-10.38,0.274-14.037c-0.095-0.128-0.22-0.224-0.339-0.327
			c0.533-0.708,0.998-1.446,1.355-2.231c0.863,0.535,2.054,0.269,2.595-0.733c38.774,2.166,77.75,0.896,116.542-0.157
			c4.168-0.113,4.176-6.397,0-6.472c-10.652-0.191-21.307-0.095-31.963,0.114c0.749-4.872,1.062-9.837,1.341-14.73
			c0.211-3.72,0.771-7.875,0.267-11.7c18.299,4.803,33.237,16.533,36.177,37.79c-1.246,1.362-1.1,4.059,1.191,4.972
			c0.795,0.317,1.479,0.761,2.227,1.131c-0.206,0.194-0.386,0.436-0.486,0.789c-1.681,5.968-0.978,12.554,2.967,17.476
			c2.756,3.438,9.764,4.697,13.669,2.068C184.043,113.225,183.355,116.882,182.573,120.751z"/>
		<path d="M86.121,102.819c0.228-4.805,2.73-9.813,1.854-14.491c-0.37-1.973-3.081-2.477-4.378-1.156
			c-3.297,3.358-2.812,9.335-3.007,13.77c-0.25,5.717,0.228,11.637,1.431,17.233c0.524,2.437,4.462,1.896,4.338-0.587
			C86.112,112.646,85.886,107.771,86.121,102.819z"/>
		<g>
			<path d="M122.905,87.122C122.938,86.938,122.923,86.964,122.905,87.122L122.905,87.122z"/>
			<path d="M128.144,85.523c-1.846-2.171-5.009-0.48-5.234,1.99c-0.013-0.193-0.014-0.305-0.004-0.393
				c-0.021,0.12-0.063,0.297-0.164,0.566c-0.271,0.724-0.158,1.721-0.165,2.486c-0.019,2.109-0.156,4.22-0.29,6.325
				c-0.17,2.679-2.002,9.828,1.033,11.379c0.013,0.009,0.019,0.025,0.032,0.033c0.002,0,0.005,0,0.008,0.002
				c0.003,0,0.004,0.004,0.006,0.004c0,0,0.001-0.002,0.001-0.004c0.396,0.201,0.764,0.307,1.212,0.282
				c0.932-0.05,2.07-0.491,2.479-1.421c1.924-4.384,1.864-10.371,2.304-15.092C129.571,89.414,129.701,87.355,128.144,85.523z"/>
		</g>
	</g>
</g>
<g>
</g>
<g>
</g>
<g>
</g>
<g>
</g>
<g>
</g>
<g>
</g>
<g>
</g>
<g>
</g>
<g>
</g>
<g>
</g>
<g>
</g>
<g>
</g>
<g>
</g>
<g>
</g>
<g>
</g>
</svg>
