<?xml version="1.0" encoding="iso-8859-1"?>
<!-- Generator: Adobe Illustrator 16.0.0, SVG Export Plug-In . SVG Version: 6.00 Build 0)  -->
<!DOCTYPE svg PUBLIC "-//W3C//DTD SVG 1.1//EN" "http://www.w3.org/Graphics/SVG/1.1/DTD/svg11.dtd">
<svg version="1.1" id="Capa_1" xmlns="http://www.w3.org/2000/svg" xmlns:xlink="http://www.w3.org/1999/xlink" x="0px" y="0px"
	 width="189.55px" height="189.55px" viewBox="0 0 189.55 189.55" style="enable-background:new 0 0 189.55 189.55;"
	 xml:space="preserve">
<g>
	<g>
		<path d="M158.362,146.024c-0.522,0.147-1.036,0.376-1.547,0.616c-0.111-0.582-0.595-1.116-1.226-1.139
			c-2.838-0.099-6.374,0.286-7.397,3.487c-0.698,2.188,0.646,4.22,0.301,6.382c-0.125,0.78-0.551,2.081,0.113,3.215
			c0.77,1.312,2.211,1.708,3.623,1.422c1.472-0.299,2.829-1.741,3.911-2.671c2.117-1.817,5.814-4.642,6.358-7.576
			C162.97,147.217,160.845,145.321,158.362,146.024z"/>
		<path d="M55.83,147.176c-0.02-0.01-0.054-0.024-0.075-0.035c-0.631-1.557-1.753-2.414-3.414-1.727c-0.067,0-0.134,0-0.2,0
			c0.214-0.255,0.467-0.449,0.654-0.755c0.806-1.317-0.74-2.583-1.98-1.979c-1.814,0.882-3.897,1.085-5.632,2.116
			c-2.52,1.5-2.425,4.474-2.034,7.002c0.168,1.089,1.21,1.751,2.225,1.96c0.326,1.853,1.708,3.531,3.605,3.064
			c0.487,0.554,0.993,1.053,1.536,1.379c3.547,2.127,5.599-2.277,5.831-6.528c0.018-0.014,0.042-0.02,0.06-0.033
			C57.778,150.529,57.375,147.929,55.83,147.176z"/>
		<path d="M182.454,86.537c-5.32-5.037-23.36-12.877-23.567-0.456c-13.259-15.056-34.191-21.221-53.597-17.974
			c0.217-0.816,0.474-1.612,0.647-2.448c1.63-7.827,0.574-14.685-2.196-20.692c0.923,0.139,1.962-0.225,2.585-1.036
			c2.578-3.359,2.989-9.279,3.879-13.35c1.271-5.818,2.072-11.835,1.38-17.776c-0.27-2.302-2.357-3.742-4.558-2.615
			c-8.81,4.516-18.266,7.224-27.5,10.689c-0.498,0.187-0.821,0.498-1.046,0.848c-1.577-0.788-3.197-1.389-4.802-2.083
			c0.051-2.602-3.31-3.722-5.527-2.317c-2.969-1.086-5.927-2.051-8.771-2.819c-1.847-0.499-3.017,0.755-3.205,2.175
			c-7.819-0.362-15.227,0.187-21.964,1.832C24.434,13.724,14.754,7.481,3.906,5.558C2.04,5.227-0.103,6.376,0.004,8.529
			C0.525,19.073,0.22,30.404,4.089,40.395c0.302,0.781,0.863,1.171,1.455,1.288c-1.707,3.85-3.053,8.16-3.9,13.083
			c-3.902,22.682,15.411,44.983,37.006,50.848c-5.73,4.194-2.981,16.165-1.073,21.577c-5.17,2.652-9.445,7.224-11.676,13.427
			c-5.472,15.212,3.599,31.413,18.936,35.839c11.053,3.19,21.932-3.572,27.563-12.846c9.154,2.215,18.534,2.832,27.961,2.891
			c9.387,0.06,19.5,1.032,28.77-0.371c2.42-0.365,2.022-3.877,0-4.494c-7.808-2.385-16.832-1.179-24.914-1.104
			c-9.969,0.093-19.862-0.063-29.761-1.051c4.753-11.779-0.152-23.765-11.339-29.683c-0.424-0.224-0.84-0.329-1.241-0.368
			c-0.026-0.258-0.1-0.51-0.229-0.738c7.107-5.263,10.154-16.226,6.481-24.269c5.497-1.693,10.762-4.111,15.528-7.25
			c18.27,15.162,55.314,10.589,60.854-14.815c2.873,1.869,5.678,3.937,8.34,6.409c3.2,2.97,5.723,6.086,7.702,9.332
			c-0.068,0.025-0.114,0.068-0.177,0.103c-13.395,2.637-23.542,16.654-15.139,29.677c0.03,0.046,0.075,0.068,0.107,0.111
			c-23.817,7.18-19.703,56.841,11.217,56.048c23.454-0.602,27.973-32.29,15.428-48.196c2.093-5.792,2.554-11.863,1.846-17.87
			c6.836-2.849,14.362-7.48,15.562-15.426C190.337,96.321,186.805,90.655,182.454,86.537z M105.723,17.226
			c-0.031,4.573-0.758,9.059-1.734,13.602c-0.713,3.316-2.223,7.07-2.132,10.575C97.52,34.317,90.683,28.605,82.97,24.145
			C90.735,22.466,98.362,20.209,105.723,17.226z M64.86,22.232c-1.248,1.814-2.82,3.39-4.565,4.766
			c0.168-2.209,0.223-4.427-0.108-6.522C61.757,21.054,63.318,21.637,64.86,22.232z M54.315,20.749
			c0.951-0.101,1.898-0.211,2.85-0.327c-0.451,2.79-0.194,5.813,0.037,8.705c-1.042,0.614-2.117,1.17-3.212,1.658
			C54.888,27.405,55.422,23.53,54.315,20.749z M46.679,21.625c1.624-0.245,3.228-0.361,4.853-0.556
			c-0.574,1.711-0.367,3.366-0.35,5.222c0.017,1.97-0.215,3.9-0.583,5.818c-0.018,0.006-0.036,0.015-0.054,0.021
			c-0.786,0.247-1.517,0.391-2.243,0.525c-0.009-0.328-0.116-0.645-0.482-0.836c-3.977-2.073-1.314-5.597-0.544-8.641
			C47.455,22.469,47.147,21.931,46.679,21.625z M44.581,21.976c-1.819,1.702-2.716,4.553-2.364,6.999
			c0.276,1.921,1.19,3.079,2.532,3.878c-4.552-0.436-7.447-3.709-8.554-9.124C38.924,23,41.743,22.454,44.581,21.976z M6.08,12.408
			c6.952,1.999,13.23,5.689,19.701,8.944c-7.552,3.342-13.807,8.626-18.21,16.317C6.39,29.206,5.884,20.907,6.08,12.408z
			 M49.847,170.541c-12.405,0.039-20.903-13.808-18.693-25.042c2.546-12.948,16.194-17.52,27.605-14.223
			c-0.68,1.333-0.537,3.041,1.171,3.978C77.16,144.705,68.736,170.482,49.847,170.541z M45.257,115.246
			c0.139-2.52,1.031-5.62,0.893-8.309c0.373,0.041,0.746,0.107,1.12,0.129c0.324,0.018,0.648-0.021,0.972-0.009
			c-0.103,2.269,0.051,4.564,0.09,6.831c0.062,3.594,0.102,7.188,0.266,10.779c-2.091-0.028-4.167,0.149-6.168,0.669
			c-0.792-3.098-1.364-6.194-1.398-9.414c-0.011-1.026,0.152-1.907,0.378-2.748c0.003,0.309,0.006,0.647,0.005,0.937
			c-0.012,3.549,0.506,7.191,2.257,10.3c0.408,0.723,1.671,0.438,1.611-0.436C45.088,121.097,45.098,118.127,45.257,115.246z
			 M51.997,107.023c1.88-0.052,3.755-0.187,5.623-0.386c-1.8,5.678-0.686,13.192-0.47,18.765c0.017,0.434,0.208,0.733,0.44,0.976
			c-0.017,0.019-0.032,0.037-0.049,0.056c-1.938-0.783-3.921-1.238-5.905-1.521c0.174-3.672,0.21-7.348,0.273-11.022
			C51.948,111.612,52.104,109.302,51.997,107.023z M60.326,123.009c0.104-2.319,0.201-4.64,0.383-6.957
			c0.26-3.322,1.21-6.722,1.242-10.043c0.019-0.004,0.038-0.005,0.057-0.008c0.049,0.121,0.084,0.252,0.143,0.364
			C65.087,111.987,63.661,118.114,60.326,123.009z M51.617,101.213C25.281,102.506,3.934,76.584,8.186,51.617
			c2.636-15.475,12.494-22.936,24.54-26.877c-0.705,9.051,5.39,15.074,15.039,14.573c9.367-0.486,18.68-6.366,23.627-14.395
			c15.094,6.655,27.197,15.815,28.692,35.339c0.245,3.197-0.079,6.232-0.827,9.111c-1.194,0.488-1.49,1.988-0.98,2.998
			C91.617,89.739,68.425,100.388,51.617,101.213z M115.083,86.435c0.111,4.119,0.282,8.231,0.47,12.344
			c-2.477,0.41-5.006,0.67-7.576,0.641c1.873-7.548,4.294-17.209,2.393-24.403c-0.483-1.826-3.111-1.764-3.625,0
			c-1.149,3.945-0.858,8.255-1.247,12.34c-0.376,3.966-0.931,7.913-1.356,11.873c-3.688-0.339-7.333-1.083-10.73-2.214
			c0.315-0.295,0.515-0.683,0.525-1.128c0.289-1.634,0.625-3.255,1.016-4.871c0.409-1.693,1.208-3.615,1.423-5.438
			c3.024-3.794,5.552-7.989,7.339-12.609c4.13-0.354,8.177-0.363,12.143-0.064c-0.196,0.2-0.406,0.386-0.522,0.695
			C113.944,77.294,114.977,82.559,115.083,86.435z M123.176,96.648c-1.446,0.597-2.933,1.13-4.49,1.524
			c0.172-3.911,0.34-7.821,0.447-11.738c0.104-3.875,1.138-9.14-0.249-12.833c-0.072-0.193-0.22-0.283-0.327-0.434
			c1.693,0.196,3.37,0.455,5.028,0.778c-0.042,3.182,0.536,6.605,0.459,9.639C123.933,87.95,123.614,92.304,123.176,96.648z
			 M137.768,78.808c-1.263,7.691-5.563,12.942-11.317,16.235c0.661-3.803,1.244-7.617,1.645-11.459
			c0.241-2.311,0.746-5.52,0.562-8.425c3.143,0.891,6.212,2.026,9.188,3.445C137.828,78.683,137.781,78.726,137.768,78.808z
			 M163.116,104.751c0.201-0.02,0.391-0.063,0.597-0.077c3.116,8.118,3.626,16.898,2.997,26.175c-2.184-1.498-4.69-2.57-7.449-3.224
			c1.146-4.248,2.024-8.535,2.601-12.914C162.287,111.487,162.892,108.098,163.116,104.751z M150.62,111.564
			c0.047,0.555,0.098,1.113,0.132,1.648c0.21,3.324,0.753,6.62,1.601,9.838c0.622,2.362,4.105,1.355,3.625-0.999
			c-0.599-2.931-0.843-5.854-0.96-8.839c-0.073-1.849,0.09-3.805,0.029-5.713c0.974-0.62,2.042-1.131,3.157-1.569
			c-0.126,1.483-0.214,2.982-0.334,4.507c-0.442,5.593-0.961,11.148-2.047,16.646c-0.555-0.048-1.084-0.138-1.658-0.149
			c-0.458-0.01-0.853,0.075-1.191,0.224c-1.347-0.085-2.611-0.024-3.838,0.1c0.052-0.3,0.05-0.623-0.086-0.984
			C146.975,120.744,147.823,115.505,150.62,111.564z M156.561,178.039c-26.513,3.206-27.006-39.936-4.944-47.88
			c0.228,1.14,1.055,2.17,2.549,2.261c4.927,0.303,8.868,2.42,11.896,5.508c-0.011,0.101-0.02,0.199-0.031,0.301
			c-0.154,1.364,1.021,2.218,2.233,2.317C177.077,153.098,173.854,175.948,156.561,178.039z M172.81,112.25
			c-2.164-8.961-6.76-17.509-12.42-24.471c0.202-0.116,0.369-0.308,0.454-0.59c2.411-7.943,15.343,1.376,18.116,4.038
			c2.753,2.644,5.248,6.522,4.617,10.507C182.744,106.999,177.335,110.049,172.81,112.25z"/>
		<path d="M66.975,73.705c-4.293,6.01-9.741,6.299-11.589-0.835c0.177-0.272,0.385-0.531,0.485-0.829
			c0.319-0.955,0.28-1.819-0.107-2.739c-0.295-0.705-0.127-0.901,0.348-1.925c1.171-2.528-0.221-5.339-3.141-5.474
			c-2.447-0.114-4.653-1.151-7.126-1.146c-2.007,0.004-4.054,2.178-3.239,4.252c1.065,2.71,2.727,5.469,5.608,6.381
			c-0.056,0.107-0.142,0.195-0.187,0.308c-4.407,10.998-16.076,12.664-23.551,3.81c-1.583-1.875-4.114,0.51-3.188,2.46
			c6.349,13.367,21.063,11.503,29.359,2.562c5.337,8.025,16.457,6.886,22.528-3.2C75.604,73.291,69.616,70.007,66.975,73.705z"/>
		<path d="M36.179,48.355c-1.879-3.133-5.255-5.417-8.816-6.128c-9.177-1.834-14.99,7.197-12.616,15.474
			c0.68,2.369,4.763,2.76,5.183,0c0.567-3.723,1.198-9.104,5.923-8.171c1.58,0.312,2.982,1.258,3.887,2.588
			c1.461,2.146,0.47,5.263,2.615,6.955c1.09,0.86,2.292,1.147,3.576,0.461C39.921,57.403,37.984,51.365,36.179,48.355z"/>
		<path d="M73.56,44.533c-2.955-0.171-5.77,1.398-7.454,3.759c-2.275,3.188-2.035,7.11-0.966,10.695c0.561,1.88,3.846,2.242,4.168,0
			c0.328-2.273,0.796-4.579,2.031-6.546c0.597-0.952,1.645-0.904,2.655-0.84c3.423,0.217,4.401,4.082,5.983,6.493
			c1.922,2.928,5.694,1.493,6.11-1.655C86.922,50.105,79.005,44.849,73.56,44.533z"/>
		<path d="M127.971,127.401c-5.932-12.452-25.496-13.725-33.944-3.469c-0.47,0.271-0.936,0.598-1.399,0.991
			c-3.191,2.715-4.136,7.291-3.985,11.286c0.381,10.039,8.322,19.045,18.77,18.335C120.593,153.649,134.437,140.972,127.971,127.401
			z M95.726,129.926c0.535,0.02,1.08-0.062,1.598-0.373c0.396-0.238,0.75-0.465,1.128-0.699c-0.736,2.76-0.238,5.979-0.074,8.746
			c0.139,2.339,0.438,4.677,0.833,6.997C95.329,140.807,93.859,134.164,95.726,129.926z M106.57,136.242
			c-0.012,3.745-0.19,7.483-0.449,11.216c-1.214,0.005-2.338-0.212-3.381-0.596c-0.604-3.479-0.768-6.987-0.833-10.516
			c-0.055-2.894,0.523-6.106-0.718-8.787c-0.049-0.105-0.151-0.156-0.228-0.237c0.628-0.382,1.254-0.771,1.879-1.107
			c0.395,0.044,0.754,0.035,1.181,0.128c0.87,0.191,1.289-0.557,1.114-1.192c0.561-0.217,1.175-0.336,1.771-0.488
			C106.187,128.445,106.582,132.395,106.57,136.242z M110.153,124.26c0.422-0.006,0.79-0.084,1.238-0.052
			c1.74,0.123,3.42,0.749,4.965,1.623c-0.123,2.844,0.056,5.719,0.045,8.56c-0.012,3.227-0.18,6.44-0.334,9.657
			c-2.095,1.35-4.431,2.375-6.605,2.944C110.698,139.495,111.726,131.193,110.153,124.26z M119.967,140.769
			c0.594-3.554,0.931-7.223,0.938-10.807c0.11,0.16,0.264,0.295,0.364,0.459C123.625,134.208,122.544,137.835,119.967,140.769z"/>
	</g>
</g>
<g>
</g>
<g>
</g>
<g>
</g>
<g>
</g>
<g>
</g>
<g>
</g>
<g>
</g>
<g>
</g>
<g>
</g>
<g>
</g>
<g>
</g>
<g>
</g>
<g>
</g>
<g>
</g>
<g>
</g>
</svg>
