<?xml version='1.0' encoding='iso-8859-1'?>
<!DOCTYPE svg PUBLIC '-//W3C//DTD SVG 1.1//EN' 'http://www.w3.org/Graphics/SVG/1.1/DTD/svg11.dtd'>
<svg version="1.1" xmlns="http://www.w3.org/2000/svg" viewBox="0 0 455.375 455.375" xmlns:xlink="http://www.w3.org/1999/xlink" enable-background="new 0 0 455.375 455.375">
  <g>
    <path d="m0,370.59c0.325-0.174 0.873-0.285 0.943-0.531 5.126-18.177 18.911-30.162 30.949-43.408 23.531-25.893 46.491-52.331 70.686-77.586 19.34-20.186 39.692-39.479 60.53-58.122 9.756-8.728 21.434-15.469 32.771-22.22 9.735-5.797 20.138-6.551 30.3,0.023 7.118,4.604 14.145,3.479 20.487-1.592 6.314-5.05 12.251-10.57 18.471-15.741 6.77-5.629 13.433-11.436 20.587-16.542 8.254-5.891 9.921-8.343 5.699-17.885-5.755-13.008 10.833-24.958 22.885-22.348 14.35,3.108 24.325,11.9 31.683,23.88 3.242,5.279 5.496,11.264 7.535,17.158 3.081,8.905 0.954,15.969-7.945,17.278-16.535,2.433-24.247,15.014-34.2,25.237-7.188,7.383-13.774,15.349-20.867,22.828-4.092,4.314-6.185,8.941-5.037,14.964 1.373,7.201 1.622,14.733 3.876,21.625 4.291,13.12 1.151,23.467-8.433,33.03-9.374,9.354-17.819,19.63-26.887,29.301-26.196,27.937-52.21,56.056-78.892,83.524-12.553,12.922-26.647,24.333-39.693,36.796-5.499,5.253-9.676,11.896-15.219,17.093-5.267,4.938-11.379,9.041-17.42,13.059-2.937,1.953-6.56,2.876-9.873,4.266-10.326,0-20.653,0-30.979,0-0.869-0.603-1.657-1.515-2.617-1.764-29.485-7.609-47.594-26.301-54.873-55.795-0.941-3.815-2.952-7.365-4.467-11.038 0-5.163 0-10.327 0-15.49zm251.419-84.789c-2.425-15.638 4.785-29.107 7.703-43.424 0.922,0.166 1.845,0.331 2.767,0.497-2.41,12.419-4.82,24.839-7.365,37.957 1.781-0.903 2.874-1.201 3.624-1.879 6.914-6.251 11.078-14.911 18.683-20.701 3.545-2.699 4.078-7.163 2.98-12.111-2.225-10.027-3.382-20.289-5.177-30.418-1.342-7.572 1.029-13.852 6.257-19.131 13.741-13.877 27.577-27.66 41.374-41.482 3.472-3.477 6.855-5.268 12.558-4.715 8.819,0.857 12.383-5.142 9.385-13.707-1.578-4.509-3.301-9.035-5.579-13.216-4.869-8.934-11.502-16.168-21.48-19.578-4.25-1.453-8.685-2.862-12.356,1.07-3.266,3.499-2.193,7.511-0.521,11.365 3.164,7.294 0.555,12.7-5.191,17.44-4.237,3.495-8.11,7.433-12.132,11.187-11.312,10.556-22.352,21.424-34.01,31.583-9.278,8.086-20.725,9.3-30.886,3.1-8.897-5.428-15.934-3.339-23.733,0.654-18.216,9.326-33.648,22.429-48.713,36.011-0.569,0.512-0.352,1.896-0.514,2.959 39.082-4.729 66.128,6.137 89.366,58.15 1.915-9.489 3.689-18.281 5.463-27.073 2.62,15.66-1,30.691-4.021,47.335 4.771-4.918 8.295-8.55 11.518-11.873zm-105.397,106.76c2.153-0.87 3.303-1.043 4.045-1.686 3.057-2.654 5.87-5.598 9.001-8.155 3.485-2.847 4.468-6.357 4.35-10.72-0.625-23.018-7.66-43.507-24.394-59.76-15.995-15.536-34.274-25.723-57.68-19.899-3.657,0.91-7.507,3.105-10.121,5.813-16.373,16.962-32.462,34.2-48.535,51.449-2.578,2.767-4.604,6.048-6.481,8.554 7.935,0.565 15.754-0.654 22.046,1.896 19.894,8.059 38.763,18.087 50.798,37.214 4.407,7.004 9.261,13.725 14.911,22.046 1.175-14.364 2.203-26.935 3.231-39.507 0.275,0.006 0.551,0.011 0.826,0.017 0,16.642 0,33.283 0,50.584 9.019-9.536 8.784-9.553 9.593-20.454 1.313-17.69 2.969-35.355 4.48-53.03 0.709,0.045 1.418,0.09 2.128,0.135-0.808,18.84-1.615,37.679-2.452,57.185 7.784-2.768 7.952-8.281 8.546-13.819 1.543-14.379 3.343-28.732 5.041-43.096 0.625,0.062 1.251,0.123 1.876,0.185-1.117,15.131-2.234,30.262-3.408,46.17 7.06-4.909 7.002-4.918 7.916-10.486 2.335-14.223 4.727-28.436 7.096-42.654 0.593,0.082 1.186,0.165 1.779,0.247-1.501,13.641-3,27.282-4.592,41.771zm53.187-51.778c8.968-5.764 13.648-11.438 13.594-21.329-0.047-8.545 2.637-17.105 4.114-25.658 0.843,0.1 1.686,0.202 2.529,0.302-0.734,8.775-1.467,17.55-2.233,26.706 8.882-5.642 11.383-9.007 12.595-16.006 4.868-28.107-17.44-66.878-42.513-75.875-15.738-5.646-31.134-3.886-46.747-1.306-2.624,0.434-5.277,2.651-7.261,4.684-14.408,14.762-28.681,29.657-42.892,44.609-1.555,1.636-2.445,3.905-4.267,6.909 20.941-2.01 37.539,5.216 52.209,17.125 14.488,11.762 24.234,27.161 31.322,46.793 1.141-8.775 1.961-15.084 2.781-21.394 0.757,0.118 1.514,0.236 2.27,0.353-0.639,13.547-1.278,27.094-1.963,41.615 6.234-3.716 8.136-7.843 8.974-13.376 1.809-11.949 4.507-23.764 6.842-35.634 0.717,0.123 1.433,0.246 2.15,0.368-1.403,10.998-2.807,21.996-4.471,35.041 4.927-4.583 8.547-6.426 9.263-12.355 1.959-16.231 5.188-32.31 7.913-48.449 0.846,0.13 1.692,0.26 2.537,0.39 0.584,15.254-4.879,29.84-6.746,46.487zm-130.042,102.274c1.516-11.752 2.899-22.477 4.283-33.202 0.776,0.077 1.552,0.155 2.329,0.233-0.976,10.787-1.952,21.574-2.97,32.835 9.236,1.507 17.082-0.194 24.897-4.422-0.209-3.722-0.173-7.026-0.647-10.254-0.37-2.521-1.076-5.086-2.14-7.399-12.308-26.744-32.451-45.016-60.04-55.134-1.705-0.626-3.519-1.189-5.313-1.302-7.716-0.485-17.817,5.479-18.075,11.009-0.619,13.257 3.217,25.378 10.027,38.787 2.089-12.066 3.789-21.884 5.489-31.703 0.719,0.114 1.438,0.228 2.157,0.342-1.352,9.351-2.511,18.734-4.11,28.043-1.564,9.105-1.538,9.512 7.482,14.354 3.339-12.372 3.013-25.512 7.847-37.468-0.571,12.143-1.917,24.127-3.128,36.125-0.461,4.572-0.418,9.062 6.097,10.015 0.904-6.865 1.74-13.685 2.717-20.485 0.98-6.827 2.1-13.634 3.159-20.45 0.793,0.108 1.586,0.216 2.379,0.324-1.346,14.499-2.692,28.998-4.112,44.3 3.011,0.829 5.955,1.64 9.131,2.515 0.858-7.575 1.284-14.192 2.434-20.681 1.137-6.414-0.517-13.44 4.946-19.111-1.148,13.429-2.297,26.858-3.453,40.371 1.663,0.768 2.922,1.559 4.293,1.924 1.366,0.367 2.848,0.305 4.321,0.434z"/>
    <path d="m375.705,39.479c-6.681-21.84 2.12-29.978 15.193-35.246 13.475-5.431 22.112-0.89 28.862,13.289 19.183,2.888 23.242,10.152 17.807,28.723-3.742,12.787-10.287,20.504-24.418,21.157-3.174,0.147-6.454,4.166-9.127,6.94-1.983,2.059-2.948,5.065-4.572,7.511-2.45,3.689-5.611,4.454-9.421,1.899-6.047-4.053-12.121-8.067-18.19-12.089-2.148-1.423-4.49-2.613-6.441-4.266-5.97-5.06-6.175-8.391-0.905-14.852 3.703-4.54 7.625-8.901 11.212-13.066zm17.686,33.116c3.562-3.386 6.57-6.545 9.906-9.309 2.191-1.815 4.841-4.323 7.309-4.349 13.332-0.139 16.973-10.026 20.094-19.841 1.052-3.307 0.346-8.482-1.704-11.155-2.995-3.904-7.724-2.728-11.899-0.062-1.611,1.029-3.967,0.892-5.984,1.286-0.209-2.296-0.822-4.641-0.55-6.878 0.814-6.703-1.086-10.686-6.261-12.17-6.494-1.862-15.597,1.825-20.304,8.225-4.369,5.942-3.934,9.141 2.196,17.548 0.578,0.793 0.584,2.001 0.923,3.273-5.964,6.815-11.905,13.603-18.544,21.189 8.877,4.379 16.677,8.227 24.818,12.243z"/>
    <path d="m384.849,213.999c0.368-4.216 0.66-8.44 1.119-12.646 0.992-9.083 2.857-18.154 2.913-27.238 0.069-11.149-3.421-21.616-9.725-31.028-2.373-3.543-4.353-7.35-6.8-11.528 9.793,1.138 19.001,11.33 23.408,24.921 6.154,18.985 1.741,48.693-10.915,57.519z"/>
    <path d="m253.028,9.444c3.788-1.833 7.397-4.366 11.393-5.384 23.183-5.91 45.884-4.093 67.615,5.976 4.428,2.051 8.108,5.959 11.66,9.487 0.89,0.884-0.053,3.614-0.245,7.208-13.199-12.721-28.394-17.107-44.122-17.68-15.162-0.553-30.423,1.629-45.64,2.61-0.221-0.739-0.441-1.478-0.661-2.217z"/>
    <path d="m237.126,89.944c-1.338-8.033 3.133-10.201 6.471-12.489 11.037-7.569 23.281-12.607 36.605-13.97 8.708-0.891 17.595-0.818 26.344-0.263 7.133,0.453 13.957,2.666 18.126,9.664-26.479-11.58-50.059-3.58-73.006,9.55-4.318,2.47-8.842,4.58-14.54,7.508z"/>
    <path d="m420.533,186.72c-0.798-3.763-2.27-7.524-2.281-11.289-0.053-18.287-5.123-34.788-16.336-49.334-0.537-0.696-0.56-1.789-0.904-2.981 20.948,7.411 33.511,44.462 19.521,63.604z"/>
    <path d="m328.612,50.907c-9.764-9.563-17.583-20.878-31.557-21.366-12.254-0.427-24.556,0.522-36.882,0.864 5.402-5.614 13.449-6.5 20.856-8.084 16.285-3.484 30.481,1.326 42.147,13.009 3.654,3.66 7.568,7.845 5.436,15.577z"/>
    <path d="m404.52,109.995c10.539-4.777 19.13-4.009 27.174,1.369 6.07,4.058 11.467,8.97 9.073,19.653-5.937-5.451-10.306-10.912-15.939-14.219-5.485-3.22-12.264-4.235-20.308-6.803z"/>
    <path d="m227.603,96.537c-11.324,12.26-16.606,14.903-25.269,12.317 0.752-8.424 7.029-12.005 13.514-15.163 5.119-2.492 5.268-2.254 11.755,2.846z"/>
    <path d="m435.431,209.757c-0.57,2.351-0.542,4.891-1.743,6.529-1.553,2.119-3.977,4.758-6.223,4.957-4.045,0.36-5.313-3.134-5.255-6.822 0.052-3.308-0.455-6.819 0.502-9.857 0.762-2.416 3.153-5.615 5.21-5.931 1.748-0.268 4.479,2.787 5.973,4.93 1.162,1.667 1.091,4.194 1.536,6.194z"/>
    <path d="m211.914,22.251c1.817-8.222 8.627-8.791 14.054-11.045 3.835-1.593 6.974-0.863 9.785,3.61-6.856,6.203-13.754,10.231-23.839,7.435z"/>
    <path d="m387.393,252.564c-1.207-2.293-3.582-4.763-3.575-7.227 0.014-4.67 6.89-11.724 10.433-11.348 1.411,0.151 3.94,2.512 3.764,2.921-2.097,4.869-4.571,9.579-7.069,14.265-0.257,0.483-1.307,0.544-3.553,1.389z"/>
    <path d="m243.079,36.164c-5.376,5.068-9.768,11.517-18.92,8.924 2.608-11.501 11.083-15.607 18.92-8.924z"/>
    <path d="m381.673,264.919c2.809,5.419 1.359,9.864-1.051,13.876-0.895,1.49-4.057,3.24-5.016,2.719-1.802-0.978-3.892-3.549-3.85-5.412 0.136-6.138 4.098-9.379 9.917-11.183z"/>
    <path d="m421.747,250.988c-2.911-5.535-0.429-10.327 2.117-14.946 0.515-0.935 2.819-1.844 3.639-1.436 1.393,0.692 2.895,2.293 3.233,3.769 1.077,4.697-2.759,9.965-8.989,12.613z"/>
    <path d="m455.375,163.078c-0.931,0.896-2.329,3.278-4.272,3.871-2.972,0.907-7.541-4.754-7.357-9.354 0.064-1.598 1.952-4.019 3.485-4.482 3.549-1.073 7.881,3.806 8.144,9.965z"/>
    <path d="m195.565,121.692c-3.182,4.278-5.083,7.551-7.73,10.028-1.017,0.952-3.983,0.605-5.559-0.171-0.723-0.355-0.927-3.635-0.161-4.793 2.388-3.613 5.41-6.727 13.45-5.064z"/>
    <path d="m186.949,69.837c1.99-10.045 2.53-10.57 10.844-11.323-0.61,6.196-4.052,9.271-10.844,11.323z"/>
    <path d="m187.376,27.176c3.76-6.654 8.176-7.489 14.148-5.985-5.033,5.294-5.033,5.294-14.148,5.985z"/>
    <path d="m177.963,264.62c10.54-3.952 19.408-2.94 27.865,1.773 8.258,4.602 9.627,11.636 2.398,17.578-11.47,9.429-24.772,15.941-39.168,19.502-7.195,1.78-12.562-1.086-17.459-7.987-7.137-10.058-9.783-20.119-8.038-32.029 1.425-9.721 6.515-17.142 13.668-23.17 7.587-6.395 17.685-1.934 19.677,8.629 0.871,4.616 0.674,9.435 1.057,15.704z"/>
  </g>
</svg>
