<?xml version='1.0' encoding='iso-8859-1'?>
<!DOCTYPE svg PUBLIC '-//W3C//DTD SVG 1.1//EN' 'http://www.w3.org/Graphics/SVG/1.1/DTD/svg11.dtd'>
<svg version="1.1" xmlns="http://www.w3.org/2000/svg" viewBox="0 0 453.233 453.233" xmlns:xlink="http://www.w3.org/1999/xlink" enable-background="new 0 0 453.233 453.233">
  <g>
    <path d="m247.882,232.432c0,17.579-0.209,34.505 0.204,51.415 0.069,2.842 2.394,5.986 4.411,8.368 17.473,20.628 32.566,42.772 43.876,67.404 5.981,13.025 7.933,26.802 7.315,40.938-0.843,19.287-15.082,37.591-33.799,43.531-38.339,12.168-76.756,12.207-115.108,0.04-19.2-6.091-33.448-24.685-34.024-44.521-0.445-15.301 2.407-29.897 9.192-43.857 11.361-23.378 25.934-44.505 42.736-64.224 1.786-2.097 3.688-4.977 3.738-7.53 0.331-16.917 0.171-33.844 0.171-50.63-0.494-0.551-0.867-1.367-1.439-1.544-6.492-2.009-12.843-3.817-12.584-12.769 0.301-10.405 3.874-17.206 12.331-20.219 4.073-1.451 8.608-2.141 12.949-2.208 16.221-0.25 32.451-0.246 48.673-0.001 4.342,0.066 8.891,0.704 12.955,2.166 9.785,3.52 14.916,14.568 11.963,24.487-1.278,4.291-2.577,5.187-13.56,9.154zm-56.778,52.147c-2.852,4.181-5.374,8.218-8.23,12.004-10.404,13.795-20.95,27.484-31.357,41.278-1.31,1.737-3.502,4.556-2.932,5.683 4.19,8.287-2.834,12.101-6.67,16.617-5.242,6.172-8.334,12.75-8.799,21.908 2.467-1.989 4.159-3.254 5.741-4.644 9.403-8.259 15.419-18.99 19.176-30.488 4.099-12.546 12.613-16.179 24.343-16.155 19.906,0.039 39.814-0.112 59.718,0.107 4.345,0.048 8.872,0.76 12.947,2.205 2.873,1.018 6.243,3.263 7.47,5.866 7.353,15.604 15.544,30.936 16.332,48.847 0.799,18.135-4.914,27.387-21.588,34.289-19.115,7.914-38.952,10.453-59.977,8.399-1.91,3.313-3.766,6.533-6.694,11.612 13.066,0 23.724,0.36 34.349-0.087 15.084-0.634 30.037-2.049 43.947-8.997 15.169-7.576 24.498-19.371 24.091-36.403-0.25-10.468-2.199-21.435-5.975-31.174-9.823-25.335-25.611-47.201-43.882-67.131-4.922-5.369-7.019-10.56-6.604-17.732 0.872-15.073 1.051-30.186 1.483-45.283 0.269-9.405 0.553-9.811 9.936-12.979 6.332-2.138 8.574-7.672 3.832-12.514-3.271-3.341-8.713-6.13-13.305-6.324-17.294-0.731-34.646-0.569-51.958-0.102-4.142,0.112-8.821,1.87-12.189,4.328-5.64,4.117-4.985,13.241 0.804,14.031 8.546,1.166 11.934,5.818 12.018,14.474 3.481-2.827 5.821-4.727 8.943-7.262-0.859,9.675-13.062,14.227-8.229,24.824 2.135-0.454 4.019-0.854 6.391-1.357-5.95,10.064-5.95,10.064-5.413,15.891 2.098-0.932 4.139-1.839 6.676-2.966-1.353,6.835-12.233,10.119-4.395,19.235zm-20.803,131.844c4.916,0.851 8.763,5.669 13.806,1.437 0.242-0.203 1.624,0.986 2.495,1.492 1.654,0.959 3.28,2.6 4.995,2.706 5.532,0.342 10.968-1.159 16.628,1.463 2.822,1.307 7.152-1.144 10.704-0.822 14.373,1.3 27.664-2.555 40.392-8.422 8.683-4.002 13.236-11.098 13.181-21.164-0.08-14.665-4.374-28.134-9.58-41.642-4.099-10.636-11.092-14.472-22.02-14.239-19.116,0.408-38.247,0.072-57.371,0.155-3.298,0.014-6.805-0.042-9.83,1.026-2.929,1.035-6.373,2.887-7.839,5.402-6.632,11.38-11.143,23.601-12.73,36.982 2.094-0.158 3.473-0.263 5.517-0.417-7.499,12.575-7.499,12.575-3.923,22.651 2.666-2.14 5.126-4.115 7.586-6.09 0.257,0.327 0.514,0.654 0.77,0.982-1.786,3.471-3.572,6.943-5.115,9.943 4.111,7.609 8.718,5.68 14.047,0.355-0.743,3.561-1.097,5.257-1.713,8.202zm-25.347-14.477c-2.502,2.286-4.964,4.535-7.426,6.784 2.022-10.628 12.667-18.245 7.484-30.435-12.816,11.099-14.199,13.824-13.208,23.429 1.458,14.121 10.312,22.761 21.561,30.777 2.653-4.811 4.869-8.83 7.264-13.175-2.725-1.955-4.774-3.424-6.826-4.897-2.598,2.337-5.016,4.512-7.434,6.687 0.821-6.724 6.187-12.614-1.415-19.17zm20.258,19.337c-2.846,4.477-5.064,7.965-7.82,12.3 4.497,1.899 7.667,3.238 10.998,4.644 2.297-3.867 4.16-6.922 5.917-10.037 0.311-0.551 0.177-1.352 0.322-2.735-2.631-1.165-5.459-2.418-9.417-4.172zm26.693,8.703c-13.042-3.168-13.477-2.926-17.306,9.176 3.856,0.598 7.641,1.185 11.415,1.771 2.002-3.721 3.693-6.863 5.891-10.947z"/>
    <path d="m185.203,131.879c3.277-10.569 9.829-15.915 18.936-18.437 9.954-2.757 17.01,1.966 17.084,12.389 0.101,14.215-3.694,27.634-10.961,39.891-1.177,1.984-3.65,3.965-5.855,4.453-17.473,3.868-34.284,2.184-49.905-7.152-1.873-1.119-3.669-2.494-5.193-4.051-7.096-7.251-7.074-15.447 0.632-22.072 10.191-8.76 21.531-12.616 35.262-5.021z"/>
    <path d="m259.781,78.205c4.95-2.959 9.755-6.303 14.963-8.81 5.075-2.443 10.124-1.575 14.144,2.706 4.159,4.429 4.25,9.785 0.964,14.212-6.531,8.801-13.627,17.216-20.959,25.367-1.706,1.897-5.689,3.484-7.946,2.839-8.699-2.485-18.034-4.534-25.43-9.356-10.43-6.8-13.106-25.248-7.18-36.243 3.494-6.482 13.087-7.938 20.276-2.347 4.28,3.33 7.62,7.867 11.168,11.632z"/>
    <path d="m301.25,17.564c2.924-10.804 11.428-14.307 20.368-17.045 6.418-1.965 12.135,1.847 10.672,8.145-2.295,9.879-5.921,19.576-10.186,28.795-1.298,2.805-6.813,5.67-9.945,5.237-9.337-1.29-18.453-4.19-27.643-6.511-0.68-0.172-1.298-0.688-1.881-1.128-4.166-3.138-8.876-6.482-7.35-12.397 1.617-6.27 7.347-6.343 12.654-6.084 4.017,0.197 8.025,0.587 13.311,0.988z"/>
    <path d="m214.753,300.33c-3.902-2.645-3.976-6.53-3.761-10.712 0.694-13.509 1.21-27.027 1.785-40.543 0.062-1.465-0.404-3.166 0.191-4.348 1.202-2.391 2.519-5.697 4.591-6.466 3.887-1.443 7.075,0.968 8.547,4.87 0.765,2.027 1.425,4.249 1.427,6.384 0.01,13.187 0.041,26.382-0.468,39.554-0.118,3.061-1.779,6.432-3.671,8.955-2.063,2.752-4.976,5.837-8.947,2.02 8.322-2.576 9.151-3.653 9.543-11.835 0.415-8.675 1.231-17.345 1.254-26.019 0.015-5.426-0.795-10.921-1.898-16.248-0.381-1.84-2.766-3.265-5.485-6.252-0.565,4.185-1.119,6.242-1.075,8.287 0.334,15.373 0.877,30.736-2.574,45.915-0.454,2.001 0.33,4.285 0.541,6.438z"/>
  </g>
</svg>
