<?xml version='1.0' encoding='iso-8859-1'?>
<!DOCTYPE svg PUBLIC '-//W3C//DTD SVG 1.1//EN' 'http://www.w3.org/Graphics/SVG/1.1/DTD/svg11.dtd'>
<svg version="1.1" xmlns="http://www.w3.org/2000/svg" viewBox="0 0 411.553 411.553" xmlns:xlink="http://www.w3.org/1999/xlink" enable-background="new 0 0 411.553 411.553">
  <g>
    <path d="m411.457,228.903c0.593,16.92-1.578,30.298-5.584,43.429-2.823,9.253-8.173,16.234-16.924,20.785-9.474,4.927-18.664,10.397-27.998,15.593-18.562,10.334-36.521,22.028-55.85,30.645-30.975,13.808-63.719,22.911-96.801,30.317-24.395,5.461-48.863,11.183-73.612,14.307-24.719,3.121-49.82,5.037-74.802,1.332-11.814-1.753-21.581-6.629-27.306-18.083-12.852-25.71-25.922-51.253-31.229-79.949-2.921-15.797-1.186-30.56 6.021-45.013 13.639-27.355 27.073-54.819 40.062-82.487 6.095-12.983 10.777-26.622 16.419-39.826 10.764-25.19 23.507-49.106 42.851-69.093 15.912-16.441 34.7-25.764 57.681-26.248 15.798-0.332 31.669-1.899 46.853,4.673 7.947,3.44 15.033,7.725 20.139,14.884 7.88,11.05 17.93,20.625 22.438,33.961 1.683,4.979 6.407,5.785 10.907,5.84 12.165,0.148 24.368,0.612 36.494-0.099 25.288-1.484 49.035,3.633 71.042,15.902 11.909,6.639 20.825,16.762 24.836,29.905 3.745,12.269 6.961,24.879 8.596,37.572 2.768,21.504 4.109,43.191 5.767,61.653zm-347.725,143.315c5.485,3.395 11.48,2.48 18.41,3.003-5.254-12.563-12.462-22.994-15.136-35.311 5.886,8.971 10.763,18.409 15.758,27.783 5.289,9.926 6.835,10.381 18.767,5.721-5.574-12.211-13.41-23.412-17.929-36.062 0.69-0.334 1.381-0.667 2.071-1.001 6.932,12.818 13.863,25.636 20.929,38.702 4.714-0.758 8.389-1.349 12.807-2.06-5.666-10.044-10.642-18.865-15.618-27.686 0.671-0.406 1.342-0.811 2.012-1.217 6.382,9.908 12.764,19.816 19.229,29.852 3.99-0.983 7.287-1.795 10.965-2.701-5.911-10.82-11.357-20.791-16.804-30.762 0.738-0.412 1.476-0.824 2.213-1.236 6.749,10.454 13.498,20.908 20.537,31.812 3.966-0.652 7.848-1.29 12.68-2.085-6.353-11.137-12.273-21.516-18.194-31.895 0.7-0.425 1.4-0.85 2.1-1.276 6.753,10.579 13.506,21.158 20.587,32.251 4.062-1.087 7.707-2.061 12.276-3.283-6.274-9.543-11.798-17.946-17.323-26.35 6.48,5.36 11.259,11.828 15.984,18.336 6.263,8.625 7.957,8.948 18.22,2.88-6.709-9.844-14.15-19.229-20.458-29.307 0.639-0.425 1.279-0.85 1.918-1.275 7.986,10.456 15.971,20.913 24.031,31.466 4.218-1.194 7.97-2.257 12.908-3.655-7.889-10.917-16.06-20.322-22.285-30.963 0.578-0.419 1.156-0.839 1.734-1.258 8.288,10.216 16.576,20.433 25.236,31.107 4.542-1.188 8.644-2.261 13.575-3.551-7.354-12.139-15.074-22.714-20.95-34.294 0.624-0.374 1.249-0.749 1.873-1.123 7.592,11.201 15.183,22.402 23.092,34.071 5.284-1.398 10.073-2.666 15.852-4.195-6.665-11.001-12.743-21.031-18.82-31.063 0.677-0.42 1.355-0.84 2.032-1.261 7.179,10.123 14.359,20.245 21.899,30.878 3.953-1.399 7.548-2.672 11.944-4.228-3.268-6.285-6.095-11.399-8.614-16.659-2.523-5.268-6.287-10.073-5.861-16.645 6.297,10.627 12.593,21.253 19.129,32.283 3.904-1.712 6.789-2.978 10.158-4.455-3.328-6.922-6.359-13.224-9.389-19.526 0.631-0.293 1.262-0.586 1.893-0.879 3.696,6.273 7.393,12.546 11.485,19.491 5.693-2.137 11.021-4.138 17.011-6.387-5.237-11.142-9.962-21.195-14.688-31.248 0.722-0.357 1.444-0.715 2.166-1.072 5.53,9.817 11.06,19.635 17.122,30.395 3.735-1.851 7.1-3.519 10.562-5.235-4.32-9.751-8.121-18.329-11.921-26.907 0.677-0.297 1.354-0.595 2.03-0.892 4.594,8.209 9.188,16.419 14.012,25.038 4.567-2.773 8.266-5.019 12.202-7.409-4.563-10.185-8.824-19.696-13.086-29.208 0.555-0.246 1.11-0.491 1.665-0.737 5.101,9.16 10.203,18.319 15.603,28.015 4.434-2.605 7.815-4.592 11.273-6.624-3.948-9.985-7.638-19.317-11.328-28.65 0.728-0.31 1.456-0.619 2.185-0.928 4.299,8.787 8.598,17.574 13.326,27.241 3.159-1.807 5.787-3.309 8.599-4.918-3.673-10.459-7.021-19.995-10.369-29.531 0.767-0.269 1.534-0.539 2.3-0.808 3.816,9.341 7.632,18.683 11.633,28.477 6.914-3.728 12.641-7.009 18.539-9.944 6.697-3.333 10.922-8.424 12.775-15.692 3.741-14.673 6.661-29.3 4.499-44.672-1.79-12.728-1.91-25.69-3.699-38.418-2.297-16.34-4.876-32.701-8.667-48.738-1.524-6.447-5.763-12.769-10.197-17.916-13.405-15.562-32.753-18.62-51.437-22.583-5.337-1.132-11.082-2.001-16.399-1.26-17.362,2.42-34.4-0.714-51.576-1.693-3.969-0.226-6.343-1.206-7.446-4.846-4.11-13.569-14.32-22.876-22.797-33.497-6.804-8.525-15.173-13.607-25.465-16.363-14.262-3.819-28.456-1.594-42.736-0.268-12.672,1.176-23.304,6.657-32.829,14.51-14.426,11.895-25.628,26.618-33.581,43.355-10.416,21.921-19.231,44.599-29.438,66.625-13.468,29.063-27.356,57.941-41.607,86.628-5.695,11.464-7.33,23.299-5.137,35.406 2.42,13.364 5.266,26.842 9.87,39.567 5.098,14.094 11.723,27.763 18.973,40.905 4.776,8.657 12.884,10.581 21.362,7.709l-.227,.199z"/>
    <path d="m77.009,287.463c-10.991,0-21.987,0.209-32.969-0.11-3.977-0.116-8.083-1.037-11.84-2.394-7.785-2.81-11.014-8.369-9.327-16.427 1.04-4.966 2.402-10.183 4.991-14.457 22.416-37.005 39.878-76.315 55.787-116.449 5.403-13.63 12.438-26.698 19.64-39.51 10.871-19.337 27.002-34.075 44.928-46.613 15.202-10.632 31.418-12.31 49.072-4.279 16.611,7.557 28.248,19.604 37.516,34.623 3.867,6.268 7.48,12.692 11.252,19.019 3.335,5.595 7.678,9.253 14.543,10.673 18.007,3.725 35.913,1.367 53.903,0.581 9.854-0.43 19.976-0.8 29.605,0.906 21.277,3.77 32.839,21.142 28.344,42.272-3.835,18.028-10.99,34.587-27.884,44.587-12.029,7.12-23.98,14.513-36.57,20.518-39.964,19.062-81.246,34.751-124.168,45.846-24.221,6.261-48.455,12.533-72.869,17.964-11.052,2.459-22.558,2.883-33.857,4.23-0.031-0.326-0.065-0.653-0.097-0.98zm-9.201-7.894c0.017,0.264 0.033,0.528 0.05,0.793 11.363-0.818 22.865-0.782 34.064-2.609 39.345-6.417 77.508-17.714 114.867-31.264 29.027-10.528 57.322-23.109 85.749-35.231 9.112-3.886 17.669-9.11 26.369-13.921 15.318-8.471 27.812-19.782 32.454-37.264 6.426-24.202-2.247-36.968-22.996-39.62-7.943-1.015-16.166,0.072-24.257,0.331-14.339,0.458-28.692,1.701-43.009,1.35-16.871-0.413-29.846-6.714-37.36-23.902-4.9-11.209-12.527-22.197-21.533-30.445-21.355-19.558-42.774-23.529-66.085-4.447-23.143,18.943-39.822,42.202-50.99,69.654-14.984,36.832-29.596,73.838-49.86,108.219-3.484,5.91-7.814,11.345-11.999,16.81-2.406,3.142-4.295,13.22-2.437,16.79 2.461,4.732 7.096,4.703 11.544,4.738 8.475,0.064 16.952,0.018 25.429,0.018z"/>
    <path d="m63.959,372.02c-4.16-6.93-8.321-13.859-12.481-20.789l-.191,.123c1.253,0.168 3.343-0.053 3.629,0.564 3.102,6.691 5.922,13.512 8.817,20.299-0.001,0.001 0.226-0.197 0.226-0.197z"/>
    <path d="m51.477,351.231c-0.859-3.193-1.717-6.385-3.147-11.703 3.965,4.826 5.844,7.828 3.008,11.783-0.052,0.043 0.139-0.08 0.139-0.08z"/>
    <path d="m133.812,157.726c-3.37,0-7.022,0.234-10.635-0.044-10.351-0.796-15.588-5.888-17.899-16.209-2.31-10.314-1.59-19.671 6.158-27.748 10.292-10.729 25.791-9.457 33.975,3.049 1.186,1.812 2.022,3.887 2.804,5.923 2.128,5.545 5.913,8.62 11.931,9.601 11.978,1.952 19.53,9.252 24.068,20.383 7.088,17.386-6.092,33.526-22.684,31.799-17.211-1.792-22.116-5.576-27.718-26.754zm41.144-12.272c-5.359,4.746-8.61,8.274-12.471,10.908-7.536,5.142-13.018,2.603-14.819-6.409-0.251-1.257-0.508-2.512-0.896-4.426-3.638,7.064-4.514,13.394-3.042,19.561 1.392,5.832 4.479,10.035 10.803,10.861 3.964,0.518 8.004,1.231 11.948,0.957 7.522-0.522 15.317-7.95 14.215-13.867-1.032-5.535-3.458-10.809-5.738-17.585zm-29.535-13.014c-1.335-2.112-2.934-4.641-4.518-7.147-6.008,3.606-9.786,10.41-17.211,6.646-5.888-2.985-4.095-8.397-3.482-13.73-2.875,2.763-5.372,5.477-6.495,8.673-4.453,12.671 1.323,21.173 14.658,22.179 2.43,0.183 4.858,0.404 6.381,0.532 3.605-5.796 6.668-10.722 10.667-17.153zm22.133,10.165c-3.82-3.592-8.101-4.857-11.616-0.871-2.913,3.304-6.023,7.737-0.865,12.416 6.297-1.752 10.336-5.441 12.481-11.545zm-34.278-26.221c-4.424,0.069-9.852,5.054-9.522,8.488 0.132,1.369 1.779,3.413 3.054,3.691 3.359,0.732 10.096-5.816 9.311-8.953-0.352-1.407-2.128-2.458-2.843-3.226z"/>
    <path d="m289.736,188.753c-0.734,0-1.469-0.018-2.202,0.003-18.832,0.521-26.805-6.012-27.078-22.189-0.326-19.332 10.15-31.484 27.257-31.618 18.058-0.141 33.503,13.029 36.026,30.72 1.231,8.635-1.667,15.004-10.5,18.413-7.378,2.848-15.487,3.802-23.272,5.595-0.077-0.308-0.154-0.616-0.231-0.924zm18.063-39.271c-3.346,4.025-5.21,6.757-7.567,8.963-2.362,2.211-5.027,4.269-7.898,5.724-4.253,2.155-9.214,2.069-11.994-1.786-1.79-2.483-1.553-6.746-1.426-10.182 0.084-2.295 1.57-4.538 2.925-8.112-9.712,4.711-12.214,12.013-12.58,20.418-0.534,12.285 5.033,17.653 17.246,16.765 4.374-0.318 8.722-0.974 13.09-1.381 16.228-1.511 21.089-11.326 12.273-24.885-0.995-1.531-2.162-2.947-4.069-5.524zm-24.535,9.107c9.93,1.195 13.094-1.294 16.766-12.481-10.125-3.944-13.935-1.255-16.766,12.481z"/>
    <path d="m174.112,119.995c-17.585-0.053-30.146-15.715-26.584-32.254 2.295-10.656 6.675-19.326 18.811-21.838 13.319-2.757 26.276,5.807 28.298,19.251 0.43,2.861 0.851,5.795 1.838,8.489 5.184,14.159 0.381,22.862-14.37,25.504-2.888,0.517-5.849,0.629-7.993,0.848zm-1.766-45.244c-0.23-0.524-0.461-1.049-0.691-1.573-3.389,1.374-8.095,1.816-9.873,4.329-3.066,4.334-5.419,9.815-6.094,15.068-1.494,11.622 9.092,21.033 20.722,19.367 2.545-0.365 5.068-0.927 7.624-1.174 5.866-0.566 7.119-4.822 6.909-9.411-0.141-3.067-1.744-6.066-2.976-10.001-2.088,1.721-3.404,2.852-4.768,3.92-1.733,1.357-3.397,2.848-5.28,3.96-5.455,3.22-10.632,2.842-14.055-0.981-3.585-4.003-2.532-8.346-0.071-12.234 2.512-3.971 5.674-7.531 8.553-11.27zm-4.187,20.577c12.187-1.692 16.23-6.781 14.033-16.643-9.789,2.527-12.569,5.679-14.033,16.643z"/>
    <path d="m209.974,227.873c-17.269-0.044-23.207-6.122-22.457-21.557 0.212-4.361 1.311-8.68 2.022-13.016 1.95-11.885 9.483-19.178 20.482-22.134 11.438-3.074 21.829,0.396 30.309,8.775 1.803,1.781 3.443,3.937 4.506,6.223 8.215,17.672 8.302,26.732-12.392,35.606-5.041,2.162-10.317,3.848-15.602,5.337-2.775,0.782-5.803,0.661-6.868,0.766zm23.235-45.403c-4.54,3.673-8.423,6.982-12.479,10.062-8.483,6.44-13.559,4.856-17.133-5.183-0.342-0.96-0.809-1.875-1.51-3.478-6.405,8.579-7.896,17.832-6.983,27.507 0.393,4.162 2.585,7.775 7.528,8.228 12.501,1.147 24.278-1.092 34.497-8.638 2.407-1.777 5.398-5.547 4.991-7.847-1.415-7.998-1.083-17.368-8.911-20.651zm-7.709-3.892c-5.228-2.383-9.517-2.491-13.23,1.537-2.895,3.141-4.379,6.603-1.261,10.817 8.533,0.326 11.792-5.158 14.491-12.354z"/>
    <path d="m230.397,164.118c-3.603-0.576-7.319-0.771-10.792-1.79-23.463-6.885-25.062-21.017-17.792-41.044 1.214-3.346 5.06-6.694 8.486-8.1 10.45-4.287 21.287-1.691 30.946,2.237 8.127,3.305 12.097,11.452 12.668,20.598 0.115,1.834 0.415,3.655 0.537,5.488 0.913,13.631-6.045,21.513-19.566,22.166-1.469,0.071-2.944,0.01-4.416,0.01-0.024,0.145-0.047,0.29-0.071,0.435zm9.747-39.472c-1.619,2.416-2.994,4.926-4.814,7.055-1.875,2.194-3.967,4.345-6.354,5.924-3.547,2.347-8.005,3.566-11.124,0.158-2.167-2.368-3.157-6.266-3.586-9.619-0.32-2.498 1.101-5.218 1.958-8.696-7.862,5.5-12.451,18.924-9.419,25.388 4.956,10.566 27.904,15.575 36.802,8.032 6.949-5.892 5.417-20.069-3.463-28.242zm-17.382,10.21c6.856-2.168 9.813-6.967 10.641-14.051-11.893,0.618-15.649,5.816-10.641,14.051z"/>
    <path d="m78.856,194.08c-0.148-10.717 8.373-21.904 18.736-24.597 9.063-2.356 22.204,2.755 26.355,11.945 2.749,6.085 3.074,13.363 3.817,20.179 0.161,1.473-2.215,4.053-3.971,4.761-7.459,3.006-14.939,6.656-22.759,7.916-12.397,1.996-22.003-7.473-22.178-20.204zm9.546-3.255c0.59,13.418 4.787,16.885 15.633,14.342 2.135-0.501 4.198-1.309 6.288-1.995 10.624-3.487 12.114-10.324 4.122-18.895-12.05,16.113-16.618,17.448-26.043,6.548zm9.762,1.631c7.608-3.666 9.132-6.109 8.641-13.853-9.555,4.828-9.992,5.528-8.641,13.853z"/>
    <path d="m79.89,264.169c-2.849-0.24-5.153-0.048-7.204-0.678-6.651-2.04-14.234-3.785-15.448-12.032-1.226-8.337 0.853-16.389 8.512-21.251 6.47-4.107 13.296-7.85 20.374-10.759 13.207-5.427 28.727,3.917 30.498,17.938 0.955,7.564-1.333,14.113-8.238,17.772-9.072,4.807-18.652,8.472-28.494,9.01zm-10.476-29.089c-5.511,4.695-6.992,10.501-5.423,16.877 0.974,3.956 8.712,6.173 15.665,5.204 0.364-0.051 0.745-0.067 1.083-0.193 7.211-2.668 14.597-4.957 21.561-8.162 4.771-2.196 8.881-5.98 7.134-12.144-1.65-5.821-4.904-10.357-11.88-10.429-2.38,10.598-4.114,13.618-9.597,17.115-9.662,6.164-16.009,3.498-18.543-8.268zm19.175-9.9c-6.005,4.903-11.544,8.096-10.709,16.049 10.456-3.796 11.721-5.548 10.709-16.049z"/>
    <path d="m150.94,248.491c-13.503,0.008-24.91-8.949-24.903-19.556 0.01-15.976 13.272-31.491 26.726-31.268 13.74,0.227 24.67,13.423 24.682,29.798 0.009,11.269-12.279,21.017-26.505,21.026zm12.649-35.988c-3.734,3.623-6.894,8.652-11.38,10.555-5.956,2.527-10.501-2.484-14.496-7.912-1.836,4.409-3.958,7.673-4.411,11.154-0.384,2.954 0.203,6.971 2.02,9.107 7.007,8.239 20.938,8.203 30.008,0.528 6.191-5.239 5.363-14.705-1.741-23.432zm-19.582,4.415c4.308,0.626 7.098,1.736 7.731,0.997 2.272-2.651 3.815-5.927 5.634-8.967-0.825-0.625-1.65-1.251-2.475-1.876-3.054,2.76-6.108,5.522-10.89,9.846z"/>
  </g>
</svg>
