<?xml version='1.0' encoding='iso-8859-1'?>
<!DOCTYPE svg PUBLIC '-//W3C//DTD SVG 1.1//EN' 'http://www.w3.org/Graphics/SVG/1.1/DTD/svg11.dtd'>
<svg version="1.1" xmlns="http://www.w3.org/2000/svg" viewBox="0 0 340.749 340.749" xmlns:xlink="http://www.w3.org/1999/xlink" enable-background="new 0 0 340.749 340.749">
  <g>
    <path d="m142.373,69.146c4.3-5.319 8.2-9.376 11.147-14.036 2.315-3.661 4.019-7.932 5.021-12.163 8.091-34.169 54.068-49.186 79.378-38.936 5.24,2.122 9.444,6.863 14.709,8.848 5.359,2.02 11.683,1.408 17.141,3.257 6.655,2.254 11.375,6.618 9.946,14.997-0.368,2.155 0.943,4.903 2.177,6.963 3.023,5.049 6.664,9.73 9.661,14.792 3.779,6.383 8.242,11.756 7.225,20.897-0.747,6.715 4.845,14.284 8.101,21.244 2.362,5.05 2.683,11.562 9.533,13.875 1.289,0.435 2.861,4.454 2.204,5.493-3.499,5.532 0.356,9.65 1.824,14.325 2.09,6.657 3.771,13.441 5.68,20.155 0.786,2.766 1.725,5.487 2.566,8.238 0.632,2.064 2.115,4.35 1.688,6.181-4.432,19.032 2.419,36.871 5.303,55.155 2.167,13.743 4.509,27.579 4.989,41.435 0.482,13.92-1.25,27.916-2,41.879-0.671,12.489-6.699,21.493-17.662,27.343-10.504,5.605-21.188,9.767-33.611,8.919-6.846-0.467-13.899,2.252-20.765,1.865-16.49-0.93-33.045-2.052-49.358-4.519-39.954-6.043-79.819-12.698-119.655-19.486-24.677-4.205-47.104-13.773-67.26-28.959-18.7-14.088-28.115-32.664-29.248-55.658-1.397-28.342-2.133-56.7 1.934-84.916 1.887-13.092 7.411-24.446 16.34-34.369 11.945-13.275 25.719-24.41 40.737-33.707 15.55-9.626 32.981-13.662 51.48-13.077 3.724,0.118 7.607-2.009 11.275-3.458 10.122-3.997 11.511-3.642 19.5,7.423zm-62.248,231.476l-.341-.258c7.165,2.246 14.33,4.493 20.718,6.496 5.851-13.443 11.039-25.362 16.227-37.28 0.883,0.352 1.765,0.703 2.648,1.055-4.494,11.853-8.989,23.707-13.711,36.159 3.953,0.827 7.76,1.624 11.523,2.412 5.712-11.647 11.054-22.54 16.396-33.434 0.809,0.36 1.618,0.72 2.427,1.08-4.091,10.458-8.183,20.916-12.73,32.541 12.016,1.6 23.071,3.073 33.73,4.492 1.88-10.729 6.768-18.434 14.491-24.796-3.809,8.116-7.619,16.233-12.048,25.669 12.503,1.549 23.299,6.54 34.29,5.886 6.499-11.767 12.447-22.538 18.395-33.31 0.857,0.426 1.713,0.853 2.57,1.279-5.062,10.708-10.124,21.415-15.637,33.076 4.6,0.587 8.056,1.028 11.548,1.474 2.382-4.118 4.352-7.63 6.425-11.079 2.087-3.472 4.252-6.899 6.429-10.316 1.971-3.094 3.779-6.374 8.607-7.102-4.991,9.56-9.983,19.12-15.34,29.38 5.449,0.867 9.398,1.516 13.354,2.122 18.255,2.795 36.495,4.718 54.731-0.267 2.079-0.568 4.614-1.028 6.532-0.364 8.846,3.06 15.692-1.731 22.815-5.357 7.481-3.808 11.63-9.92 12.04-18.457 0.724-15.078 1.574-30.151 2.268-45.231 0.632-13.748-2.412-27.021-4.978-40.416-2.6-13.574-4.104-27.358-6.202-41.832-26.089,5.287-49.247,14.888-64.773,37.993-2.64,3.929-5.975,7.483-9.413,10.766-6.311,6.026-13.998,6.144-21.725,3.625-7.117-2.32-10.06-7.695-7.656-14.735 1.633-4.784 4.103-9.584 7.29-13.484 16.794-20.554 38.105-34.608 63.673-41.698 9.447-2.62 19.325-3.689 29.374-5.533-1.467-8.415-2.959-16.971-4.447-25.504-9.795,3.105-18.765,6.29-27.922,8.792-37.17,10.155-69.781,27.327-93.716,58.721-4.857,6.37-10.902,12.069-17.254,16.971-3.469,2.677-8.647,3.72-13.201,4.258-5.124,0.605-8.794-2.733-8.644-7.855 0.179-6.126 0.034-13.172 2.933-18.116 5.701-9.718 12.159-19.679 20.513-27.03 29.138-25.638 64.459-39.303 101.46-49.129 8.359-2.22 16.728-4.4 25.181-6.621-3.071-8.835-5.688-16.364-8.246-23.722-8.2,2.827-15.654,5.817-23.346,7.951-11.694,3.245-23.713,5.369-35.312,8.894-44.261,13.45-81.396,37.347-109.048,75.106-5.855,7.994-12.547,15.434-19.388,22.62-2.929,3.077-6.977,5.484-10.964,7.066-6.184,2.453-11.511-0.755-11.635-7.276-0.087-4.586 1.316-9.446 3.061-13.777 6.296-15.626 16.399-28.769 28.195-40.589 22.863-22.911 49.349-40.754 78.102-55.436 9.478-4.84 18.2-11.368 27.991-15.343 15.671-6.363 31.855-11.523 49.075-12.246 3.506-0.147 6.964-1.448 10.832-2.302-2.691-6.63-5.121-12.615-7.128-17.56-11.055,1.16-21.244,2.072-31.391,3.328-18.097,2.24-34.83,8.99-51.645,15.609-8.128,3.199-16.751,5.129-25.122,7.727-2.019,0.627-3.984,1.503-5.87,2.468-6.011,3.077-11.973,6.25-19.228,10.055-4.245,8.573-12.662,15.726-21.436,22.491-6.418,4.948-13.267,9.353-19.544,14.466-16.031,13.06-30.855,27.298-43.801,43.57-4.677,5.879-11.241,10.494-17.586,14.723-4.036,2.69-9.321,2.673-13.462-0.842-4.129-3.505-4.613-8.236-3.096-13.161 0.864-2.805 2.026-5.535 3.245-8.212 5.396-11.851 12.896-22.216 21.667-31.843 13.55-14.871 29.516-26.608 46.362-37.322 2.838-1.805 5.554-3.804 8.326-5.713-3.505-1.435-6.01-1.148-8.479-0.67-20.442,3.96-35.805,16.757-50.869,29.797-12.986,11.241-24.838,23.785-26.304,42.016-1.591,19.78-2.251,39.65-2.752,59.494-0.178,7.054 1.302,14.149 2.097,21.93 2.515-1.966 3.924-3.066 5.332-4.166 0.128,0.306 0.256,0.612 0.612,1.467-3.446,8.789-8.19,18.133-0.202,27.981 6.401-10.001 8.308-21.814 16.325-30.405-2.341,8.497-5.639,16.57-8.762,24.709-6.44,16.783-6.623,13.242 5.275,25.355 2.83,2.881 5.946,5.522 9.157,7.977 5.998,4.585 12.341,8.591 19.583,10.908 4.252-14.41 9.879-26.982 16.559-39.066 0.696,0.291 1.393,0.583 2.089,0.874-5.07,13.271-10.139,26.541-15.561,40.732 6.35,1.923 11.896,3.608 17.442,5.294zm7.8-100.4c4.138-2.683 7.958-4.227 10.473-6.968 6.95-7.574 13.612-15.448 19.921-23.566 11.559-14.873 23.928-28.793 39.07-40.271 31.472-23.857 67.145-37.556 105.418-45.684 7.758-1.648 15.159-5.274 22.491-8.516 3.772-1.668 6.775-4.625 4.72-10.281-2.189-0.316-4.736-1.314-7.041-0.917-16.253,2.805-33.222,3.779-48.529,9.308-40.804,14.736-77.919,36.439-110.353,65.607-12.962,11.657-23.837,25.068-32.518,40.185-3.282,5.715-6.533,11.617-3.652,21.103zm224.424-87.208c-16.03-2.433-29.43,0.536-41.981,5.366-22.648,8.716-45.012,18.292-66.983,28.601-13.733,6.444-25.674,16.158-35.44,27.839-6.076,7.268-10.976,15.607-15.725,23.856-1.997,3.469-2.368,8.744 1.865,10.821 2.592,1.272 7.629,0.654 9.938-1.174 6.867-5.434 13.785-11.215 19.145-18.064 17.688-22.6 39.489-39.642 65.926-50.538 11.184-4.61 22.813-8.196 34.373-11.823 9.786-3.07 19.674-5.704 28.882-14.884zm-181.372-47.063c-2.146,0.648-4.375,0.841-6.039,1.911-5.506,3.543-10.706,7.56-16.206,11.113-24.074,15.554-50,28.863-67.162,53.006-6.553,9.218-12.099,19.208-17.378,29.229-1.121,2.128-0.052,7.142 1.78,8.6 1.799,1.432 6.814,1.214 8.737-0.349 5.649-4.592 10.658-10.035 15.556-15.472 6.394-7.098 11.785-15.224 18.779-21.63 12.741-11.668 26.431-22.293 39.549-33.558 6.67-5.728 13.184-11.679 19.329-17.96 3.741-3.823 5.106-8.789 3.055-14.89zm192.714,98.536c0.023-1.159 0.045-2.318 0.068-3.476-5.659-3.133-11.686-4.551-18.461-3.467-27.294,4.366-50.934,16.276-70.946,35.113-5.253,4.945-9.716,11.085-13.262,17.395-4.282,7.618-0.438,13.136 8.408,12.501 3.365-0.241 7.161-2.047 9.71-4.318 3.778-3.368 6.943-7.568 9.794-11.801 5.866-8.709 13.487-15.388 22.212-21.056 11.208-7.282 23.286-12.327 36.26-15.501 5.515-1.351 10.817-3.567 16.217-5.39zm-162.47-106.136c10.139,3.158 15.942-1.736 22.246-4.22 20.483-8.068 40.422-17.415 63.313-17.58 9.066-0.065 18.723-2.128 26.681-8.962-7.401-9.309-16.617-8.269-25.718-6.957-6.162,0.888-12.188,2.719-18.349,3.618-21.244,3.099-40.072,11.927-57.487,24.039-3.444,2.394-6.198,5.781-10.686,10.062zm76.003-41.499c-24.1-12.376-63.48,2.618-64.997,23.777 19.322-13.167 40.154-20.93 64.997-23.777z"/>
    <path d="m222.37,242.089c-8.781,2.805-17.702,1.113-26.355-1.117-9.992-2.575-19.817-4.995-30.32-4.15-6.845,0.551-14.117,1.118-20.602-0.586-7.221-1.898-13.983-5.995-20.532-9.837-4.629-2.716-8.471-6.739-12.851-9.924-3.801-2.764-7.62-5.35-8.524-11.501 9.427,1.414 17.819,5.266 22.145,11.814 6.664,10.088 16.038,11.779 26.125,13.226 3.578,0.513 7.329-0.022 10.989-0.27 11.049-0.746 21.901-0.544 32.65,3.017 5.844,1.936 12.247,2.123 18.319,3.458 3.275,0.72 6.384,2.197 9.568,3.333-0.204,0.848-0.408,1.693-0.612,2.537z"/>
    <path d="m303.847,243.289c-14.367,14.955-54.358,13.174-66.795-3.679 23.044,5.576 44.734,8.807 66.795,3.679z"/>
    <path d="m80.125,300.622c-1.386-15.692 7.459-27.528 15.796-39.638-0.652,2.324-1.141,4.708-1.984,6.96-3.591,9.592-7.222,19.17-11.012,28.684-0.572,1.435-2.062,2.504-3.134,3.739-0.007-0.003 0.334,0.255 0.334,0.255z"/>
    <path d="m67.151,236.814c-7.012,16.076-13.048,29.916-19.199,44.017-2.089-8.706 6.79-29.777 19.199-44.017z"/>
    <path d="m51.803,232.039c-5.323,12.164-10.646,24.328-15.97,36.492-0.818-0.355-1.636-0.71-2.453-1.065 1.32-14.019 10.44-24.744 15.66-37.116 0.921,0.563 1.842,1.126 2.763,1.689z"/>
    <path d="m191.964,285.454c-3.284,12.181-9.392,20.985-15.192,32.191-0.754-9.891 4.302-20.075 15.192-32.191z"/>
    <path d="m248.073,298.021c-1.711,9.572-6.495,17.838-11.498,27.19-1.532-9.551 0.949-15.393 11.498-27.19z"/>
    <path d="m153.472,285.556c-3.805,7.927-7.61,15.854-11.965,24.925-1.527-8.69 1.497-15.395 11.965-24.925z"/>
    <path d="m71.53,201.17c-12.31-1.159-17.721-8.97-24.392-14.71 9,1.918 15.722,7.577 24.392,14.71z"/>
  </g>
</svg>
