<?xml version='1.0' encoding='iso-8859-1'?>
<!DOCTYPE svg PUBLIC '-//W3C//DTD SVG 1.1//EN' 'http://www.w3.org/Graphics/SVG/1.1/DTD/svg11.dtd'>
<svg version="1.1" xmlns="http://www.w3.org/2000/svg" viewBox="0 0 444.988 444.988" xmlns:xlink="http://www.w3.org/1999/xlink" enable-background="new 0 0 444.988 444.988">
  <g>
    <path d="m160.09,155.04c22.513-3.002 45.031-5.976 67.539-9.015 31.322-4.228 62.618-8.643 93.961-12.713 20.771-2.697 41.582-5.116 62.413-7.3 12.522-1.312 14.503,0.693 17.363,12.413 8.323,34.112 12.946,68.619 13.091,103.791 0.044,10.593 2.126,21.19 3.445,31.764 3.095,24.803 5.226,49.792 9.823,74.317 3.116,16.622-0.528,31.137-6.795,45.803-0.866,2.027-1.837,4.022-2.529,6.108-2.911,8.772-9.281,12.751-18.16,13.652-14.633,1.485-29.24,3.238-43.875,4.701-22.311,2.231-44.655,4.14-66.951,6.5-25.922,2.745-51.853,5.493-77.695,8.889-16.336,2.146-32.449,6.01-48.791,8.098-11.645,1.488-23.499,1.438-35.268,1.829-14.303,0.475-28.621,0.539-42.92,1.094-5.94,0.231-9.999-1.868-12.16-7.386-0.8-2.043-1.568-4.143-1.975-6.288-5.075-26.723-10.796-53.35-14.896-80.223-3.825-25.069-5.344-50.485-8.962-75.591-2.302-15.974-6.914-31.602-9.847-47.503-1.726-9.359-2.099-18.961-3.27-28.431-0.536-4.329-1.007-8.782-2.411-12.867-4.664-13.564-9.906-26.93-14.521-40.51-0.985-2.898-0.437-6.386-0.248-9.582 0.082-1.392 0.987-2.756 1.607-4.091 15.18-32.671 9.723-27.392 43.67-40.086 42.393-15.852 85.086-31.027 128.174-44.863 43.076-13.832 86.799-25.644 130.235-38.357 8.479-2.482 16.938-5.034 25.408-7.547 11.061-3.282 12.934-2.185 17.694,8.16 5.952,12.936 12.478,25.607 18.433,38.541 0.9,1.953 0.842,5.115-0.127,7.034-5.31,10.518-10.95,20.875-16.721,31.15-0.978,1.741-2.936,3.598-4.787,4.083-28.745,7.525-57.896,13.705-86.248,22.476-35.145,10.871-69.648,23.819-104.399,35.953-3.371,1.177-6.536,2.945-9.796,4.438 0.166,0.52 0.331,1.039 0.496,1.559zm-117.174-15.948c-1.858-3.197-3.715-6.394-5.998-10.322-8.24,16.802-9.032,20.336-6.414,26.985 4.235-5.647 8.471-11.294 12.706-16.941-3.055,6.646-6.279,13.222-9.101,19.965-1.618,3.867-3.188,8.104 1.306,11.49 3.536-4.74 6.731-9.023 9.926-13.306-2.256,5.808-4.509,11.617-6.769,17.423-1.536,3.944-1.791,7.586 2.512,10.934 2.228-3.002 4.192-5.605 6.111-8.24 7.691-10.557 7.629-12.597-0.666-23.831-1.181-4.739-2.361-9.479-3.613-14.157zm237.957,266.614c-0.993,2.707-1.986,5.414-3.198,8.721 11.121,0.094 14.139-8.572 20.222-14.63-7.702-1.08-12.695,2.26-17.421,6.297-1.37-4.105-4.532-2.843-7.305-2.321-9.628,1.813-19.168,4.455-28.875,5.354-6.68,0.619-9.529,3.4-10.741,9.487 8.699,1.303 16.212-0.143 22.178-6.297 5.034,5.519 9.106,5.67 14.884,1.141 3.362-2.635 6.817-5.152 10.256-7.752zm-190.098-15.81c0.486-3.839 4.066-8.063-1.311-11.282-10.384,15.691-11.991,19.197-11.684,25.94 4.607-5.181 9.003-10.125 13.399-15.068-2.402,4.908-4.218,10.229-7.33,14.635-6.098,8.634-4.728,16.72 0.065,26.203 3.108-3.861 5.592-6.922 8.048-10.004 2.496-3.134 4.965-6.29 7.426-9.41-1.359-4.602-2.335-8.909-3.931-12.973-1.122-2.857-3.086-5.38-4.682-8.041zm123.66,24.963c-0.539,2.255-1.078,4.51-1.652,6.909 9.125,0.467 15.77-1.905 19.373-10.923-7.072-1.227-13.354-1.849-18.091,4.424-1.892-5.591-6.647-3.533-10.305-3.538-10.659-0.015-21.318,0.478-31.979,0.607-9.858,0.119-19.718,0.026-29.6,0.026-3.823,7.033-7.282,13.397-10.945,20.135 7.293,2.55 12.059,0.951 15.851-4.809 2.728-4.144 6.15-7.83 9.262-11.721 0.545,0.348 1.091,0.696 1.636,1.043-2.283,4.597-4.567,9.194-6.91,13.911 12.421,2.522 18.477-5.486 25.769-12.698-0.937,2.869-1.874,5.739-2.859,8.753 8.705,1.736 15.353-1.436 20.005-5.893 2.34,1.596 4.359,3.684 5.027,3.316 5.275-2.901 10.29-6.271 15.418-9.542zm-106.909-7.365c8.952-0.621 16.953-1.421 24.971-1.686 25.747-0.852 51.508-1.299 77.247-2.321 13.587-0.54 27.344-0.801 40.67-3.178 42.719-7.62 85.286-16.104 127.883-24.397 12.172-2.37 24.25-5.22 36.805-7.944-3.49-30.491-7.155-59.616-10.071-88.816-2.912-29.161-5.073-58.396-7.52-87.084-14.797,1.244-29.025,2.504-43.264,3.617-11,0.86-22.097,0.929-33.009,2.4-37.528,5.059-74.947,10.942-112.497,15.825-39.367,5.119-78.845,9.386-118.255,14.187-5.647,0.688-11.185,2.281-17.212,3.547 2.319,10.492 4.74,19.372 6.177,28.409 2.483,15.619 3.872,31.42 6.59,46.993 4.614,26.437 9.738,52.789 15.018,79.103 1.424,7.102 4.181,13.936 6.467,21.345zm261.035-348.083c-49.329,15.27-97.368,29.229-144.785,45.051-58.436,19.498-130.409,49.959-138.676,57.301 10.592-0.752 20.479-1.496 30.372-2.144 9.241-0.605 17.99-2.694 26.573-6.447 14.838-6.487 29.915-12.465 45.07-18.183 50.657-19.112 101.612-37.426 154.559-49.234 13.717-3.059 22.043-10.324 26.38-23.116 0.115-0.337 0.119-0.713 0.507-3.228zm-328.582,51.076c7.891,18.396 14.913,34.767 22.024,51.345 17.136-7.725 34.995-15.775 53.153-23.961-8.026-6.63-14.82-12.836-22.226-18.196-7.73-5.595-15.942-10.558-24.179-15.395-2.334-1.371-5.83-2.453-8.21-1.736-6.905,2.079-13.516,5.14-20.562,7.943zm118.582,11.126c-15.083-11.02-27.918-20.731-41.157-29.855-3.733-2.573-9.088-5.493-12.94-4.675-10.555,2.24-20.706,6.382-32.453,10.244 18.632,13.178 35.511,25.116 52.753,37.312 10.363-3.995 20.881-8.048 33.797-13.026zm-67.371,98.436c0.514,0.698 1.028,1.397 1.541,2.095 10.498-1.486 21.027-2.793 31.467-4.608 2.144-0.372 4.738-2.206 5.802-4.107 8.561-15.289 16.806-30.757 25.759-47.3-12.06,0.862-23.242,1.661-34.461,2.462-10.196,17.428-20.152,34.443-30.108,51.458zm24.385-50.705c-19.106-1.167-36.079,0.206-53.637,4.4-0.108,17.87 5.374,34.012 9.372,49.9 5.647,1.107 9.307,0.989 11.991-3.309 10.318-16.527 20.823-32.936 32.274-50.991zm110.739-75.742c-14.005-10.112-27.521-19.982-41.201-29.619-1.847-1.301-4.83-2.495-6.756-1.929-10.25,3.011-20.33,6.599-31.559,10.351 10.986,6.845 20.419,13.015 30.143,18.688 7.577,4.421 15.31,10.931 23.349,11.538 8.002,0.604 16.474-4.99 24.732-7.89 0.32-0.112 0.552-0.473 1.292-1.139zm76.204-23.775c-15.267-10.893-28.879-20.674-42.608-30.287-1.317-0.922-3.545-1.457-5.046-1.049-8.684,2.358-17.277,5.052-27.634,8.151 14.898,11.166 28.2,21.296 41.749,31.086 1.689,1.221 4.899,1.372 7.037,0.752 8.374-2.43 16.6-5.367 26.502-8.653zm.997-44.49c8.765,10.148 20.008,16.428 29.891,24.359 11.578,9.292 22.645,7.255 35.249-0.412-1.787-3.636-2.613-8.128-5.307-10.293-9.677-7.775-19.985-14.764-30.054-22.05-9.16,2.201-18.322,4.398-27.477,6.622-0.318,0.077-0.571,0.424-2.302,1.774zm10.617,165.888c11.113-1.14 19.739-2.025 28.236-2.896 8.506-16.183 16.632-31.644 25.73-48.951-11.098,1.267-19.785,2.076-28.395,3.389-1.83,0.279-4.138,2.032-4.941,3.717-6.733,14.15-13.168,28.442-20.63,44.741zm-119.086-29.25c-7.939,16.898-15.158,32.266-23.193,49.37 7.615-1.13 13.015-2.715 18.357-2.54 8.061,0.265 11.764-4.043 14.781-10.548 5.854-12.622 12.122-25.052 18.145-37.597 0.214-0.445-0.354-1.267-0.712-2.403-9.27,1.259-18.624,2.529-27.378,3.718zm96.984-12.983c-10.818,1.553-20.482,2.941-28.852,4.143-8.084,16.64-15.49,31.885-23.561,48.498 8.242-1.179 14.353-2.307 20.515-2.865 6.161-0.558 9.638-3.559 12.234-9.218 5.214-11.365 11.275-22.339 16.918-33.51 0.941-1.86 1.533-3.897 2.746-7.048zm-220.609,210.313c-1.1-8.108 3.014-12.263 5.465-16.858 4.963-9.305 5.109-9.227 1.013-20.339-2.914,5.262-5.584,10.082-8.253,14.903-0.903-0.453-1.807-0.905-2.71-1.358 2.204-4.79 3.769-10.026 6.744-14.276 6.116-8.737 4.064-17.569 2.126-26.638-8.937,13.379-16.524,26.907-11.201,43.767 1.202,3.809 1.339,7.953 1.986,11.94 2.263,13.939 4.534,27.876 6.802,41.814 5.97-5.709 9.652-11.903 13.889-17.691 3.45-4.713 3.767-8.736-1.007-13.381-3.205,5.939-6.197,11.484-9.19,17.029-1.082-7.414 2.264-13.097 5.554-18.611 3.476-5.826 2.435-10.698-1.54-16.739-3.247,5.517-5.958,10.121-9.678,16.438zm298.218,30.336c-4.487,6.017-7.612,10.208-12.017,16.114 5.635-0.335 9.481-0.403 13.287-0.83 4.739-0.532 9.462-1.261 14.163-2.077 20.866-3.622 18.102,1.51 25.729-20.565 0.291-0.842 0.037-1.873 0.037-3.334-19.635,3.395-38.736,6.698-58.182,10.06-4.011,5.457-8.359,11.371-13.485,18.346 14.221,0.413 18.364-12.969 30.468-17.714zm-278.043,43.975c11.852,0 21.217,0.039 30.58-0.058 0.985-0.01 2.366-0.546 2.88-1.303 4.124-6.064 8.083-12.239 12.396-18.844-9.72-1.79-14.588,2.07-17.776,9.239-1.278,2.874-3.393,5.377-5.127,8.049-0.776-0.472-1.551-0.944-2.327-1.416 2.366-4.988 4.732-9.976 8.101-17.08-5.357,1.021-9.624,0.564-11.726,2.481-5.562,5.074-10.188,11.175-17.001,18.932zm-29.36-127.245c14.203-22.559 17.203-24.188 8.799-43.057-4.998,14.341-16.003,26.456-8.799,43.057zm-3.033-28.492c13.302-22.622 15.097-20.567 7.026-36.956-5.393,11.718-13.064,22.418-7.026,36.956zm265.299,116.973c-19.258-0.39-22.967,1.799-29.159,16.55 14.727,3.618 21.278-6.799 29.159-16.55zm-267.962-196.254c-2.638,11.925-13.337,22.307-6.422,37.379 2.946-6.118 4.857-11.294 7.759-15.838 4.785-7.493 2.855-14.386-1.337-21.541zm290.032,192.107c-12.851-1.246-19.584,3.579-25.46,18.244 10.027,0.149 15.798-3.987 25.46-18.244zm-284.458-171.308c-3.175,12.552-14.01,21.073-7.173,35.691 2.78-5.274 4.477-9.718 7.204-13.398 4.943-6.669 4.493-13.17-0.031-22.293zm-15.789-7.806c3.067-10.297 13.573-18.59 8.318-31.46-9.931,8.803-14.046,18.77-8.318,31.46zm-21.298-67.386c1.937-7.832 11.839-13.871 6.949-25.622-4.973,9.172-8.202,16.713-6.949,25.622z"/>
    <path d="m255.47,259.074c8.902-8.151 16.553-16.806 25.769-23.207 13.669-9.493 29.391-12.784 46.193-10.64 28.875,3.684 37.589,29.753 32.272,50.449-3.332,12.97-9.168,24.997-17.849,35.185-12.403,14.556-25.55,28.475-38.23,42.798-3.529,3.986-7.706,5.153-12.785,4.907-17.256-0.836-34.519-1.52-51.781-2.245-12.833-0.538-25.758-0.279-38.476-1.782-13.498-1.596-25.007-8.439-34.875-17.714-16.063-15.098-18.6-39.126-6.394-57.385 12.76-19.089 40.8-35.56 70.469-27.358 8.773,2.425 17.566,4.783 25.687,6.992z"/>
    <path d="m67.411,116.322c-2.413,2.267-3.471,4.023-4.929,4.469-2.834,0.867-7.108-3.169-6.279-5.966 0.407-1.372 2.823-3.433 3.644-3.155 2.413,0.817 4.482,2.648 7.564,4.652z"/>
    <path d="m78.109,120.375c2.311,2.557 4.523,4.036 5.05,5.973 0.29,1.065-2.786,4.356-3.428,4.122-2.087-0.759-4.208-2.406-5.341-4.296-0.419-0.699 1.868-3.02 3.719-5.799z"/>
    <path d="m94.112,175.951c0.896,1.928 2.129,3.777 2.606,5.803 0.645,2.738-3.382,6.691-6.4,5.917-1.6-0.41-4.048-3.136-3.76-4.148 0.664-2.336 2.764-4.265 4.281-6.359 1.09-0.404 2.181-0.808 3.273-1.213z"/>
    <path d="m83.503,192.938c2.508,3.157 4.632,4.707 5.087,6.649 0.82,3.499-1.806,5.679-4.911,5.261-1.927-0.259-5.03-2.838-4.967-4.259 0.094-2.159 2.481-4.217 4.791-7.651z"/>
  </g>
</svg>
