<?xml version='1.0' encoding='iso-8859-1'?>
<!DOCTYPE svg PUBLIC '-//W3C//DTD SVG 1.1//EN' 'http://www.w3.org/Graphics/SVG/1.1/DTD/svg11.dtd'>
<svg version="1.1" xmlns="http://www.w3.org/2000/svg" viewBox="0 0 418.312 418.312" xmlns:xlink="http://www.w3.org/1999/xlink" enable-background="new 0 0 418.312 418.312">
  <g>
    <path d="m351.707,117.078c1.017-0.06 2.905,0.15 4.608-0.318 26.674-7.33 50.996,12.903 57.974,32.753 5.331,15.166 5.274,30.257 0.364,45.491-7.704,23.904-7.643,23.969-32.117,27.594-4.361,0.646-8.801,0.97-13.211,1.035-39.783,0.583-79.567,1.196-119.353,1.508-9.921,0.078-19.857-1.424-29.774-1.296-40.876,0.525-81.75,1.292-122.62,2.181-23.182,0.505-46.353,1.521-69.535,2.06-4.346,0.102-8.881-0.401-13.048-1.6-10.855-3.122-16.534-12.579-14.632-23.752 1.806-10.608 8.008-17.947 17.478-22.729 13.815-6.977 28.562-6.134 43.312-5.14 2.526,0.17 5.024,0.739 7.634,1.138 9.564-30.717 31.644-43.311 63.019-43.63 0-3.44 0.499-7.028-0.076-10.435-6.791-40.25 7.666-71.391 40.365-94.757 20.858-14.905 43.376-25.349 69.766-23.046 9.791,0.855 20.238,1.883 28.962,5.915 32.355,14.954 59.033,36.244 70.677,71.801 3.745,11.442 6.727,23.134 10.207,35.227zm-203.856-24.178l-.243-.23c-1.637,4.477-3.273,8.954-4.91,13.43 0.677,0.409 1.354,0.817 2.031,1.226 4.317-4.062 8.635-8.125 14.733-13.862-3.848,12.173-19.626,16.803-12.842,31.132 6.071-5.881 11.795-11.427 17.52-16.972-3.31,6.655-7.623,12.158-12.554,17.036-3.939,3.896-5.723,7.919-5.679,13.6 0.073,9.265-3.362,11.18-12.794,8.325-21.144-6.402-46.533,7.758-51.827,28.904-2.54,10.145-3.337,10.238-13.462,9.143-9.475-1.025-19.112-1.589-28.609-1.079-9.374,0.503-17.964,4.13-24.158,11.744-4.495,5.526-5.344,15.056-2.056,19.697 2.875,4.057 10.684,5.594 17.361,2.907 2.193-0.883 4.126-2.844 5.708-4.711 2.323-2.741 4.225-5.838 6.306-8.784 0.401,0.257 0.801,0.513 1.202,0.77-1.929,4.119-3.858,8.239-5.842,12.476 9.585,2.631 16.525,0.904 20.87-7.953 1.273-2.595 3.769-4.591 5.704-6.861 0.402,0.312 0.805,0.625 1.207,0.937-2.44,4.54-4.879,9.08-7.446,13.858 8.562,2.258 13.131-0.234 16.478-6.942 2.374-4.756 6.323-8.726 9.57-13.046 0.498,0.378 0.996,0.756 1.493,1.134-3.342,5.517-6.684,11.033-10.715,17.689 6.115,0 10.686,0 13.907,0 6.926-7.728 13.172-14.698 19.419-21.668l-.225-.204c-4.139,7.131-8.278,14.263-12.769,22.001 4.904,0 8.836,0 11.907,0 6.575-9.139 12.616-17.535 18.656-25.932 0.64,0.431 1.28,0.862 1.919,1.294-4.86,7.849-9.72,15.698-15.205,24.558 8.309,0 14.784,0 20.041,0 8.373-11.505 16.037-22.036 23.701-32.567 0.705,0.476 1.411,0.952 2.116,1.427-5.373,10.736-14.773,19.245-19.263,30.949 14.639,1.367 14.577,1.318 22.398-8.555 6.38-8.053 12.853-16.044 19.674-23.703 0.598,0.51 1.195,1.02 1.793,1.53-7.309,9.736-14.617,19.472-22.73,30.278 7.848,0 13.608,0 19.089,0 7.325-13.908 17.156-25.506 24.708-29.284-6.701,8.972-13.353,17.88-20.364,27.267 10.072,2.632 16.079,0.228 21.299-7.201 6.556-9.33 14.508-17.679 24.061-24.331-6.146,11.325-16.882,19.355-23.456,31.601 7.215,0 12.715,0 18.045,0 8.992-13.48 16.973-21.686 25.806-26.285-7.221,8.522-14.009,16.532-21.533,25.41 8.611,2.124 13.599,1.154 18.244-5.561 5.903-8.537 13.222-16.239 23.674-22.898-6.765,11.338-17.549,17.508-22.407,29.602 9.612,0 18.039-0.414 26.403,0.133 6.481,0.424 11.08-1.667 15.384-6.428 7.092-7.846 15.069-14.784 24.827-19.47-7.885,7.911-15.771,15.823-24.06,24.139 13.041,5.208 20.688-1.565 28.921-8.229-1.643,2.311-3.286,4.622-6.01,8.453 26.724-0.359 51.667,0.136 76.436-3.414 2.733-0.392 6.13-3.037 7.407-5.555 6.972-13.746 10.363-28.297 7.727-43.82-4.29-25.261-27.573-39.266-51.786-31.134-2.442,0.82-4.806,1.927-7.294,2.546-7.41,1.843-10.27-1.06-9.268-8.648 0.711-5.386 1.969-11.065 1.008-16.247-7.228-38.974-29.659-66.745-64.616-84.451-13.98-7.081-29.012-10.046-44.925-7.475-27.935,4.513-49.899,19.161-68.189,39.871-8.463,9.582-12.933,21.317-15.3,33.849-0.607,3.213 0.157,5.006 3.784,4.584z"/>
    <path d="m110.717,282.571c1.629-3.748 2.746-7.251 4.576-10.329 3.427-5.763 9.085-8.171 14.888-6.886 5.724,1.268 9.097,5.655 9.155,13.198 0.068,8.789-0.542,17.58-0.698,26.374-0.074,4.186-1.841,6.974-5.781,8.347-12.331,4.294-24.818,6.501-37.541,1.857-15.493-5.654-18.552-19.007-7.359-31.069 4.755-5.125 10.195-6.953 16.823-4.254 1.998,0.811 3.918,1.815 5.937,2.762z"/>
    <path d="m210.804,336.283c1.683-2.827 3.202-6.2 5.461-8.969 2.94-3.602 7.045-5.444 11.795-4.377 4.913,1.105 7.372,4.942 8.127,9.467 1.962,11.762-1.495,22.599-7.015,32.756-0.967,1.78-4.177,2.97-6.496,3.255-4.948,0.611-9.996,0.347-14.993,0.627-10.434,0.585-19.77-1.634-26.571-10.275-3.874-4.923-5.57-10.46-2.894-16.467 2.674-6.002 7.719-8.941 14.157-8.511 6.108,0.408 12.162,1.613 18.429,2.494z"/>
    <path d="m237.094,269.672c6.705-4.615 12.739-10.024 19.77-13.278 8.188-3.792 13.874,1.218 12.284,10.186-1.754,9.893-5.478,19.163-12.154,26.865-4.831,5.574-11.042,8.724-18.618,7.672-11.674-1.622-22.639-4.642-29.945-15.21-2.974-4.302-4.417-8.49-2.23-13.372 2.343-5.231 6.701-8.477 12.243-7.685 6.715,0.962 13.225,3.361 18.65,4.822z"/>
    <path d="m109.992,373.125c0.64-11.039 5.209-17.118 16.101-17.962 8.373-0.648 13.137,1.404 14.227,9.39 1.479,10.843-1.36,21.063-6.971,30.42-0.883,1.473-2.518,2.662-4.056,3.548-11.395,6.557-31.522,4.701-41.667-3.734-7.857-6.533-7.716-12.464 0.178-18.96 6.44-5.302 13.721-3.715 22.188-2.702z"/>
    <path d="m322.071,313.297c2.293-2.77 3.93-5.217 6.026-7.172 3.471-3.236 7.778-4.429 12.217-2.523 4.376,1.879 6.504,5.675 6.938,10.437 1.126,12.345-11.704,30.071-23.561,32.491-10.866,2.218-25.776-9.487-27.717-21.858-0.339-2.157-0.341-4.388-0.283-6.58 0.124-4.731-0.594-10.827 5.085-12.055 4.552-0.984 9.86,0.61 14.615,1.878 2.243,0.598 3.975,3.114 6.68,5.382z"/>
    <path d="m44.989,334.173c0.651-4.468 0.814-8.183 1.796-11.668 1.2-4.257 4.462-6.834 8.896-7.097 4.576-0.271 7.454,2.435 9.263,6.48 4.136,9.251 3.304,18.708 0.706,28.038-0.593,2.129-2.98,4.493-5.103,5.334-8.567,3.396-17.242,3.092-25.571-1.063-3.871-1.931-7.15-5.186-5.783-9.544 0.954-3.044 4.024-5.822 6.813-7.77 2.252-1.575 5.496-1.732 8.983-2.71z"/>
    <path d="m264.406,392.409c0.342-1.882 0.481-2.975 0.743-4.038 1.952-7.926 4.581-10.828 9.19-10.193 4.46,0.615 10.229,7.707 10.454,12.851 0.672,15.397-15.682,27.463-30.118,22.222-6.671-2.422-8.151-8.526-3.102-13.811 1.721-1.802 4.083-3.063 6.305-4.294 1.891-1.049 4.002-1.7 6.528-2.737z"/>
    <path d="m341.841,263.876c-3.616-0.368-7.481-0.082-10.765-1.326-2.315-0.877-5.094-3.676-5.372-5.903-0.28-2.243 1.87-5.228 3.72-7.151 1.35-1.402 3.906-2.097 5.987-2.25 4.504-0.332 8.314-1.373 11.284-5.209 1.22-1.576 3.645-2.933 5.608-3.06 3.387-0.217 8.042-0.581 9.925,1.327 1.843,1.868 1.873,6.777 0.988,9.86-3.318,11.561-6.816,13.496-21.375,13.712z"/>
    <path d="m268.846,209.011c8.4-11.384 18.841-20.788 29.389-30.089 0.554,0.528 1.109,1.056 1.663,1.585-9.583,10.257-19.165,20.514-28.748,30.771-0.768-0.756-1.536-1.511-2.304-2.267z"/>
    <path d="m149.192,143.558c4.89-9.313 12.402-16.353 21.668-21.924-6.602,7.79-13.205,15.58-19.807,23.37-0.62-0.482-1.24-0.964-1.861-1.446z"/>
    <path d="m147.851,92.9c2.12-3.035 4.24-6.07 6.36-9.105 0.552,0.508 1.103,1.015 1.655,1.523-2.75,2.453-5.499,4.905-8.253,7.355-0.005-0.004 0.238,0.227 0.238,0.227z"/>
    <path d="m108.224,194.798c0.906-2.032 1.811-4.064 2.717-6.096 0.58,0.445 1.159,0.889 1.739,1.334-1.561,1.519-3.122,3.038-4.682,4.558 0.001,0 0.226,0.204 0.226,0.204z"/>
  </g>
</svg>
