<?xml version="1.0" encoding="iso-8859-1"?>
<!-- Generator: Adobe Illustrator 16.0.0, SVG Export Plug-In . SVG Version: 6.00 Build 0)  -->
<!DOCTYPE svg PUBLIC "-//W3C//DTD SVG 1.1//EN" "http://www.w3.org/Graphics/SVG/1.1/DTD/svg11.dtd">
<svg version="1.1" id="Capa_1" xmlns="http://www.w3.org/2000/svg" xmlns:xlink="http://www.w3.org/1999/xlink" x="0px" y="0px"
	 width="192.995px" height="192.994px" viewBox="0 0 192.995 192.994" style="enable-background:new 0 0 192.995 192.994;"
	 xml:space="preserve">
<g>
	<g>
		<path d="M177.061,73.682c0.78-5.134,0.068-10.179-3.635-14.398c-3.769-4.294-9.462-3.373-14.219-1.157
			c-0.405-7.478-3.772-14.378-12.556-14.695c-7.635-0.274-13.083,5.501-15.652,12.136c-3.217-3.219-7.1-5.894-11.752-7.755
			c1.037-5.314-0.72-13.438-0.833-17.888c-0.248-9.638-1.204-19.382-5.779-28.016c-1.024-1.934-3.545-2.389-5.362-1.406
			C95.205,7.019,85.342,18.293,76.739,28.714c-3.818,4.624-17.495,19.99-13.751,27.396c-1.791,1.288-3.463,2.739-5.064,4.274
			c0.087-3.321-0.647-6.376-2-9.044c0.409-0.742,0.146-1.854-0.807-2.1c-0.18-0.048-0.369-0.059-0.55-0.1
			c-2.809-3.907-7.233-6.624-12.957-7.278c-10.224-1.172-15.545,6.811-15.537,15.411c-0.395-0.035-0.789-0.092-1.184-0.126
			c-1.404-0.12-1.709,2.185-0.332,2.454c0.204,0.04,0.411,0.066,0.616,0.105c-5.287,1.248-10.54,4.121-12.295,9.387
			c-1.213,3.638-0.419,6.928,1.648,9.259c-5.785,1-10.545,5.871-11.712,12.174c-1.51,8.159,4.142,11.16,10.404,11.109
			c-2.153,4.557-2.943,9.718-1.545,14.672c1.899,6.73,7.947,7.01,13.269,5.123c1.528,7.446,6.219,13.13,14.784,13.663
			c7.53,0.468,13.926-4.339,17.715-10.539c-2.284,5.642-4.753,11.852-6.629,18.242c-0.296-0.303-0.708-0.531-1.262-0.586
			c-2.716-0.271-5.683-0.319-8.524-0.596c-1.216-3.212-3.62-5.954-7.313-7.387c-6.088-2.358-13.838-0.776-18.696,3.517
			c-4.405,3.893-2.789,8.214,0.579,11.243c-4.138,2.972-7.054,7.75-6.238,12.976c1.027,6.584,10.797,10.578,15.807,5.733
			c0.495-0.479,0.617-1.068,0.575-1.646c2.183-0.449,4.068-1.526,5.775-2.943c0.045-0.01,0.101,0.002,0.144-0.01
			c2.231-0.614,4.297-2.975,5.936-5.341c0.145-0.019,0.308-0.044,0.442-0.06c3.233-0.388,6.862-0.435,10.017-1.396
			c-0.682,6.668-0.164,13.248,2.477,19.312c3.223,7.398,10.477,11.531,18.76,13.914c0.075,1.057,1.296,1.196,1.811,0.513
			c9.098,2.303,19.158,2.657,26.424,2.909c16.115,0.558,31.798-4.019,37.264-20.517c1.768-5.339,1.924-12.173,0.95-19.061
			c3.528,0.775,7.332,1.258,10.416,0.505c2.015-0.491,2.014-3.567,0-4.061c-2.064-0.505-4.215-0.141-6.333-0.13
			c-1.58,0.009-3.151-0.101-4.719-0.268c-1.739-8.391-5.162-16.451-9.672-21.537c-0.34-0.384-0.715-0.586-1.095-0.714
			c1.578-1.38,3.093-2.826,4.474-4.396c7.337,11.847,26.357,11.01,29.853-2.101c5.028,2.946,11.036,2.861,15.668-2.251
			c4.402-4.859,3.155-10.659-0.115-15.255C195.294,106.771,195.366,72.263,177.061,73.682z M33.839,141.805
			c-0.044,0.051-0.088,0.104-0.131,0.154c-0.647,0.76-0.874,1.608-0.77,2.446c-0.098,0.279-0.141,0.596-0.097,0.953
			c0.283,2.323,0.195,4.49-0.248,6.556c-0.479,0.072-0.963,0.139-1.379,0.368c-0.905,0.496-1.568,1.604-1.518,2.646
			c0.044,0.909,0.351,1.521,0.767,2.001c-0.429,0.664-0.816,1.336-1.373,1.976c-1.303,1.493-2.99,2.844-4.897,3.436
			c-0.699,0.217-1.431,0.262-2.153,0.367c-0.267,0.075-0.498,0.21-0.695,0.405c-0.279,0.417-0.321,0.429-0.127,0.033
			c-0.444-0.241-0.747,0.234-0.56,0.593c-2.674,0.067-5.46,0.097-5.727-3.129c-0.337-4.067,3.403-7.314,6.796-8.695
			c2.564-1.044,2.668-4.312,0-5.322c-10.088-3.821,3.205-8.629,8.136-7.539c1.73,0.382,3.211,1.317,4.308,2.561
			C34.072,141.694,33.924,141.705,33.839,141.805z M48.523,152.717c-2.389-0.764-5.194-0.602-7.728-0.607
			c0.753-1.854,1.119-3.775,1.113-5.683c2.569-0.207,5.205-0.276,7.641-0.518c0.167-0.018,0.295-0.078,0.439-0.122
			C49.389,148.088,48.9,150.402,48.523,152.717z M173.685,80.896c4.683-1.75,8.449-0.446,10.148,3.225
			c-2.498-1.617-6.42-0.756-9.251-0.707c-5.021,0.086-10.043,0.172-15.064,0.259c-4.365,0.075-8.743,0.154-13.103,0.392
			c-1.652,0.09-2.841,0.951-4.154,1.259c-0.014-2.898-0.338-5.737-0.817-8.526c9.709,0.424,19.197,0.841,28.767,2.704
			C170.931,80.652,172.315,81.408,173.685,80.896z M170.33,75.315c-9.647-1.886-19.749-1.924-29.532-1.52
			c-0.342-1.425-0.755-2.82-1.22-4.192c10.309,1.116,21.107,1.621,31.621,1.325C171.043,72.46,170.7,73.988,170.33,75.315z
			 M147.886,102.848c6.977,0.463,14.077,0.884,21.071,0.743c0.266-0.005,0.479-0.084,0.698-0.153
			c0.833,1.23,1.508,2.529,1.849,3.873c-0.198-0.143-0.427-0.251-0.699-0.292c-10.272-1.53-21.906,1.582-32.129-1.008
			c0.46-1.227,0.801-2.491,1.177-3.744C142.515,102.823,145.559,102.693,147.886,102.848z M169.029,63.68
			c0.978,0.768,1.546,1.801,1.882,2.951c-10.628-0.285-21.544,0.237-31.937,1.388c-0.889-2.318-2.031-4.5-3.335-6.581
			c3.263,0.106,6.528,0.153,9.793,0.202c2.446,0.037,5.062,0.275,7.627,0.278c-0.046,0.58-0.095,1.162-0.16,1.672
			c-0.288,2.247,2.858,3.94,4.633,2.658C160.654,63.993,165.169,60.648,169.029,63.68z M151.298,51.635
			c-1.893-0.111-3.814-0.046-5.52-0.081c-1.843-0.038-3.739-0.084-5.613,0.004c1.537-1.124,3.304-1.925,5.338-2.197
			C148.327,48.984,150.141,49.976,151.298,51.635z M137.169,54.507c2.485,0.43,5.067,0.489,7.594,0.65
			c2.67,0.17,5.428,0.771,8.139,1.045c0.063,0.431,0.123,0.862,0.159,1.303c-2.017,0.028-4.052,0.195-5.996,0.224
			c-4.023,0.061-8.05,0.102-12.072,0.249C135.604,56.747,136.336,55.58,137.169,54.507z M83.784,32.089
			c1.684-1.98,3.436-4.002,5.251-6.013c0.344,0.984,1.077,1.822,2.369,2.113c4.734,1.065,9.711,1.006,14.397,2.162
			c2.64,0.651,4.178-1.581,3.893-3.603c1.015-1.664,0.63-4.101-1.261-5.271c-0.417-0.737-1.067-1.381-2.077-1.737
			c-2.87-1.014-5.884-1.473-8.826-2.232c3.169-2.934,6.456-5.718,9.971-8.006c3.085,8.107,3.024,17.165,3.178,25.761
			c0.048,2.662-0.366,6.705,0.131,10.226c-0.43-0.073-0.885-0.115-1.322-0.181c1.589-2.069,0.646-6.016-2.831-6.22
			c-4.747-0.278-9.423-0.878-14.085-1.583c-0.248-0.037-0.496-0.075-0.743-0.111c-3.671-0.563-7.339-1.177-11.021-1.765
			C81.795,34.438,82.79,33.256,83.784,32.089z M33.302,61.402c-0.034-0.114-0.044-0.222-0.077-0.336
			c2.225,0.337,4.452,0.662,6.673,1.011c3.889,0.609,8.76,2.476,12.641,1.65c1.344-0.286,1.354-2.056,0.356-2.722
			c-2.851-1.899-7.536-1.648-10.865-2.034c-3.121-0.362-6.253-0.661-9.38-0.998c-0.275-2.826,0.285-5.316,1.782-7.101
			c3.18,0.201,6.353,0.481,9.526,0.808c2.159,0.222,4.364,0.541,6.553,0.627c2.482,3.045,3.775,7.265,3.936,11.282
			c0.005,0.136,0.112,0.212,0.148,0.332c-1.123,1.328-2.122,2.781-3.094,4.256c-4.992-1.552-10.48-1.752-15.645-2.476
			c-1.421-0.199-2.846-0.331-4.269-0.491C32.929,64.511,33.793,63.027,33.302,61.402z M19.687,70.483
			c0.588-1.107,1.512-1.958,2.585-2.64c5.034,0.388,10.011,0.929,15,1.788c4.026,0.693,8.08,1.868,12.165,2.076
			c-0.575,1.06-1.2,2.079-1.707,3.195c-4.37-0.726-8.915-0.402-13.34-0.633c-5.043-0.263-10.066-0.797-15.094-1.249
			C19.113,72.278,19.168,71.46,19.687,70.483z M22.499,96.494c0.882,0.097,1.765,0.186,2.646,0.284
			c6.054,0.679,12.531,2.016,18.761,2.188c0.124,0.825,0.231,1.655,0.407,2.461c-4.349-0.226-8.8,0.011-13.098-0.111
			c-3.083-0.088-6.943-0.66-10.405-0.431c0.338-0.499,0.684-0.982,1.05-1.385C22.611,98.673,22.761,97.52,22.499,96.494z
			 M31.215,105.037c4.694,0.414,9.641,1.133,14.424,0.963c0.46,1.305,0.963,2.592,1.553,3.838c-0.402,0.058-0.801,0.115-1.186,0.143
			c-2.813,0.202-5.644,0.213-8.463,0.229c-1.533,0.008-3.172,0.082-4.799,0.174c0.015-0.518-0.205-1.049-0.666-1.265
			c-2.269-1.061-4.916-0.749-7.386-0.955c-2.272-0.19-4.539-0.374-6.811-0.498c0.296-1.227,0.738-2.453,1.244-3.629
			C22.958,104.912,27.526,104.712,31.215,105.037z M20.993,81.985c0.505-0.002,0.848-0.209,1.094-0.492
			c1.424-0.635,1.723-2.931,0.673-4.096c-0.408-0.453-0.857-0.882-1.297-1.31c3.514,0.489,7.035,0.929,10.563,1.314
			c4.654,0.511,9.579,1.322,14.298,0.931c-0.832,2.285-1.559,4.647-2.07,7.159c-0.058,0.284-0.066,0.559-0.117,0.842
			c-10.118-1.353-20.765-1.895-31.1-1.992C15.317,82.786,18.186,81.997,20.993,81.985z M8.684,92.658
			c-0.058-0.687-0.009-1.485,0.22-2.461c0.262-1.116,0.733-2.083,1.302-2.967c11.004,0.858,22.515,3.661,33.402,2.896
			c-0.123,1.566-0.153,3.109-0.097,4.629c-5.048-0.675-10.339-0.549-15.317-0.84C21.687,93.536,15.185,93.107,8.684,92.658z
			 M31.528,122.053c3.086,0.099,6.173,0.198,9.259,0.297c3.018,0.098,7.082,0.968,10.084,0.13
			C45.138,129.507,34.697,131.004,31.528,122.053z M52.419,120.211c-0.154-0.516-0.47-0.991-1.105-1.212
			c-2.718-0.947-6.445-0.082-9.274,0.008c-3.722,0.119-7.444,0.238-11.166,0.358c-0.13-0.802-0.23-1.641-0.264-2.561
			c-0.086-2.3-2.614-3.988-4.706-2.7c-6.603,4.063-8.731,1.089-8.495-3.379c2.042,0.179,4.079,0.41,6.115,0.677
			c0.635,0.084,1.286,0.195,1.941,0.303c0.05,0.33,0.273,0.645,0.72,0.695c3.322,0.381,7.586,1.344,11.357,1.591
			c2.603,0.171,8.455,1.27,12.093,0.297c1.047,1.653,2.166,3.265,3.43,4.778C52.873,119.467,52.638,119.832,52.419,120.211z
			 M60.944,126.568c4.667,3.591,10.001,6.429,15.646,8.417c-0.394,0.061-0.77,0.214-0.997,0.579
			c-2.863,4.62-3.767,10.58-5.022,16.139c-0.447-0.129-0.909-0.216-1.352-0.356c0.177-2.862,0.534-5.69,1.087-8.509
			c0.502-2.556,1.505-5.244,1.224-7.862c-0.129-1.2-1.552-1.661-2.265-0.613c-2.791,4.104-3.104,10.775-3.031,15.921
			c-1.629-0.635-3.238-1.323-4.797-2.144c0.429-2.952,1.032-5.824,1.892-8.701c0.652-2.178,2.729-5.226,2.162-7.519
			c-0.284-1.149-1.568-1.505-2.539-1.033c-2.251,1.095-2.562,5.471-3.05,7.607c-0.581,2.546-1.172,5.311-1.316,8.011
			c-0.932-0.584-1.869-1.157-2.768-1.823C57.371,138.174,59.439,131.809,60.944,126.568z M77.964,135.461
			c1.97,0.638,3.978,1.155,6.003,1.578c-2.241,5.167-3.767,10.844-4.785,16.463c-1.905-0.271-3.796-0.588-5.649-1.018
			c2.212-5.231,4.267-10.918,4.674-16.211C78.233,135.938,78.124,135.676,77.964,135.461z M87.109,137.518
			c0.697,0.104,1.396,0.189,2.093,0.291c-0.086,2.35,0.123,4.735,0.138,7.077c0.021,3.151-0.4,6.228-1.102,9.265
			c-2.183-0.063-4.376-0.093-6.515-0.32C83.482,148.364,85.811,143.075,87.109,137.518z M56.354,172.211
			c-0.708-1.242-1.235-2.594-1.648-4.011c1.483,1.557,3.592,2.682,5.949,3.551c0.022,0.87,0.087,1.745,0.105,2.591
			c0.022,1.051,0.069,2.101,0.101,3.151C59.086,176.007,57.536,174.284,56.354,172.211z M69.62,178.318
			c-0.136,1.287-0.189,2.578-0.254,3.869c-1.841-0.671-3.626-1.422-5.249-2.372c0.064-1.824,0.136-3.647,0.175-5.474
			c0.011-0.487,0.042-0.985,0.071-1.485c1.909,0.455,3.855,0.759,5.757,1.011C69.818,175.401,69.754,177.048,69.62,178.318z
			 M78.081,179.854c-0.381,1.449-0.785,2.89-1.164,4.335c-1.596-0.306-3.198-0.602-4.732-1.042c0.267-1.46,0.553-2.918,0.867-4.362
			c0.29-1.336,0.843-2.904,1.173-4.453c1.723,0.156,3.336,0.286,4.589,0.396c0.169,0.016,0.352,0.025,0.522,0.04
			C78.907,176.46,78.524,178.168,78.081,179.854z M85.656,185.358c-1.942-0.162-3.9-0.359-5.86-0.648
			c1.28-3.156,2.543-6.405,3.228-9.659c1.452,0.104,2.945,0.185,4.442,0.262C86.197,178.36,85.758,182.097,85.656,185.358z
			 M90.851,185.69c-0.603-0.026-1.182-0.042-1.797-0.076c0.264-1.963,0.637-3.897,1.229-5.82c0.463-1.503,1.148-2.887,1.678-4.32
			c0.017,0,0.034,0,0.052,0.001C90.854,178.579,90.579,182.331,90.851,185.69z M103.397,181.183
			c-0.511,1.571-1.116,3.111-1.756,4.635c-1.378,0.062-2.757,0.104-4.117,0.079c-0.618-0.011-1.3-0.03-1.949-0.046
			c0.001-1.746,0.213-3.483,0.582-5.223c0.376-1.769,1.107-3.423,1.635-5.126c2.463-0.03,4.936-0.138,7.395-0.315
			C104.437,177.122,104.027,179.247,103.397,181.183z M111.487,184.401c-1.573,0.399-3.178,0.74-4.824,0.967
			c1.844-3.46,3.336-7.183,3.202-10.694c1.406-0.169,2.799-0.377,4.18-0.607C113.154,177.501,112.301,180.952,111.487,184.401z
			 M116.72,182.641c0.393-1.29,0.769-2.584,1.158-3.875c0.552-1.834,1.234-3.8,1.411-5.755c2.95-0.718,5.796-1.626,8.468-2.794
			c0.182-0.08,0.273-0.205,0.424-0.302C126.524,176.224,122.205,180.215,116.72,182.641z M127.248,152.077
			c1.013,3.812,1.729,7.757,1.685,12.074c-0.007,0.636-0.079,1.216-0.128,1.816c-0.87-1.275-2.522-2.128-4.312-1.338
			c-7.485,3.305-71.179,9.155-69.01-3.492c0.138-0.803-0.995-1.433-1.408-0.594c-0.126,0.179-0.252,0.357-0.378,0.537
			c-0.073-3.166,0.23-6.508,0.797-9.91c6.642,6.716,25.743,8.918,30.832,9.431C92.826,161.359,120.608,162.013,127.248,152.077z
			 M95.625,143.562c-0.044,3.565-0.193,7.094-0.647,10.631c-1.188,0.051-2.371,0.104-3.647,0.11
			c-0.295,0.002-0.579-0.042-0.873-0.043c1.703-4.972,2.87-10.915,2.574-16.156c0.891,0.029,1.752-0.003,2.621-0.019
			C95.456,139.888,95.647,141.819,95.625,143.562z M99.475,137.863c0.714-0.07,1.375-0.239,2.074-0.34
			c-0.539,2.24-0.628,4.686-0.925,6.874c-0.431,3.162-0.91,6.316-1.398,9.47c-0.512,0.051-1.001,0.119-1.528,0.159
			c0.69-3.025,1.183-6.063,1.498-9.155C99.415,142.745,99.784,140.147,99.475,137.863z M108.775,152.061
			c-2.059,0.591-4.163,1.079-6.393,1.418c0.602-2.7,1.212-5.396,1.776-8.104c0.58-2.776,1.572-5.701,1.51-8.55
			c1.434-0.341,2.83-0.746,4.188-1.213c-0.206,1.312-0.358,2.639-0.577,3.887c-0.615,3.521-1.097,7.074-1.644,10.607
			C107.484,151.073,108.065,151.777,108.775,152.061z M117.067,147.604c-0.078,0.445,0.05,0.802,0.268,1.081
			c-2.232,1.084-4.427,1.988-6.657,2.731c0.07-0.132,0.15-0.25,0.191-0.42c0.851-3.453,1.7-6.906,2.55-10.358
			c0.57-2.322,1.382-4.773,1.524-7.192c0.912-0.452,1.725-1.037,2.6-1.54C117.127,137.133,117.993,142.334,117.067,147.604z
			 M124.89,144.422c-0.021,0.013-0.041,0.005-0.061,0.018c-1.719,1.106-3.361,2.052-4.982,2.932
			c1.16-4.191,1.974-8.944,1.938-13.401C122.667,137.553,123.744,141.019,124.89,144.422z M94.263,130.608
			c-19.586-0.156-37.343-12.323-41.482-29.958c0.04-0.052,0.068-0.112,0.111-0.162c1.929-2.278,5.524-3.517,8.272-4.263
			c6.433-1.746,13.705-0.188,18.497,4.433c0.039,0.098,0.052,0.206,0.093,0.303c4.344,10.115,19.02,7.917,23.914-0.398
			c3.712-1.815,7.802-2.247,12.104-1.99c2.721,0.161,9.936,1.529,10.279,5.254c0.263,2.848,4.493,3.817,5.245,0.71
			c1.752-7.245-6.375-10.583-12.161-11.702c-4.656-0.9-9.616-0.512-13.951,1.251c-0.526-7.96-8.594-15.952-16.592-12.912
			c-3.44,1.308-6.493,4.436-8.039,7.928c-0.015,0.021-0.035,0.039-0.05,0.062c-0.727,1.045-1.165,2.202-1.47,3.394
			c-6.928-3.787-15.98-3.769-23.124-0.773c-1.594,0.668-2.903,1.564-4.052,2.606c-0.135-3.031,0.116-6.183,0.813-9.433
			c5.298-24.713,31.912-32.396,53.986-32.24c0.3,0.002,0.568-0.052,0.806-0.15c18.536,5.415,28.943,18.449,27.887,39.537
			C134.226,114.499,116.248,130.785,94.263,130.608z M133.072,117.261c-0.005-0.016-0.017-0.024-0.022-0.04
			c0.204-0.309,0.38-0.636,0.578-0.949c1.524,0.532,3.137,0.7,5.086,0.863c4.214,0.354,9.799,1.443,13.906,0.319
			c0.035-0.011,0.047-0.045,0.08-0.057C151.135,127.595,136.523,127.686,133.072,117.261z M152.856,113.724
			c-0.093-0.041-0.131-0.136-0.236-0.164c-3.57-0.977-8.105-0.095-11.8-0.08c-1.819,0.007-3.638-0.041-5.455-0.137
			c0.914-1.67,1.667-3.423,2.408-5.178c3.435,1.757,7.568,1.971,11.383,2.338c2.114,0.203,4.308,0.408,6.521,0.59
			C154.306,111.296,152.999,112.316,152.856,113.724z M170.04,114.135c-3.672,4.747-8.917,1.371-11.823-2.165
			c-0.337-0.41-0.771-0.646-1.23-0.785c4.66,0.344,9.396,0.487,13.818-0.171c0.351-0.052,0.617-0.224,0.844-0.436
			C171.444,111.769,170.946,112.963,170.04,114.135z M172.85,96.971c-1.392,0.004-2.288,0.861-2.667,1.915
			c-0.139-0.113-0.266-0.25-0.406-0.358c-0.76-0.587-1.549-0.272-2,0.349c-5.496-0.06-11.008,0.207-16.505,0.219
			c-3.175,0.007-6.925-0.571-10.416-0.524c0.286-1.24,0.482-2.492,0.688-3.743c12.813,0.787,26.042,1.352,38.84,0.906
			C178.208,96.667,175.514,96.964,172.85,96.971z M184.343,91.569c-0.31-0.188-0.661-0.331-1.11-0.353
			c-13.534-0.642-27.658-0.017-41.298,0.817c0.231-2.021,0.314-4.038,0.328-6.048c1.293,0.302,2.577,1.14,4.151,1.26
			c4.343,0.332,8.75,0.317,13.103,0.392c5.022,0.086,10.043,0.173,15.064,0.259c2.912,0.051,7.008,1.01,9.489-0.808
			c0.216-0.158,0.358-0.35,0.486-0.544c0.087,0.477,0.192,0.937,0.228,1.462C184.882,89.422,184.676,90.557,184.343,91.569z"/>
		<path d="M78.599,74.962c-2.641,0.611-5.394,1.578-8.092,2.712c-0.544-2.108-3.164-2.957-4.523-0.873
			c-0.557,0.854-0.804,2.06-0.806,3.374c-1.33,0.702-2.619,1.43-3.826,2.172c-2.169,1.334-0.751,5.224,1.794,4.254
			c1.099-0.419,2.183-0.791,3.273-1.192c1.244,2.476,3.337,4.165,5.971,3.068c1.104-0.46,2.318-1.438,2.149-2.821
			c-0.146-1.185-0.458-1.988-1.043-2.742c2.214-0.74,4.425-1.476,6.704-2.142C83.937,79.681,82.378,74.088,78.599,74.962z"/>
		<path d="M122.661,81.4c-0.995-0.479-1.904-1.118-2.78-1.81c0.103-0.08,0.204-0.171,0.308-0.25c2.006-1.529,7.004-4.28,3.979-7.304
			c-2.809-2.81-5.91,1.533-7.709,3.319c-0.217,0.214-0.453,0.432-0.678,0.646c-1.25-1.166-2.913-2.64-4.468-2.427
			c-1.207-0.255-2.434,0.117-2.492,1.695c-0.026,0.735,0.364,1.14,0.848,1.388c0.372,1.139,1.319,2.188,2.195,3.123
			c-1.119,1.136-2.178,2.312-2.999,3.59c-1.058,1.646,1.03,3.693,2.67,2.67c1.276-0.797,2.481-1.756,3.683-2.718
			c1.09,1.157,2.146,2.349,3.297,3.453C122.28,90.391,126.982,83.479,122.661,81.4z"/>
		<path d="M110.725,109.192c-11.542,13.786-31.817,9.178-41.573-3.608c-0.904-1.186-3.187-0.989-3.094,0.838
			c1.169,22.799,38.755,21.478,49.508,7.612C118.207,110.629,113.6,105.759,110.725,109.192z"/>
		<path d="M170.748,151.095c2.253-2.068,4.143-4.584,4.18-7.545c0.013-1.007-0.172-1.972-0.503-2.857
			c1.558-0.294,2.329-2.506,0.673-3.447c-8.722-4.968-19.049-0.517-24.208,7.26c-0.473-0.205-0.951-0.457-1.424-0.76
			c1.854-1.173,2.103-4.516-0.549-4.919c-3.603-0.55-7.115-1.271-10.602-2.342c-0.714-0.219-5.896-1.128-6.126-1.749
			c-0.404-1.091-1.99-0.673-1.75,0.482c0.4,1.924,3.028,3.477,4.534,4.356c3.043,1.776,6.59,3.056,10.08,3.953
			c0.988,1.497,3.088,2.442,3.897,3.963c0.057,0.104,0.137,0.135,0.198,0.222c-0.479,1.108-0.881,2.252-1.14,3.433
			c-1.75,7.998,1.333,17.868,10.22,19.516c6.357,1.178,13.783-1.717,17.396-7.124C179.278,158.066,175.425,153.712,170.748,151.095z
			 M170.245,160.9c-2.023,3-6.777,4.143-10.132,3.972c-5.571-0.283-6.517-6.256-6.347-10.706c0.288-7.55,6.707-12.562,13.654-13.613
			c0.795,0.937,1.915,1.885,1.671,3.064c-0.49,2.367-3.744,4.459-5.51,5.694c-2.059,1.439-1.857,4.59,0.7,5.368
			C167.019,155.512,172.719,157.233,170.245,160.9z"/>
	</g>
</g>
<g>
</g>
<g>
</g>
<g>
</g>
<g>
</g>
<g>
</g>
<g>
</g>
<g>
</g>
<g>
</g>
<g>
</g>
<g>
</g>
<g>
</g>
<g>
</g>
<g>
</g>
<g>
</g>
<g>
</g>
</svg>
