<?xml version='1.0' encoding='iso-8859-1'?>
<!DOCTYPE svg PUBLIC '-//W3C//DTD SVG 1.1//EN' 'http://www.w3.org/Graphics/SVG/1.1/DTD/svg11.dtd'>
<svg version="1.1" xmlns="http://www.w3.org/2000/svg" viewBox="0 0 427.544 427.544" xmlns:xlink="http://www.w3.org/1999/xlink" enable-background="new 0 0 427.544 427.544">
  <g>
    <path d="m216.104,51.941c27.352-0.271 54.69,0.58 81.415,5.88 17.914,3.552 35.902,9.055 52.382,16.816 14.467,6.813 27.857,17.454 35.409,32.265 5.404,10.599 10.452,20.985 17.478,30.846 8.058,11.309 7.954,25.742 6.424,39.556-0.161,1.458-0.595,2.884-0.863,4.332-1.749,9.472-0.645,17.168 5.541,26.123 18.138,26.259 17.196,54.697 3.128,82.676-3.76,7.478-9.089,14.347-14.585,20.732-8.253,9.59-18.652,15.731-31.915,14.593-6.797-0.583-11.762,1.958-16.889,6.231-14.261,11.886-30.551,20.343-47.797,27.236-12.65,5.056-24.86,11.179-38.58,13.027-30.433,4.099-60.902,4.59-91.399,0.895-20.456-2.479-40.45-6.12-60.121-13.261-36.346-13.193-59.706-39.246-77.529-71.826-18.419-33.664-27.133-70.755-36.544-107.412-3.106-12.096-0.986-25.644-0.52-38.501 0.236-6.519 4.708-11.353 9.292-15.847 2.524-2.474 5.421-5.229 6.48-8.413 3.378-10.154 10.252-17.441 19.214-21.943 37.557-18.864 75.384-37.368 118.276-40.635 20.534-1.563 41.133-2.273 61.703-3.37zm-181.991,181.001l-.28-.26c-1.346,8.188-2.934,16.415 4.04,24.074 3.792-7.513 7.357-14.578 10.923-21.643-1.008,7.041-3.287,13.509-6.326,19.598-3.617,7.248-2.372,12.945 4.045,18.608 5.255-10.461 9.145-20.866 16.571-29.168-3.522,10.557-8.001,20.613-11.986,30.861-1.094,2.814-1.986,6.856-0.776,9.202 3.751,7.273 8.558,14.001 13.467,21.749 7.503-16.818 14.258-31.961 21.013-47.104 0.733,0.3 1.467,0.6 2.2,0.9-1.121,3.382-2.112,6.813-3.388,10.136-4.092,10.657-8.443,21.217-12.401,31.923-3.92,10.602-3.702,10.843 6.582,18.99 6.817-14.915 13.612-29.778 20.406-44.642 0.799,0.331 1.599,0.662 2.398,0.992-6.326,16.217-12.652,32.434-18.757,48.084 11.08,11.262 16.306,14.575 27.878,17.867 6.347-12.706 12.753-25.53 19.159-38.354 0.776,0.372 1.551,0.744 2.327,1.116-6.062,13.137-12.124,26.273-18.464,40.014 5.885,2.32 10.48,4.131 15.253,6.012 7.747-15.57 14.388-30.384 24.033-43.413 0.718,0.361 1.436,0.723 2.154,1.084-6.888,14.406-13.776,28.813-21.147,44.231 5.43,1.326 9.558,2.334 13.625,3.328 7.714-13.911 14.984-27.023 22.255-40.135 0.688,0.34 1.376,0.68 2.065,1.019-4.239,13.871-13.671,25.545-18.761,39.972 4.868,0.847 9.055,1.575 13.022,2.264 7.84-13.392 15.299-26.132 22.759-38.873 0.736,0.417 1.472,0.835 2.207,1.252-6.273,12.329-12.546,24.659-19.175,37.689 5.846,0.892 10.794,1.648 16.458,2.512 5-7.554 9.944-15.024 14.889-22.494 0.457,0.335 0.914,0.67 1.371,1.005-3.634,6.885-7.267,13.769-11.472,21.735 7.11,0 12.191,0 16.374,0 6.261-11.59 12.148-22.489 18.036-33.389 0.721,0.376 1.443,0.752 2.164,1.128-5.227,10.312-10.453,20.624-16.182,31.925 6.354,0 11.65,0 17.325,0 6.13-9.275 9.85-20.294 18.954-27.992-4.657,9.136-9.313,18.273-14.739,28.918 6.886-0.485 11.521-0.811 15.664-1.102 1.816-4.336 3.071-7.803 4.699-11.086 1.589-3.205 3.559-6.221 5.362-9.32 0.526,0.315 1.053,0.63 1.579,0.945-2.823,6.124-5.645,12.247-8.628,18.718 28.233-1.549 76.521-21.854 89.845-37.548-10.405-4.003-21.522-6.892-26.661-19.318 8.127,3.622 16.254,7.244 24.853,11.076 2.777-5.875 5.224-11.052 8.516-18.016 1.541,8.11-5.406,12.483-2.113,19.864 3.09-3.271 5.449-5.767 8.553-9.052-0.264,3.099-0.454,5.315-0.676,7.928 2.993,0 5.457,0 8.126,0 1.926-4.886 1.491-11.002 8.076-13.649-1.285,4.912-2.332,8.912-3.406,13.015 9.596,2.509 15.966-1.65 21.631-7.26 23.704-23.474 33.362-60.652 17.301-93.496-6.608-13.514-16.689-20.664-32.028-21.007-13.669-0.306-26.284,2.181-37.867,9.688-2.011,1.303-4.843,1.339-7.296,1.96-0.502-0.879-1.004-1.758-1.507-2.637 2.699-2.636 5.034-5.861 8.166-7.797 9.566-5.911 20.162-9.146 31.425-9.002 8.676,0.111 17.339,1.206 27.038,1.942 1.644-10.351 4.041-20.766 4.746-31.293 0.623-9.31-1.855-18.191-9.749-23.697-3.824,6.284-6.546,13.038-11.208,17.953-10.228,10.784-22.408,19.511-36.874,23.49-30.88,8.493-62.264,14.997-94.173,17.905-20.138,1.835-40.461,1.618-60.697,2.426-26.699,1.066-52.713-4.325-78.84-8.433-19.609-3.083-39.098-6.528-57.3-15.439-16.775-8.213-32.323-17.048-36.689-38.055-5.29,4.905-6.757,9.983-6.286,15.718 1.265,15.401 2.607,30.727 8.083,45.462 4.482,12.062 7.934,24.505 11.921,36.753 0.516,1.585 1.503,3.018 2.329,4.635 1.777-1.334 2.881-2.163 3.986-2.992zm175.977-172.691c-12.731-7.10543e-15-21.971-0.507-31.138,0.102-21.294,1.414-42.823,3.168-62.776,10.894-23.964,9.278-47.167,20.543-70.566,31.241-3.924,1.794-7.503,4.726-10.666,7.737-12.915,12.293-12.795,29.505 0.516,41.261 4.341,3.834 9.534,6.873 14.711,9.556 15.497,8.031 32.061,12.549 49.382,14.83 22.56,2.971 44.954,8.223 67.58,9.401 25.634,1.334 51.446-0.743 77.18-1.374 2.203-0.054 4.438-0.192 6.593-0.619 25.571-5.065 51.09-10.405 76.708-15.224 15.516-2.919 27.758-11.602 39.24-21.435 11.147-9.547 14.203-27.568 5.304-37.746-8.352-9.552-17.93-19.093-28.924-25.002-13.416-7.211-28.557-12.02-43.511-15.393-30.575-6.897-61.791-9.008-89.633-8.229z"/>
    <path d="m28.485,175.164c29.511,16.434 62.309,20.472 94.56,26.97 32.599,6.568 65.292,10.397 98.548,10.196 33.151-0.2 65.078-9.263 97.565-14.261 0.309,0.976 0.618,1.953 0.927,2.929-3.427,1.551-6.732,3.501-10.3,4.591-27.528,8.412-55.42,13.574-84.465,14.39-36.122,1.015-70.995-5.386-105.942-12.652-10.071-2.094-20.409-3.185-30.254-6.022-16.566-4.774-32.925-10.328-49.174-16.107-4.517-1.607-8.342-5.161-12.484-7.822 0.34-0.737 0.68-1.474 1.019-2.212z"/>
    <path d="m363.125,208.997c-1.795,5.027-3.59,10.054-5.561,15.575 11.613,4.434 10.474-7.807 17.509-11.973-2.041,5.774-3.59,10.158-5.213,14.75 6.94,3.309 6.479-4.927 10.792-5.608 1.303,4.396-7.074,10.458 3.615,14.412 1.618-2.352 3.839-5.582 6.061-8.811-0.67,8.658-7.273,16.177-0.41,24.856 2.788-4.266 5.627-8.61 8.466-12.955 0.456,0.23 0.912,0.46 1.368,0.689-0.486,1.66-0.675,3.489-1.507,4.953-5.071,8.931-9.004,18.041-10.574,28.485-1.593,10.594-9.443,15.681-19.989,17.581-11.776,2.121-22.316,0.433-29.999-8.986-8.242-10.104-10.296-21.691-4.667-34.065 3.938-8.658 6.862-17.908 17.836-20.816 2.139-0.567 3.726-4.122 5.073-6.57 2.157-3.924 3.9-8.075 5.818-12.13 0.46,0.204 0.921,0.408 1.382,0.613zm15.859,49.825c-0.286-3.247-0.296-6.22-0.85-9.087-1.422-7.355-5.575-12.288-12.859-14.859-6.997-2.469-12.768-2.353-16.642,5.003-0.301,0.572-1.143,0.918-1.797,1.238-8.658,4.242-10.002,12.285-10.147,20.548-0.171,9.757 9.383,19.778 19.335,21.018 11.774,1.467 19.455-4.254 22-16.506 0.519-2.504 0.673-5.084 0.96-7.355z"/>
    <path d="m76.305,249.07c-5.39,13.35-10.78,26.699-17.04,42.206-1.831-9.95 5.026-27.489 17.04-42.206z"/>
    <path d="m95.192,332.41c3.67-14.54 11.223-27.422 17.937-40.663 0.675,0.279 1.35,0.558 2.025,0.838-5.741,13.639-11.481,27.279-17.222,40.918-0.913-0.364-1.827-0.728-2.74-1.093z"/>
    <path d="m376.604,171.373c-4.996,7.283-10.451,10.959-19.591,10.056 5.386-6.293 10.962-9.737 19.591-10.056z"/>
    <path d="m34.113,232.942c0.543-2.699 1.086-5.398 1.629-8.096 0.713,0.235 1.425,0.471 2.138,0.706-1.351,2.373-2.703,4.746-4.05,7.124 0.003,0.006 0.283,0.266 0.283,0.266z"/>
    <path d="m238.295,97.944c8.233,0 15.905-0.177 23.565,0.04 12.308,0.349 24.083,2.658 34.237,10.31 6.063,4.569 10.206,10.352 12.497,17.675 2.253,7.201 0.444,12.966-4.921,17.911-10.301,9.495-22.65,13.826-36.418,12.833-23.052-1.662-46.053-4.042-69.077-6.094-8.768-0.781-17.536-1.575-26.316-2.208-7.681-0.554-14.978,0.454-22.64,2.451-12.38,3.227-25.139,4.767-36.887,10.468-3.381,1.641-8.502-2.259-9.79-6.819-1.68-5.947-0.381-11.335 2.645-16.866 7.91-14.459 20.073-24.767 33.87-32.409 16.639-9.216 34.199-16.974 51.921-23.936 7.951-3.124 17.244-3.606 25.965-3.831 15.501-0.401 19.367,3.517 21.349,20.475zm-126.848,58.224c5.837-2.895 11.117-6.307 16.893-8.24 22.418-7.5 45.33-7.567 68.678-4.947 24.817,2.785 49.82,3.9 74.73,5.889 9.011,0.719 16.592-2.475 23.583-7.682 7.214-5.372 8.286-9.913 3.987-18.064-5.461-10.355-14.911-14.995-25.821-16.886-13.118-2.273-26.257-2.712-39.401,0.53-7.124,1.757-8.42,0.036-6.395-7.156 0.297-1.056 0.883-2.042 1.094-3.109 1.63-8.214-0.925-11.73-9.556-11.874-6.574-0.11-13.327-0.021-19.719,1.32-28.651,6.012-54.083,19.156-76.597,37.52-6.019,4.91-9.936,12.621-14.127,19.47-2.997,4.901-2.267,9.887 2.651,13.229z"/>
  </g>
</svg>
