<?xml version='1.0' encoding='iso-8859-1'?>
<!DOCTYPE svg PUBLIC '-//W3C//DTD SVG 1.1//EN' 'http://www.w3.org/Graphics/SVG/1.1/DTD/svg11.dtd'>
<svg version="1.1" xmlns="http://www.w3.org/2000/svg" viewBox="0 0 433.295 433.295" xmlns:xlink="http://www.w3.org/1999/xlink" enable-background="new 0 0 433.295 433.295">
  <g>
    <path d="m176.006,111.032c1.068-5.381 1.707-8.602 2.345-11.823 6.305-31.831 26.318-51.718 55.514-63.498 15.127-6.104 30.535-11.061 47.221-9.175 4.728,0.534 9.911,0.312 14.047,2.237 14.658,6.823 29.174,14.029 43.297,21.892 7.443,4.143 11.038,11.91 12.324,20.163 1.643,10.551 6.847,18.083 15.71,24.076 12.862,8.698 17.767,21.5 18.404,36.981 1.059,25.723 3.713,51.379 4.918,77.099 0.441,9.423 0.184,19.386-2.4,28.338-5.665,19.623-8.779,39.423-9.595,59.762-0.263,6.552-1.784,13.131-3.381,19.535-2.933,11.769-6.012,23.526-9.706,35.072-1.87,5.844-4.378,11.899-8.183,16.566-2.655,3.258-7.867,4.687-12.181,6.266-4.382,1.604-9.136,2.164-13.601,3.58-10.874,3.448-21.536,7.647-32.539,10.585-15.2,4.059-30.746,4.728-45.704-0.861-12.244-4.575-24.359-4.492-36.806-1.981-13.257,2.674-26.359,2.058-39.192-2.312-15.448-5.261-31.43-7.792-47.612-8.808-14.921-0.937-27.611-6.492-39.423-15.457-10.518-7.983-21.503-15.483-32.89-22.16-20.045-11.754-31.464-29.775-37.395-51.243-3.338-12.083-6.307-24.094-11.682-35.518-14.782-31.421-7.151-69.238 18.028-93.378 7.668-7.352 14.293-15.782 21.824-23.288 5.442-5.423 11.071-10.969 17.527-15.005 18.417-11.515 38.171-19.175 60.539-17.258 1.826,0.156 3.715,0.187 5.517-0.096 15.788-2.48 30.923-1.543 45.075,9.709zm68.865,237.238c0.661,0.524 1.322,1.047 1.983,1.571-4.215,6.911-8.429,13.821-12.745,20.898 12.947,3.219 24.584,6.112 35.84,8.911 9.389-16.82 9.98-17.574 16.601-21.412-2.503,7.162-9.432,12.067-10.317,20.354 10.856,1.305 20.185-2.341 29.668-5.103 8.808-2.566 17.491-5.871 26.475-7.449 12.271-2.155 15.665-4.329 18.962-16.264 2.938-10.635 6.051-21.233 8.58-31.967 2.018-8.565 3.801-17.252 4.759-25.986 2.008-18.302 4.32-36.436 9.838-54.16 2.349-7.544 3.051-15.957 2.746-23.907-1.042-27.199-2.746-54.375-4.441-81.545-0.707-11.333-3.561-22.213-13.623-28.915-11.516-7.669-17.819-18.229-20.482-31.452-1.567-7.78-6.329-13.038-13.329-16.586-8.868-4.495-17.58-9.301-26.466-13.76-2.929-1.47-6.107-2.826-9.31-3.305-24.895-3.719-47.674,2.938-68.102,16.515-16.698,11.098-28.557,26.5-32.27,47.013-0.26,1.434-0.895,2.8-1.356,4.199-3.865,11.743-7.603,14.321-18.466,9.188-12.514-5.913-25.034-4.737-37.858-3.368-2.555,0.273-5.086,0.93-7.64,1.008-30.15,0.929-54.416,13.658-73.928,36.319-4.061,4.717-8.868,8.8-13.403,13.099-13.6,12.889-21.438,28.691-23.917,47.196-0.036,0.266 0.88,0.66 1.574,1.153 5.594-7.326 9.266-16.101 16.82-21.744-3.84,7.175-7.58,14.454-12.639,20.657-8.58,10.519-6.534,21.005-1.647,31.909 1.054,2.351 2.05,4.738 3.261,7.008 5.425,10.166 8.495,21.01 10.713,32.317 3.377,17.217 12.378,31.716 26.218,42.226 9.159,6.955 20.028,11.657 30.34,17.485 7.836-11.723 13.965-23.932 22.342-34.533 0.721,0.465 1.442,0.93 2.163,1.396-6.711,12.138-13.422,24.275-20.199,36.532 10.394,11.611 22.753,17.64 37.744,19.29 13.483,1.484 27.296,2.566 40.161,6.47 19.676,5.972 38.934,7.02 58.537,1.827 5.62-7.714 11.216-15.399 16.813-23.085z"/>
    <path d="m396.551,90.858c-16.989-0.96-26.392-14.898-19.58-28.021 2.121-4.087 4.884-7.221 10.06-7.368 2.505-0.071 4.972-1.021 7.486-1.356 6.95-0.926 13.533,0.105 17.593,6.37 4.273,6.593 4.608,13.855 0.898,20.977-3.605,6.917-9.376,10.061-16.457,9.398zm-4.689-30.385c-5.631,0.08-9.39,4.111-9.267,9.939 0.134,6.358 7.226,12.206 14.673,12.098 6.101-0.088 8.796-3.546 8.806-11.295 0.009-8.1-3.684-10.891-14.212-10.742z"/>
    <path d="m163.954,42.464c7.119,0.263 13.653,7.143 13.862,14.595 0.308,11.008-11.5,22.129-22.287,20.989-8.103-0.856-13.158-6.903-12.557-15.018 0.744-10.045 11.823-20.905 20.982-20.566zm-17.191,19.993c4.876,8.269 7.792,10.089 12.397,8.724 4.068-1.206 8.366-7.139 8.559-11.816 0.213-5.155-3.054-7.691-7.674-5.353-4.468,2.261-8.511,5.363-13.282,8.445z"/>
    <path d="m433.294,125.079c-0.06,9.971-8.142,18.735-16.868,18.292-7.002-0.356-13.714-7.025-13.673-13.585 0.055-8.963 10.74-19.223 19.71-18.926 6.296,0.209 10.879,6.226 10.831,14.219zm-10.596-6.412c-3.844,1.295-7.818,1.686-10.379,3.794-2.077,1.71-3.498,5.575-3.257,8.312 0.193,2.189 3.163,5.575 5.192,5.8 2.627,0.291 6.479-1.296 8.129-3.392 2.905-3.69 4.267-8.398 0.315-14.514z"/>
    <path d="m74.806,89.124c-0.209,7.357-5.392,12.35-12.641,12.176-6.996-0.168-12.262-4.532-12.183-10.096 0.073-5.202 10.774-13.667 16.707-13.217 4.978,0.378 8.294,4.927 8.117,11.137z"/>
    <path d="m33.382,363.435c-1.702-0.061-4.494-1.969-4.745-6.42-0.304-5.382 4.269-10.872 8.792-10.839 4.49,0.032 8.21,4.123 7.953,8.744-0.287,5.125-4.28,8.752-12,8.515z"/>
    <path d="m422.053,166.495c-0.31,4.197-3.938,7.003-8.348,6.455-4.097-0.509-7.317-4.225-7.083-8.177 0.232-3.925 4.337-7.122 8.378-6.522 4.139,0.614 7.34,4.356 7.053,8.244z"/>
    <path d="m90.338,65.706c0.223,3.87-3.509,7.601-7.698,7.392-4.065-0.202-7.776-2.541-7.043-6.422 0.491-2.601 4.257-5.443 7.169-6.514 3.768-1.385 7.359,1.838 7.572,5.544z"/>
    <path d="m110.999,46.962c-4.56,2.232-7.073,4.534-8.975,4.107-2.123-0.476-4.881-3.236-5.227-5.351-0.56-3.424 2.61-5.383 5.755-4.631 2.313,0.553 4.215,2.822 8.447,5.875z"/>
    <path d="m424.451,205.964c-2.415-3.984-4.718-6.188-4.777-8.45-0.039-1.486 3.587-4.595 4.821-4.254 2.275,0.627 5.267,3.074 5.563,5.111 0.257,1.765-2.804,4.013-5.607,7.593z"/>
    <path d="m89.437,405.213c-2.244,1.013-3.727,2.241-4.459,1.892-1.349-0.643-2.257-2.212-3.349-3.395 1.067-0.831 2.377-2.523 3.149-2.306 1.403,0.395 2.487,1.924 4.659,3.809z"/>
    <path d="m126.699,250.072c-12.525-0.556-22.943-4.76-28.299-17.104-4.429-10.208-1.102-22.596 8.493-31.984 4.179-4.088 8.314-8.389 13.134-11.592 3.1-2.06 7.838-3.917 11.101-3.057 10.478,2.764 19.92,7.674 23.578,19.197 0.554,1.746 0.838,3.598 1.55,5.272 8.456,19.888-4.984,39.835-29.557,39.268z"/>
    <path d="m222.232,221.133c-6.738-0.431-15.111-2.936-22.602-7.889-7.667-5.07-9.539-11.315-6.453-20.029 5.232-14.772 22.767-25.752 38.289-23.761 6.099,0.783 11.485,3.251 13.764,9.481 2.131,5.824 4.551,11.744 5.336,17.817 1.77,13.684-10.432,24.734-28.334,24.381z"/>
    <path d="m248.757,296.454c-12.497-0.197-20.737-9.864-18.418-22.011 1.539-8.063 4.439-15.595 10.952-21.158 7.37-6.296 16.215-6.75 24.438-1.28 8.653,5.756 11.682,14.428 8.317,23.811-5.087,14.177-13.235,20.827-25.289,20.638z"/>
    <path d="m205.434,273.47c-0.025,12.15-9.598,21.619-21.556,21.319-11.392-0.286-18.895-8.684-18.136-21.477 0.315-5.314 1.698-10.954 4.106-15.675 5.533-10.85 17.517-12.632 26.796-4.674 5.549,4.76 8.807,12.359 8.79,20.507z"/>
    <path d="m259.667,127.825c-0.979,8.945-5.87,14.023-12.682,17.728-6.666,3.625-13.778,4.104-19.62-0.756-3.309-2.753-6.063-7.501-6.802-11.745-1.597-9.169 8.647-23.085 17.667-25.233 6.489-1.545 11.686,1.468 15.143,6.464 2.792,4.034 4.246,8.993 6.294,13.542z"/>
    <path d="m170.343,177.057c-7.893,0.055-15.014-5.839-15.418-12.763-0.454-7.786 6.635-15.467 14.121-15.3 6.98,0.156 15.492,8.856 15.636,15.983 0.133,6.56-6.353,12.024-14.339,12.08z"/>
    <path d="m284.945,235.198c-5.393,0.348-9.393-1.746-11.101-6.998-2.588-7.961 6.789-21.561 15.208-22.194 9.214-0.693 15.178,6.849 11.769,14.671-3.929,9.022-8.526,14.335-15.876,14.521z"/>
    <path d="m284.915,153.565c5.149-0.138 9.757,4.504 9.789,9.861 0.034,5.583-4.19,10.732-8.91,10.863-4.88,0.136-9.992-5.696-9.922-11.318 0.061-4.804 4.364-9.28 9.043-9.406z"/>
    <path d="m336.712,154.525c-0.045,3.758-4.077,7.35-8.244,7.345-4.928-0.006-9.064-4.145-9.156-9.16-0.08-4.356 3.157-7.951 7.28-8.088 4.628-0.154 10.175,5.275 10.12,9.903z"/>
    <path d="m48.88,188.221c-9.171,15.529-18.341,31.057-28.532,48.312 0.189-11.354 10.149-28.635 28.532-48.312z"/>
    <path d="m294.44,124.537c-3.262-0.33-7.621,0.251-7.684-5.185-0.048-4.126 5.282-8.555 9.994-8.657 4.144-0.09 7.326,1.454 7.943,5.916 0.617,4.464-3.627,7.719-10.253,7.926z"/>
    <path d="m110.616,173.206c-4.946-0.067-5.945-3.726-6.145-7.447-0.215-3.983 3.948-7.429 8.045-7.25 4.369,0.191 8.255,3.877 7.902,7.497-0.354,3.643-5.295,7.271-9.802,7.2z"/>
    <path d="m109.383,275.229c-0.273,3.755-4.453,7.492-8.357,7.472-3.902-0.02-7.86-4.004-7.783-7.833 0.078-3.932 3.937-7.255 8.3-7.148 4.557,0.112 8.13,3.534 7.84,7.509z"/>
    <path d="m239.474,311.037c3.885-0.183 7.839,4.166 7.992,8.789 0.133,4.038-2.744,7.344-6.53,7.056-4.516-0.343-7.356-3.043-8.211-7.424-0.73-3.74 3.08-8.248 6.749-8.421z"/>
    <path d="m327.439,269.239c-0.091,3.823-4.172,7.374-8.159,7.101-4.059-0.278-7.738-4.106-7.564-7.871 0.187-4.054 4.027-7.419 8.079-7.079 4.048,0.339 7.733,4.123 7.644,7.849z"/>
    <path d="m57.431,239.39c-4.732,15.372-13.014,26.351-19.498,41.066-0.272-10.62 7.295-25.827 19.498-41.066z"/>
    <path d="m173.462,364.072c6.968-9.48 13.936-18.961 20.904-28.441 0.654,0.457 1.309,0.913 1.963,1.37-4.989,10.932-12.633,20.073-19.69,29.61-1.058-0.846-2.117-1.693-3.177-2.539z"/>
    <path d="m128.033,321.7c-6.117,10.311-12.233,20.621-18.35,30.932-0.807-8.368 4.501-17.744 18.35-30.932z"/>
    <path d="m64.61,263.695c-2.702,13.268-10.581,24.035-16.722,35.642 2.287-13.468 9.755-24.434 16.722-35.642z"/>
    <path d="m25.959,254.331c2.958-12.698 10.938-22.767 17.573-33.539 0.669,0.338 1.337,0.677 2.006,1.015-5.822,11.179-11.644,22.357-17.466,33.536-0.704-0.337-1.408-0.675-2.113-1.012z"/>
    <path d="m57.142,316.479c0.542-2 0.784-4.147 1.677-5.976 3.992-8.172 8.171-16.253 12.282-24.367 0.722,0.334 1.444,0.668 2.165,1.002-4.482,10.097-8.963,20.195-13.444,30.292-0.894-0.317-1.787-0.634-2.68-0.951z"/>
    <path d="m154.42,324.181c-5.615,9.781-11.23,19.563-16.845,29.344-0.746-0.42-1.491-0.84-2.237-1.26 3.429-10.961 11.221-19.534 16.51-29.477 0.858,0.465 1.715,0.929 2.572,1.393z"/>
    <path d="m224.63,342.276c-5.528,7.758-11.056,15.516-17.808,24.99 0.479-9.123 4.677-15.332 17.808-24.99z"/>
    <path d="m74.26,325.415c1.963-10.751 8.452-18.975 14.763-27.298-2.728,10.324-8.417,18.994-14.763,27.298z"/>
    <path d="m170.217,340.961c-3.624,6.473-7.248,12.945-11.644,20.797 0.031-8.259 2.898-13.696 11.644-20.797z"/>
    <path d="m262.352,358.799c-3.188,3.976-6.294,7.851-9.401,11.727 0.367-5.604 3.738-9.216 7.504-12.541 0.169-0.149 0.948,0.392 1.897,0.814z"/>
  </g>
</svg>
