<?xml version="1.0" encoding="iso-8859-1"?>
<!-- Generator: Adobe Illustrator 16.0.0, SVG Export Plug-In . SVG Version: 6.00 Build 0)  -->
<!DOCTYPE svg PUBLIC "-//W3C//DTD SVG 1.1//EN" "http://www.w3.org/Graphics/SVG/1.1/DTD/svg11.dtd">
<svg version="1.1" id="Capa_1" xmlns="http://www.w3.org/2000/svg" xmlns:xlink="http://www.w3.org/1999/xlink" x="0px" y="0px"
	 width="196.083px" height="196.083px" viewBox="0 0 196.083 196.083" style="enable-background:new 0 0 196.083 196.083;"
	 xml:space="preserve">
<g>
	<path d="M195.271,49.483c3.493-6.163-7.456-13.384-11.313-16.173c-7.51-5.429-15.35-10.374-23.185-15.316
		c-0.026-1.737-1.421-3.387-3.4-3.49c-12.857-0.67-28.449,22.158-36.046,30.272c-17.517,18.711-33.702,38.648-50.212,58.266
		c-0.517,0.267-0.926,0.741-1.101,1.3c-3.029,3.594-6.044,7.201-9.11,10.76c-1.495-0.912-3.848-0.516-4.397,1.56
		c-4.673,17.654-5.697,35.99-7.117,54.137c-3.732-2.853-8.159-4.515-12.853-5.404c1.681-4.105,3.398-8.178,5.793-11.962
		c2.165-3.421-1.409-8.189-5.312-6.91c-4.471,1.465-8.987,2.28-13.549,3.007c3.187-8.238,10.444-15.289,14.628-22.738
		c1.428-2.543,0.204-6.161-2.791-6.858c-5.679-1.322-11.308-1.317-16.963-0.997c4.54-3.207,9.356-5.984,14.579-8.477
		c3.512-1.675,0.947-6.783-2.534-6.011c-11.326,2.515-20.432,9.17-29.016,16.719c-3.035,2.669-0.63,8.017,3.268,7.89
		c7.196-0.236,14.441-1.453,21.616-1.031c-5.88,8.594-12.54,16.312-13.714,27.237c-0.357,3.315,3.254,4.997,5.961,4.541
		c3.702-0.623,7.365-1.132,10.998-1.787c-1.231,2.916-2.373,5.882-3.696,8.887c-1.465,3.325,0.254,6.824,4.057,7.07
		c7.495,0.483,12.713,3.603,19.06,7.059c3.544,1.931,6.361-1.487,5.443-4.609c0.162-0.038,0.327-0.048,0.485-0.112
		c8.795-3.613,17.297-7.832,25.778-12.123c6.634-3.357,15.715-6.26,21.269-11.406c0.738,0.176,1.476,0.353,2.231,0.442
		c0.809,0.097,1.514-0.164,2.088-0.615c1.008,0.274,2.114,0.147,2.963-0.704c16.362-16.413,31.684-33.909,47.081-51.221
		c13.415-15.083,28.553-30.129,39.272-47.284C196.444,51.938,196.13,50.508,195.271,49.483z M140.57,38.96
		c2.431,6.992,5.441,13.839,8.548,20.536c-0.488-0.042-0.993-0.053-1.503-0.052c-1.661-2.794-4.03-5.34-5.739-8.035
		c-1.792-2.826-3.498-5.703-5.251-8.551C137.94,41.558,139.262,40.267,140.57,38.96z M143.646,83.05
		c0.253,0.529,0.614,1.002,0.923,1.503c-1.546,2.561-3.259,4.859-4.635,6.569c-0.062,0.077-0.153,0.18-0.219,0.261
		c-0.798-0.628-1.924,0.414-1.451,1.345c0.032,0.066,0.069,0.154,0.104,0.223c-1.227,1.381-2.773,3.001-4.538,4.602
		c-0.117-0.173-0.257-0.331-0.37-0.507c-0.887-1.369-3.464-0.483-2.769,1.168c0.204,0.484,0.502,0.921,0.749,1.383
		c-4.695,3.716-10.147,6.363-14.013,3.353c-11.485-8.939,16.46-29.669,28.486-37.429c0.146,0.371,0.32,0.742,0.622,1.091
		c3.605,4.163,2.177,10.047-0.513,15.318c-0.041-0.066-0.104-0.119-0.145-0.185C145.001,80.302,142.936,81.562,143.646,83.05z
		 M134.551,44.908c1.47,2.735,2.928,5.477,4.445,8.185c1.227,2.185,2.49,4.734,4.032,6.982c-2.066,0.554-4.251,1.401-6.497,2.538
		c0.146-2.149-1.89-4.497-2.929-6.11c-1.351-2.096-2.767-4.331-4.428-6.283C130.936,48.409,132.769,46.69,134.551,44.908z
		 M121.415,58.387c1.994-2.241,4.102-4.333,6.162-6.485c1.269,2.217,2.261,4.669,3.291,6.916c0.799,1.743,1.416,4.118,3.129,5.188
		c-2.225,1.296-4.467,2.795-6.662,4.49c-0.838-1.578-2.06-2.975-3.111-4.419c-1.175-1.613-2.354-3.252-3.471-4.927
		C120.976,58.897,121.191,58.638,121.415,58.387z M119.052,61.106c0.907,1.473,1.855,2.924,2.791,4.361
		c1.048,1.613,2.022,3.392,3.355,4.787c-2,1.676-3.956,3.442-5.767,5.336c-0.048-0.091-0.096-0.192-0.146-0.25
		c-0.864-0.998-1.61-2.051-2.339-3.151c-1.104-1.666-2.087-3.413-3.022-5.184C115.629,65.036,117.341,63.071,119.052,61.106z
		 M111.851,69.391c0.954,2.296,1.993,4.556,3.219,6.719c0.485,0.855,1.072,1.699,1.786,2.341c-1.782,2.097-3.41,4.257-4.771,6.442
		c-0.095-0.199-0.185-0.372-0.246-0.461c-0.801-1.159-1.5-2.382-2.19-3.608c-1.021-1.809-1.998-3.665-2.913-5.548
		C108.433,73.307,110.151,71.36,111.851,69.391z M104.643,77.683c1.005,2.53,2.092,5.03,3.206,7.499
		c0.512,1.135,1.141,2.523,2.403,2.971c-1.341,2.673-2.313,5.332-2.682,7.871c-2.756-4.305-5.248-8.764-7.187-13.442
		C101.8,80.943,103.229,79.323,104.643,77.683z M81.743,153.619c-7.65,3.917-15.279,7.935-23.1,11.516
		c1.141-13.742,2.463-27.485,3.186-41.25c7.079,5.812,14.007,11.809,21.188,17.5c2.809,2.226,5.805,4.677,8.984,6.791
		C88.426,149.787,84.976,151.963,81.743,153.619z M105.553,146.324c-6.133-4.851-13.62-8.352-19.956-13.065
		c-6.346-4.722-12.452-9.69-18.927-14.203c2.983-2.8,5.786-5.78,8.646-8.703c11.05,9.479,23.032,18.007,35.39,25.617
		c0.986,0.606,1.952,0.672,2.789,0.396C110.812,139.659,108.145,142.961,105.553,146.324z M116.02,133.26
		c0.217-1.295-0.204-2.679-1.658-3.546c-12.133-7.239-23.851-15.046-35.643-22.787c2.932-3.081,5.783-6.242,8.631-9.407
		c2.025,4.651,4.355,9.234,6.661,13.721c1.371,2.667,3.511,8.092,7.314,7.831c1.466-0.101,2.455-2.342,0.83-3.064
		c-0.911-0.405-2.09-2.571-2.664-3.362c-1.436-1.975-2.684-4.094-3.941-6.185c-2.138-3.558-4.06-7.399-6.511-10.782
		c1.413-1.584,2.779-3.213,4.18-4.811c4.54,9.309,9.546,18.513,14.788,27.416c1.7,2.889,5.297,10.721,9.658,13.042
		C117.122,131.978,116.559,132.608,116.02,133.26z M120.646,127.825c-1.696-1.341-4.16-5.229-4.918-6.229
		c-2.878-3.798-5.476-7.823-8.086-11.808c-4.458-6.8-8.416-13.921-12.85-20.73c1.215-1.394,2.416-2.8,3.626-4.198
		c2.189,7.045,6.443,13.725,10.06,19.949c2.257,3.884,4.701,7.658,6.946,11.549c1.166,2.02,2.276,4.53,4.491,5.63
		c1.464,0.728,2.901-0.184,3.059-1.755c0.267-2.653-1.876-5.837-4.202-8.733c1.717,0.287,3.465,0.188,5.211-0.16
		c0.681,1.05,1.342,2.111,2.028,3.158c0.777,1.188,1.586,2.786,2.541,4.207C125.924,121.751,123.241,124.749,120.646,127.825z
		 M131.288,115.545c-0.472-0.573-0.946-1.134-1.372-1.684c-0.895-1.155-1.768-2.326-2.66-3.481c2.812-1.082,5.564-2.771,8.126-4.717
		c0.443,0.624,0.887,1.249,1.332,1.873c0.232,0.327,0.545,0.541,0.846,0.774C135.474,110.727,133.379,113.134,131.288,115.545z
		 M140.021,105.47c-0.467-0.733-1.059-1.403-1.646-2.105c-0.024-0.03-0.052-0.062-0.076-0.093c1.396-1.228,2.667-2.499,3.866-3.747
		c0.621,0.565,1.329,0.922,2.14,1.004C142.873,102.169,141.448,103.821,140.021,105.47z M146.011,98.549
		c-0.111-0.234-0.282-0.437-0.539-0.549c-0.379-0.166-0.751-0.525-1.096-0.918c0.61-0.7,1.304-1.444,1.815-2.082
		c1.04-1.296,2.075-2.724,3.067-4.228c0.599,0.647,1.294,1.141,2.242,1.336C149.677,94.267,147.854,96.437,146.011,98.549z
		 M153.028,90.316c-0.289-1.15-0.976-1.776-1.878-2.631c2.418-4.297,4.209-9.07,4.456-13.721c1.41,2.432,3.045,4.542,5.047,5.81
		c0.308,0.195,0.646,0.259,0.976,0.241C158.761,83.457,155.894,86.906,153.028,90.316z M155.02,60.493
		c-4.141-7.91-8.02-15.946-12.042-23.911c0.58-0.567,1.144-1.152,1.73-1.71c0.028,0.053,0.007,0.11,0.039,0.163
		c1.654,2.631,4.296,4.985,7.18,7.161c-0.333,0.359-0.507,0.84-0.289,1.39c2.24,5.669,4.943,11.089,7.652,16.546
		c2.219,4.468,4.463,9.597,7.604,13.644c-1.173,1.386-2.355,2.76-3.521,4.153C163.095,72.031,157.694,65.605,155.02,60.493z
		 M170.36,69.686c-2.257-3.98-5.231-7.77-7.548-11.611c-2.545-4.223-4.787-8.632-6.956-13.065c2.311,1.574,4.587,3.063,6.487,4.49
		c3.209,2.411,10.164,9.054,15.904,11.292C175.573,63.699,172.952,66.675,170.36,69.686z M183.546,55.188
		c-1.295-1.19-2.994-2.023-4.533-2.956c-3.967-2.409-7.802-5.039-11.627-7.659c-5.76-3.943-12.606-10.651-19.397-12.828
		c3.141-2.986,6.278-5.979,9.385-9.017c5.137,4.64,10.926,8.65,16.329,12.915c4.532,3.577,12.56,8.523,15.751,13.751
		C187.448,51.273,185.481,53.209,183.546,55.188z"/>
</g>
<g>
</g>
<g>
</g>
<g>
</g>
<g>
</g>
<g>
</g>
<g>
</g>
<g>
</g>
<g>
</g>
<g>
</g>
<g>
</g>
<g>
</g>
<g>
</g>
<g>
</g>
<g>
</g>
<g>
</g>
</svg>
