<?xml version="1.0" encoding="iso-8859-1"?>
<!-- Generator: Adobe Illustrator 16.0.0, SVG Export Plug-In . SVG Version: 6.00 Build 0)  -->
<!DOCTYPE svg PUBLIC "-//W3C//DTD SVG 1.1//EN" "http://www.w3.org/Graphics/SVG/1.1/DTD/svg11.dtd">
<svg version="1.1" id="Capa_1" xmlns="http://www.w3.org/2000/svg" xmlns:xlink="http://www.w3.org/1999/xlink" x="0px" y="0px"
	 width="195.849px" height="195.849px" viewBox="0 0 195.849 195.849" style="enable-background:new 0 0 195.849 195.849;"
	 xml:space="preserve">
<g>
	<g>
		<path d="M112.918,118.262c1.826-1.891,3.146-4.269,3.65-7.094c7.212,3.82,14.414-0.128,16.9-8.871
			c8.474,6.546,18.939,4.06,22.044-6.422c9.941,6.567,20.368-3.484,20.658-13.336c5.354,0.621,10.817-1.173,14.977-5.696
			c6.741-7.333,6.025-18.567-0.818-25.359c0.473-1.441,0.874-2.895,1.13-4.37c4.866-28.112-51.229-12.355-64.876-7.375
			c-0.049-0.399-0.157-0.807-0.351-1.213c-5.932-12.418-25.441-20.633-38.521-21.055c-12.836-0.414-16.505,9.96-16.8,20.512
			c-10.46-8.067-23.11-10.052-36.274-1.824C20.713,44.863,18.031,61.828,23.064,76.01c-9.926,0.906-18.51,12.279-17.343,21.871
			c1.168,9.604,9.4,16.71,18.592,18.36c-17.72,8.271-34.483,28.173-16.784,45.872c10.81,10.81,31.669,9.42,45.445,11.168
			c32.306,4.098,64.768-0.285,97.108,4.723c14.89,2.307,55.892-5.424,39.602-30.559
			C173.644,122.699,143.018,117.795,112.918,118.262z M120.961,104.241c2.302-0.936,4.593-1.896,6.88-2.864
			C127.107,104.673,124.788,105.589,120.961,104.241z M139.879,96.026c3.03-1.429,6.041-2.903,9.017-4.459
			c0.304-0.159,0.625-0.341,0.934-0.505C149.98,96.767,146.654,98.41,139.879,96.026z M156.234,87.402
			c3.828-2.329,7.79-5.011,11.636-7.986c0.177,0.119,0.342,0.271,0.522,0.383C171.659,87.522,161.771,94.688,156.234,87.402z
			 M186.062,71.729c-2.629,4.146-6.851,5.314-11.103,4.814c-0.339-0.691-0.741-1.365-1.229-2.005
			c5.014-4.502,9.474-9.517,12.738-14.872C188.602,63.335,188.782,67.434,186.062,71.729z M158.678,169.769
			c-6.819-0.773-13.602-1.791-20.346-3.055c-20.534-3.587-42.269-1.406-63.03-1.595c-11.264-0.103-22.336-1.232-33.493-2.655
			c-6.393-0.44-12.732-1.306-19.018-2.593c-6.866-24.388-2.229-37.27,13.909-38.644c5.521-1.144,3.162-9.473-2.318-8.408
			c-0.015,0.003-0.031,0.008-0.045,0.011c-0.27-0.53-0.668-0.989-1.315-1.173c-8.016-2.271-16.297-4.835-18.719-13.84
			c-2.326-8.648,6.362-11.086,12.453-14.363c2.372,2.332,7.423,0.122,5.984-3.426C20.769,50.514,51.08,24.375,73.096,52.832
			c3.061,3.957,8.223-0.498,7.529-4.383c-6.968-39.035,25.588-13.18,40.943-5.26c0.223,0.115,0.439,0.154,0.66,0.223
			c-1.126,3.445,1.284,7.872,5.479,6.197c11.531-4.606,23.486-7.701,35.866-8.861c4.803-0.45,9.63-0.243,14.324,0.856
			c12.204,2.858-8.188,22.138-11.021,24.994C139.771,93.945,98.377,98.577,66.57,118.512c-1.582,0.992-2.014,2.46-1.721,3.786
			c-2.128,1.773-1.517,5.765,2.031,5.969c20.034,1.154,40.075-0.188,60.132,0.467c16.489,0.538,33.476,3.019,47.002,13.511
			C177.412,163.254,172.3,172.429,158.678,169.769z M110.442,108.432c0.711,8.696-10.239,12.77-15.442,6.056
			C100.143,112.455,105.294,110.448,110.442,108.432z M92.711,119.231c-3.986,0.297-7.917,0.624-11.715,0.964
			c3.327-1.416,6.675-2.781,10.032-4.128C91.424,117.301,92.012,118.33,92.711,119.231z"/>
		<path d="M150.37,57.481c-0.087-6.635-10.202-6.635-10.29,0c-0.007,0.522-0.013,1.045-0.021,1.567
			c-0.089,6.663,10.419,6.663,10.33,0L150.37,57.481z"/>
		<path d="M173.948,49.128c-0.519-0.527-1.035-1.054-1.552-1.582c-0.379-0.386-0.795-0.574-1.202-0.808
			c-0.409-0.873-1.207-1.551-2.465-1.551c-1.382,0-2.245,0.796-2.604,1.796c-2.481,1.664-3.812,5.201-1.063,7.898
			c0.526,0.517,1.054,1.035,1.581,1.552C171.402,61.104,178.618,53.886,173.948,49.128z"/>
		<path d="M66.421,67.511c-1.853-4.635-6.607-8.659-11.696-10.279c-0.745-0.855-1.927-1.265-3.125-0.637
			c-0.616-0.068-1.233-0.141-1.84-0.125c-3.904,0.103-6.788,2.746-7.161,6.62c-0.212,2.2,0.385,4.426,1.317,6.561
			c-0.618,4.565,0.498,9.035,4.668,11.311C56.319,85.183,70.152,76.849,66.421,67.511z"/>
		<path d="M109.063,51.416c-0.396-2.864-2.81-4.967-5.62-6.562c-0.737-1.327-1.879-2.359-3.262-3.161
			c0.043-0.074,0.079-0.154,0.123-0.228c1.378-2.321-1.973-5.044-3.797-2.93c-0.345,0.401-0.683,0.819-1.02,1.236
			c-1.496-0.453-2.969-0.823-4.218-1.178c-2.086-0.593-4.233,1.061-4.225,3.219c0.012,3.321-0.168,6.742,1.691,9.648
			c0.601,0.939,3.039,2.975,3.194,3.875c0.157,0.915,0.89,1.624,1.765,2.054c0.856,1.668,3.121,2.413,4.705,1.359
			c1.094,0.203,2.188,0.295,3.206,0.202C105.745,58.571,109.702,56.053,109.063,51.416z"/>
	</g>
</g>
<g>
</g>
<g>
</g>
<g>
</g>
<g>
</g>
<g>
</g>
<g>
</g>
<g>
</g>
<g>
</g>
<g>
</g>
<g>
</g>
<g>
</g>
<g>
</g>
<g>
</g>
<g>
</g>
<g>
</g>
</svg>
