<?xml version="1.0" encoding="iso-8859-1"?>
<!-- Generator: Adobe Illustrator 16.0.0, SVG Export Plug-In . SVG Version: 6.00 Build 0)  -->
<!DOCTYPE svg PUBLIC "-//W3C//DTD SVG 1.1//EN" "http://www.w3.org/Graphics/SVG/1.1/DTD/svg11.dtd">
<svg version="1.1" id="Capa_1" xmlns="http://www.w3.org/2000/svg" xmlns:xlink="http://www.w3.org/1999/xlink" x="0px" y="0px"
	 width="189.617px" height="189.617px" viewBox="0 0 189.617 189.617" style="enable-background:new 0 0 189.617 189.617;"
	 xml:space="preserve">
<g>
	<g>
		<path d="M97.074,52.548c0.234-0.365,0.418-0.787,0.456-1.328c0.11-1.551,0.147-3.934-0.461-5.529
			c-0.012-0.039-0.025-0.076-0.04-0.114c-0.057-0.138-0.085-0.31-0.153-0.434c-0.004-0.009-0.011-0.012-0.015-0.019
			c1.348-0.849,2.095-2.429,0.948-4.19c-3.792-5.822-10.563-10.082-15.799-14.589c-5.652-4.862-11.388-11.052-17.792-14.896
			C61.69,9.931,57.687,4.21,53.937,1.73c-1.453-1.88-4.448-2.484-6.313-0.512C32.751,16.945,12.463,28.947,1.691,48.205
			c-0.848,1.517-0.536,2.924,0.312,3.887C0.91,60.607,0.458,69.106,0.446,77.73c-0.007,6.143-1.265,16.428,3.626,21.253
			c-0.705,1.354-0.318,3.339,1.493,3.756c9.488,2.187,18.762,5.266,28.133,7.891c5.851,1.639,13.937,4.209,19.966,1.812
			c0.705,0.521,1.654,0.718,2.56,0.217c10.202-5.634,36.515-8.316,40.412-21.566c2.176-7.392,1.531-15.373,1.14-22.966
			C97.535,63.474,98.144,57.428,97.074,52.548z M10.797,48.941c0.357-0.092,0.355-0.472,0.169-0.686
			c10.866-12.312,23.801-22.441,35.538-33.878c0.101,9.234,0.267,18.467,0.696,27.694c0.131,2.822-0.14,8.539,1.087,12.881
			c-12.033-3.287-25.392-4.311-37.626-5.879C10.707,49.03,10.752,48.986,10.797,48.941z M53.923,105.997
			c-7.197-2.429-15.676-2.655-23.158-4.246c-7.21-1.533-14.395-3.247-21.743-3.834c1.866-6.604-0.609-15.921-0.67-22.785
			c-0.061-6.963-0.062-13.864-0.641-20.766c14.542,3.854,30.465,8.84,45.492,9.545c-0.027,5.133,0.848,10.484,0.768,15.555
			C53.832,88.316,53.577,97.152,53.923,105.997z M89.646,84.055c-0.702,10.487-19.098,15.367-30.364,21.095
			c0.686-8.564,1.758-17.099,2.185-25.683c0.258-5.18,1.132-12.46-0.827-17.83c5.88-1.105,11.719-2.821,17.299-4.666
			c2.909-0.961,7.815-2.146,11.356-4.255c-0.524,2.418-0.181,5.112-0.088,7.629C89.501,68.262,90.174,76.132,89.646,84.055z
			 M73.71,50.073c-5.695,2.262-11.515,4.288-17.208,6.575c-0.114-0.542-0.335-1.062-0.737-1.472c1.484,1.508,0.032-5.016-0.139-7.04
			c-0.429-5.083-0.56-10.196-0.682-15.294c-0.162-6.763-0.181-13.528-0.171-20.295c1.826,1.788,3.601,3.321,4.627,4.184
			c5.816,4.888,11.342,10.152,17.044,15.179c4.316,3.804,8.822,8.916,13.923,12.049C85.381,43.199,77.949,48.391,73.71,50.073z"/>
		<path d="M188.94,140.866c-0.085-1.139-0.543-1.985-1.165-2.601c0.307-0.953,0.231-2.046-0.545-3.173
			c-6.243-9.056-14.683-16.332-22.396-24.107c1.41-1.63,0.665-4.834-1.914-4.588c-12.524,1.194-25.159,6.251-37.429,9.168
			c-14.819,3.523-29.867,6.198-44.535,10.332c-0.911,0.257-1.361,0.971-1.575,1.75c-0.1,0.102-0.202,0.202-0.26,0.344
			c0.073-0.141,0.149-0.404-0.605,0.35c-0.606,0.606-0.875,1.407-1.133,2.198c-0.841,2.578-1.371,5.273-1.878,7.933
			c-0.985,5.166-2.776,11.896-2.189,17.165c0.143,1.283,0.844,2.266,1.743,2.936c-0.165,0.408-0.222,0.875-0.043,1.409
			c2.165,6.434,6.529,11.442,11.357,16.087c4.132,3.975,11.417,11.504,17.427,11.556c0.617,0.005,1.139-0.145,1.566-0.397
			c10.616,4.687,24.046,1.427,34.853-0.846c15.094-3.171,32.236-7.793,45.204-16.515c0.237-0.16,0.368-0.357,0.554-0.536
			c1.583,0.372,3.413-0.497,3.342-2.56C189.016,158.178,189.575,149.426,188.94,140.866z M103.137,172.22
			c-0.11,2.332-0.398,4.565-0.016,6.725c-3.08-2.51-7.292-4.572-9.914-6.411c-5.297-3.717-10.144-8.223-13.64-13.698
			c0.635-0.456,1.166-1.136,1.433-2.158c1.315-5.036,1.026-10.887,1.451-16.058c0.053-0.65,0.047-1.301,0.072-1.952
			c0.663,1.496,1.36,2.899,1.923,3.951c3.688,6.892,9.038,13.188,14.397,18.84c1.385,1.459,3.075,1.441,4.413,0.689
			C103.267,165.505,103.297,168.863,103.137,172.22z M104.586,156.168c-0.072-0.09-0.091-0.188-0.175-0.276
			c-4.661-4.875-8.681-10.18-12.546-15.695c-2.122-3.029-3.665-6.585-5.56-9.827c12.136-1.289,24.153-3.659,36.063-6.265
			c12.335-2.699,27.267-4.788,38.76-10.861c4.017,8.71,11.034,15.639,16.803,23.256c-12.712,4.112-25.035,9.38-37.697,13.649
			c-6.565,2.214-13.265,3.928-20.061,5.257c-4.493,0.879-9.663-0.863-13.772,0.96C105.866,155.96,105.216,155.896,104.586,156.168z
			 M108.919,182.19c0.185-0.183,0.429-0.281,0.562-0.525c1.785-3.255,0.901-6.887,0.472-10.461c-0.35-2.921-0.681-5.944-1.308-8.876
			c13.737,7.901,62.807-15.207,71.562-18.423c0.411-0.151,0.649-0.428,0.953-0.659c-0.284,6.505,0.168,13.699,1.695,20.148
			c-0.347,0.062-0.691,0.108-1.056,0.278C162.452,172.709,131.972,185.514,108.919,182.19z"/>
	</g>
</g>
<g>
</g>
<g>
</g>
<g>
</g>
<g>
</g>
<g>
</g>
<g>
</g>
<g>
</g>
<g>
</g>
<g>
</g>
<g>
</g>
<g>
</g>
<g>
</g>
<g>
</g>
<g>
</g>
<g>
</g>
</svg>
