<?xml version='1.0' encoding='iso-8859-1'?>
<!DOCTYPE svg PUBLIC '-//W3C//DTD SVG 1.1//EN' 'http://www.w3.org/Graphics/SVG/1.1/DTD/svg11.dtd'>
<svg version="1.1" xmlns="http://www.w3.org/2000/svg" viewBox="0 0 404.907 404.907" xmlns:xlink="http://www.w3.org/1999/xlink" enable-background="new 0 0 404.907 404.907">
  <g>
    <path d="m244.157,60.111c26.826,2.369 38.774,17.94 42.184,44.831 0.519,0.444 0.986,1.179 1.568,1.287 19.989,3.707 29.135,17.136 32.238,35.941 0.528,3.2 0.55,6.482 1.026,9.693 0.533,3.6 1.528,6.657 5.432,8.567 12.872,6.298 18.105,21.283 13.955,37.431-1.237,4.813-2.819,9.188-1.808,14.665 1.116,6.053-3.335,11.525-8.436,14.124-8.306,4.23-9.936,10.814-11.016,19.145-3.615,27.9-8.101,55.685-12.056,83.542-1.165,8.209-1.009,16.647-2.678,24.729-1.659,8.031-4.325,15.969-7.518,23.539-3.442,8.16-11.122,12.024-18.823,15.422-18.118,7.993-37.201,11.684-56.895,11.849-21.141,0.177-42.353-0.265-63.053-4.933-10.454-2.357-20.446-6.765-30.637-10.274-0.671-0.231-1.216-0.88-1.889-1.04-13.67-3.24-16.752-13.855-18.685-25.806-3.285-20.306-6.978-40.55-10.788-60.766-4.1-21.749-8.461-43.45-12.927-65.127-0.451-2.19-1.919-4.903-3.738-5.969-24.334-14.258-20.283-53.428 0.963-69.014 3.483-2.555 6.985-5.086 10.888-7.926 0.11-1.053 0.555-2.488 0.357-3.829-3.487-23.653 6.786-41.143 24.615-55.285 14.575-2.879 19.809-16.52 29.89-25.968-2.159-3.385-4.685-6.809-6.642-10.531-3.686-7.011-7.817-13.928-10.376-21.362-5.267-15.301 2.927-30.298 18.598-34.578 17.11-4.673 33.097-3.792 44.892,12.194 8.294-6.586 16.487-11.496 26.435-13.269 18.363-3.274 32.274,8.355 31.087,27.269-0.516,8.21-2.912,16.305-4.499,24.443-0.411,2.106-0.987,4.179-1.664,7.006zm-88.326,271.258c-2.08,3.709-3.884,7.612-6.314,11.076-2.676,3.816-5.933,7.223-8.924,10.819-2.976,3.579-2.935,6.821 1.189,10.139 5.259-6.369 10.436-12.321 15.241-18.559 3.689-4.789 3.233-8.41-0.946-13.918 4.286-5.194 1.211-10.634 0.6-16.309-6.113,6.184-11.221,12.882-16.797,19.166-4.182,4.712-5.46,9.447-2.546,15.68 6.435-6.294 12.466-12.194 18.497-18.094zm79.414-242.251c2.19,2.606 4.671,4.823 6.13,7.582 0.813,1.536 0.65,4.598-0.406,5.827-1.043,1.214-3.838,1.5-5.728,1.231-1.617-0.23-3.104-1.738-4.538-2.826-7.239-5.493-15.554-8.064-24.419-7.194-12.166,1.194-24.243,3.306-36.352,5.067-2.84,0.413-5.654,0.999-8.48,1.505-0.516-0.999-1.032-1.998-1.548-2.998 2.633-1.661 5.266-3.323 8.393-5.296-6.385-6.03-12.041-11.371-18.84-17.791-4.36,6.249-7.918,11.548-11.701,16.681-1.801,2.443-3.594,5.652-6.131,6.672-20.156,8.105-30.593,24.165-28.798,45.553 0.33,3.931 1.875,7.781 2.023,11.701 0.111,2.933-0.341,6.428-1.888,8.792-8.293,12.673-17.038,25.05-25.562,37.574-3.222,4.733-1.545,8.459 2.547,12.345 8.053-12.792 15.199-25.253 24.671-36.123-1.243,4.22-3.233,7.955-5.376,11.599-4.765,8.102-9.585,16.172-14.425,24.23-3.027,5.041-1.083,8.004 4.169,10.053 3.287-4.844 6.396-9.694 9.781-14.342 3.478-4.776 7.224-9.356 10.853-14.022 0.554,0.402 1.109,0.804 1.664,1.207-6.42,10.153-12.841,20.306-19.848,31.386 4.203,1.774 7.324,3.091 10.187,4.299 8.707-11.188 16.808-21.597 24.909-32.006 0.673,0.472 1.346,0.944 2.019,1.416-3.458,5.213-6.932,10.417-10.372,15.642-3.637,5.523-7.242,11.067-11.173,17.079 7.645,2.689 8.386-3.256 10.986-5.997 2.973-3.135 5.312-6.863 8.156-10.133 2.558-2.94 5.428-5.61 8.161-8.398 0.469,0.489 0.938,0.979 1.406,1.468-6.308,8.646-12.617,17.291-19.523,26.756 3.746,1.103 6.352,1.87 9.183,2.703 2.516-3.569 4.71-6.851 7.081-10 2.392-3.177 4.882-6.288 7.471-9.306 2.277-2.654 4.751-5.14 7.138-7.701 0.512,0.511 1.024,1.023 1.537,1.534-5.516,8.393-11.032,16.785-16.548,25.178 0.799,0.602 1.599,1.205 2.398,1.807 6.808-8.354 13.616-16.708 20.424-25.063 0.565,0.421 1.131,0.843 1.696,1.264-5.229,7.614-10.459,15.228-16.27,23.69 3.285,0.415 4.685,0.782 6.071,0.737 14.705-0.48 28.571,2.896 42.326,7.933 6.646,2.434 14.07,3.587 21.18,3.756 23.065,0.548 43.717-8.316 64.261-17.513 7.19-3.219 14.845-5.386 22.22-8.211 7.042-2.697 14.112-5.379 20.927-8.582 2.401-1.128 5.12-3.433 5.912-5.798 2.739-8.175 5.41-16.5 6.74-24.982 1.284-8.191-0.743-18.034-8.632-20.426-10.41-3.157-10.694-9.826-11.952-17.814-1.167-7.41-2.739-14.95-5.55-21.856-3.049-7.492-9.255-11.762-17.955-11.494-11.128,0.343-11.13,0.246-11.307-11.168-0.028-1.809 0.054-3.628-0.111-5.425-1.919-20.833-11.731-30.662-32.597-32.178-2.157,6.669-4.359,13.479-6.59,20.376zm-85.761-30.497c6.407-9.062 12.303-17.401 18.198-25.74 0.49,3.454-0.685,5.855-2.064,8.131-3.553,5.866-7.095,11.743-10.833,17.491-3.172,4.878-1.298,7.92 3.317,10.803 3.585-4.939 6.778-9.699 10.351-14.155 3.397-4.237 6.346-9.101 11.901-11.088-2.987,5.471-6.89,10.176-10.039,15.341-3.097,5.081-8.885,9.117-7.656,18.623 4.705-5.464 8.029-9.56 11.611-13.415 3.33-3.584 6.061-8.048 11.865-8.663-6.266,7.837-12.533,15.673-19.324,24.166 3.132,3.437 5.905,6.478 8.677,9.52 0.24-0.782 0.48-1.564 0.719-2.346 16.03-1.078 32.06-2.155 48.461-3.258 4.479-15.517 9.274-31.396 13.557-47.411 1.28-4.787 1.802-10 1.481-14.941-0.546-8.393-5.909-12.72-14.413-12.777-11.842-0.079-20.393,5.874-24.596,17.123-2.775,7.427-7.623,8.377-12.495,2.19-2.669-3.39-4.452-7.491-7.205-10.797-2.458-2.952-5.331-6.727-8.664-7.557-9.178-2.285-18.943-2.909-27.138,2.868-3.83,2.7-7.328,7.257-8.668,11.672-1.121,3.694-3.446,10.138 4.167,11.845 0.362,0.081 0.854,1.247 0.7,1.718-2.929,8.992 5.056,13.341 8.09,20.657zm80.379,207.16c-11.64,0-22.269,0-32.301,0 0.528,21.433 1.243,42.31 1.501,63.193 0.257,20.784 0.056,41.572 0.056,63.361 10.607,0 19.755,0 28.345,0 0.799-42.132 1.59-83.873 2.399-126.554zm-70.169-13.471c4.476,47.898 5.412,93.193 12.008,138.274 6.637,0.607 12.219,1.118 19.136,1.751-1.199-43.615 4.352-86.019 0.63-129.037-9.927-3.434-19.718-6.819-31.774-10.988zm92.187,136.544c3.835-44.935 7.574-88.743 11.389-133.449-9.249,2.871-18.039,5.6-27.309,8.478 0.408,42.542-1.322,84.717 0.916,127.574 3.508-0.222 5.639-0.146 7.68-0.539 2.455-0.473 4.835-1.344 7.324-2.064zm9.299-3.774c14.67-2.674 14.785-2.872 15.616-14.562 0.536-7.544 1.268-15.076 2.016-22.603 2.779-27.936 5.65-55.863 8.367-83.804 0.61-6.271 0.738-12.589 1.168-20.348-7.684,3.648-13.757,6.533-19.865,9.432-2.426,43.823-4.833,87.295-7.302,131.885zm-126.451-121.952c-3.337,8.988-12.608,16.163-5.211,27.702 5.369-5.767 10.585-11.37 15.802-16.973 0.591,0.459 1.181,0.917 1.772,1.376-4.364,5.869-8.376,12.047-13.189,17.522-5.017,5.708-5.682,11.275-1.166,18.725 7.256-8.564 14.262-16.711 21.08-25.012 1.053-1.281 1.837-3.308 1.734-4.927-0.603-9.552 0.591-19.371-3.591-29.461-6.222,0-12.33-0.299-18.381,0.161-2.134,0.162-4.555,1.778-6.101,3.427-4.219,4.5-2.61,9.384-0.811,15.012 3.232-3.026 5.647-5.289 8.062-7.552zm159.968-21.535c-3.956,15.27-10.099,118.756-7.582,127.341 0.938-1.38 2.268-2.462 2.422-3.692 5.274-42.097 9.61-84.335 21.046-126.988-6.395,1.344-10.844,2.279-15.886,3.339zm-131.254,146.537c-1.166-13.067-2.295-25.72-3.644-40.837-4.271,5.43-6.583,9.061-9.561,12.022-7.523,7.479-9.381,15.773-4.306,25.962 5.1,1.838 10.44,5 17.511,2.853zm-37.14-42.561c3.479-5.422 3.862-11.102 0.933-18.136-7.248,7.087-13.052,13.201-9.4,23.626 1.645,4.695 2.149,9.802 3.034,14.746 1.411,7.887 6.382,12.293 14.726,15.348-0.805-6.188-1.475-11.329-2.249-17.283-3.265,2.412-5.149,3.805-8.771,6.482 3.196-9.346 13.474-16.598 1.727-24.783zm9.101-13.347c5.728-6.595 10.33-12.94 15.984-18.141 7.17-6.596 6.674-13.859 4.436-23.803-6.684,8.299-11.948,15.488-17.91,22.042-5.235,5.756-5.822,11.635-2.51,19.902zm-41.071-93.807c-0.618,0.529-1.237,1.057-1.855,1.586 2.219,8.542 4.439,17.084 7.183,27.644 5.171-7.833 8.903-13.484 13.154-19.924-6.541-3.293-12.512-6.299-18.482-9.306zm21.813,8.684c-5.027,9.042-9.13,16.469-13.282,23.87-2.185,3.896-1.201,7.202 1.682,10.945 3.27-4.554 5.869-8.892 9.169-12.608 5.327-6.002 6.48-12.415 2.431-22.207zm4.863,39.583c-13.723,13.319-14.979,16.982-9.584,26.594 15.054-17.219 12.335-14.299 9.584-26.594zm-6.238,45.209c12.905-11.54 13.322-12.709 8.615-24.156-11.871,10.837-12.712,13.194-8.615,24.156zm4.173-64.659c-5.326,10.38-15.424,15.972-12.203,28.143 5.62-7.805 16.555-12.982 12.203-28.143zm-22.55-99.948c-12.373,4.6-19.164,13.381-19.165,26.843 6.388-8.947 12.777-17.895 19.165-26.843z"/>
    <path d="m155.613,152.128c-12.128,0.299-16.678-6.249-13.443-14.924 3.851-10.326 12.344-14.555 21.113-10.513 7.828,3.609 10.012,11.433 4.02,17.518-3.826,3.887-9.177,6.272-11.69,7.919z"/>
    <path d="m209.801,123.361c6.7,0.235 13.708,6.034 13.879,11.483 0.18,5.729-6.946,12.256-13.072,11.975-6.909-0.318-12.792-5.968-12.83-12.321-0.038-6.486 5.239-11.375 12.023-11.137z"/>
    <path d="m193.96,167.288c-0.852,6.991-7.102,11.991-13.609,10.888-5.034-0.853-8.174-4.393-7.787-8.778 0.509-5.758 8.823-13.796 13.695-13.238 5.126,0.586 8.408,5.328 7.701,11.128z"/>
    <path d="m245.378,149.401c5.312-0.165 9.783,3.904 10.025,9.121 0.249,5.363-4.638,10.473-10.084,10.544-5.132,0.067-8.93-3.514-9.139-8.617-0.257-6.269 3.577-10.874 9.198-11.048z"/>
    <path d="m147.841,179.821c4.768-0.149 8.773,3.141 8.967,7.365 0.255,5.543-4.462,10.773-9.708,10.766-4.309-0.006-7.853-2.996-8.168-6.89-0.488-6.029 3.51-11.073 8.909-11.241z"/>
    <path d="m221.653,180.609c3.663,0.232 6.925,1.958 7.579,6.602 0.565,4.014-3.7,8.203-7.994,8.159-3.844-0.039-7.39-3.568-7.511-7.474-0.135-4.387 2.679-7.209 7.926-7.287z"/>
    <path d="m258.339,118.868c0.15,4.081-3.228,7.309-7.633,7.229-4.073-0.074-6.962-1.993-7.834-6.015-0.76-3.503 3.83-8.312 7.986-8.78 3.639-0.409 7.325,3.318 7.481,7.566z"/>
    <path d="m168.526,217.559c-4.449,6.322-8.898,12.644-13.347,18.965-0.632-0.446-1.264-0.891-1.896-1.337 2.664-7.582 8.04-13.249 15.243-17.628z"/>
    <path d="m198.826,58.939c-5.677,7.758-11.355,15.515-17.032,23.273-0.646-0.46-1.292-0.921-1.938-1.381 3.476-9.248 9.928-16.439 17.091-23.138 0.627,0.415 1.253,0.831 1.879,1.246z"/>
  </g>
</svg>
