<?xml version="1.0" encoding="iso-8859-1"?>
<!-- Generator: Adobe Illustrator 16.0.0, SVG Export Plug-In . SVG Version: 6.00 Build 0)  -->
<!DOCTYPE svg PUBLIC "-//W3C//DTD SVG 1.1//EN" "http://www.w3.org/Graphics/SVG/1.1/DTD/svg11.dtd">
<svg version="1.1" id="Capa_1" xmlns="http://www.w3.org/2000/svg" xmlns:xlink="http://www.w3.org/1999/xlink" x="0px" y="0px"
	 width="196.581px" height="196.581px" viewBox="0 0 196.581 196.581" style="enable-background:new 0 0 196.581 196.581;"
	 xml:space="preserve">
<g>
	<path d="M193.489,50.122c-7.305-2.301-21.825-5.966-28.659-1.454c-1.923,1.271-1.907,3.868,0,5.142
		c5.223,3.488,13.334,2.695,20.429,3.286c-7.528,10.731-15.902,20.688-24.912,30.265c-7.809,8.3-26.092,1.414-38.294-1.414
		c4.084-2.703,7.916-6.406,10.424-8.508c11.386-9.544,21.544-20.44,32.536-30.412c2.592-2.352,1.09-5.631-1.386-6.78
		c-2.152-10.771-3.731-21.481-4.98-32.424c-0.375-3.287-3.987-5.264-6.646-2.753c-12.106,11.438-27.025,20.753-37.198,34.095
		c-10.614,13.922-7.918,30-3.504,45.822c-0.458,0.541-0.935,1.073-1.215,1.702c-0.16,0.36-0.181,0.797-0.075,1.195
		c-0.287,0.455-0.548,0.881-0.749,1.218c-0.039,0.067-0.038,0.136-0.07,0.204c-0.512-0.381-0.928-0.798-1.49-1.16
		C66.024,61.408,4.41,137.078,24.517,166.489c-7.575,6.636-15.183,13.185-23.136,19.376c-3.796,2.955,1.03,8.337,4.903,6.354
		c8.307-4.251,16.029-9.839,22.541-16.539c1.222-1.257,1.353-2.697,0.924-3.949c2.509,1.789,5.52,3.26,9.2,4.263
		c15.756,14.761,47.034-14.957,56.672-25.045c5.721-5.988,13.172-15.604,17.92-25.835c0.483-0.069,0.997-0.066,1.453-0.2
		c2.323-0.686,2.816-3.859,0.749-5.161c3.519-9.933,3.726-19.92-3.12-27.395c0.141-0.107,0.29-0.186,0.416-0.344
		c0.374-0.47,0.811-0.876,1.215-1.313c0.733,0.558,1.735,0.747,2.64,0.242c0.364-0.203,0.703-0.48,1.029-0.778
		c12.415,3.759,24.877,7.228,37.187,11.354c1.375,0.461,3.007-0.066,4.006-1.059c13.684-13.597,26.251-28.099,36.861-44.229
		C197.506,53.907,195.935,50.892,193.489,50.122z M126.453,38.021c7.765-8.102,16.807-14.848,25.259-22.221
		c0.885,9.196,1.809,18.797,5.285,27.088c-8.076,7.572-15.748,15.555-23.658,23.299c-4.516,4.421-9.194,8.695-14.083,12.701
		c-0.853,0.699-1.88,1.373-2.938,2.056C114.74,64.532,113.477,51.561,126.453,38.021z M42.138,169.874
		c-1.281-0.839-2.547-0.649-3.489,0.048c-8.923-5.373-11.548-14.068-10.067-23.76c4.247,5.132,9.88,9.195,15.449,12.752
		c2.01,1.575,4.181,2.891,6.477,3.97c4.014,2.306,8.984,4.741,13.199,5.396C55.378,172.324,47.62,173.464,42.138,169.874z
		 M70.208,164.614c-0.123-0.285-0.229-0.575-0.507-0.824c-1.979-1.776-4.257-2.009-6.772-2.752
		c-0.826-0.244-1.617-0.575-2.431-0.851c-0.17-0.089-0.299-0.205-0.501-0.271c-1.329-0.441-2.623-0.866-3.899-1.306
		c-1.957-0.795-3.893-1.646-5.808-2.552c-1.429-0.676-2.829-1.432-4.237-2.17c-0.705-0.465-1.422-0.878-2.111-1.426
		c-4.831-3.841-8.2-9.188-10.4-14.887c-0.408-1.06-1.429-1.395-2.297-1.215c1.836-4.618,4.47-9.276,7.594-13.787
		c0.886,10.363,6.928,18.646,14.584,25.371c5.892,5.177,16.698,11.754,25.217,10.472C75.854,160.701,73.027,162.812,70.208,164.614z
		 M82.23,155.323c-0.097-1.098-0.758-2.184-1.976-2.624c-2.947-1.068-6.122-1.136-9.169-1.928
		c-4.513-1.173-8.607-3.492-12.512-5.966c-8.273-5.238-14.793-13.343-16.568-23.088c-0.167-0.918-1.016-1.261-1.802-1.146
		c2.975-4.042,6.388-7.913,10.078-11.473c0.737,9.911,6.829,18.546,13.886,25.207c5.509,5.199,18.875,14.8,26.693,10.218
		c1.676-0.981,1.474-3.193,0-4.218c-2.792-1.938-6.274-1.773-9.508-2.717c-4.792-1.396-9.238-4.288-13.124-7.344
		c-7.488-5.89-12.346-13.838-14.444-23.056c-0.084-0.369-0.329-0.568-0.557-0.779c3.415-3.015,7.035-5.715,10.746-8.037
		c1.981,9.719,7.483,18.569,14.067,25.841c4.329,4.781,15.997,14.212,22.092,6.998c1.488-1.762,0.494-4.221-1.822-4.398
		c-3.018-0.23-5.452,0.228-8.354-1.067c-3.943-1.76-7.168-4.949-10.098-8.03c-5.548-5.836-10.478-13.319-13.028-21.045
		c4.543-2.549,9.188-4.403,13.766-5.479c-0.006,0.026-0.023,0.042-0.028,0.069c-1.664,9.454,2.202,17.428,9.231,23.666
		c3.664,3.251,10.196,7.546,16.429,9.425C101.163,135.042,92.201,146.382,82.23,155.323z M108.881,117.717
		c-0.797-0.152-1.586-0.316-2.351-0.53c-3.818-1.068-7.361-2.83-10.727-4.895c-7.336-4.501-12.207-11.771-11.521-20.53
		c0.038-0.486-0.133-0.875-0.4-1.177c7.596-1.107,14.886,0.194,21.019,5.047C111.155,100.581,111.771,108.65,108.881,117.717z"/>
</g>
<g>
</g>
<g>
</g>
<g>
</g>
<g>
</g>
<g>
</g>
<g>
</g>
<g>
</g>
<g>
</g>
<g>
</g>
<g>
</g>
<g>
</g>
<g>
</g>
<g>
</g>
<g>
</g>
<g>
</g>
</svg>
