<?xml version='1.0' encoding='iso-8859-1'?>
<!DOCTYPE svg PUBLIC '-//W3C//DTD SVG 1.1//EN' 'http://www.w3.org/Graphics/SVG/1.1/DTD/svg11.dtd'>
<svg version="1.1" xmlns="http://www.w3.org/2000/svg" viewBox="0 0 437.753 437.753" xmlns:xlink="http://www.w3.org/1999/xlink" enable-background="new 0 0 437.753 437.753">
  <g>
    <path d="m168.299,410.225c-1.5,1.633-2.074,2.745-2.971,3.163-16.036,7.465-32.104,14.862-48.188,22.223-1.633,0.747-3.376,1.339-5.13,1.718-6.193,1.34-8.8-0.397-9.741-6.604-0.322-2.127-0.092-4.334-0.18-6.503-0.085-2.118-0.254-4.233-0.471-7.707-5.678,0.701-10.865,1.413-16.069,1.967-10.383,1.106-20.803,3.224-31.157,2.959-23.373-0.599-37.501-16.617-37.406-40.056 0.1-24.473 12.175-42.592 29.862-57.722 13.264-11.347 28.001-20.444 44.409-26.674 2.974-1.129 5.844-2.53 9.038-3.927-7.273-7.908-14.318-15.158-20.899-22.807-14.92-17.341-24.736-37.571-29.805-59.616-5.323-23.15-2.769-46.21 8.044-67.542 6.01-11.857 13.653-22.942 21.211-33.927 2.493-3.624 3.736-6.42 2.544-10.76-5.888-21.447-2.59-42.207 5.229-62.557 5.236-13.627 14.383-24.082 26.13-32.474 2.987-2.133 6.367-5.053 9.608-2.178 1.936,1.718 2.703,5.689 2.612,8.603-0.57,18.244 2.447,35.986 6.888,53.548 1.049,4.15 2.661,8.158 4.165,12.686 19.633-4.182 38.244-4.011 56.591,4.19 17.553,7.847 31.387,20.243 45.707,34.276 25.224-27.497 54.951-44.597 94.327-38.844 6.225-9.171 10.835-18.072 9.359-29.978-1.18-9.514 0.021-19.388 0.794-29.052 0.391-4.885 4.394-6.911 8.652-4.129 7.512,4.907 15.929,9.54 21.315,16.377 14.323,18.183 22.234,38.748 16.497,62.586-0.751,3.118-0.888,6.384-1.235,9.021 16.884,14.787 25.999,33.258 30.159,54.241 5.497,27.726 2.079,54.516-9.056,80.552-12.943,30.264-31.82,56.586-52.318,82.011-26.189,32.483-55.734,61.657-86.719,89.452-7.542,6.766-12.035,6.755-20.309,1.215-5.382-3.604-11.335-6.421-16.443-10.355-8.255-6.356-15.841-13.575-24.035-20.015-21.305-16.745-42.789-33.261-64.196-49.875-6.28-4.874-12.403-9.967-18.889-14.548-2.077-1.467-5.704-2.981-7.582-2.142-19.717,8.807-41.343,14.002-58.083,28.543-5.569,4.838-10.486,11.076-13.887,17.617-5.56,10.695-1.977,26.002 7.574,32.203 5.207,3.381 12.033,5.617 18.217,5.831 9.275,0.321 18.64-1.476 27.94-2.601 4.456-0.539 6.64-3.388 7.701-7.844 2.425-10.184 5.431-20.227 8.049-30.367 2.51-9.723 6.577-11.398 13.921-4.5 5.475,5.143 10.506,11.065 14.496,17.419 7.681,12.233 14.507,25.003 21.622,37.588 0.861,1.521 1.314,3.276 2.108,5.315zm-99.432-257.848l-.214-.205c-1.482,3.162-2.69,6.493-4.509,9.447-2.866,4.653-4.919,9.317-3.144,16.191 5.35-7.465 10.122-14.124 14.895-20.784 0.696,0.489 1.391,0.978 2.087,1.467-4.758,7.931-9.206,16.071-14.372,23.727-4.116,6.1-5.031,12.136-2.577,20.381 7.645-10.256 14.494-19.445 21.344-28.634 0.603,0.41 1.206,0.82 1.809,1.23-1.102,2.066-2.044,4.238-3.333,6.18-5.198,7.83-10.642,15.5-15.683,23.428-1.455,2.288-3.168,5.611-2.536,7.822 3.042,10.631 6.381,21.263 13.397,30.396 8.07-11.091 15.802-21.717 23.535-32.343 0.665,0.446 1.331,0.892 1.996,1.338-7.883,11.74-15.765,23.48-23.341,34.763 6.506,12.221 10.388,16.711 18.186,21.402 8.235-12.34 16.581-24.597 27.979-34.503-8.622,13.119-17.245,26.237-26.088,39.692 3.945,3.424 6.866,5.96 9.941,8.627 8.253-12.478 16.04-24.252 23.827-36.026 0.737,0.449 1.474,0.898 2.211,1.346-7.511,12.401-15.023,24.802-22.821,37.676 4.43,3.165 7.783,5.561 11.76,8.402 5.197-12.073 9.757-23.38 18.394-32.245-5.136,11.418-10.272,22.837-15.694,34.89 6.796,5.247 12.732,9.83 18.669,14.413l-.102-.001c6.338,5.736 13.103,10.772 21.175,13.843 6.439-11.265 12.505-21.877 18.57-32.489 0.737,0.409 1.475,0.818 2.212,1.227-5.798,11.376-11.596,22.752-17.616,34.565 30.225,23.458 59.799,46.412 89.409,69.393 2.246-1.592 3.799-2.493 5.119-3.658 31.803-28.053 61.064-58.497 87.471-91.735 20.147-25.359 38.245-51.926 48.538-82.852 11.849-35.604 9.117-69.83-12.174-101.965-2.754,4.24-4.84,8.07-7.509,11.437-6.55,8.264-15.313,12.213-25.771,10.88-11.483-1.464-21.655-6.381-28.956-15.499-6.087-7.602-9.478-16.139-3.366-25.751 1.876-2.951 3.027-6.362 5.181-11.011-10.359,1.185-19.432,1.401-28.065,3.459-7.558,1.802-15.105,4.856-21.798,8.811-11.584,6.846-21.201,16.204-29.599,26.8-7.202,9.087-13.322,9.353-19.61-0.214-7.14-10.863-16.695-19.096-26.762-26.643-17.821-13.359-38.024-18.029-61.711-13.957 5.809,10.988 11.119,21.03 16.007,30.276-7.585,15.22-16.566,27.553-34.632,25.933-15.979-1.433-29.285-7.68-33.266-27.533-9.369,11.855-16.114,22.723-20.263,35.111-0.291,0.868 1.159,2.317 1.8,3.495zm55.586,202.267c-3.166,12.741-5.832,23.159-8.323,33.618-1.27,5.333-3.343,9.392-9.756,9.706-2.812,0.138-5.551,1.501-8.349,2.205-13.532,3.406-27.034,4.414-40.625,0.063-12.259-3.925-20.523-14.458-21.234-27.23-0.88-15.787 5.911-28.067 17.527-37.907 11.396-9.653 24.303-16.858 38.25-22.268 6.974-2.705 13.751-5.921 20.758-8.967-2.563-5.17-5.247-6.511-10.036-4.522-19.171,7.965-37.29,17.66-52.753,31.678-16.302,14.779-26.085,32.619-24.961,55.383 0.636,12.885 10.361,24.973 23.129,26.162 9.227,0.859 18.704-0.029 27.986-0.966 9.318-0.94 18.509-3.087 27.803-4.356 6.126-0.837 7.794,0.724 8.038,6.795 0.184,4.592 0.036,9.198 0.036,15.985 16.413-7.93 31.093-15.023 46.823-22.623-12.749-16.897-18.195-36.735-34.313-52.756zm-11.693-340.208c-4.783,5.802-9.118,9.786-11.909,14.654-17.124,29.876-20.097,60.246-2.567,91.258 7.815,13.826 28.15,16.289 38.492,4.299 4.476-5.19 5.192-9.766 1.623-15.743-8.813-14.759-14.46-30.709-17.729-47.457-2.881-14.756-5.023-29.656-7.91-47.011zm240.461,9.474c-2.287,15.451-2.645,30.408-7.038,44.066-4.54,14.116-13,26.971-19.95,40.784 3.485,10.611 12.645,15.368 23.045,18.162 11.826,3.178 20.69-2.22 23.85-14.013 1.303-4.861 2.323-9.796 3.54-14.681 5.284-21.203 3.287-41.379-8.137-60.364-3.779-6.283-8.625-10.989-15.31-13.954z"/>
    <path d="m71.601,225.94c6.997-15.027 16.359-28.663 25.982-42.144 0.61,0.365 1.22,0.731 1.831,1.096-8.515,14.132-17.029,28.264-25.544,42.396-0.756-0.449-1.512-0.899-2.269-1.348z"/>
    <path d="m144.584,310.457c-0.291-3.396-1.821-7.31-0.656-10.099 4.85-11.612 10.512-22.885 15.876-34.282 0.784,0.267 1.568,0.535 2.352,0.802-1.232,3.266-2.305,6.604-3.726,9.786-4.121,9.237-8.442,18.385-12.538,27.633-0.834,1.882-1.029,4.047-1.464,6.12 0.054,0.038 0.156,0.04 0.156,0.04z"/>
    <path d="m187.342,335.125c2.147-12.986 9.821-23.229 16.967-33.735-3.9,12.116-10.293,22.995-16.967,33.735z"/>
    <path d="m218.948,314.031c-5.879,11.079-11.757,22.158-17.635,33.238-0.659-0.355-1.317-0.709-1.975-1.064 3.286-12.508 11.36-22.499 17.79-33.355 0.606,0.393 1.213,0.787 1.82,1.181z"/>
    <path d="m179.735,275.963c-5.243,11.203-10.485,22.405-16.043,34.281-1.37-8.103 5.402-23.435 16.043-34.281z"/>
    <path d="m114.763,223.566c-6.347,9.714-12.694,19.428-19.042,29.142 2.543-12.259 10.38-21.234 16.985-30.967 0.685,0.609 1.371,1.217 2.057,1.825z"/>
    <path d="m220.552,360.13c2.732-10.354 4.592-13.205 13.554-19.347-4.029,5.751-8.058,11.503-13.554,19.347z"/>
    <path d="m239.256,361.938c2.011-3.027 4.022-6.053 6.033-9.08 0.548,0.322 1.095,0.644 1.643,0.966-1.809,3.051-3.619,6.103-5.428,9.154-0.75-0.346-1.499-0.693-2.248-1.04z"/>
    <path d="m68.867,152.377c1.4-2.649 2.8-5.297 4.2-7.946 0.648,0.452 1.297,0.904 1.945,1.357-2.119,2.129-4.237,4.258-6.357,6.385-0.002-0.001 0.212,0.204 0.212,0.204z"/>
  </g>
</svg>
