<?xml version='1.0' encoding='iso-8859-1'?>
<!DOCTYPE svg PUBLIC '-//W3C//DTD SVG 1.1//EN' 'http://www.w3.org/Graphics/SVG/1.1/DTD/svg11.dtd'>
<svg version="1.1" xmlns="http://www.w3.org/2000/svg" viewBox="0 0 447.384 447.384" xmlns:xlink="http://www.w3.org/1999/xlink" enable-background="new 0 0 447.384 447.384">
  <g>
    <path d="m109.956,32.973c32.717-0.458 65.433-1.055 98.151-1.326 23.858-0.198 47.723-0.2 71.578,0.163 13.641,0.207 27.263,1.72 40.904,1.909 12.737,0.177 25.547,0.017 38.218-1.152 14.778-1.363 25.35,4.745 33.5,16.201 10.319,14.506 20.177,29.344 30.71,43.69 5.988,8.156 12.982,15.569 19.422,23.399 6.392,7.771 6.251,16.022 1.506,24.535-9.522,17.084-20.342,33.238-32.664,48.486-15.035,18.606-29.024,38.059-44.095,56.634-16.609,20.47-33.926,40.365-50.948,60.5-11.081,13.107-22.116,26.253-33.303,39.269-7.347,8.549-15.096,16.755-22.361,25.371-9.15,10.851-17.979,21.972-26.973,32.954-1.755,2.143-3.744,4.099-5.44,6.285-6.747,8.7-14.113,7.12-20.605,0.297-15.24-16.016-31.611-31.103-43.653-49.905-4.752-7.42-8.677-15.386-13.632-22.658-14.676-21.537-29.065-43.313-44.717-64.131-17.356-23.085-36.245-45.011-53.952-67.841-9.772-12.599-18.519-25.996-27.675-39.071-7.172-10.242-14.189-20.593-21.422-30.791-3.539-4.99-3.339-9.705 0.676-14.058 9.899-10.736 20.027-21.26 29.938-31.984 13.434-14.537 26.861-29.082 40.076-43.817 7.978-8.895 17.672-12.959 29.539-12.12 2.398,0.17 4.818,0.025 7.228,0.025-0.002-0.288-0.004-0.576-0.006-0.864zm106.001,341.758c13.582-38.347 27.175-77.402 41.253-116.281 14.035-38.761 28.557-77.346 43.179-116.855-8.679,0.467-15.683,1.296-22.664,1.134-20.332-0.472-40.657-1.28-60.979-2.093-5.707-0.228-11.392-1.286-17.093-1.342-18.394-0.178-36.791-0.066-54.926-0.066 4.127,11.821 8.663,23.812 12.514,36.02 14.401,45.649 28.157,91.465 39.414,138.043 5.064,20.951 12.866,41.24 19.302,61.44zm215.133-234.146c-17.961,0.377-34.725,0.833-51.493,1.034-7.561,0.091-15.127-0.473-22.691-0.479-12.214-0.01-24.472,0.883-36.629,0.11-11.277-0.717-10.798-1.302-14.588,9.235-13.64,37.92-27.865,75.632-41.364,113.601-14.818,41.679-29.108,83.547-43.49,125.38-0.707,2.056-0.091,4.567-0.091,7.595 1.268-1.15 1.884-1.583 2.343-2.143 8.524-10.406 16.89-20.945 25.581-31.208 6.918-8.169 14.352-15.9 21.338-24.014 11.808-13.713 23.48-27.544 35.144-41.38 18.436-21.871 37.007-43.632 55.168-65.73 15.908-19.357 31.519-38.966 46.89-58.751 8.293-10.677 15.81-21.957 23.882-33.25zm-280.029,116.073c0.415,0.235 0.83,0.469 1.244,0.704-0.749,1.798-1.367,3.665-2.271,5.381-4.126,7.835-8.41,15.588-12.436,23.473-0.731,1.431-1.287,3.783-0.613,4.958 3.074,5.364 6.615,10.46 10.242,16.043 4.388-7.756 8.427-14.895 12.466-22.034 0.741,0.394 1.483,0.788 2.224,1.182-3.356,7.247-6.874,14.426-9.955,21.789-0.788,1.882-1.073,4.898-0.094,6.452 9.307,14.783 18.365,29.78 28.646,43.876 8.73,11.968 18.977,22.829 28.554,34.18 0.851-0.473 1.703-0.947 2.554-1.42-26.051-84.242-44.744-170.624-74.876-253.159-40.743-1.239-81.155-2.467-121.47-3.693 17.837,24.144 36.166,48.956 54.577,73.877 8.392-13.328 16.008-25.424 23.624-37.519 0.702,0.415 1.405,0.831 2.107,1.246-7.528,13.119-15.056,26.239-22.825,39.779 3.015,3.708 6.309,7.76 9.672,11.897 9.972-13.946 19.385-27.109 28.798-40.273 0.438,0.3 0.876,0.6 1.313,0.9-6.36,15.971-17.428,29.043-26.464,41.596 2.331,3.141 4.408,5.94 6.648,8.957 6.976-11.171 13.557-21.71 20.138-32.248 0.446,0.216 0.892,0.431 1.338,0.647-0.383,1.15-0.614,2.379-1.172,3.436-4.963,9.411-9.87,18.856-15.068,28.137-1.306,2.332-2.151,4.062-0.052,6.26 2.928,3.064 5.727,6.252 8.469,9.263 6.841-9.687 13.706-19.406 20.57-29.125 0.57,0.324 1.14,0.648 1.71,0.972-1.242,2.974-2.167,6.135-3.789,8.885-4.121,6.982-8.665,13.714-12.772,20.704-0.844,1.436-1.316,4.008-0.594,5.279 2.336,4.109 5.308,7.856 8.285,12.099 6.62-10.938 12.893-21.303 19.166-31.667 0.648,0.366 1.295,0.732 1.943,1.098-3.908,12.607-11.481,23.467-18.017,34.796 3.428,4.166 6.678,8.116 9.848,11.968 6.209-9.717 12.271-19.206 18.332-28.696zm219.573-213.185c-13.65-0.65-26.084-1.249-38.52-1.817-0.725-0.033-1.459,0.204-2.193,0.282-6.03,0.643-12.064,1.851-18.091,1.813-23.505-0.148-47.006-0.707-70.51-1.076-5.214-0.082-10.43-0.012-15.645-0.012-0.288,0.573-0.576,1.146-0.864,1.72 15.467,19.457 30.482,39.299 46.595,58.206 7.848,9.208 17.666,16.759 26.77,24.86 2.407,2.141 5.048,3.925 8.512,0.49 22.477-22.291 42.184-46.754 58.622-73.816 1.96-3.225 3.401-6.766 5.324-10.65zm-151.399,3.475c-23.172,27.29-45.569,53.668-67.785,79.833 45.936,1.792 91.739,3.579 137.542,5.366-28.509-24.169-48.856-54.022-69.757-85.199zm-77.888,78.587c23.733-27.451 46.902-54.249 71.1-82.238-41.343,0.859-81.058,1.683-119.87,2.489 13.872,26.846 28.331,54.001 48.77,79.749zm236.556-75.605c-17.439,30.761-38.297,56.561-62.351,81.446 40.125,2.325 78.927,3.58 119.706-2.62-24.349-23.14-39.614-51.125-57.355-78.826zm-246.296,76.711c-8.203-12.603-16.788-24.762-24.263-37.568-7.535-12.909-13.969-26.461-21.128-40.197-21.898,25.844-43.712,51.59-65.891,77.765 36.927,0 73.924,0 111.282,0z"/>
    <path d="m202.784,182.569c-5.79,10.252-11.58,20.504-17.786,31.492-2.683-5.818 8.375-26.103 16.383-32.476 0.467,0.328 0.935,0.656 1.403,0.984z"/>
    <path d="m189.673,229.822c5.29-9.062 10.58-18.124 15.87-27.185 0.797,0.459 1.594,0.919 2.392,1.378-3.189,10.256-8.869,19.103-15.885,27.195-0.792-0.463-1.584-0.925-2.377-1.388z"/>
    <path d="m189.962,252.18c1.589-8.108 6.786-14.063 12.201-19.888 0.552,0.329 1.104,0.659 1.655,0.988-3.987,6.677-7.974,13.355-11.961,20.032-0.631-0.377-1.263-0.754-1.895-1.132z"/>
    <path d="m73.758,117.336c-1.467-7.407 10.881-26.562 18.036-28.698-4.64,10.677-11.308,19.005-18.036,28.698z"/>
    <path d="m63.366,105.157c3.422-7.321 8.379-13.605 13.896-19.511 0.422,0.277 0.845,0.554 1.267,0.831-4.348,6.643-8.696,13.285-13.044,19.928-0.706-0.417-1.413-0.833-2.119-1.248z"/>
  </g>
</svg>
