<?xml version='1.0' encoding='iso-8859-1'?>
<!DOCTYPE svg PUBLIC '-//W3C//DTD SVG 1.1//EN' 'http://www.w3.org/Graphics/SVG/1.1/DTD/svg11.dtd'>
<svg version="1.1" xmlns="http://www.w3.org/2000/svg" viewBox="0 0 436.257 436.257" xmlns:xlink="http://www.w3.org/1999/xlink" enable-background="new 0 0 436.257 436.257">
  <g>
    <path d="m327.022,0c5.124,2.914 7.579,7.352 8.787,13.136 3.909,18.727 8.303,37.353 12.36,56.05 0.775,3.571 0.953,7.283 1.262,10.942 1.442,17.117 2.833,34.239 4.24,51.338 6.117,0.855 11.659,0.162 15.083,2.53 3.294,2.279 4.395,7.725 7.013,12.864 5.982-0.358 14.943-4.469 19.526,5.284 3.345,7.12-0.143,14.272-9.306,20.286 2.111,13.166 2.284,26.018-15.406,30.199 4.698,36.643 5.246,73.39 22.867,106.617 0.517,0.974 0.999,1.976 1.395,3.004 4.21,10.933 2.711,15.738-7.582,21.958-4.914,2.969-9.471,5.805-9.291,11.719 3.58,5.252 7.762,9.64 9.888,14.865 4.534,11.144-0.122,19.227-12.367,22.063-16.122,3.734-32.416,6.72-48.553,10.394-40.54,9.228-80.994,18.84-121.562,27.943-22.6,5.071-45.314,9.671-68.062,14.038-18.859,3.62-29.951-2.115-35.814-20.703-5.506-17.457-9.961-35.476-12.553-53.581-8.882-62.022-22.402-123.04-37.155-183.858-4.852-20.001-8.071-40.397-12.113-60.598-1.141-5.703-0.107-10.759 2.79-15.862 10.244-18.046 23.26-34.028 36.432-49.914 2.165-2.611 4.251-5.093 8.353-3.373 1.068,0.448 2.864-0.289 4.113-0.91 21.76-10.821 45.571-14.065 68.975-18.872 24.493-5.031 48.783-11.246 73.441-15.213 19.514-3.14 39.439-3.783 59.2-5.298 10.281-0.789 20.475-1.608 29.613-7.048 1.475,0 2.95,0 4.426,0zm-237.422,57.009c1.296,10.531 2.036,20.788 3.887,30.84 7.998,43.444 17.621,86.525 29.764,129.023 1.917,6.71 3.465,13.556 4.701,20.427 6.581,36.576 13.197,73.147 19.326,109.8 1.177,7.04 3.567,14.388 1.441,22.369-1.534-1.112-2.465-1.42-2.607-1.943-5.483-20.236-11.952-40.28-16.036-60.799-4.734-23.787-6.899-48.074-11.067-71.989-2.902-16.652-7.782-32.951-10.931-49.569-7.856-41.463-15.229-83.018-23.082-126.105-2.99,2.801-5.638,4.659-7.484,7.12-7.517,10.021-14.349,20.585-22.265,30.269-9.324,11.405-6.177,22.571-1.496,35.87 6.761-11.314 12.646-21.161 18.531-31.008 0.678,0.388 1.356,0.776 2.034,1.164-5.41,10.316-10.517,20.808-16.341,30.885-3.639,6.296-3.518,11.791 0.795,18.705 6.29-12.33 12.086-23.691 17.882-35.052 0.793,0.37 1.586,0.74 2.379,1.111-5.213,11.595-10.011,23.401-15.787,34.708-3.738,7.317-4.521,13.938 0.02,21.911 6.898-13.171 13.408-25.603 19.919-38.034 0.71,0.316 1.42,0.631 2.13,0.947-0.904,2.691-1.593,5.478-2.749,8.056-4.52,10.079-9.142,20.113-13.811,30.124-5.387,11.549-5.196,15.291 2.027,28.45 5.089-12.433 10.032-24.511 14.975-36.589 0.764,0.274 1.527,0.549 2.291,0.823-1.249,4.519-2.238,9.129-3.8,13.537-3.321,9.368-7.039,18.595-10.407,27.948-2.611,7.25-0.811,15.952 4.43,22.822 6.343-13.238 12.669-26.444 18.996-39.649 0.759,0.291 1.518,0.581 2.277,0.872-1.132,3.66-1.971,7.443-3.452,10.955-4.15,9.84-7.708,20.077-13.126,29.19-4.986,8.388-3.656,15.483 0.697,25.246 5.451-13.501 10.232-25.344 15.012-37.186 0.977,0.384 1.954,0.768 2.931,1.152-4.465,12.36-8.477,24.911-13.554,37.014-3.386,8.071-2.482,15.093 1.835,23.673 5.817-13.005 11.115-24.849 16.412-36.693 1.318,2.667 1.245,4.85 0.504,6.776-4.491,11.675-9.099,23.306-13.743,34.921-1.948,4.872-3.455,9.65 0.694,14.592 4.13-7.629 8.201-15.149 12.272-22.668 0.665,0.316 1.33,0.632 1.994,0.949-2.811,7.067-4.934,14.514-8.591,21.112-5.62,10.141-5.593,20.097-1.151,31.844 4.25-10.597 8.134-20.281 12.018-29.965 1.467,3.308 1.136,6.06 0.342,8.671-2.788,9.163-5.511,18.357-8.699,27.384-2.299,6.51-2.003,12.676 1.035,20.715 4.442-11.048 8.326-20.711 12.211-30.373 1.312,3.392 1.114,6.269 0.262,8.936-2.798,8.763-5.627,17.526-8.847,26.139-2.287,6.116-2.856,11.983 0.569,18.838 4.211-9.438 8.183-18.339 12.154-27.24 1.017,9.06-2.314,16.847-5.823,24.229-6.328,13.312-2.827,25.065 3.887,36.628 4.485,7.723 7.49,9.189 16.427,7.432 22.376-4.399 44.776-8.731 67.012-13.772 40.901-9.272 81.69-19.038 122.529-28.585 4.654-1.088 9.378-1.909 13.977-3.189 3.932-1.095 3.813-3.654 1.837-6.664-1.609,0-3.113-0.283-4.472,0.042-23.608,5.649-47.223,11.273-70.786,17.109-20.341,5.038-40.516,10.792-60.954,15.381-18.632,4.183-37.505,7.313-56.309,10.697-3.569,0.642-7.329,0.544-10.977,0.351-4.287-0.227-6.015-3.061-4.577-6.86 4.775-12.617 10.549-24.553 24.687-29.344 6.587-2.232 13.196-4.403 19.441-6.483 2.243-5.981 4.284-11.424 6.326-16.868 0.588,0.164 1.176,0.328 1.764,0.492-1.072,4.749-2.143,9.497-3.523,15.611 5.134-1.031 9.273-1.863 12.276-2.466 4.019-9.463 7.56-17.8 11.1-26.137 0.683,0.27 1.365,0.54 2.048,0.81-2.249,7.491-4.499,14.982-7.285,24.259 5.767-1.481 9.518-2.444 11.967-3.073 4.184-8.441 7.758-15.653 11.333-22.865 0.733,0.333 1.465,0.665 2.198,0.998-2.294,6.207-4.587,12.415-7.146,19.341 8.745,0.23 13.886-2.102 16.715-9.573 1.9-5.016 5.375-9.435 8.145-14.122 0.578,0.303 1.156,0.606 1.734,0.909-2.4,5.829-4.799,11.659-7.292,17.714 12.471,1.9 12.321-11.171 20.258-15.387-1.588,4.354-2.786,7.639-4,10.97 10.567,3.204 13.805-5.256 19.728-12.106-0.443,3.859-0.694,6.051-1.073,9.358 10.563-2.705 20.075-5.49 29.747-7.51 8.089-1.69 13.626-5.821 17.879-12.96 12.349-20.728 28.292-38.512 46.622-54.121 3.253-2.77 3.81-5.392 3.436-9.514-1.594-17.57-2.682-35.186-3.84-52.793-0.254-3.861-0.037-7.753-0.037-12.607-8.735,2.161-15.774,4.169-22.926,5.614-14.389,2.907-28.741,6.488-43.293,7.95-13.618,1.368-20.736-3.942-24.441-17.197-2.128-7.612-2.207-15.968-2.159-23.983 0.11-18.713 4.056-24.16 21.936-29.451 16.096-4.763 32.458-8.629 48.953-12.957-1.321-17.131-2.67-34.627-4.016-52.086-14.228-4.484-27.458-10.746-38.229-21.149-12.165-11.749-24.124-23.724-35.806-35.951-2.929-3.066-5.741-4.324-9.648-3.706-10.888,1.721-21.834,3.154-32.641,5.289-29.583,5.843-59.085,12.098-88.663,17.964-14.47,2.865-28.828,5.944-43.767,13.305zm49.928,356.987c31.588-7.401 60.827-14.065 89.968-21.129 32.85-7.963 65.601-16.34 98.424-24.417 8.187-2.015 16.534-3.382 24.706-5.448 2.703-0.683 5.835-2.033 7.471-4.105 4.034-5.107 7.315-10.808 12.161-18.194-23.817,4.335-45.813,7.343-67.3,12.479-33.6,8.032-66.806,17.696-100.279,26.277-14.573,3.736-29.448,6.281-44.088,9.773-11.705,2.794-16.493,11.876-21.063,24.764zm226.105-274.526c-6.726,1.789-11.956,4.222-17.262,4.399-17.144,0.572-33.03,6.254-49.403,10.268-12.81,3.141-17.445,10.696-17.996,22.529-0.137,2.936-0.2,5.891-0.04,8.824 1.091,19.94 8.369,25.435 27.738,20.883 19.289-4.533 38.537-9.241 57.836-13.73 10.281-2.391 12.548-6.789 8.338-18.041-5.261,0.365-10.721,0.758-16.184,1.119-8.594,0.567-10.56-1.51-10.246-9.741 0.351-9.2 4.238-15.358 13.496-17.641 1.629-0.402 3.138-1.288 4.955-2.058-0.426-2.354-0.733-4.051-1.232-6.811zm-40.33-132.083c-18.557,3.728-36.313,7.296-55.908,11.233 20.305,20.972 39.687,39.548 67.171,51.242-3.871-21.471-7.409-41.096-11.263-62.475zm44.693,275.527c-18.564,17.353-35.74,34.611-48.116,57.574 16.226-2.777 31.263-5.742 46.425-7.778 7.359-0.988 13.117-4.099 19.062-8.953-5.655-13.296-11.225-26.393-17.371-40.843zm-13.905-112.182c9.142-1.642 17.359-2.711 25.358-4.671 7.744-1.897 8.187-3.378 6.142-14.145-6.917,0.755-14.078,1.139-21.081,2.398-9.435,1.696-10.521,3.548-10.419,16.418zm20.188,183.453c-0.824-0.004-1.647-0.008-2.471-0.012-2.629,4.365-4.341,10.001-8.14,12.746-3.982,2.877-9.972,2.968-15.077,4.302-1.066,0.279-2.545,0.354-3.059,1.075-1.034,1.451-1.535,3.282-3.269,7.308 13.436-3.162 24.599-5.789 37.275-8.773-2.087-6.602-3.673-11.624-5.259-16.646z"/>
    <path d="m205.813,96.345c4.526-19.809 15.306-28.748 33.585-28.096 10.31,0.368 17.758,6.326 18.744,16.559 0.66,6.85 0.687,14.239-1.195,20.754-3.769,13.045-8.999,25.672-13.719,38.437-1.511,4.087-4.251,5.791-8.966,6.677-11.949,2.244-23.772,4.677-36.027,3.864-12.397-0.823-23.939-3.815-33.533-12.296-11.976-10.588-12.476-22.868-1.199-34.447 9.573-9.829 20.918-14.812 34.886-12.388 2.47,0.427 4.979,0.633 7.424,0.936z"/>
    <path d="m186.751,200.381c6.405-6.986 10.844-13.472 16.804-17.921 7.858-5.867 16.113-2.044 16.261,7.71 0.217,14.313-1.596,28.819-9.688,41.081-2.301,3.487-8.494,4.818-13.175,6.244-13.578,4.136-26.177,1.997-36.907-7.638-8.228-7.389-8.021-16.289 0.28-23.624 8.113-7.169 17.567-8.403 26.425-5.852z"/>
    <path d="m221.518,284.079c1.029-3.346 1.646-6.594 3.007-9.492 2.156-4.592 7.556-7.239 11.827-6.185 4.779,1.18 5.935,4.849 6.32,9.2 0.356,4.019 1.178,7.995 1.639,12.007 1.595,13.881-4.879,22.066-18.802,22.472-6.059,0.176-12.567-0.676-18.173-2.857-7.641-2.973-10.377-9.352-8.713-15.843 1.712-6.676 8.181-10.877 16.141-10.347 2.144,0.142 4.263,0.648 6.754,1.045z"/>
  </g>
</svg>
