<?xml version="1.0" encoding="iso-8859-1"?>
<!-- Generator: Adobe Illustrator 16.0.0, SVG Export Plug-In . SVG Version: 6.00 Build 0)  -->
<!DOCTYPE svg PUBLIC "-//W3C//DTD SVG 1.1//EN" "http://www.w3.org/Graphics/SVG/1.1/DTD/svg11.dtd">
<svg version="1.1" id="Capa_1" xmlns="http://www.w3.org/2000/svg" xmlns:xlink="http://www.w3.org/1999/xlink" x="0px" y="0px"
	 width="192.792px" height="192.792px" viewBox="0 0 192.792 192.792" style="enable-background:new 0 0 192.792 192.792;"
	 xml:space="preserve">
<g>
	<g>
		<path d="M183.256,53.241c0.299-1.404-0.165-2.849-1.056-3.914c0.386-1.118,0.268-2.47-0.57-3.545
			c-9.473-12.159-29.402-20.312-42.699-27.655c-12.354-6.821-25.73-13.76-39.819-16.185c-1.101-1.688-3.201-2.666-5.437-1.288
			c-26.49,16.316-50.511,35.587-78.922,48.72c-2.021,0.934-1.968,3.206-0.886,4.71c-1.487,0.413-2.732,1.594-2.76,3.603
			c-0.411,29.125-3.774,58.373-2.162,87.488c-1.974,0.503-3.25,3.155-1.459,4.938c19.778,19.691,51.791,35.74,79.501,40.135
			c0.67,1.562,2.219,2.827,4.346,2.488c30.645-4.88,59.934-21.491,84.167-40.298c1.009-0.781,1.409-1.707,1.451-2.624
			c1.288,1.963,5.134,0.911,5.19-1.782C182.768,117.674,190.114,83.25,183.256,53.241z M90.955,181.294
			c-0.071,0.495-0.022,0.948,0.068,1.379c-0.306-0.127-0.566-0.293-0.949-0.351c-27.737-4.194-50.93-20.26-74.557-34.223
			c0.003-0.024,0.016-0.042,0.018-0.067c2.276-28.371,3.314-57.01,3.401-85.49c5.447,5.067,14.858,7.961,20.603,10.234
			c17.148,6.787,35.475,10.42,51.524,19.822c0.441,0.259,0.87,0.359,1.294,0.443C89.189,122.245,95.183,151.849,90.955,181.294z
			 M95.072,85.741C83.24,78.83,70.182,74.77,57.199,70.603c-8.579-2.753-17.085-5.61-25.258-9.433
			c-4.024-1.883-7.53-5.109-11.553-6.812c28.215-9.378,51.826-29.898,76.587-45.776c14.4,5.76,28.332,11.964,41.927,19.561
			c11.446,6.395,23.458,17.264,35.994,21.916C151.005,65.986,125.31,82.886,96.484,87.21C96.188,86.655,95.757,86.142,95.072,85.741
			z M169.425,146.362c-20.983,16.327-45.663,29.978-71.564,36.979c0.012-0.052,0.047-0.075,0.058-0.129
			c5.471-28.552,5.145-60.462,1.454-89.428c27.865-1.848,53.795-19.043,76.765-34.374c0.182,29.376-3.822,59.604,0.338,88.5
			C175.25,145.745,172.027,144.337,169.425,146.362z"/>
		<path d="M73.405,36.568c-1.324-0.274-2.67-0.438-4.012-0.61c-0.595-0.27-1.248-0.307-1.873-0.044
			c-1.054,0.218-1.911,0.957-2.49,1.874c-0.878,0.702-1.792,1.36-2.609,2.15c-1.51,1.461-2.291,2.379-3.014,3.815
			c-1.214,2.409-1.717,5.24-0.27,7.678c2.568,4.329,8.746,3.753,12.89,2.744c3.732-0.908,8.973-2.948,10.715-6.713
			C85.768,40.92,78.605,37.643,73.405,36.568z"/>
		<path d="M139.102,42.233c-2.7-1.584-6.179-1.815-9.211-2.055c-0.865-0.068-1.733-0.106-2.601-0.14
			c-1.982-0.078-3.325,1.276-3.737,2.925c-4.186,2.834-8.447,7.906-4.801,12.388c2.741,3.37,9.115,1.84,12.569,0.829
			c4.127-1.207,8.969-3.17,10.698-7.416C143.062,46.198,141.234,43.486,139.102,42.233z"/>
		<path d="M61.691,110.435c-0.701-0.472-1.531-0.876-2.415-1.233c-0.903-1.849-3.505-2.23-5.176-1.197
			c-4.343-0.328-8.709,1.019-9.981,5.341c-1.09,3.704,0.756,7.178,3.587,9.357c0.935,2.263,3.38,3.52,6.165,3.128
			c2.017-0.283,3.929-1.412,5.624-2.479c1.9-1.194,3.73-2.233,5.055-4.095C66.863,116.008,64.458,112.296,61.691,110.435z"/>
		<g>
			<path d="M129.861,100.433c-0.045-0.045-0.112-0.051-0.159-0.093c0.028,0.038-0.033,0.001-0.162-0.094
				c-0.366-0.295-0.743-0.574-1.208-0.704c0.189,0.036,0.385,0.127,0.569,0.225c-0.79-0.622-1.583-1.247-2.414-1.819
				c0.195-3.997-5.503-5.775-6.627-1.479c-0.002,0.008-0.004,0.016-0.006,0.024c-0.872,0.681-1.371,1.832-1.431,3.072
				c-0.03,0.131-0.041,0.259-0.066,0.388c-2.396,1.166-2.829,4.137-2.309,6.48c0.414,1.867,2.219,2.41,3.835,2.061
				c0.894,1.926,2.917,2.599,4.881,1.693c1.657-0.764,3.382-2.605,4.615-3.925c0.903-0.967,1.471-1.957,1.551-3.31
				C130.99,101.948,130.457,101.164,129.861,100.433z"/>
			<path d="M129.54,100.246c0.05,0.039,0.115,0.051,0.162,0.094c-0.059-0.08-0.388-0.354-0.8-0.573
				c0.193,0.151,0.396,0.295,0.586,0.446C129.526,100.242,129.512,100.224,129.54,100.246z"/>
		</g>
		<path d="M131.217,127.962c-0.011-0.959-0.392-1.896-1.058-2.691c-0.175-0.209-0.275-0.329-0.375-0.447
			c-0.09-0.109-0.225-0.273-0.429-0.521c-0.275-0.333-0.587-0.623-0.936-0.858c0.01-0.75-0.606-1.482-1.447-1.201
			c-0.29,0.097-0.889-0.024-1.407-0.102c-1.239-0.184-2.338,0.185-3.415,0.788c-0.337,0.189-0.591,0.512-0.884,0.775
			c-0.608,0.174-1.201,0.34-1.747,0.435c-2.991,0.522-3.31,5.195-0.812,6.419c0.02,0.172-0.019,0.365,0.014,0.53
			c0.508,2.668,3.686,3.122,5.896,3.094c1.801-0.022,4.336,0.011,5.93-0.954C132.415,132.098,132.668,129.477,131.217,127.962z"/>
		<path d="M131.843,154.857c0.486-1.273,0.738-2.568-0.15-3.887c-1.418-2.101-4.275-2.885-6.686-2.956
			c-2.259-0.066-3.609,1.314-3.919,3.008c-0.311,0.78-0.47,1.688-0.482,2.654c-0.381,0.559-0.735,1.133-0.944,1.79
			c-1.072,3.383,2.23,6.043,4.594,7.734c1.371,0.981,3.799,0.341,4.516-1.185c0.604-1.284,1.143-2.597,1.692-3.905
			C131.434,157.288,132.016,156.181,131.843,154.857z"/>
		<path d="M158.601,139.992c-0.386-0.384-0.752-0.732-1.121-1.058c-0.968-3.181-5.173-4.392-7.089-1.135
			c-0.451,0.766-0.694,1.728-0.813,2.715c-0.658,0.536-1.255,1.138-1.676,1.856c-2.603,4.442,5.507,8.865,8.898,5.705
			c0.73-0.511,1.236-1.329,1.239-2.517c0.188-0.146,0.391-0.281,0.562-0.438C160.054,143.788,159.957,141.339,158.601,139.992z"/>
		<path d="M155.144,112.021c-3.111-2.362-6.604,2.058-5.002,5.003c0.321,0.592,0.669,1.1,1.009,1.595
			c-0.057,0.422-0.032,0.854,0.067,1.291c-0.078,0.235-0.155,0.472-0.137,0.694c0.185,2.153,1.343,3.431,3.228,4.376
			c2.33,1.169,5.076-0.256,5.151-2.956c0.021-0.738-0.063-1.378-0.162-2.006c0.16-0.271,0.296-0.562,0.362-0.895
			C160.35,115.714,157.53,113.835,155.144,112.021z"/>
		<path d="M162.797,83.902c-0.073-0.229-0.146-0.457-0.219-0.685c-0.145-0.455-0.218-1.158-0.044,0.378
			c-0.121-1.071-0.354-1.915-1.141-2.703c-0.861-0.863-2.471-1.468-3.671-0.971c-0.572,0.237-1.026,0.608-1.465,0.995
			c-1.694-0.058-3.277,2.169-2.515,4.037c-0.256,0.714-0.473,1.436-0.674,2.126c-0.395,1.357-0.69,3.013-0.208,4.38
			c0.48,1.358,1.58,2.357,2.876,2.791c0.076,0.03,0.155,0.044,0.234,0.069c0.34,0.091,0.673,0.159,1.033,0.155
			c0.312,0.008,0.633-0.064,0.962-0.139c0.876,0.405,1.775,0.745,2.605,0.977c2.556,0.711,4.972-1.683,4.358-4.231
			c0.056-0.234,0.105-0.466,0.117-0.708C167.206,87.91,165.843,84.389,162.797,83.902z"/>
	</g>
</g>
<g>
</g>
<g>
</g>
<g>
</g>
<g>
</g>
<g>
</g>
<g>
</g>
<g>
</g>
<g>
</g>
<g>
</g>
<g>
</g>
<g>
</g>
<g>
</g>
<g>
</g>
<g>
</g>
<g>
</g>
</svg>
