<?xml version="1.0" encoding="iso-8859-1"?>
<!-- Generator: Adobe Illustrator 16.0.0, SVG Export Plug-In . SVG Version: 6.00 Build 0)  -->
<!DOCTYPE svg PUBLIC "-//W3C//DTD SVG 1.1//EN" "http://www.w3.org/Graphics/SVG/1.1/DTD/svg11.dtd">
<svg version="1.1" id="Capa_1" xmlns="http://www.w3.org/2000/svg" xmlns:xlink="http://www.w3.org/1999/xlink" x="0px" y="0px"
	 width="196.052px" height="196.052px" viewBox="0 0 196.052 196.052" style="enable-background:new 0 0 196.052 196.052;"
	 xml:space="preserve">
<g>
	<g>
		<path d="M187.095,60.715c7.373-7.049,11.995-17.453,6.628-27.048c-6.697-11.973-21.013-17.308-34.708-16.98
			c-6.977-13.367-22.875-11.982-26.926,2.111c-10.852-0.104-14.696,8.333-12,17.954c-10.262-0.255-14.632,7.131-11.488,16.738
			c-6.115-0.434-12.26,1.584-12.47,6.825c-2.638-2.522-6.257-4.011-9.939-3.391c-5.165,0.869-8.244,4.235-9.812,8.502
			c-2.293-2.566-5.172-4.426-8.742-3.444c-4.055,1.115-5.706,4.987-6.28,9.046c-3.656-3.197-7.863-4.172-11.107-1.929
			c-0.526-4.199-3.892-7.829-8.179-10.025c2.585-2.216,4.582-5.023,3.635-8.467c-0.857-3.116-3.468-4.918-6.398-6.044
			c4.528-4.589,6.172-10.779,0.405-16.391c-4.443-4.323-10.565-3.534-13.588,0.693c-2.411-1.635-5.529-2.277-9.713-1.257
			C-0.575,31.749-0.279,57.542,0.111,71.1c0.754,26.224,18.482,46.921,43.551,53.859c0.376,0.104,0.71,0.025,1.003-0.119
			c-0.145,7.441,0.989,15.924,3.519,20.123c4.076,6.765,7.634,10.678,2.793,19.125c-1.996,3.482-5.153,5.062-6.902,8.046
			c-3.717,6.346,9.646,11.69,13.27,13.148c12.64,5.088,43.957,5.463,55.526-6.343c5.058,2.971,15.531,2.481,20.062,2.587
			c9.334,0.216,16.696-1.817,22.113-9.645c10.314-14.9-15.068-19.048-26.761-18.069c-0.794-3.325-1.125-6.694-0.773-10.138
			c5.077-2.471,9.279-6.834,12.037-13.676c0.899-2.23,1.532-4.508,2.033-6.81c0.53,0.073,1.06,0.154,1.59,0.257
			c1.287,4.029,3.884,8.241,8.537,8.149c4.487-0.089,7.469-4.191,8.996-7.947c1.757-4.318,1.057-9.248-1.889-12.835
			c-3.662-4.455-10.341-4.839-15.829-4.134c-0.028-9.062-0.692-18.23,0.897-26.988c13.797,6.47,35.988,3.474,35.895-13.564
			c0.987-0.542,1.961-1.169,2.921-1.832c0.125,0.477,0.301,0.951,0.473,1.399c-1,3.71,4.686,6.631,6.979,2.776
			c0.921-1.548,1.671-3.131,0.635-4.901C189.994,62.218,188.38,61.537,187.095,60.715z M152.311,17.299
			c-3.414,0.562-6.703,1.479-9.715,2.76c-1.939,0.825-3.757,1.838-5.507,2.953c0.043-0.122,0.131-0.205,0.156-0.342
			C139.025,12.767,146.883,10.741,152.311,17.299z M133.595,24.742c0.315,0.045,0.65,0.036,0.981,0.008
			c-3.484,2.603-6.601,5.726-9.382,9.233C123.866,29.06,124.276,23.415,133.595,24.742z M119.348,42.57
			c-1.897,3.197-3.628,6.523-5.217,9.898C112.211,46.938,113.668,42.741,119.348,42.57z M111.137,59.186
			c-1.411,3.346-2.72,6.666-3.948,9.857c-2.244-1.245-4.552-2.229-6.901-2.932c0.116-0.255,0.201-0.533,0.145-0.849
			C103.445,59.572,107.016,57.571,111.137,59.186z M90.957,65.235c-1.845,0.253-3.716,0.764-5.614,1.598
			c-1.182,0.52-2.434,1.102-3.721,1.71C83.356,63.2,87.108,62.655,90.957,65.235z M66.932,70.78c3.56-1.291,6.041-0.869,7.5,1.175
			c-2.617,1.22-5.312,2.416-8.018,3.461C66.472,73.864,66.614,72.317,66.932,70.78z M50.317,74.454
			c3.721-7.037,8.018-0.929,10.142,2.954c-4.259,1.178-8.378,1.684-12.052,0.984C48.982,77.049,49.594,75.724,50.317,74.454z
			 M43.117,74.125c-0.297,0.647-0.311,1.332-0.139,1.959c-3.318-2.318-5.959-6.296-7.463-12.789
			c-0.021-0.09-0.034-0.208-0.055-0.301C41.421,64.246,46.148,67.52,43.117,74.125z M34.685,57.031
			c-0.216-2.423-0.423-5.111-0.717-7.894c0.746,0.167,1.505,0.278,2.236,0.511C41.62,51.134,37.569,55.094,34.685,57.031z
			 M32.972,42.272c-0.786-4.068-1.983-7.864-3.978-10.641C34.374,28.104,41.798,36.04,32.972,42.272z M140.602,160.996
			c2.802,0.426,5.532,1.209,7.979,2.648c3.435,2.022-0.347,5.736-1.859,7.641c-3.654,4.604-13.787,3.313-18.836,2.979
			c-2.703-0.179-7.246-1.598-11.081-1.857c3.72-12.018-9.233-17.805-21.17-18.999c2.572-2.438,4.38-5.876,5.538-9.62
			c8.058,2.547,15.956,3.313,22.691,1.334c-0.653,3.774-0.209,7.563-1.036,11.383c-0.359,1.663,0.472,3.513,2.237,3.94
			C129.913,161.616,135.546,160.227,140.602,160.996z M142.929,111.734c4.008-0.184,8.661-0.053,11.332,2.787
			c1.516,1.611,1.506,4.18,0.715,6.682c-0.25,0.79-1.141,2.335-1.547,2.804c-0.213,0.246-0.448,0.473-0.687,0.695
			c-0.1,0.092-0.117,0.11-0.158,0.151c0.002-0.01-0.023-0.002-0.121,0.063c-0.146,0.099-0.308,0.173-0.465,0.255
			c-0.038,0.006-0.136,0.038-0.268,0.083c-0.049,0.006-0.09,0.012-0.146,0.018c-0.044-0.007-0.082-0.012-0.135-0.021
			c-0.066-0.035-0.166-0.084-0.278-0.141c-0.04-0.063-0.424-0.385-0.513-0.481c-0.26-0.283,0.018,0.064-0.373-0.567
			c-0.245-0.396-0.445-0.819-0.642-1.241c-0.355-0.767-0.679-2.033-0.931-2.994c-0.361-1.377-1.646-2.284-3.04-2.314
			c-0.974-0.021-2.044-0.234-3.119-0.405C142.739,115.327,142.865,113.536,142.929,111.734z M178.486,58.829
			c-14.835,10.019-28.177-2.131-35.501-14.685c-2.259-3.87-7.764-0.482-5.913,3.456c1.371,2.92,3.085,5.701,5.055,8.26
			c-0.538,0.006-1.118,0.122-1.73,0.384c-1.19,0.418-2.316,0.963-3.38,1.636c-4.836,2.748,0.062,9.386,4.066,6.925
			c0.005,0.02,0.011,0.041,0.016,0.061c1.274-0.94,2.484-1.895,3.708-2.903c-0.021-0.017-0.043-0.034-0.064-0.05
			c0.579-0.579,0.842-1.276,0.926-1.99c0.936,0.938,1.915,1.823,2.929,2.651c-1.49,0.911-2.408,2.693-1.31,5.045
			c0.39,0.835,0.78,1.67,1.17,2.505c1.444,3.093,6.171,1.443,6.172-1.672c0-0.473,0.001-0.944,0.001-1.417
			c0.022-0.162,0.011-0.352,0.015-0.527c5.965,3.036,12.726,4.075,19.728,1.91c-6.35,9.92-21.647,9.634-31.103,2.545
			c-1.93-1.447-4.735,0.116-5.329,2.168c-7.521,25.964,9.325,74.467-35.1,63.971c-0.144-0.033-0.259,0.002-0.396-0.017
			c0.471-6.922-1.426-13.804-6.23-17.307c-2.412-1.758-4.589,1.503-3.641,3.641c2.706,6.107,4.343,10.426,2.528,17.174
			c-1.225,4.556-4.12,9.543-8.5,11.639c-0.588,0.281-0.952,0.763-1.134,1.315c-0.996,0.153-1.939,0.339-2.776,0.579
			c-4.165,1.195-2.421,7.417,1.781,6.46c5.996-1.366,12.004-0.716,17.895,0.858c7.881,2.105,8.354,12.754,0.906,15.733
			c-4.637,1.855-10.032,2.405-14.923,2.932c-6.765,0.727-13.629,0.563-20.401,0.077c-3.032-0.218-5.865-0.76-8.765-1.571
			c-2.359-1.214-4.622-2.59-6.861-4.008c4.871-3.823,12.249-14.855,10.571-19.573c-2.802-7.88-8.682-13.361-10.178-21.992
			c-2.234-12.885-1.521-24.5,13.085-28.677c2.23-0.639,1.88-4.42-0.564-4.167c-9.478,0.979-15.951,4.791-19.138,14.066
			c-0.685,1.993-1.106,4.787-1.309,7.878C20.377,109.51,6.767,90.851,6.945,63.754c0.057-8.706,1.191-17.735,5.371-25.481
			l13.478,1.738c0.785,2.518,1.265,5.099,1.439,7.742c0.496,4.379,0.64,8.797,1.113,13.182c1.045,9.69,5.501,20.849,16.063,23.484
			c22.758,5.678,42.928-19.528,62.854-7.384c3.539,2.157,6.583-2.753,3.972-5.356c13.832-27.222,32.101-60.819,67.83-42.802
			C193.221,36.016,189.752,51.219,178.486,58.829z"/>
		<g>
			<path d="M126.085,104.938c-4.394-3.957-12.423-3.274-17.508-1.268c-1.491,0.588-1.443,3.1,0.406,2.997
				c4.245-0.236,9.46-1.316,12.85,1.707c1.787,1.594,1.944,3.669,1.441,5.776c-0.157,0.654-0.396,1.229-0.385,1.204
				c-0.154,0.341-1.042,1.716-0.671,1.239c-0.186,0.239-0.396,0.459-0.608,0.673c-0.11,0.11-0.138,0.145-0.17,0.183
				c-0.019,0.011-0.009-0.002-0.051,0.027c-0.131,0.094-0.277,0.16-0.419,0.236c-0.036,0.008-0.099,0.027-0.195,0.06
				c-0.02,0.002-0.043,0.004-0.066,0.006c-0.004-0.054-0.388-0.124-0.173,0.011c0.012-0.001,0.034,0,0.044-0.001
				c-0.016,0.001-0.028,0-0.044,0.001c0.02,0.012,0.031,0.021,0.062,0.039l-0.002,0.001c-0.021-0.012-0.04-0.023-0.066-0.039
				c-0.078,0.005-0.159,0.009-0.214,0.005c0.149,0.011,0.149-0.002,0.214-0.005c-0.139-0.084-0.286-0.176-0.358-0.214
				c-0.215-0.19-0.422-0.393-0.614-0.605c-0.942-1.047-1.688-3.874-3.035-5.257c-1.282-1.314-4.179-0.867-4.479,1.183
				c-0.692,4.721,3.595,10.949,8.661,10.986c4.138,0.029,6.955-3.866,8.131-7.395C130.167,112.487,129.27,107.806,126.085,104.938z"
				/>
			<rect x="120.533" y="117.786" width="0" height="0.006"/>
		</g>
		<path d="M177.511,44.46c-0.045-1.677,0.195-3.678-0.266-5.313c-0.517-1.828-1.938-2.511-3.348-2.423
			c-1.41-0.088-2.832,0.596-3.349,2.423c-0.372,1.321-0.19,2.904-0.232,4.254c-0.076,2.47-0.36,4.657,0.849,6.889
			c0.078,0.145,0.23,0.202,0.329,0.326c0.007,0.047,0.009,0.099,0.016,0.146c0.357,2.373,4.417,2.373,4.773,0
			c0.007-0.047,0.009-0.099,0.016-0.146c0.099-0.125,0.25-0.181,0.329-0.326C177.687,48.338,177.568,46.633,177.511,44.46z"/>
		<path d="M166.25,41.509c-0.405-1.032-1.239-1.863-2.223-2.253c-0.442-1.442-1.623-2.009-2.831-1.936
			c-1.262-0.077-2.523,0.517-2.912,2.105c-0.019,0.074-0.021,0.152-0.038,0.225c-0.01,0.051-0.019,0.1-0.025,0.151
			c-0.725,3.306-0.493,6.951-0.608,10.305c-0.161,4.664,6.805,4.546,7.166,0C164.959,47.852,167.259,44.077,166.25,41.509z"/>
	</g>
</g>
<g>
</g>
<g>
</g>
<g>
</g>
<g>
</g>
<g>
</g>
<g>
</g>
<g>
</g>
<g>
</g>
<g>
</g>
<g>
</g>
<g>
</g>
<g>
</g>
<g>
</g>
<g>
</g>
<g>
</g>
</svg>
