<?xml version="1.0" encoding="iso-8859-1"?>
<!-- Generator: Adobe Illustrator 16.0.0, SVG Export Plug-In . SVG Version: 6.00 Build 0)  -->
<!DOCTYPE svg PUBLIC "-//W3C//DTD SVG 1.1//EN" "http://www.w3.org/Graphics/SVG/1.1/DTD/svg11.dtd">
<svg version="1.1" id="Capa_1" xmlns="http://www.w3.org/2000/svg" xmlns:xlink="http://www.w3.org/1999/xlink" x="0px" y="0px"
	 width="187.191px" height="187.19px" viewBox="0 0 187.191 187.19" style="enable-background:new 0 0 187.191 187.19;"
	 xml:space="preserve">
<g>
	<path d="M153.317,166.707c-2.616-1.727-7.286,0.076-10.968,1.861c-3.324-6.469-6.118-12.951-8.074-19.994
		c1.342-1.657,2.19-3.807,2.67-6.047c4.985,2.096,10.536,2.645,14.45-2.028c4.8-5.732,3.171-15.046,0.476-21.305
		c-3.875-9-10.552-13.569-19.6-16.734c-4.153-1.452-12.692-4.406-19.498-4.597c4.498-6.951,5.451-15.778,4.054-23.915
		c8.877-0.53,17.675-2.372,26.569-2.442c5.959-0.047,4.611-9.556-1.075-7.946c-8.733,2.473-17.888,3.139-26.723,5.212
		c-0.097-0.314-0.167-0.643-0.271-0.953c-0.576-1.713-1.911-2.722-3.714-2.828c-2.482-0.146-4.923-0.53-7.371-0.853
		c1.621-2.902,2.741-6.204,3.121-9.871c0.053-0.5,0.055-1.003,0.066-1.505c9.424,2.628,19.361-0.05,24.596-9.306
		c6.05-10.697-1.847-20.012-11.432-23.911C120.882,4.758,107.151,0.93,97.096,8.512C95.772,3.98,93.01,0.368,87.375,0.02
		c-6.558-0.407-11.048,5.466-13.579,10.9c-10.803-6.765-20.68,1.239-22.024,12.649C46.225,21.451,39.674,21.208,36.198,27
		c-3.816,6.359-1.912,12.903,2.566,17.896c-8.075,6.421-9.61,16.476-0.291,24.02c9.088,7.357,20.364,5.318,28.079-1.822
		c2.723,2.988,6.266,5.247,10.193,6.647c-3.234,2.595-5.283,6.418-4.988,11.243c0.032,0.516,0.158,1.025,0.227,1.539
		c-0.267,0.152-0.509,0.367-0.669,0.73c-3.089,7.019-6.079,14.073-9.284,21.041c-1.874,4.073-6.087,9.227-4.36,13.838
		c0.683,1.824,2.497,2.647,4.283,1.743c4.434-2.247,4.767-8.729,6.095-13.043c1.868-6.067,3.863-12.114,5.553-18.238
		c2.844,6.833,8.62,12.735,15.199,15.495c-9.806,9.309-13.135,33.766-11.327,43.334c1.594,8.438,6.09,18.991,15.868,19.838
		c6.487,0.562,9.02-5.071,9.858-11.112c2.738,1.504,5.918,1.589,9.334-0.388c0.334,1.899,0.784,3.776,1.237,5.65
		c1.008,4.167,1.817,8.329,2.617,12.504c-3.729,0.744-8.497,0.976-8.31,5.628c0.087,2.131,2.027,3.779,4.03,3.495
		c0.069,0.077,0.392,0.131,1.091,0.152c1.178-0.066,2.347-0.171,3.512-0.355c2.462-0.39,4.571-1.133,6.735-2.361
		c1.722-0.976,2.39-2.968,1.967-4.832c-1.215-5.352-3.476-10.784-5.267-15.987c-0.77-2.237-1.489-4.549-2.539-6.676
		c-0.161-0.328-0.399-0.619-0.646-0.889c1.72-1.898,3.39-4.218,4.435-6.656c1.803,1.479,4.049,2.371,6.796,2.229
		c0.365-0.019,0.687-0.1,1.024-0.156c1.491,8.411,4.506,16.655,8.002,24.361c0.968,2.133,3.599,2.19,5.411,1.418
		c3.745-1.597,10.799-2.219,12.322-6.561C155.495,169.172,154.585,167.544,153.317,166.707z M61.652,46.319
		c-1.932,6.31-0.788,12.415,2.299,17.381c-5.506,3.901-12.13,4.9-18.752,1.778c-9.419-4.441-7.924-12.749,0.334-17.333
		c1.679-0.932,2.29-3.776,0.655-5.08c-9.413-7.503-4.586-19.04,7.14-11.511c2.647,1.7,5.112-1.085,4.738-3.643
		c-1.476-10.085,5.523-16.373,14.718-10.364c2.785,1.82,6.093-2.33,3.754-4.581C81.894,5.657,91.56,1.947,91.911,14.95
		c0.09,3.339,4.007,3.942,5.812,1.574c6.949-9.114,17.569-6.943,16.067,5.336c-0.183,1.483,1.161,2.836,2.46,3.232
		c20.099,6.122,7.09,27.308-9.789,20.019c-0.107-0.046-0.207-0.033-0.314-0.068c-3.099-8.544-11.334-15.38-20.79-14.353
		c-0.76,0.083-1.384,0.401-1.923,0.807C73.911,29.597,64.713,36.319,61.652,46.319z M69.054,49.618
		c1.326-7.955,7.169-11.672,14.004-12.482c0.363,0.271,0.803,0.493,1.34,0.639c8.019,2.187,14.479,4.858,14.977,14.319
		c0.431,8.204-5.447,14.817-13.602,15.148C75.882,67.645,67.384,59.634,69.054,49.618z M79.72,86.717
		c-1.874-6.116,0.887-9.111,5.108-11.548c5.189,0.053,9.754-1.46,13.421-4.182c0.302,0.1,0.576,0.235,0.928,0.265
		c3.158,0.273,6.274,0.761,9.413,1.115c2.562,11.086-0.024,29.031-14.087,29.321C86.976,101.843,81.598,92.849,79.72,86.717z
		 M129.96,136.557c0.154,2.654,0.567,7.276-2.681,8.366c-3.206,1.076-5.795-4.171-6.561-6.208c-1.036-2.752-4.918-1.691-4.394,1.211
		c0.036,0.199,0.101,0.394,0.143,0.591c-1.107,0.798-1.845,2.186-1.583,3.952c0.111,0.747-2.865,5.143-3.845,6.341
		c-4.087,5-6.457,0.451-8.355-3.866c-1.598-3.636-8.007-1.887-7.573,2.051c0.231,2.093,1.776,16.152-3.187,13.343
		c-6.266-3.546-6.824-14.589-6.703-20.64c0.216-10.879,4.593-31.726,18.1-32.685c1.29-0.091,1.979-1.776,0.898-2.583
		c0.664-0.417,1.235-0.968,1.862-1.445c3.419,2.161,9.121,1.73,12.841,2.382c7.111,1.245,15.929,2.965,21.34,8.092
		c3.964,3.756,6.083,9.658,6.354,15.008c0.419,8.253-6.021,5.888-10.993,2.842C133.28,131.873,129.793,133.701,129.96,136.557z"/>
</g>
<g>
</g>
<g>
</g>
<g>
</g>
<g>
</g>
<g>
</g>
<g>
</g>
<g>
</g>
<g>
</g>
<g>
</g>
<g>
</g>
<g>
</g>
<g>
</g>
<g>
</g>
<g>
</g>
<g>
</g>
</svg>
