<?xml version='1.0' encoding='iso-8859-1'?>
<!DOCTYPE svg PUBLIC '-//W3C//DTD SVG 1.1//EN' 'http://www.w3.org/Graphics/SVG/1.1/DTD/svg11.dtd'>
<svg version="1.1" xmlns="http://www.w3.org/2000/svg" viewBox="0 0 422.595 422.595" xmlns:xlink="http://www.w3.org/1999/xlink" enable-background="new 0 0 422.595 422.595">
  <g>
    <path d="m321.267,70.236c10.682,11.966 11.311,24.058 2.264,35.805-7.588,9.851-21.538,12.102-37.057,6.648-1.587,6.403-3.156,12.735-4.918,19.843 3.666,0.994 6.723,1.835 9.786,2.651 12.111,3.226 15.916,8.404 17.278,20.924 2.492,22.917 0.346,45.566-2.97,68.181-4.212,28.73-8.406,57.464-12.92,86.147-3.315,21.065-7.624,41.981-10.61,63.088-4.22,29.838-27.97,49.061-58.558,49.041-8.086-0.005-16.172,0.07-24.257,0.009-30.818-0.232-54.106-18.192-58.988-49.973-5.134-33.423-10.631-66.79-15.825-100.204-3.445-22.165-7.492-44.286-9.661-66.583-1.632-16.787-1.317-33.844-0.718-50.739 0.419-11.824 5.581-16.708 17.186-19.848 2.797-0.757 5.618-1.428 8.809-2.236-0.114-2.503 0.058-4.693-0.365-6.761-0.874-4.275-2.065-8.485-3.373-13.708-14.818,7.455-27.828,3.973-37.351-7.097-9.26-10.766-7.733-23.235 2.681-35.842-7.285-1.432-13.121-3.222-19.051-3.616-13.545-0.9-27.136-1.137-40.709-1.603-7.646-0.263-9.673-2.206-9.958-9.864-0.082-2.208-0.114-4.43 0.036-6.632 0.524-7.697 1.975-9.431 9.458-11.327 12.356-3.13 25.014-3.073 37.283-0.853 16.678,3.019 33.022,8.113 47.486,17.211 6.003,3.775 10.918,9.621 15.503,15.203 3.651,4.445 5.607,10.253 9.087,14.874 10.098,13.412 17.943,27.799 20.662,44.619 13.569-1.41 26.577-3.789 39.589-3.821 12.75-0.031 25.505,2.328 39.145,3.728 0.14-0.245 1.226-1.392 1.481-2.701 3.103-15.954 10.961-29.522 20.573-42.337 3.257-4.343 5.236-9.646 8.503-13.98 3.708-4.92 7.407-10.601 12.496-13.598 24.579-14.477 50.879-23.06 79.958-19.802 2.913,0.327 5.774,1.095 8.675,1.559 6.222,0.995 8.297,4.822 8.566,10.854 0.72,16.132 0.308,16.68-16.088,16.281-3.296-0.08-6.647,0.029-9.898,0.534-13.689,2.118-27.986-0.447-43.23,5.925zm-171.848,253.886c-3.06,7.815-3.06,7.815 1.466,17.506 8.311-9.463 8.323-9.555 2.608-20.086-1.481,0.993-2.967,1.991-4.454,2.989 4.446-8.291 5.151-16.63 0.583-25.248-8.763,6.913-8.729,17.806-0.203,24.839zm-17.894-112.697c-3.713,7.342-5.15,14.612 0.369,22.274 10.517-9.205 9.074-19.943 5.936-30.994 3.848-9.46 13.911-9.799 21.785-14.126-2.223-10.296-4.364-20.212-6.577-30.459-10.764-1.156-20.868-2.24-32.254-3.463-0.031,19.869 3.526,39.286 5.969,59.642 2.327-1.401 3.55-2.137 4.772-2.874zm39.599,128.707l-.207-.195c0,4.865 0,9.73 0,16.486 5.236-4.443 8.908-7.558 12.579-10.673-2.102,4.108-5.231,7.243-7.647,10.855-1.496,2.237-3.097,5.45-2.602,7.792 2.269,10.747 7.268,19.158 17.69,25.09 10.245,5.832 21.016,6.458 31.807,7.266 16.749,1.254 25.286-6.233 27.918-22.744 4.104-25.741 7.951-51.523 12.242-77.232 4.115-24.658 8.72-49.234 12.948-73.873 0.723-4.213 0.633-8.566 0.961-13.501-44.393,7.249-87.724,9.846-131.743-0.149 3.921,10.53-0.68,21.431 5.896,32.522 2.79-3.913 4.833-6.778 6.875-9.643-3.371,9.584-13.405,17.243-4.166,29.091 3.191-3.831 6.311-7.576 9.431-11.321-0.21,3.903-1.438,7.355-3.712,9.855-6.267,6.886-6.406,14.08-2.402,22.067 1.88-0.526 3.575-1 5.269-1.475l-.227-.214c-4.41,7.538-5.311,15.095-0.631,22.89 1.702-0.679 2.886-1.151 6.358-2.535-7.548,8.239-6.164,14.956-1.768,22.435 4.401-4.823 8.206-8.993 12.012-13.164-2.039,6.156-5.662,10.72-9.03,15.464-4.073,5.741-3.559,8.688 2.149,14.906zm96.085-153.136c4.666,2.49 7.481,4.207 10.467,5.542 5.956,2.664 7.7,7.685 7.413,13.516-0.361,7.348-0.446,14.847-2.026,21.975-9.567,43.166-14.748,87.043-21.713,130.629-1.335,8.356-2.743,16.719-4.606,24.968-2.201,9.745-7.74,15.978-18.217,18.238-8.397,1.811-16.534,2.663-25.114,2.067-30.905-2.146-47.36-20.031-50.641-43.551-0.914-6.553-2.708-12.984-4.19-19.902-6.538,3.659-8.577,8.456-7.276,14.993 1.579,7.936 2.126,16.168 4.524,23.833 4.991,15.957 14.272,27.937 32.037,31.417 16.144,3.164 32.215,3.685 48.116-0.505 5.897-1.554 12.394-3.806 16.697-7.805 8.425-7.83 13.876-17.746 15.819-29.619 5.584-34.123 11.87-68.131 17.529-102.242 5.176-31.198 10.103-62.441 14.661-93.734 1.066-7.32 2.637-15.004 0.317-22.047-8.871,0.961-16.855,1.825-25.915,2.806-2.522,9.422-5.148,19.219-7.882,29.421zm-227.948-130.817c2.769,0.394 4.519,0.787 6.284,0.87 12.099,0.567 24.263,0.491 36.281,1.782 9.06,0.973 18.185,2.919 26.827,5.795 9.964,3.317 16.703,10.388 18.527,21.367 0.65,3.911-0.655,6.691-4.12,7.953-2.134,0.777-5.861,1.378-6.822,0.273-1.846-2.121-3.006-5.509-3.017-8.376-0.011-3.057 1.635-6.12 2.451-8.823-3.805-4.452-6.86-4.419-10.504-0.612-6.745,7.045-7.943,14.263-3.253,23.1 3.748,7.062 14.963,12.456 22.522,10.526 1.993-0.509 4.148-1.71 5.491-3.24 13.802-15.731 9.429-40.524-9.596-49.471-12.887-6.06-26.482-11.184-40.291-14.551-13.071-3.187-26.827-3.268-41.426,0.339 0.22,4.484 0.426,8.626 0.646,13.068zm256.279,35.18c0.58-14.493 6.75-23.614 20.217-27.339 10.168-2.813 20.817-4.176 31.345-5.32 11.908-1.294 23.921-1.623 36.252-2.394 0-4.883 0-8.806 0-13.871-5.384-0.55-10.376-1.301-15.392-1.532-22.644-1.043-43.226,5.918-63.637,15.106-23.584,10.616-22.086,32.741-12.566,48.96 1.432,2.439 4.897,4.516 7.768,5.121 7.965,1.681 18.407-4.275 21.846-11.665 4.79-10.294 2.771-16.443-8.647-25.431-1.892,1.279-3.91,2.643-5.784,3.909 4.045,12.147 4.037,14.883-0.096,17.496-5.201,3.287-7.815-1.571-11.306-3.04zm-19.741,107.569c-10.971-6.006-21.194-7.716-31.915-7.761-11.39-0.048-22.922,0.75-34.139-0.732-20.43-2.701-39.594,2.323-58.867,7.37-1.721,0.451-3.028,2.482-4.773,3.993 20.819,10.714 110.338,9.211 129.694-2.87zm-26.494-41.29c-24.349-2.268-46.738-5.751-69.686,0.685 2.111,8.73 4.225,17.469 6.372,26.347 19.343,0 37.544,0 56.351,0 2.434-9.452 4.588-17.813 6.963-27.032zm-1.094-8.656c0.588-5.288 1.026-9.226 1.52-13.67-25.692-4.661-50.921-4.789-76.772,0.06 0.499,5.03 0.913,9.199 1.351,13.611 25.208-0.001 49.172-0.001 73.901-0.001zm-109.529-41.934c5.444,13.764 10.681,27.006 16.144,40.819 3.466-0.215 6.575-0.407 10.291-0.637-1.556-21.735-4.36-42.046-19.429-59.105-2.645,7.143-4.934,13.325-7.006,18.923zm129.296,40.243c5.227-12.744 10.375-25.243 15.453-37.771 0.391-0.965 0.695-2.278 0.36-3.176-2.198-5.889-4.582-11.708-7.167-18.205-14.508,17.872-17.641,37.823-19.007,59.153 3.907-0.001 7.041-0.001 10.361-0.001zm-100.89,40.316c3.829-0.876 7.065-1.616 10.787-2.467-1.836-10.004-3.453-18.812-5.061-27.578-4.63,0-8.38,0-12.968,0 2.505,10.391 4.764,19.767 7.242,30.045zm93.775-1.775c2.082-9.417 4.007-18.126 6.071-27.462-4.075-0.572-7.425-1.042-11.003-1.545-1.688,9.621-3.18,18.126-4.793,27.32 3.716,0.645 6.734,1.168 9.725,1.687zm-126.419,72.254c11.865-7.394 5.966-16.775 5.352-25.937-12.175,7.044-6.462,16.394-5.352,25.937zm8.577-.851c-11.984,7.313-4.384,15.446-4.584,23.988 10.046-7.063 5.957-15.017 4.584-23.988zm3.019,22.95c-7.571,7.928-7.859,10.193-2.875,19.152 7.573-4.927 6.687-11.266 2.875-19.152zm144.892-134.125c-9.793-7.092-10.399-7.024-13.003,0 4.467,0 8.735,0 13.003,0zm-146.906-6.383c-4.916,1.411-8.748,2.51-13.831,3.969 10.554,5.231 12.955,4.655 13.831-3.969z"/>
    <path d="m206.21,48.295c0.876-1.295 2.625-4.087 4.579-6.727 6.883-9.301 13.928-8.679 19.045,1.921 5.047,10.455 4.252,21.472 2.038,32.435-0.574,2.844-1.955,5.534-3.045,8.262-1.704,4.262-4.898,6.53-9.475,5.979-10.177-1.224-20.358-2.505-30.464-4.196-3.159-0.528-6.439-1.945-9.06-3.805-11.21-7.955-12.338-22.234 1.864-27.563 7.078-2.656 14.708-3.844 24.518-6.306z"/>
    <path d="m267.828,7.231c6.382-6.528 13.868-9.392 22.755-5.4 5.596,2.514 7.739,7.161 5.659,12.592-4.594,11.998-15.472,18.452-24.635,26.12-2.303,1.927-8.583,0.274-12.498-1.181-5.455-2.027-10.515-5.232-15.546-8.261-9.207-5.543-13.023-13.206-10.168-19.75 2.886-6.615 14.678-11.328 23.079-8.866 3.803,1.116 7.367,3.05 11.354,4.746z"/>
    <path d="m171.124,340.132c2.496-3.682 4.991-7.363 7.487-11.045 0.649,0.559 1.299,1.118 1.948,1.677-3.214,3.057-6.429,6.114-9.643,9.172 0.001,0.001 0.208,0.196 0.208,0.196z"/>
    <path d="m162.261,280.351c1.415-2.505 2.829-5.009 4.244-7.514 0.676,0.561 1.353,1.123 2.03,1.684-2.167,1.872-4.334,3.743-6.501,5.615l.227,.215z"/>
  </g>
</svg>
