<?xml version="1.0" encoding="iso-8859-1"?>
<!-- Generator: Adobe Illustrator 16.0.0, SVG Export Plug-In . SVG Version: 6.00 Build 0)  -->
<!DOCTYPE svg PUBLIC "-//W3C//DTD SVG 1.1//EN" "http://www.w3.org/Graphics/SVG/1.1/DTD/svg11.dtd">
<svg version="1.1" id="Capa_1" xmlns="http://www.w3.org/2000/svg" xmlns:xlink="http://www.w3.org/1999/xlink" x="0px" y="0px"
	 width="192.682px" height="192.682px" viewBox="0 0 192.682 192.682" style="enable-background:new 0 0 192.682 192.682;"
	 xml:space="preserve">
<g>
	<g>
		<path d="M167.883,127.564c-0.056-7.887,2.382-24.281-2.471-32.949c0.056-3.81-0.485-8.051-1.727-12.776
			c-0.324-1.231-1.193-1.736-2.1-1.735c-3.51-10.199-14.572-20.173-24.431-23.979c-23.726-9.159-49.433-7.533-73.012,0.856
			C50.423,40.416,38.234,22.583,23.028,7.34c-2.486-2.492-6.941,0.775-4.943,3.814C29.2,28.055,41.5,44.993,54.957,60.625
			c-12.814,5.65-24.805,13.222-35.217,22.124c-0.944,0.807-0.326,2.113,0.626,2.466c-4.001,4.453-5.31,8.474-4.73,12.105
			c-3.502,11.861-3.149,24.137-1.896,36.398c0.983,9.625,1.787,21.81,6.077,30.797c-0.054,0.447-0.034,0.918,0.184,1.418
			c6.584,15.045,25.146,21.254,43.445,24.024c0.332,0.104,0.68,0.159,1.038,0.14c10.521,1.521,20.882,1.953,28.743,2.291
			c16.111,0.693,65.785,1.981,71.466-20.525c0.711-0.303,1.353-0.817,1.693-1.453C172.063,159.814,167.962,138.777,167.883,127.564z
			 M160.152,115.938c-2.009,0.049-4.074,0.291-6.127,0.568c2.357-1.668,4.454-3.568,6.149-5.796
			C160.18,112.45,160.16,114.195,160.152,115.938z M59.599,65.958c4.532,5.053,9.201,9.928,13.993,14.604
			c0.01,0.06,0.005,0.112,0.016,0.172c0.954,4.963,4.93,10.239,9.523,12.369c6.987,3.241,12.2-1.753,14.708-8.004
			c1.695-4.223,1.107-9.104-3.004-11.599c-2.124-1.288-4.673-1.374-7.114-0.916c-1.506-0.633-3.041-1.198-4.652-1.482
			c-2.21-0.39-4.118-0.105-5.67,0.636c-2.865-2.941-5.655-5.944-8.347-9.03c11.452-3.529,23.336-5.737,35.92-5.921
			c16.348-0.24,33.059,5.203,45.081,16.35c17.092,15.845-10.375,26.833-23.356,28.296c-20.272,2.285-94.365,9.575-99.116-18.395
			c-0.079-0.466-0.31-0.826-0.591-1.137C37.59,75.661,48.406,70.22,59.599,65.958z M22.908,91.574
			c11.066,29.021,107.863,19.337,127.14,10.831c4.041-1.783,6.968-3.916,8.999-6.269c-2.059,12.381-10.792,18.801-22.115,21.973
			c-1.787,0.238-3.556,0.543-5.242,1.074c-0.162,0.051-0.288,0.144-0.418,0.229c-14.658,2.642-32.21,1.078-45.503-0.05
			C68.841,117.925,20.269,114.78,22.908,91.574z M101.551,150.583c-1.07,0.008-2.901,0.099-3.807,1.011
			c-0.922-2.894-1.767-5.811-2.569-8.74c3.201-2.853,12.082-0.47,15.421,0.047c2.685,0.416,5.784,1.233,8.785,1.498
			c-0.751,2.173-1.478,4.354-2.196,6.539C112.654,150.406,106.524,150.546,101.551,150.583z M115.706,155.372
			c-0.821,2.506-1.638,5.015-2.492,7.506c-3.909-0.558-7.896-0.077-11.86-0.604c-0.955-2.652-1.867-5.316-2.752-7.989
			c0.538,0.265,1.109,0.479,1.519,0.639c0.64,0.25,1.101-0.399,1.057-0.968c2.012,0.188,4.023,0.355,6.032,0.584
			C109.167,154.764,112.862,155.668,115.706,155.372z M104.971,137.923c-3.325-0.249-7.838-0.544-10.707,1.537
			c-0.559-2.212-1.074-4.437-1.54-6.675c10.189-0.405,20.064,2.046,30.146,2.365c-0.567,1.414-1.153,2.822-1.683,4.252
			C115.962,138.342,109.973,138.297,104.971,137.923z M105.033,128.389c-4.198-0.205-8.777-0.404-13.029,0.448
			c-0.183-1.022-0.397-2.038-0.555-3.069c-0.006-0.037-0.04-0.041-0.048-0.076c11.019,0.844,23.89,1.201,35.801-0.274
			c-0.793,1.552-1.488,3.144-2.2,4.728C118.537,128.823,111.519,128.703,105.033,128.389z M19.459,104.393
			c12.394,12.936,50.131,19.129,60.958,20.289c1.716,0.185,3.553,0.366,5.448,0.543c-0.298,0.629-0.563,1.272-0.856,1.904
			c-5.031-1.381-10.525-1.833-15.608-2.41c-4.835-0.549-9.818-1.117-14.443,0.234c-0.269-1.16-0.502-2.328-0.787-3.484
			c-0.546-2.221-3.413-2.836-4.982-1.314c-0.045,0.044-0.081,0.096-0.126,0.14c-0.087-0.262-0.194-0.521-0.384-0.718
			c-2.024-2.098-5.751-2.399-8.476-3.083c-3.877-0.972-7.811-1.746-11.768-2.306c-2.206-0.313-6.982-1.088-8.838,0.994
			C19.414,111.583,19.322,107.984,19.459,104.393z M77.03,135.877c-3.264-0.015-6.527-0.084-9.791-0.111
			c-3.031-0.024-6.591-0.287-9.756,0.375c-0.653-2.981-1.344-5.955-2.017-8.932c4.268-0.124,9.443,1.112,13.368,1.689
			c4.761,0.701,9.397,1.896,14.078,2.896c-0.634,1.429-1.304,2.841-1.921,4.277C79.789,135.757,78.497,135.884,77.03,135.877z
			 M79.097,140.609c-0.776,1.859-1.57,3.713-2.329,5.578c0.007-0.547-0.257-1.101-0.777-1.48c-1.641-1.2-4.826-0.873-7.032-1.032
			c-3.226-0.233-6.471-0.503-9.708-0.431c-0.066,0.002-0.087,0.057-0.149,0.064c-0.301-1.424-0.656-2.836-0.962-4.259
			c3.435-0.237,7.378,0.47,10.506,0.665C71.295,139.88,75.651,140.909,79.097,140.609z M19.76,117.518
			c0.16-0.072,0.298-0.188,0.358-0.384c0.32-1.047,10.727,1.439,12.361,1.837c4.176,1.018,9.8,4.039,14.266,3.881
			c-0.647,0.729-1.346,1.412-1.963,2.168c-0.144-0.158-0.228-0.342-0.46-0.457c-2.397-1.199-5.905-1.073-8.557-1.562
			c-3.346-0.616-6.696-1.237-10.095-1.464c-2.153-0.143-4.204,0.182-5.55,1.15C19.956,120.969,19.875,119.242,19.76,117.518z
			 M20.429,125.884c2.236-3.26,16.728,2.095,21.963,2.351c-0.73,1.014-1.505,1.992-2.187,3.045c-0.126-0.066-0.189-0.196-0.34-0.232
			c-4.526-1.081-10.364-0.429-14.986,0.045c-1.182,0.121-2.604,0.415-3.661,1.096C20.927,130.094,20.667,127.991,20.429,125.884z
			 M21.853,136.668c-0.103-0.658-0.182-1.326-0.281-1.986c0.055-0.082,0.149-0.121,0.175-0.229c0.329-1.34,11.765,0.061,16.378,0.26
			c-1.434,2.475-2.794,5.001-4.015,7.612c0.078-0.681-0.223-1.406-0.989-1.577c-1.79-0.4-3.535-0.087-5.357-0.047
			c-1.698,0.037-3.396,0.074-5.094,0.111C22.377,139.424,22.064,138.027,21.853,136.668z M26.619,162.048
			c-0.275-6.08-1.991-12.407-3.4-18.553c1.184,0.026,2.367,0.052,3.55,0.078c2.114,0.046,4.28,0.438,6.352-0.025
			c0.27-0.06,0.443-0.233,0.608-0.407C30.917,149.285,28.605,155.699,26.619,162.048z M27.95,167.958
			c6.076-13.823,11.718-28.108,21.688-39.555c4.088,17.614,7.362,35.38,10.828,53.122C47.75,179.414,35.352,175.449,27.95,167.958z
			 M59.743,146.398c3.083,0.173,6.158,0.607,9.217,1.006c2.143,0.279,5.089,1.4,7.032,0.141c0.182-0.117,0.283-0.275,0.401-0.424
			c-1.089,2.691-2.212,5.371-3.262,8.079c-0.2-0.079-0.366-0.21-0.62-0.198c-1.883,0.089-3.624,0.794-5.508,0.987
			c-1.811,0.185-3.609-0.074-5.372-0.476C61.028,152.469,60.374,149.438,59.743,146.398z M62.269,158.727
			c2.994,0.825,6.515,1.229,9.402,0.271c-2.121,5.58-4.195,11.18-6.192,16.808C64.45,170.104,63.374,164.413,62.269,158.727z
			 M93.227,184.055c-6.402-0.119-15.005-0.365-24.027-1.339c5.567-16.413,11.847-32.522,18.727-48.425
			c1.039,16.963,8.96,34.499,15.059,49.941C99.5,184.191,96.19,184.109,93.227,184.055z M102.654,165.873
			c3.026,0.682,6.292,0.959,9.244,0.734c-1.398,3.886-2.883,7.738-4.592,11.502C105.731,174.037,104.166,169.962,102.654,165.873z
			 M111.27,184.213c8.28-16.889,11.842-35.599,19.74-52.625c1.138,2.087,2.266,4.199,3.381,6.324c-0.001,0-0.002,0-0.002,0
			c-1.813,0.336-1.406,3.418,0.437,3.229c0.399-0.041,0.799-0.028,1.199-0.062c5.717,11.26,10.583,23.063,11.634,35.541
			c0.012,0.144,0.08,0.246,0.106,0.38C137.585,182.537,123.853,183.977,111.27,184.213z M159.905,162.883
			c-0.065,2.686-0.971,3.997-0.095,3.708c-0.009,0.03-0.01,0.065-0.018,0.095c-0.629,0.285-1.23,0.701-1.713,1.399
			c-1.297,1.876-2.863,3.492-4.566,4.964c-0.37-4.352-1.299-8.678-2.597-12.953c2.629,0.713,6.007,1.326,9.012,1.149
			C159.918,161.791,159.918,162.337,159.905,162.883z M159.995,156.759c-0.433,0.095-0.872,0.187-1.327,0.246
			c-2.967,0.388-5.917-0.001-8.854-0.413c-0.037-0.005-0.058,0.023-0.094,0.021c-1.045-2.974-2.259-5.913-3.562-8.821
			c2.083,0.003,4.166,0.081,6.248,0.128c2.43,0.056,5.077,0.411,7.604,0.287c0.003,2.416,0.007,4.831,0.005,7.246
			C160.014,155.889,159.999,156.323,159.995,156.759z M160.007,144.035c-4.298-0.348-9.206,0.589-13.152,1.027
			c-0.608,0.068-1.251,0.14-1.894,0.23c-0.723-1.536-1.521-3.01-2.281-4.523c2.3-0.013,4.602,0.027,6.906,0.073
			c3.221,0.064,7.418,0.621,10.445-0.856C160.029,141.336,160.006,142.686,160.007,144.035z M160.051,136.482
			c-3.718-0.819-8.326,0.295-12.134,0.377c-2.365,0.051-4.72,0.123-7.064,0.285c-1.59-3.055-3.186-6.039-4.767-8.976
			c0.737-0.037,1.475-0.088,2.209-0.106c3.585-0.086,7.178-0.021,10.764-0.01c2.578,0.01,7.587,0.812,11.042-0.057
			C160.061,130.825,160.063,133.654,160.051,136.482z M153.021,123.1c-4.624,0.207-9.249,0.316-13.865,0.66
			c-0.897,0.067-2.143,0.088-3.391,0.202c2.459-0.54,4.832-1.19,7.103-1.953c1.535-0.058,3.071-0.124,4.603-0.177
			c3.829-0.132,8.486,0.243,12.658-0.342c-0.004,0.469-0.002,0.938-0.006,1.406C158.41,123.098,154.844,123.02,153.021,123.1z"/>
		<path d="M179.352,54.615c-0.08-0.169-0.161-0.339-0.241-0.508c-0.41-0.863-1.166-1.366-2.017-1.609
			c-0.635-1.185-4.942-5.421-6.055-6.571c-3.51-3.63-7.222-6.872-11.058-10.143c-9.951-8.484-20.831-16.012-32-22.859
			c0.166-1.151,0.247-2.295,0.267-3.361c0.03-1.64-0.926-2.83-2.226-3.483c-0.543-1.494-1.393-2.859-2.731-3.935
			c-3.498-2.81-7.813-2.59-11.748-0.892c-3.744,1.616-6.553,5.222-7.031,9.262c-0.484,4.104,3.385,12.234,8.462,10.823
			c0.186-0.051,0.287-0.22,0.45-0.307c2.752,1.631,5.992,2.175,9.056,0.841c1.422-0.619,2.474-1.623,3.297-2.811
			c11.5,9.101,23.343,17.787,34.049,27.841c3.355,3.151,11.252,15.762,17.211,13.403C179.486,59.338,180.505,57.047,179.352,54.615z
			"/>
	</g>
</g>
<g>
</g>
<g>
</g>
<g>
</g>
<g>
</g>
<g>
</g>
<g>
</g>
<g>
</g>
<g>
</g>
<g>
</g>
<g>
</g>
<g>
</g>
<g>
</g>
<g>
</g>
<g>
</g>
<g>
</g>
</svg>
