<?xml version="1.0" encoding="iso-8859-1"?>
<!-- Generator: Adobe Illustrator 16.0.0, SVG Export Plug-In . SVG Version: 6.00 Build 0)  -->
<!DOCTYPE svg PUBLIC "-//W3C//DTD SVG 1.1//EN" "http://www.w3.org/Graphics/SVG/1.1/DTD/svg11.dtd">
<svg version="1.1" id="Capa_1" xmlns="http://www.w3.org/2000/svg" xmlns:xlink="http://www.w3.org/1999/xlink" x="0px" y="0px"
	 width="191.239px" height="191.239px" viewBox="0 0 191.239 191.239" style="enable-background:new 0 0 191.239 191.239;"
	 xml:space="preserve">
<g>
	<g>
		<path d="M190.105,89.329c-2.485-16.517-11.287-35.418-24.728-45.973c-0.639-4.055-7.242-3.668-7.709,0.925
			c-2.579,25.403-45.828,66.845-58.631,25.521c-3.78-12.205-2.526-25.293-6.735-37.494c-7.576-21.959-36.489-18.784-53.087-10.676
			c-5.527,2.7-8.868,6.927-10.817,11.995c-6.606-2.79-14.818-2.074-21.607-0.885c-2.609,0.457-3.186,4.022-1.508,5.71
			c4.747,4.775,9.493,9.55,14.239,14.325c-6.678,3.252-12.579,7.661-18.469,12.337c-2.332,1.851-0.482,6.487,2.523,6.092
			c8.066-1.06,16.379-0.965,24.509-1.314c0.838,5.775,1.634,11.136,1.712,15.469c0.496,27.332-28.09,51.35,7.943,65.859
			c3.687,14.204,17.896,23.683,33.683,24.472c12.697,0.634,21.484-7.809,25.841-18.405c4.088,1.407,8.806,1.334,13.039,1.608
			c6.396,0.413,12.812,0.398,19.22,0.423c2.073,3.296,4.922,6.286,8.701,8.742c1.793,1.165,3.714,2.065,5.715,2.731
			c-0.03,0.423-0.024,0.845-0.06,1.267c-0.116,1.362,2.131,1.664,2.384,0.323c0.058-0.31,0.083-0.619,0.137-0.929
			c13.818,3.188,30.495-4.09,36.563-16.463c4.412-9,3.026-18.748-1.751-26.661C192.992,120.428,191.954,101.618,190.105,89.329z
			 M15.328,38.802c3.808,0.002,7.535,0.455,11.409,0.985c-0.526,3.082-0.718,6.34-0.675,9.685
			C22.484,45.916,18.906,42.359,15.328,38.802z M13.035,64.847c4.175-3.036,8.532-5.766,13.455-7.581
			c0.255,2.719,0.598,5.432,0.964,8.096C22.675,65.169,17.844,65.083,13.035,64.847z M52.979,138.743
			c-0.441,7.257,0.227,15.605-0.707,22.709c-5.225-5.06-8.518-12.128-8.278-19.599c0.145-4.533,1.36-8.619,3.33-12.16
			c-0.073,2.168,0.005,4.348,0.022,6.331c0.052,6.152,0.198,12.536,1.515,18.566c0.355,1.624,3.062,1.281,2.918-0.396
			c-0.859-10.129-0.498-20.177-0.07-30.289c0.779-0.773,1.618-1.481,2.485-2.155C52.489,126.849,53.245,134.358,52.979,138.743z
			 M53.761,162.827c0.034-0.062,0.097-0.077,0.119-0.155c1.247-4.415,2.015-8.883,2.583-13.458c0.604,0.687,1.295,1.285,2.021,1.837
			c-0.425,2.426-0.133,5.334-0.105,7.212c0.038,2.766,0.252,5.622,1.164,8.242C57.472,165.519,55.519,164.298,53.761,162.827z
			 M58.944,119.356c-0.034-0.182-0.162-0.305-0.253-0.454c1.45-0.73,2.99-1.293,4.565-1.771c-0.467,2.012,0.028,4.697,0.094,6.529
			c0.091,2.594-0.133,5.506,0.496,8.057c-1.963,0.537-3.9,1.508-5.579,2.776C59.057,129.326,59.79,123.936,58.944,119.356z
			 M62.338,167.638c-0.246-3.109-0.308-6.261-0.201-9.376c0.051-1.515,0.466-3.251,0.751-4.974c1.211,0.367,2.463,0.502,3.716,0.512
			c-0.05,1.214-0.06,2.433-0.086,3.626c-0.082,3.743,0.099,7.492,0.29,11.233C65.283,168.439,63.781,168.126,62.338,167.638z
			 M68.287,147.439c-2.541,0.901-5.482-0.444-7.592-2.426c-3.409-3.206-0.331-7.595,2.807-10.284
			c0.099,0.166,0.107,0.381,0.252,0.51c2.451,2.214,6.405,0.145,8.209,3.377c1.207,2.164,0.099,5.453-1.367,7.184
			c-0.408,0.481-0.852,0.838-1.309,1.13C68.914,146.946,68.588,147.119,68.287,147.439z M69.519,168.923
			c0.154-2.827,0.31-5.654,0.552-8.477c0.21-2.446,0.847-5.038,1.176-7.585c0.554-0.242,1.111-0.465,1.636-0.809
			c0.148-0.099,0.272-0.227,0.417-0.33c-0.232,5.677-0.305,11.362,0.104,16.981C72.097,168.872,70.798,168.963,69.519,168.923z
			 M74.066,131.934c-0.277-0.175-0.536-0.38-0.829-0.525c-1.646-0.815-3.956-1.296-6.021-1.052c0.3-2.196,0.17-4.554,0.246-6.697
			c0.074-2.12,0.784-5.425-0.173-7.444c1.664-0.256,3.355-0.421,5.084-0.383c1.169,0.45,2.292,0.84,3.392,1.222
			C74.279,121.568,74.111,126.834,74.066,131.934z M83.955,164.189c1.724-6.3,2.37-12.724,2.834-19.267
			c0.443-6.24,1.389-14.025-0.14-20.134c-0.494-1.975-3.545-2.011-4.018,0c-1.294,5.496,0.031,12.003,0.153,17.629
			c0.173,8.021-0.103,15.99-2.203,23.782c-0.021,0.08,0.035,0.125,0.026,0.2c-1.212,0.633-2.493,1.183-3.879,1.585
			c0.886-9.558,1.562-19.15,2.321-28.718c0.494-6.232,2.311-14.114,1.092-20.562c2.51,1.095,4.866,2.521,7.135,4.989
			c4.026,4.383,5.617,10.724,6.02,16.486C93.931,149.241,90.812,158.701,83.955,164.189z M140.229,161.387
			c-2.307-1.487-4.018-3.472-5.282-5.728c0.122,0.025,0.238,0.101,0.359,0.094c0.552-0.03,0.94,0.11,1.443,0.184
			c0.472,0.068,0.691-0.616,0.202-0.734c-0.744-0.179-0.326-12.806-0.263-13.979c0.281-5.235,1.952-10.701,1.847-15.88
			c-0.003-0.166-0.093-0.275-0.133-0.418c0.959-1.12,2.108-2.024,3.238-2.948c0.018,5.857,0.431,11.701,0.961,17.539
			c-0.246,1.732-0.057,3.546,0.483,5.257c0.569,6.186,1.053,12.372,1.084,18.572C142.771,162.809,141.439,162.167,140.229,161.387z
			 M145.853,119.167c4.435-2.422,9.508-3.893,14.823-4.281c-0.076,0.088-0.106,0.208-0.174,0.303
			c-1.198-0.227-2.521,0.407-2.342,1.911c0.515,4.307,1.171,8.251,1.063,12.43c-1.722-0.682-3.558-1.177-5.417-1.488
			c0.1-1.377,0.258-2.749,0.318-4.138c0.094-2.135,0.772-5.021-1.021-6.57c-0.703-0.606-1.577-0.606-2.28,0
			c-1.811,1.564-1.08,4.421-1.021,6.57c0.04,1.45,0.219,2.883,0.333,4.322c-1.086,0.781-1.349,2.406-0.737,3.752
			c-0.826,0.223-1.659,0.642-2.502,1.172C146.53,128.483,146.144,123.82,145.853,119.167z M153.11,165.025
			c-1.958-0.066-3.899-0.25-5.751-0.691c0.395-4.121,0.555-8.254,0.52-12.393c1.68,1.495,3.601,2.545,5.672,2.984
			C152.742,158.051,152.835,161.614,153.11,165.025z M160.358,164.406c-1.317,0.272-2.646,0.488-3.992,0.585
			c0.09-0.873,0.155-1.748,0.244-2.621c0.248-2.429,0.878-4.964,1.081-7.441c0.982-0.197,1.979-0.506,2.991-1.013
			c0.118-0.059,0.222-0.146,0.337-0.209c0.01,0.232,0.03,0.467,0.033,0.697C161.104,157.755,160.927,161.102,160.358,164.406z
			 M159.256,147.369c-2.033,2.063-4.486,2.255-6.821,0.641c-2.296-1.588-4.306-5.001-4.255-7.726
			c0.052-2.741,3.188-5.13,6.139-5.943c3.194,0.724,6.458,2.235,7.406,5.511C162.502,142.53,161.119,145.478,159.256,147.369z
			 M126.269,151.807c-4.487-0.004-8.974-0.024-13.462-0.044c-3.997-0.018-8.393-0.717-12.55-0.547
			c-0.161-0.242-0.492-0.405-0.795-0.271c-0.068,0.031-0.122,0.034-0.188,0.062c0.571-2.431,0.954-4.896,1.088-7.334
			c0.829-15.082-11.118-36.366-28.789-33.247c-0.307,0.054-0.552,0.16-0.778,0.28c-16.07-3.066-29.705,9.909-33.249,26.255
			c-0.701,3.23-0.852,6.309-0.625,9.247c-21.673-17.187-4.271-34.479-0.07-55.527c2.154-10.791-1.309-23.397-2.62-34.102
			c-1.305-10.65-1.14-21.215,8.69-28.607c10.782-8.107,32.728-8.041,40.885,3.791c6.557,9.511,5.212,24.885,6.987,36.015
			c8.25,51.696,65.753,17.995,73.812-17.793c7.538,10.007,12.565,21.433,15.941,33.573c4.185,15.051,2.645,25.931-3.775,38.929
			c-3.588-3.776-8.039-6.767-12.959-8.5c-0.298-0.104-0.574-0.1-0.854-0.11c0.614-0.963,0.506-2.375-0.896-2.648
			C138.114,106.55,120.961,131.714,126.269,151.807z M168.048,139.857c-0.54-4.112-2.802-6.904-5.815-8.801
			c0.795-3.312,1.247-6.851,0.882-10.245c2.534,1.373,4.862,3.038,6.922,4.915c-0.179,11.31,0.431,22.658,0.925,33.954
			c-2.242,1.751-4.871,3.076-7.691,3.969c0.605-2.641,1.033-5.307,1.306-8.012c0.174-1.721,0.456-3.603,0.444-5.424
			C167.285,147.26,168.511,143.385,168.048,139.857z M176.19,153.338c-0.505,1.035-1.167,1.949-1.848,2.845
			c0.366-8.131,0.722-16.28,0.775-24.422C178.979,137.959,180.019,145.484,176.19,153.338z"/>
		<path d="M46,42.667c-0.589,0.811-0.945,1.803-1.2,2.861c-0.196,0.459-0.382,0.929-0.429,1.499
			c-0.105,1.287-1.035,2.542-1.178,3.952c-0.248,2.431,0.967,4.386,2.498,6.145c2.692,3.092,7.781,0.548,7.791-3.227
			c0.007-2.689,0.293-5.157,0.692-7.784C54.944,41.056,49.071,38.445,46,42.667z"/>
	</g>
</g>
<g>
</g>
<g>
</g>
<g>
</g>
<g>
</g>
<g>
</g>
<g>
</g>
<g>
</g>
<g>
</g>
<g>
</g>
<g>
</g>
<g>
</g>
<g>
</g>
<g>
</g>
<g>
</g>
<g>
</g>
</svg>
