<?xml version="1.0" encoding="iso-8859-1"?>
<!-- Generator: Adobe Illustrator 16.0.0, SVG Export Plug-In . SVG Version: 6.00 Build 0)  -->
<!DOCTYPE svg PUBLIC "-//W3C//DTD SVG 1.1//EN" "http://www.w3.org/Graphics/SVG/1.1/DTD/svg11.dtd">
<svg version="1.1" id="Capa_1" xmlns="http://www.w3.org/2000/svg" xmlns:xlink="http://www.w3.org/1999/xlink" x="0px" y="0px"
	 width="194.224px" height="194.224px" viewBox="0 0 194.224 194.224" style="enable-background:new 0 0 194.224 194.224;"
	 xml:space="preserve">
<g>
	<g>
		<path d="M181.43,72.128c-0.062-0.604-0.306-1.135-0.646-1.61c-0.37-0.919-0.706-1.842-1.106-2.755
			c-1.987-4.535-8.509-0.607-6.612,3.864c0.139,0.326,0.243,0.65,0.379,0.975C163.518,90,140.257,89.219,122.652,89.107
			c-22.397-0.142-25.932-7.601-19.888-28.038c5.265-17.801,3.547-34.896-9.088-49.01C72.322-11.799,38.463,2.307,38.401,31.988
			c-2.986-0.361-6.117-0.3-9.32,0.254C18.76,34.027,3.631,42.858,6.978,55.316c2.675,9.958,15.702,14.986,24.768,16.192
			c5.762,0.767,11.552,0.381,17.017-1.679c4.288-1.617,11.801-5.868,11.368-11.194c-0.063-0.777-0.418-1.435-0.92-1.916
			c0.812,0.823,2.566,0.556,2.427-0.849c-1.15-11.599-8.347-19.7-17.993-22.76c4.357-35.546,44.962-29.864,53.597,1.433
			c4.828,17.494-14.701,39.816-2.618,55.493c1.718,2.228,4.136,3.847,6.971,5.034c-12.426,1.352-22.084,13.832-23.048,25.854
			c-2.043,25.499,29.036,75.533,59.146,53.506c2.438-1.784,1.089-6.084-2.163-5.132c-16.741,4.903-29.036-1.3-39.374-14.93
			c-8.782-11.581-14.033-28.646-7.044-42.228c9.066-17.616,30.146-5.821,42.874-0.641c10.569,4.302,21.282,5.896,31.662,1.438
			c-0.684,1.367-1.484,2.705-2.766,3.979c-3.333,3.313-8.201,4.878-12.651,5.919c-5.444,1.274-16.628,2.213-20.718-2.902
			c-0.825-1.032-2.534,0.08-2.163,1.26c2.926,9.312,16.631,8.854,24.55,7.693c9.996-1.465,25.668-10.37,22.477-22.667
			c-0.633-2.438-4.336-3.096-5.532-0.723c-0.375,0.745-0.658,1.468-0.952,2.192c-0.354-0.105-0.736-0.146-1.164-0.01
			c-17.002,5.415-31.12-4.425-46.523-9.757c8.564,0.202,17.25-0.791,22.695-1.092c13.375-0.74,28.062-4.108,35.963-14.498
			c17.16,58.8-30.553,111.27-93.268,102.787c-33.702-4.56-75.045-31.146-57.422-69.452c5.797-12.602,22.417-26.606,19.163-41.837
			c-0.135-0.63-0.728-1.196-1.346-1.346c-0.542-0.131-1.085-0.262-1.628-0.393c-0.189-0.046-0.432,0.057-0.471,0.268
			c-5.474,29.741-37.523,45.06-25.256,78.54c10.529,28.734,51.944,41.329,79.045,43.112
			C163.861,198.496,203.942,131.086,181.43,72.128z M58.957,56.483c-0.592-0.431-1.35-0.63-2.195-0.415
			c-3.371,0.852-5.442,4.481-8.51,6.221c-3.438,1.95-7.574,2.41-11.449,2.419c-7.459,0.017-15.712-2.847-20.852-8.371
			c-1.089-1.171-1.635-2.301-1.836-3.392c0.057,0.028,0.063,0.089,0.127,0.112c11.863,4.292,27.299,7.497,39.594,3.292
			c1.971-0.674,1.768-3.932-0.514-3.796c-13.509,0.809-25.019,1.416-38.343-2.169c-0.275-0.074-0.466,0.029-0.681,0.085
			c1.541-4.567,9.215-8.053,13.023-9.503C41.714,35.484,51.512,45.481,58.957,56.483z"/>
		<path d="M70.68,26.38c-0.707-4.399-7.071-3.688-7.071,0.485c-0.037-0.01-0.074-0.021-0.111-0.03
			c-0.022,0.406-0.034,0.811-0.054,1.217c-0.344,0.88-0.403,1.932-0.372,2.988c-0.098,0.482-0.168,0.944-0.151,1.325
			c0.018,0.39,0.107,0.745,0.251,1.061c0.004,0.099,0.017,0.229,0.017,0.322c-0.093,2.587,1.932,3.85,3.959,3.812
			c1.117,0.021,2.198-0.379,2.96-1.156c1.081-0.082,1.967-0.946,2.372-1.949C73.452,32.045,72.792,28.259,70.68,26.38z"/>
		<path d="M157.768,128.517c-5.388,4.559-8.886,8.964-15.997,11.182c-8.589,2.678-16.777-0.062-21.941-7.298
			c-1.346-1.886-3.943-0.296-3.054,1.785c5.099,11.938,21.727,14.789,33.653,9.685c-1.282,4.872-2.381,9.153-6.573,12.945
			c-4.541,4.109-11.452,4.832-17.259,4.534c-5.318-0.272-10.475-2.211-14.884-5.118c-5.2-3.429-5.847-8.146-7.653-13.526
			c-0.279-0.835-1.348-0.984-1.833-0.24c-8.273,12.714,13.324,23.867,22.733,25.116c16.235,2.154,34.936-8.146,32.259-26.812
			c-0.05-0.346-0.169-0.631-0.308-0.892c2.591-2.28,4.577-5.151,5.609-8.593C163.397,128.367,159.82,126.782,157.768,128.517z"/>
	</g>
</g>
<g>
</g>
<g>
</g>
<g>
</g>
<g>
</g>
<g>
</g>
<g>
</g>
<g>
</g>
<g>
</g>
<g>
</g>
<g>
</g>
<g>
</g>
<g>
</g>
<g>
</g>
<g>
</g>
<g>
</g>
</svg>
