<?xml version='1.0' encoding='iso-8859-1'?>
<!DOCTYPE svg PUBLIC '-//W3C//DTD SVG 1.1//EN' 'http://www.w3.org/Graphics/SVG/1.1/DTD/svg11.dtd'>
<svg version="1.1" xmlns="http://www.w3.org/2000/svg" viewBox="0 0 438.115 438.115" xmlns:xlink="http://www.w3.org/1999/xlink" enable-background="new 0 0 438.115 438.115">
  <g>
    <path d="m141.798,36.668c9.282-3.39 11.633-2.997 16.987,4.887 11.788,17.358 23.485,34.783 34.915,52.378 11.664,17.954 22.374,36.393 25.668,58.704 0.616-1.741 1.529-3.438 1.802-5.232 2.141-14.043 6.891-27.139 14.568-39.054 14.358-22.28 28.842-44.481 43.481-66.578 5.348-8.072 7.651-8.44 18.664-5.073 24.646-24.121 77.2-22.115 104.421,9.598 18.276,21.292 29.289,45.917 33.112,73.508 2.727,19.685 4.105,39.564 0.625,59.41-5.802,33.086-20.007,62.63-41.085,88.21-25.645,31.122-58.027,54.02-95.149,70.066-12.5,5.403-24.936,10.975-37.229,16.832-6.672,3.179-12.45,7.683-16.313,14.95 7.553,2.026 9.716,7.769 9.759,14.094 0.05,7.333-0.412,14.776-1.701,21.984-1.525,8.534-5.88,12.004-14.556,12.206-12.863,0.299-25.742,0.283-38.607,0.022-9.041-0.183-12.641-3.261-14.177-12.274-1.998-11.728 1.042-22.549 7.446-32.646-4.378-8.59-11.074-14.753-19.588-18.754-12.324-5.791-25.214-10.472-37.2-16.866-19.145-10.212-39.391-19.356-56.252-32.653-42.305-33.361-73.103-75.446-79.706-130.41-5.518-45.931 1.758-90.017 33.418-126.511 23.442-27.021 53.429-32.454 86.421-22.436 6.779,2.059 12.637,7.149 20.276,11.638zm107.562,160.986l-.286-.249c9.938,7.484 20.455,8.94 31.863,3.432 22.248-10.742 33.789-41.23 24.634-65.411-6.546-17.29-28.505-22.701-41.351-9.179-8.25,8.683-14.638,19.224-21.238,29.338-2.308,3.536-2.95,8.245-3.87,12.522-0.16,0.746 2.086,2.01 3.52,3.305-4.149,15.192-4.149,15.192-1.569,19.996 3.243-4.991 5.979-9.703 9.273-13.987 1.097-1.427 3.572-2.121 5.524-2.401 0.766-0.11 2.799,2.357 2.586,2.751-0.958,1.778-2.381,4.432-3.878,4.599-6.8,0.761-7.548,6.364-9.253,10.941-1.091,2.928 0.386,5.037 4.045,4.343zm-20.729,172.89c6.337-11.243 14.537-21.084 26.495-26.967 9.907-4.875 19.895-9.633 30.078-13.888 33.256-13.898 63.602-31.882 89.223-57.849 18.807-19.061 31.714-41.386 41.681-65.717 10.19-24.875 10.781-51.005 8.239-77.25-2.692-27.792-11.998-53.355-30.607-74.41-20.387-23.067-45.503-29.006-74.047-19.396-4.308,1.451-8.111,4.401-12.592,6.907 6.528,8.924 4.732,17.009 0.533,24.894-3.98,7.476-8.135,14.867-12.467,22.145-4.271,7.176-8.859,14.163-13.666,21.803 4.506,0.76 8.085,1.16 11.561,1.99 9.149,2.185 16.054,7.26 19.598,16.223 10.525,26.62 6.784,52.001-14.302,71.984-9.248,8.764-20.669,13.708-34.184,12.88-20.254-1.241-41.606-17.693-43.578-40.935-0.037-0.44-0.988-0.803-3.398-2.637 1.557,11.475-5.263,18.199-9.938,26.241-8.357,14.374-38.252,21.552-53.724,13.625-22.779-11.67-36.936-36.759-33.086-62.009 4.017-26.343 9.812-32.53 35.951-37.69-1.161-2.039-2.157-3.885-3.242-5.678-7.052-11.657-14.234-23.237-21.152-34.973-5.251-8.908-8.009-18.185-1.297-27.974-13.696-9.84-28.493-12.399-43.663-10.579-25.971,3.117-42.913,19.221-55.459,41.103-18.238,31.808-22.222,66.544-17.533,101.687 5.206,39.022 23.359,72.639 52.278,99.833 9.624,9.05 19.168,18.553 30.14,25.72 19.088,12.468 38.88,23.935 60.525,31.824 8.614,3.14 16.772,7.566 25.053,11.578 8.796,4.262 16.486,10.243 21.462,18.58 4.121,6.905 9.144,9.999 17.007,8.985 2.496-0.321 5.069-0.05 8.111-0.05zm-99.095-220.46c-0.118,17.431 4.819,30.069 14.585,40.997 11.83,13.237 28.188,16.58 43.896,8.638 10.012-5.062 13.253-11.999 12.496-23.129-1.42-20.903-12.578-36.635-26.605-50.571-13.21-13.125-35.083-7.838-41.262,9.594-1.937,5.466-2.482,11.426-3.11,14.471zm163.412-71.357c-7.457-11.308-9.635-12.724-18.639-12.404-5.358,8.09-10.995,16.277-16.287,24.681-5.297,8.411-10.383,16.962-15.324,25.589-9.492,16.574-13.656,36.927-11.087,53.038 7.609-26.321 15.167-37.655 36.729-55.174 0.83-0.675 1.509-1.582 2.117-2.478 7.422-10.939 14.817-21.897 22.491-33.252zm-135.194,17.447c2.527,3.926 4.572,6.584 6.062,9.524 3.103,6.123 9.678,8.822 13.62,13.391 10.655,12.348 22.363,24.528 26.4,41.315 0.762,3.169 1.837,6.263 2.767,9.392 1.806-17.099-0.756-33.433-8.663-48.255-7.933-14.871-17.184-29.048-26.076-43.394-2.854-4.605-6.406-8.777-9.679-13.203-7.971,1.59-13.166,5.906-16.014,12.631-0.568,1.342 1.703,3.885 3.158,6.897 2.772-3.882 4.647-6.506 6.973-9.762 1.093,6.439-6.356,10.882 0.125,19.984 2.297-4.168 3.918-7.109 5.539-10.051 0.428,0.401 0.856,0.801 1.284,1.202-1.855,3.489-3.712,6.978-5.496,10.329zm87.585,282.898c-12.78,0-24.653,0-36.932,0-2.516,7.972-10.194,12.162-11.128,20.839 2.364-0.637 3.985-1.075 6.034-1.627-1.397,3.104-2.645,5.877-4.198,9.327 7.971,1.03 9.343-7.295 15.811-8.759-1.804,3.306-3.252,5.958-5.515,10.105 3.979-0.651 6.548-0.563 8.599-1.551 1.982-0.955 3.429-3.019 6-5.428 0,3.084 0,4.704 0,6.139 4.499,0 8.515-0.247 12.488,0.06 5.638,0.435 8.418-2.603 8.727-7.543 0.448-7.167 0.114-14.381 0.114-21.562zm51.147-307.448c4.979-6.571 9.214-13.335 6.343-21.172-1.889-5.155-7.963-5.201-13.409-5.483-3.014,4.705-5.892,9.197-8.981,14.02 3.228,2.164 6.008,3.799 8.52,5.775 2.49,1.961 4.71,4.266 7.527,6.86zm-147.906-26.873c-16.618,3.408-18.336,11.837-6.59,26.166 4.988-3.988 9.971-7.972 15.471-12.369-2.876-4.469-5.767-8.959-8.881-13.797z"/>
    <path d="m155.072,188.526c3.236-1.624 5.772-3.597 6.433-3.096 1.998,1.513 3.269,3.987 4.823,6.087-1.509,1.112-3.649,3.481-4.409,3.1-2.23-1.12-3.914-3.333-6.847-6.091z"/>
    <path d="m152.595,173.64c0.784-1.586 1.194-3.729 2.469-4.584 1.026-0.689 3.718-0.393 4.541,0.504 0.965,1.05 1.404,3.598 0.763,4.794-0.526,0.981-3.018,1.376-4.547,1.206-1.263-0.14-2.39-1.488-3.577-2.301l.351,.381z"/>
    <path d="m185.052,184.307c-2.322-2.572-4.14-4.167-5.255-6.155-0.24-0.428 2.701-3.477 3.079-3.275 1.967,1.056 3.876,2.569 5.132,4.388 0.368,0.534-1.466,2.588-2.956,5.042z"/>
    <path d="m152.232,158.149c-4.769-2.454-6.755-4.791-4.216-9.658 5.055,1.361 6.704,3.771 4.216,9.658z"/>
    <path d="m152.244,173.258c0.134,1.423 0.654,2.958 0.284,4.234-0.313,1.08-2.028,2.784-2.478,2.604-1.46-0.585-2.841-1.756-3.752-3.053-0.238-0.339 1.132-2.367 2.14-2.876 1.176-0.594 2.764-0.374 4.165-0.517-0.008-0.01-0.359-0.392-0.359-0.392z"/>
    <path d="m177,184.01c-1.707,1.558-3.132,3.386-3.578,3.172-1.674-0.802-3.145-2.172-4.368-3.606-0.168-0.197 1.813-2.951 2.245-2.811 1.774,0.575 3.333,1.811 5.701,3.245z"/>
    <path d="m164.919,148.625c-2.063,1.324-3.247,2.683-4.169,2.524-1.176-0.202-2.63-1.466-3.014-2.595-0.237-0.697 1.517-2.956 1.992-2.846 1.489,0.344 2.796,1.478 5.191,2.917z"/>
    <path d="m163.108,165.171c4.391-2.931 6.266-2.115 7.03,1.197 0.125,0.542-0.547,1.267-0.851,1.908-1.791-0.9-3.582-1.8-6.179-3.105z"/>
    <path d="m146.921,159.582c-2.257,0.895-3.542,1.899-4.496,1.648-1.019-0.269-1.724-1.723-2.567-2.66 1.049-0.689 2.116-1.936 3.144-1.906 0.996,0.029 1.953,1.372 3.919,2.918z"/>
    <path d="m277.59,183.031c1.75,3.366 3.771,5.725 3.264,6.575-1.298,2.174-3.721,3.676-5.695,5.447-1.132-1.585-3.506-3.589-3.141-4.667 0.778-2.299 2.976-4.117 5.572-7.355z"/>
    <path d="m285.892,173.276c-0.621,0.363-1.344,0.62-1.846,1.106-2.168,2.098-4.741,2.864-6.281-0.036-0.674-1.269 0.3-4.534 1.576-5.488 2.766-2.068 4.611-0.116 5.528,2.735 0.222,0.689 0.445,1.377 0.668,2.066l.355-.383z"/>
    <path d="m289.822,147.887c2.849,5.474 0.866,7.811-3.151,9.874-4.247-4.564-1.672-6.939 3.151-9.874z"/>
    <path d="m285.537,173.659c1.407,0.133 2.991-0.086 4.168,0.506 1.009,0.508 2.387,2.523 2.15,2.865-0.902,1.301-2.276,2.483-3.731,3.07-0.457,0.184-2.18-1.501-2.502-2.577-0.38-1.27 0.132-2.807 0.263-4.238 0.007-0.009-0.348,0.374-0.348,0.374z"/>
    <path d="m266.384,179.326c1.334,1.922 2.923,3.498 2.651,3.949-0.954,1.581-2.55,2.774-3.903,4.114-0.928-0.939-2.811-2.295-2.616-2.741 0.742-1.696 2.157-3.098 3.868-5.322z"/>
    <path d="m273.22,148.757c2.376-1.518 3.648-2.705 5.122-3.065 0.502-0.123 2.327,2.097 2.107,2.787-0.367,1.149-1.787,2.449-2.969,2.695-0.912,0.189-2.14-1.141-4.26-2.417z"/>
    <path d="m274.471,166.064c-1.983,0.988-3.458,1.855-5.047,2.366-0.224,0.072-1.569-2.242-1.442-2.351 1.235-1.069 2.616-2.037 4.106-2.685 0.27-0.117 1.227,1.346 2.383,2.67z"/>
    <path d="m299.59,158.895c-1.993,1.237-3.133,2.507-4.18,2.434-1.005-0.07-1.914-1.532-2.865-2.382 0.99-0.843 1.915-2.239 2.99-2.367 0.981-0.116 2.126,1.142 4.055,2.315z"/>
    <path d="m249.36,197.654c1.85-2.814 3.7-5.627 5.549-8.441 0.683,4.906 0.531,9.267-5.813,8.211-0.022-0.019 0.264,0.23 0.264,0.23z"/>
  </g>
</svg>
