<?xml version="1.0" encoding="iso-8859-1"?>
<!-- Generator: Adobe Illustrator 16.0.0, SVG Export Plug-In . SVG Version: 6.00 Build 0)  -->
<!DOCTYPE svg PUBLIC "-//W3C//DTD SVG 1.1//EN" "http://www.w3.org/Graphics/SVG/1.1/DTD/svg11.dtd">
<svg version="1.1" id="Capa_1" xmlns="http://www.w3.org/2000/svg" xmlns:xlink="http://www.w3.org/1999/xlink" x="0px" y="0px"
	 width="193.774px" height="193.775px" viewBox="0 0 193.774 193.775" style="enable-background:new 0 0 193.774 193.775;"
	 xml:space="preserve">
<g>
	<g>
		<path d="M193.407,114.58c-0.663-16.451-2.952-32.745-2.244-49.234c0.672-15.659,3.613-29.851-3.462-44.359
			c-9.726-19.94-53.167-11.024-69.159-10.766c-21.274,0.343-42.521,1.429-63.801,1.585C46,11.87,25.415,19.498,18.102,13.486
			c-1.694-1.393-4.262-1.161-5.364,0.733c-1.064,0.37-2.022,1.121-2.543,2.408c-8.632,21.303-9.02,46.65-9.836,69.265
			c-0.926,25.616-0.619,53.466,7.86,77.96c7.033,20.318,26.345,22.243,45.54,21.87c38.688-0.752,77.493-2.788,116.298-3.531
			c1.18-0.023,2.055-0.465,2.745-1.065c0.726-0.029,1.479-0.212,2.252-0.802C195.076,165.094,194.328,137.455,193.407,114.58z
			 M170.485,172.507c-0.324,0.247-0.506,0.555-0.741,0.839c-29.687-0.573-60.219-1.927-89.781,0.998
			c-13.087,1.295-25.988,2.616-39.158,2.167c-18.251-0.621-23.532-11.622-27.206-26.935c-9.066-37.786-8.003-88.988,3.172-127.034
			c10.636,3.877,24.781-0.366,35.357-1.534c30.456-3.363,63.143-2.091,93.787-1.751c19.104,0.212,36.3-2.389,37.682,23.252
			c0.759,14.075-2.06,28.176-1.322,42.369C183.585,110.136,194.1,154.534,170.485,172.507z"/>
		<path d="M89.897,54.626c-3.065-16.813-21.11-24.975-34.458-15.923c-23.349,1.651-18.418,46.036,6.901,49.117
			C80.271,90.002,92.778,70.423,89.897,54.626z M48.788,59.703c-0.267-3.33,0.324-6.176,1.577-8.493
			c0.02,2.548,0.494,5.222,0.611,7.42c0.23,4.329,0.641,8.627,1.408,12.874C50.246,67.837,49.084,63.405,48.788,59.703z
			 M60.541,78.338c-1.688-0.433-3.142-1.289-4.441-2.359c-0.064-5.783-0.097-11.566-0.08-17.349c0.009-2.9,0.711-6.589,0.233-9.737
			c0.222-0.111,0.444-0.182,0.664-0.349c1.081-0.818,2.182-1.604,3.303-2.31c-3.062,8.461-0.942,19.981-0.252,28.434
			c0.162,1.994,2.983,2.015,3.113,0c0.298-4.628,0.119-9.271,0.179-13.906c0.07-5.385,1.502-10.614,1.571-15.941
			c0.003-0.27-0.148-0.459-0.243-0.68c1.027-0.321,2.084-0.474,3.162-0.496c-0.122,0.19-0.316,0.304-0.38,0.544
			c-1.286,4.815-0.62,10.312-0.812,15.286c-0.232,6.017-0.498,11.881-0.216,17.906c0.032,0.684,0.993,0.83,1.195,0.161
			c1.749-5.788,2.841-11.454,3.652-17.44c0.675-4.986,1.935-10.64,0.808-15.611c0.16,0.068,0.314,0.096,0.475,0.173
			c1.219,0.579,2.31,1.37,3.292,2.29c-2.198,3.355-2.363,7.766-2.732,11.686c-0.5,5.301-0.374,10.722-0.016,16.027
			c0.024,0.351,0.115,0.65,0.246,0.909C69.585,78.215,65.079,79.504,60.541,78.338z M77.325,71.69
			c0.196-3.7,0.338-7.402,0.636-11.098c0.229-2.833,1.008-5.654,1.503-8.474c1.008,2.1,1.668,4.363,1.929,6.545
			C81.942,63.232,80.266,67.961,77.325,71.69z"/>
		<path d="M169.001,80.245c-4.742-16.434-13.057-31.144-24.222-44.063c-2.443-2.826-6.478-0.911-7.595,2.005
			c-4.55,11.871-11.755,24.13-13.81,36.788c-2.388,0.387-4.244,3.522-2.705,5.668c3.815,5.318,11.044,5.052,17.002,5.375
			c8.973,0.487,17.979,0.006,26.956-0.033C167.547,85.971,169.824,83.095,169.001,80.245z M135.417,77.291
			c-1.479-0.15-2.972-0.265-4.396-0.538c1.465-4.106,3.107-8.143,4.799-12.16C135.441,68.818,135.266,73.063,135.417,77.291z
			 M139.658,77.614c0.342-4.859,0.72-9.707,1.374-14.538c0.494-3.648,2.34-8.45,1.092-12c-0.063-0.179-0.201-0.314-0.31-0.47
			c0.345-0.804,0.695-1.605,1.035-2.411c0.704,0.928,1.327,1.902,2,2.848c-0.426,0.155-0.812,0.401-1.037,0.852
			c-1.593,3.184-0.387,7.283-0.052,10.68c0.494,4.997,0.946,10.003,1.34,15.011C143.282,77.61,141.456,77.682,139.658,77.614z
			 M148.712,62.575c-0.052-1.828,0.068-3.86-0.051-5.831c0.682,1.099,1.317,2.224,1.961,3.345c0.156,1.845,0.514,3.691,0.665,5.559
			c0.318,3.931,0.125,7.914-0.41,11.822c-0.7,0.03-1.37,0.072-2.074,0.097C149.038,72.576,148.853,67.567,148.712,62.575z
			 M154.355,77.308c0.491-2.642,0.811-5.302,0.977-7.984c1.146,2.549,2.225,5.133,3.156,7.791
			C157.146,77.181,155.732,77.239,154.355,77.308z"/>
		<path d="M162.245,106.013c-0.332-1.974-2.528-3.348-4.399-3.349c-12.235-0.005-24.44-0.125-36.629-1.305
			c-1.821-0.176-4.05,1.493-4.35,3.311c-2.6,15.801-3.417,32.215-1.21,48.11c0.151,1.095,0.981,1.755,1.962,2.003
			c4.397,3.792,12.27,3.32,17.685,3.688c8.79,0.599,17.965,0.421,26.468-2.076c1.952-0.573,3.351-2.344,3.35-4.399
			C165.116,136.58,164.806,121.25,162.245,106.013z M126.841,148.254c-1.669-0.209-3.331-0.36-4.919-0.257
			c1.33-12.41,1.359-24.914,3.108-37.303c0.609,0.052,1.221,0.058,1.831,0.105c-0.324,4.121,0.281,8.567,0.317,12.471
			C127.255,131.564,127.434,139.968,126.841,148.254z M129.317,148.582c1.267-7.74,1.478-15.656,1.829-23.474
			c0.195-4.314,1.027-9.386,0.718-14.019c1.065,0.062,2.132,0.089,3.197,0.143c-1.823,4.8-0.535,12.779-0.637,17.205
			c-0.159,6.981,0.293,14.228,0.694,20.846c0.001,0.021,0.019,0.028,0.021,0.049C133.31,149.224,131.33,148.896,129.317,148.582z
			 M137.093,149.414c0.013-0.052,0.061-0.074,0.067-0.131c1.343-11.085,2.271-26.556,2.223-37.858
			c0.939,0.037,1.881,0.034,2.82,0.067c-0.831,4.605-0.682,9.5-0.699,14.081c-0.031,7.967,0.434,16.036,1.435,23.948
			C140.99,149.526,139.04,149.496,137.093,149.414z M146.344,128.424c0.122-5.59,1.054-11.224,1.371-16.802
			c0.37,0.008,0.74,0.016,1.11,0.026c-1.431,4.892-0.141,11.066,0,15.998c0.204,7.184,0.23,14.462-0.416,21.644
			c-0.932,0.063-1.859,0.155-2.793,0.186C146.362,142.484,146.191,135.45,146.344,128.424z M152.405,148.886
			c1.13-6.193,1.428-12.477,1.514-18.808c0.075-5.48,1.163-12.844-0.559-18.321c0.174,0.002,0.348,0.013,0.522,0.013
			c1.748,12.115,2.062,24.335,2.094,36.566C154.795,148.583,153.599,148.727,152.405,148.886z"/>
		<path d="M102.401,126.042c-5.228-4.748-14.208-6.423-20.969-7.335c-2.221-0.299-4.714-0.56-6.727,0.324
			c-0.856-1.953-2.325-3.888-3.079-5.078c-3.025-4.779-5.955-9.641-9.28-14.221c-1.901-2.618-5.174-2.615-7.075,0
			c-2.627,3.612-4.796,7.467-6.774,11.466c-1.295,2.619-2.79,5.614-3.265,8.632c-6.463-2.75-14.75-1.74-21.454-0.364
			c-2.751,0.565-3.71,3.906-2.504,6.156c3.319,6.191,9.468,12.827,16.503,15.454c-2.379,7.473-4.275,15.315-4.613,23.131
			c-0.104,2.404,2.625,4.688,4.985,3.798c8.246-3.108,15.056-8.243,21.43-14.107c4.823,6.584,10.2,12.438,17.569,16.463
			c2.629,1.436,5.995-0.354,5.994-3.44c-0.003-7.096,1.164-16.455-1.384-23.488c7.332-2.793,14.934-6.215,20.643-11.606
			C103.965,130.347,104.018,127.509,102.401,126.042z M43.966,135.039c-0.077-0.051-0.099-0.145-0.181-0.191
			c-2.1-1.162-4.221-2.05-6.224-3.287c0.283-2.097,0.461-4.3,0.294-6.319c1.952-0.27,3.943-0.435,6.033-0.408
			c0.378,0.005,0.723-0.091,1.036-0.25C43.967,127.751,44.092,131.99,43.966,135.039z M54.948,147.354
			c-2.977,2.804-6.038,5.517-9.371,7.84c0.656-1.607,0.83-3.63,1.079-5.144c0.658-3.985,1.173-7.997,1.701-12.003
			c0.486-3.693,0.908-7.396,1.411-11.087c0.111-0.814,0.156-1.608,0.191-2.417c0.286-0.225,0.584-0.429,0.804-0.792
			c1.807-2.981,3.436-6.037,5.075-9.084c-1.71,4.323-1.463,10.527-1.685,14.414C53.809,135.079,53.819,141.363,54.948,147.354z
			 M64.915,118.875c-2.045,8.011-2.665,17.325-2.447,25.902c-1.25-0.864-2.87-0.982-4.247-0.191
			c-0.245-4.417-0.325-8.837-0.093-13.279c0.31-5.944,3.36-13.286,2.149-19.058c-0.241-1.147-1.766-1.431-2.542-0.671
			c-0.261,0.255-0.455,0.586-0.677,0.886c0.617-1.119,1.204-2.254,1.859-3.354c1.975,2.935,3.904,5.902,5.83,8.864
			c0.104,0.161,0.225,0.359,0.339,0.542C65.029,118.635,64.951,118.734,64.915,118.875z M73.521,157.736
			c-2.803-2.587-5.325-5.443-7.641-8.597c0.711-8.476,2.264-17.064,2.895-25.562c1.01,0.934,2.145,1.538,3.404,1.393
			c0.481,0.866,1.324,1.507,2.261,1.995c-1.18,4.283-1.634,8.96-2.152,13C71.525,145.92,71.708,152.049,73.521,157.736z
			 M77.599,138.47c-0.455,0.203-0.744,0.515-0.979,0.854c0.058-0.38,0.108-0.76,0.17-1.14c0.62-3.8,1.946-7.499,2.976-11.226
			c0.658,0.063,1.301,0.221,1.955,0.323c-0.09,0.909-0.151,1.818-0.214,2.681c-0.16,2.176-0.19,4.445,0.048,6.626
			C80.268,137.242,78.951,137.868,77.599,138.47z M85.071,134.673c0.077-1.293,0.138-2.588,0.267-3.876
			c0.092-0.923,0.3-1.856,0.506-2.793c1.978,0.423,4.411,0.951,6.589,1.689C90.093,131.551,87.642,133.186,85.071,134.673z"/>
	</g>
</g>
<g>
</g>
<g>
</g>
<g>
</g>
<g>
</g>
<g>
</g>
<g>
</g>
<g>
</g>
<g>
</g>
<g>
</g>
<g>
</g>
<g>
</g>
<g>
</g>
<g>
</g>
<g>
</g>
<g>
</g>
</svg>
