<?xml version="1.0" encoding="iso-8859-1"?>
<!-- Generator: Adobe Illustrator 16.0.0, SVG Export Plug-In . SVG Version: 6.00 Build 0)  -->
<!DOCTYPE svg PUBLIC "-//W3C//DTD SVG 1.1//EN" "http://www.w3.org/Graphics/SVG/1.1/DTD/svg11.dtd">
<svg version="1.1" id="Capa_1" xmlns="http://www.w3.org/2000/svg" xmlns:xlink="http://www.w3.org/1999/xlink" x="0px" y="0px"
	 width="193.392px" height="193.392px" viewBox="0 0 193.392 193.392" style="enable-background:new 0 0 193.392 193.392;"
	 xml:space="preserve">
<g>
	<g>
		<path d="M172.521,74.505c-11.994-16.062-35.399-21.126-55.635-16.156c2.133-3.185,3.98-6.801,5.092-10.468
			c4.018-0.566,8.072-2.093,12.068-4.694c8.721-5.679,19.124-19.792,15.98-30.73c-0.963-3.349-5.19-2.891-6.33,0
			c-3.197,8.102-4.174,14.803-10.539,21.539c-3.045,3.221-6.52,5.316-10.133,6.271c-0.188-3.655-1.514-7.041-4.607-9.671
			c-6.701-5.696-13.811-0.076-18.238,5.719c-0.908,1.19-0.498,3.265,0.547,4.226c5.021,4.622,10.512,7.136,16.17,7.566
			c-0.691,4.133-2.76,8.095-5.133,11.742c-4.863,1.659-9.457,3.928-13.552,6.799c-27.567-8.134-70.818-8.149-89.975,16.664
			c-11.294,14.628-13.545,58.536,9.908,63.267c0.347,0.07,0.675,0.044,0.986-0.029c-4.577,15.164,3.231,29.478,18.28,35.076
			c17.803,6.624,31.863-7.766,34.6-23.476c1.09,0.339,2.387-0.065,2.87-1.544c2.147-6.571,7.66-9.701,14.275-10.479
			c6.695-0.787,11.539,2.232,17.688,3.715c0.807,0.193,1.519,0.009,2.092-0.362c-0.34,11.408,4.951,22.988,17.748,27.101
			c30.053,9.658,48.104-35.464,26.594-49.392c4.086-9.129,6.167-0.482,8.463,5.484c1.857,4.826,3.451,9.76,5.51,14.509
			c1.79,4.131,6.128,14.596,12.712,12.196c8.476-3.089,12.905-16.978,13.329-24.911C194.456,112.697,185.355,91.688,172.521,74.505z
			 M108.165,37.47c2.56-2.661,5.731-4.01,8.166,2.854c0.046,0.128,0.046,0.255,0.088,0.384
			C113.602,40.354,110.817,39.255,108.165,37.47z M28.155,164.918c-2.614-4.964-3.14-11.087-1.281-16.943
			c0.631-1.988,1.605-3.728,2.723-5.34C28.252,149.791,28.474,157.588,28.155,164.918z M44.003,150.592
			c-0.175,8.116-0.098,16.228-0.373,24.343c-0.785-0.067-1.557-0.082-2.369-0.254c-4.742-1.005-8.463-3.404-11.071-6.614
			c1.664-9.438,3.234-19.811,2.917-29.303c1.995-1.717,4.229-3.152,6.708-4.103c-0.123,0.091-0.263,0.141-0.362,0.276
			c-3.316,4.556-2.686,13.288-2.953,18.629c-0.289,5.773,0.21,11.396,0.513,16.975c0.047,0.866,1.296,0.866,1.343,0
			c0.271-4.918,1.02-10.227,1.313-15.284c0.373-6.43,2.532-13.31,2.251-19.651c-0.036-0.823-0.635-1.219-1.272-1.23
			c1.744-0.597,3.562-1.01,5.411-1.221C43.901,138.534,44.125,144.905,44.003,150.592z M46.442,174.974
			c0.733-6.199,1.005-12.408,1.227-18.654c0.273-7.729,1.916-15.626,1.791-23.295c0.739,0.016,1.479,0.038,2.218,0.121
			c0.176,1.216,0.894,2.336,2.173,3.007c-2.68,11.577-0.551,24.846,0.114,36.452C51.699,173.896,49.193,174.778,46.442,174.974z
			 M56.401,170.979c0.428-10.838,1.025-21.612,1.63-32.406C69.112,146.471,66.188,163.267,56.401,170.979z M116.189,145.342
			c0.641-3.881,2.127-7.135,4.166-9.771c-0.342,3.146-0.338,6.362-0.387,9.503c-0.102,6.402,0.178,12.87,0.599,19.299
			C116.424,159.385,115.096,151.966,116.189,145.342z M127.708,169.158c-1.596-0.541-3.081-1.223-4.346-2.152
			c0.187-5.366,0.08-10.747,0.118-16.115c0.046-6.483,1.296-13.025,1.432-19.475c1.439-0.914,3.041-1.568,4.716-2.067
			C126.661,141.887,127.079,156.185,127.708,169.158z M135.971,144.347c-0.418,8.547-0.414,17.121-0.641,25.677
			c-1.363,0.112-2.775,0.1-4.232-0.076c0.76-13.81,1.773-27.587,2.597-41.369c1.37-0.105,2.774-0.121,4.237,0.053
			c0.03,0.066,0.097,0.108,0.131,0.174C135.921,133.407,136.192,139.784,135.971,144.347z M142.969,167.655
			c-1.418,0.744-2.897,1.388-4.5,1.785c1.994-12.73,1.74-25.824,3.477-38.656c1.378,0.336,2.636,0.771,3.787,1.285
			c-0.852,4.853-0.646,9.979-0.885,14.859C144.508,153.888,143.865,160.762,142.969,167.655z M146.523,165.323
			c1.015-5.062,1.63-10.202,2.152-15.342c0.494-4.869,1.307-9.979,1.48-14.999C158.902,142.796,155.916,157.716,146.523,165.323z
			 M185.352,137.872c-0.404,2.554-5.284,17.993-9.387,11.518c-5.939-9.375-16.348-52.297-28.75-24.931
			c-1.875-0.551-3.919-0.951-6.176-1.138c-0.72-0.059-1.3,0.163-1.809,0.485c-16.389-5.802-27.687,6.868-29.914,21.425
			c-5.096-5.252-15.743-6.128-22.53-4.836c-6.225,1.185-11.546,4.267-14.436,9.401c-0.863-8.817-5.776-16.942-16.18-20.785
			c-0.908-0.335-1.666-0.262-2.332-0.027c-13.254-6.44-27.45,0.628-33.306,13.797c-0.167-0.164-0.345-0.324-0.597-0.447
			c-19.196-9.385-13.758-46.016-2.031-59.173c16.281-18.268,50.455-14.218,73.314-10.498c-1.06,1.13-2.109,2.272-3.038,3.517
			c-9.487,12.708-10.914,28.586-0.752,41.633c9.309,11.953,22.871,18.244,34.589,6.051c1.576-1.64-0.4-3.926-2.325-3.015
			c-17.909,8.477-29.829-8.373-31.707-23.27c-1.278-10.128,7.98-19.234,15.306-24.404c13.654-9.635,32.971-10.553,48.41-5.737
			c16.502,5.147,26.01,28.531,30.971,43.123C185.657,119.341,186.805,128.682,185.352,137.872z"/>
		<path d="M146.75,84.658c0.323-5.55-7.96-5.354-8.51,0c-0.038,0.371-0.12,0.731-0.182,1.097c-0.543,0.46-0.92,1.116-1.191,1.862
			c-0.604,0.504-1.127,1.16-1.453,2.044c-0.727,1.97-0.343,4.57-0.346,6.643c-0.006,3.839,3.709,5.078,6.38,3.887
			c1.435,0.506,3.378-0.054,3.621-1.722c0.298-2.05,0.481-4.107,0.681-6.168c0.129-1.332,0.35-2.653,0.557-3.972
			C146.54,87.12,146.75,85.906,146.75,84.658z"/>
	</g>
</g>
<g>
</g>
<g>
</g>
<g>
</g>
<g>
</g>
<g>
</g>
<g>
</g>
<g>
</g>
<g>
</g>
<g>
</g>
<g>
</g>
<g>
</g>
<g>
</g>
<g>
</g>
<g>
</g>
<g>
</g>
</svg>
