<?xml version='1.0' encoding='iso-8859-1'?>
<!DOCTYPE svg PUBLIC '-//W3C//DTD SVG 1.1//EN' 'http://www.w3.org/Graphics/SVG/1.1/DTD/svg11.dtd'>
<svg version="1.1" xmlns="http://www.w3.org/2000/svg" viewBox="0 0 368.189 368.189" xmlns:xlink="http://www.w3.org/1999/xlink" enable-background="new 0 0 368.189 368.189">
  <g>
    <path d="m368.189,161.998c0.05,58.363-14.807,105.741-46.494,147.603-19.909,26.301-46.51,42.136-78.594,48.109-21.992,4.094-44.288,6.709-66.532,9.249-14.929,1.705-29.801-0.833-43.694-6.109-22.945-8.713-46.082-17.468-65.706-32.796-8.485-6.628-17.037-13.623-23.847-21.865-28.893-34.974-42.993-75.143-43.317-120.869-0.327-46.102 15.124-86.339 44.366-120.405 26.462-30.827 60.875-50.34 101.548-58.267 26.847-5.232 53.705-7.507 80.838-4.788 10.317,1.034 20.811,3.106 30.551,6.589 33.1,11.836 60.616,32.013 82.737,59.229 14.5,17.84 21.799,39.027 25.062,61.511 1.861,12.838 2.456,25.862 3.082,32.809zm-354.514,22.971l-.006-.005c-3.536,7.84-3.204,15.767-0.572,25.55 6.544-7.947 12.26-14.887 19.05-23.133-0.163,2.792 0.031,3.572-0.271,4.003-4.15,5.923-8.345,11.815-12.574,17.682-6.86,9.514-6.833,14.086 0.289,24.595 4.758-5.989 9.503-11.961 14.247-17.933 0.615,0.443 1.229,0.887 1.844,1.33-3.134,4.628-5.786,9.692-9.504,13.79-7.368,8.121-6.374,15.858-0.098,24.498 3.909-5.104 7.529-10.001 11.334-14.75 3.803-4.747 7.791-9.346 11.699-14.01 0.632,0.524 1.264,1.048 1.897,1.571-7.805,10.626-15.61,21.252-23.699,32.264 2.281,3.637 4.294,6.845 6.552,10.446 5.845-8.734 11.07-16.541 16.294-24.348 0.694,0.45 1.387,0.9 2.081,1.35-3.535,6.161-7.054,12.331-10.609,18.481-5.958,10.306-5.816,11.331 3.236,20.191 5.725-8.376 11.421-16.71 17.116-25.043 0.676,0.425 1.353,0.851 2.03,1.276-5.749,9.734-11.498,19.467-17.352,29.379 4.294,4.921 7.951,9.112 12.263,14.054 3.488-6.757 6.168-12.223 9.099-17.551 2.891-5.254 6.036-10.368 9.069-15.543 0.518,0.318 1.036,0.635 1.555,0.953-5.549,11.906-11.099,23.813-16.799,36.043 10.636,7.029 19.997,13.216 29.523,19.511 4.482-6.851 8.181-12.507 11.881-18.163 0.561,0.353 1.121,0.707 1.682,1.06-3.123,6.25-6.245,12.499-9.692,19.398 4.115,1.826 7.266,3.225 10.371,4.603 5.942-8.237 11.464-15.893 16.986-23.549 0.747,0.492 1.493,0.983 2.24,1.474-4.834,7.78-9.668,15.559-14.965,24.084 4.227,1.874 7.75,3.435 11.168,4.95 5.053-6.312 9.766-12.2 14.479-18.088 0.536,0.435 1.071,0.87 1.607,1.305-3.993,5.783-7.985,11.566-12.283,17.791 3.659,1.677 6.408,2.639 8.842,4.118 4.478,2.722 7.392,0.862 9.975-2.79 0.102-0.145 0.915,0.213 1.342,0.323-0.454,1.666-0.905,3.32-1.651,6.055 9.917,0.791 19.272,2.966 28.132,1.692 5.076-0.73 9.797,0.787 14.68-0.283 5.269-1.155 10.751-2.347 16.069-2.084 16.267,0.804 31.656-3.488 46.779-8.14 20.254-6.23 38.823-16.133 53.218-32.179 13.608-15.168 24.192-32.392 32.577-50.995 19.383-43 22.065-87.972 15.315-133.851-2.877-19.558-10.043-37.787-22.965-53.144-20.402-24.247-45.127-42.768-74.991-53.697-8.692-3.181-18.127-5.539-27.317-5.914-20.559-0.838-41.199-0.74-61.769,0.001-21.831,0.787-43.212,4.314-62.05,16.665-8.458,5.546-17.201,10.763-25.095,17.034-7.893,6.274-15.519,13.134-22.112,20.737-6.823,7.868-13.148,16.463-18.047,25.62-4.544,8.494-7.76,17.715-12.908,26.004-1.611,2.595-2.066,5.908-3.893,11.448 8.146-7.807 14.408-13.81 20.67-19.812-6.734,10.27-14.53,19.299-21.886,28.672-4.996,6.366-5.292,8.763-4.542,17.572 2.726-2.458 5.261-4.743 7.795-7.028-1.297,4.7-4.122,8.189-6.777,11.803-4.632,6.306-4.831,16.438-0.559,22.657z"/>
    <path d="m101.55,111.513c6.682-11.36 16.866-17.527 29.221-20.707 15.002-3.861 28.438,2.295 34.758,16.312 6.92,15.349 5.739,30.343-3.188,44.377-6.188,9.728-13.345,18.842-20.11,28.201-5.004,6.924-11.467,11.091-20.326,9.357-21.546-4.217-43.407-7.522-61.752-21.213-7.913-5.906-13.079-13.142-14.147-23.233-2.95-27.873 20.021-41.029 40.681-37.299 4.568,0.824 8.98,2.512 14.863,4.205z"/>
    <path d="m265.962,101.866c5.241-8.425 12.229-13.582 21.925-14.569 9.065-0.923 16.131,2.302 21.556,9.62 10.756,14.509 11.733,36.899 1.83,51.913-8.721,13.222-21.402,22.254-34.246,30.929-2.434,1.644-6.442,2.541-9.226,1.831-20.236-5.158-40.655-9.963-54.896-27.46-12.926-15.883-15.432-31.298-7.631-48.122 7.779-16.777 28.184-20.433 43.892-14.001 5.576,2.281 10.517,6.11 16.796,9.859z"/>
    <path d="m122.038,229.108c-5.883,2.45-7.962,10.134-14.764,4.522 3.512-7.389 6.991-14.71 10.692-22.498 7.584,0.524 3.809,6.975 5.891,11.799 43.847,6.433 87.348,4.111 128.696-12.013 0.523-4.903 0.934-8.75 1.344-12.598 0.876-0.336 1.753-0.672 2.63-1.008 5.206,4.731 10.581,9.297 15.497,14.311 1.191,1.215 1.745,4.374 0.993,5.79-0.695,1.31-3.485,1.791-5.436,2.092-3.706,0.572-7.472,0.755-11.812,1.155 0.604,5.858 0.987,10.412 1.557,14.943 1.798,14.311-0.701,28.04-5.416,41.496-7.166,20.454-21.129,33.454-42.564,37.26-13.906,2.469-27.915,2.533-41.907-1-28.766-7.263-41.097-26.246-44.678-52.103-1.132-8.171-0.54-16.583-0.716-24.884-0.044-2.012-0.007-4.026-0.007-7.264zm21.764,58.288c21.501,25.954 71.913,24.142 90.625-1.76-5.35-4.549-5.726-15.232-15.973-13.625-7.264,1.139-14.383,3.206-21.181,4.77-0.109,6.679 6.199,11.805-0.47,17.82-1.889-2.666-3.65-4.816-5.048-7.181-6.257-10.587-12.514-13.634-24.183-10.005-7.816,2.43-15.182,6.312-23.77,9.981zm-14.943-53.655c2.772,6.187 6.84,10.111 12.988,12.05 31.984,10.086 63.184,9.217 93.519-6.088 3.173-1.601 6.767-2.355 10.134-3.588 0.933-0.342 1.751-0.996 2.999-1.728-0.284-1.817-0.422-3.594-0.881-5.283-0.26-0.955-1.047-1.767-2.079-3.413-38.017,11.137-76.734,14.703-116.68,8.05z"/>
    <path d="m159.588,348.065c1.413-1.685 2.826-3.37 4.239-5.054 0.401,0.303 0.802,0.606 1.202,0.908-1.404,1.71-2.809,3.42-4.214,5.13-0.408-0.328-0.817-0.656-1.227-0.984z"/>
    <path d="m13.675,184.969c1.491-2.93 2.983-5.86 4.474-8.791 0.826,4.388-0.682,7.325-4.481,8.785l.007,.006z"/>
  </g>
</svg>
