<?xml version='1.0' encoding='iso-8859-1'?>
<!DOCTYPE svg PUBLIC '-//W3C//DTD SVG 1.1//EN' 'http://www.w3.org/Graphics/SVG/1.1/DTD/svg11.dtd'>
<svg version="1.1" xmlns="http://www.w3.org/2000/svg" viewBox="0 0 431.445 431.445" xmlns:xlink="http://www.w3.org/1999/xlink" enable-background="new 0 0 431.445 431.445">
  <g>
    <path d="m266.193,397.841c0,6.518-0.045,12.69 0.01,18.86 0.089,10.063-1.954,13.07-11.492,13.717-12.122,0.822-24.307,1.139-36.456,0.991-8.701-0.106-12.86-3.643-14.584-12.195-1.507-7.477-1.91-15.177-2.934-23.921-5.029,0.776-9.629,1.402-14.197,2.207-11,1.94-15.758-1.863-16.037-13.472-0.256-10.688 0.106-21.392-0.173-32.079-0.192-7.335 2.933-11.986 9.836-14.069 7.692-2.322 15.436-4.469 23.533-6.8-0.879-12.562-1.674-24.988-2.649-37.399-0.512-6.513-5.205-9.155-10.674-11.252-14.441-5.537-29.024-10.783-43.138-17.073-25.303-11.277-50.45-23.514-70.151-43.362-38.108-38.392-56.47-84.232-45.311-138.684 9.891-48.267 47.932-72.355 88.293-74.857 28.89-1.791 55.737,4.095 78.287,23.656 3.298,2.861 6.336,6.021 10.434,9.943 3.25-3.268 6.643-6.454 9.781-9.874 13.829-15.074 30.308-26.314 50.457-30.063 33.144-6.168 63.837,1.182 90.656,21.622 14.97,11.409 27.935,24.758 35.208,43.098 8.145,20.537 9.15,41.415 7.081,62.94-4.019,41.805-23.346,76.283-50.753,106.898-22.957,25.644-50.823,44.596-81.847,59.123-1.331,0.623-2.751,1.062-4.063,1.719-0.629,0.315-1.103,0.938-1.935,1.677 1.011,10.791 2.032,21.681 3.164,33.765 6.857-2.178 13.365-4.414 19.974-6.297 6.369-1.815 10.135,0.56 10.56,7.082 0.91,13.962 1.702,27.947 1.96,41.933 0.202,10.989-1.603,12.716-12.726,16.004-6.659,1.968-13.28,4.064-20.114,6.162zm-183.848-187.75l-.233-.197c3.521,3.483 7.043,6.966 11.048,10.928 5.923-9.565 11.053-17.849 16.182-26.134 0.757,0.41 1.513,0.82 2.27,1.23-4.782,9.145-9.564,18.29-14.737,28.181 22.164,13.729 43.249,27.787 67.182,35.582 6.98-10.691 13.687-20.966 20.395-31.24 0.76,0.443 1.52,0.886 2.281,1.329-6.036,10.515-12.073,21.03-18.408,32.065 11.386,4.404 21.722,8.233 31.92,12.397 9.444,3.856 14.042,10.829 14.502,21.336 0.531,12.101 2.27,24.15 3.544,36.216 0.71,6.723-0.633,8.214-7.37,9.256-7.959,1.231-15.896,2.679-23.758,4.415-3.375,0.746-5.928,2.893-5.761,7.001 0.301,7.401 0.514,14.806 0.765,22.21 0.595-0.006 1.191-0.013 1.786-0.019 1.942-3.819 3.884-7.638 5.825-11.457 0.622,0.251 1.244,0.502 1.866,0.753-2.747,7.486-5.494,14.972-8.247,22.473 4.903,1.178 8.157-0.237 10.338-5.301 2.349-5.455 5.652-10.5 8.539-15.724 0.656,0.311 1.313,0.622 1.969,0.933-2.264,5.846-4.528,11.693-6.762,17.463 8.813,3.436 9.636-5.135 14.384-8.493-0.687,3.921-2.817,8.142-1.523,10.088 5.35,8.055 3.763,17.059 4.921,25.666 0.485,3.607-0.032,8.43 4.546,8.901 3.959,0.407 8.152-1.457 11.686-2.201 6.99,4.549 14.008-0.214 21.593,0.196 0-7.423-0.251-14.016 0.063-20.582 0.396-8.267 2.419-9.532 10.66-10.881 7.84-1.283 15.496-3.691 24.135-5.828-0.776-14.537-1.49-27.908-2.245-42.036-6.479,1.904-11.715,3.576-17.022,4.974-10.833,2.855-15.043-0.465-15.681-11.572-0.652-11.354-1.678-22.687-2.617-34.023-0.509-6.149 0.884-7.898 7.463-10.227 5.866-2.076 12.031-3.835 17.277-7.027 11.301-6.877 22.297-14.306 33.06-22.009 27.511-19.69 48.374-45.252 63.747-75.156 15.228-29.622 21.368-61.359 15.192-94.197-7.556-40.174-34.762-63.083-72.447-73.771-32.704-9.276-61.884-1.505-86.192,22.976-4.389,4.42-9.377,8.302-14.402,12.007-2.478,1.827-5.672,2.681-7.626,3.562-5.934-5.892-10.4-11.287-15.788-15.505-19.841-15.535-42.895-20.078-67.563-19.105-19.911,0.786-37.362,7.557-52.572,20.253-17.264,14.412-24.576,33.743-26.547,55.916 5.455-6.567 10.91-13.133 16.366-19.7-4.152,9.08-9.906,16.923-15.635,24.783-5.943,8.154-5.384,16.629-1.459,26.767 4.746-7.288 8.627-13.49 12.758-19.52 3.946-5.76 8.152-11.342 12.244-17.003 0.024,3.582-1.309,6.174-2.817,8.66-5.923,9.766-11.764,19.587-17.914,29.21-3.45,5.398-4.398,10.772-1.9,16.74 5.109,12.208 9.109,25.029 15.539,36.49 5.665,10.101 14.015,18.693 21.18,27.951z"/>
    <path d="m72.013,191.08c5.266-16.978 15.557-30.934 26.833-44.305-6.67,16.104-16.44,30.388-26.833,44.305z"/>
    <path d="m136.407,195.569c-2.453,10.956-12.444,28.504-20.59,36.165 0.202-7.498 11.024-26.507 20.59-36.165z"/>
    <path d="m82.345,210.091c1.013-3.051 1.507-6.417 3.132-9.097 5.835-9.628 12.051-19.025 19.092-27.88-6.244,13.047-12.187,26.246-22.457,36.779l.233,.198z"/>
    <path d="m167.633,217.49c-3.797,11.723-9.525,22.371-18.016,31.452 3.305-11.965 10.611-21.737 18.016-31.452z"/>
    <path d="m83.909,136.03c-5.295,9.587-10.589,19.174-16.811,30.44 1.31-10.695 6.386-20.473 16.811-30.44z"/>
    <path d="m230.529,390.071c-3.45,7.665-6.9,15.331-10.349,22.996-1.641-10.155 2.655-17.643 8.165-24.594 0.727,0.533 1.456,1.066 2.184,1.598z"/>
    <path d="m53.109,150.286c4.54-7.75 9.079-15.501 14.262-24.349-0.995,8.499-4.897,16.007-14.262,24.349z"/>
    <path d="m184.965,258.561c5.295-7.424 9.627-13.499 15.202-21.317-3.037,10.947-7.572,17.346-15.202,21.317z"/>
    <path d="m133.012,238.458c0.797-1.882 1.409-3.871 2.424-5.626 2.989-5.171 6.138-10.25 9.224-15.364 0.691,0.389 1.381,0.777 2.072,1.166-3.908,7-7.816,14-11.723,21-0.666-0.392-1.332-0.784-1.997-1.176z"/>
  </g>
</svg>
