<?xml version="1.0" encoding="iso-8859-1"?>
<!-- Generator: Adobe Illustrator 16.0.0, SVG Export Plug-In . SVG Version: 6.00 Build 0)  -->
<!DOCTYPE svg PUBLIC "-//W3C//DTD SVG 1.1//EN" "http://www.w3.org/Graphics/SVG/1.1/DTD/svg11.dtd">
<svg version="1.1" id="Capa_1" xmlns="http://www.w3.org/2000/svg" xmlns:xlink="http://www.w3.org/1999/xlink" x="0px" y="0px"
	 width="191.417px" height="191.418px" viewBox="0 0 191.417 191.418" style="enable-background:new 0 0 191.417 191.418;"
	 xml:space="preserve">
<g>
	<g>
		<path d="M186.996,51.53c-1.775-18.941-16.468-33.253-33.856-20.69C151.472,5.3,117.104-8.498,96.957,5.699
			c-4.951-6.804-16.723-5.259-23.41-2.382C65.58,6.747,58.639,12.72,54.006,20.092C39.658,11.127,19.91,10.47,8.543,24.673
			c-8.084,10.103-4.236,19.919,5.174,22.847c-4.475,4.752-7.101,11.145-3.4,17.422c4.764,8.079,13.218,8.436,20.985,5.741
			c2.471,13.683,17.839,12.606,25.103,2.706c1.998,3.944,4.807,7.439,8.245,10.411c-9.182-2.265-20.141,0.454-24.517,9.002
			c-2.304,4.5-1.401,9.932,2.615,13.135c2.485,1.98,5.466,3.037,8.573,3.582c2.034,0.356,4.406,0.654,6.749,0.641
			c-4.095,9.929-6.545,20.425-4.745,29.605c0.153,0.778,0.35,1.489,0.538,2.215c-0.219-0.037-0.412-0.143-0.664-0.07
			c-8.195,2.334-16.232,7.645-19.188,15.981c-2.203,6.211-0.503,13.267,3.892,18.055c4.297,4.682,11.252,6.301,17.16,4.011
			c8.457-3.278,13.391-12.112,16.168-20.398c5.029,1.306,10.782,1.62,16.935,1.51c3.554-0.064,8.343,0.414,13.44,0.698
			c-1.821,7.163-2.66,14.852,0.39,21.745c2.326,5.259,7.388,8.661,13.203,7.762c5.684-0.88,9.451-6.022,11.212-11.104
			c1.188-3.427,1.378-7.254,1.112-10.841c-0.232-3.123-0.717-7.711-2.238-11.175c1.591-1.059,2.975-2.361,4.021-4.035
			c6.176-9.882,6.346-23.248,4.531-36.416c1.743,0.769,3.592,1.326,5.068,1.718c2.923,0.775,6.079,0.817,8.991-0.01
			c5.239-1.489,8.491-6.18,9.061-11.419c0.626-5.762-2.959-10.799-7.356-14.061c-5.984-4.439-14.294-4.666-21.479-3.808
			c-0.197-0.833-0.398-1.674-0.584-2.471c1.676-1.15,3.243-2.456,4.732-3.863c6.291,4.493,10.777,3.66,14.308-1.599
			c8.24,8.948,18.94,4.139,21.608-7.176c4.229,2.544,9.016,3.323,13.411-0.466C187.559,69.407,187.659,58.595,186.996,51.53z
			 M150.29,107.083c-0.088,2.887-1.914,5.151-4.663,5.933c-5.054,1.436-8.731-2.715-13.161-3.562
			c-1.162-6.058-2.563-11.89-3.822-17.139C137.603,92.795,150.625,96.165,150.29,107.083z M53.403,63.393
			c-0.009,0.043-0.036,0.066-0.044,0.111c-1.718,9.985-16.214,17.475-15.814,2.392c0.069-2.622-2.832-3.971-4.979-2.857
			c-5.24,2.718-13.799,5.234-16.8-1.963c-2.51-6.02,3.627-10.909,8.19-13.235c2.837-1.446,1.601-6.412-1.66-6.129
			c-4.075,0.354-10.834,0.938-11.307-4.684c-0.362-4.307,3.269-8.425,6.159-11.104c9.772-9.056,23.135-5.379,34.507-1.57
			c-0.121,0.257-0.27,0.501-0.386,0.761c-3.594,8.072-2.897,17.163,3.735,23.234C53.286,53.77,52.86,58.786,53.403,63.393z
			 M47.642,100.953c-1.144-0.703-1.586-1.549-1.81-2.41c-0.137-0.525,0.056-1.815,0.624-2.892
			c4.092-7.757,14.053-6.657,21.956-5.185c-2.407,3.817-4.853,8.054-7.077,12.519C56.749,102.496,51.924,103.585,47.642,100.953z
			 M52.871,173.622c-3.687,1.723-7.602,0.319-10.254-2.392c-2.901-2.965-3.864-7.484-2.685-11.707
			c1.958-7.021,8.566-11.229,14.541-14.592c0.116-0.065,0.121-0.184,0.211-0.265c2.138,6.052,5.682,9.976,10.238,12.449
			C62.56,163.559,59.383,170.58,52.871,173.622z M119.966,176.872c-0.886,3.844-3.139,6.79-5.996,7.533
			c-0.934,0.242-2.174,0.083-2.969-0.31c-1.521-0.75-2.583-2.09-3.523-3.788c-2.885-5.209-2.649-12.338-1.827-18.381
			c4.39,0.109,8.821-0.061,12.761-0.959c0.185,0.543,0.372,1.084,0.538,1.625c0.574,1.868,0.984,3.782,1.292,5.711
			C120.689,171.109,120.602,174.107,119.966,176.872z M124.916,143.53c-2.126,14.009-19.875,9.396-29.969,9.51
			c-16.515,0.188-35.504,1.908-34.36-21.049c0.667-13.397,7.087-28.178,12.563-40.782c0.619-0.089,1.098-0.464,1.308-1.001
			c2.123,1.013,4.348,1.874,6.635,2.621c-2.864,6.789-4.807,14.745-0.63,21.353c3.552,5.617,10.698,6.373,16.662,5.288
			c6.688-1.216,12.815-5.556,16.789-10.946c3.06-4.149,4.414-10.694,1.771-15.225c1.665-0.525,3.312-1.096,4.899-1.796
			C124.174,108.541,127.559,126.117,124.916,143.53z M84.543,93.893c7.986,2.058,16.609,2.46,24.781,0.992
			c0.331,3.651,0.928,6.409-1.517,10.07c-2.502,3.746-6.965,6.244-11.17,7.529c-3.685,1.126-7.973,1.316-10.786-1.693
			C82.228,106.91,83.457,99.192,84.543,93.893z M59.786,51.247c7.623,2.382,15.823-4.121,17.626-11.833
			c0.319-1.368-1.362-2.458-2.402-1.398c-5.149,5.25-13.17,10.409-17.975,1.799c-3.073-5.508,0.828-12.863,3.852-17.424
			c3.922-5.917,10.11-10.715,16.712-13.236c6.736-2.572,11.326,0.177,17.829,1.014c0.813,0.105,1.421-0.332,1.85-0.922
			c0.164-0.019,0.328-0.043,0.487-0.113c16.254-7.213,41.339-2.036,47.542,16.332c2.269,6.719,1.307,14.264-0.8,20.862
			c-0.968,3.028-2.624,5.869-4.869,8.108c-2.955,2.946-4.821-3.167-5.689-5.043c-0.818-1.772-2.623-1.883-4.01-1.12
			c0.141-2.669-3.133-5.068-5.508-2.624c-5.625,5.79-13.728,8.222-16.937-1.505c-0.888-2.691-4.354-3.169-5.9-0.771
			c-3.952,6.126-23.448,11.038-21.352-1.016c0.227-1.308-1.119-2.059-2.138-1.245c-6.278,5.017-0.628,11.206,4.869,13.493
			c6.965,2.899,15.042,0.83,20.551-3.941c5.657,8.781,16.704,8.516,24.671,0.488c0.006,0.216-0.024,0.424,0.032,0.651
			c1.125,4.434,4.159,8.768,8.046,9.867C125.516,104.051,55.167,94.24,59.786,51.247z M167.86,66.594
			c-1.945-1.795-5.693-0.677-5.518,2.286c0.594,10.105-6.911,17.259-13.437,5.865c-1.499-2.617-4.792-1.621-5.786,0.756
			c-2.256,5.394-3.762,4.967-6.775,3.754c3.498-4.584,6.123-10.151,7.445-16.849c0.191-0.965-0.016-1.781-0.384-2.483
			c7.111-5.609,9.653-15.842,9.825-24.85c0.478,0.123,0.995,0.101,1.487-0.16c14.374-7.631,22.941,0.484,25.427,15.055
			C181.673,58.934,179.969,77.775,167.86,66.594z"/>
		<path d="M77.741,62.302c0.909-3.697-3.755-5.525-5.925-2.721c-0.376,0.259-0.648,0.614-0.885,1.037
			c-0.022-0.038-0.043-0.076-0.065-0.113c-0.137,0.208-0.202,0.505-0.31,0.749c-0.004,0.014-0.016,0.02-0.02,0.033
			c-0.002,0.008-0.001,0.013-0.003,0.022c-0.93,2.155-0.914,5.453-0.972,7.572c0.01,4.492,6.893,4.485,6.961,0
			c0.011-1.132,0.175-2.168,0.393-3.194c0.008-0.057,0.017-0.111,0.025-0.167C77.171,64.463,77.466,63.42,77.741,62.302z"/>
		<path d="M126.422,71.865c0.039-2.077-1.066-3.893-0.9-5.97c0.31-3.891-5.642-4.129-6.328-0.599
			c-1.329,1.677-0.327,4.494-0.181,6.569c0.22,3.124,3.807,3.962,5.579,2.393C125.575,73.918,126.399,73.102,126.422,71.865z"/>
		<path d="M108.968,67.28c-0.938-0.784-2.28-0.939-3.201,0c-2.265,2.309-1.467,5.697-2.775,8.513
			c-1.058,2.276-3.128,3.582-5.486,4.174c-5.91,1.485-10.764-3.468-12.557-8.504c-0.583-1.638-2.841-1.321-2.977,0.403
			c-0.685,8.721,7.434,14.947,15.667,14.474c4.107-0.236,8.035-2.341,10.354-5.763C110.26,77.229,112.677,70.38,108.968,67.28z"/>
	</g>
</g>
<g>
</g>
<g>
</g>
<g>
</g>
<g>
</g>
<g>
</g>
<g>
</g>
<g>
</g>
<g>
</g>
<g>
</g>
<g>
</g>
<g>
</g>
<g>
</g>
<g>
</g>
<g>
</g>
<g>
</g>
</svg>
