<?xml version='1.0' encoding='iso-8859-1'?>
<!DOCTYPE svg PUBLIC '-//W3C//DTD SVG 1.1//EN' 'http://www.w3.org/Graphics/SVG/1.1/DTD/svg11.dtd'>
<svg version="1.1" xmlns="http://www.w3.org/2000/svg" viewBox="0 0 466.105 466.105" xmlns:xlink="http://www.w3.org/1999/xlink" enable-background="new 0 0 466.105 466.105">
  <g>
    <path d="m181.476,367.908c-11.738-0.322-15.219-6.813-15.665-16.071-0.3-6.246-0.971-12.475-1.28-18.72-0.479-9.697 2.665-13.329 12.274-14.254 2.559-0.246 5.162,0.027 7.737-0.108 17.954-0.944 35.906-1.932 53.824-2.904 2.388-20.711 1.56-16.783-13.389-25.641-14.177,16.27-33.028,19.169-53.232,17.312-9.95-0.914-18.658-5.7-24.937-13.031-8.061-9.412-14.721-20.024-23.056-31.608 4.346-1.691 7.116-2.974 10.008-3.855 8.753-2.666 17.825-4.503 26.28-7.891 16.93-6.784 32.259-5.791 46.135,6.836 6.781,6.171 13.832,11.798 18.1,20.519 1.907,3.897 7.541,5.971 12.324,9.49 1.26-21.668 2.418-41.564 3.645-62.667-5.972,4.544-10.635,8.643-15.813,11.931-18.396,11.681-41.29,0.654-43.214-21.104-0.699-7.897 0.656-15.976 1.113-24.711-2.942,1.784-5.658,3.46-8.402,5.09-10.811,6.423-21.977,11.704-34.535,14.187-7.865,1.555-14.636-0.164-21.177-3.667-14.334-7.674-18.718-21.926-9.627-35.387 5.893-8.726 14.007-15.99 21.399-23.647 3.271-3.389 7.216-6.128 12.451-10.493-4.125-0.266-6.394-0.64-8.637-0.518-11.69,0.635-22.725-1.383-32.813-7.616-12.729-7.864-16.284-19.163-8.896-32.057 11.578-20.208 29.175-30.532 52.786-29.782 2.573,0.082 5.139,0.405 7.713,0.493 0.677,0.023 1.37-0.418 2.15-0.677-1.552-4.871-3.791-9.637-4.46-14.614-0.716-5.328-0.544-10.95 0.305-16.273 1.211-7.594 6.886-11.085 14.063-11.875 11.075-1.218 21.258,1.208 29.91,8.611 4.67,3.996 9.273,8.073 14.933,13.009 0.451-3.943 0.687-6.7 1.091-9.431 1.99-13.447 9.844-19.711 23.207-16.725 6.933,1.549 13.323,5.724 19.791,9.039 2.168,1.111 3.82,3.229 6.484,5.568 1.113-3.415 2.113-5.987 2.789-8.642 3.714-14.57 14.081-22.202 27.802-25.406 15.622-3.648 31.845,9.3 33.149,25.92 0.427,5.437 0.067,10.937 0.067,16.418 4.923-1.105 10.153-3.045 15.468-3.312 10.937-0.549 20.427,2.763 26.002,13.181 5.089,9.511 3.374,18.791-2.349,27.107-3.913,5.685-9.115,10.515-13.961,15.513-2.672,2.756-5.799,5.07-9.834,8.541 6.63,2.026 11.496,3.332 16.237,4.995 13.078,4.588 21.365,14.051 22.269,27.577 0.89,13.322-3.429,25.676-15.923,33.114-11.008,6.553-22.825,9.985-35.84,7.646-4.639-0.834-9.343-1.307-15.194-2.104 1.034,3.859 1.798,7.238 2.849,10.524 2.74,8.572 3.106,17.133 1.977,26.137-1.285,10.249-6.174,17.902-13.577,24.44-13.1,11.569-30.866,11.673-44.255,0.211-2.489-2.13-4.764-4.509-8.289-7.871-2.664,18.927-1.362,36.659-1.71,55.554 4.456-1.972 7.676-3.396 11.225-4.967-0.713-9.082 0.13-17.403 8.725-22.454 9.997-5.875 20.602-11.421 32.244-7.007 14.422,5.468 28.944,8.151 44.258,7.077 0.962-0.067 1.983,0.715 2.821,1.042 0.395,0.889 1.1,1.699 0.922,2.185-6.063,16.548-13.472,31.416-32.485,37.297-19.626,6.071-36.879,0.315-54.124-7.727-1.277-0.596-2.44-1.437-3.937-2.332-2.893,1.897-5.606,3.675-8.579,5.624 1.022,7.846 2.007,15.4 3.05,23.409 21.003,0.623 41.536-0.209 61.97-3.442 5.813-0.92 11.681-1.552 17.545-2.064 6.469-0.564 9.913,1.339 11.743,7.417 4.023,13.357 4.049,26.987 0.144,40.299-0.926,3.157-5.138,5.35-7.387,7.547 0.357,21.784 0.806,43.462 1.005,65.143 0.054,5.876-0.512,11.771-1.036,17.636-0.762,8.524-5.98,13.191-13.972,14.851-5.393,1.12-10.907,2.381-16.362,2.359-22.102-0.09-44.201-0.694-66.302-1.026-11.757-0.177-23.517-0.097-35.273-0.292-13.67-0.227-16.54-2.251-17.776-15.425-1.99-21.219-3.244-42.509-4.633-63.78-0.355-5.458-0.053-10.963-0.053-17.671zm22.117,1.678c-0.685-1.327-1.473-3.84-2.039-3.791-4.298,0.373-8.554,1.247-13.906,2.148 1.159,5.135 2.186,9.688 3.459,15.331 5.074-5.579 8.945-9.834 12.816-14.089-3.364,5.994-6.627,12.047-10.129,17.958-2.111,3.562-4.328,6.892 0.265,10.129 5.601-6.11 11.08-12.085 16.558-18.06 0.583,0.505 1.167,1.01 1.751,1.515-3.661,4.934-7.233,9.937-11.003,14.786-7.341,9.443-7.387,9.407-6.325,15.934 6.648-6.726 11.12-15.007 18.521-20.329-3.477,12.709-16.589,19.902-17.315,33.941 6.246-7.784 12.491-15.568 18.737-23.352 0.71,0.549 1.421,1.097 2.131,1.646-3.684,5.28-7.967,10.252-10.885,15.926-2.921,5.68-10.89,8.374-10.257,17.722 8.593-10.019 16.297-19.002 24.001-27.986 0.625,0.489 1.249,0.978 1.874,1.466-5.878,10.374-13.102,19.987-21.332,28.538-3.681,3.824-3.314,6.348-1.75,11.242 8.745-10.351 16.88-19.979 25.014-29.608 0.66,0.491 1.32,0.982 1.979,1.473-7.151,10.217-14.301,20.433-21.452,30.65 0.427,0.733 0.855,1.466 1.282,2.199 12.402-1.78 26.164,6.16 37.33-7.366-0.18,2.64-0.317,4.653-0.519,7.623 16.666,0 32.799,0.16 48.926-0.07 7.697-0.11 15.434-0.574 23.061-1.574 9.878-1.294 10.789-1.928 11.475-11.455 0.868-12.06 0.881-24.195 0.906-36.298 0.022-10.675-0.334-21.355-0.777-32.023-0.115-2.758-1.183-5.477-1.742-7.906-9.051,0-17.125-0.074-25.198,0.021-8.093,0.095-16.188,0.606-24.277,0.496-20.61-0.281-41.22-0.703-61.822-1.323-4.171-0.125-6.856,1.723-9.358,4.486zm44.3-281.878c-1.649,0.336-2.381,0.67-3.058,0.581-1.076-0.141-2.227-0.367-3.155-0.894-11.854-6.736-24.841-6.252-37.649-5.286-14.473,1.092-25.904,9.903-28.432,22.302-2.983,14.626 0.058,28.26 12.628,37.555 6.051,4.475 13.401,7.876 20.682,9.863 14.816,4.044 28.006,10.983 40.574,19.454 2.353,1.586 4.679,3.212 7.062,4.851 4.386-3.839 8.141-7.333 12.113-10.56 9.374-7.617 16.156-17.09 20.376-28.344 3.614-9.639 7.3-19.276 10.303-29.113 4.06-13.294 3.045-25.975-5.433-37.757-7.928-11.017-14.153-12.857-26.259-6.978-10.578,5.137-16.925,13.695-19.752,24.326zm85.579,231.521c-6.663,1.34-11.287,2.895-15.972,3.107-26.445,1.202-52.906,2.029-79.357,3.088-18.375,0.736-36.747,1.58-55.112,2.538-2.404,0.125-4.757,1.22-6.581,1.716 0,7.191 0,13.542 0,22.024 4.409-5.196 7.351-8.662 10.293-12.129 0.419,0.3 0.838,0.601 1.257,0.901-2.929,5.601-5.859,11.201-8.836,16.893 1.702,0.585 2.775,1.202 2.98,0.988 4.541-4.738 8.987-9.566 13.45-14.378 0.331,0.196 0.661,0.393 0.992,0.589-1.816,4.133-3.632,8.267-5.819,13.244 8.837-0.148 16.068-0.975 20.75-8.772 1.693-2.821 4.519-4.962 6.828-7.413 0.371,0.32 0.741,0.641 1.112,0.961-2.235,4.212-4.47,8.424-6.706,12.636 8.338-2.698 11.119-11.739 20.899-15.305-4.329,6.15-7.396,10.507-11.226,15.948 6.55,0 11.957,1.133 16.553-0.314 4.732-1.49 8.672-5.495 14.599-9.51-2.073,4.359-3.189,6.707-4.306,9.055 0.491,0.405 0.982,0.811 1.473,1.217 5.483-4.396 10.966-8.792 16.449-13.188 0.391,0.371 0.783,0.743 1.174,1.114-2.706,3.55-5.412,7.101-8.436,11.069 6.038,2.108 10.273,1.24 13.882-3.681 2.393-3.264 5.679-5.873 8.566-8.775 0.57,0.502 1.14,1.003 1.71,1.505-2.034,3.584-4.069,7.169-6.316,11.129 18.474,0 36.241,0 54.351,0 3.877-12.565 3.459-23.91 1.349-36.257zm-168.194-187.579c-8.522,6.111-18.476,12.382-27.378,19.898-7.509,6.34-14.287,13.731-20.474,21.395-5.098,6.315-6.891,13.958-1.826,21.499 4.385,6.528 13.797,9.461 22.603,7.503 13.154-2.924 25.298-8.431 35.467-17.035 8.792-7.439 18.519-14.582 22.09-24.634-10.099-9.485-19.308-18.132-30.482-28.626zm129.011,20.541c11.442,16.383 41.757,24.609 63.356,9.65 12.951-8.97 14.46-30.564 2.576-40.373-3.542-2.924-8.259-4.667-12.694-6.221-12.728-4.462-25.68-3.242-38.846-0.556-4.742,12.356-9.581,24.965-14.392,37.5zm-121.119-64.672c-23.158-22.479-60.348-12.984-73.966,14.057-4.606,9.146-2.334,16.57 6.431,21.596 4.076,2.338 8.662,4.227 13.252,5.148 15.654,3.141 30.334-2.478 45.232-5.866 0.518-0.118 0.835-1.117 1.565-2.165-3.303-11.945 1.42-22.625 7.486-32.77zm81.147,103.183c0,4.296-0.106,7.207 0.026,10.107 0.184,4.037 0.288,8.104 0.882,12.09 1.96,13.148 10.861,22.117 22.78,23.241 9.404,0.887 22.918-8.186 26.789-17.985 7.135-18.061-1.208-44.477-17.893-55.943-6.438,6.944-13.412,13.546-19.202,21.061-3.39,4.4-6.696,7.538-13.382,7.429zm-45.999-30.622c-4.932,10.702-9.238,19.218-12.812,28.032-3.621,8.931-5.412,18.377-4.403,28.066 1.467,14.086 15.632,20.933 27.541,13.554 18.625-11.539 22.937-29.993 25.381-50.824-11.765-6.204-23.022-12.139-35.707-18.828zm7.828,116.748c-5.92-5.422-10.595-9.769-15.34-14.036-9.268-8.334-20.303-8.397-31.191-5.232-10.719,3.116-20.997,7.745-31.433,11.696 17.363,31.643 56.932,40.97 74.535,16.573-6.897-0.663-13.443-1.293-21.649-2.082 7.455-8.48 16.001-4.172 25.078-6.919zm92.758-206.202c1.566,12 2.927,22.432 4.332,33.202 1.76-0.135 3.673,0.091 5.324-0.465 14.389-4.845 25.983-13.66 35.072-25.687 2.162-2.861 3.871-6.364 4.756-9.835 2.51-9.841-3.876-19.031-13.97-19.465-4.922-0.212-10.244,0.936-14.843,2.802-9.545,3.873-16.025,11.467-20.671,19.448zm-38.731,214.626c35.522,16.163 62.016,1.928 65.939-20.111-12.802,0.622-24.254-3.861-36.042-8.012-11.938-4.203-23.225,0.106-32.294,8.823-3.13,3.009-5.142,7.084-2.412,11.612 6.815-0.146 13.515-2.865 20.933,2.224-5.689,1.928-10.035,3.401-16.124,5.464zm32.881-220.856c4.177-10.049 8.372-18.225 10.978-26.879 3.543-11.768-1.999-23.901-11.626-28.09-7.871-3.425-20.563,1.453-26.961,10.367-0.214,0.298-0.435,0.6-0.59,0.929-4.643,9.893-6.251,20.386-7.813,31.87 14.756-4.481 25.463-0.508 36.012,11.803zm-89.753,6.673c-3.036-5.881-5.63-12.804-9.821-18.564-5.831-8.014-12.917-15.259-22.417-19-6.492-2.556-13.978-4.999-19.892,0.278-5.89,5.256-4.063,12.758-2.621,19.686 2.712,13.031 13.499,19.399 20.335,26.376 12.234-3.12 22.765-5.806 34.416-8.776zm27.911,5.72c4.408-5.3 8.392-9.616 11.781-14.357 1.773-2.481 3.467-5.686 3.537-8.603 0.352-14.831-9.763-25.91-24.505-27.52-7.853-0.858-11.949,1.581-13.573,9.396-0.952,4.583-1.019,9.57-0.362,14.216 1.074,7.598 3.064,15.065 4.775,23.096 6.141,1.263 12.18,2.505 18.347,3.772z"/>
    <path d="m242.716,428.145c-5.642,7.659-11.285,15.318-16.928,22.978-0.783-0.576-1.565-1.151-2.348-1.727 3.207-9.45 11.085-15.466 17.51-22.549 0.588,0.432 1.177,0.865 1.766,1.298z"/>
    <path d="m238.925,347.649c-1.356,1.501-2.712,3.001-4.068,4.502-0.4-0.278-0.801-0.556-1.201-0.835 1.234-1.67 2.467-3.341 3.701-5.011 0.522,0.448 1.045,0.896 1.568,1.344z"/>
  </g>
</svg>
