<?xml version='1.0' encoding='iso-8859-1'?>
<!DOCTYPE svg PUBLIC '-//W3C//DTD SVG 1.1//EN' 'http://www.w3.org/Graphics/SVG/1.1/DTD/svg11.dtd'>
<svg version="1.1" xmlns="http://www.w3.org/2000/svg" viewBox="0 0 405.02 405.02" xmlns:xlink="http://www.w3.org/1999/xlink" enable-background="new 0 0 405.02 405.02">
  <g>
    <path d="m.866,205.584c1.101-18.006 0.366-36.359 3.693-53.943 6.458-34.132 23.055-63.311 48.947-86.979 23.602-21.575 51.812-34.778 81.46-45.311 13.519-4.803 27.231-9.216 41.109-12.83 59.293-15.442 112.377-3.701 157.987,37.808 7.547,6.868 13.711,15.395 19.846,23.652 26.151,35.196 44.246,73.989 48.982,117.934 4.622,42.89-3.41,83.605-24.565,121.453-12.478,22.323-26.863,43.301-47.065,59.356-7.675,6.099-16.536,11.099-25.532,15.065-24.359,10.739-49.917,18.179-76.311,21.281-48.203,5.665-94.804-0.678-138.246-23.401-24.324-12.723-44.126-30.794-57.362-55.142-15.571-28.642-27.796-58.602-31.403-91.337-1.001-9.085-0.152-18.374-0.152-27.569-0.463-0.013-0.925-0.025-1.388-0.037zm95.019,164.643l-.299-.272c4.307,2.466 8.614,4.932 12.986,7.436 3.433-3.709 6.076-6.736 8.908-9.575 2.604-2.61 5.411-5.017 8.129-7.513 0.379,0.41 0.758,0.82 1.137,1.229-4.516,5.397-9.033,10.795-13.989,16.719 3.237,1.535 4.853,2.396 6.538,3.085 9.253,3.779 9.223,3.73 15.864-3.381 2.353-2.52 4.933-4.828 7.409-7.232 0.292,0.308 0.584,0.616 0.875,0.924-3.185,4.371-6.37,8.742-9.6,13.175 13.793,6.682 14.977,6.476 23.794-3.385 3.076-3.44 6.295-6.752 9.449-10.123 0.479,0.384 0.958,0.768 1.438,1.151-4.617,5.633-9.234,11.266-13.9,16.958 8.699,5.073 14.476,2.691 19.991-3.989 4.388-5.316 9.988-9.63 15.05-14.389 0.499,0.541 0.998,1.083 1.498,1.624-5.456,6.268-10.912,12.536-17.391,19.978 15.265,1.587 18.422-13.928 30.433-17.392-6.165,6.501-11.418,12.04-17.581,18.54 10.083,0.407 9.976,0.294 14.574-4.059 6.282-5.948 12.745-11.703 19.131-17.541 0.412,0.429 0.825,0.858 1.237,1.287-6.083,6.414-12.167,12.828-18.25,19.242 10.388,1.053 19.677,0.643 28.798-0.815 26.302-4.205 51.633-11.902 75.72-23.261 6.23-2.939 12.002-7.262 17.249-11.801 19.231-16.635 33.334-37.311 45.044-59.634 19.673-37.505 24.757-77.46 18.968-119.057-4.773-34.297-19.272-64.716-37.822-93.441-17.39-26.93-39.964-48.034-69.583-61.058-14.242-6.263-28.96-11.219-44.572-11.873-22.934-0.961-45.572,1.22-67.547,8.584-10.464,3.507-21.252,6.05-31.71,9.572-26.912,9.063-53.876,18.132-74.951,38.573-2.901,2.814-6.934,5.174-8.411,8.616-5.2,12.123-14.629,21.033-22.262,31.297-3.881,5.219-7.54,10.552-8.94,17.813 7.141-3.611 9.78-11.352 17-13.294-4.662,6.255-9.299,12.544-15.03,17.588-10.015,8.815-11.648,20.163-12.466,34.329 9.994-12.183 18.701-22.797 27.409-33.411 0.608,0.469 1.216,0.938 1.824,1.408-2.196,3.138-4.327,6.325-6.602,9.405-6.786,9.188-13.711,18.275-20.412,27.524-3.045,4.202-2.864,4.334-1.306,11.786 7.403-6.79 12.675-15.524 21.166-20.883-5.163,7.739-10.353,15.44-16.671,22.066-8.157,8.555-7.178,18.238-6.064,30.326 6.715-8.732 12.291-15.982 17.866-23.232-4.029,10.048-9.552,19.006-15.383,27.758-4.507,6.765-3.517,13.428-1.404,20.63 5.344-4.929 10.001-9.225 14.658-13.521l-.246-.21c-2.538,3.967-4.676,8.272-7.697,11.83-6.131,7.22-7.424,14.449-1.397,23.181 6.146-7.513 12.027-14.703 17.909-21.893 0.562,0.438 1.124,0.876 1.685,1.314-5.299,7.23-10.835,14.304-15.758,21.781-1.582,2.402-2.902,6.362-2.027,8.769 4.956,13.64 10.614,27.025 16.474,41.593 5.672-6.047 10.087-10.754 15.323-16.335-1.494,10.565-17.308,14.32-8.104,27.637 8.644-9.424 16.819-18.337 24.994-27.25 0.484,0.445 0.967,0.891 1.451,1.336-7.931,9.949-15.862,19.898-24.191,30.347 3.105,3.883 5.666,7.086 8.308,10.39 7.729-9.201 14.619-17.404 21.51-25.607 0.617,0.488 1.234,0.975 1.851,1.462-6.752,9.261-13.505,18.522-20.596,28.248 12.493,11.522 23.61,22.67 38.514,28.916z"/>
    <path d="m46.618,215.665c1.365-37.964 4.186-64.851 17.997-89.474 7.719-13.762 17.713-25.464 30.267-34.739 28.535-21.082 59.686-36.667 95.381-40.852 37.333-4.377 71.052,4.824 99.076,30.526 5.996,5.5 9.906,13.564 13.816,20.956 3.015,5.7 1.785,11.592-3.736,15.768-5.574,4.217-11.393,8.114-16.917,12.394-44.064,34.136-91.958,62.579-138.365,93.233-20.281,13.397-40.532,26.84-60.791,40.271-0.916,0.608-1.818,1.253-2.646,1.972-7.953,6.909-11.192,6.619-17.097-2.156-11.879-17.651-18.126-36.937-16.985-47.899zm50.212-30.314l-.278-.288c-5.023,5.793-5.448,11.505 0.396,17.595 7.928-8.609 15.674-17.021 23.42-25.432 0.53,0.473 1.061,0.945 1.591,1.418-7.878,9.841-15.757,19.683-23.783,29.71 2.309,2.687 3.87,4.502 5.114,5.95 8.431-9.083 16.464-17.737 24.496-26.39 0.573,0.505 1.147,1.009 1.72,1.514-7.698,9.632-15.396,19.263-23.265,29.109 2.404,2.998 4.197,5.235 6.146,7.665 7.167-6.688 14.032-13.094 20.897-19.499 0.41,0.465 0.82,0.93 1.23,1.395-6.562,7.164-13.123,14.328-21.146,23.087 14.471-3.68 144.952-95.316 155.092-107.773-18.081-11.471-48.268-2.519-57.589,17.08-3.968,8.343-8.88,9.07-14.779,2.247-2.147-2.483-4.13-5.248-6.708-7.194-18.889-14.258-39.772-18.517-62.552-11.517-21.094,6.482-31.315,22.216-34.94,42.88-1.094,6.235-3.702,12.881 0.43,19.027 1.682-0.219 3.095-0.401 4.508-0.584zm13.815,51.306c-6.091-6.807-11.004-11.771-15.321-17.21-19.02-23.963-19.606-58.707-1.552-83.397 6.952-9.507 16.076-16.335 27.236-19.872 26.383-8.362 51.559-6.287 74.843,9.788 2.328,1.607 4.879,2.893 7.301,4.313 22.968-20.487 47.466-29.143 76.651-12.763 3.811-3.389 7.52-6.687 10.98-9.764-2.863-9.922-7.641-17.088-15.383-22.152-6.779-4.434-13.288-9.383-20.414-13.165-18.765-9.957-39.079-12.462-59.95-10.539-31.613,2.912-59.588,15.435-85.556,33.122-23.245,15.832-38.174,37.169-44.843,64.638-5.12,21.089-5.097,42.391-3.861,63.705 0.758,13.066 6.927,24.409 15.314,35.228 11.588-7.356 22.656-14.381 34.555-21.932z"/>
    <path d="m125.262,293.503c0.62,0.922 1.239,1.844 1.859,2.766 4.213-4.445 8.586-8.753 12.558-13.404 1.571-1.84 2.25-4.442 3.945-7.965 0.571,2.102 0.754,2.902 1.01,3.678 0.218,0.662 0.52,1.295 0.845,2.09 6.639-3.679 11.182-9.034 14.349-15.924 2.903-6.316 6.501-12.312 11.55-17.78-2.005,4.909-4.01,9.819-6.498,15.912 9.247-2.867 10.502-10.641 13.874-16.619 3.386-6.003 6.653-12.072 11.774-17.286-2.48,6.21-4.96,12.42-8.127,20.349 9.575-4.248 9.737-12.972 13.748-18.848 4.053-5.936 7.483-12.297 11.186-18.473 0.637,0.317 1.274,0.635 1.911,0.952-3.66,7.702-7.32,15.404-10.979,23.105 0.614,0.466 1.229,0.932 1.843,1.399 2.598-2.983 5.561-5.726 7.717-9 4.23-6.426 8.007-13.151 11.994-19.738 0.169-0.279 0.569-0.417 0.862-0.621 0.217,0.7 0.434,1.399 0.698,2.147-1.779,4.018-3.606,7.988-6.09,13.388 7.718-3.818 8.567-8.178 5.808-13.639 2.619,0.907 5.239,1.815 7.989,2.768 11.052-6.137 18.519-15.836 25.469-26.826-0.572,2.001-1.144,4.002-2.161,7.562 2.601-1.943 4.186-3.109 5.751-4.3 17.275-13.146 34.302-26.636 51.904-39.329 12.404-8.945 16.022-7.889 25.249,4.668 1.95,2.654 3.926,5.448 5.111,8.481 16.424,42.027 18.044,83.998-2.287,125.201-14.594,29.575-39.092,48.506-69.59,59.584-20.835,7.569-42.49,12.392-64.852,11.097-17.264-1-34.262-3.693-49.828-12.358-10.918-6.078-22.414-11.11-33.411-17.054-4.135-2.235-7.8-5.498-11.291-8.714-2.779-2.56-3.55-6.64 0.047-8.481 8.045-4.117 10.875-12.376 16.316-18.513l-.253-.275zm-5.625,20.805c3.825,2.523 6.649,4.751 9.782,6.386 10.763,5.618 21.583,11.134 32.477,16.494 16.162,7.952 33.493,11.357 51.29,10.546 16.544-0.754 32.873-3.988 48.472-9.85 18.428-6.925 35.509-16.07 48.741-31.213 20.589-23.562 29.056-51.406 29.825-82.22 0.478-19.161-4.929-37.103-10.432-55.02-1.417-4.614-4.863-8.605-7.803-13.607-5.619,4.019-9.954,7.119-13.971,9.992 0.497,2.69 0.564,4.203 1.06,5.558 6.795,18.586 3.881,36.253-5.349,53.135-11.568,21.157-26.034,40.23-44.057,56.243-11.25,9.996-23.76,18.562-35.402,28.137-5.954,4.898-11.103,10.761-16.872,15.9-5.75,5.123-10.308,5.243-15.751,1.099-13.087-9.963-26.175-19.926-39.3-29.839-1.695-1.28-3.613-2.263-5.757-3.586-8.878,7.196-17.399,14.102-26.953,21.845zm179.661-140.491c-7.418,3.087-134.15,102.478-142.477,111.865 3.757,2.806 7.46,5.572 11.498,8.587 3.069-4.046 5.628-7.624 8.407-11.022 2.642-3.231 5.513-6.274 8.283-9.4-2.721,8.658-9.86,14.543-13.077,22.614 0.64,0.495 1.28,0.989 1.921,1.484 3.891-3.766 7.781-7.532 11.672-11.298 0.422,0.346 0.844,0.692 1.265,1.038-2.894,4.383-5.787,8.766-9.021,13.664 7.212,5.217 14.015,10.137 21.386,15.469 4.387-4.051 8.57-8.14 12.996-11.947 6.417-5.519 13.061-10.772 19.513-16.251 10.641-9.037 21.987-17.413 31.614-27.434 13.531-14.085 25.437-29.657 33.476-47.742 5.718-12.864 7.8-25.995 2.544-39.627z"/>
    <path d="m95.885,370.227c2.321-3.59 4.229-7.554 7.062-10.678 3.918-4.321 8.519-8.027 12.865-11.954 0.77-0.696 1.723-1.19 3.182-1.184-7.214,8.429-13.847,17.383-23.394,23.557-0.014-0.013 0.285,0.259 0.285,0.259z"/>
    <path d="m89.165,329.489c-5.186,6.481-10.373,12.961-16.194,20.235 0.672-7.137 4.111-11.838 16.194-20.235z"/>
    <path d="m82.347,357.499c5.349-5.803 10.698-11.606 16.047-17.408 0.64,0.552 1.28,1.105 1.92,1.657-5.204,6.023-10.409,12.047-15.613,18.07-0.785-0.773-1.57-1.546-2.354-2.319z"/>
    <path d="m44.697,258.093c-4.327,6.083-8.653,12.166-12.98,18.248 0.734-8.623 6.373-13.924 12.98-18.248z"/>
    <path d="m49.434,277.612c-3.83,4.817-7.659,9.634-12.143,15.274 1.446-7.589 2.364-8.879 12.143-15.274z"/>
    <path d="m235.276,384.638c-1.248,0.998-2.496,1.996-3.743,2.994-0.326-0.355-0.652-0.709-0.979-1.064 1.185-1.045 2.37-2.089 3.555-3.134 0.389,0.401 0.778,0.803 1.167,1.204z"/>
    <path d="m125.515,293.779c0.548-2.999 1.097-5.997 1.645-8.996 0.597,0.165 1.194,0.33 1.791,0.495-1.242,2.729-2.484,5.458-3.707,8.206 0.018,0.019 0.271,0.295 0.271,0.295z"/>
    <path d="m27.882,224.721c1.031-2.235 2.062-4.471 3.093-6.706 0.64,0.403 1.281,0.805 1.921,1.208-1.757,1.76-3.514,3.519-5.265,5.283 0.004,0.004 0.251,0.215 0.251,0.215z"/>
    <path d="m96.83,185.351c1.207-2.794 2.415-5.588 3.622-8.382 0.622,0.388 1.243,0.776 1.865,1.164-1.935,2.296-3.871,4.593-5.786,6.91 0.021,0.021 0.299,0.308 0.299,0.308z"/>
  </g>
</svg>
