<?xml version="1.0" encoding="iso-8859-1"?>
<!-- Generator: Adobe Illustrator 16.0.0, SVG Export Plug-In . SVG Version: 6.00 Build 0)  -->
<!DOCTYPE svg PUBLIC "-//W3C//DTD SVG 1.1//EN" "http://www.w3.org/Graphics/SVG/1.1/DTD/svg11.dtd">
<svg version="1.1" id="Capa_1" xmlns="http://www.w3.org/2000/svg" xmlns:xlink="http://www.w3.org/1999/xlink" x="0px" y="0px"
	 width="187.967px" height="187.967px" viewBox="0 0 187.967 187.967" style="enable-background:new 0 0 187.967 187.967;"
	 xml:space="preserve">
<g>
	<g>
		<path d="M88.217,48.114c-2.275-12.749-0.708-32.007-9.983-42.163c-8.182-8.959-21.875-4.448-32.363-2.65
			c-12.959,2.22-24.92,1.237-35.268,10.618c-8.038,7.286-8.742,20.335-9.322,30.329c-1.377,23.763-3.239,57.711,26.256,56.226
			c-2.785,24.918-1.882,50.752,1.263,74.104c0.235,1.747,1.908,2.302,3.388,1.969c-0.129,0.985,0.16,2.024,1.171,2.916
			c23.775,20.95,41.614-0.235,43.561-26.407c1.157-15.551,1.458-33.414-0.42-50.949C101.874,99.323,91.136,64.468,88.217,48.114z
			 M68.732,118.669c0.03,0.709,0.031,1.418,0.057,2.127c-0.049,0.025-0.097,0.023-0.146,0.052c-5.53,3.125-9.939,6.053-16.471,6.693
			c-6.354,0.624-12.349-1.545-17.958-4.252c0.081-1.499,0.113-2.997,0.212-4.495C44.628,121.726,58.668,123.871,68.732,118.669z
			 M34.816,113.383C36.371,94.566,39.521,75.935,45.1,58.44c5.269-16.523,13.119,1.727,15.85,8.739
			c4.401,11.301,5.548,24.085,6.743,36.006c0.259,2.582,0.461,5.17,0.633,7.76c-4.851,1.66-9.247,3.718-14.67,4.127
			c-6.136,0.462-12.316-0.857-18.354-1.71C35.126,113.338,34.98,113.381,34.816,113.383z M68.989,128.243
			c0.061,2.502,0.152,5.006,0.202,7.505c-5.441,2.028-9.905,4.829-15.877,5.527c-6.812,0.797-13.272-1.127-19.592-3.388
			c0.059-3.405,0.141-6.815,0.285-10.229C44.169,133.705,59.096,135.405,68.989,128.243z M69.247,142.34
			c0.012,1.716,0.033,3.43,0.038,5.144c-0.187,0.055-0.376,0.09-0.552,0.192c-5.54,3.211-9.67,4.958-16.26,4.594
			c-5.99-0.331-11.611-2.701-17.4-3.99c-0.496-0.11-0.95-0.014-1.329,0.199c-0.013-2.114-0.076-4.21-0.06-6.332
			C43.667,147.241,59.61,149.151,69.247,142.34z M33.773,151.783c9.43,4.978,25.895,10.005,35.509,2.928
			c0.119,3.617-0.391,6.688-1.395,9.33c-5.329,1.461-10.081,3.42-15.835,3.725c-6.368,0.336-12.273-1.61-17.996-4.115
			C33.921,159.718,33.826,155.761,33.773,151.783z M38.75,174.071c-1.363-1.19-2.958-1.199-4.244-0.583
			c-0.089-1.475-0.133-2.979-0.204-4.466c6.174,3.272,13.978,5.084,21.448,4.772C51.206,174.862,45.62,175.025,38.75,174.071z
			 M76.07,94.249c-0.204,0.021-0.35,0.121-0.538,0.165c-2.396-16.3-6.888-31.974-14.648-44.821
			c-10.245-16.96-21.116-1.175-24.913,10.429c-3.73,11.397-6.201,23.54-7.824,35.935C3.885,92.738,8.407,63.743,9.072,44.249
			c0.798-23.431,11.525-31.211,34.303-32.694c9.989-0.65,26.057-8.694,31.446,5.797c3.339,8.98,3.791,19.356,4.909,28.78
			C80.891,55.896,93.231,92.521,76.07,94.249z"/>
		<path d="M178.837,7.772c-5.044-10.687-14.858-6.212-15.877,4.302c-0.792,8.179,1.559,16.874-0.065,24.909
			c0.506-2.501-7.501-13.268-7.276-12.641c-0.53-1.475-1.183-8.19-1.55-10.587c-0.621-4.058-3.549-6.472-6.815-8.289
			c-0.392-1.209-1.425-2.255-3.009-2.421c-16.406-1.719-11.529,21.612-16.029,33.172c-4.595-12.634,1.337-33.617-16.035-36.109
			c-11.739-1.684-11.886,16.703-11.997,23.929c-0.211,13.667-5.432,67.051,21.301,56.626c0.065,0.172,0.129,0.356,0.353,0.409
			c-0.229,0.072-0.459,0.144-0.688,0.215c-1.062,0.606-1.779,1.828-1.753,3.056c0.366,17.396-0.182,34.784,0.445,52.184
			c0.453,12.576-0.57,27.933,11.075,35.46c9.744,6.297,32.449,10.538,36.495-4.958c2.656-10.172,0.392-19.978-0.116-30.28
			c-0.483-9.821-1.286-19.654-2.176-29.479c-0.005-0.138-0.015-0.268-0.038-0.404c-0.715-7.859-1.48-15.712-2.208-23.548
			c14.629,5.374,22.771-13.503,23.923-24.667C188.525,41.896,186.07,23.098,178.837,7.772z M126.731,121.209
			c0.167,0.285,0.406,0.544,0.815,0.67c8.48,2.617,22.549,6.614,31.16,1.543c0.205,2.88,0.451,5.758,0.635,8.636
			c-4.549,1.247-8.629,3.017-13.614,3.305c-5.25,0.303-10.665-0.925-15.737-2.149c-2.674-0.646-3.758,3.304-1.132,4.108
			c8.834,2.708,21.883,5.38,30.905,0.817c0.044,0.772,0.12,1.546,0.161,2.318c0.025,0.47,0.095,1.055,0.157,1.62
			c-0.475-0.229-1.019-0.358-1.66-0.255c-1.992,0.323-3.453,1.493-5.212,2.43c-2.542,1.355-5.51,1.971-8.315,2.488
			c-1.209,0.223-12.206,1.421-12.726,0.035c-0.48-1.285-2.727-1.223-2.572,0.348c0.438,4.438,7.617,4.616,10.803,4.793
			c5.548,0.308,16.733-0.312,20.208-5.747c0.271,1.938,0.559,4.055,0.74,6.23c-0.453-0.168-0.939-0.255-1.435-0.164
			c-2.84,0.52-5.294,2.571-8.152,3.376c-3.701,1.042-7.642,1.191-11.463,1.294c-3.013,0.081-7.455,0.409-10.965,0.088
			C126.884,145.357,126.609,133.306,126.731,121.209z M152.662,170.153c-7.906,0.974-18.446-2.674-22.173-9.921
			c4.068,1.276,8.415,1.533,12.902,1.647c4.825,0.123,14.342-0.072,18.134-4.419C161.357,163.749,159.444,169.318,152.662,170.153z
			 M178.635,62.355c-1.969,10.258-6.896,12.492-15.907,15.231c-0.902,0.274-1.406,0.848-1.728,1.501
			c-2.267-1.443-5.895-0.554-5.607,2.827c0.657,7.765,1.265,15.551,1.885,23.332c-9.34,2.368-17.712,1.966-27.323-1.541
			c-2.114-0.771-3.595,2.724-1.536,3.644c9,4.022,19.6,6.494,29.376,4.302c0.169,2.178,0.364,4.351,0.528,6.529
			c-4.384,1.17-8.066,2.565-12.73,2.822c-5.81,0.32-11.626-0.651-17.255-1.986c-0.788-0.188-1.31,0.237-1.59,0.784
			c0.149-11.907,0.617-23.844-0.272-35.455c-0.133-1.727-1.02-2.785-2.6-3.413c-0.155-0.062-0.584-0.559-0.922-0.911
			c0.529-0.242,1.046-0.457,1.599-0.747c2.05-1.073,0.807-3.655-1.056-3.897c-14.52-1.892-15.887-10.452-15.913-23.675
			c-0.015-7.628,0.642-15.198,0.376-22.832c-0.146-4.2-0.125-8.376,0.142-12.57c0.14-2.03,0.497-4.017,1.073-5.961
			c2.459-9.7,8.568,5.484,8.894,8.378c1.11,9.866,0.785,19.206,7.2,27.339c1.36,1.725,3.914,1.191,5.351,0
			c10.151-8.413,3.693-31.304,13.501-36.084c4.722,9.099,7.163,37.542,21.656,33.555c8.251-2.27,4.465-19.53,4.378-25.207
			c-0.119-7.685,0.33-12.125,3.879-2.786c2.706,7.12,4.122,14.84,5.069,22.367C180.12,45.996,180.175,54.333,178.635,62.355z"/>
	</g>
</g>
<g>
</g>
<g>
</g>
<g>
</g>
<g>
</g>
<g>
</g>
<g>
</g>
<g>
</g>
<g>
</g>
<g>
</g>
<g>
</g>
<g>
</g>
<g>
</g>
<g>
</g>
<g>
</g>
<g>
</g>
</svg>
