<?xml version='1.0' encoding='iso-8859-1'?>
<!DOCTYPE svg PUBLIC '-//W3C//DTD SVG 1.1//EN' 'http://www.w3.org/Graphics/SVG/1.1/DTD/svg11.dtd'>
<svg version="1.1" xmlns="http://www.w3.org/2000/svg" viewBox="0 0 413.537 413.537" xmlns:xlink="http://www.w3.org/1999/xlink" enable-background="new 0 0 413.537 413.537">
  <g>
    <path d="m392.883,299.451c7.593,2.355 9.18,7.991 9.023,14.591-0.546,23.111-1.058,46.222-1.677,69.331-0.077,2.875-0.538,5.774-1.129,8.597-2.582,12.338-7.024,15.78-19.916,17.338-17.126,2.069-33.913-0.39-50.725-2.89-2.47-0.367-4.89-1.294-7.241-2.202-9.008-3.48-9.365-4.067-9.429-14.297-3.218,0-6.463-0.249-9.66,0.039-25.961,2.337-51.86,2.447-77.946,0.999-23.414-1.299-46.99,0.365-70.496,0.633-10.446,0.119-20.894,0.02-31.177,0.02-0.769,4.266-0.335,8.497-2.245,10.655-2.068,2.337-6.232,3.417-9.637,3.865-12.148,1.599-24.355,2.754-36.551,3.967-10.424,1.037-20.855,2.026-31.3,2.83-5.391,0.416-10.851,0.853-16.218,0.452-8.888-0.664-12.631-3.783-13.187-12.753-1.14-18.383-1.663-36.82-1.848-55.242-0.094-9.364 1.23-18.735 1.669-28.114 0.478-10.206 0.356-10.212 10.822-12.765 0-10.298-0.021-20.757 0.004-31.217 0.074-31.094 0.244-62.189 0.159-93.282-0.011-4.133-1.351-8.252-1.955-12.395-1.355-9.292-2.873-18.57-3.896-27.9-2.277-20.783-4.291-41.595-6.435-62.617 0.699-0.654 1.382-1.868 2.239-2.008 9.922-1.619 19.826-3.683 29.824-4.43 14.043-1.048 28.159-1.255 42.25-1.503 11.098-0.195 11.363,0.188 16.211,10.588 1.291,0.09 2.712,0.261 4.134,0.275 3.971,0.039 7.944,0.014 11.717,0.014 18.42-21.576 38.46-40.771 60.822-57.531 6.937-5.199 13.607-10.764 20.281-16.304 9.832-8.161 13.958-7.774 25.017-1.677 12.748,7.029 24.948,14.59 35.619,24.515 10.844,10.084 21.824,20.027 32.461,30.325 3.579,3.464 6.287,7.828 10.024,12.583 1.424,0 3.901,0.193 6.341-0.03 26.245-2.401 52.473-4.985 78.729-7.247 8.607-0.741 11.556,1.498 11.882,9.997 0.65,16.902 4.715,33.753 1.078,50.75-1.283,5.995-1.878,12.211-3.854,17.96-1.744,5.073-4.972,9.635-8.699,16.568 1.571,44.53 3.236,91.837 4.915,139.512zm-50.666-189.489c-18.99,1.42109e-14-36.353-0.449-53.684,0.103-27.814,0.886-55.595,2.926-83.411,3.578-35.088,0.822-70.197,0.73-105.297,1.056-6.495,0.06-12.992,0.164-19.483,0.397-1.712,0.061-4.063,0.086-5.002,1.131-7.835,8.721-19.832,14.86-16.893,30.117 1.431,7.428 0.483,15.314 0.652,25.364 7.63-9.966 13.562-17.714 19.494-25.463 0.583,0.436 1.166,0.873 1.748,1.309-6,8.881-11.834,17.88-18.065,26.595-3.548,4.962-4.878,9.783-1.92,16.157 5.921-6.184 9.471-13.549 16.276-17.837-4.386,8.04-9.39,15.546-14.43,23.028-2.868,4.256-4.378,8.588-1.165,13.975 5.551-6.218 10.764-12.058 15.978-17.898 0.548,0.466 1.095,0.932 1.643,1.397-4.014,5.442-7.427,11.491-12.175,16.192-8.527,8.442-6.268,17.722-4.492,28.848 6.341-7.694 11.647-14.133 16.953-20.572 0.652,0.48 1.305,0.96 1.957,1.44-4.053,5.754-7.458,12.14-12.306,17.121-7.93,8.146-7.52,16.839-4.234,27.568 7.272-8.179 13.85-15.576 20.428-22.973 0.616,0.515 1.232,1.031 1.847,1.546-6.327,8.004-12.462,16.171-19.039,23.964-5.914,7.007-4.266,14.084-1.817,22.774 6.947-7.474 10.996-15.792 18.751-20.608-4.793,7.744-10.032,15.091-15.875,21.921-3.44,4.02-4.041,7.844-2.08,13.749 5.431-5.747 10.173-10.766 14.915-15.785 0.662,0.58 1.323,1.161 1.985,1.741-4.027,4.781-7.905,9.699-12.122,14.306-4.177,4.562-6.224,9.237-4.628,15.717 1.272,5.166 1.253,10.699 1.415,16.081 0.364,12.059 5.79,16.59 17.917,15.511 17.985-1.6 35.991-3.562 54.018-3.931 23.488-0.481 47.005,0.736 70.508,0.689 24.58-0.049 49.176-0.303 73.733-1.262 21.647-0.845 43.251-2.806 64.877-4.228 4.867-0.32 7.149-2.94 7.219-7.66 0.032-2.169-0.035-4.344-0.155-6.511-1.154-20.928-2.444-41.849-3.468-62.783-1.201-24.556-2.416-49.115-3.176-73.687-0.637-20.6-1.525-41.265-0.507-61.812 0.462-9.39-1.281-16.109-6.89-20.365zm-255.019,246.175c-0.449,1.033-0.899,2.065-1.349,3.098 9.182,8.038 18.334,16.11 27.589,24.063 0.979,0.842 2.578,1.434 3.857,1.381 11.165-0.467 22.316-1.416 33.484-1.633 26.713-0.52 53.434-0.672 80.15-1.062 22.713-0.331 45.424-0.816 68.136-1.171 7.072-0.11 14.146-0.017 22.12-0.017 7.087-8.94 14.617-18.439 22.235-28.049-34.115,1.039-67.243,2.575-100.383,2.912-33.608,0.342-67.228-0.704-100.844-0.742-18.33-0.022-36.663,0.786-54.995,1.22zm44.292-279.322c0.304,0.81 0.607,1.62 0.911,2.43 51.25-2.242 102.5-4.484 153.75-6.726 0.351-0.873 0.702-1.747 1.053-2.62-18.669-15.883-32.444-36.804-54.387-51.54 0.345,10.508-3.301,16.963-12.762,18.499-12.105,1.964-21.794-1.843-27.859-13.421-23.028,15.442-42.838,33.333-60.706,53.378zm200.774,25.047c0.445-0.835 0.89-1.669 1.335-2.504-3.18-3.262-6.588-6.335-9.489-9.83-4.753-5.728-10.417-7.902-17.986-7.536-23.445,1.133-46.93,1.432-70.383,2.438-44.028,1.888-88.004,5.191-132.131,4.271-3.156-0.066-7.199,1.464-9.365,3.683-4.114,4.214-7.166,9.464-12.339,16.601 85.256-2.426 167.807-4.775 250.358-7.123zm24.177,26.946c-3.201,67.573 5.783,132.937 7.642,200.89 5.414-5.689 9.012-10.08 13.241-13.743 4.274-3.702 5.619-7.953 5.297-13.401-0.723-12.241-1.378-24.5-1.55-36.759-0.42-29.988-0.492-59.981-0.835-89.97-0.097-8.512 1.614-18.03-1.617-25.246-3.307-7.388-11.645-12.529-17.815-18.619-0.741-0.733-1.699-1.245-4.363-3.152zm-331.332,273.544c15.104,2.429 76.203-3.781 84.884-9.093-15.014-12.977-28.954-26.652-44.556-38.055-15.758-11.518-27.347-28.069-46.021-38.849 0.518,11.773 0.937,21.32 1.432,32.559 4.223-4.327 7.16-7.337 11.588-11.875-3.675,11.03-13.785,17.297-9.394,29.403 3.971-4.767 7.362-8.838 10.753-12.909 0.564,0.477 1.128,0.953 1.691,1.43-3.124,4.701-6.35,9.339-9.347,14.119-4.308,6.87-4.267,7.179-1.647,15.657 4.462-5.228 8.825-10.34 14.761-17.295-3.178,14.235-17.131,21.123-14.144,34.908zm26.103-259.201c-9.992,11.399-22.776,20.554-17.542,38.457 1.884-1.149 3.598-2.194 6.287-3.834-2.821,7.03-5.127,12.617-7.242,18.277-0.233,0.622 0.635,1.655 1.179,2.937 2.415-2.053 4.408-3.747 6.401-5.441-1.001,4.518-3.741,7.656-5.947,11.132-3.273,5.158-2.651,7.318 1.15,9.817-1.047,6.114-2.574,11.609-2.797,17.157-0.32,7.934 0.273,15.907 0.548,23.862 0.673,19.453 1.388,38.904 2.127,59.486 2.817,2.563 6.865,6.172 10.828,9.871 3.98,3.714 6.503,9.297 12.173,10.53-2.386-64.028-4.751-127.459-7.165-192.251zm272.765,250.162c1.189,1.577 1.355,2.051 1.631,2.128 18.291,5.068 36.886,6.135 55.622,3.521 2.264-0.316 4.679-2.955 6.068-5.128 1.275-1.995 1.364-4.798 1.795-7.276 3.797-21.84 2.516-43.866 2.282-65.847-0.024-2.261-0.816-4.515-1.574-8.445-22.632,27.868-44.148,54.359-65.824,81.047zm-283.278-291.496c0.713,0.407 1.426,0.814 2.14,1.221-3.96,5.861-8.045,11.644-11.824,17.619-1.691,2.673-3.971,5.768-3.893,8.613 0.211,7.717 1.54,15.402 2.727,25.718 21.431-22.499 42.287-42.185 59.295-65.348-0.744-3.401-1.424-6.507-2.259-10.324-21.604-0.171-43.013,0.123-65.061,2.96 0.912,8.597 1.718,16.188 2.726,25.693 5.893-8.19 10.484-14.571 15.075-20.953 0.615,0.416 1.231,0.833 1.846,1.249-2.689,4.554-5.483,9.05-8.036,13.679-2.628,4.765-5.022,9.66-7.518,14.498 0.609,0.329 1.218,0.658 1.828,0.987 4.317-5.204 8.636-10.408 12.954-15.612zm313.45,4.102c3.159-2 6.534-4.137 9.908-6.274 0.17,0.322 0.34,0.645 0.51,0.967-2.607,3.287-5.214,6.574-8.489,10.704 10.134,9.937 19.818,19.432 30.735,30.137 6.771-23.592 4.848-45.454 1.366-67.635-20.825,1.546-41.056,3.048-63.52,4.715 11.036,10.249 20.123,18.687 29.49,27.386zm-128.625-78.279c-0.463-9.103-2.304-14.182-6.812-16.974-1.812-1.122-4.885-1.734-6.731-0.981-4.963,2.027-6.28,6.986-6.229,11.685 0.054,4.897 4.868,4.614 8.171,5.245 3.753,0.719 7.645,0.709 11.601,1.025z"/>
    <path d="m199.561,249.855c4.364,0.964 7.438,1.643 11.265,2.488-0.959-14.101 3.839-26.23 9.867-37.724 10.705-20.415 26.459-34.674 50.872-34.533 15.763,0.091 28.305,6.5 38.683,19.915 10.059,13.002 10.707,26.168 8.585,40.734-1.661,11.402-3.62,22.761-5.472,34.135-1.616,9.92-2.87,10.825-12.844,10.003 0,11.736 0.001,23.523-0.007,35.309 0,0.358-0.09,0.717-0.147,1.074-3.224,20.206-13.659,20.784-31.637,15.528-3.69-1.079-7.379-2.664-11.14-2.907-14.764-0.956-29.552-1.613-44.341-2.046-3.861-0.113-7.882,0.548-11.614,1.609-10.879,3.094-21.728,4.167-33.122,3.221-9.99-0.83-20.155,0.43-30.241,0.794-4.796,0.173-6.896-1.762-9.461-6.447-10.688-19.524-7.418-38.28 0.81-57.195 1.281-2.946 3.101-5.657 4.691-8.509-3.726-5.777-7.887-11.249-10.96-17.276-2.914-5.716-4.76-11.987-6.917-18.071-0.588-1.658-0.056-3.895-0.969-5.229-9.68-14.144-2.018-26.805 3.271-39.624 0.641-1.554 2.389-3.797 3.605-3.785 8.356,0.083 11.781-7.004 17.299-11.092 13.661-10.122 50.299-2.647 52.473,21.872 0.213,2.406 1.172,4.936 2.42,7.029 9.32,15.635 13.459,31.837 5.031,50.727zm72.238,28.419c-3.028,7.443-8.606,11.988-17.527,9.573-10.331-2.796-7.406-11.697-7.813-18.218-5.652-4.828-10.765-9.196-16.311-13.933-1.098,1.367-1.936,3.056-3.293,3.999-13.299,9.24-16.025,21.53-12.092,36.727 1.68,6.493 0.77,13.651 1.099,20.503 0.131,2.731 0.431,5.454 0.721,8.989 17.344-0.624 33.839-1.218 49.88-1.796 3.321-8.846 6.058-16.135 8.795-23.425 0.247,0.051 0.494,0.103 0.741,0.155-1.135,9.536-2.27,19.072-3.38,28.4 10.233,4.089 15.547,3.248 17.471-3.811 4.577-16.792 6.814-33.7-3.504-49.844-4.877,0.885-9.432,1.71-14.787,2.681zm-129.33-9.926c-12.311,19.313-13.479,39.473-7.792,60.945 6.395,0 12.752,0 20.263,0-3.556-11.644-6.828-22.357-10.099-33.07 0.686-0.312 1.373-0.623 2.06-0.934 0.849,0.99 1.949,1.855 2.506,2.988 3.974,8.096 8.27,16.076 11.557,24.448 1.735,4.419 4.07,6.78 8.56,6.548 10.066-0.52 20.157-0.979 30.155-2.167 4.078-0.484 7.205-3.5 7.086-8.29-0.233-9.364-0.23-18.755-1.013-28.077-0.682-8.121-2.312-16.163-3.766-25.864 2.995,2.252 4.572,3.438 6.729,5.059 1.929-2.871 3.835-5.707 5.982-8.903-6.514-1.916-12.021-3.536-17.263-5.077-4.892,2.947-6.192,6.936-6.417,12.068-0.163,3.726-1.083,8.321-3.45,10.876-6.529,7.049-25.425,5.699-30.212-2.43-3.479-5.909-7.822-7.968-14.886-8.12zm-21.664-40.536c5.729,23.969 14.626,32.251 30.781,34.406 21.127,2.819 32.642-1.681 41.913-18.681 6.779-12.432 5.424-27.51-5.275-41.373-16.795,8.298-32.917,1.362-49.741-3.227-2.491,5.048-4.56,10.059-7.339,14.64-2.746,4.526-6.209,8.617-10.339,14.235zm123.187-15.015c-3.031,9.137-6.281,17.875-8.786,26.822-1.951,6.972 1.065,12.962 6.343,17.332 7.867,6.512 16.796,11.501 27.056,12.725 4.444,0.53 10.466,0.47 13.491-2.054 10.036-8.371 18.751-18.273 18.455-32.593-0.056-2.692-2.084-5.997-4.211-7.878-9.304-8.229-21.19-10.048-32.758-9.833-5.031,0.093-8.709,0.253-12.6-2.976-1.414-1.173-3.993-0.943-6.99-1.545zm-83.361,59.416c6.8,7.363 13.42,5.352 19.763,3.517 3.283-0.95 5.364-3.327 3.371-7.81-7.199,1.336-14.386,2.67-23.134,4.293zm90.38-.103c-0.305,5.631 0.063,9.158 4.726,9.731 3.527,0.433 7.348,0.627 7.751-5.639-3.677-1.206-7.533-2.471-12.477-4.092z"/>
    <path d="m215.813,157.903c2.952-3.655 5.43-7.177 8.379-10.247 2.986-3.108 6.858-4.168 10.831-1.935 4.071,2.289 5.17,6.579 3.633,10.346-2.696,6.606-6.074,13.019-9.901,19.046-2.393,3.768-6.704,5.913-11.342,4.418-7.504-2.42-14.925-5.173-22.183-8.255-3.797-1.612-6.708-4.741-5.728-9.365 1.089-5.141 5.434-6.774 9.9-6.557 5.298,0.258 10.543,1.586 16.411,2.549z"/>
    <path d="m72.448,325.748c2.076-2.659 4.151-5.319 6.227-7.978 0.712,4.528-2.618,6.4-6.227,7.978z"/>
    <path d="m170.089,225.611c6.163,5.319 4.013,9.836 1.067,13.242-1.682,1.944-5.693,3.291-8.213,2.77-4.037-0.834-6.849-3.88-4.576-9.305 2.181,1.21 4.225,2.343 6.701,3.717 1.545-3.207 2.996-6.219 5.021-10.424z"/>
    <path d="m141.076,245.264c-2.558-4.407-4.772-6.751-5.256-9.41-0.666-3.662 3.09-6.888 6.698-6.422 3.683,0.476 6.322,2.962 5.397,6.432-0.757,2.841-3.6,5.126-6.839,9.4z"/>
    <path d="m191.495,219.957c-3.729,3.066-5.537,5.659-7.808,6.161-3.38,0.748-7.03-0.995-6.579-5.028 0.248-2.22 3.042-5.661 4.919-5.819 2.413-0.204 5.057,2.334 9.468,4.686z"/>
    <path d="m286.131,233.877c2.641,3.692 5.092,5.617 5.33,7.785 0.414,3.774-2.357,5.668-6.159,5.463-3.495-0.189-5.472-2.372-4.606-5.603 0.598-2.231 2.776-4.039 5.435-7.645z"/>
    <path d="m261.467,234.373c1.795,3.83 2.643,5.637 3.754,8.008 2.154-0.789 4.275-1.565 6.796-2.488 0.176,1.382 0.747,2.64 0.344,3.217-3.237,4.636-7.09,5.953-10.51,3.479-3.935-2.847-3.387-6.342-0.384-12.216z"/>
    <path d="m256.417,232.207c-3.481,1.92-5.343,3.729-7.167,3.692-1.324-0.027-3.849-2.775-3.618-3.818 0.401-1.808 2.476-4.452 3.933-4.506 1.724-0.063 3.537,2.243 6.852,4.632z"/>
  </g>
</svg>
