<?xml version="1.0" encoding="iso-8859-1"?>
<!-- Generator: Adobe Illustrator 16.0.0, SVG Export Plug-In . SVG Version: 6.00 Build 0)  -->
<!DOCTYPE svg PUBLIC "-//W3C//DTD SVG 1.1//EN" "http://www.w3.org/Graphics/SVG/1.1/DTD/svg11.dtd">
<svg version="1.1" id="Capa_1" xmlns="http://www.w3.org/2000/svg" xmlns:xlink="http://www.w3.org/1999/xlink" x="0px" y="0px"
	 width="192.527px" height="192.527px" viewBox="0 0 192.527 192.527" style="enable-background:new 0 0 192.527 192.527;"
	 xml:space="preserve">
<g>
	<g>
		<path d="M162.622,109.619c1.429-32.82-3.515-65.752-3.916-98.573c-0.03-2.432-2.046-4.608-4.548-4.548
			C118.666,7.36,59.329-13.016,30.287,14.299c-1.167,1.097-1.023,2.657-0.276,3.807c-0.835,26.334,0.326,52.74,1.238,79.06
			c0.93,26.836-0.22,54.62,2.752,81.326c-0.602,1.099-0.694,2.416,0.28,3.689c0.112,0.147,0.249,0.267,0.364,0.409
			c0.359,0.877,0.949,1.489,1.66,1.852c10.6,10.197,31.307,8.003,44.414,7.635c23.63-0.663,47.094-4.782,70.734-4.821
			c3.12-0.005,4.468-2.451,4.222-4.785c1.555-0.387,2.953-1.704,3.454-3.167C165.951,159.363,161.699,130.817,162.622,109.619z
			 M101.632,181.741c-14.999,1.229-47,7.245-59.925-3.815c2.193-23.575-0.453-48.224-1.302-71.791
			c-1.061-29.436-1.652-58.896-2.829-88.326c-0.012-0.305-0.124-0.534-0.188-0.801c28.185-16.457,79.086-2.614,109.054-1.384
			c6.84,0.281,4.126,24.445,4.596,32.187c0.908,14.977,1.998,29.921,2.515,44.919c0.262,7.559-3.808,80.901-0.747,81.005
			c-2.844-0.097-3.888,2.368-3.314,4.527C133.706,177.454,117.293,180.456,101.632,181.741z"/>
		<path d="M141.827,126.403c1.583-30.458,2.202-61.973,0.255-92.366c-0.088-1.379-0.896-2.221-1.87-2.546
			c2.25-1.912,1.523-6.556-2.281-6.573c-29.303-0.125-58.61-1.621-87.906-0.532c-2.608,0.097-3.345,2.782-2.306,4.457
			c-1.882,4.178-3.149,14.45-3.147,14.953c0.065,26.812-2.317,58.702,5.252,84.357c0.455,1.541,1.594,2.152,2.749,2.127
			c0.086,1.389,1.019,2.716,2.862,2.772c15.35,0.476,30.702-0.206,46.046-0.676c13.181-0.404,26.819,0.764,39.851-1.144
			C143.749,130.877,143.719,127.389,141.827,126.403z M55.624,127.048c-0.003-0.17,0.04-0.319,0.011-0.498
			c-3.356-20.738-3.285-42.162-3.684-63.136c-0.155-8.145,1.346-29.199-2.734-32.628c0.661,0.555,1.752,0.208,1.898-0.585
			c28.668,1.245,57.371,2.042,86.066,2.124c-0.369,0.435-0.651,0.979-0.698,1.711c-1.925,30.048-1.334,61.185,0.209,91.321
			C111.147,120.753,81.118,125.922,55.624,127.048z"/>
		<path d="M66.589,149.938c0.014-0.532,0.032-1.072,0.046-1.601c0.145-5.723-8.996-5.726-8.877,0
			c0.016,0.738,0.03,1.488,0.044,2.235c-0.094,0.003-0.195,0-0.287,0.004c-2.502,0.098-4.994,0.207-7.49,0.416
			c-4.386,0.369-4.386,6.443,0,6.812c2.496,0.21,4.988,0.319,7.49,0.417c0.02,0,0.041,0,0.06,0
			c-0.123,1.094-0.299,2.176-0.549,3.239c-1.186,5.045,5.862,6.821,7.635,2.105c0.577-1.533,0.931-3.136,1.208-4.759
			C71.684,159.549,71.926,150.042,66.589,149.938z"/>
		<path d="M128.794,151.695c0.165-5.666-8.588-5.643-8.776,0c-0.066,1.981-0.664,4.18-1.265,6.253
			c-0.347,1.197-0.663,2.256-0.771,3.52c-0.055,0.64-0.193,3.333,0.021,1.197c-0.128,1.58,1.229,3.273,2.748,3.61
			c0.924,0.203,1.736,0.136,2.464-0.11c0.679,0.692,1.659,1.144,2.543,1.144c2.013,0,3.264-1.574,3.442-3.441
			C129.591,159.781,128.675,155.78,128.794,151.695z"/>
		<path d="M140.45,151.784c-0.205-0.631-0.568-1.187-0.997-1.679c-0.037-0.307-0.022-0.596-0.074-0.908
			c-0.795-4.875-8.535-3.613-8.463,1.145c0.032,2.093,0.479,4.136,0.822,6.19c0.052,1.968-0.009,3.938,0.241,5.981
			c0.179,1.459,0.861,2.711,2.383,3.13c1.392,0.384,3.177-0.366,3.764-1.764c1.606-0.505,2.91-1.846,2.914-4.07
			C141.044,157.243,141.251,154.246,140.45,151.784z"/>
		<path d="M124.172,104.831c-5.023-7.109-11.376-13.28-18.575-18.203c-1.025-1.58-2.03-3.182-3.021-4.812
			c-1.637-2.697-4.759-2.663-7.03-0.906c-11.14,8.618-21.389,18.317-32.385,27.12c-1.884,1.508,0.146,5.021,2.395,4.112
			c0.236-0.095,0.455-0.216,0.689-0.313c0.369,0.247,0.798,0.442,1.362,0.491c10.094,0.862,20.845,0.938,30.898-0.247
			c4.688-0.554,9.632-0.951,14.436-0.795c0.528,0.397,1.199,0.625,2,0.563c0.611-0.047,1.117-0.157,1.607-0.274
			c1.493,0.229,3.158,0.167,4.979-0.232C124.17,110.756,125.784,107.112,124.172,104.831z"/>
		<path d="M96.006,56.112c-2.932,0-4.261,3.029-3.126,5.447c0.756,1.611,0.016,4.098-0.359,5.699
			c-0.59,2.522,2.622,3.737,4.042,1.704c0.694-0.993,1.125-2.003,1.554-3.128c0.509-1.333,0.415-3.01,1.015-4.275
			C100.278,59.143,98.928,56.112,96.006,56.112z"/>
		<path d="M100.456,38.079c-0.832-1.316-1.98-1.73-3.098-1.657c-1.117-0.073-2.266,0.341-3.098,1.657
			c-1.065,1.683-0.757,4.691,0.354,6.478c0.011,0.1,0.022,0.199,0.033,0.299c0.391,3.487,5.03,3.487,5.422,0
			c0.011-0.1,0.021-0.199,0.033-0.299C101.214,42.77,101.521,39.762,100.456,38.079z"/>
	</g>
</g>
<g>
</g>
<g>
</g>
<g>
</g>
<g>
</g>
<g>
</g>
<g>
</g>
<g>
</g>
<g>
</g>
<g>
</g>
<g>
</g>
<g>
</g>
<g>
</g>
<g>
</g>
<g>
</g>
<g>
</g>
</svg>
