<?xml version="1.0" encoding="iso-8859-1"?>
<!-- Generator: Adobe Illustrator 16.0.0, SVG Export Plug-In . SVG Version: 6.00 Build 0)  -->
<!DOCTYPE svg PUBLIC "-//W3C//DTD SVG 1.1//EN" "http://www.w3.org/Graphics/SVG/1.1/DTD/svg11.dtd">
<svg version="1.1" id="Capa_1" xmlns="http://www.w3.org/2000/svg" xmlns:xlink="http://www.w3.org/1999/xlink" x="0px" y="0px"
	 width="194.088px" height="194.088px" viewBox="0 0 194.088 194.088" style="enable-background:new 0 0 194.088 194.088;"
	 xml:space="preserve">
<g>
	<g>
		<path d="M159.549,50.826c-3.019-2.535-6.248-4.454-9.51-5.764c0.182-0.427,0.34-0.883,0.393-1.427
			c0.31-3.168-0.666-8.408-4.279-9.401c-2.877-0.791-7.514-0.051-10.34,0.794c-2.353,0.703-4.78,2.22-5.321,4.793
			c-0.283,1.345-0.065,2.639,0.521,3.869c0.152,0.319,0.385,0.577,0.603,0.847c-6.15,2.62-10.519,8.51-10.843,17.666
			c-4.029,0.164-8.028,0.409-12.121,0.291c0.912-0.505,1.634-1.307,1.838-2.49c0.554-3.208,0.432-7.669-1.615-10.358
			c-0.249-0.328-0.547-0.579-0.844-0.829c-0.191-2.645-2.288-4.015-4.428-4.001c-2.236-3.906-2.924-7.888,1.66-11.35
			c2.844-2.146,8.379-4.477,11.521-4.52c3.922-0.053,8.707,2.974,12.548,3.879c3.977,0.937,9.24,1.079,11.771-2.784
			c3.002-4.581,1.418-12.478-2.344-16.061c-1.884-1.795-4.527-0.392-4.767,1.975c-0.552,5.464,4.646,11.543-3.669,9.806
			c-4.557-0.952-8.866-3.232-13.54-3.584c-6.534-0.493-14.954,5.19-18.704,10.108c-3.328,4.365-2.024,9,0.783,12.782
			c-1.952,0.136-3.751,1.462-3.775,4.104c-0.033,3.69-0.067,7.381-0.099,11.072c-0.004,0.427,0.097,0.813,0.212,1.192
			c-4.198-0.327-8.393-0.539-12.649-0.362c-0.4-9.248-3.394-16.225-8.388-19.652c0.006-0.335,0.06-0.646-0.007-1.017
			c-1.75-9.67-12.131-11.572-20.101-8.965c-1.612,0.527-3.11,2.061-2.963,3.892c0.238,2.97,0.822,5.681,2.038,8.251
			c-0.279,0.173-0.546,0.305-0.828,0.489c-21.557,14.036-39.14,42.234-48.397,65.681c-7.615,19.289-5.601,62.812,19.729,69.373
			c28.317,7.335,52.883-21.677,49.963-48.863c11.232,3.701,24.274,3.387,35.929,3.586c3.211,0.055,13.19,1.176,19.469-0.521
			c3.58,19.209,14.916,39.443,34.09,46.214c21.312,7.524,29.465-17.384,30.697-33.336
			C196.195,114.896,184.298,71.614,159.549,50.826z M184.863,149.87c-1.206,15.586-10.553,27.623-25.891,18.162
			c-13.358-8.24-19.55-25.134-22.223-39.722c-0.445-2.426-2.27-3.238-4.096-2.998c-4.219-2.623-15.281-0.25-18.186-0.197
			c-12.918,0.234-26.628,0.135-39.345-2.391c-1.771-0.351-3.132,0.34-3.935,1.42c-2.772-1.347-7.225,0.983-6.429,5.076
			c6.481,33.317-41.807,62.246-53.613,21.207c-4.761-16.549-1.435-34.399,6.285-49.296c6.993-13.493,16.164-26.026,26.213-37.372
			c4.657-5.259,9.89-10.019,15.744-13.902c11.748-7.793,15.767,4.513,18.151,13.843c0.142,0.555,0.446,0.94,0.804,1.241
			c0.255,1.345,1.258,2.574,3.079,2.757c13.477,1.356,35.089,9.081,47.533,1.264c2.671-1.678,2.108-5.503-0.478-6.574
			c2.082-9.219,7.455-14.107,18.451-9.404c10.604,4.534,16.819,14.95,22.219,24.54C181.225,98.973,186.755,125.414,184.863,149.87z"
			/>
		<path d="M62.046,80.557c-2.187-0.067-4.379-0.047-6.57-0.058c0.005-2.138-0.027-4.273,0.032-6.415
			c0.055-2.034-1.016-3.31-2.415-3.927c-2.179-2.785-7.139-3.081-7.979,1.309c-0.572,2.99-0.993,6.009-1.354,9.037
			c-1.748,0.016-3.497,0.036-5.242,0.039c-0.813-0.001-1.491,0.193-2.082,0.489c-0.689,0.036-1.382,0.032-2.07,0.078
			c-5.882,0.391-4.292,8.574,0.077,8.096c0.662,0.044,1.33,0.04,1.993,0.075c0.591,0.296,1.269,0.491,2.082,0.489
			c1.407,0.002,2.818,0.02,4.227,0.032c-0.49,3.535-1.346,8.02,1.354,10.534c0.79,0.736,1.703,1.066,2.62,1.075
			c1.665,1.148,4.191,0.848,5.851-0.529c1.662-0.088,3.253-1.21,3.182-3.269c-0.088-2.605-0.141-5.202-0.2-7.8
			c2.165-0.011,4.333,0.01,6.494-0.057C67.976,89.573,67.976,80.74,62.046,80.557z"/>
		<path d="M138.622,84.671c-0.239-0.924-0.824-1.718-1.567-2.313c-0.031-0.224-0.043-0.45-0.052-0.733
			c0.084-2.874-2.144-4.261-4.371-4.204c-2.228-0.057-4.454,1.33-4.37,4.204c-0.043,1.428,0.213,3.374,0.824,5.165
			c0.045,0.231,0.062,0.466,0.114,0.697c0.157,0.701,0.539,1.221,1.003,1.634c0.96,1.436,2.305,2.429,4.165,2.309
			c1.991-0.128,3.873-1.286,4.377-3.333C139.04,86.903,138.928,85.851,138.622,84.671z"/>
		<path d="M152.305,64.893c0.219-3-2.113-4.376-4.449-4.23c-2.336-0.147-4.67,1.23-4.45,4.23c-0.12,1.64-0.126,3.207,0.155,4.839
			c0.017,0.095,0.076,0.159,0.099,0.25c0.19,1.642,0.598,3.184,1.61,4.067c1.58,1.379,3.59,1.379,5.172,0
			c1.012-0.883,1.418-2.424,1.609-4.067c0.023-0.091,0.082-0.155,0.098-0.25C152.432,68.1,152.426,66.534,152.305,64.893z"/>
		<path d="M156.742,96.761c-0.463-1.391-1.401-2.223-2.659-2.603c-0.741-1.382-2.069-1.949-3.459-1.847
			c-1.703-0.124-3.408,0.67-3.916,2.838c-0.54,2.305-0.646,4.443,0.106,6.707c0.373,1.123,1.132,2.18,2.094,2.912
			c0.092,0.098,0.121,0.231,0.225,0.322c0.5,0.438,1.077,0.61,1.647,0.566c0.62,0.113,1.278,0.074,1.954-0.158
			c2.088-0.72,2.994-2.094,3.721-4.057c0.294-0.795,0.507-1.758,0.555-2.586c0.051-0.504,0.004-1.006-0.139-1.504
			C157.257,98.807,156.902,97.245,156.742,96.761z"/>
		<path d="M167.666,86.936c0.049-1.152,0.109-2.319-0.018-3.439c-0.041-0.352-0.182-0.615-0.271-0.925
			c-0.003-0.061-0.005-0.122-0.008-0.183c-0.233-5.296-6.996-5.347-8.322-0.863c-0.071,0.143-0.088,0.339-0.147,0.494
			c-0.024,0.133-0.094,0.229-0.109,0.369c-0.002,0.016-0.002,0.034-0.003,0.05c-0.101,0.348-0.248,0.654-0.285,1.058
			c-0.071,0.775-0.185,2.556-0.379,3.443c-0.324,1.476,0.14,2.697,0.985,3.517c0.804,1.384,2.356,2.094,3.972,2.056
			c2.058,0.049,4.015-1.109,4.394-3.365C167.918,88.506,168.051,87.661,167.666,86.936z"/>
	</g>
</g>
<g>
</g>
<g>
</g>
<g>
</g>
<g>
</g>
<g>
</g>
<g>
</g>
<g>
</g>
<g>
</g>
<g>
</g>
<g>
</g>
<g>
</g>
<g>
</g>
<g>
</g>
<g>
</g>
<g>
</g>
</svg>
