<?xml version="1.0" encoding="iso-8859-1"?>
<!-- Generator: Adobe Illustrator 16.0.0, SVG Export Plug-In . SVG Version: 6.00 Build 0)  -->
<!DOCTYPE svg PUBLIC "-//W3C//DTD SVG 1.1//EN" "http://www.w3.org/Graphics/SVG/1.1/DTD/svg11.dtd">
<svg version="1.1" id="Capa_1" xmlns="http://www.w3.org/2000/svg" xmlns:xlink="http://www.w3.org/1999/xlink" x="0px" y="0px"
	 width="192.572px" height="192.573px" viewBox="0 0 192.572 192.573" style="enable-background:new 0 0 192.572 192.573;"
	 xml:space="preserve">
<g>
	<g>
		<path d="M172.521,77.663c0.055-0.184,0.163-0.306,0.195-0.514c0.409-2.536,0.252-5.109,0.234-7.671
			c-0.012-1.849-1.25-3.456-3.021-3.967c-6.375-1.841-13.677-1.552-20.25-1.368c-2.301,0.064-3.726,1.813-3.822,3.899
			c-0.766,0.52-1.197,1.474-0.534,2.383c0.466,0.639,0.298,0.987,0.296-0.045c0.001,0.539,0.226,1.16,0.594,1.607
			c0.079,0.992,0.134,1.986,0.218,2.963c0.004,0.039,0.023,0.064,0.028,0.102c-4.742,2.04-9.397,5.562-13.706,10.928
			c-0.289-0.09-0.533-0.237-0.86-0.273c-10.19-1.125-20.415-1.142-30.647-1.03c-2.646-2.92-5.698-6.298-1.723-9.312
			c3.01-2.283,6.672-3.84,9.935-5.728c7.24-4.188,10.61-9.859,11.701-18.163c2.395-18.229-25.339-25.607-28.007-6.131
			c-0.433,3.155,2.869,5.58,5.487,3.195c2.588-2.356,5.609-7.493,9.761-5.674c4.34,1.903,4.113,7.769,3.223,11.503
			c-1.566,6.568-8.978,9.032-13.986,12.466c-7.977,5.469-8.708,12.28-3.856,17.929c-7.065,0.082-14.132,0.117-21.191-0.221
			c-1.629-5.52-4.961-9.554-9.252-12.337c0.143-0.42,0.286-0.842,0.296-1.36c0.054-2.736,0.013-5.473-0.002-8.21
			c-0.012-2.311-1.928-4.268-4.257-4.257c-8.21,0.041-16.419,0.083-24.629,0.124c-2.847,0.014-4.484,2.613-3.985,5.231
			c0.359,1.88,0.341,3.843,0.558,5.742c0.04,0.356,0.165,0.636,0.269,0.934C16.548,75.896,3.226,89.159,0.438,104.674
			c-6.313,35.146,57.469,80.772,69.667,34.423c11.007,1.49,21.977,3.233,33.026,4.396c8.073,0.85,20.554,2.674,27.312-2.949
			c0.304-0.253,0.531-0.54,0.71-0.842c8.637,9.88,21.612,19.721,35.5,16.545c16.052-3.671,22.822-19.427,25.334-34.25
			C195.042,103.967,185.784,85.991,172.521,77.663z M181.934,125.853c-2.072,9.505-7.793,20.238-18.404,21.645
			c-11.042,1.463-20.607-7.91-27.027-15.584c-2.72-3.252-6.743-0.81-7.455,2.481c-0.396-0.156-0.812-0.263-1.258-0.258
			c-9.368,0.112-18.167,1.289-27.711,0.492c-10.697-0.893-21.441-3.114-32.197-3.025c-0.854,0.008-1.489,0.272-2.023,0.627
			c-1.654,0.072-3.26,1.016-3.92,3.112c-11.44,36.245-56.765-5.368-52.237-30.486c4.468-24.789,47.684-41.807,57.351-12.584
			c1.16,3.508,6.843,3.076,6.663-0.902c-0.013-0.286-0.061-0.544-0.081-0.824c19.306,2.66,38.89,1.477,58.262,3.75
			c2.271,0.266,3.54-1.077,3.927-2.763c0.351-0.153,0.702-0.352,1.043-0.666c10.72-9.9,23.116-13.915,34.974-3.536
			C182.78,96.907,184.854,112.455,181.934,125.853z"/>
		<path d="M54.195,108.763c-0.708-0.765-1.691-1.303-3.028-1.31c-1.504-0.008-3.007-0.026-4.51-0.043
			c0.216-1.298,0.424-2.604,0.652-3.896c0.615-3.491-2.419-5.739-5.092-5.641c-2.46-2.499-7.862-1.496-7.951,3.073
			c-0.039,2.005-0.18,4.009-0.366,6.012c-2.964-0.194-5.926-0.442-8.88-0.847c-2.278-0.312-4.014,0.888-4.959,2.487
			c-0.576,0.027-1.154,0.031-1.73,0.064c-4.162,0.235-4.162,6.224,0,6.459c2.525,0.143,5.056,0.221,7.588,0.281
			c2.295,0.323,4.594,0.626,6.902,0.918c-0.301,2.455-0.584,4.911-0.76,7.365c-0.179,2.482-0.305,6.104,1.83,7.901
			c1.617,1.362,3.91,1.455,5.488,0.403c1.371-0.165,2.622-0.962,3.092-2.469c0.516-0.684,0.906-1.497,0.934-2.578
			c0.019-0.766,0.136-1.514,0.191-2.272c0.497-2.365,0.896-4.759,1.314-7.146c3,0.196,6,0.325,8.996,0.301
			C59.69,117.779,59.739,109.258,54.195,108.763z"/>
		<path d="M163.327,91.094c-0.536-0.297-1.069-0.481-1.599-0.615c-3.038-3.97-9.132-1.726-8.135,3.444
			c0.072,0.375,0.208,0.746,0.32,1.119c-0.698,2.032,0.271,3.849,1.928,4.781c0.289,0.353,0.609,0.679,0.985,0.938
			c0.5,0.346,1.145,0.542,1.819,0.693c0.647,0.345,1.408,0.45,2.171,0.33c0.424,0.039,0.832,0.073,1.191,0.114
			c2.615,0.301,5.496-0.529,6.282-3.389C169.206,95.181,165.9,92.524,163.327,91.094z"/>
		<path d="M146.944,107.819c-0.357,0.038-0.658,0.114-0.985,0.174c-0.702-1.037-2.191-1.463-3.296-0.379
			c0.765-0.751-0.891,0.538-0.904,0.548c-0.424,0.356-0.854,0.705-1.283,1.054c-1.059,0.857-2.112,2.198-2.446,3.544
			c-0.885,3.566,1.15,6.343,4.14,8.092c2.68,1.568,5.956-0.431,6.066-3.437c1.238-1.15,2.175-2.804,2.638-4.439
			C151.539,110.627,149.614,107.536,146.944,107.819z"/>
		<path d="M172.644,108.011c-1.701-0.261-3.699,0.111-4.547,1.851c-0.379,0.777-0.789,1.672-1.15,2.607
			c-1.604,1.347-1.978,3.655-1.817,5.771c-0.198,2.005,1.075,3.905,3.708,4.188c1.051,0.113,1.895-0.394,2.537-1.104
			c0.352-0.09,0.721-0.097,1.04-0.279c0.881-0.503,1.407-1.228,1.948-2.05c0.042-0.064,0.032-0.146,0.067-0.212
			c0.853-0.64,1.694-1.301,2.386-2.1C179.98,113.029,176.917,108.667,172.644,108.011z"/>
		<path d="M165.521,131.554c0.901-1.518,0.641-3.27-0.506-4.702c-1.033-1.291-3.212-1.88-4.691-2.402
			c-2.095-0.742-4.335,0.821-4.929,2.798c-0.004,0.012-0.008,0.026-0.012,0.038c-1.84-0.113-3.615,1.672-2.41,3.671
			c0.467,0.775,0.739,1.685,1.031,2.59c-0.068,0.981-0.062,1.954,0.156,2.886c0.709,3.028,4.458,4.217,6.93,2.527
			c0.158-0.108,0.302-0.214,0.457-0.32c0.585-0.145,1.138-0.397,1.564-0.854c0.192-0.206,0.319-0.481,0.479-0.722
			c1.312-1.158,2.221-2.517,1.888-4.709c-0.012-0.075-0.073-0.146-0.093-0.222C165.432,131.933,165.478,131.748,165.521,131.554z"/>
		<path d="M93.059,110.2c-1.768-0.613-3.801-0.466-5.8-0.256c0.121-0.498,0.274-0.986,0.337-1.5c0.501-4.077-5.366-4.954-7.236-1.96
			c-0.699,1.118-1.024,2.495-1.219,3.938c-1.577,0.08-3.151,0.195-4.714,0.403c-3.131,0.415-3.131,4.456,0,4.872
			c1.546,0.205,3.105,0.317,4.666,0.397c0.121,1.245,0.277,2.443,0.43,3.498c0.445,3.1,5.778,3.096,6.229,0
			c0.151-1.04,0.237-2.085,0.337-3.128c2.359,0.253,4.857,0.592,6.971-0.141C96.079,115.276,96.079,111.248,93.059,110.2z"/>
		<path d="M122.493,110.191c-1.438-3.381-6.778-3.788-11.176-3.631c-1.34-1.899-4.634-2.395-6.08,0.082
			c-0.069,0.119-0.093,0.269-0.157,0.392c-1.812,0.206-3.844,0.607-4.971,1.734c-0.2,0.201-0.279,0.474-0.414,0.711
			c-0.046-0.004-0.141,0.046-0.408,0.29c-0.474,0.39-0.874,0.926-0.985,1.539c-0.343,1.894,1.66,3.309,3.114,2.571
			c0.487,0.134,0.985,0.191,1.514,0.187c0.224-0.003,0.445-0.017,0.669-0.022c0.033,1.916,0.301,3.82,0.883,5.458
			c1.243,3.495,6.351,2.129,5.567-1.535c-0.318-1.494-0.169-2.732,0.14-3.929c3.661,0.488,7.96,2.383,11.095,0.769
			C123.065,113.888,123.18,111.806,122.493,110.191z"/>
	</g>
</g>
<g>
</g>
<g>
</g>
<g>
</g>
<g>
</g>
<g>
</g>
<g>
</g>
<g>
</g>
<g>
</g>
<g>
</g>
<g>
</g>
<g>
</g>
<g>
</g>
<g>
</g>
<g>
</g>
<g>
</g>
</svg>
