<?xml version="1.0" encoding="iso-8859-1"?>
<!-- Generator: Adobe Illustrator 16.0.0, SVG Export Plug-In . SVG Version: 6.00 Build 0)  -->
<!DOCTYPE svg PUBLIC "-//W3C//DTD SVG 1.1//EN" "http://www.w3.org/Graphics/SVG/1.1/DTD/svg11.dtd">
<svg version="1.1" id="Capa_1" xmlns="http://www.w3.org/2000/svg" xmlns:xlink="http://www.w3.org/1999/xlink" x="0px" y="0px"
	 width="188.191px" height="188.191px" viewBox="0 0 188.191 188.191" style="enable-background:new 0 0 188.191 188.191;"
	 xml:space="preserve">
<g>
	<g>
		<path d="M166.556,81.625c0.999-20.82,10.074-56.621-2.723-75.31c0.088-1.359-0.58-2.686-2.368-3.086
			c-23.116-5.171-49.264-2.473-72.812-2.006C73.634,1.521,44.384-3.595,30.831,5.125c-2.123-2-6.607-1.116-6.636,2.688
			c-0.415,55.008-8,109.953-6.386,164.962c0.051,1.756,1.096,2.806,2.359,3.193c0.092,0.134,0.128,0.271,0.243,0.404
			c12.091,13.908,42.741,11.448,58.896,11.733c26.606,0.471,53.396-1.056,79.914-3.17c3.188-0.254,4.434-3.403,3.675-5.699
			c0.309,0.19,0.611,0.394,0.928,0.559c0.104,0.052,0.193,0.104,0.303,0.131c0.513,0.253,1.028,0.501,1.562,0.676
			c0.99,0.325,1.646-0.812,1.249-1.624c-0.133-0.269-0.319-0.525-0.472-0.791c0,0,0.001-0.002,0.001-0.003
			C169.795,146.621,165.026,113.499,166.556,81.625z M157.561,10.028c1.824,5.112,2.897,10.523,3.51,16.093
			c-1.833-3.009-5.268-5.526-7.646-7.807c-2.673-2.562-5.368-5.101-8.049-7.654C149.46,10.543,153.527,10.353,157.561,10.028z
			 M131.401,10.797c2.104,3.03,4.321,5.975,6.618,8.86c-1.471-0.215-2.929-0.476-4.416-0.615c-1.986-2.188-4.549-4.058-6.602-6.102
			c-0.738-0.734-1.461-1.481-2.188-2.225C127.012,10.757,129.207,10.779,131.401,10.797z M144.257,74.031
			c1.914,21.743,2.19,43.585-2.987,64.787c-1.02,0.307-1.724,1.615-0.76,2.64c0.028,0.028,0.057,0.057,0.083,0.086
			c-0.171,0.639-0.295,1.283-0.476,1.921c-16.72,3.387-32.297,5.974-49.665,5.958c-15.703-0.016-31.422-1.281-47.096-0.111
			c-0.314-0.271-0.634-0.536-0.946-0.808c0.002-0.026,0.015-0.043,0.017-0.068c2.81-41.46-1.506-81.698,3.831-123.027
			c0.194,0.01,0.39,0.008,0.583,0.018c1.119,0.958,2.268,1.86,3.481,2.563c1.458,0.844,2.838-1.07,1.75-2.268
			c-0.043-0.048-0.096-0.089-0.14-0.137c14.118,0.564,28.264,0.705,42.387,0.757c15.215,0.056,31.733,1.988,46.692-1.042
			c0.125-0.025,0.216-0.095,0.328-0.136C138.839,40.932,142.867,58.249,144.257,74.031z M154.816,101.343
			c-0.46-0.835-0.871-1.697-1.274-2.563c-0.016-2.993-0.067-5.994-0.167-8.998c0.297,0.795,0.584,1.594,0.959,2.35
			c0.52,1.046,1.934,0.263,1.76-0.742c-0.629-3.628-1.838-7.262-3.078-10.795c-0.042-0.975-0.076-1.926-0.119-2.903
			c1.276,2.233,3.123,4.626,5.268,5.364c-0.263,3.138-0.509,6.254-0.624,9.247c-0.144,3.735-0.417,7.847-0.723,12.163
			C156.134,103.438,155.415,102.43,154.816,101.343z M156.575,107.848c-0.214,2.956-0.43,6.028-0.633,9.131
			c-0.938-1.225-1.937-2.41-2.977-3.504c0.232-2.708,0.43-5.424,0.505-8.161c0.66,0.933,1.405,1.776,2.363,2.376
			C156.085,107.847,156.335,107.861,156.575,107.848z M155.319,75.411c-1.524-2.362-2.639-5.294-2.926-8.104
			c-0.007-0.054-0.052-0.072-0.062-0.122c-0.123-2.086-0.218-4.156-0.366-6.249c0.903,1.211,1.756,2.458,2.739,3.614
			c1.475,1.736,3.001,3.629,4.737,5.188c-0.337,3.182-0.65,6.306-0.945,9.411C157.415,77.917,156.183,76.75,155.319,75.411z
			 M152.48,117.785c0.979,1.555,2.015,3.048,3.172,4.411c-0.12,2.15-0.254,4.286-0.337,6.46c-0.879-0.982-1.983-1.815-2.943-2.683
			c-0.33-0.298-0.652-0.607-0.98-0.908C151.881,122.666,152.176,120.224,152.48,117.785z M154.796,132.199
			c0.133,0.051,0.267,0.014,0.401,0.011c-0.1,3.827-0.094,7.647,0.016,11.423c-1.499-0.683-2.96-1.354-4.246-2.533
			c-1.492-1.369-2.258-3.059-2.718-4.917c0.926-2.541,1.7-5.115,2.346-7.717C151.812,129.936,153.056,131.551,154.796,132.199z
			 M155.345,146.861c0.067,1.354,0.229,2.652,0.333,3.985c-1.081-0.881-2.152-1.762-3.151-2.67
			c-2.276-2.069-4.529-4.163-6.783-6.255c0.353-0.825,0.73-1.646,1.082-2.47C148.226,143.111,151.552,146.141,155.345,146.861z
			 M149.695,151.008c2.056,2.054,4.253,4.379,6.646,6.277c0.633,4.617,1.6,8.993,2.921,13.062c-2.277-1.925-4.611-3.747-6.484-5.496
			c-4.912-4.584-9.963-8.988-15.347-13.009c2.481-1.031,4.863-2.2,6.97-3.71c0.586-0.421,0.89-0.957,1.074-1.513
			C146.881,148.085,148.26,149.573,149.695,151.008z M120.456,10.623c1.379,1.575,2.756,3.152,4.152,4.713
			c0.935,1.046,1.93,2.206,2.976,3.326c-2.167-0.071-4.34-0.108-6.521-0.092c-0.002-0.08,0.048-0.163,0.03-0.238
			c-0.561-2.44-4.918-4.419-6.735-5.859c-0.836-0.662-1.618-1.379-2.426-2.071C114.773,10.483,117.614,10.554,120.456,10.623z
			 M108.059,10.295c1.334,1.483,2.744,2.899,4.204,4.272c1.147,1.078,2.789,2.865,4.539,4.033c-2.569,0.061-5.138,0.148-7.688,0.228
			c0.09-0.413,0.046-0.846-0.327-1.144c-2.222-1.782-4.864-3-7.135-4.766c-1.188-0.924-2.332-1.904-3.47-2.892
			C101.465,10.1,104.763,10.2,108.059,10.295z M95.108,9.96c1.726,1.84,3.475,3.658,5.317,5.385
			c1.267,1.186,2.781,2.631,4.447,3.597c-1.424,0.032-2.846,0.06-4.253,0.065c-1.312,0.005-2.626,0.023-3.939,0.032
			c-1.875-1.77-4.186-3.135-6.262-4.62c-2.135-1.527-4.282-3.038-6.424-4.556C87.679,9.846,91.388,9.893,95.108,9.96z M80.438,9.89
			c2.433,2.01,4.854,4.032,7.267,6.066c1.171,0.987,2.347,2.08,3.561,3.126c-2.772,0.025-5.545,0.042-8.317,0.067
			c-2.021-1.626-4.221-3.059-6.167-4.785c-1.412-1.252-2.729-2.607-3.993-4.011C75.566,10.116,78.129,9.944,80.438,9.89z
			 M68.966,10.698c1.676,2.134,3.425,4.202,5.37,6.111c0.799,0.785,1.689,1.599,2.615,2.388c-1.382,0.017-2.762,0.014-4.145,0.034
			c-1.554-1.365-3.374-2.569-4.812-3.805c-1.596-1.372-3.142-2.798-4.688-4.226C65.236,11.041,67.119,10.868,68.966,10.698z
			 M59.578,11.481c1.983,2.136,4.011,4.233,6.08,6.282c0.48,0.476,0.99,1.015,1.51,1.556c-1.727,0.033-3.455,0.037-5.182,0.08
			c-1.906-1.936-4.431-3.461-6.406-5.299c-0.79-0.735-1.522-1.527-2.265-2.309C55.396,11.74,57.492,11.624,59.578,11.481z
			 M49.974,11.778c1.163,1.468,2.366,2.905,3.646,4.282c1.008,1.083,2.123,2.339,3.323,3.492c-3.614,0.116-7.229,0.238-10.839,0.42
			c-0.421-0.565-1.039-0.912-1.683-1.019c-0.417-0.364-0.844-0.721-1.242-1.098c-2.623-2.492-5.047-5.179-7.396-7.928
			C39.953,11.278,44.864,11.728,49.974,11.778z M31.924,8.44c0.177,0.094,0.401,0.135,0.583,0.224
			c-0.204,0.426-0.278,0.922,0.083,1.382c2.69,3.428,5.525,6.712,8.562,9.837c0.246,0.253,0.507,0.522,0.757,0.782
			c-0.428,0.823-0.817,1.671-1.21,2.517c-1.319-1.16-2.73-2.241-3.941-3.332c-1.685-1.517-3.33-3.079-4.98-4.636
			C31.832,12.958,31.909,10.699,31.924,8.44z M31.703,18.679c0.715,0.76,1.439,1.512,2.137,2.287
			c1.667,1.852,3.357,4.16,5.268,6.046c-0.469,1.319-0.948,2.632-1.322,4.007c-1.029-1.135-2.116-2.233-3.056-3.394
			c-1.127-1.393-2.156-2.863-3.125-4.372C31.641,21.729,31.663,20.205,31.703,18.679z M31.491,28.496
			c0.244,0.357,0.459,0.729,0.71,1.082c1.345,1.891,2.808,4.009,4.624,5.555c-0.454,2.233-0.84,4.499-1.116,6.809
			c-0.495-0.698-1.013-1.551-1.26-1.852c-1.102-1.343-2.079-2.781-3.119-4.172C31.41,33.443,31.423,30.969,31.491,28.496z
			 M31.11,42.457c1.183,1.588,2.597,2.859,4.214,3.199c-0.222,2.622-0.372,5.26-0.454,7.891c-0.323-0.187-0.657-0.343-0.971-0.562
			c-1.081-0.754-2.081-1.631-3.059-2.529C30.943,47.79,31.015,45.124,31.11,42.457z M30.686,54.559
			c1.271,1.249,2.677,2.406,4.105,3.003c-0.037,2.825-0.045,5.629-0.029,8.35c-0.609-0.634-1.271-1.225-1.921-1.835
			c-0.809-0.76-1.618-1.52-2.427-2.279C30.519,59.385,30.587,56.971,30.686,54.559z M30.216,66.646l0.027,0.029
			c1.17,1.246,2.238,2.571,3.763,3.384c0.261,0.139,0.515,0.129,0.767,0.132c0.007,1.515,0.017,3.045,0.008,4.489
			c-0.012,1.776,0.049,3.561,0.059,5.34c-0.775-0.778-1.48-1.64-2.158-2.494c-0.939-1.184-1.855-2.386-2.765-3.593
			C30.034,71.505,30.106,69.077,30.216,66.646z M29.72,78.004c1.077,1.698,2.209,3.353,3.549,4.822
			c0.545,0.597,1.098,0.921,1.614,1.031c0.035,2.625,0.023,5.246,0.087,7.874c-0.793-0.699-1.571-1.418-2.348-2.134
			c-1.044-0.962-2.138-2.042-3.324-2.947C29.447,83.77,29.578,80.887,29.72,78.004z M29.142,89.672
			c1.403,1.437,2.707,3.008,4.04,4.415c0.566,0.597,1.152,1.214,1.904,1.508c0.081,2.773,0.146,5.546,0.252,8.321
			c-1.23-1.044-2.638-1.855-3.949-2.797c-0.946-0.681-1.842-1.458-2.721-2.249C28.833,95.803,28.982,92.737,29.142,89.672z
			 M28.471,102.573c1.708,1.526,3.726,3.373,6.004,3.866c0.355,0.077,0.677-0.019,0.959-0.184c0.14,3.391,0.231,6.783,0.413,10.173
			c-0.098-0.111-0.159-0.248-0.301-0.323c-1.761-0.932-3.589-2.537-5.159-3.795c-0.786-0.629-1.556-1.319-2.329-1.996
			C28.199,107.734,28.33,105.153,28.471,102.573z M27.84,114.295c0.247,0.23,0.478,0.485,0.726,0.715
			c1.65,1.516,4.121,4.27,6.637,3.703c0.335-0.075,0.572-0.282,0.747-0.535c0.198,3.577,0.402,7.154,0.641,10.725
			c-0.468-0.504-0.929-0.969-1.3-1.379c-2.539-2.805-5.215-5.529-7.545-8.516c-0.045-0.057-0.109-0.037-0.157-0.083
			C27.674,117.382,27.755,115.838,27.84,114.295z M27.34,123.448c1.307,1.749,2.693,3.442,4.091,5.112
			c1.06,1.268,2.119,2.533,3.138,3.832c0.485,0.619,1.466,1.328,1.805,1.844c0.166,0.252,0.395,0.417,0.647,0.521
			c0.233,3.19,0.444,6.388,0.704,9.568c-3.363-2.992-6.729-5.982-10.005-9.067c-0.318-0.3-0.672-0.408-1.008-0.397
			C26.919,131.058,27.13,127.253,27.34,123.448z M24.9,171.883c-0.019-0.015-0.04-0.018-0.059-0.031
			c0.118-2.746,0.261-5.492,0.388-8.238c4.777,5.42,10.169,10.49,15.562,15.14C34.644,177.357,29.144,175.195,24.9,171.883z
			 M45.942,179.715c0.059-0.445-0.052-0.933-0.441-1.391c-6.028-7.067-13.336-13.173-20.035-19.709
			c0.145-2.985,0.305-5.973,0.458-8.96c4.58,6.029,9.874,11.609,15.127,16.973c4.738,4.837,11.858,13.309,19.118,14.29
			C55.316,180.767,50.504,180.419,45.942,179.715z M60.779,180.929c1.097-0.141,1.544-1.66,0.77-2.427
			c-5.374-5.324-12.126-9.413-17.656-14.717c-6.317-6.06-11.982-12.673-17.708-19.268c0.112-2.141,0.236-4.284,0.351-6.425
			c3.897,4.013,7.892,7.927,11.976,11.748c-1.457,0.53-1.37,2.575,0.369,2.798c1.026,0.131,2.057,0.221,3.083,0.345
			c3.314,3.046,6.633,6.086,9.993,9.082c6.692,5.966,14.269,14.203,22.452,18.792C69.949,180.993,65.354,181.055,60.779,180.929z
			 M96.542,179.939c-2.393,0.059-5.026,0.172-7.827,0.306c-9.028-9.083-20.225-16.97-30.606-24.203
			c-0.547-0.381-1.229,0.5-0.713,0.924c9.065,7.445,17.508,16.121,26.71,23.499c-1.459,0.068-2.948,0.139-4.467,0.203
			c-0.042-0.316-0.117-0.642-0.372-0.952c-6.437-7.856-16.599-14.062-24.39-20.569c-2.139-1.786-4.238-3.623-6.362-5.43
			c7.86,0.836,15.745,1.383,23.638,1.821c0.027,0.046,0.012,0.095,0.054,0.14c4.712,4.944,9.592,9.727,14.452,14.525
			c3.331,3.287,6.535,6.976,10.355,9.721C96.857,179.926,96.7,179.936,96.542,179.939z M99.441,179.833
			c0.098-0.283,0.116-0.585-0.08-0.873c-2.819-4.122-7.257-7.213-10.965-10.497c-4.778-4.232-9.554-8.474-14.219-12.83
			c4.186,0.218,8.368,0.458,12.556,0.598c-0.119,0.248-0.162,0.52,0.024,0.787c3.95,5.653,8.888,10.463,13.892,15.172
			c2.496,2.35,4.941,4.871,7.441,7.325C105.209,179.632,102.326,179.736,99.441,179.833z M113.188,179.327
			c-2.888-2.938-6.435-5.493-9.297-8.014c-5.346-4.708-10.848-9.443-15.325-15.013c2.502,0.075,5.003,0.243,7.506,0.286
			c3.491,3.467,7.096,6.811,10.759,10.1c4.135,3.713,8.036,8.017,12.496,11.315c1.064,0.788,2.673-0.79,1.854-1.854
			c-3.025-3.93-7.437-6.909-11.271-10.015c-3.837-3.108-7.63-6.262-11.339-9.517c2.863,0.031,5.857,0.038,8.973-0.027
			c3.467,3.85,7.306,7.368,11.164,10.817c4.079,3.649,8.271,7.978,12.943,10.956C125.497,178.712,119.344,179.042,113.188,179.327z
			 M134.659,178.197c0.009-0.292-0.068-0.593-0.283-0.858c-3.678-4.579-9.335-8.004-13.878-11.725
			c-3.519-2.881-6.83-5.952-10.079-9.097c1.597-0.058,3.208-0.136,4.823-0.244c3.501,3.031,6.934,6.132,10.221,9.41
			c3.972,3.962,7.572,8.416,11.552,12.386C136.229,178.114,135.444,178.153,134.659,178.197z M140.596,177.868
			c-5.774-8.309-14.196-15.571-22.562-21.778c2.904-0.262,5.798-0.613,8.622-1.148c4.242,3.604,8.221,7.507,12.062,11.532
			c3.184,3.335,6.456,8.302,10.451,10.911C146.312,177.544,143.454,177.703,140.596,177.868z M159.222,176.84
			c-2.252,0.112-4.502,0.244-6.753,0.366c0.101-0.348,0.114-0.726-0.082-1.122c-2.257-4.555-7.672-8.472-11.299-11.979
			c-3.641-3.521-7.501-6.753-11.541-9.771c1.878-0.442,3.725-0.939,5.494-1.558c0.045,0.219,0.087,0.442,0.3,0.611
			c5.884,4.686,11.252,9.908,16.554,15.233c2.441,2.453,5.02,5.725,7.913,8.307C159.604,176.91,159.446,176.83,159.222,176.84z
			 M159.856,65.75c-0.615-0.585-1.237-1.167-1.832-1.763c-2.111-2.114-4.128-4.326-5.884-6.747c-0.126-0.173-0.303-0.205-0.462-0.29
			c-0.251-3.131-0.526-6.262-0.858-9.372c0.835,0.88,1.67,1.76,2.506,2.64c2.247,2.367,4.523,5.508,7.355,7.227
			C160.429,60.223,160.145,62.994,159.856,65.75z M161.037,52.892c-1.472-1.537-3.198-2.928-4.654-4.31l-6.183-5.87
			c-0.408-3.28-0.801-6.57-1.337-9.775c3.234,3.974,6.869,8.04,10.955,9.974c0.736,0.349,1.424,0.131,1.835-0.342
			C161.556,45.99,161.303,49.443,161.037,52.892z M148.869,25.971c-0.63-0.677-1.271-1.344-1.904-2.018
			c-0.233-0.435-0.55-0.776-0.961-1.019c-3.796-4.03-7.586-8.069-11.354-12.125c2.147,0.002,4.281-0.057,6.422-0.089
			c2.938,3.117,5.889,6.224,8.854,9.317c2.901,3.025,6.196,7.988,10.267,9.45c0.4,0.144,0.801,0.01,1.14-0.22
			c0.286,3.721,0.442,7.485,0.381,11.309C159.007,35.028,153.015,30.426,148.869,25.971z"/>
		<path d="M82.36,63.427c-1.648-4.775-1.779-9.896-3.344-14.698c-1.499-4.604-8.368-2.739-7.256,2
			c0.761,3.234,0.963,6.552,1.305,9.854c-1.511,0.078-3.021,0.046-4.591-0.331c-2.835-0.681-5.715,1.344-5.71,4.35
			c0.01,4.701-1.376,13.607,2.43,17.152c2.242,2.089,6.007,1.24,6.857-1.811c0.833-2.987,0.408-6.858,0.054-10.492
			c1.949-0.062,3.903-0.274,5.988-0.425C80.783,68.833,83.359,66.32,82.36,63.427z"/>
		<path d="M114.342,86.722c-1.029-2.374-4.039-2.442-6.016-1.577c-1.856,0.812-3.916,0.733-5.895,0.734
			c-2.355,0.001-4.481,2.008-4.415,4.415c0.014,0.461,0.122,0.891,0.161,1.342c-0.888,0.444-1.582,1.311-1.642,2.714
			c-0.136,3.182,0.568,6.275,0.332,9.465c-0.17,2.306,2.045,4.194,4.211,4.211c3.035,0.025,6.05-0.095,9.011-0.818
			c3.119-0.764,4.573-2.646,5.247-5.655C116.404,96.802,116.287,91.212,114.342,86.722z"/>
		<path d="M89.57,126.757c-2.87,0.313-5.687,0.57-8.521,0.749c-0.295-5.193-0.771-10.365-0.331-15.577
			c0.399-4.715-6.412-5.06-7.81-1.057c-2.342,6.706-0.717,14.409-0.665,21.339c0.019,2.458,2.032,4.49,4.499,4.498
			c4.832,0.016,10.63,0.483,15.045-1.771C95.53,133.026,93.944,126.277,89.57,126.757z"/>
		<path d="M130.438,39.479c-3.695-1.533-9.312,0.17-13.255,0.388c-5.366,0.297-10.737,0.351-16.103,0.71
			c-4.823,0.323-4.824,7.167,0,7.489c5.955,0.397,11.894,0.434,17.859,0.257c4.289-0.128,9.786,0.317,13.096-2.794
			C134.222,43.471,132.798,40.458,130.438,39.479z"/>
	</g>
</g>
<g>
</g>
<g>
</g>
<g>
</g>
<g>
</g>
<g>
</g>
<g>
</g>
<g>
</g>
<g>
</g>
<g>
</g>
<g>
</g>
<g>
</g>
<g>
</g>
<g>
</g>
<g>
</g>
<g>
</g>
</svg>
