<?xml version='1.0' encoding='iso-8859-1'?>
<!DOCTYPE svg PUBLIC '-//W3C//DTD SVG 1.1//EN' 'http://www.w3.org/Graphics/SVG/1.1/DTD/svg11.dtd'>
<svg version="1.1" xmlns="http://www.w3.org/2000/svg" viewBox="0 0 417.992 417.992" xmlns:xlink="http://www.w3.org/1999/xlink" enable-background="new 0 0 417.992 417.992">
  <g>
    <path d="m326.532,287.634c-11.161,7.119-14.236,16.515-15.285,26.579-0.707,6.784-0.191,13.735 0.207,20.586 1.207,20.809 0.434,41.301-9.237,60.391-2.266,4.472-4.677,9.096-8.002,12.762-7.741,8.535-17.435,8.568-25.669,0.515-12.07-11.804-17.181-26.726-17.465-43.137-0.751-43.411-0.904-86.815 9.406-129.451 0.83-3.432 0.804-7.072-0.296-11.224-2.426,4.426-4.669,8.967-7.328,13.249-2.855,4.598-5.941,9.076-9.219,13.383-4.119,5.412-9.487,7.525-16.271,5.385-7.233-2.282-10.667-7.733-10.766-14.674-0.113-7.915 0.589-15.92 1.768-23.761 3.454-22.962 10.059-44.99 18.831-66.564 9.313-22.905 26.026-32.602 49.898-32.161 9.664,0.179 19.334,0.029 29.002,0.029 0.116-0.834 0.233-1.667 0.349-2.501-3.31-0.619-6.596-1.444-9.933-1.825-36.154-4.134-54.839-35.936-40.916-69.73 0.551-1.337 1.132-2.662 1.696-3.994 10.792-25.47 25.544-33.435 54.874-32.966 6.785,0.108 13.599,1.507 20.302,2.812 9.527,1.855 16.638,7.817 20.638,16.187 10.63,22.24 9.591,44.893-0.466,67.021-4.691,10.322-12.865,17.348-24.386,19.783-1.665,0.352-3.261,1.035-5.554,1.781 9.235,1.83 17.736,2.975 25.928,5.237 27.83,7.684 46.023,24.642 51.079,54.076 1.955,11.379 4.909,22.589 6.79,33.979 1.913,11.578 0.783,23.103-3.047,34.234-3.823,11.11-12.106,14.002-22.128,7.699-3.228-2.03-6.034-4.729-10.499-8.291 0.687,6.239 1.402,10.72 1.639,15.226 1.047,19.85 2.11,39.701 2.87,59.564 0.705,18.418 1.488,36.856 1.315,55.276-0.073,7.793-1.649,15.842-4.068,23.279-3.323,10.217-11.193,16.721-21.375,20.054-12.396,4.058-22.853,0.166-27.742-11.907-3.605-8.904-6.391-18.671-6.883-28.191-0.984-19.061-0.132-38.215-0.067-57.331 0.037-9.734 0.01-19.467 0.01-31.379zm-45.823,71.204c0.731,0.472 1.461,0.945 2.192,1.417-3.777,7.688-7.656,15.327-11.298,23.078-2.943,6.265 1.261,16.501 7.701,18.588 1.417,0.459 3.756,0.005 4.866-0.957 1.853-1.605 3.472-3.774 4.469-6.025 7.814-17.65 13.944-35.624 12.007-55.488-0.804-8.247-0.795-16.639-0.374-24.925 0.629-12.362 5.532-23.052 14.296-31.925 4.513-4.569 9.856-6.433 15.764-3.855 5.535,2.415 7.488,7.422 7.383,13.37-0.203,11.571-0.363,23.145-0.365,34.717-0.002,15.903-0.459,31.843 0.499,47.693 0.514,8.5 2.883,17.089 5.696,25.193 2.742,7.9 7.993,9.427 15.58,6.117 5.94-2.591 10.494-6.961 12.173-13.101 1.788-6.54 3.281-13.446 3.18-20.167-0.419-27.819-1.215-55.639-2.425-83.435-0.737-16.94-2.679-33.825-3.701-50.757-0.653-10.82-0.809-21.683-0.702-32.522 0.019-1.939 2.387-5.42 3.707-5.438 2.36-0.031 5.183,1.59 6.982,3.363 1.364,1.344 1.341,4.034 2.101,6.063 2.913,7.771 5.517,15.691 8.986,23.209 2.171,4.705 4.979,9.611 12.731,10.711 1.512-7.368 3.965-14.259 4.159-21.214 0.594-21.282-5.011-41.752-13.172-60.923-7.908-18.578-25.093-27.371-44.33-31.206-22.548-4.495-45.428-2.197-68.126-1.54-8.734,0.253-18.205,2.548-24.3,10.278-6.92,8.775-11.029,18.986-14.621,30.052 2.193-0.469 3.357-0.718 5.096-1.09-9.576,12.429-9.576,12.429-10.208,21.662 2.071-1.598 3.657-2.998 5.419-4.124 1.457-0.931 3.121-1.537 6.467-3.134-7.213,9.91-19.143,14.549-16.891,28.074 1.552-0.732 2.478-1.367 3.493-1.581 0.713-0.151 1.547,0.271 3.846,0.76-12.838,10.324-11.926,22.857-9.612,36.74 2.695-0.592 4.879-0.414 5.899-1.419 3.051-3.007 6.188-6.161 8.312-9.826 5.43-9.37 10.148-19.153 15.566-28.531 1.406-2.434 4.337-3.987 6.568-5.944 1.531,2.189 3.873,4.193 4.421,6.605 1.111,4.888 1.189,10.004 1.852,15.005 0.109,0.822 1.031,1.537 1.587,2.316 2.161-2.272 4.061-4.27 5.961-6.268 0.476,0.367 0.952,0.735 1.429,1.102-3.627,6.705-7.254,13.409-10.881,20.114 0.575,0.345 1.149,0.69 1.724,1.035 3.964-4.706 7.927-9.411 11.891-14.117 0.623,0.439 1.247,0.878 1.87,1.318-4.233,6.509-8.302,13.131-12.743,19.495-4.942,7.082-6.961,14.838-6.796,25.102 3.27-4.37 5.565-7.493 7.922-10.569 2.192-2.86 4.451-5.669 6.68-8.5 0.621,0.472 1.241,0.943 1.862,1.415-5.225,8.553-10.387,17.146-15.697,25.646-3.529,5.65-4.21,11.488-2.646,19.019 4.948-6.104 8.936-11.024 12.924-15.944-2.491,8.384-6.575,15.535-10.826,22.585-3.898,6.464-3.804,13.135-2.225,21.63 6.094-9.246 11.244-17.06 16.395-24.874 0.708,0.443 1.416,0.886 2.125,1.329-1.906,3.74-3.842,7.465-5.713,11.223-4.024,8.082-8.042,16.166-12.008,24.276-2.784,5.692-1.689,11.416 0.467,17.443 3.893-6.002 7.786-12.004 11.679-18.006 0.659,0.386 1.318,0.772 1.977,1.158-1.31,2.81-2.499,5.684-3.957,8.415-2.893,5.422-5.906,10.78-8.921,16.135-3.043,5.405-3.118,10.622 0.649,16.231 4.856-7.738 9.42-15.008 13.985-22.277zm-7.769-278.379c4.579-5.431 8.561-10.154 12.542-14.877 0.517,0.374 1.034,0.748 1.55,1.122-3.86,6.291-7.721,12.582-11.928,19.438 1.957,2.358 3.918,4.721 6.293,7.583 2.522-3.742 4.34-6.806 6.527-9.578 2.062-2.613 4.514-4.919 6.795-7.36 0.467,0.333 0.934,0.667 1.401,1-3.513,6.428-7.025,12.855-11.001,20.129 3.731,1.76 6.759,3.189 9.601,4.529 4.59-6.581 8.564-12.279 12.538-17.977 0.71,0.428 1.42,0.856 2.131,1.283-3.156,5.84-6.312,11.679-9.656,17.867 9.606,3.139 18.92,3.561 28.279,2.569 13.204-1.4 22.263-8.992 26.263-21.18 5.253-16.005 7.03-32.546 0.176-48.694-1.769-4.167-4.551-8.367-7.949-11.297-13.189-11.368-42.385-12.16-56.013-1.315-12.791,10.179-17.637,24.724-19.291,40.807 3.502-4.719 7.005-9.438 11.521-15.524-0.922,12.119-14.527,18.35-9.779,31.475z"/>
    <path d="m165.386,243.858c0.848,15.987 1.807,30.395 2.334,44.819 1.03,28.177 2.098,56.358 2.52,84.547 0.111,7.438-1.195,15.187-3.419,22.302-3.324,10.634-11.224,17.547-21.873,20.945-12.506,3.99-22.796,0.155-27.585-12.071-3.768-9.62-6.8-20.097-7.255-30.322-0.849-19.08 0.4-38.254 0.8-57.389 0.192-9.205 0.578-18.417-0.369-28.499-7.389,2.927-9.936,8.094-12.191,13.306-4.283,9.901-4.811,20.341-3.394,30.868 3.019,22.436 0.279,43.96-9.547,64.478-4.023,8.4-8.699,16.377-19.078,17.317-10.17,0.92-15.495-6.587-20.554-13.732-6.641-9.381-10.527-20-10.406-31.442 0.321-30.366 0.464-60.77 2.21-91.07 0.929-16.125 5.041-32.066 7.699-48.093 0.289-1.744 0.463-3.507-0.585-5.876-1.341,2.194-2.687,4.385-4.022,6.582-3.75,6.17-7.124,12.611-11.332,18.451-5.884,8.167-11.175,10.02-18.393,7.582-7.411-2.504-11.036-7.967-10.278-18.149 0.883-11.863 2.135-23.775 4.385-35.442 3.773-19.563 10.285-38.27 18.579-56.482 8.65-18.994 23.912-26.155 43.349-26.858 10.796-0.391 21.617-0.07 33.858-0.07-3.5-4.627-7.174-4.008-10.527-4.387-24.533-2.776-39.63-16.176-44.481-40.399-1.167-5.827-1.533-12.508 0.157-18.058 2.916-9.577 6.933-19.035 11.921-27.72 9.638-16.78 26.521-20.274 43.964-20.765 8.175-0.23 16.479,1.645 24.615,3.155 9.561,1.774 16.531,7.917 20.582,16.275 10.583,21.834 9.593,44.137-0.031,65.977-5.43,12.323-15.491,19.652-30.901,22.034 11.561,2.534 21.307,3.848 30.502,6.847 23.977,7.818 40.799,23.092 46.032,48.661 3.539,17.29 9.5,34.305 7.999,52.314-0.594,7.129-1.678,14.386-3.83,21.176-3.096,9.769-10.644,12.461-19.761,7.637-3.687-1.952-6.851-4.899-11.694-8.449zm-99.38,159.711c2.573-3.655 5.87-7.025 7.596-11.066 3.398-7.958 6.848-16.1 8.561-24.515 1.85-9.09 2.121-18.568 2.371-27.896 0.223-8.274-1.297-16.634-0.668-24.85 0.99-12.94 5.762-24.535 15.63-33.582 4.117-3.775 8.873-5.047 14.029-3.224 5.327,1.883 7.591,6.457 8.224,11.775 0.341,2.859 0.25,5.784 0.185,8.675-0.463,20.589-1.339,41.176-1.327,61.764 0.008,12.989 1.297,26.02 6.272,38.252 3.583,8.81 8.891,10.679 17.233,6.448 7.72-3.916 12.337-10.677 12.883-18.912 0.878-13.244 0.388-26.578 0.49-39.874 0.313-40.876-2.214-81.6-6.278-122.256-0.609-6.095-0.495-12.319-0.027-18.431 0.153-2.003 2.391-5.319 3.845-5.413 2.337-0.151 5.116,1.507 7.116,3.13 1.153,0.935 1.055,3.335 1.671,5.021 2.727,7.461 5.164,15.055 8.383,22.3 2.435,5.483 5.252,11.159 13.732,12.93 1.393-6.454 3.493-12.625 3.943-18.915 1.556-21.767-4.44-42.508-12.317-62.182-7.702-19.235-25.093-28.368-44.75-32.309-22.545-4.521-45.434-2.142-68.146-1.602-8.053,0.191-16.867,2.24-22.847,8.725-8.008,8.683-12.27,19.41-15.905,31.946 7.284-5.533 9.612-13.711 18.43-18.591-7.079,15.25-19.043,24.807-25.86,40.463 4.639-2.996 7.051-4.554 9.462-6.111-1.668,4.644-4.622,7.774-6.822,11.366-2.575,4.205-4.51,8.805-6.632,13.276-0.092,0.193 0.726,0.817 1.174,1.298 2.446-1.789 4.834-3.535 7.223-5.282-9.026,12.44-15.679,24.791-8.607,40.482 8.176-3.057 8.571-3.065 12.558-10.14 5.674-10.068 10.815-20.438 16.552-30.468 1.244-2.175 4.054-3.454 6.143-5.146 1.638,2.197 3.859,4.179 4.763,6.645 1.067,2.91 0.995,6.237 1.464,9.728 1.979-0.93 3.489-1.64 6.105-2.871-4.639,8.205-8.772,15.726-6.234,24.91 2.019-1.193 3.591-2.122 6.527-3.857-4.42,11.385-13.627,19.68-10.878,32.797 3.313-3.964 6.069-7.263 8.825-10.561-2.953,13.34-15.606,23.07-12.139,39.544 4.393-6.798 8.163-12.633 11.934-18.468 0.673,0.385 1.345,0.77 2.018,1.155-3.238,6.243-6.526,12.459-9.701,18.734-4.925,9.734-7.785,13.34-3.763,21.154 4.147-6.403 8.125-12.543 12.102-18.684 0.172,4.017-1.105,7.255-2.648,10.361-3.055,6.15-6.344,12.185-9.37,18.349-2.541,5.176-2.537,10.465-0.663,17.132 4.561-7.375 8.317-13.447 12.072-19.519 0.708,0.416 1.417,0.833 2.125,1.249-4.29,8.225-8.208,16.678-13.026,24.58-2.449,4.017-3.026,7.206-0.891,12.111 2.92-4.065 5.113-7.118 8.096-11.27-0.322,10.561-12.45,17.332-5.524,28.579 2.044-2.428 3.671-4.361 5.298-6.294-4.274,15.072-3.354,18.077 9.988,27.41zm-4.449-313.347c4.037-4.623 7.19-8.233 10.344-11.843 0.44,0.295 0.88,0.59 1.32,0.885-2.777,4.715-5.555,9.43-8.702,14.773 3.619,2.496 6.383,4.403 9.095,6.274 4.571-4.493 6.639-9.979 12.606-11.61-2.946,4.227-5.891,8.453-10.108,14.503 3.916-1.004 6.133-0.973 7.409-2.053 1.564-1.325 2.195-3.692 3.504-5.398 1.013-1.319 2.449-2.314 3.697-3.452 0.348,0.307 0.696,0.614 1.044,0.921-1.515,3.491-3.03,6.983-4.827,11.123 9.822,2.402 18.848,2.8 28.258,1.089 12.653-2.3 19.902-10.542 23.334-21.649 4.289-13.878 5.379-28.174 1.503-42.734-3.747-14.077-12.991-21.542-26.526-23.556-7.709-1.147-15.838-0.747-23.629,0.19-16.329,1.966-25.068,12.926-30.224,27.515-1.071,3.03-1.955,6.153-3.315,9.05-6.062,12.915-1.131,23.926 5.217,35.972z"/>
    <path d="m197.075,72.373c2.066-3.129 3.56-5.589 5.246-7.91 7.836-10.788 22.561-9.791 27.862,2.406 2.514,5.784 4.575,12.685 3.882,18.741-1.214,10.605-4.585,20.982-7.301,31.389-1.475,5.654-5.74,8.251-11.353,8.04-9.337-0.35-18.785-0.336-27.958-1.856-11.4-1.889-20.001-8.415-23.27-20.01-5.609-19.899 12.472-35.389 26.954-31.729 1.713,0.432 3.503,0.557 5.938,0.929z"/>
    <path d="m208.959,10.778c4.182-3.482 7.425-6.977 11.364-9.281 6.269-3.666 12.394-0.297 13.465,6.802 1.653,10.957-10.416,30.486-21.039,33.404-2.892,0.795-6.472,0.916-9.255-0.045-10.867-3.755-17.322-17.094-14.028-27.981 2.946-9.739 8.595-11.568 16.724-5.393 0.837,0.636 1.571,1.408 2.769,2.494z"/>
  </g>
</svg>
