<?xml version='1.0' encoding='iso-8859-1'?>
<!DOCTYPE svg PUBLIC '-//W3C//DTD SVG 1.1//EN' 'http://www.w3.org/Graphics/SVG/1.1/DTD/svg11.dtd'>
<svg version="1.1" xmlns="http://www.w3.org/2000/svg" viewBox="0 0 415.248 415.248" xmlns:xlink="http://www.w3.org/1999/xlink" enable-background="new 0 0 415.248 415.248">
  <g>
    <path d="m83.473,49.208c-5.606-19.115-0.583-26.424 19.861-27.183 4.188-21.557 20.532-26.625 39.876-11.91 3.294-7.284 9.102-10.547 16.972-10.069 7.748,0.47 13.429,4.36 17.243,10.941 14.084-7.99 28.247,0.561 31.94,19.761 8.423-2.421 16.645-5.875 25.162-6.907 7.588-0.92 15.731-0.152 23.227,1.594 27.01,6.293 53.744,13.782 80.798,19.864 13.552,3.046 27.562,4.069 41.376,5.924 6.371,0.856 12.816,1.244 19.139,2.349 4.565,0.797 7.563,2.79 7.859,8.712 0.92,18.407 3.208,36.747 4.055,55.155 0.971,21.08 1.165,42.203 1.332,63.31 0.182,22.984 0.182,45.976-0.185,68.957-0.293,18.296-1.167,36.586-2.07,54.865-0.088,1.79-1.79,4.151-3.415,5.113-15.157,8.977-30.329,17.947-45.754,26.452-23.489,12.95-47.105,25.675-70.816,38.216-17.481,9.246-35.131,18.179-52.838,26.985-9.294,4.622-18.833,8.764-28.343,12.936-3.737,1.639-7.178,1.2-10.923-1.235-2.497-1.624-6.412-0.87-9.468-1.868-16.144-5.278-32.492-10.084-48.25-16.356-24.475-9.742-48.436-20.674-71.358-33.848-10.584-6.083-21.922-10.902-33.095-15.901-10.864-4.86-15.474-12.705-15.471-24.747 0.003-18.674-0.646-37.401-2.199-56.007-1.848-22.147-5.052-44.178-7.447-66.283-1.072-9.891-1.429-19.857-2.427-29.758-1.513-15.006-3.695-29.954-4.837-44.983-0.782-10.283-0.824-20.708 0.016-30.971 0.224-2.739 4.469-6.303 7.614-7.46 20.247-7.443 40.709-14.303 61.068-21.447 0.998-0.35 1.81-1.471 2.511-2.385 2.839-3.703 5.601-7.465 8.847-11.816zm73.761-8.588l-.126-.02c3.568,3.506 7.493,4.025 12.394,2.707 5.937-1.596 11.293,0.762 12.816,4.816 0.442,1.175-0.045,2.698-0.106,4.062-1.264-0.253-2.766-0.152-3.752-0.817-6.706-4.526-12.265-2.989-15.382,4.578-1.43,3.472-2.511,7.087-3.807,10.802-5-3.843-4.937-6.329-0.012-17.473-0.746-0.766-1.398-1.735-2.301-2.314-10.208-6.547-20.41-5.596-19.782,9.353 0.054,1.278-1.382,3.679-2.203,3.714-1.744,0.074-4.166-0.558-5.189-1.814-2.527-3.1-5.405-4.456-9.195-3.484-6.378,1.637-10.753,9.307-9.312,15.877 0.25,1.141 0.035,2.383 0.035,3.579-0.459,0.289-0.917,0.579-1.376,0.868-1.886-2.206-3.642-4.541-5.689-6.586-3.143-3.143-6.07-6.885-9.873-8.866-3.162-1.647-7.61-1.964-10.382,2.192-2.659,3.986-2.135,7.622 0.967,11.052 1.357,1.501 2.553,3.274 4.192,4.37 6.718,4.493 13.155,9.741 20.471,12.939 17.562,7.678 35.745,5.943 53.246-0.174 12.524-4.378 24.495-9.902 28.81-25.003 3.308-11.577 6.681-22.961 5.701-35.05-0.53-6.543-3.997-11.598-10.144-14.427-0.738,0.597-1.194,0.914-1.591,1.294-8.268,7.917-11.173,7.531-17.058-2.352-2.509-4.212-5.928-6.125-11.016-5.593-4.711,0.493-4.489,4.332-5.511,7.195-2.19,6.132-5.801,7.931-11.325,4.668-3.299-1.949-6.046-4.811-9.17-7.086-3.731-2.716-7.845-2.788-11.885-0.831-4.028,1.951-5.073,5.532-4.685,9.738 0.136,1.472 0.043,2.964 0.13,4.443 0.288,4.948-2.544,6.664-6.902,6.316-2.146-0.171-4.207-1.371-6.356-1.566-2.672-0.242-6.915-0.94-7.779,0.358-1.8,2.701-2.832,6.727-2.382,9.957 1.216,8.71 5.799,15.3 14.83,17.908 7.825-9.867 7.82-9.868 10.071-21.586 0.173-0.902 0.459-1.786 0.733-2.665 1.36-4.356 3.74-7.582 8.77-7.828 5.66-0.277 10.472,1.314 13.894,6.2-2.888,0.348-5.622,0.255-8.249-0.322-5.862-1.286-8.979,0.478-9.834,6.333-0.412,2.822-0.071,5.754-0.071,8.533 3.413,0.543 6.425,1.023 9.351,1.489 6.028-11.42 10.444-13.831 20.284-11.187 1.932,0.52 3.835,1.133 5.75,1.703zm52.518,360.96c13.244-6.254 26.211-11.808 38.652-18.36 32.6-17.168 64.967-34.779 97.435-52.197 16.007-8.587 32.068-17.078 47.994-25.813 1.39-0.763 2.719-2.989 2.793-4.594 0.909-19.582 2.013-39.17 2.215-58.765 0.364-35.365 0.259-70.735 0.121-106.103-0.051-13.124-0.647-26.25-1.186-39.368-0.325-7.907-1.017-15.798-1.544-23.698-17.816,2.884-159.418,56.23-196.598,74.075 1.111,4.582 2.902,9.15 3.236,13.822 1.727,24.158 3.643,48.324 4.423,72.521 0.948,29.434 0.769,58.903 1.193,88.355 0.33,22.963 0.846,45.922 1.257,68.884 0.065,3.624 0.009,7.251 0.009,11.241zm-7.245,2.195c-0.947-15.414-2.227-29.424-2.587-43.457-0.854-33.318-1.246-66.648-1.875-99.973-0.52-27.582-1.125-55.162-1.664-82.743-0.203-10.396 0.945-21.004-4.62-29.035-17.138-3.895-33.567-7.629-48.735-11.076-1.52,34.523-3.394,69.794-4.503,105.088-0.639,20.325-0.866,40.732 0.211,61.024 1.337,25.208 4.343,50.325 6.289,75.508 0.307,3.977 1.486,5.93 5.208,7.15 16.997,5.568 33.925,11.343 52.276,17.514zm-63.709-21.546c-1.271-11.247-2.731-21.097-3.433-31.001-1.488-20.997-3.084-42.008-3.687-63.04-0.54-18.839-0.159-37.727 0.482-56.57 0.47-13.82 2.259-27.59 3.028-41.406 0.947-17.004 1.351-34.038 2.214-51.047 0.191-3.772-1.112-4.917-4.722-5.678-16.09-3.392-32.102-7.161-48.127-10.858-5.195-1.198-10.346-2.59-14.535-3.645 0,11.701-0.608,22.643 0.143,33.491 1.108,15.996 3.63,31.893 4.742,47.889 1.564,22.507 2.21,45.077 3.572,67.6 1.65,27.274 3.684,54.524 5.429,81.793 0.274,4.283 1.394,7.663 5.581,9.593 16.144,7.44 32.251,14.954 49.313,22.879zm-85.368-115.334c0.503,0.378 1.006,0.756 1.509,1.135-2.75,4.495-5.065,9.338-8.33,13.421-10.11,12.641-17.005,26.061-12.752,42.901 0.132,0.521-0.206,1.224 0.029,1.646 1.35,2.426 2.226,5.886 4.324,7.001 12.545,6.669 25.379,12.793 39.083,19.578 0-2.882 0.117-4.659-0.018-6.417-1.398-18.214-3.053-36.411-4.209-54.64-1.405-22.145-2.375-44.317-3.579-66.474-0.701-12.908-1.395-25.817-2.267-38.714-1.245-18.421-3.489-36.823-3.652-55.249-0.088-9.957-1.785-16.381-12.114-19.603-12.855-4.01-25.355-9.158-39.827-14.484 2.901,23.052 5.632,44.753 8.435,67.029 7.671-11.5 14.882-22.31 22.093-33.12 0.47,0.303 0.939,0.605 1.409,0.908-0.781,1.812-1.404,3.713-2.368,5.422-5.528,9.796-10.985,19.637-16.781,29.273-2.981,4.955-4.712,9.826-2.169,15.786 8.056-11.666 14.727-24.324 25.798-33.657-1.797,4.844-4.36,9.182-7.013,13.463-4.662,7.523-9.212,15.124-14.114,22.489-7.548,11.341-1.085,22.478-0.45,34.97 8.831-10.918 16.828-20.804 24.825-30.69 0.599,0.401 1.197,0.802 1.796,1.204-1.522,2.804-2.791,5.786-4.611,8.38-5.824,8.299-11.749,16.531-17.841,24.634-3.406,4.531-2.552,9.109-1.345,15.266 7.814-9.966 14.833-18.918 21.853-27.87 0.574,0.377 1.148,0.753 1.722,1.13-0.773,1.972-1.222,4.161-2.375,5.878-4.934,7.345-9.475,15.087-15.331,21.637-4.683,5.237-6.122,10.234-4,16.803 7.351-9.24 14.639-18.4 21.927-27.561 0.564,0.382 1.128,0.763 1.692,1.145-1.143,2.395-1.992,4.991-3.48,7.148-5.657,8.2-11.786,16.088-17.166,24.46-1.912,2.975-2.193,6.997-3.218,10.541 0.534,0.134 1.069,0.269 1.604,0.403 6.564-8.137 13.129-16.274 19.693-24.411 0.599,0.414 1.198,0.827 1.798,1.241-0.771,1.746-1.295,3.66-2.355,5.208-5.206,7.603-9.958,15.638-16.043,22.477-4.719,5.305-2.11,10.283-2.986,16.903 7.874-9.619 12.235-19.884 20.804-26.59zm338.934-202.179c-3.058-0.447-5.771-0.839-8.482-1.242-11.761-1.751-23.483-3.873-35.298-5.123-7.293-0.771-13.942-3.285-22.227,0.775-19.875,9.74-40.751,17.529-61.505,25.361-23.839,8.995-48.021,17.076-71.977,25.769-15.847,5.75-31.556,11.878-47.327,17.837-0.016,0.471-0.032,0.942-0.047,1.413 13.332,3.851 26.563,8.136 40.055,11.308 4.462,1.049 10.078,0.357 14.347-1.462 23.769-10.127 46.874-21.925 70.981-31.118 39.974-15.245 80.536-28.944 121.48-43.518zm-289.819,30.39c-11.16,5.532-21.972,10.891-33.102,16.409 17.818,4.243 35.765,8.392 53.64,12.829 8.344,2.071 16.057,1.295 24.073-2.009 20.543-8.465 41.249-16.556 62.042-24.391 38.255-14.413 76.619-28.535 114.938-42.779-15.277-5.485-30.159-9.694-45.066-13.813-0.742-0.205-1.747,0.273-2.553,0.615-4.682,1.99-9.19,4.558-14.036,5.967-18.135,5.275-36.385,10.155-54.572,15.258-1.506,0.423-3.769,1.091-4.137,2.17-3.538,10.389-13.532,15.157-19.944,23.042-8.365,10.287-20.617,14.421-33.66,15.518-16.773,1.413-33.691,3.154-47.623-8.816zm-27.816-21.57c-17.564,6.61-35.838,13.486-54.091,20.355 13.975,4.659 27.954,9.319 41.446,13.816 11.38-5.109 23.089-10.366 34.855-15.648-7.97-6.646-15.214-12.688-22.21-18.523zm131.688-15.113c20.632-6.944 41.568-10.738 62.417-19.271-5.175-1.776-8.702-3.461-12.415-4.15-5.709-1.06-11.68-2.537-17.297-1.853-8.985,1.095-17.787,3.751-26.624,5.919-1.371,0.336-3.411,1.409-3.617,2.445-1.061,5.333-1.624,10.765-2.464,16.91z"/>
    <path d="m287.602,180.682c7.025-8.252 11.298-18.953 22.422-23.133 4.842-1.819 9.179-0.213 11.473,4.099 4.462,8.383 9.015,16.913 7.098,27.063-2.244,11.885-4.172,23.837-6.726,35.654-1.594,7.372-7.707,10.015-14.961,7.232-1.016-0.39-2.211-1.27-3.051-1.017-10.711,3.223-19.427-3.609-29.081-5.62-1.776-0.37-3.515-0.985-5.306-1.196-10.661-1.255-16.258-7.233-16.265-17.918-0.007-10.134 3.758-18.691 11.559-25.298 6.435-5.451 13.499-5.284 22.838,0.134z"/>
    <path d="m249.754,292.807c2-8.339 3.531-15.846 5.691-23.167 0.85-2.88 2.781-5.626 4.79-7.939 4.186-4.818 9.944-4.787 14.459-0.218 5.151,5.213 8.853,11.221 9.465,18.723 1.198,14.683 2.601,29.356 3.394,44.062 0.501,9.286-5.814,15.656-14.988,15.109-9.839-0.587-19.871-1.09-29.373-3.435-14.053-3.468-23.512-16.069-22.054-28.367 0.435-3.668 3.082-7.884 6.002-10.283 6.703-5.509 14.766-7.132 22.614-4.485z"/>
    <path d="m356.606,118.194c4.518-2.225 9.715-5.392 15.328-7.391 6.754-2.406 12.356,2.929 10.82,9.969-2.531,11.603-9.073,21.148-16.317,30.237-4.198,5.268-12.346,4.752-18.395,2.234-1.49-0.62-3.286-0.954-4.878-0.794-4.639,0.467-8.467-0.917-11.049-4.742-6.987-10.35-7.141-21.414-2.341-32.536 2.264-5.247 7.133-7.156 12.323-4.929 5.097,2.187 9.789,5.318 14.509,7.952z"/>
    <path d="m320.803,259.579c4.01-5.206 7.899-10.837 12.445-15.874 1.873-2.076 5.498-4.385 7.717-3.885 2.866,0.645 6.319,3.547 7.356,6.293 1.497,3.964 1.784,8.749 1.274,13.028-0.907,7.607-2.59,15.145-4.332,22.622-2.179,9.352-6.673,13.313-16.047,11.86-9.52-1.476-19.053-4.327-25.704-12.315-6.948-8.346-4.134-21.372 5.478-23.432 3.897-0.835 8.399,1.141 11.813,1.703z"/>
    <path d="m27.602,206.145c5.156-15.442 16.165-27.073 26.653-40.835 0.084,6.368-19.759,36.953-26.653,40.835z"/>
    <path d="m39.803,313.473c3.552-6.25 7.104-12.501 10.656-18.751 0.803,0.456 1.605,0.912 2.408,1.368-3.63,6.207-7.259,12.414-10.888,18.622-0.725-0.414-1.45-0.826-2.176-1.239z"/>
    <path d="m150.478,66.877c-1.347,1.122-2.05,2.144-2.966,2.399-5.55,1.544-10.1,4.004-11.321,10.333-0.126,0.652-1.507,1.061-2.306,1.583-0.681-1.156-2.198-2.627-1.901-3.414 1.368-3.621 2.442-7.971 5.138-10.316 3.305-2.874 8.116-4.057 13.356-0.585z"/>
    <path d="m157.234,40.62c-0.654-1.033-2.104-2.62-1.833-3.01 1.696-2.435 3.376-5.349 5.833-6.664 2.837-1.519 6.522-3.824 10.008-0.022-4.886,3.319-9.541,6.481-14.166,9.66 0.031,0.016 0.158,0.036 0.158,0.036z"/>
  </g>
</svg>
