<?xml version='1.0' encoding='iso-8859-1'?>
<!DOCTYPE svg PUBLIC '-//W3C//DTD SVG 1.1//EN' 'http://www.w3.org/Graphics/SVG/1.1/DTD/svg11.dtd'>
<svg version="1.1" xmlns="http://www.w3.org/2000/svg" viewBox="0 0 397.733 397.733" xmlns:xlink="http://www.w3.org/1999/xlink" enable-background="new 0 0 397.733 397.733">
  <g>
    <path d="m131.152,91.014c0.537-0.462 1.023-0.67 1.067-0.947 6.512-41.263 34.009-62.734 71.115-74.649 15.15-4.865 30.648-6.566 46.749-3.303 28.482,5.772 46.652,23.45 59.159,48.391 0.164,0.328 0.382,0.674 0.402,1.022 0.821,13.753 11.23,21.537 19.039,31.028 4.869,5.917 8.818,12.581 13.482,18.679 4.017,5.253 8.444,10.192 12.719,15.246 6.93,8.193 6.7,10.224-1.952,16.576-1.426,1.047-2.851,2.094-3.753,2.757 10.248,17.61 20.655,34.514 30.043,51.965 6.436,11.964 11.652,24.606 16.972,37.133 1.36,3.203 1.837,7.23 1.354,10.688-1.983,14.197-4.343,28.348-6.877,42.46-1.155,6.431-2.455,12.636-6.746,18.364-2.334,3.116-1.38,9.106-1.028,13.732 0.64,8.413 1.934,16.775 2.961,25.158 0.134,1.096 0.495,2.201 0.422,3.28-1.383,20.473-0.005,19.623-17.532,25.198-20.193,6.422-40.779,10.089-61.846,9.62-35.3-0.786-70.588-2.289-105.864-3.866-8.018-0.359-15.967-2.253-24.587-3.536-0.613,2.303-1.025,4.754-1.922,7.014-1.392,3.507-3.928,4.95-7.865,3.975-12.78-3.165-25.641-6.011-38.386-9.304-8.527-2.203-17.038-4.616-25.289-7.66-2.718-1.003-5.945-3.945-6.588-6.575-1.428-5.845-5.139-7.971-10.102-10.211-15.071-6.802-29.811-14.333-44.79-21.342-5.46-2.555-8.982-6.58-10.231-12.224-3.013-13.616-5.982-27.259-8.27-41.008-0.78-4.689-2.28-7.818-5.935-10.967-3.424-2.951-6.98-7.296-7.751-11.525-4.746-26.009-10.414-51.978-9.141-78.688 1.5-31.476 17.28-54.734 44.07-69.434 25.867-14.194 54.078-20.872 84.026-16.689 1.013,0.142 2.1-0.252 2.875-0.358zm-16.2,121.59c-1.089-3.198-1.69-4.92-2.262-6.652-3.431-10.396-1.659-15.689 8.011-20.971 5.132-2.802 10.651-5.321 16.305-6.656 13.855-3.27 27.889-5.777 42.47-8.716 9.181-19.787 27.177-27.094 48.949-28.487-3.77-19.083 2.016-35.089 11.971-49.734 9.203-13.539 21.3-17.101 36.526-11.328 6.483,2.458 12.659,5.727 18.973,8.631 6.605-5.459 6.558-5.453 5.87-10.153-3.895-26.613-27.096-53.974-57.989-57.153-10.412-1.071-21.506-0.329-31.694,2.089-36.786,8.729-63.471,28.669-70.914,68.281-0.377,2.007-1.908,3.797-2.856,5.601-6.308,0.517-12.154,1.347-18.008,1.414-22.449,0.26-43.949,5.18-64.015,14.841-24.333,11.716-39.988,30.668-44.158,58.182-0.83,5.479-0.087,9.955 2.763,14.651 9.598,15.818 22.072,28.469 38.739,36.802 6.258,3.129 12.612,6.128 18.587,9.739 5.108,3.087 9.495,2.829 14.227-0.54 9.274-6.604 18.682-13.021 28.505-19.841zm51.481,47.06c35.304,14.422 175.947-3.345 214.532-24.921-10.951-29.471-26.064-56.832-41.967-84.269-17.025,16.675-37.739,24.974-70.43,28.704-2.342,22.086-21.546,24.044-35.19,29.604-5.792,10.039-9.697,19.387-15.847,26.898-10.774,13.158-24.131,22.549-42.612,21.262-2.751-0.191-5.653,1.761-8.486,2.722zm44.389,24.795c5.401,9.911 0.33,19.032 2.828,27.601 3.151,0 5.836,0 8.597,0 1.324-7.096 2.529-13.56 3.735-20.024 0.729,0.111 1.458,0.222 2.187,0.333 0,6.829 0,13.658 0,21.191 10.739-2.761 4.012-12.217 8.948-18.103 0,6.332 0,11.517 0,16.838 10.758,0 20.521,0 30.657,0 1.156-6.431 2.18-12.131 3.205-17.832 0.48,0.039 0.96,0.079 1.441,0.118 0,5.677 0,11.354 0,17.339 4.587-0.549 8.168-0.978 11.704-1.401 1.482-4.71 2.797-8.892 4.112-13.074 0.35,0.096 0.701,0.193 1.051,0.289-0.281,3.848-0.563,7.696-0.973,13.31 16.911-2.74 32.787-5.109 48.581-7.934 12.6-2.254 25.101-5.064 39.555-8.018 2.568-14.996 5.433-31.727 8.469-49.456-20.265,4.648-38.852,9.026-57.494,13.153-16.165,3.579-32.259,8.681-48.622,9.89-27.858,2.057-55.902,1.937-83.87,2-10.791,0.025-21.587-1.946-33.427-3.111 2.503,11.619 4.79,22.705 7.314,33.736 1.131,4.946 4.217,7.387 10.381,6.069 0-7.757 0-15.384 0-23.011 0.746-0.055 1.492-0.109 2.238-0.164 0.78,8.503 1.559,17.007 2.394,26.107 3.405-0.198 6.121-0.356 9.377-0.545 0.785-8.214 1.509-15.788 2.233-23.361 0.831,0.037 1.661,0.073 2.491,0.11 0.41,7.857 0.82,15.714 1.259,24.117 3.182,0 5.861,0 8.699,0 0.944-8.439 1.829-16.336 2.93-26.167zm30.588,84.854c6.014,1.891 7.912-0.024 9.012-4.613 1.786-7.451 4.403-14.702 6.67-22.038 0.815,0.223 1.629,0.445 2.443,0.668-1.47,8.525-2.94,17.05-4.529,26.271 3.478,0 6.191,0 9.039,0 3.474-9.779 3.417-20.189 10.167-28.416-1.313,9.318-2.625,18.636-4.036,28.658 3.211,0.27 5.568,0.468 7.991,0.672 1.241-4.993 2.124-9.298 3.405-13.482 1.249-4.078 2.905-8.031 4.382-12.039 0.779,0.263 1.557,0.526 2.336,0.79-1.738,8.046-3.475,16.092-5.207,24.11 5.823,2.012 8.13,0.601 9.277-4.749 1.685-7.858 4.392-15.496 6.663-23.228 0.726,0.19 1.451,0.381 2.176,0.571-1.603,9.203-3.206,18.407-4.793,27.516 5.23,1.799 6.78-0.127 7.775-4.078 1.764-7.005 4.084-13.87 6.172-20.794 0.737,0.199 1.473,0.398 2.21,0.597-1.442,7.81-2.885,15.621-4.445,24.07 3.714,0 6.876,0 10.571,0 1.492-6.005 2.954-11.89 4.416-17.775 0.523,0.098 1.046,0.196 1.569,0.294-0.338,5.855-0.677,11.709-1.11,19.19 17.203-4.106 32.792-7.827 47.738-11.395 5.49-18.458-1.043-34.334-2.648-51.314-65.029,15.727-129.894,21.378-195.51,7.993 0.979,16.541 1.933,32.651 2.934,49.556 3.195,0.57 6.685,1.193 10.773,1.922 1.045-6.233 1.894-11.622 2.862-16.989 0.951-5.274 0.159-11.076 4.843-15.346-0.969,10.427-1.939,20.855-2.982,32.077 4.687,0 7.739,0 11.258,0 1.23-10.671 1.145-21.115 7.769-29.958-0.945,10.027-1.889,20.055-2.869,30.456 4.594,0 7.81,0 11.216,0 3.894-9.16 1.251-19.905 8.884-30.297-0.935,12.129-1.681,21.801-2.397,31.086 7.51,2.111 10.346-0.069 11.34-6.276 1.079-6.743 3.19-13.321 4.851-19.971 0.749,0.121 1.498,0.243 2.247,0.364-0.812,8.542-1.625,17.086-2.463,25.897zm-91.462-29.569c0.878-0.013 1.756-0.026 2.634-0.04-0.63,10.899-1.26,21.799-1.903,32.908 4.796,0.773 8.582,1.383 12.907,2.08 2.724-16.793 4.217-32.497 1.265-48.248-3.183-16.982-6.506-33.953-10.444-50.77-1.904-8.132-2.133-15.225 4.758-20.654-8.324-4.678-17.09-8.186-24.031-13.907-6.861-5.655-11.879-13.545-17.727-20.479-11.166,7.607-22.333,15.214-33.497,22.82 0,1.704-0.225,3.204 0.033,4.615 6.089,33.304 12.576,66.54 18.169,99.926 1.912,11.41 7.777,16.652 19.239,17.483 1.023-12.252 2.05-24.551 3.077-36.85 2.045,4.098 2.127,8.103 2.026,12.103-0.168,6.633-0.618,13.262-0.65,19.894-0.037,7.685 0.103,7.686 9.076,6.828 2.044-13.044 0.89-26.66 5.931-39.333 0.508,7.787 0.057,15.473-0.342,23.161-0.267,5.143-0.706,10.294-0.608,15.432 0.077,4.012 2.607,4.74 6.597,3.237 1.155-10.004 2.323-20.105 3.49-30.206zm118.355-170.237c5.95-1.091 10.684-1.763 15.322-2.847 13.278-3.104 26.391-6.757 37.66-14.898 7.188-5.193 8.438-8.948 4.18-15.767-12.058-19.311-26.72-35.98-48.266-45.293-13.107-5.665-20.628-3.856-28.169,8.102-3.291,5.218-5.759,11.096-7.737,16.966-2.558,7.592-4.252,15.475-6.454,23.745 4.466,1.167 8.572,2.24 12.53,3.275 5.036-7.957 9.656-15.258 14.277-22.56 0.801,0.373 1.603,0.746 2.404,1.119-2.574,6.7-4.853,13.534-7.821,20.054-2.218,4.873-1.229,7.553 3.538,8.791 5.74-4.229 9.481-11.831 20.336-8.585-5.882,5.97-10.88,11.043-15.902,16.14 1.263,3.622 2.577,7.388 4.102,11.758zm-89.913,7.935c-14.932,3.486-29.178,5.643-42.601,10.216-21.075,7.18-17.371,10.47-10.345,25.057 0.797,1.655 1.657,3.284 2.559,4.884 11.025,19.551 28.857,27.339 50.216,28.71 3.175,0.204 6.726-0.372 9.617-1.668 15.474-6.939 26.049-18.3 31.079-35.651-6.527-1.582-12.431-3.014-18.189-4.41-5.691,4.402-9.354,11.888-18.281,10.15 0.387-7.424 5.788-10.24 11.075-13.85-2.621-2.474-4.936-4.66-6.902-6.515-7.067,1.048-12.574,6.396-20.287,4.65 1.091-1.785 1.315-2.593 1.842-2.943 4.261-2.832 8.578-5.578 13.332-8.642-0.825-2.647-1.669-5.352-3.115-9.988zm47.779-30.622c-12.294-0.125-24.782,5.675-33.738,14.938-8.79,9.091-8.615,17.891 0.077,27.071 12.616,13.324 43.86,15.925 61.761-0.332 1.678-1.525 2.521-4.421 2.93-6.821 3.183-18.672-4.344-29.844-22.697-33.804-3.222-0.695-6.564-0.838-8.333-1.052zm-215.026,47.633c1.608,16.212 3.534,30.834 8.177,45.02 0.537-4.23 1.074-8.461 1.612-12.691 1.532,8.629 1.557,17.044 1.522,25.46-0.018,4.237 0.722,7.789 6.265,8.239 2.023-8.298-0.888-16.943 4.032-24.328 0.814,7.76 0.704,15.464 0.844,23.164 0.152,8.444 0.253,8.442 11.319,11.862 0-8.661 0-16.9 0-25.139 0.933-0.021 1.867-0.041 2.8-0.062 0.364,3.875 0.866,7.742 1.057,11.625 0.235,4.782-0.11,9.616 0.484,14.342 0.194,1.542 2.541,2.813 5.281,5.619 0.539-10.518 0.947-18.489 1.356-26.46 5.703,8.711 1.669,18.596 4.4,28.088 3.466,1.124 7.068,2.291 11.4,3.696-0.776-9.103-1.427-16.738-2.077-24.373 0.773-0.089 1.547-0.178 2.32-0.267 3.601,6.798 3.339,14.402 3.295,21.914-0.031,5.342 2.73,4.874 7.375,3.242-2.254-11.251-4.868-22.286-6.531-33.463-0.813-5.464-3.362-8.542-7.995-10.786-21.681-10.499-41.173-23.851-56.936-44.702zm57.578,138.069c0.859-0.079 1.717-0.158 2.576-0.236 0-6.777 0-13.554 0-20.331 0.72-0.095 1.44-0.191 2.159-0.286 1.466,8.065 2.933,16.13 4.491,24.702 3.992,1.321 7.861,2.602 12.797,4.236-2.23-15.295-4.229-29.004-6.07-41.633-17.798-6.281-34.303-12.105-52.132-18.397 3.488,13.271 5.126,26.355 11.7,38.018 0.842,1.494 3.19,2.139 5.998,3.905 0-5.009 0-8.574 0-12.138 2.137,3.398 2.938,6.91 3.152,10.457 0.306,5.081 3.133,6.473 7.855,6.849-0.609-8.318-1.157-15.795-1.704-23.273 7.003,8.322 2.75,19.914 9.178,28.127zm234.44-239.644c6.924,7.469 13.702,14.125 19.695,21.426 6.245,7.608 11.731,15.838 18.044,24.472 2.168-1.301 4.847-2.908 8.654-5.192-15.186-14.136-20.499-34.685-37.503-47.091-3.103,2.229-5.959,4.28-8.89,6.385z"/>
    <path d="m92.939,242.357c14.449,6.051 28.899,12.102 43.872,18.372-11.498,3-14.353,1.954-44.587-15.901 0.238-0.824 0.476-1.648 0.715-2.471z"/>
  </g>
</svg>
