<?xml version="1.0" encoding="iso-8859-1"?>
<!-- Generator: Adobe Illustrator 16.0.0, SVG Export Plug-In . SVG Version: 6.00 Build 0)  -->
<!DOCTYPE svg PUBLIC "-//W3C//DTD SVG 1.1//EN" "http://www.w3.org/Graphics/SVG/1.1/DTD/svg11.dtd">
<svg version="1.1" id="Capa_1" xmlns="http://www.w3.org/2000/svg" xmlns:xlink="http://www.w3.org/1999/xlink" x="0px" y="0px"
	 width="190.156px" height="190.156px" viewBox="0 0 190.156 190.156" style="enable-background:new 0 0 190.156 190.156;"
	 xml:space="preserve">
<g>
	<g>
		<path d="M160.99,111.013c-3.673-9.329-11.629-12.885-20.568-8.117c-9.337,4.981-22.98,24.061-33.975,9.669
			c-2.604-3.407-3.85-7.789-4.346-12.459c0.61-1.243,0.436-2.479-0.221-3.397c-0.216-6.429,0.689-13.099,1.384-18.397
			c0.021-0.163-0.027-0.289-0.035-0.438c3.15-1.594,5.774-4.254,7.139-7.519c7.866-18.803-8.27-30.172-24.573-34.6
			c0.722-1.623,1.428-3.254,2.051-4.935c0.238-0.643,0.586-1.471,0.879-2.342c2.687,0.095,5.728-0.988,7.657-2.277
			c3.035-2.027,3.898-5.272,3.375-8.719c-1.112-7.327-9.588-13.287-15.878-15.813C75.47-1.709,66.763-0.066,61.467,7.586
			c-3.358,4.852-3.065,11.967,1.685,15.721c2.204,1.742,4.78,2.468,7.559,2.515c0.716,0.012,1.305-0.099,1.846-0.265
			c-0.079,1.511,0.57,3.149,0.91,4.56c0.304,1.261,0.707,2.455,1.117,3.646c-0.778-0.061-1.566-0.134-2.312-0.158
			c-18.465-0.599-42.237,8.465-43.783,29.641C27.34,78.973,41.3,83.611,54.4,82.806c-5.126,3.576-4.77,12.329-5.378,18.278
			c-1.743,17.037-0.878,34.143-2.652,51.197c-1.541,14.817,1.328,27.67,16.798,32.19c12.501,3.654,23.433-9.187,27.253-19.714
			c5.296,0.422,10.593,0.563,15.88,1.227c1.617,15.446,16.017,29.113,32.137,22.435c21.041-8.718,11.968-40.097,9.743-56.596
			C155.646,128.992,164.353,119.551,160.99,111.013z M122.895,123.565c0.405-0.102,0.789-0.237,1.186-0.354
			c0.004,0.465,0.012,0.932,0.021,1.406c0.063,3.103,0.065,6.254,0.404,9.339c0.2,1.824,2.635,1.824,2.835,0
			c0.298-2.707,0.287-5.451,0.378-8.172c0.044-1.3,0.114-2.616,0.044-3.91c0.141-0.065,0.298-0.113,0.436-0.18
			c1.167,1.139,2.408,2.241,3.062,3.796c0.692,1.647,0.736,3.317,0.151,4.685c-1.613,3.776-5.677,6.034-9.454,7.187
			c-0.351,0.107-0.723,0.203-1.099,0.298C122.067,133.369,122.998,128.277,122.895,123.565z M109.41,123.475
			c0.661,0.234,1.351,0.414,2.051,0.566c-0.101,1.815,0.214,3.735,0.362,5.487c0.213,2.494,0.649,4.937,1.512,7.291
			c0.548,1.496,2.802,0.924,2.411-0.665c-0.534-2.179-0.692-4.389-0.761-6.626c-0.05-1.646,0.164-3.381,0.115-5.06
			c1.209,0.045,2.434-0.013,3.656-0.14c-0.084,4.346,0.424,8.773-0.315,13.103c-0.044,0.258,0.056,0.449,0.132,0.65
			c-2.724,0.344-5.627,0.088-7.653-1.646C107.268,133.312,108.32,127.917,109.41,123.475z M93.157,18.31
			c0.868,2.558-1.555,3.115-4.073,3.589c0.161-1.958,0.335-3.915,0.439-5.876c0.04-0.756,0.21-1.769,0.257-2.762
			C91.28,14.745,92.521,16.433,93.157,18.31z M83.244,8.695c1.144,0.562,2.335,1.263,3.493,2.062
			c-0.918,1.372-0.375,3.784-0.297,5.266c0.112,2.116,0.301,4.23,0.474,6.343c-0.857,0.221-1.617,0.497-2.072,0.953
			c-0.582,0.583-0.799,1.416-0.708,2.213c-0.264,0.818-0.42,1.652-0.539,2.341c-0.024-4.165-0.171-8.322-0.326-12.486
			c-0.078-2.106,0.01-4.577-0.375-6.841C83.006,8.599,83.135,8.642,83.244,8.695z M72.514,19.656
			c-1.856-0.252-3.768-0.418-5.268-1.669c-3.102-2.586-0.161-7.14,2.053-9.22c0.131-0.123,0.285-0.196,0.422-0.308
			c0.027,0.601,0.08,1.211,0.109,1.815c0.121,2.542,0.072,5.162,0.442,7.681c0.186,1.264,2.355,1.264,2.541,0
			c0.343-2.332,0.302-4.752,0.414-7.104c0.062-1.309,0.305-2.766-0.017-4.006c1.723-0.342,3.571-0.205,5.356,0.193
			c-1.073,6.764,0.384,14.53,1.074,21.278c0.216,2.109,2.894,2.495,3.714,0.99c-0.306,1.87-0.603,3.753-0.93,5.633
			c-1.422-0.304-2.834-0.573-4.217-0.771c0.164-1.191,0.233-2.368,0.174-3.649c-0.081-1.752,0.427-5.066-0.665-6.53
			c-0.333-0.447-0.784-0.763-1.271-0.993c0.247-0.197,0.469-0.394,0.746-0.587c1.074-0.749,0.431-2.445-0.9-2.134
			C74.37,20.723,74.4,19.913,72.514,19.656z M46.476,47.183c0.331,1.036,0.895,1.889,1.552,3.057
			c0.57,1.013,0.886,2.157,1.105,3.329c-2.838-0.397-5.613-0.845-8.318-2.058C42.475,49.897,44.404,48.448,46.476,47.183z
			 M39.121,53.417c2.975,1.761,6.735,3.061,10.373,3.416c0.024,0.619,0.039,1.236,0.044,1.827c0.007,0.63-0.129,1.246-0.172,1.873
			c-1.847-0.66-3.82-1.108-5.339-1.568c-2.227-0.675-4.86-1.658-7.347-1.863C37.3,55.791,38.163,54.58,39.121,53.417z
			 M43.856,75.649c-0.119,0.163-0.148,0.331-0.22,0.496c-3.409-1.563-6.078-4.245-7.488-8.401c0.693,0.295,1.392,0.58,2.061,0.878
			c2.388,1.066,5.168,2.628,7.895,3.417C45.432,73.293,44.691,74.508,43.856,75.649z M47.74,68.349
			c-2.686-1.024-5.645-1.688-8.292-2.664c-1.369-0.505-2.727-1.062-4.104-1.553c-0.139-1.645,0.057-3.197,0.462-4.677
			c2.195,0.714,4.39,1.606,6.53,2.404c2.128,0.792,4.252,1.984,6.404,2.946C48.455,65.998,48.17,67.195,47.74,68.349z
			 M52.771,157.038c0.011-4.002,0.584-8.06,1.079-12.053c0.936,0.781,2.073,1.11,3.242,1.409c-1.954,4.83-0.879,10.269,0.82,15.11
			c-1.484,0.58-3.137,0.919-4.875,1.053C52.676,160.902,52.511,159.113,52.771,157.038z M90.776,160.104
			c-0.701-1.062-2.081-1.574-3.359-1.382c-1.372-2.982-2.577-5.94-1.531-9.333c0.48-1.558,1.553-2.785,2.85-3.738
			c0.135,4.776,1.419,9.734,3.374,14.099C91.665,159.868,91.207,159.96,90.776,160.104z M94.174,159.295
			c-0.777-5.142-1.133-10.293-1.761-15.433c1.719-0.479,3.574-0.441,5.212,0.186c-0.263,4.892,0.258,10.063,0.643,14.848
			C96.883,158.952,95.509,159.069,94.174,159.295z M101.732,158.89c-0.423-0.018-0.846,0.008-1.27,0.002
			c0.297-3.698,0.668-7.63,0.719-11.492c1.339,2.945,0.745,6.781,0.315,9.78C101.403,157.826,101.529,158.382,101.732,158.89z
			 M138.257,168.158c-0.105,4.199-0.16,8.417-0.47,12.61c-0.673,0.426-1.353,0.844-2.089,1.155
			c-0.012-0.197-0.079-0.396-0.262-0.568c-3.315-3.14-5.446-7.719-4.365-12.725c0.377-1.744,1.187-3.31,2.283-4.649
			c0.226,4.883,0.374,9.74,1.399,14.595c0.359,1.708,2.837,0.953,2.572-0.71c-0.847-5.342-1.175-10.959-0.941-16.435
			c0.707-0.354,1.42-0.534,2.136-0.619C138.169,163.3,138.31,166.075,138.257,168.158z M143.729,172.61
			c-0.662,2.552-1.939,4.601-3.557,6.235c0.59-3.077,0.906-6.203,1.27-9.319c0.316-2.712,1.088-5.774,1.303-8.679
			c0.745-0.001,1.484-0.056,2.215-0.261C145.033,164.646,144.751,168.676,143.729,172.61z M145.244,125.586
			c-2.158,0.636-2.737,2.661-2.235,4.336c-0.97,0.549-1.666,1.474-1.518,2.771c0.821,7.169,2.404,14.616,3.128,22.03
			c-3.355-1.509-8.31-0.266-11.282,1.119c-4.09,1.906-6.709,6.245-7.931,10.41c-1.168,3.984-0.619,8.214,1.104,11.93
			c1.335,2.879,3.468,4.318,5.941,4.694c-2.246,0.391-4.608,0.353-6.94-0.266c-8.58-2.271-12.689-11.511-12.688-19.564
			c0-1.361-1.008-2.992-2.453-3.222c-1.044-0.166-2.154-0.322-3.289-0.468c0.09-0.189,0.208-0.335,0.27-0.562
			c1.58-5.877,1.194-12.819-3.039-17.505c-3.316-3.671-8.749-4.399-13.33-3.263c-10.898,2.704-14.139,16.195-6.729,24.014
			c-1.824,3.341-3.648,6.682-5.472,10.022c-11.854,1.173-19.663-0.392-23.463-4.67c6.58,0.575,12.831-5.241,14.41-11.556
			c1.023-4.089-0.17-8.148-2.745-11.362c-2.41-3.008-9.029-6.216-12.72-3.996c0.343-4.273,0.435-8.559,0.442-12.848
			c6.959,3.25,14.835-0.056,18.444-8.077c5.046-11.214-1.658-22.301-13.564-24.101c-1.503-0.228-2.946,0.128-3.767,1.532
			c-0.511,0.875-0.637,1.592-0.336,2.57c0.136,0.442,0.392,0.887,0.711,1.28c-1.346,2.473-0.227,7.48-0.088,9.844
			c0.221,3.772,0.271,7.694,2.187,10.983c0.404,0.692,1.479,0.228,1.28-0.539c-0.78-3.014-0.15-7.328-0.164-10.444
			c-0.009-1.964,0.695-5.718,0.194-8.356c2.694,0.725,4.837,2.005,6.341,3.724c-0.808-0.428-1.862-0.152-2.282,0.921
			c-0.776,1.985-0.325,4.312-0.321,6.42c0.004,2.527-0.151,5.087-0.734,7.55c-0.197,0.83,0.247,1.396,0.832,1.61
			c-2.513,1.544-5.655,1.577-8.709-0.192c0.116-11.482-1.901-28.781,1.858-39.725c4.231-0.457,8.282-1.445,11.581-2.809
			c1.841-0.761,1.191-3.417-0.833-3.023c-5.396,1.049-12.234,1.946-18.233,0.962c4.33-5.543,6.552-12.03,6.994-19.101
			c0.239-3.816-0.483-11.361-4.003-14.414c3.187-1.408,6.346-2.438,8.991-3.07c13.655-3.261,33.784,0.068,41.716,12.537
			c3.788,5.956,3.467,16.115-4.216,18.56c-7.853,2.499-11.584-6.639-12.6-12.51c-0.615-3.554-6.351-2.682-6.224,0.842
			c0.176,4.891,1.744,9.358,4.595,12.775c-10.076,2.05-14.824,13.669-10.547,23.493c4.043,9.286,14.25,12.872,22.348,8.636
			c1.179,6.283,3.959,11.918,9.239,15.767c-2.79,6.094-3.674,13.914,0.979,19.144c4.206,4.729,11.706,4.809,17.337,3.283
			c5.785-1.569,11.853-5.474,14.021-11.302c1.038-2.789,0.981-5.899-0.104-8.664c-0.719-1.824-2.052-4.094-3.715-5.905
			c2.499-2.148,4.813-4.596,7.258-6.709C153.143,100.762,159.842,121.288,145.244,125.586z M60.574,159.949
			c-0.445,0.36-0.911,0.695-1.421,0.974c-0.157-1.885-0.315-3.777-0.373-5.656c-0.086-2.778,0.469-5.375,0.979-8.039
			c0.466,0.189,0.91,0.448,1.344,0.741c0,1.123,0.082,2.257,0.074,3.362c-0.018,2.572-0.2,5.123-0.864,7.615
			C60.196,159.386,60.344,159.704,60.574,159.949z M66.83,107.209c1.537,2.437,1.945,5.585,0.868,9.316
			c-0.485,1.682-1.213,3.079-2.112,4.186c0.566-1.768,0.939-3.551,1.169-5.41C67.062,112.829,67.656,109.613,66.83,107.209z
			 M91.094,79.674c-2.5,1.808-2.68,5.265-2.952,8.107c-0.412,4.3,0.198,8.687,1.286,12.852c-0.98,0.147-2.004,0.169-3.136-0.128
			c-0.689-0.182-1.331-0.51-1.949-0.884c0.443-0.059,0.864-0.262,0.986-0.761c0.926-3.796,1.262-7.646,1.521-11.539
			c0.211-3.187,0.823-7.047-0.046-10.203c0.365-0.169,0.724-0.354,1.089-0.514c1.529,1.027,3.246,1.865,5.203,2.412
			c1.509,0.422,3.05,0.508,4.569,0.393c-1.269,5.498-2.272,11.876-2.228,18.13c-1.287,1.039-2.599,1.972-4.021,2.57
			c-0.262-3.354-0.251-6.75-0.031-10.101c0.209-3.178,1.378-6.067,1.742-9.169C93.241,79.857,91.879,79.107,91.094,79.674z
			 M83.756,86.012c-0.027,4.181-0.237,8.384-0.753,12.534c-0.003,0.023,0.019,0.033,0.018,0.056
			c-1.542-1.351-2.788-3.127-3.526-4.879c-1.347-3.203-1.649-7.094-0.162-10.299c0.951-2.049,2.577-3.487,4.427-4.657
			C83.476,81.142,83.771,83.715,83.756,86.012z"/>
		<path d="M69.188,53.017c-0.117-5.137-8.265-5.088-7.942,0c0.111,1.749-0.654,3.318-0.596,5.058
			c0.032,0.965,0.45,1.725,1.048,2.276c1.335,3.815,6.779,3.514,7.338-1.011C69.292,57.272,69.235,55.101,69.188,53.017z"/>
	</g>
</g>
<g>
</g>
<g>
</g>
<g>
</g>
<g>
</g>
<g>
</g>
<g>
</g>
<g>
</g>
<g>
</g>
<g>
</g>
<g>
</g>
<g>
</g>
<g>
</g>
<g>
</g>
<g>
</g>
<g>
</g>
</svg>
