<?xml version='1.0' encoding='iso-8859-1'?>
<!DOCTYPE svg PUBLIC '-//W3C//DTD SVG 1.1//EN' 'http://www.w3.org/Graphics/SVG/1.1/DTD/svg11.dtd'>
<svg version="1.1" xmlns="http://www.w3.org/2000/svg" viewBox="0 0 428.08 428.08" xmlns:xlink="http://www.w3.org/1999/xlink" enable-background="new 0 0 428.08 428.08">
  <g>
    <path d="m254.272,358.074c-0.281,4.362-0.689,7.942-0.71,11.524-0.085,14.372-0.022,28.745-0.068,43.118-0.037,11.487-7.075,17.17-18.331,14.854-1.077-0.221-2.155-0.536-3.167-0.963-22.367-9.454-44.838-18.486-65.209-32.226-22.269-15.02-44.796-29.887-68.428-42.548-10.553-5.654-13.128-11.564-14.12-22.61-4.489-49.989-4.438-100.052-3.812-150.112 0.322-25.737 2.916-51.438 4.034-77.175 0.575-13.243 0.12-26.53 0.211-39.796 0.113-16.583 0.098-33.171 0.555-49.745 0.24-8.706 3.493-12.314 12.166-12.377 17.94-0.13 35.887,0.5 53.827,0.946 7.725,0.193 15.439,0.945 23.162,1.034 49.711,0.573 99.424,1.023 149.136,1.542 4.419,0.046 8.861,0.042 13.249,0.487 9.215,0.934 11.295,3.285 11.181,12.683-0.448,37.19-1.141,74.376-1.402,111.567-0.096,13.603 1.247,27.22 1.062,40.819-0.274,20.229-1.367,40.447-2.008,60.673-0.163,5.152 0.274,10.324 0.081,15.475-0.993,26.476-2.094,52.947-3.175,79.42-0.268,6.568-1.19,12.982 1.737,19.503 2.355,5.245-0.904,10.322-6.878,11.338-5.727,0.974-11.642,0.969-17.481,1.129-11.364,0.312-22.733,0.447-34.101,0.64-6.63,0.112-13.261,0.158-19.89,0.303-3.58,0.076-7.162,0.3-11.621,0.497zm-155.87-267.77l-.215-.192c-6.783,18.241-4.52,36.979-4.637,57.541 9.895-9.617 16.718-19.015 26.069-25.627 0.51,0.514 1.019,1.029 1.529,1.543-8.936,9.627-17.872,19.254-27.3,29.411 0,2.843 0,6.718 0,11.681 7.54-4.907 11.239-12.96 19.197-15.568-4.664,6.282-9.573,12.301-15.359,17.305-4.765,4.119-5.894,8.724-5.755,14.589 0.653,27.615 0.663,55.249 1.655,82.849 0.793,22.051 2.89,44.053 3.915,66.1 0.275,5.907 2.515,9.064 7.465,12.115 26.024,16.044 51.704,32.643 77.64,48.831 17.823,11.125 37.484,18.227 58.654,26.887 0-4.672 0.091-7.764-0.021-10.849-0.186-5.146-0.854-10.298-0.7-15.429 0.508-16.921 1.839-33.833 1.864-50.749 0.065-44.612-0.192-89.228-0.702-133.838-0.401-34.988-1.532-69.968-1.94-104.956-0.072-6.196-2.519-9.288-7.783-11.692-10.72-4.896-21.376-9.973-31.807-15.453-30.976-16.272-62.124-32.268-90.537-52.945-3.984-2.899-8.345-5.281-13.376-8.432-1.715,18.28-3.591,34.742 0.453,51.628 1.651-0.562 2.01-1.643 2.663-2.5 0.576-0.755 1.481-1.26 2.241-1.876-7.274,9.643-9.547,19.074-3.213,29.626zm137.323-26.202c-7.928,2.797-14.859,5.242-22.993,8.112 9.952,4.634 19.02,8.578 27.795,13.094 3.044,1.566 6.1,4.096 7.859,6.974 4.237,6.934 4.161,7.638 11.594,4.284 7.948-3.586 15.95-1.727 23.914-1.56 2.306,0.048 4.563,2.427 6.842,3.737-0.16,0.894-0.32,1.788-0.481,2.681-14.014-2.359-27.372-0.058-40.562,4.473 0,3.906 0,8.139 0,13.559 5.915-3.261 10.905-6.012 17.012-9.379 4.441,9.512 11.192,6.493 18.846,5.329 6.644-1.01 13.949,2.076 20.895,3.648 0.778,0.176 1.117,2.287 2.601,5.605-6.489-1.09-11.305-1.969-16.145-2.681-2.444-0.36-5.275-1.279-7.342-0.46-8.324,3.299-15.703,2.958-21.184-4.436-5.286,3.124-9.66,5.708-13.293,7.854 0,9.141-0.337,17.608 0.095,26.036 0.434,8.478 4.301,10.148 11.424,5.387 2.44-1.63 4.555-3.76 7.038-5.311 3.241-2.024 6.836-1.936 8.541,1.713 3.653,7.82 9.218,7.053 15.632,4.46 2.036-0.823 4.204-1.502 6.371-1.781 5.779-0.743 8.361,1.925 8.486,8.533-4.2,0-8.708-0.979-12.559,0.196-9.273,2.828-17.392,2.601-23.186-4.746-7.356,2.84-14.034,5.419-21.29,8.221 0.432,8.017 0.902,16.723 1.425,26.425 6.296-2.253 11.667-4.453 17.204-6.088 7.496-2.214 9.95,6.718 15.644,7.933 13.116-6.49 13.116-6.49 17.51-1.303-12.498,11.37-17.354,11.341-31.803-0.504-6.227,2.423-12.682,4.936-19.653,7.649-0.575,9.272-2.395,18.553 3.262,26.615 6.951-2.922 12.678-7.302 18.358-7.242 8.021,0.084 16.013,3.43 23.989,5.491 0.34,0.088 0.394,1.283 0.826,2.853-5.06,3.628-11.835,4.543-16.253,1.536-7.608-5.178-12.867-2.336-18.972,1.65-2.977,1.944-6.438,3.148-10.1,4.887 0.774,36.676 1.549,73.41 2.322,110.066 25.153-1.657 49.493-3.261 72.707-4.791 7.292-109.294 6.628-218.459 7.25-329.035-78.404,1.184-155.453-5.406-232.747-4.305 29.307,20.478 59.897,38.048 91.248,54.32 1.93,1.001 4.443,2.62 6.113,2.103 11.793-3.649 25.439,1.439 35.704-8.715 5.574,5.542 11.5,8.752 18.407,6.263 7.684-2.769 14.837-5.989 22.483,0.332 1.469,1.215 4.971-0.04 7.536-0.136 4.029-0.152 7.237,0.836 7.884,5.884-9.506,2.872-18.687,5.117-25.761-3.842-19.53,5.548-19.53,5.548-30.493-1.588z"/>
    <path d="m165.87,193.024c1.191-1.583 2.431-3.997 4.339-5.625 6.531-5.57 14.037-6.121 20.207-1.859 6.811,4.705 9.05,11.896 5.494,20.405-2.1,5.024-4.874,9.924-8.167,14.255-5.315,6.992-11.295,13.479-17.019,20.158-3.229,3.768-6.765,5.076-11.577,2.363-17.65-9.953-29.339-24.118-32.143-44.658-0.925-6.774-0.749-13.493 5.993-17.585 6.76-4.101 13.658-2.489 19.784,1.3 4.283,2.65 7.769,6.588 13.089,11.246z"/>
    <path d="m161.715,281.919c7.279-4.086 14.268-1.413 20.88,1.533 2.599,1.159 4.258,4.428 6.344,6.737-2.381,1.81-4.761,3.621-9.054,6.885-0.527,2.966-1.412,8.301-2.431,13.611-2.007,10.466-5.983,19.585-16.177,24.833-14.653,7.545-28.51,0.575-29.065-15.819-0.369-10.883 1.702-21.852 2.764-32.774 0.174-1.796 0.777-3.549 1.094-4.94-0.407-1.107-0.511-1.884-0.922-2.427-1.858-2.451-5.692-5.166-5.341-7.18 0.839-4.817 5.792-3.184 9.218-3.213 2.899-0.025 5.816,0.672 8.705,1.166 6.927,1.185 12.325,4.251 14.003,11.695-5.585-0.026-11.153-0.026-17.742-0.026-0.377,12.407-1.039,23.364-0.873,34.308 0.062,4.096 0.326,9.509 5.814,10.666 5.283,1.113 9.073-2.326 12.098-6.193 1.318-1.684 2.352-3.84 2.777-5.932 1.59-7.825 2.875-15.713 4.222-23.28-3.574-2.198-6.444-3.314-8.37-5.331-1.896-1.985-1.097-4.033 2.056-4.319z"/>
    <path d="m169.757,137.849c1.97,3.589 8.714,4.253 7.758,10.449-8.829,3.65-23.51-1.88-35.791-13.545 4.721-7.541 11.274-1.311 17.913-2.398 0.673-9.793 1.367-19.881 2.095-30.476-2.936-2.11-6.057-4.353-9.783-7.031 6.09-6.539 12.178-2.485 17.511-1.058 6.74,1.804 14.491,3.275 16.315,12.109-6.208,5.616-10.329-2.969-16.017-1.282-0.001,10.935-0.001,21.896-0.001,33.232z"/>
    <path d="m118.362,238.522c-6.613,7.053-13.227,14.105-19.84,21.158-0.606-0.564-1.211-1.128-1.817-1.692 4.444-9.052 12.363-14.967 19.748-21.364 0.637,0.633 1.273,1.265 1.909,1.898z"/>
    <path d="m123.163,83.758c-7.5,8.118-15,16.236-22.5,24.354-0.553-0.513-1.106-1.025-1.659-1.538 6.218-9.308 14.579-16.628 24.159-22.816z"/>
    <path d="m117.193,200.105c-6.059,6.703-12.118,13.406-19.113,21.146 1.809-7.907 7.508-14.565 19.113-21.146z"/>
    <path d="m116.011,109.741c-5.356,6.42-10.713,12.839-16.467,19.736 1.655-7.953 5.011-12.404 16.467-19.736z"/>
    <path d="m111.311,169.985c-4.769,5.216-9.539,10.431-14.308,15.647-0.551-0.485-1.102-0.97-1.653-1.455 3.494-6.365 9.229-10.832 15.961-14.192z"/>
    <path d="m110.95,225.438c-2.653,3.069-5.306,6.138-7.959,9.208-0.457-0.374-0.914-0.749-1.371-1.123 2.469-3.195 4.938-6.39 7.406-9.585 0.641,0.5 1.283,1 1.924,1.5z"/>
    <path d="m111.443,185.43c-2.955,3.49-5.909,6.981-8.864,10.472-0.048-5.818 3.685-8.878 8.864-10.472z"/>
    <path d="m107.212,79.178c2.58-3.684 5.16-7.369 7.739-11.053 0.666,0.583 1.332,1.167 1.997,1.75-3.323,3.032-6.646,6.064-9.968,9.096l.232,.207z"/>
    <path d="m98.402,90.304c0.636-5.53 4.092-8.827 8.81-11.125 0-0.001-0.231-0.206-0.231-0.206-2.932,3.712-5.863,7.426-8.794,11.139l.215,.192z"/>
    <path d="m289.422,277.673c0.859-1.061 1.527-2.508 2.655-3.156 2.617-1.503 5.796-4.11 8.131-3.575 4.495,1.029 5.494,5.503 4.793,9.79-1.106,6.755-4.212,12.522-9.969,16.424-7.783,5.276-22.808-1.041-24.719-10.238-1.394-6.711 4.748-13.312 11.673-12.2 2.449,0.394 4.731,1.845 7.436,2.955z"/>
  </g>
</svg>
