<?xml version="1.0" encoding="iso-8859-1"?>
<!-- Generator: Adobe Illustrator 16.0.0, SVG Export Plug-In . SVG Version: 6.00 Build 0)  -->
<!DOCTYPE svg PUBLIC "-//W3C//DTD SVG 1.1//EN" "http://www.w3.org/Graphics/SVG/1.1/DTD/svg11.dtd">
<svg version="1.1" id="Capa_1" xmlns="http://www.w3.org/2000/svg" xmlns:xlink="http://www.w3.org/1999/xlink" x="0px" y="0px"
	 width="195.248px" height="195.248px" viewBox="0 0 195.248 195.248" style="enable-background:new 0 0 195.248 195.248;"
	 xml:space="preserve">
<g>
	<path d="M192.98,58.019c-0.343-0.085-0.621-0.073-0.924-0.097c-0.235-0.47-0.521-0.899-0.826-1.239
		c-1.025-1.142-3.155-1.876-4.453-2.724c-2.63-1.719-5.212-3.596-7.911-5.234c19.145-7.221-27.181-52.6-32.865-30.135
		c-0.953-1.251-2.735-2.137-4.047-2.919c-1.326-0.79-2.627-1.586-3.956-2.33c1.287-0.773,2.483-1.651,3.049-2.837
		c1.382-2.895-0.311-5.839-3.503-6.104c-2.917-0.243-5.628,2.785-7.606,4.604c-2.025,1.862-4.198,3.819-4.561,6.656
		c-0.265,2.078,2.296,3.777,4.146,3.158c1.371-0.459,2.56-1.446,3.729-2.399c1.869,1.381,3.657,2.998,5.314,4.589
		c0.569,0.548,1.014,1.21,1.545,1.771c-2.447,1.725-3.711,4.299-4.941,8.308c-2.633,0.199-4.916,0.949-6.765,2.087
		c0.12-1.607-0.681-3.279-2.848-4.084c-2.783-1.033-5.639-2.229-8.493-3.069c-0.987-0.291-2.167,0.011-2.878,0.761
		c-0.142,0.149-0.283,0.299-0.425,0.447c0.024-0.003,0.049-0.006,0.073-0.009c-0.338,0.285-0.447,0.824,0.05,1.162
		c-0.152-0.098-0.306-0.196-0.459-0.294c-0.265,0.971-0.016,2.191,0.762,2.879c2.317,2.054,5.352,4.387,8.21,5.626
		c0.847,0.367,1.61,0.427,2.326,0.366c-2.189,3.677-2.011,8.51,1.675,13.001c-0.844,0.156-1.576,0.702-2.045,1.428
		c-1.889,0.761-3.772,1.858-5.626,3.185c-0.09-0.217-0.137-0.432-0.289-0.651c-6.788-9.679-17.907-11.629-28.068-9.222
		c-0.104-0.119-0.124-0.273-0.27-0.37c-9.692-6.433-20.788-3.286-28.54,4.581c-4.054,4.115-6.73,9.404-8.705,14.764
		c-0.295,0.802-0.611,1.758-0.909,2.774c-8.972-0.626-16.594,1.598-22.983,5.709c-0.241,0.1-0.447,0.244-0.619,0.427
		c-12.8,8.601-20.471,24.958-23.543,41.741c-1.202,0.287-2.401,0.589-3.61,0.823c-2.098,0.407-1.183,3.503,0.873,3.169
		c0.699-0.114,1.431-0.245,2.165-0.38c-1.116,7.755-1.318,15.478-0.557,22.435c0.384,3.514,1.187,7.004,2.325,10.417
		c-0.42,0.804,0.007,1.831,0.756,2.119c11.401,30.071,49.537,52.795,75.042,26.159c20.234-4.814,37.787-21.96,41.328-44.367
		c33.688,5.112,37.109-37.606,12.453-53.106c-0.023-0.015-0.045-0.012-0.068-0.027c3.852-3.759,7.746-7.476,11.781-11.069
		c0.351-0.312,0.593-0.664,0.759-1.031c0.217,0.069,0.425,0.16,0.646,0.225c4.683,1.381,7.96,0.094,10.166-2.47
		c1.035,2.072,2.597,3.903,4.18,5.559c1.187,1.242,2.795,2.93,4.55,3.696c-0.169,0.19-0.333,0.384-0.505,0.572
		c-0.119,0.131-1.402,1.279-0.702,0.761c-4.101,3.035-0.431,9.853,4.096,7.006c2.005-1.261,3.64-3.037,5.237-4.759
		c1.812-1.954,5.284-4.638,4.979-7.549c-0.242-2.303-1.694-4.026-4.12-4.12c-2.183-0.084-3.58,1.311-4.805,2.871
		c-0.651-0.698-1.444-1.105-2.423-1.685c-2.753-1.632-5.547-4.082-7.151-6.875c-0.182-0.315-0.4-0.553-0.64-0.736
		c0.387-1.301,0.691-2.652,0.846-4.039c5.732-0.271,8.664-1.743,10.246-7.047c0.14,0.4,0.358,0.793,0.769,1.144
		c2.788,2.39,5.75,4.61,8.637,6.881c0.939,0.739,1.941,1.64,2.987,2.413c-1.014,0.779-1.907,1.676-2.303,2.851
		c-0.562,1.664,0.917,3.421,2.594,3.406c1.724-0.015,3.468-1.115,5.053-1.732c1.821-0.709,3.674-1.137,4.521-3.108
		C195.682,60.902,195.182,58.564,192.98,58.019z M84.218,46.715c-2.1,0.898-4.066,2.004-5.903,3.224
		c-0.019-0.688-0.399-1.367-1.166-1.536c-0.83-0.184-1.685-0.277-2.551-0.315C77.579,46.925,80.814,46.43,84.218,46.715z
		 M63.906,57.129c1.392-2.179,3.017-3.987,4.794-5.498c2.383,0.183,4.839,0.386,7.18,0.1c-1.394,1.118-2.707,2.292-3.818,3.563
		c-2.078,0.236-4.044,0.991-6.057,1.556c-0.727,0.203-1.473,0.332-2.213,0.485C63.834,57.269,63.863,57.196,63.906,57.129z
		 M61.624,61.238c1.49-0.143,2.974-0.343,4.453-0.618c0.907-0.168,1.843-0.337,2.773-0.531c-1.027,2.09-1.658,4.265-1.706,6.477
		c-0.461,0.072-0.909,0.182-1.28,0.281c-2.048,0.551-4.393,0.533-6.621,0.24C59.85,65.063,60.682,63.127,61.624,61.238z
		 M58.397,70.529c0.008-0.044,0.023-0.086,0.032-0.13c2.878,0.643,6.856,1.185,9.321,0.412c0.537,1.723,1.399,3.437,2.727,5.109
		c-4.612-0.253-8.924,0.033-12.956,0.743C58.069,74.774,57.986,72.726,58.397,70.529z M51.088,70.132
		c-0.113,0.673-0.196,1.349-0.248,2.02c-2.649,0.127-5.295,0.462-7.947,0.609c-0.221,0.012-0.441-0.015-0.662-0.005
		C45.012,71.608,47.951,70.7,51.088,70.132z M21.192,90.37c2.132,0.196,5.374-1.738,6.947-2.357c2.034-0.801,4.063-1.62,6.082-2.458
		c1.553-0.644,3.51-1.18,4.607-2.535c0.656-0.81,0.533-2.214-0.656-2.484c-3.059-0.695-6.799,1.987-9.401,3.291
		c-1.452,0.727-2.888,1.485-4.332,2.228c3.187-3.835,6.896-7.165,11.099-9.836c5.178,0.636,10.582,0.819,15.498-0.364
		c0.161,0.78,0.385,1.525,0.757,2.175c-9.774,2.965-17.367,8.814-22.765,16.262c-0.012,0.004-0.019-0.006-0.031-0.001
		c-4.405,1.441-8.542,3.385-12.83,5.022C17.586,96.16,19.293,93.186,21.192,90.37z M14.507,103.353
		c3.731-0.837,7.57-1.917,11.067-3.485c-1.208,2.275-2.299,4.622-3.151,7.081c-0.245-0.002-0.484-0.044-0.741,0.073
		c-3.324,1.522-6.286,3.656-9.686,5.075c-0.045,0.02-0.094,0.028-0.139,0.047C12.543,109.145,13.443,106.209,14.507,103.353z
		 M10.051,131.632c-0.22-5.069,0.101-10.209,0.944-15.252c3.614-1.045,7.143-2.509,10.013-4.614
		c-0.992,4.123-1.613,8.375-1.619,12.721c-1.777,1.35-3.341,2.896-4.986,4.44c-1.342,1.26-2.772,2.4-4.259,3.461
		C10.127,132.14,10.062,131.879,10.051,131.632z M10.604,136.167c3.223-1.838,6.401-4.111,8.984-6.816
		c0.276,3.273,0.828,6.556,1.68,9.801c-0.272-0.05-0.56-0.059-0.848,0.072c-2.915,1.322-5.389,3.478-7.81,5.712
		C11.65,141.981,11.038,139.055,10.604,136.167z M18.218,157.59c-1.707-2.998-3.094-6.112-4.313-9.245
		c2.801-2.189,5.517-4.489,7.971-6.894c1.093,3.562,2.524,7.072,4.344,10.459c-0.55-0.539-1.416-0.753-1.995-0.06
		C22.273,154.191,20.713,156.175,18.218,157.59z M23.857,166.055c-1.458-1.873-2.792-3.855-4.06-5.879
		c3.019-1.467,5.939-3.726,6.879-6.897c0.063-0.215-0.011-0.408-0.05-0.607c1.444,2.594,3.026,5.142,4.914,7.561
		c-2.006,1.553-3.92,3.303-6.025,4.688C25.024,165.243,24.454,165.641,23.857,166.055z M41.73,181.31
		c-2.32-1.135-4.569-2.552-6.739-4.169c2.305-1.255,4.305-3.022,5.528-5.387c0.789-1.524-1.211-3.261-2.457-1.896
		c-1.938,2.125-3.722,3.859-5.856,5.059c-2.27-1.951-4.376-4.194-6.388-6.549c0.439-0.257,0.878-0.518,1.279-0.744
		c2.125-1.202,4.776-2.613,6.888-4.358c1.529,1.711,3.139,3.383,4.915,4.96c3.068,2.725,6.291,4.906,9.599,6.675
		c-0.461,0.49-0.903,0.958-1.294,1.312c-1.765,1.594-3.513,3.21-5.236,4.85C41.915,181.115,41.819,181.216,41.73,181.31z
		 M44.974,182.697c1.695-1.259,3.414-2.482,5.103-3.747c0.774-0.58,1.844-1.234,2.78-1.983c5.397,2.204,10.97,3.319,16.518,3.446
		C61.229,185.429,52.818,185.612,44.974,182.697z M122.6,129.39c-0.863-0.089-1.503,0.294-1.942,0.861
		c-1.773-0.666-3.859-0.143-4.213,2.239c-4.865,32.641-37.417,50.402-67.064,34.526c-15.99-8.562-24.265-28.061-23.945-45.404
		c0.46-24.954,25.113-38.601,47.106-39.255c1.618-0.048,2.564-0.979,2.902-2.111c0.647-0.108,1.183-0.954,0.774-1.58
		c-6.481-9.942-2.78-19.475,6.96-25.07c10.564-6.069,21.66-3.621,30.19,4.236c0.249,0.23,0.529,0.365,0.809,0.496
		c-3.823,3.506-7.43,7.656-10.561,11.496c-1.925,0.125-3.845,0.528-5.723,1.31c-0.104,0.043-0.163,0.121-0.261,0.17
		c-0.617-0.045-1.246,0.12-1.759,0.623c-4.169,4.093-6.058,9.382-6.199,14.863c-11.871,14.581-23.713,29.933-38.619,41.167
		c-0.609-0.604-1.216-1.21-1.821-1.816c-2.709-2.71-6.35-0.741-7.245,2.05c-1.708,0.036-3.139,2.364-1.724,4.139
		c7.042,8.832,16.868,14.725,23.915,23.362c1.16,1.423,2.68,1.544,3.983,0.969c0.925,1.044,1.998,1.999,3.597,2.729
		c5.131,2.344,8.722-4.077,4.347-7.437c-1.022-0.785-1.963-1.656-2.951-2.477c-0.393-0.46-0.779-0.914-1.179-1.354
		c11.366-11.188,22.107-22.916,32.871-34.61c5.027,2.627,10.907,3.235,17.008,0.585c12.293-5.341,12.889-16.835,7.814-26.787
		c0.32-0.322,0.651-0.634,0.971-0.956c0.262,0.572,0.627,1.116,1.241,1.555C149.979,100.823,150.428,132.255,122.6,129.39z
		 M103.572,102.667c-1.482-1.417-2.789-2.955-3.806-4.443c-1.819-2.664-2.973-5.51-3.509-8.398
		c3.132-3.719,6.298-7.408,9.508-11.058c4.604,0.846,9.321,3.76,12.94,7.442C113.499,91.491,108.446,96.979,103.572,102.667z
		 M123.713,93.4c2.425,5.609,1.469,11.27-6.044,13.916c-2.364,0.833-4.729,0.634-6.979-0.125
		C114.985,102.552,119.323,97.953,123.713,93.4z M98.522,108.707c-10.26,12.347-20.062,25.055-30.02,36.811
		c-2.216-2.025-4.378-4.107-6.497-6.235c-2.458-2.791-5.071-5.455-7.713-8.098c14.497-8.714,25.965-22.297,36.75-35.18
		C92.513,100.764,95.133,105.221,98.522,108.707z M124.854,80.209c-3.422-3.916-7.676-7.139-12.27-8.919
		c0.86-0.918,1.666-1.882,2.541-2.787c4.074-4.213,8.979-7.135,13.507-10.533c3.953,3.17,8.104,6.225,12.569,8.592
		C135.503,70.727,130.07,75.309,124.854,80.209z M169.879,42.016c-1.52-0.121-3.433,1.236-3.664,2.79
		c-0.914,6.146-1.439,5.594-7.46,5.527c-2.051-0.023-3.874,1.758-3.827,3.827c0.058,2.498,0.791,8.384-2.818,8.772
		c-3.173,0.341-6.585-1.755-9.237-3.19c-3.337-1.806-6.47-3.943-9.601-6.081c0.21-0.53,0.249-1.06,0.061-1.569
		c0.988-0.907,1.426-2.296,0.432-3.751c-3.803-5.566-4.084-10.515,4.134-10.017c1.596,0.097,3.094-1.179,3.501-2.665
		c1.74-6.36,1.85-7.661,8.585-8.603c1.599-0.224,2.607-2.034,2.653-3.486c0.195-1.013,0.392-2.027,0.586-3.04
		c6.481,1.022,12.256,5.723,16.727,10.209c2.268,2.276,4.384,4.995,5.619,7.987C177.315,42.956,172.885,42.255,169.879,42.016z"/>
</g>
<g>
</g>
<g>
</g>
<g>
</g>
<g>
</g>
<g>
</g>
<g>
</g>
<g>
</g>
<g>
</g>
<g>
</g>
<g>
</g>
<g>
</g>
<g>
</g>
<g>
</g>
<g>
</g>
<g>
</g>
</svg>
