<?xml version='1.0' encoding='iso-8859-1'?>
<!DOCTYPE svg PUBLIC '-//W3C//DTD SVG 1.1//EN' 'http://www.w3.org/Graphics/SVG/1.1/DTD/svg11.dtd'>
<svg version="1.1" xmlns="http://www.w3.org/2000/svg" viewBox="0 0 395.416 395.416" xmlns:xlink="http://www.w3.org/1999/xlink" enable-background="new 0 0 395.416 395.416">
  <g>
    <path d="m245.566,58.622c10.091-17.871 26.449-25.489 46.219-27.495 11.061-1.122 19.968,2.916 26.954,11.034 13.316,15.473 18.604,33.646 18.578,54.004-0.043,33.366-15.69,59.36-38.343,83.848 12.586,6.537 16.14,19.472 22.371,30.247 6.133,1.156 12.091,2.278 18.637,3.512 0.301-4.628 0.462-9.241 0.925-13.823 1.45-14.36 11.346-21.715 25.635-19.191 12.489,2.206 21.037,8.299 23.948,21.597 2.716,12.403 4.53,24.712 4.906,37.48 0.814,27.641-22.957,60.518-50.591,71.124-3.404,1.307-7.622,0.491-12.383,0.7-3.365,4.279-7.245,9.487-11.411,14.454-10.192,12.153-23.255,21.008-38.907,21.097-9.919,0.056-16.57,3.743-24.126,8.314-14.894,9.01-31.823,9.141-48.433,9.034-31.681-0.204-56.19-14.625-74.06-40.269-4.447-6.382-6.925-14.137-10.593-21.859-0.699-0.129-2.084-0.546-3.487-0.62-27.732-1.466-26.968-0.356-40.045,19.209-4.537,6.788-10.129,13.487-16.7,18.18-16.694,11.921-33.828,2.948-35.155-17.539-0.604-9.325 1.219-18.071 5.934-26.044 5.886-9.953 12.255-19.62 18.25-29.51 4.671-7.707 9.587-15.327 13.489-23.421 4.387-9.101 2.697-17.353-5.228-24.391-8.713-7.738-17.378-15.202-29.241-17.764-4.208-0.909-8.23-2.704-12.31-4.168-14.176-5.087-20.281-13.46-20.397-28.499-0.123-16.012 6.461-29.619 16.57-41.414 18.59-21.69 42.32-32.176 70.992-34.542 15.281-1.261 26.7,3.166 37.583,12.33 0.756,0.637 1.933,0.775 2.738,1.079-0.526-8.977-2.383-18.006-1.304-26.67 2.823-22.682 18.373-35.476 38.179-43.179 21.638-8.416 42.865-4.848 62.47,6.647 6.638,3.893 11.726,10.431 18.336,16.508zm-175.901,148.65c6.023-9.608 9.964-19.765 18.655-26.663-4.909,9.892-9.818,19.783-14.73,29.679 2.813,3.299 5.055,5.928 7.608,8.921 5.289-7.567 8.449-15.814 15.435-21.246-2.698,6.751-6.406,12.875-9.573,19.267-1.546,3.12-3.207,6.852-2.878,10.112 1.136,11.259-3.084,20.595-9.307,29.261-5.054,7.04-10.878,13.528-15.942,20.561-5.894,8.185-12.134,16.291-16.673,25.22-2.799,5.507-3.923,12.541-3.643,18.794 0.555,12.386 9.368,16.961 19.34,9.865 6.283-4.471 11.079-11.121 16.237-17.058 5.183-5.965 9.424-12.868 15.16-18.194 3.864-3.588 5.287-6.982 5.731-11.974 0.488-5.48-0.606-11.549 4.158-16.228-0.38,7.093-0.761,14.186-1.18,22.008 3.005-0.366 5.295-0.644 7.454-0.907 1.233-6.205 2.339-11.768 3.445-17.331 0.456,0.033 0.911,0.066 1.367,0.098 0,5.474 0,10.947 0,18.162 3.949-1.509 6.657-3.35 9.377-3.37 3.104-0.023 6.175,1.962 9.347,2.334 2.015,0.236 4.283-0.637 6.278-1.42 29.859-11.729 47.376-44.13 45.191-66.783-0.396-4.101-0.056-8.273-0.056-14.782 3.302,3.539 5.768,5.183 6.81,7.474 4.242,9.332 6.853,19.136 4.3,29.407-6.112,24.593-20.683,42.554-43.305,53.948-3.812,1.92-7.759,3.572-13.043,5.988 4.423,6.924 8.552,13.387 13.42,21.009 5.18-10.04 9.609-18.622 14.037-27.205 0.719,0.363 1.439,0.725 2.159,1.088-4.222,9.358-8.445,18.716-12.893,28.575 2.652,2.294 4.918,4.255 7.128,6.167 5.265-10.23 10.134-19.693 15.004-29.156 0.663,0.319 1.326,0.639 1.989,0.959-4.087,10.579-8.175,21.158-12.419,32.144 3.304,2.331 5.851,4.128 8.434,5.95 2.863-8.17 5.506-15.712 8.149-23.255 0.057,6.859-1.753,13.087-2.902,19.435-1.167,6.444-0.881,6.496 7.568,7.943 1.442-3.556 2.904-7.159 4.365-10.762 0.454,0.099 0.909,0.199 1.363,0.298-0.448,4.367-0.897,8.733-1.424,13.865 3.713,0.408 6.79,0.746 9.627,1.058 1.866-4.245 3.405-7.744 4.943-11.243 0.463,0.124 0.927,0.247 1.39,0.371-0.239,3.707-0.478,7.415-0.75,11.628 8.469-0.267 17.297,4.162 22.808-7.274-0.066,6.295 2.849,7.081 7.058,6.169 8.941-1.938 17.017-5.399 24.45-11.005 16.632-12.543 25.525-48.222 14.141-71.94-4.83-10.063-14.154-11.919-21.902-3.778-4.341,4.561-7.568,10.507-10.168,16.333-5.695,12.763-13.287,24.037-23.717,33.301-6.681,5.935-11.336,7.049-19.132,5.088 3.226-2.269 6.169-4.268 9.037-6.368 9.553-6.995 16.906-15.673 20.918-27.003 1.685-4.76 3.152-9.767 5.81-13.972 3.61-5.709 7.5-11.694 12.634-15.892 10.717-8.764 23.85-6.816 32.636,3.755 2.024,2.435 3.751,5.118 6.525,8.941 2.018-6.003 3.289-10.806 5.225-15.325 3.815-8.907 7.026-18.312 12.373-26.239 3.522-5.22 4.438-9.703 2.582-14.857-3.27-9.081-6.454-18.438-16.346-23.522-4.435,3.763-9.08,7.254-13.154,11.317-2.776,2.769-4.927,6.227-7.058,9.569-5.913,9.27-10.622,9.919-18.981,2.353-1.608-1.455-3.075-3.066-4.672-4.534-16.256-14.943-32.873-28.81-54.092-37.139-19.615-7.7-36.515-20.47-49.406-37.755-1.249-1.674-2.822-4.119-4.472-4.318-11.285-1.361-17.397-9.961-24.143-17.243-7.275-7.854-15.827-11-26.145-10.266-31.434,2.237-55.65,16.447-71.903,43.66-5.017,8.4-6.149,17.653-5.161,27.227 0.691,6.696 3.954,11.709 10.51,13.792 7.822,2.485 15.784,4.531 24.346,6.955 2.389-5.994 4.37-11.352 6.652-16.578 2.12-4.854 4.562-9.569 6.862-14.345 0.665,0.319 1.33,0.638 1.996,0.957-3.718,10.02-7.435,20.039-11.4,30.726 3.249,1.684 5.859,3.037 8.739,4.531 3.167-6.292 5.755-11.841 8.708-17.189 2.987-5.409 6.334-10.619 9.523-15.916 0.61,0.338 1.22,0.675 1.83,1.013-5.32,11.677-10.641,23.355-16.121,35.385 2.757,2.585 5.02,4.709 7.859,7.374zm188.107-9.567c9.259-7.653 17.741-14.343 25.869-21.44 26.687-23.299 42.566-51.475 40.171-88.199-0.828-12.694-4.73-24.09-11.613-34.463-7.271-10.958-16.784-14.77-28.959-11.672-11.531,2.933-21.417,8.486-27.355,19.569-2.725,5.085-5.774,10.049-9.207,14.675-1.257,1.694-4.247,3.332-6.08,2.997-1.611-0.295-3.857-3.386-3.852-5.236 0.038-13.086-7.736-20.54-18.216-25.92-13.331-6.844-27.875-9.11-42.154-5.509-17.046,4.298-32.16,13.437-36.962,31.612-4.617,17.476 0.733,33.872 11.109,49.455 3.638-8.56 6.805-16.01 9.972-23.461-0.318,6.693-2.595,12.636-4.616,18.664-3.315,9.889-3.136,10.175 7.344,17.034 5.379-13.926 11.614-27.342 21.033-39.058-4.338,15.065-14.206,28.004-16.797,44.226 3.819,2.467 7.361,4.754 11.126,7.185 4.394-18.899 9.12-29.975 16.9-38.246-5.014,14.133-9.44,26.608-14.131,39.83 3.397,1.779 6.357,3.328 9.739,5.099 4.569-12.146 8.958-23.205 15.452-33.165 0.666,0.293 1.333,0.587 1.999,0.88-4.396,11.224-8.791,22.449-13.443,34.326 3.281,1.232 5.782,2.171 8.715,3.272 5.194-11.309 10.071-21.93 14.95-32.552 0.894,0.37 1.788,0.74 2.682,1.11-4.17,10.965-8.34,21.929-12.755,33.538 3.808,1.627 6.944,2.967 10.433,4.459 4.703-8.795 9.027-16.883 13.352-24.97 0.743,0.333 1.486,0.665 2.23,0.998-3.687,8.764-7.374,17.529-11.208,26.645 2.317,1.535 4.271,2.83 6.789,4.498 2.466-4.889 4.453-9.091 6.68-13.163 2.007-3.671 4.276-7.198 6.43-10.789 0.654,0.388 1.308,0.777 1.962,1.165-3.871,8.746-7.743,17.491-11.464,25.899 6.149,5.232 11.386,9.688 16.83,14.321 2.734-4.71 4.95-8.527 7.536-12.982 1.533,7.029-6.705,12.218-0.491,19.368zm22.05,137.826c12.997-1.571 22.776-7.024 29.509-16.137 9.42-12.749 18.136-26.139 25.842-39.984 4.303-7.731 6.75-16.771 8.583-25.525 1.987-9.491 0.249-18.796-7.364-25.897-7.571-7.062-13.722-7.131-20.321,0.771-4.579,5.483-8.368,11.788-11.603,18.184-3.246,6.418-4.263,14.164-8.246,19.961-5.859,8.526-6.941,17.045-6.323,27.049 0.872,14.115-2.979,27.694-10.077,41.578zm62.146-37.509c0.698,0.124 1.53,0.561 1.99,0.312 20.268-10.987 33.148-28.013 37.181-50.413 2.606-14.471 2.073-29.505-1.645-44.077-0.533-2.087-1.024-4.233-1.929-6.168-2.377-5.079-11.335-9.181-17.532-8.228-5.67,0.872-8.457,4.831-8.921,12.96-0.369,6.463-0.707,12.932-0.782,19.402-0.019,1.646 0.737,3.47 1.609,4.929 7.842,13.125 7.403,26.986 2.757,40.723-3.526,10.426-8.432,20.384-12.728,30.56z"/>
    <path d="m87.902,231.753c3.835-6.511 7.67-13.022 11.505-19.532 0.714,0.375 1.428,0.751 2.142,1.126-3.616,6.685-7.232,13.369-10.849,20.054-0.933-0.549-1.866-1.098-2.798-1.648z"/>
    <path d="m36.191,177.905c3.055-7.996 6.109-15.992 9.164-23.987 0.736,0.277 1.471,0.555 2.207,0.833-3.038,8.003-6.076,16.005-9.114,24.008-0.752-0.285-1.505-0.57-2.257-0.854z"/>
  </g>
</svg>
