<?xml version='1.0' encoding='iso-8859-1'?>
<!DOCTYPE svg PUBLIC '-//W3C//DTD SVG 1.1//EN' 'http://www.w3.org/Graphics/SVG/1.1/DTD/svg11.dtd'>
<svg version="1.1" xmlns="http://www.w3.org/2000/svg" viewBox="0 0 454.17 454.17" xmlns:xlink="http://www.w3.org/1999/xlink" enable-background="new 0 0 454.17 454.17">
  <g>
    <path d="m454.17,46.676c-2.075,9.812-3.735,19.735-6.333,29.406-2.979,11.088-6.093,22.251-14.716,30.764-4.347,4.291-9.259,7.095-15.279,4.958-6.041-2.144-11.979-5-11.891-13.862-5.161,3.511-9.645,6.561-14.044,9.553 9.012,19.873 11.004,40.253 9.424,61.74-3.185,43.316-19.79,81.788-40.302,119.019-14.859,26.969-30.257,53.641-45.32,80.499-2.606,4.648-4.735,9.563-7.086,14.355-4.405,8.979-9.098,10.883-19.118,9.274-16.605-2.666-33.424-4.131-49.915-7.33-14.875-2.886-29.573-6.945-44.094-11.332-22.756-6.875-45.414-14.123-67.877-21.895-10.499-3.633-20.489-8.765-30.622-13.41-5.123-2.348-6.144,2.891-8.686,3.95 3.24,10.077 6.585,19.742 9.313,29.577 0.567,2.045-0.454,5.343-1.934,7-5.936,6.646-12.299,12.914-18.583,19.245-4.986,5.024-10.094,9.927-15.132,14.899-1.479,1.459-2.838,3.047-4.379,4.434-1.257,1.132-3.373,3.183-3.938,2.849-1.527-0.904-3.388-2.834-3.433-4.406-0.466-16.086-0.565-32.182-0.865-48.273-0.035-1.898-0.663-3.784-1.016-5.676-1.434,0.379-2.849,0.969-4.305,1.099-5.518,0.496-11.05,1.166-16.576,1.164-7.07-0.003-14.167-0.342-21.195-1.079-2.246-0.236-5.158-1.734-6.151-3.541-0.623-1.134 1.351-4.311 2.864-5.901 10.977-11.541 22.081-22.963 33.262-34.306 3.55-3.601 8.317-3.843 12.591-2.207 6.37,2.437 12.502,5.568 18.539,8.772 2.846,1.511 4.71,1.55 6.042-1.516-19.141-13.236-35.439-29.295-45.605-50.697-6.715-14.138-9.955-29.122-10.304-44.906-0.453-20.455 2.291-40.195 11.337-58.643 13.826-28.192 36.522-45.113 67.363-50.583 31.866-5.651 62.544-1.145 91.94,12.319 0.283,0.13 0.677,0.016 0.432,0.016 6.099-8.907 11.577-17.823 17.954-26.04 16.351-21.069 35.632-38.606 62.031-45.996 10.158-2.843 20.75-5.225 31.228-5.621 27.556-1.042 52.459,6.196 71.937,27.168 1.173,1.263 2.506,2.379 4.221,3.993 2.978-3.422 5.915-6.799 8.911-10.242-4.904-3.255-10.072-6.897-12.168-13.678-1.87-6.052-0.173-11.094 3.501-15.438 8.15-9.637 18.721-13.537 31.307-12.095 13.133,1.504 26.268,3.036 39.434,4.193 4.354,0.383 5.53,3.439 7.235,6.343 0.001,0.695 0.001,1.39 0.001,2.084zm-312.274,195.761c1.253,1.158 2.811,2.12 3.706,3.509 3.921,6.087 7.646,12.301 11.449,18.465 5.097,8.259 10.065,16.648 20.095,19.938 0.781,0.256 1.547,0.56 3.122,1.134-8.169,3.19-12.808,1.52-21.358-6.424-18.403,16.657-36.815,33.322-55.864,50.564 10.219,4.397 19.418,8.356 28.956,12.46 2.763-10.802 3.676-21.202 8.416-30.392 0.64,0.14 1.281,0.28 1.921,0.421-1.698,10.623-3.397,21.245-5.139,32.138 4.673,1.314 8.972,2.523 12.837,3.61 2.243-13.76 4.378-26.85 6.512-39.94 0.792,0.091 1.583,0.183 2.375,0.274 1.676,13.807-3.497,27.345-2.915,41.117 4.677,1.591 9.125,3.104 12.99,4.419 2.08-12.845 4.113-25.402 6.146-37.958 0.477,0.062 0.955,0.125 1.433,0.187 3.154,13.4-2.791,26.535-1.774,39.808 6.94,2.1 13.619,4.309 20.402,6.133 13.887,3.734 27.647,8.615 41.796,10.533 18.042,2.446 36.214,3.85 53.765,8.97 3.217,0.938 4.085,0.277 5.357-2.433 3.294-7.018 6.786-13.959 10.551-20.736 16.873-30.367 34.337-60.415 50.698-91.054 19.508-36.533 31.991-75.181 31.146-117.225-0.412-20.447-5.991-39.128-20.052-54.496-11.276-12.325-23.756-23.263-40.561-27.247-12.823-3.04-25.972-4.118-39.012-1.612-11.224,2.157-22.404,4.527-32.6,10.394-26.788,15.416-45.096,38.583-60.27,64.727-1.903,3.279-4.845,3.894-8.117,1.714-2.402-1.6-4.848-3.297-7.518-4.308-25.362-9.611-51.518-13.437-78.421-9.094-33.929,5.476-56.18,24.939-66.672,57.675-4.085,12.747-6.076,25.799-4.853,40.761 4.798-15.041 7.581-29.244 15.776-41.337 0.26,1.129 0.182,2.142-0.087,3.102-4.508,16.093-8.88,32.227-13.636,48.247-2.19,7.376 0.353,13.685 2.952,21.565 4.547-15.852 8.561-30.388 16.672-43.307 0.455,1.177 0.27,2.124 0.008,3.049-4.124,14.572-8.141,29.176-12.449,43.693-1.672,5.633 0.304,9.766 3.93,13.844 5.747-13.59 11.351-26.84 16.954-40.09 0.648,0.235 1.295,0.47 1.943,0.705-0.319,1.773-0.397,3.632-0.995,5.305-4.054,11.33-8.159,22.644-12.37,33.917-2.685,7.189-2.64,7.673 3.374,12.782 5.117-12.288 10.252-24.622 15.388-36.955 0.534,0.194 1.067,0.387 1.6,0.581-0.14,1.132-0.101,2.322-0.449,3.385-3.427,10.461-6.426,21.101-10.582,31.268-2.353,5.756-1.638,9.348 3.693,12.367 4.86-12.034 9.719-24.066 14.577-36.097 0.68,0.25 1.36,0.501 2.04,0.751-2.774,8.642-5.291,17.377-8.381,25.904-5.261,14.52-5.383,14.42 7.605,22.907 1.265,0.826 1.874,2.656 2.743,3.953 22.7-18.136 42.883-40.012 67.381-57.042-1.818-5.556-7.513-10.487-6.234-18.529zm302.23-194.183c-11.429-2.168-22.613-4.591-33.901-6.333-8.523-1.316-17.007-1.904-24.419,4.629-4.462,3.932-7.195,7.968-5.528,13.906 1.38,4.914 7.631,8.832 13.777,9.251 1.814,0.124 4.513,0.229 5.235,1.352 5.654,8.797 14.468,15.761 15.343,27.399 0.412,5.482 6.576,7.193 10.843,3.581 8.685-7.351 11.29-17.852 13.988-28.05 2.268-8.578 3.221-17.504 4.662-25.735zm-292.874,218.505c-20.083,17.929-39.707,35.369-59.237,52.915-11.965,10.75-23.736,21.716-35.717,32.447-2.125,1.903-5.185,3.445-2.177,6.379 2.204,2.149 5.274,3.172 8.243,0.343 13.915-13.262 27.894-26.456 41.834-39.692 4.77-4.53 9.442-9.165 14.248-13.655 11.966-11.178 23.985-22.3 36.041-33.499-1.105-1.789-1.998-3.235-3.235-5.238zm-67.968,80.417c-7.061,3.463-9.266,8.57-6.771,15.756 0.658,1.896 0.339,4.126 0.507,6.199 0.45,5.565 0.92,11.129 1.402,16.932 3.996-3.4 7.663-6.305 11.038-9.517 1.088-1.035 2.286-3.137 1.939-4.309-2.507-8.47-5.398-16.827-8.115-25.061zm305.831-245.163c5.407-4.123 10.381-7.915 15.325-11.684-2.428-3.844-4.644-6.934-6.403-10.266-1.461-2.767-3.193-2.355-4.941-0.819-4.099,3.601-8.038,7.384-12.023,11.076 2.635,3.828 5.046,7.335 8.042,11.693zm-380.288,256.589c7.056-0.499 13.212-0.903 19.361-1.379 6.132-0.475 12.258-1.025 19.86-1.666-1.768-1.729-2.594-3.172-3.776-3.578-4.526-1.555-9.098-3.114-13.777-4.055-10.348-2.084-16.358,0.794-21.668,10.678zm48.096,49.284c4.96-3.705 5.663-4.725 5.523-9.482-0.225-7.606-0.689-15.204-0.98-22.809-0.11-2.876-0.018-5.76-0.018-8.811-2.806,0-4.815,0-7.508,0 1,13.772 1.98,27.278 2.983,41.102zm-21.77-76.315c7.386,3.273 14.261,6.321 20.081,8.9 3.061-2.737 5.687-5.084 8.863-7.924-6.463-2.724-12.533-5.357-18.683-7.786-0.814-0.321-2.258,0.107-3.033,0.69-2.331,1.753-4.475,3.754-7.228,6.12zm36.647,26.168c-7.67,2.403-7.138,7.88-6.04,13.681 0.446,2.359 0.538,4.788 0.746,7.19 0.507,5.873 0.988,11.748 1.61,19.195 2.326-3.563 5.045-5.806 5.035-8.038-0.044-10.672-0.829-21.341-1.351-32.028zm-18.189-12.935c-5.298-2.216-9.697-4.1-14.13-5.901-8.561-3.477-9.658-3.146-14.951,3.666 6.201,1.721 13.003,2.948 19.227,5.554 4.637,1.943 6.746-0.053 9.854-3.319z"/>
    <path d="m192.378,326.607c-1.29,10.49-2.58,20.979-3.87,31.469-4.77-4.381-2.537-25.314 1.839-31.84 0.677,0.124 1.354,0.247 2.031,0.371z"/>
    <path d="m201.926,360.51c-2.332-4.242 1.511-24.879 5.151-29.189 2.853,5.405-0.132,23.156-5.151,29.189z"/>
    <path d="m86.667,273.943c0.499,10.564-2.096,20.393-7.267,29.575-0.855-10.625 3.39-20.038 7.267-29.575z"/>
  </g>
</svg>
