<?xml version='1.0' encoding='iso-8859-1'?>
<!DOCTYPE svg PUBLIC '-//W3C//DTD SVG 1.1//EN' 'http://www.w3.org/Graphics/SVG/1.1/DTD/svg11.dtd'>
<svg version="1.1" xmlns="http://www.w3.org/2000/svg" viewBox="0 0 433.692 433.692" xmlns:xlink="http://www.w3.org/1999/xlink" enable-background="new 0 0 433.692 433.692">
  <g>
    <path d="m235.32,73.969c7.964-9.403 15.698-18.245 23.112-27.348 14.336-17.603 32.895-27.901 54.824-32.888 19.282-4.386 38.432-6.045 57.863-0.696 31.875,8.775 49.646,31.238 56.984,61.679 9.694,40.215 6.032,80.29-5.247,120.002-9.488,33.406-26.053,63.245-44.035,92.461-21.296,34.603-45.134,67.386-73.697,96.375-14.467,14.684-30.265,27.913-49.241,37.002-11.705,5.607-21.719,4.197-32.1-2.838-22.018-14.919-42.312-31.881-62.223-49.481-22.898-20.239-46.824-39.309-70.16-59.057-28.129-23.803-51.151-51.888-69.618-83.761-18.816-32.475-25.496-67.521-19.828-104.318 6.06-39.335 29.992-66.381 63.959-85.127 15.68-8.654 32.922-13.698 50.726-13.718 12.314-0.013 25.124,1.979 36.853,5.75 29.657,9.535 57.13,23.61 81.828,45.963zm168.417,132.832c1.11-2.706 1.876-4.35 2.469-6.054 6.925-19.92 11.371-40.396 12.758-61.43 1.509-22.881 1.38-45.802-5.955-67.823-7.605-22.834-21.406-39.882-45.919-46.682-13.122-3.64-25.977-3.685-39.279-1.822-26.076,3.653-47.47,15.013-63.467,36.207-4.657,6.17-9.601,12.16-14.821,17.858-4.677,5.106-9.396,10.428-16.974,12.314-1.596-1.487-3.234-2.891-4.733-4.432-5.06-5.199-9.425-11.345-15.219-15.513-19.586-14.09-41.375-24.122-64.302-31.371-19.854-6.277-39.882-5.678-59.715,1.037-27.43,9.288-47.821,27.089-62.635,51.58-5.64,9.325-9.592,19.344-10.484,32.366 5.666-7.445 10.199-13.401 14.731-19.357-2.533,7.394-6.114,14.147-10.968,19.809-5.79,6.755-5.889,14.317-6.26,24.788 11.129-14.525 20.808-27.159 30.488-39.792 0.569,0.437 1.138,0.874 1.707,1.311-2.103,3.383-4.081,6.854-6.334,10.135-6.676,9.72-13.586,19.282-20.126,29.09-1.984,2.975-4.324,6.547-4.336,9.854-0.051,13.3 3.324,25.924 9.17,38.943 12.269-18.357 23.792-35.596 35.315-52.835-7.325,21.545-22.074,38.688-33.818,58.853 4.591,8.173 9.343,16.633 14.469,25.758 9.952-16.684 19.114-32.042 28.275-47.4 0.781,0.438 1.561,0.875 2.342,1.313-9.182,16.495-18.363,32.991-27.737,49.83 2.582,3.496 4.833,6.543 7.714,10.444 6.576-10.765 12.322-20.172 18.069-29.578-1.322,10.392-8.792,17.919-11.613,28.257 7.045,0.695 13.076,1.29 18.694,1.844 3.233-6.033 5.826-10.871 8.419-15.71 0.408,0.133 0.817,0.267 1.225,0.4-1.244,4.728-2.487,9.456-3.776,14.355 13.602-0.534 14.197-1.025 15.763-13.046 2.041-15.674 3.232-31.513 6.284-46.986 3.125-15.842 7.896-31.374 12.305-46.94 1.157-4.085 2.615-9.144 8.29-8.996 6.124,0.16 7.454,5.314 8.423,10.041 1.474,7.194 2.922,14.43 3.709,21.721 3.316,30.713 6.089,61.489 9.734,92.161 0.999,8.409 0.353,17.414 4.966,25.936 1.196-10.374 1.677-19.988 3.522-29.333 3.058-15.496 6.874-30.849 10.637-46.197 0.996-4.061 3.458-7.719 8.192-7.863 5.005-0.152 6.419,3.939 7.986,7.84 2.606,6.484 5.302,12.959 8.472,19.177 1.291,2.532 3.921,4.381 6.587,7.231 4.372-15.917 5.287-16.391 19.471-12.287 3.529,1.021 7.105,2.223 10.726,2.51 8.148,0.646 12.839-3.818 13.775-11.973 1.679-14.625 3.464-29.24 5.388-43.835 1.202-9.115 2.359-18.267 4.281-27.243 1.033-4.825 2.29-10.685 9.005-10.985 3.978-0.177 6.116,4.308 6.283,12.48 0.528,25.794 0.816,51.593 1.534,77.381 0.361,12.953 1.451,25.886 2.212,38.828 4.78-15.192 7.899-30.303 11.33-45.342 1.222-5.359 2.65-10.817 5.06-15.698 1.262-2.556 5.085-5.733 7.341-5.442 2.923,0.376 6.558,3.408 7.877,6.234 2.294,4.914 2.747,10.65 4.537,15.847 1.717,4.986 2.046,10.951 9.033,14.658 1.546-4.464 2.811-8.503 4.335-12.443 3.519-9.099 7.786-9.972 13.828-2.297 3.833,4.869 8.335,7.172 14.256,6.372 19.252-2.599 38.478-5.379 57.484-8.058zm-225.789,157.787c2.709,2.377 5.245,4.602 8.257,7.244 7.574-13.992 14.06-27.283 23.63-38.664-0.836,4.081-2.236,7.833-4.022,11.39-4.131,8.229-8.637,16.272-12.634,24.564-3.419,7.093-2.958,7.71 5.374,11.53 6.545-10.271 13.09-20.543 19.635-30.814 0.885,0.526 1.77,1.051 2.655,1.577-6.154,11.075-12.309,22.151-18.864,33.946 2.976,2.28 5.664,4.338 8.658,6.631 6.328-9.754 11.442-19.121 20.53-25.525-5.52,9.337-11.04,18.673-16.762,28.352 5.808,4.138 11.367,7.735 16.509,11.854 6.511,5.215 12.711,5.749 20.317,1.794 19.3-10.035 35.41-24.183 49.747-39.955 36.866-40.556 67.022-85.897 92.096-134.612 2.158-4.193 3.813-8.645 5.88-13.384-14.161,0.73-27.7,0.573-40.97,2.388-10.353,1.416-20.215,2.191-29.911-2.623-1.344,2.636-2.184,4.677-3.352,6.508-5.637,8.84-15.17,9.99-22.137,2.145-3.086-3.476-4.831-8.149-7.149-12.298-1.075-1.924-2.063-3.897-3.853-7.295-5.306,23.795-8.678,45.905-9.741,68.38-0.346,7.326-1.258,14.648-2.364,21.904-0.59,3.872-3.172,7.461-7.278,6.984-3.187-0.371-6.79-2.514-8.93-4.979-2.007-2.31-2.901-6.006-3.309-9.216-2.177-17.115-4.916-34.224-5.794-51.421-0.996-19.505-0.23-39.1-0.23-58.656-2.896,9.824-3.877,19.671-5.253,29.464-1.365,9.716-2.748,10.54-12.142,12.836-7.078,1.73-13.767,1.193-20.555-0.926-2.662-0.831-5.432-1.32-8.571-2.064-0.344,2.227-0.722,3.632-0.75,5.045-0.094,4.832-1.742,8.856-6.537,10.473-4.927,1.661-9.756,0.479-13.204-3.327-3.417-3.772-6.2-8.144-9.057-12.391-1.733-2.576-3.076-5.415-5.591-9.92-1.299,6.109-2.497,9.994-2.908,13.961-2.427,23.396-4.645,46.814-7,70.218-0.44,4.377-0.965,8.769-1.853,13.072-0.8,3.879-3.034,6.673-7.426,6.984-4.184,0.296-7.242-1.589-8.924-5.222-1.534-3.312-3.099-6.8-3.622-10.361-3.843-26.182-8.072-52.333-10.898-78.631-2.473-23.024-3.249-46.229-4.869-69.347-0.138-1.966-0.991-3.883-1.512-5.822-2.768,3.725-4.073,7.462-4.59,11.304-3.233,24.038-6.167,48.117-9.499,72.141-0.743,5.358-1.639,11.151-4.267,15.704-7.087,12.278-15.146,23.996-21.984,34.636 6.149,7.224 11.086,13.023 16.589,19.488 3.059-5.08 5.263-8.863 7.59-12.569 2.184-3.478 4.499-6.874 6.756-10.307 0.535,0.341 1.07,0.681 1.604,1.022-4.039,8.017-8.078,16.034-12.338,24.49 14.713,11.769 28.692,22.951 43.065,34.448 3.064-5.455 5.684-10.121 8.305-14.786 0.597,0.314 1.194,0.629 1.791,0.943-2.214,5.665-4.428,11.33-6.727,17.21 4.519,3.705 8.603,7.052 13.222,10.839 2.518-5.353 4.322-9.352 6.268-13.281 1.797-3.628 3.63-7.249 5.663-10.748 1.96-3.373 4.196-6.586 6.31-9.869 0.587,0.367 1.173,0.734 1.76,1.101-5.432,11.936-10.865,23.873-16.39,36.014 2.705,2.371 4.789,4.197 7.637,6.693 3.406-6.265 6.277-11.715 9.308-17.074 3.134-5.539 6.425-10.99 9.647-16.479 0.716,0.382 1.432,0.764 2.148,1.146-5.621,11.826-11.244,23.651-17.184,36.143zm-109.674-96.309c3.655,3.863 7.099,7.502 11.215,11.852 4.782-9.239 8.985-17.358 13.768-26.599-7.39,0.352-12.796,0.61-18.205,0.867-2.347,4.807-4.424,9.059-6.778,13.88zm2.123-14.343c-5.475-0.404-9.195-0.678-14.965-1.104 3.977,4.677 6.573,7.729 9.828,11.556 1.884-3.833 3.119-6.345 5.137-10.452z"/>
    <path d="m38.301,205.719c6.628-14.657 15.792-27.806 24.429-41.268 0.788,0.462 1.576,0.924 2.364,1.386-8.03,13.762-16.059,27.524-24.089,41.287-0.902-0.468-1.803-0.936-2.704-1.405z"/>
    <path d="m52.959,127.224c-8.355,12.486-16.71,24.972-26.247,39.225 0.978-10.102 12.675-27.954 26.247-39.225z"/>
    <path d="m111.075,257.949c-4.903,9.165-9.806,18.33-15.398,28.785-0.72-9.083 2.883-16.393 15.398-28.785z"/>
  </g>
</svg>
