<?xml version='1.0' encoding='iso-8859-1'?>
<!DOCTYPE svg PUBLIC '-//W3C//DTD SVG 1.1//EN' 'http://www.w3.org/Graphics/SVG/1.1/DTD/svg11.dtd'>
<svg version="1.1" xmlns="http://www.w3.org/2000/svg" viewBox="0 0 473.334 473.334" xmlns:xlink="http://www.w3.org/1999/xlink" enable-background="new 0 0 473.334 473.334">
  <g>
    <path d="m236.499,105.692c23.508-29.201 52.648-47.158 87.99-53.596 24.005-4.373 45.145,2.31 63.108,20.487 17.259,17.465 20.263,39.186 22.826,61.454 0.817,7.097 0.128,14.367 0.128,22.26 12.002-2.725 23.244-5.197 34.445-7.844 10.89-2.574 13.267-1.13 12.472,10.211-0.703,10.025-2.15,20.118-4.526,29.874-2.497,10.257-2.546,18.808 6.665,26.13 4.7,3.737 8.016,9.244 11.84,14.045 3.087,3.876 2.248,7.485-1.475,10.337-2.278,1.745-4.819,3.233-7.422,4.452-12.394,5.802-24.904,11.36-37.229,17.303-2.007,0.968-3.697,3.207-4.836,5.248-4.228,7.573-8.617,15.109-12.108,23.029-5.901,13.387-16.499,21.679-28.892,28.163-13.413,7.019-27.013,13.682-40.411,20.727-2.084,1.096-3.818,3.199-5.225,5.182-8.151,11.499-15.813,23.361-24.312,34.592-7.608,10.053-16.062,19.466-24.188,29.124-2.787,3.312-5.815,6.424-8.547,9.779-5.106,6.268-8.681,7.473-15.836,3.878-6.764-3.399-13.727-6.782-19.657-11.389-18.218-14.152-35.921-28.967-54.014-43.285-1.97-1.559-5.149-2.061-7.811-2.197-17.301-0.885-34.702-0.712-51.894-2.544-11.711-1.247-23.377-4.445-34.626-8.113-14.185-4.626-22.894-15.944-30.039-28.414-3.927-6.854-7.495-13.916-11.053-20.562-10.525,2.36-20.246,4.935-30.118,6.626-7.602,1.302-10.097-1.485-8.639-9.088 1.902-9.919 3.7-19.936 6.743-29.531 2.072-6.533 1.404-11.52-2.208-17.208-5.611-8.833-10.562-18.111-15.374-27.417-3.948-7.634-3.101-9.932 5.247-12.75 12.306-4.154 24.837-7.642 37.265-11.435 2.69-0.821 5.351-1.736 8.734-2.838-1.185-3.643-2.145-6.618-3.12-9.589-6.095-18.565-8.047-37.592-3.839-56.666 5.888-26.691 24.259-43.545 46.958-56.65 46.548-26.874 102.292-15.986 138.748,24.321 1.16,1.282 2.547,2.356 4.23,3.894zm-155.023,122.396l-.184-.119c0.977,2.668 1.954,5.337 3.298,9.01 7.094-13.577 13.31-25.473 19.525-37.369 0.642,0.311 1.283,0.622 1.925,0.933-1.062,2.536-2.018,5.122-3.207,7.597-3.912,8.141-8.115,16.148-11.816,24.382-4.223,9.394-3.994,9.63 5.003,16.666 7.572-14.331 15.144-28.663 22.716-42.994 0.734,0.384 1.467,0.768 2.201,1.151-5.942,12.257-11.623,24.651-17.919,36.723-4.08,7.823-4.189,14.607 2.705,21.534 6.436-13.665 12.583-26.912 21.159-38.797-3.833,13.36-12.104,24.825-16.53,38.713 10.886,0 20.235,0 29.193,0 4.301-8.048 8.361-15.643 12.421-23.238 0.678,0.348 1.355,0.696 2.033,1.044-3.19,7.048-6.381,14.096-10.012,22.118 5.268,0 9.107,0 13.291,0 2.542-6.648 5.378-13.16 11.793-17.47-2.725,5.611-5.449,11.222-8.299,17.091 44.577,5.323 191.593-21.486 221.232-40.498-0.062-1.209-0.318-2.63-0.159-4.003 0.202-1.756 0.449-3.607 1.174-5.188 11.556-25.2 14.662-52.007 14.398-79.264-0.147-15.253-2.821-30.699-10.048-44.011-13.347-24.582-40.643-34.978-67.997-27.338-23.019,6.429-43.521,17.745-60.333,34.845-4.667,4.746-7.867,11.158-10.867,17.237-1.874,3.797-1.718,8.789-7.196,9.665-5.693,0.911-8.325-3.357-11.223-7.053-1.116-1.423-2.263-2.826-3.295-4.309-8.643-12.429-20.093-21.461-33.15-29.02-43.405-25.132-88.956-13.969-121.328,19.652-13.977,14.516-19.215,32.856-17.687,52.924 0.222,2.921 3.461,6.191 2.74,8.498-2.145,6.864 0.245,12.473 2.329,18.683 2.464-1.66 4.303-2.899 6.142-4.138l-.236-.226c-2.363,7.742-5.811,15.57 2.323,23.307 5.012-11.25 9.83-22.067 14.649-32.884 0.69,0.286 1.38,0.572 2.069,0.857-3.61,9.217-6.501,18.806-11.027,27.548-4.747,9.169-2.65,16.334 3.56,23.307 1.418,1.587 3.083,2.96 4.634,4.434zm-3.907,98.754c5.986,9.085 13.616,14.017 22.789,17.262 14.502,5.131 29.532,7.431 44.703,7.511 28.896,0.152 57.816-0.158 86.692-1.197 34.886-1.256 68.702-8.82 101.833-19.584 1.367-0.444 3.084-0.627 3.988-1.56 10.626-10.976 25.431-15.012 37.766-23.065 6.542-4.271 13.456-9.291 17.611-15.664 14.924-22.889 24.166-48.433 31.507-74.631 1.044-3.725 0.846-7.911 0.636-11.853-0.629-11.785-6.116-18.507-18.608-18.051-2.637,9.769-5.319,19.701-8.233,30.496 8.436-3.584 10.561-9.923 10.136-18.591 2.811,1.057 5.332,1.203 6.146,2.456 2.87,4.424 2.35,9.3-1.099,13.049-3.883,4.22-7.984,8.813-12.958,11.345-13.801,7.026-27.725,14.139-42.283,19.286-36.924,13.054-75.451,19.178-114.054,25.146-42.472,6.566-85.026,6.193-127.662,4.03-11.827-0.6-23.81-2.167-35.27-5.073-18.863-4.783-21.958-12.937-13.188-30.113 1.124-2.2 2.037-4.509 3.93-8.739-23.839,15.062-26.612,40.155-16.364,56.794 1.178-1.841 2.277-3.559 4.048-6.326 1.075,7.138-5.167,12.839 1.613,18.234 3.349-4.967 6.568-9.741 10.275-15.24 0.666,9.706-11.216,15.519-4.863,26.629 3.086-4.019 5.378-7.004 8.579-11.175 0.062,8.259-11.187,14.815-1.177,22.136 4.479-5.797 8.728-11.296 12.977-16.796 0.576,0.347 1.151,0.694 1.726,1.042-3.656,7.263-7.312,14.527-11.196,22.242zm186.847,81.938c21.424-17.514 35.44-38.426 49.06-60.051-18.824,3.627-36.719,7.739-54.829,10.376-17.981,2.618-36.178,3.75-55.653,5.669 6.722,5.181 12.579,9.695 18.301,14.106 2.208-1.385 3.791-2.377 5.857-3.673-2.477,11.276 6.95,11.897 12.062,16.495 3.891-5.079 7.347-9.59 10.803-14.102 0.49,0.342 0.98,0.685 1.469,1.027-2.929,5.191-5.858,10.382-9.224,16.348 7.777,4.846 15.039,9.371 22.154,13.805zm-241.913-107.555c9.643-2.43 17.179-4.329 25.053-6.314-3.346-12.565-5.762-25.164-2.557-38.287 3.235-13.251 12.328-22.407 21.62-31.864-2.678-4.321-5.106-8.238-7.181-11.586-17.506,3.182-34.243,6.223-52.756,9.588 7.288,10.602 13.307,19.935 19.935,28.812 5.117,6.853 7.336,13.351 3.838,21.955-3.346,8.227-5.007,17.138-7.952,27.696zm425.302-143.293c-14.354,3.13-26.227,5.719-38.432,8.38-0.574,5.033-1.043,9.145-1.494,13.101 19.881,4.728 26.486,12.622 25.626,32.129-0.407,9.241-3.068,18.392-4.831,27.56-0.7,3.64-1.732,7.216-2.613,10.821 0.735,0.516 1.47,1.032 2.205,1.548 10.854-5.978 21.708-11.956 33.483-18.442-5.545-6.863-9.569-12.926-14.67-17.879-6.064-5.887-7.886-12.594-6.76-20.519 0.455-3.201 1.131-6.373 1.786-9.541 1.725-8.336 3.494-16.664 5.7-27.158zm-374.792,77.871c-1.767,6.482-3.673,10.851-3.902,15.306-0.136,2.64 1.663,6.531 3.833,7.917 5.916,3.78 12.65,5.658 21.567,4.507-7.247-9.348-13.562-17.494-21.498-27.73z"/>
    <path d="m81.476,228.088c-0.33-3.108-1.789-6.645-0.799-9.252 4.962-13.066 10.566-25.889 15.944-38.797 0.917,0.361 1.833,0.723 2.75,1.084-6.058,15.583-12.115,31.165-18.127,46.796 0.047,0.05 0.232,0.169 0.232,0.169z"/>
    <path d="m129.863,260.158c0.366-11.242 5.244-21.105 14.388-30.225-4.797,10.075-9.593,20.15-14.388,30.225z"/>
    <path d="m65.504,181.741c0.51-3.318 1.019-6.636 1.529-9.954 0.83,0.257 1.659,0.515 2.488,0.772-1.431,2.973-2.862,5.947-4.273,8.937 0.02,0.019 0.257,0.245 0.256,0.245z"/>
    <path d="m98.023,330.885c3.623-2.351 6.178-4.01 9.202-5.973-1.122-8.802-2.293-17.988-3.551-27.861-3.231-0.525-6.638-1.078-10.174-1.652-0.812-6.737 4.42-7.086 8.279-7.731 7.117-1.19 14.651-6.802 23.16,1.807-4.658,2.32-8.259,4.113-11.743,5.849 1.943,7.674 4.402,15.237 5.646,22.994 0.976,6.085 3.216,9.914 9.469,11.398 2.1,0.498 3.802,2.676 7.24,5.251-4.282,1.929-6.943,3.776-9.838,4.284-4.655,0.816-22.779-4.616-27.69-8.366z"/>
    <path d="m271.047,303.511c-0.15,8.4-14.357,2.35-12.786,13.285 2.234,0.428 4.729,0.467 6.785,1.437 1.671,0.789 3.945,2.737 3.894,4.094-0.059,1.566-2.082,3.69-3.761,4.455-7.953,3.623-17.031-1.715-16.597-10.707 0.427-8.846 2.302-17.831 4.982-26.299 2.473-7.812 13.691-11.608 24.542-9.77-3.243,5.258-3.243,5.258-19.414,12.254-0.127,1.434-0.372,3.143-0.402,4.856-0.025,1.404 0.206,2.813 0.359,4.645 4.197,0.908 9.345-4.208 12.398,1.75z"/>
    <path d="m303.939,275.006c4.91,1.51 9.82,3.021 15.336,4.717 1.794-2.846 3.768-5.975 6.651-10.547 0.992,3.439 2.184,5.382 1.961,7.144-1.67,13.138-3.409,26.278-5.698,39.317-0.37,2.105-3.581,3.711-5.478,5.548-1.927-2.309-5.082-4.423-5.491-6.975-0.595-3.712 0.606-7.779 1.381-11.626 0.773-3.835 1.966-7.585 2.842-10.874-4.729-4.665-9.139-9.016-13.55-13.367 0.682-1.113 1.364-2.225 2.046-3.337z"/>
    <path d="m215.38,310.782c0.229,11.283-7.807,20.887-16.562,22.19-5.358,0.797-10.68-2.05-13.312-7.123-5.208-10.035 0.089-24.754 10.514-29.219 5.433-2.327 11.668-0.798 15.14,4.56 2.262,3.49 3.416,7.699 4.22,9.592zm-27.004-2.241c0.757,4.248 0.896,8.196 2.211,11.703 2.269,6.052 6.779,6.961 11.584,2.578 1.782-1.626 3.092-3.864 4.305-5.999 2.319-4.08 0.597-8.193-2.125-10.695-1.728-1.589-5.721-1.151-8.625-0.871-2.006,0.194-3.889,1.671-7.35,3.284z"/>
    <path d="m161.527,322.387c6.215,1.776 12.151,3.472 18.086,5.169-0.068,0.831-0.135,1.663-0.203,2.494-6.536,2.922-13.585,4.59-20.717,4.66-4.589,0.045-8.818-3.445-8.419-8.211 0.98-11.708 2.928-23.342 4.798-34.956 0.186-1.155 2.516-1.965 4.366-3.309 4.053,11.883 2.647,23.252 2.089,34.153z"/>
    <path d="m231.03,315.065c5.62-8.91-0.574-21.109 9.424-28.439 1.284,1.498 2.537,2.298 2.481,2.993-0.923,11.488-1.809,22.988-3.182,34.427-0.418,3.481-1.963,8.108-6.355,7.349-2.898-0.501-6.575-3.615-7.609-6.408-2.735-7.39-4.357-15.212-6.062-22.941-0.261-1.184 1.383-2.789 3.375-6.469 3.124,7.68 5.444,13.383 7.928,19.488z"/>
    <path d="m336.033,288.491c0.174-10.187 5.357-17.274 13.155-19.962 5.159-1.779 9.861,0.391 12.31,5.681 4.081,8.816-0.173,21.518-8.79,26.243-5.015,2.75-11.153,1.373-13.974-3.765-1.662-3.029-2.22-6.663-2.701-8.197zm11.127,4.363c7.897-7.765 7.897-7.765 5.369-15.408-11.243,5.143-11.243,5.143-5.369,15.408z"/>
    <path d="m373.464,259.651c0.865,5.706 1.73,11.412 2.595,17.118 0.734,0.093 1.469,0.187 2.204,0.28 1.162-4.277 2.481-8.52 3.426-12.844 0.536-2.451-0.033-5.222 0.829-7.495 0.613-1.616 2.759-3.606 4.264-3.642 1.339-0.033 3.811,2.298 3.936,3.745 0.782,9.085 0.617,18.151-4.772,26.144-2.859,4.241-6.582,6.692-11.971,5.087-5.44-1.62-7.53-5.762-6.836-10.849 0.811-5.949 2.559-11.77 3.901-17.647 0.807,0.034 1.615,0.069 2.424,0.103z"/>
    <path d="m232.777,383.184c3.456-5.105 6.912-10.209 10.368-15.314 0.561,7.492-5.31,11.245-7.515,17.092-0.951-0.593-1.902-1.186-2.853-1.778z"/>
  </g>
</svg>
