<?xml version='1.0' encoding='iso-8859-1'?>
<!DOCTYPE svg PUBLIC '-//W3C//DTD SVG 1.1//EN' 'http://www.w3.org/Graphics/SVG/1.1/DTD/svg11.dtd'>
<svg version="1.1" xmlns="http://www.w3.org/2000/svg" viewBox="0 0 446.115 446.115" xmlns:xlink="http://www.w3.org/1999/xlink" enable-background="new 0 0 446.115 446.115">
  <g>
    <path d="m94.485,109.443c-1.425-14.094-3.2-28.298-4.218-42.556-1.344-18.821 8.156-31.716 23.513-41.332 12.184-7.629 25.967-9.651 39.638-12.196 13.143-2.447 26.263-5.071 39.472-7.094 13.407-2.054 26.873-3.972 40.386-5.021 13.272-1.03 26.652-1.492 39.954-1.113 15.895,0.454 30.43,4.778 40.759,18.344 6.84,8.984 10.734,19.21 13.15,29.972 3.363,14.982 6.084,30.108 9.049,45.019 10.189,2.451 21.229,4.788 32.087,7.785 21.323,5.885 37.333,19.067 47.906,38.161 11.248,20.314 18.075,42.098 16.759,65.757-1.052,18.906-5.802,36.802-13.793,54.042-13.568,29.272-31.792,55.512-52.023,80.346-11.894,14.601-25.009,28.244-38.05,41.863-13.942,14.559-28.532,28.495-42.652,42.886-5.029,5.125-9.652,10.671-14.205,16.234-5.783,7.066-8.632,7.357-15.439,1.183-0.719-0.652-1.981-0.69-2.974-1.058-7.321-2.716-15.3-4.362-21.839-8.362-23.992-14.677-47.444-30.233-71.224-45.263-12.423-7.852-24.989-15.496-37.697-22.878-17.635-10.244-33.568-22.547-47.946-37.032-15.122-15.236-30.876-30.002-42.411-48.22-13.674-21.596-22.202-45.344-19.005-71.189 5.107-41.276 23.094-74.616 63.106-92.358 5.82-2.577 12.115-4.081 17.697-5.92zm19.376,233.692l-.166-.18c4.627,3.364 9.254,6.728 13.781,10.018 4.187-19.192 8.193-37.558 12.2-55.924 0.734,0.041 1.469,0.082 2.203,0.124 0,4.733 0.665,9.579-0.126,14.176-2.31,13.428-5.277,26.742-7.772,40.14-0.323,1.735-0.027,4.644 1.085,5.411 6.104,4.215 12.552,7.932 17.97,11.259 2.133-16.643 4.228-32.992 6.323-49.34 0.897,0.085 1.793,0.17 2.69,0.255 2.033,17.306-2.992,34.192-3.982,51.419 16.983,10.868 34.168,22.208 51.703,32.978 14.19,8.716 28.86,16.646 43.198,25.127 5.719,3.383 10.21,3.525 13.44-3.119 0.463-0.952 1.485-1.639 2.271-2.426 15.841-15.848 31.903-31.481 47.46-47.602 13.106-13.582 26.314-27.167 38.251-41.753 20.542-25.103 39.077-51.62 52.761-81.302 7.761-16.835 11.683-34.514 12.137-52.756 0.387-15.526-4.234-30.342-10.044-44.771-7.546-18.741-20.336-32.786-38.624-40.638-23.124-9.929-47.284-10.548-70.837-1.384-26.057,10.137-49.197,25.428-70.447,43.534-5.274,4.494-9.401,5.243-13.52,0.709-13.554-14.918-31.195-23.188-49.443-30.049-18.63-7.005-38.192-8.7-58.048-6.965-25.092,2.192-45.528,12.947-60.206,33.484-16.686,23.345-24.595,49.356-20.06,78.088 1.543,9.775 5.414,19.182 8.221,28.757 0.51-0.091 1.019-0.182 1.529-0.272 5.481-22.169 9.794-44.714 20.33-65.295 0.105,3.03-0.425,5.888-1.13,8.701-5.061,20.189-10.213,40.356-15.151,60.575-0.474,1.939-0.33,4.557 0.634,6.218 2.612,4.501 5.82,8.655 9.381,13.8 1.221-23.161 8.49-43.229 17.423-62.865 0.621,2.145 0.433,4.099-0.043,5.981-4.014,15.892-8.343,31.71-11.972,47.688-1.089,4.796-1.634,10.555 0.056,14.909 1.731,4.46 6.506,7.737 10.659,12.315 3.596-22.588 7.79-44.152 16.882-64.444 0.396,4.276-0.142,8.357-0.932,12.389-3.504,17.893-7.128,35.763-10.544,53.673-0.291,1.528 0.085,3.819 1.085,4.852 5.921,6.12 12.117,11.972 18.221,17.915l-.127-.162c7.094,5.583 14.187,11.168 21.28,16.752zm173.589-238.432c-0.95-2.875-2.018-5.179-2.459-7.598-2.466-13.526-4.81-27.081-11.604-39.311-3.211-5.781-7.697-10.026-14.773-9.921-6.042,0.089-12.133,0.253-18.104,1.089-22.655,3.174-45.276,6.598-67.898,10.005-10.34,1.557-15.323,8.67-17.853,17.976-2.982,10.968-0.407,21.511 3.107,31.855 0.55,1.619 2.284,3.432 3.883,4.007 22.048,7.926 43.355,17.102 60.004,33.974 20.417-16.969 42.016-31.511 65.697-42.076zm34.681-9.683c-1.731-16.624-3.884-32.745-8.864-48.361-1.609-5.047-3.18-10.164-5.427-14.938-7.042-14.963-20.056-20.35-35.53-20.508-13.871-0.142-27.754,0.567-41.627,1.039-5.345,0.182-10.755,0.293-16.001,1.208-24.515,4.277-49.013,8.669-73.454,13.352-9.654,1.85-18.492,5.871-26.212,12.208-13.686,11.235-13.363,26.157-10.989,41.524 1.406,9.098 3.368,18.111 5.123,27.39 6.014,0 12.327-0.248 18.612,0.069 6.344,0.32 12.659,1.201 18.232,1.76-1.374-8.529-3.208-16.941-3.991-25.45-1.237-13.442 7.753-30.39 20.926-33.602 16.518-4.027 33.389-6.68 50.184-9.468 11.214-1.862 22.539-3.147 33.854-4.294 15.025-1.522 29.347,1.662 37.313,17.586 3.017,6.031 5.35,12.473 7.352,18.928 2.732,8.807 4.848,17.805 7.215,26.671 7.834-1.722 15.119-3.321 23.284-5.114z"/>
    <path d="m226.948,266.221c-10.43-2.758-18.118-8.911-19.624-20.479-1.345-10.331 0.108-20.375 6.415-28.917 8.551-11.581 25.768-14.145 37.964-2.976 13.219,12.106 18.221,28.76 2.858,45.399 3.163,6.157 6.284,12.114 9.298,18.126 5.247,10.468 10.353,21.007 15.677,31.434 1.81,3.545 3.959,6.799 0.319,10.494-0.397,0.403 0.073,1.83 0.362,2.709 1.503,4.584 0.154,8.336-4.487,9.452-9.358,2.251-18.854,3.95-28.325,5.701-3.782,0.699-7.683,0.75-11.471,1.422-8.398,1.491-15.15-3.436-15.343-12.019-0.141-6.251 0.517-12.533 1.044-18.783 0.586-6.954 1.305-13.903 2.192-20.825 0.859-6.724 2.006-13.413 3.121-20.738z"/>
    <path d="m113.861,343.135c-3.442-6.992-1.655-14.111-0.258-21.112 2.807-14.061 5.898-28.065 8.872-42.093 0.755,0.019 1.511,0.038 2.266,0.057 0.139,2.782 0.771,5.644 0.335,8.333-2.416,14.901-5.114,29.756-7.652,44.637-0.372,2.179-0.07,4.52-0.712,6.59-0.408,1.318-1.982,2.275-3.026,3.401 0.009,0.006 0.175,0.187 0.175,0.187z"/>
    <path d="m92.709,326.545c-0.022-8.182-0.959-16.49 0.141-24.519 1.817-13.26 4.924-26.345 7.568-39.488 0.258-1.28 1.072-2.449 1.628-3.669 0.685,0.12 1.37,0.239 2.055,0.359-0.731,7.702-1.183,15.442-2.253,23.097-1.884,13.47-4.077,26.9-6.354,40.31-0.232,1.368-1.921,2.489-2.923,3.737 0.011,0.01 0.138,0.173 0.138,0.173z"/>
    <path d="m176.897,371.438c-3.13-11.31 1.611-21.783 3.911-32.547 2.706,11.232-1.23,21.808-3.911,32.547z"/>
    <path d="m195.886,358.643c0,4.945 0,9.89 0,14.835-0.538,0.014-1.076,0.028-1.614,0.042-3.284-4.84-1.028-9.946-0.599-14.964 0.737,0.028 1.475,0.057 2.213,0.087z"/>
  </g>
</svg>
