<?xml version='1.0' encoding='iso-8859-1'?>
<!DOCTYPE svg PUBLIC '-//W3C//DTD SVG 1.1//EN' 'http://www.w3.org/Graphics/SVG/1.1/DTD/svg11.dtd'>
<svg version="1.1" xmlns="http://www.w3.org/2000/svg" viewBox="0 0 459.034 459.034" xmlns:xlink="http://www.w3.org/1999/xlink" enable-background="new 0 0 459.034 459.034">
  <g>
    <path d="m240.476,150.192c-2.323-20.686-3.478-38.631 2.72-56.165 4.123-11.664 9.253-22.761 17.323-32.293 1.167-1.378 2.13-3.197 3.623-3.965 2.038-1.049 4.494-1.286 6.77-1.871 0.342,2.245 1.286,4.594 0.92,6.717-1.461,8.467-4.295,16.802-4.842,25.301-1.087,16.869 8.457,29.048 20.558,41.963 0.515-3.432 1.09-5.041 0.936-6.577-2.167-21.685 8.966-38.055 21.421-53.902 0.661-0.841 1.485-1.942 2.392-2.125 2.287-0.459 4.956-1.168 6.895-0.372 1.086,0.446 1.633,3.773 1.373,5.658-1.13,8.194-3.047,16.291-3.927,24.504-1.339,12.501 3.751,22.443 14.355,31.106 0.463-3.045 1.108-5.262 1.084-7.472-0.131-12.501 5.234-23.164 11.397-33.437 1.177-1.963 4.444-2.672 6.747-3.959 0.901,2.445 2.726,4.961 2.545,7.323-0.83,10.808 1.871,20.636 7.365,31.5 1.216-3.476 1.844-5.766 2.798-7.911 3.511-7.893 6.69-15.98 10.84-23.529 3.641-6.624 8.498-12.57 12.667-18.914 4.47-6.803 7.038-14.213 6.607-22.5-0.131-2.525-0.496-5.198 0.159-7.55 0.463-1.664 2.397-3.963 3.792-4.047 1.591-0.096 4.507,1.705 4.794,3.104 3.991,19.428 12.947,37.705 13.48,57.925 0.143,5.423 0.534,10.841 0.623,16.264 0.27,16.536-1.605,32.476-12.136,46.252-10.625,13.9-9.13,29.951-7.285,45.846 1.331,11.467 3.844,22.805 5,34.283 3.83,38.034-5.621,73.204-24.373,106.033-12.943,22.658-24.171,46.066-33.753,70.328-2.634,6.671-6.587,12.832-10.062,19.157-10.105,18.393-24.043,24.485-47.832,21.403-15.572-2.017-30.722-7.696-45.898-12.273-18.306-5.521-36.421-11.672-54.656-17.432-10.515-3.321-19.673-8.86-28.184-15.802-5.018-4.093-10.191-8.551-16.07-10.93-16.908-6.842-29.824-18.851-42.881-30.844-5.857-5.379-11.71-10.771-17.745-15.946-17.931-15.375-27.462-35.13-30.052-58.287-1.806-16.147-2.802-32.382-4.34-48.561-0.648-6.817-1.981-13.573-2.505-20.394-0.124-1.618 1.75-3.389 2.705-5.09 1.646,1.464 4.202,2.645 4.763,4.447 1.493,4.792 1.868,9.921 3.189,14.78 0.905,3.327 2.651,6.426 5.987,9.11-0.488-3.241-0.43-6.686-1.553-9.688-6.389-17.077-4.151-34.173-0.598-51.312 0.953-4.596 1.894-9.204 3.105-13.736 6.704-25.092 6.667-49.941-1.827-74.71-1.48-4.318-5.094-10.774 1.974-13.015 6.12-1.94 6.621,5.081 8.898,8.851 1.121,1.856 2.068,3.918 3.553,5.438 11.344,11.621 16.971,25.807 18.893,43.447 1.993-2.674 3.41-3.974 4.092-5.585 5.454-12.882 5.917-25.926 0.694-38.997-4.969-12.436-9.825-24.891-10.829-38.432-0.075-1.018 0.217-2.063 0.489-4.379 2.504,0.662 5.475,0.516 6.592,1.884 12.784,15.668 26.239,31.027 32.786,50.646 2.255,6.758 2.974,14.028 4.653,22.341 9.611-9.318 13.485-19.8 11.738-31.653-1.408-9.545-4.857-18.773-6.993-28.233-0.917-4.062-1.252-8.388-0.968-12.534 0.144-2.098 2.255-4.061 3.477-6.084 1.997,1.262 4.872,2.056 5.839,3.868 4.056,7.604 7.994,15.338 11.115,23.358 3.508,9.013 6.091,18.386 11.055,27.535 0.385-1.693 0.56-3.47 1.19-5.066 3.159-7.997 5.866-16.248 9.861-23.815 2.996-5.675 7.448-10.667 11.693-15.582 11.693-13.535 15.183-29.155 12.75-46.53-0.648-4.631-1.029-9.347-0.929-14.011 0.037-1.734 1.452-3.959 2.92-4.932 0.78-0.517 3.572,0.733 4.51,1.928 8.25,10.513 16.506,21.035 24.312,31.878 5.541,7.696 6.984,16.922 5.294,25.92-2.863,15.239-6.825,30.273-10.422,45.371-2.986,12.532-1.906,24.452 5.271,35.395 1.851,2.818 4.357,5.209 8.078,9.578zm-166.057-31.723c1.42109e-14,1.7-0.316,3.471 0.049,5.089 3.19,14.107 1.874,28.017-1.621,41.846-2.037,8.061-3.755,16.227-6.282,24.134-6.604,20.656-6.625,41.151 0.248,61.723 1.203,3.602 1.709,7.437 2.95,13.024-5.984-1.859-10.041-3.12-14.88-4.623 1.49,14.731 2.291,28.44 4.383,41.949 2.921,18.856 11.912,34.714 26.255,47.442 9.738,8.641 19.195,17.618 29.232,25.895 7.203,5.94 15.013,11.189 22.817,16.344 7.205,4.759 15.539,8.079 22.008,13.627 14.999,12.861 32.766,19.4 51.114,25.152 10.666,3.343 21.116,7.383 31.804,10.646 15.518,4.736 30.978,9.941 46.816,13.258 12.063,2.526 24.134,0.368 31.326-11.564 5.766-9.568 11.034-19.477 15.923-29.526 9.796-20.13 18.954-40.571 28.8-60.676 9.866-20.144 20.166-40.099 23.996-62.501 4.13-24.154 3.266-48.361-1.41-72.283-4.609-23.579-4.585-45.881 10.943-66.096 5.142-6.695 7.15-15.033 7.272-23.506 0.187-13.011 0.373-26.044-0.192-39.035-0.314-7.217-1.866-14.459-5.858-21.537-4.681,6.917-8.301,13.198-12.813,18.755-13.413,16.523-19.183,35.336-18.454,56.452 0.16,4.645-0.792,9.325-1.191,13.992-0.296,3.466-1.163,7.035-5.296,6.827-4.471-0.225-5.468-4.003-5.58-7.891-0.021-0.724-0.026-1.448-0.021-2.172 0.118-16.646-7.343-31.207-12.353-47.417-4.85,7.514-3.812,14.936-3.695,22.005 0.115,6.967 1.358,13.915 2.155,21.327-1.924,0-3.936,0.586-4.541-0.089-7.935-8.845-15.847-17.723-23.409-26.887-7.875-9.544-6.48-21.398-7.483-32.778-12.575,18.129-13.43,37.028-3.858,56.469-5.628,3.291-6.018,3.713-9.259,0.713-7.668-7.099-15.487-14.165-22.22-22.113-9.761-11.522-13.939-25.151-11.794-40.397 0.201-1.428 0.226-2.89 0.215-4.335-0.008-1.066-0.207-2.129-0.439-4.304-1.72,2.02-2.59,2.726-3.059,3.638-12.678,24.627-16.887,49.776-5.013,76.091 1.178,2.611 2.019,6.827 0.727,8.799-2.669,4.078-6.626,1.123-9.549-0.654-11.504-6.991-19.779-16.612-24.004-29.667-3.645-11.261-1.665-22.185 1.074-33.118 2.896-11.56 6.22-23.015 9.003-34.6 4.744-19.742-4.255-34.426-18.51-49.284 0.239,4.185 0.044,6.392 0.532,8.436 3.468,14.534-1.234,27.171-9.223,38.869-3.863,5.656-8.342,10.928-12.861,16.095-15.927,18.214-17.664,38.003-7.092,59.359 1.183,2.39 1.845,5.037 2.719,7.481-6.016,3.893-8.824,0.715-11.669-2.885-12.87-16.29-20.17-34.862-23.103-55.313-1.198-8.352-2.931-16.594-7.745-24.729-4.082,4.844-1.529,8.579-0.452,12.063 1.918,6.204 4.297,12.267 6.55,18.366 5.98,16.189 2.396,30.463-8.459,43.392-4.956,5.902-12.726,10.053-12.115,19.606 0.058,0.898-3.379,2.963-4.94,2.737-1.375-0.199-3.216-2.754-3.409-4.435-0.493-4.287-0.545-8.703-0.13-13.004 2.293-23.757-7.631-43.341-21.304-61.702 1.775,6.857 3.896,13.628 6.657,20.127 5.536,13.034 5.659,26.117 0.366,39.052-4.096,10.009-8.883,19.747-13.706,29.435-0.824,1.655-3.37,2.452-6.737,4.746 1.213-20.893 0.653-39.361-10.205-55.84z"/>
    <path d="m231.418,226.045c10.769-19.166 27.943-32.615 47.441-43.566 24.291-13.643 47.613-12.251 70.113,4.079 13.483,9.786 19.171,24.13 22.531,39.572 3.201,14.708 1.904,29.438-1.235,44.067-6.617,30.835-15.511,60.791-29.514,89.305-11.622,23.664-21.325,48.27-31.901,72.448-4.563,10.432-8.166,11.788-19.203,11.268-12.657-0.596-23.673-5.368-34.958-10.274-19.206-8.35-38.672-16.109-58.094-23.955-23.189-9.367-45.983-19.606-65.913-34.925-23.43-18.011-39.604-41.148-44.503-70.762-5.972-36.098 20.124-77.522 54.665-89.117 20.27-6.804 40.675-7.082 60.889-1.775 9.862,2.588 18.845,8.526 29.682,13.635zm-107.972,124.297c0.434-14.661 3.172-26.385 8.109-37.581-1.345,10.374-3.617,20.555-5.242,30.838-1.742,11.028 0.959,14.897 11.338,18.69 3.426-17.032 6.872-34.166 10.318-51.3 0.867,0.155 1.734,0.31 2.6,0.465-3.267,18.298-6.535,36.596-9.765,54.687 21.015,15.298 43.59,25.113 65.44,33.373 3.803-15.825 7.367-30.654 10.931-45.484 0.806,0.169 1.613,0.337 2.419,0.506-2.873,15.506-5.745,31.012-8.704,46.984 5.067,2.093 9.56,3.949 14.505,5.991 2.647-13.484 5.086-25.907 7.524-38.329 0.811,0.138 1.623,0.275 2.434,0.413-1.824,13.067-3.649,26.134-5.554,39.781 4.345,1.412 7.903,2.568 11.893,3.865 3.153-16.038 6.077-30.913 9.001-45.788 0.903,0.163 1.807,0.326 2.711,0.488-2.387,15.563-4.774,31.125-7.214,47.03 2.625,1.117 4.851,2.063 7.506,3.193 3.181-11.47 6.233-22.472 9.285-33.474 0.652,0.176 1.304,0.352 1.956,0.528-2.375,11.582-4.75,23.163-7.246,35.337 3.932,1.686 7.038,3.018 10.294,4.414 2.653-11.44 5.058-21.81 7.463-32.18 0.812,0.147 1.623,0.294 2.435,0.441-1.457,11.48-2.914,22.961-4.424,34.851 7.643,1.401 12.65,9.128 20.72,5.242 12.139-28.055 23.651-56.152 36.39-83.682 13.012-28.121 21.607-57.514 27.04-87.801 3.013-16.798 2.235-33.576-4.588-50.033-8.165-19.696-35.79-34.096-59.239-24.138-20.937,8.891-39.384,21.357-52.067,40.968-3.056,4.726-6.356,9.295-10.543,15.391-12.363-17.599-28.974-24.017-48.787-25.345-19.583-1.313-37.664,2.381-53.64,13.196-21.364,14.463-35.603,50.764-29.168,72.424 5.946-15.189 9.032-30.86 17.231-44.497 0.108,2.626-0.509,4.99-1.22,7.325-4.102,13.477-8.406,26.897-12.225,40.454-1.041,3.695-2.003,8.355-0.661,11.605 4.515,10.933 10.771,20.961 20.744,31.152z"/>
    <path d="m182.786,334.322c-2.411,15.109-4.822,30.217-7.26,45.491-4.329-5.886-0.71-31.399 7.26-45.491z"/>
    <path d="m191.285,388.205c-1.967-14.937 3.693-28.549 7.781-42.469 0.373,14.617-5.019,28.31-7.781,42.469z"/>
    <path d="m124.046,281.9c-3.48,15.277-6.959,30.554-10.9,47.855-1.626-11.179 2.85-32.123 10.9-47.855z"/>
    <path d="m156.253,370.729c-0.154-13.527 3.959-26.326 7.079-39.294 0.697,0.122 1.395,0.243 2.092,0.365-2.306,13.107-4.612,26.214-6.917,39.321-0.752-0.131-1.503-0.261-2.254-0.392z"/>
  </g>
</svg>
