<?xml version='1.0' encoding='iso-8859-1'?>
<!DOCTYPE svg PUBLIC '-//W3C//DTD SVG 1.1//EN' 'http://www.w3.org/Graphics/SVG/1.1/DTD/svg11.dtd'>
<svg version="1.1" xmlns="http://www.w3.org/2000/svg" viewBox="0 0 449.901 449.901" xmlns:xlink="http://www.w3.org/1999/xlink" enable-background="new 0 0 449.901 449.901">
  <g>
    <path d="m449.901,122.162c-1.149,26.756-4.873,52.886-12.529,78.436-10.796,36.027-23.451,71.387-40.764,104.818-13.06,25.22-27.547,49.943-47.611,70.182-15.467,15.602-33.308,28.887-50.402,42.824-6.973,5.685-15.458,7.04-24.031,3.966-12.092-4.335-24.17-8.782-35.979-13.823-65.202-27.835-125.449-63.884-177.317-112.421-38.607-36.126-61.28-80.786-61.268-134.817 0.003-12.74 1.644-25.889 5.062-38.145 11.796-42.294 42.22-65.805 83.261-75.155 44.343-10.103 84.504,1.692 120.447,29.061 4.869,3.708 10.62,6.271 16.012,9.274 4.722,2.63 8.142,0.7 11.603-2.896 18.916-19.648 41.344-34.156 66.343-44.877 26.329-11.292 53.717-15.122 82.022-11.174 30.198,4.211 55.449,27.716 61.268,57.543 2.378,12.19 2.651,24.79 3.883,37.204zm-399.739-18.328c0.534,0.409 1.069,0.819 1.603,1.228-2.196,3.215-4.267,6.525-6.61,9.63-8.212,10.886-16.127,22.03-24.901,32.448-8.045,9.553-9.095,19.588-4.627,31.806 9.566-15.251 18.67-30.022 31.747-41.796-1.071,3.469-2.858,6.48-4.755,9.421-7.79,12.071-15.327,24.321-23.571,36.075-3.149,4.49-3.113,8.486-2.023,13.308 5.694,25.213 15.933,48.213 32.707,68.074 1.507,1.784 3.42,3.225 5.075,4.761 12.054-18.894 23.636-37.049 35.218-55.204 0.798,0.475 1.596,0.949 2.394,1.424-9.455,20.88-23.707,39.24-34.079,60.557 4.547,4.308 8.745,8.286 13.137,12.446 10.081-17.215 19.966-34.096 29.851-50.977 0.757,0.42 1.514,0.84 2.272,1.26-7.035,18.841-19.494,35.088-27.581,54.328 4.774,4.005 9.453,7.93 14.215,11.925 10.359-18.186 20.286-35.611 30.212-53.037 0.845,0.455 1.691,0.909 2.536,1.364-9.54,18.349-19.081,36.698-28.819,55.429 4.889,3.716 8.831,6.713 13.237,10.062 8.975-18.05 18.654-34.278 29.433-49.802 0.753,0.442 1.505,0.885 2.258,1.328-9.262,16.95-18.524,33.899-28.074,51.377 6.406,4.401 11.777,8.091 16.976,11.663 8.304-14.621 16.198-28.52 24.092-42.419 0.864,0.441 1.727,0.882 2.591,1.324-7.079,14.668-14.157,29.336-21.489,44.528 5.885,3.71 10.716,6.755 15.764,9.938 7.962-14.297 15.505-27.843 23.048-41.388 0.765,0.405 1.53,0.809 2.295,1.213-6.828,14.062-13.656,28.125-20.891,43.023 11.322,6.572 22.056,12.804 33.033,19.176 4.534-14.113 11.887-25.992 19.3-37.838 0.798,0.398 1.595,0.795 2.393,1.193-6.195,12.598-12.389,25.196-18.902,38.442 5.477,2.762 10.548,5.32 15.175,7.654 8.085-14.545 15.46-27.814 22.836-41.082 0.781,0.395 1.562,0.791 2.344,1.186-6.678,13.996-13.357,27.993-20.334,42.615 5.216,2.073 9.113,3.621 13.243,5.263 5.766-10.533 11.005-20.102 16.243-29.671 0.72,0.339 1.439,0.677 2.159,1.016-4.551,10.163-9.103,20.326-13.949,31.146 2.82,0.91 5.012,1.617 7.127,2.3 5.623-10.478 10.877-20.267 16.13-30.056 0.754,0.367 1.508,0.735 2.261,1.102-4.533,10.227-9.067,20.454-14.059,31.716 6.317,2.523 11.963,4.778 18.08,7.221 3.513-6.668 6.672-12.663 9.831-18.657 0.482,0.212 0.965,0.423 1.447,0.635-2.557,6.223-5.114,12.445-8.292,20.18 6.855,2.174 12.899,4.791 19.202,5.82 3.585,0.585 8.386-0.333 11.287-2.438 23.611-17.134 46.489-35.139 63.336-59.514 42.193-61.047 68.707-128.322 78.91-201.776 2.629-18.926 2.665-38.238-1.283-57.231-4.668-22.459-24.198-42.9-45.407-46.346-22.498-3.656-44.861-1.818-66.385,5.674-27.532,9.584-51.775,24.709-72.3,45.593-2.569,2.613-5.18,5.607-8.389,7.047-3.061,1.374-7.244,2.024-10.382,1.106-8.449-2.472-16.695-5.732-24.834-9.13-3.668-1.532-7.626-3.485-10.176-6.373-8.42-9.539-19.319-15.447-30.384-20.664-15.285-7.206-31.954-7.86-48.671-7.742-24.153,0.171-45.547,7.994-64.459,22.611-10.331,7.985-19.355,17.3-23.422,30.556 6.448-6.211 12.896-12.422 19.344-18.634-6.534,9.884-14.404,18.407-22.217,26.983-6.298,6.913-8.734,16.489-6.89,26.618 11.272-13.673 22.543-27.345 33.813-41.018z"/>
    <path d="m297.527,297.546c0,5.474 0,10.079 0,15.144-7.25-1.593-6.605-7.854-9.22-12.919-4.312,0-9.034-0.266-13.715,0.053-11.225,0.763-19.282-3.448-23.688-14.085-0.813-1.962-2.121-3.718-3.197-5.564-4.293,0.76-8.109,1.436-11.926,2.113-0.375-0.626-0.751-1.252-1.126-1.878 3.128-2.702 6.256-5.404 10.176-8.79-1.956-4.99-4.043-10.313-6.184-15.776-4.227,0.755-7.69,1.374-11.154,1.993-0.449-0.57-0.898-1.141-1.347-1.711 2.825-2.813 5.649-5.626 8.935-8.898-1.766-4.895-3.62-10.029-5.548-15.373-4.082-0.439-7.899-0.851-14.497-1.561 4.825-3.284 7.565-5.149 11.303-7.693-1.665-6-3.497-12.601-5.405-19.478-3.6-0.703-6.973-1.361-12.427-2.425 4.44-2.675 7.047-4.245 10.324-6.219-0.635-4.782-1.336-9.833-1.972-14.892-1.498-11.916 0.427-15.519 11.25-21.096 1.277-0.659 2.618-1.193 4.546-2.063-1.054-5.372-2.074-10.57-3.359-17.114 7.459,2.493 7.664,9.504 12.506,13.963 5.902-1.422 12.533-3.019 19.731-4.753-0.878-4.997-1.666-9.474-2.62-14.903 7.626,1.778 7.224,8.845 11.585,12.875 3.696-0.69 7.904-1.476 12.704-2.372 0-6.995 0-13.792 0-21.619 9.215,4.178 5.102,13.819 10.776,19.709 2.253-0.471 5.264-1.1 8.395-1.755 0.395-5.672 0.742-10.66 1.181-16.96 7.12,3.914 5.208,11.173 9.651,16.52 2.822-0.203 6.788-0.11 10.596-0.838 8.247-1.577 9.097-1.326 12.165,6.627 1.45,3.759 2.64,7.618 4.222,12.233 3.037-0.327 6.004-0.646 11.442-1.231-3.642,4.446-5.794,7.074-8.422,10.282 0.366,1.819 0.735,4.317 1.392,6.736 0.664,2.445 1.612,4.813 2.651,7.843 4.74-2.806 9.027-5.344 14.207-8.411 0.837,9.732-7.538,12.338-12.05,19.027 1.333,4.657 2.915,10.181 4.69,16.378 5.304-1.709 10.196-3.285 15.966-5.144-0.937,9.049-7.884,10.99-12.787,16.27 0.658,4.532 1.428,9.832 2.323,15.999 5.089-1.468 9.05-2.611 13.834-3.992-0.37,8.44-8.045,9.078-10.302,12.41-0.586,9.186 1.032,18.137-2.193,24.712-3.23,6.586-11.296,10.799-18.412,17.086 0.849,3.037 2.182,7.805 3.703,13.246-9.521,1.332-9.383-7.181-13.852-11.891-2.14,0.786-4.665,1.714-7.462,2.741 1.149,5.801 2.186,11.042 3.372,17.029-10.595,0.543-9.764-8.062-13.656-13.993-5.334,1.373-11.157,2.875-17.105,4.408zm-1.62-147.99c0.648,4.223 1.261,8.225 1.891,12.333-8.561,0.958-8.867-6.528-13.318-10.567-3.641,0.85-7.704,1.798-11.372,2.654 0.457,4.611 0.801,8.083 1.145,11.556-0.757,0.383-1.514,0.765-2.27,1.148-2.834-3.403-5.668-6.806-9.221-11.071-5.649,1.494-11.88,3.142-17.927,4.741 0.44,4.403 0.767,7.681 1.095,10.959-0.715,0.29-1.43,0.581-2.145,0.871-3.022-2.817-6.044-5.633-8.97-8.36-12.075,5.911-13.079,10.889-6.243,29.572 5.082,2.71 11.53-2.362 17.767,3.639-6.137,2.109-11.092,3.811-16.772,5.762 2.095,6.003 3.977,11.393 5.652,16.192 5.711,1.816 11.184-3.764 15.645,2.508-4.139,2.441-8.07,4.758-12.288,7.245 1.938,4.94 3.652,9.307 5.634,14.36 5.473,0 10.635,0 15.797,0 0.205,0.727 0.41,1.453 0.615,2.18-4.25,2.298-8.499,4.595-13.073,7.068 2.287,5.31 4.431,10.288 6.478,15.042 5.255-0.996 9.577-1.815 13.899-2.634 0.251,0.723 0.502,1.447 0.753,2.171-3.586,2.881-7.173,5.762-10.632,8.54 3.445,15.614 7.092,17.291 28.203,14.212 0.915-2.914 1.83-5.829 3.14-10.004 2.477,3.487 4.109,5.785 6.067,8.541 5.993-1.775 11.818-3.501 17.821-5.28 0-4.454 0-7.795 0-11.135 0.652-0.29 1.305-0.579 1.957-0.869 2.714,2.998 5.427,5.995 8.038,8.879 7.138-2.988 7.138-2.988 8.743-11.299 2.802,1.885 5.353,3.601 7.597,5.11 13.773-6.774 14.779-9.115 10.519-23.616-2.964-0.522-6.05-1.066-10.746-1.894 3.739-3.288 6.336-5.571 9.628-8.466-0.741-4.006-1.567-8.468-2.354-12.724-3.847,0.249-6.516,0.422-11.232,0.728 3.782-4.911 6.342-8.236 9.231-11.988-1.597-5.256-3.257-10.72-4.954-16.305-5.106,2.103-9.238,3.805-14.553,5.994 0.932-9.27 8.516-10.804 11.996-16.448-1.34-5.112-2.797-10.671-4.149-15.83-5.876-0.62-9.882,5.264-16.87,1.171 5.146-3.954 9.321-7.162 13.879-10.665-1.435-5.339-2.841-10.566-4.262-15.855-4.358,0-8.082,0-11.59,0-1.17,5.3 4.086,10.716-3.09,15.359-2.823-5.036-5.412-9.654-8.137-14.514-2.05,0.289-4.204,0.592-7.022,0.989z"/>
    <path d="m72.224,167.761c-12.008,21.151-24.016,42.303-36.025,63.454-0.558-0.098-1.115-0.197-1.673-0.295 0.795-3.431 0.825-7.303 2.509-10.22 10.584-18.328 21.537-36.443 32.367-54.628 0.941,0.562 1.881,1.125 2.822,1.689z"/>
    <path d="m61.151,154.111c-11.182,18.124-22.363,36.247-33.995,55.099-0.742-8.159-0.825-8.213 13.4-30.003 5.881-9.008 12.204-17.729 18.326-26.58 0.756,0.495 1.512,0.99 2.269,1.484z"/>
    <path d="m79.207,200.246c-8.944,15.342-17.887,30.684-27.117,46.515-1.385-9.294 9.323-28.924 27.117-46.515z"/>
    <path d="m172.4,354.175c3.667-13.442 10.87-25.141 18.481-37.715-0.444,8.914-8.778,26.731-18.481,37.715z"/>
  </g>
</svg>
