<?xml version='1.0' encoding='iso-8859-1'?>
<!DOCTYPE svg PUBLIC '-//W3C//DTD SVG 1.1//EN' 'http://www.w3.org/Graphics/SVG/1.1/DTD/svg11.dtd'>
<svg version="1.1" xmlns="http://www.w3.org/2000/svg" viewBox="0 0 474.67 474.67" xmlns:xlink="http://www.w3.org/1999/xlink" enable-background="new 0 0 474.67 474.67">
  <g>
    <path d="m0,246.227c24.77-28.264 54.96-27.848 87.31-15.77 0.603-1.456 1.239-2.32 1.293-3.218 2.11-35.307 21.143-58.454 52.867-71.463 25.341-10.391 51.948-12.394 78.814-6.998 8.026,1.612 15.662,5.168 24.159,8.066 3.018-4.961 6.163-10.55 9.701-15.877 24.607-37.052 60.665-48.2 102.711-44.085 13.526,1.324 25.313,8.348 35.138,18.016 3.072,3.023 5.935,6.259 9.347,9.878 2.443-2.837 4.742-5.51 7.045-8.18 11.084-12.851 24.168-22.86 40.58-27.886 19.776-6.056 29.13,1.834 24.57,22.062-2.568,11.389-8.162,22.096-12.901,34.431-0.577-0.287 0.428,0.119 1.338,0.679 9.918,6.096 11.517,11.271 6.089,21.445-2.706,5.072-6.066,9.796-9.159,14.724 13.707,5.423 15.475,10.381 8.224,22.923-2.345,4.057-5.017,7.923-7.518,11.842 0.23,0.747 0.228,1.639 0.67,2.041 8.236,7.469 9.046,11.34 2.902,20.228-7.495,10.843-17.508,19.137-28.251,26.667-15.676,10.989-31.046,22.416-46.785,33.312-11.364,7.867-18.506,18.108-23.491,31.175-10.684,28.007-22.88,55.441-34.554,83.067-4.701,11.124-6.949,12.546-18.898,8.849-19.286-5.967-38.355-12.645-57.438-19.246-2.98-1.031-5.698-3.043-8.289-4.939-18.669-13.666-37.282-27.405-55.889-41.155-3.602-2.661-6.914-3.826-11.891-2.679-16.527,3.808-33.215,7.02-49.958,9.744-7.055,1.148-14.475,1.238-21.6,0.525-14.994-1.5-19.153-7.852-15.647-23.279-3.672-0.952-7.418-1.805-11.093-2.896-12.101-3.592-14.742-9.387-9.754-21.156 0.402-0.948 0.752-1.919 1.37-3.502-5.571-0.806-10.929-1.281-16.151-2.395-12.795-2.73-16.442-11.474-9.259-22.446 2.505-3.827 5.923-7.056 9.449-11.17-4.396-0.953-8.097-1.998-11.871-2.531-16.072-2.267-29.68-8.815-39.64-22.062-0.809-1.077-2.341-1.61-3.537-2.396-0.003-1.449-0.003-2.897-0.003-4.345zm208.903,107.666c4.697-20.128 8.099-38.404 16.932-55.104-4.693,19.087-9.385,38.174-14.066,57.214 6.504,4.586 11.887,8.383 17.443,12.301 4.161-14.691 7.897-27.882 11.633-41.072 0.513,0.148 1.026,0.296 1.539,0.444-3.298,13.924-6.595,27.848-10.085,42.585 3.014,2.165 5.962,4.283 8.928,6.413 5.308-16.008 10.146-30.598 14.984-45.188 0.66,0.222 1.32,0.445 1.98,0.668-4.65,15.47-9.299,30.939-13.955,46.432 20.581,19.318 45.922,25.887 71.441,33.164 2.86-7.45 5.102-13.895 7.775-20.155 15.61-36.551 31.11-73.153 47.069-109.552 12.077-27.545 22.838-55.414 27.845-85.274 3.177-18.949 2.099-37.409-4.142-55.568-6.503-18.92-20.46-30.62-39.351-33.317-33.021-4.713-62.636,3.828-84.57,30.62-7.884,9.63-13.966,20.735-21.35,31.892-1.971-0.947-4.436-2.273-7.008-3.341-7.288-3.028-14.376-7.19-21.979-8.692-27.739-5.481-54.732-2.158-80.41,9.82-19.159,8.937-41.487,33.882-38.459,64.613 2.308-4.647 4.184-8.423 6.06-12.199-3.275,12.976-8.742,25.624 0.513,38.524 5.499-15.294 10.838-30.144 16.176-44.993 1.392,2.606 0.944,4.617 0.355,6.585-3.726,12.451-7.021,25.058-11.369,37.289-3.789,10.657 0.586,17.804 8.246,25.062 5.783-18.097 10.465-35.877 19.371-52.066-3.404,14.022-7.922,27.661-12.077,41.41-5.226,17.295-5.1,17.335 8.76,29.137 0.247,0.211 0.688,0.195 1.831,0.487 5.502-18.318 10.18-37.031 18.842-54.302-3.659,16.604-8.291,32.888-12.691,49.234-3.097,11.506-1.42,14.335 10.44,19.02 1.6-5.54 3.146-11.095 4.817-16.614 1.569-5.182 3.076-10.396 4.966-15.464 1.852-4.962 4.153-9.757 6.257-14.624 0.384,0.19 0.768,0.38 1.152,0.57-4.782,16.569-9.563,33.138-14.348,49.715 4.832,3.751 8.438,7.663 14.017,8.23 1.518-5.873 2.74-11.14 4.26-16.32 1.423-4.849 3.033-9.654 4.798-14.39 1.724-4.626 3.748-9.141 5.64-13.704-0.698,8.22-3.051,15.755-5.307,23.32-2.357,7.9-4.62,15.829-7.078,24.275 4.727,3.151 8.824,5.882 13.3,8.867 4.831-16.751 9.394-32.575 13.958-48.399 0.795,0.21 1.59,0.421 2.385,0.631-4.053,16.977-8.107,33.954-12.178,51.006 5.852,3.787 10.608,6.863 16.71,10.81zm-39.438-10.834c-6.757-4.696-11.892-8.026-16.772-11.696-29.501-22.187-54.569-47.632-62.189-85.699-0.793-3.963-3.012-6.485-6.893-7.356-9.86-2.212-19.656-5.334-29.642-6.202-13.329-1.158-25.637,3.558-36.837,10.729-1.928,1.234-3.139,3.588-5.026,5.835 7.388,10.1 17.113,14.896 28.398,17.147 10.27,2.048 20.559,4.004 30.825,6.075 3.696,0.745 7.159,1.876 6.171,7.455-9.144,5.284-22.373,6.447-24.907,21.163 2.77,0.826 5.053,1.902 7.42,2.138 6.466,0.646 12.973,0.876 19.454,1.398 2.876,0.232 5.96,0.233 8.516,1.339 2.003,0.866 4.028,3.051 4.682,5.088 0.33,1.026-2.142,3.325-3.749,4.5-1.699,1.244-4.1,1.531-5.795,2.778-3.227,2.374-6.323,5.066-4.466,10.022 0.891,0.442 1.796,1.155 2.801,1.349 7.44,1.434 14.96,2.515 22.321,4.268 2.494,0.594 4.602,2.804 6.887,4.276-1.569,2.089-2.765,4.704-4.794,6.144-2.961,2.1-6.543,3.337-5.78,9.206 2.652,0.568 5.651,1.558 8.703,1.761 2.807,0.187 7.893,0.119 8.153-0.856 1.835-6.876 4.336,3.507 6.036-0.463 1.215-2.837 2.965-5.445 4.507-8.209 0.255,2.209 0.52,4.496 0.855,7.396 13.44-3.133 26.383-6.151 41.121-9.586zm292.683-246.495c-2.282,0.23-3.732,0.204-5.092,0.539-20.044,4.932-34.386,17.592-46.222,33.829-3.28,4.499-3.921,8.631-2.234,14.021 5.726,18.296 5.751,36.906 2.399,55.717-4.527,25.405-12.246,49.757-22.837,73.248-1.918,4.254-3.56,8.633-5.329,12.954 0.581,0.29 1.162,0.579 1.742,0.869 7.106-5.478 14.212-10.955 21.639-16.681-0.247-6.216 0.981-12.113 6.261-16.602-1.071,4.254-2.141,8.508-3.308,13.145 11.518-2.092 11.193-13.551 18.186-20.558-1.428,4.687-2.388,7.835-3.956,12.981 13.797-8.993 25.019-17.306 31.446-30.805-3.149,0.064-5.673,1.528-8.307,1.761-2.556,0.227-5.224-0.808-7.843-1.289 0.55-2.553 0.384-5.624 1.786-7.561 4.01-5.542 8.889-10.452 12.968-15.951 2.583-3.481 4.346-7.571 7.648-13.487-5.479,1.258-8.165,2.243-10.897,2.397-2.635,0.148-6.053,0.346-7.822-1.088-3.278-2.658-0.84-5.863 1.023-8.574 4.707-6.852 9.6-13.584 14.074-20.583 1.561-2.442 2.114-5.529 3.34-8.905-7.89,0.475-8.012,0.326-13.694,5.008-3.384,2.788-6.761,4.883-10.352,1.142-3.622-3.774 0.282-6.5 2.166-9.354 5.772-8.743 12.045-17.195 17.237-26.268 5.025-8.78 8.815-18.218 5.978-29.905z"/>
    <path d="m145.635,133.991c-5.615-1.178-13.198-2.084-20.308-4.427-9.965-3.284-11.497-9.486-4.398-17.003 4.683-4.958 9.846-9.715 15.533-13.428 27.052-17.661 55.781-32.114 86.846-41.172 21.982-6.409 44.765-8.149 67.608-6.89 5.127,0.282 10.758,2.363 15.01,5.286 8.922,6.132 9.401,12.065 1.651,19.601-5.382,5.234-11.503,10.088-18.088,13.638-26.463,14.268-54.22,25.478-83.456,32.729-14.018,3.477-28.126,6.617-42.263,9.58-5.268,1.103-10.734,1.269-18.135,2.086zm-22.103-12.922c12.163,5.366 22.574,5.893 32.967,4.063 36.729-6.467 72.54-16.383 106.865-31.017 12.903-5.501 25.351-12.281 37.412-19.475 8.19-4.884 7.052-11.107-1.799-14.803-1.319-0.551-2.774-1.008-4.185-1.07-8.266-0.362-16.759-1.932-24.763-0.606-20.246,3.355-40.793,6.394-60.264,12.573-26.912,8.54-51.753,22.146-74.626,38.922-3.914,2.875-7.022,6.849-11.607,11.413z"/>
    <path d="m273.714,349.248c-0.91,3.381-1.658,6.815-2.761,10.131-2.804,8.431-5.767,16.808-9.471,27.541 0.054-12.163 3.258-22.566 12.232-37.672z"/>
    <path d="m401.719,264.127c-0.683,2.049-1.366,4.097-2.049,6.146-0.413-0.14-0.826-0.279-1.239-0.419 0.733-2.031 1.466-4.063 2.199-6.094 0.363,0.122 0.726,0.244 1.089,0.367z"/>
    <path d="m170.179,111.73c-2.706-0.242-6.042-0.102-9.13-0.911-5.638-1.477-6.862-5.499-2.73-9.482 2.793-2.692 6.227-5.092 9.813-6.525 15.046-6.014 30.136-11.965 45.451-17.239 9.859-3.395 20.069-5.872 30.253-8.177 5.555-1.257 11.378-1.631 17.096-1.771 4.007-0.098 8.336,0.945 9.74,5.387 1.507,4.772-2.242,7.548-5.671,9.336-8.288,4.321-16.603,8.854-25.393,11.898-20.051,6.942-39.811,15.185-61.333,16.852-2.517,0.195-5.033,0.393-8.096,0.632zm-4.968-7.749c25.664,2.367 87.425-16.771 97.347-30.399-33.987,5.008-67.252,12.437-97.347,30.399z"/>
  </g>
</svg>
