<?xml version='1.0' encoding='iso-8859-1'?>
<!DOCTYPE svg PUBLIC '-//W3C//DTD SVG 1.1//EN' 'http://www.w3.org/Graphics/SVG/1.1/DTD/svg11.dtd'>
<svg version="1.1" xmlns="http://www.w3.org/2000/svg" viewBox="0 0 426.33 426.33" xmlns:xlink="http://www.w3.org/1999/xlink" enable-background="new 0 0 426.33 426.33">
  <g>
    <path d="m213.695,74.306c1.481-1.048 2.552-1.489 3.164-2.284 24.458-31.786 57.464-48.556 96.307-55.52 14.991-2.688 29.775-6.06 45.038-2.003 23.152,6.153 43.462,16.54 54.704,38.988 7.496,14.969 11.122,31.181 12.76,47.909 2.742,27.997-3.342,54.345-12.617,80.539-16.229,45.834-42.135,86.272-68.417,126.594-17.176,26.353-34.046,52.906-51.307,79.203-4.944,7.532-10.639,14.591-16.25,21.659-3.443,4.337-7.413,5.262-13.353,3.436-23.907-7.35-46.622-17.272-69.203-27.982-36.799-17.455-69.689-41.204-104.108-62.462-27.097-16.736-49.671-38.719-66.568-65.879-45.952-73.869-22.41-156.625 44.245-196.366 30.427-18.141 63.322-23.64 98.047-12.906 11.946,3.692 22.447,9.839 32.553,16.924 4.973,3.486 10.058,6.811 15.005,10.15zm-194.419,75.124l-.219-.212c-4.884,5.982-6.793,17.558-4.124,27.192 15.869-18.354 29.859-37.792 47.577-53.931-1.246,3.45-3.197,6.323-5.375,9.011-13.205,16.295-26.456,32.552-39.705,48.812-4.954,6.08-4.971,6.067-1.094,12.062 11.747-13.38 23.493-26.757 35.239-40.135 0.584,0.475 1.167,0.95 1.751,1.425-1.996,2.806-3.845,5.732-6.015,8.397-9.136,11.217-18.134,22.56-27.673,33.427-4.125,4.699-5.362,8.724-0.961,14.253 9.723-12.28 19.245-24.307 28.767-36.333 0.61,0.375 1.22,0.751 1.83,1.126-1.19,2.019-2.246,4.132-3.592,6.04-7.295,10.345-14.75,20.579-21.936,30.999-1.527,2.214-3.568,5.444-2.976,7.522 3.212,11.265 7.491,22.158 15.126,32.347 4.505-6.575 8.253-12.284 12.251-17.813 4.013-5.549 8.275-10.919 12.427-16.367 0.642,0.472 1.283,0.944 1.925,1.416-7.932,12.289-15.864,24.578-23.968,37.132 10.568,13.98 20.045,28.363 35.11,38.27 3.67-5.836 6.688-10.74 9.81-15.576 6.109-9.46 6.134-9.445 12.243-13.21-6.471,11.244-12.348,21.454-18.452,32.061 4.302,3.273 7.947,6.047 11.431,8.698 5.982-8.885 11.464-17.027 16.946-25.169 0.702,0.449 1.403,0.898 2.105,1.347-5.092,8.48-10.183,16.96-15.798,26.312 3.636,2.313 6.806,4.329 9.552,6.076 7.666-10.626 14.721-20.406 21.777-30.187 0.789,0.515 1.578,1.031 2.367,1.546-6.387,10.181-12.773,20.363-19.589,31.228 5.433,3.197 9.869,5.808 14.355,8.448 6.458-11.042 12.234-21.111 22.265-28.087-6.264,9.875-12.529,19.751-19.095,30.102 3.87,2.471 7.119,4.546 10.667,6.811 8.252-10.291 16.148-20.138 24.044-29.985 0.772,0.586 1.544,1.173 2.316,1.759-7.337,10.322-14.674,20.644-22.311,31.388 4.568,2.882 8.408,5.305 12.324,7.776 8.862-11.361 17.056-21.866 25.25-32.37 0.793,0.576 1.586,1.153 2.38,1.729-7.428,10.883-14.856,21.766-22.836,33.457 4.751,2.642 8.962,4.983 13.197,7.338 8.828-11.037 16.32-22.064 25.501-31.611 0.616,0.492 1.233,0.983 1.849,1.475-7.683,10.693-15.366,21.386-23.359,32.509 30.492,17.628 61.889,30.155 94.53,42.663 4.007-5.44 8.545-11.022 12.461-17.012 22.957-35.11 45.639-70.4 68.666-105.463 22.12-33.681 41.109-68.874 54.271-107.104 11.925-34.637 12.881-69.111 1.241-104.112-9.452-28.421-39.367-43.426-63.509-41.85-44.43,2.901-83.811,18.378-113.885,53.019-2.774,3.195-6.025,5.975-9.428,9.314-11.466-7.025-22.089-13.807-32.972-20.144-23.89-13.912-49.394-18.327-76.238-10.998-15.633,4.268-31.042,9.548-43.232,21.122-9.426,4.403-15.081,12.694-20.664,21.089 7.071-6.836 14.142-13.672 21.213-20.507 4.838,2.459 0.38,4.063-0.781,5.295-10.828,11.494-21.691,22.962-32.826,34.156-7.109,7.147-11.085,15.777-13.208,25.355-0.452,2.045 0.664,4.439 1.057,6.672z"/>
    <path d="m316.665,191.184c2.198-3.352 3.614-5.287 4.798-7.356 4.577-7.999 11.707-10.669 20.289-8.93 13.06,2.646 27.097,13.545 21.728,33.628-3.634,13.592-12.3,22.194-25.796,24.674-5.938,1.091-12.482-1.111-18.789-2.452-4.271,0.925-4.628,4.018-3.552,8.019 1.688,6.276 3.262,12.594 4.565,18.959 1.782,8.707 0.822,10.561-7.596,13.995-5.338,2.177-10.789,4.469-16.41,5.478-12.301,2.206-18.568-4.088-17.358-16.595 0.521-5.385 1.543-10.77 1.502-16.149-0.063-8.229-5.727-11.284-13.085-7.529-7.783,3.972-11.287,11.948-8.07,20.081 1.972,4.985 5.182,9.468 7.629,14.281 1.912,3.759 3.507,7.68 5.402,11.881-11.611,8.779-24.509,12.224-37.292,15.659-1.699,0.457-5.743-2.184-6.323-4.107-3.836-12.718-8.857-25.369-5.776-39.147 0.229-1.023 0.198-2.147 0.06-3.193-0.088-0.663-0.6-1.269-1.083-2.214-5.145-2.565-8.668,1.125-12.192,3.953-1.922,1.542-3.118,3.959-4.774,5.866-7.149,8.232-15.339,10.001-26.47,5.792-10.084-3.812-13.536-9.367-13.787-20.764-0.399-18.086 8.48-28.985 30.418-26.315 3.211,0.391 6.42,0.872 9.644,1.047 0.96,0.052 1.969-0.795 4.005-1.693-2.78-14.524-7.091-28.762-13.324-43.695 9.804-4.809 19.279-8.777 29.676-9.696 2.091-0.185 4.66,2.457 6.594,4.245 0.877,0.811 0.678,2.735 1.072,4.125 3.881,13.683 7.663,16.398 21.452,15.443 11.34-0.785 18.358-9.497 16.69-20.718-2.526-17-2.547-17.106 13.913-20.383 6.715-1.337 13.531-2.193 20.329-3.054 1.295-0.164 2.718,0.671 4.447,1.146 3.902,14.497 1.783,30.024 7.464,45.718zm-110.396-10.858c3.135,10.694 6.154,20.686 8.981,30.731 2.356,8.371-2.943,15.488-11.55,15.386-3.216-0.038-6.415-0.978-9.633-1.419-15.662-2.143-23.562,4.795-23.276,20.23 0.101,5.454 1.725,9.63 6.824,12.541 5.004,2.857 8.219-0.478 11.876-2.427 7.532-4.016 14.722-8.78 22.515-12.175 11.507-5.014 18.245,0.208 17.273,12.436-0.962,12.118 3.315,22.981 7.319,34.451 5.385-1.763 9.523-3.006 13.573-4.489 2.268-0.83 4.389-2.06 7.575-3.589-3.316-4.7-6.255-8.687-9.006-12.801-5.978-8.939-5.831-22.319 0.986-28.029 4.919-4.12 10.485-7.773 16.309-10.439 10.925-5 21.541,1.516 22.417,13.346 0.345,4.664-0.105,9.385-0.153,14.08-0.036,3.478-0.007,6.956-0.007,12.221 6.22-1.342 10.818-2.335 15.484-3.342 0-8.813-0.373-16.401 0.08-23.938 0.877-14.587 9.423-20.599 23.13-16.368 5.778,1.784 11.147,1.056 15.122-2.985 9.053-9.205 9.858-25.151 2.515-36.337-3.902-5.944-12.12-6.344-16.22-0.604-1.663,2.329-2.506,5.232-4.092,7.631-6.155,9.31-17.343,8.889-22.503-0.975-1.645-3.145-2.617-6.764-3.266-10.282-1.493-8.086-2.598-16.244-3.95-24.951-6.326,0.824-12.276,1.598-18.231,2.374 3.418,25.241-4.444,31.253-22.49,40.149-4.886,2.409-12.277,1.827-17.867,0.274-11.21-3.113-14.074-14.48-19.455-23.846-3.756,1.15-7.084,2.168-10.28,3.146z"/>
    <path d="m29.767,233.183c1.377-8.746 13.323-27.294 26.73-41.502-1.313,7.792-18.38,34.291-26.73,41.502z"/>
    <path d="m19.276,149.43c0.24-1.329 0.059-2.974 0.784-3.938 10.817-14.392 22.937-27.577 37.736-38.621-1.172,1.787-2.145,3.749-3.546,5.333-10.237,11.579-20.525,23.113-30.909,34.56-1.052,1.16-2.84,1.652-4.285,2.454 0.001-2.84217e-14 0.22,0.212 0.22,0.212z"/>
    <path d="m187.818,360.451c6.755-9.402 13.51-18.804 20.265-28.206 0.707,0.479 1.414,0.958 2.121,1.437-5.028,10.653-11.976,20.045-19.357,29.154-1.01-0.795-2.019-1.59-3.029-2.385z"/>
    <path d="m74.524,234.333c-6.128,10.148-12.255,20.297-19.514,32.319 0.051-9.798 5.445-19.169 19.514-32.319z"/>
    <path d="m67.027,279.94c5.578-9.645 11.156-19.29 16.734-28.935 0.808,0.443 1.616,0.886 2.423,1.329-4.454,10.284-9.747,20.125-16.232,29.337-0.974-0.577-1.95-1.154-2.925-1.731z"/>
    <path d="m228.279,345.244c-6.558,8.28-13.033,16.456-19.509,24.632-0.671-0.523-1.342-1.046-2.012-1.569 5.048-9.163 11.634-17.199 19.256-24.456 0.096-0.092 0.859,0.517 2.265,1.393z"/>
    <path d="m221.418,378.039c3.462-8.221 8.728-15.165 16.666-20.257-4.871,7.174-9.741,14.348-14.612,21.521-0.685-0.421-1.369-0.843-2.054-1.264z"/>
  </g>
</svg>
