<?xml version='1.0' encoding='iso-8859-1'?>
<!DOCTYPE svg PUBLIC '-//W3C//DTD SVG 1.1//EN' 'http://www.w3.org/Graphics/SVG/1.1/DTD/svg11.dtd'>
<svg version="1.1" xmlns="http://www.w3.org/2000/svg" viewBox="0 0 458.091 458.091" xmlns:xlink="http://www.w3.org/1999/xlink" enable-background="new 0 0 458.091 458.091">
  <g>
    <path d="m316.869,368.954c-2.358,4.569-4.616,8.197-6.164,12.106-2.706,6.837-4.521,14.056-7.574,20.718-2.417,5.275-5.44,10.614-9.402,14.774-9.964,10.463-24.305,8.88-31.677-3.607-2.87-4.862-4.471-10.913-5.043-16.585-0.771-7.647-0.011-15.45 0.135-23.186 0.062-3.312 0.436-6.63 0.318-9.932-0.529-14.73-7.135-20.972-21.638-19.847-7.311,0.568-14.516,2.805-21.819,3.113-18.342,0.774-36.744,1.695-55.059,0.969-12.363-0.49-22.172-7.775-28.896-18.198-3.01-4.666-7.108-6.611-11.813-9.003-15.69-7.978-32.412-15.028-45.934-25.916-20.6-16.588-29.767-41.051-34.051-66.479-3.987-23.662 0.411-46.84 9.964-68.944 14.718-34.053 41.396-50.464 77.642-52.553 22.29-1.285 44.166,0.632 64.853,10.011 0.994,0.451 2.069,0.784 3.142,0.98 0.684,0.125 1.432-0.103 2.783-0.235 0.875-8.895 1.729-17.907 2.669-26.91 0.267-2.56 0.651-5.123 1.207-7.635 9.656-43.615 40.009-69.883 83.641-80.595 50.724-12.453 103.744,35.538 106.064,81.229 0.54,10.644 1.392,21.276 2.33,31.893 0.214,2.422 0.682,5.431 2.218,7.033 16.326,17.018 20.233,38.886 23.474,60.771 1.933,13.055 2.321,26.367 2.933,39.585 1.383,29.858-8.253,56.478-24.526,81.039-4.475,6.754-9.327,13.283-13.425,20.256-6.9,11.741-9.366,24.213-7.694,38.105 1.941,16.134 4.541,31.984 8.962,47.634 2.638,9.34 2.061,18.888-1.392,28.229-4.802,12.992-14.61,19.03-27.704,20.211-8.179,0.738-15.109-2.348-20.27-9.035-8.012-10.381-10.722-22.449-11.193-35.176-0.368-9.94-0.373-19.893-0.605-29.838-0.118-5.219-1.51-9.958-6.456-14.982zm-197.247-62.214c1.22-1.595 1.544-1.838 1.607-2.135 0.228-1.071 0.449-2.154 0.529-3.243 1.427-19.528 12.071-32.972 30.056-38.349 25.257-7.551 50.285-6.338 72.249,10.803 3.641,2.842 7.032,3.501 11.21,2.516 9.525-2.245 16.785-10.384 17.346-21.714 0.489-9.874-0.482-19.84-1.097-29.747-1.514-24.389 4.518-46.007 22.909-63.101 13.419-12.472 29.096-8.643 34.456,8.687 2.599,8.404 3.821,17.226 5.934,25.792 1.486,6.027 2.903,12.163 5.316,17.841 2.041,4.801 5.965,9.275 11.552,9.115 6.269-0.179 10.628-4.641 13.552-10.092 1.034-1.927 1.916-4.077 2.237-6.219 1.194-7.98 2.616-15.974 3.029-24.01 0.492-9.56-0.618-19.219 0.123-28.744 1.458-18.727 5.804-36.028 28.101-41.599-0.693-7.333-1.578-14.226-1.957-21.146-1.356-24.764-10.327-45.769-29.974-61.578-11.578-9.317-23.684-18.843-39.214-18.315-30.2,1.027-56.851,11.34-77.583,34.378-10.704,11.895-14.86,26.339-15.425,42.865 3.599-3.477 7.197-6.954 12.058-11.651-4.524,6.224-7.969,10.984-11.437,15.726-3.389,4.633-7.096,9.182-3.585,16.113 6.986-6.543 13.567-12.708 20.148-18.872-4.175,6.98-9.084,13.297-14.735,18.861-6.157,6.062-9.792,12.557-8.286,21.504 0.432,2.568-0.605,5.384-1.118,9.191-2.801-1.414-4.929-1.781-5.746-3.016-5.082-7.672-13.188-10.161-21.134-13.197-21.703-8.292-44.192-8.396-66.475-4.772-23.584,3.836-41.224,17.298-51.701,39.057-2.877,5.976-6.486,11.506-5.931,19.358 0.465,6.585-3.962,13.414-5.604,20.283-1.134,4.743-1.212,9.738-1.762,14.62 0.599,0.179 1.198,0.358 1.797,0.537 8.84-13.578 17.68-27.155 26.521-40.733 0.637,0.387 1.273,0.774 1.91,1.16-1.612,3.134-3.095,6.343-4.861,9.388-6.84,11.797-13.735,23.563-20.68,35.298-3.713,6.275-3.964,12.407 0.566,19.147 10.422-16.534 19.7-33.411 32.45-47.915-0.981,3.574-2.679,6.692-4.503,9.735-7.389,12.324-14.477,24.847-22.351,36.854-5.075,7.739-3.887,14.003 2.257,21.127 10.821-18.596 19.946-37.566 35.019-52.624-11.178,19.664-22.355,39.328-33.444,58.836 2.865,3.95 4.84,6.672 7.37,10.159 3.137-5.763 5.511-10.295 8.046-14.735 2.74-4.799 5.535-9.572 8.483-14.245 2.541-4.028 5.332-7.898 8.012-11.839 0.495,0.354 0.99,0.707 1.486,1.061-7.966,14.384-15.932,28.768-24.237,43.764 2.728,2.539 4.952,4.609 7.398,6.886 3.709-5.885 6.75-10.927 10.011-15.822 3.205-4.809 6.633-9.469 9.964-14.194 0.534,0.388 1.068,0.776 1.602,1.163-6.229,10.561-12.457,21.122-19.3,32.725 13.326,6.897 25.218,13.048 36.836,19.057zm145.904,39.119c1.931,4.763 4.556,8.72 4.964,12.893 0.487,4.98-1.292,10.136-1.434,15.234-0.256,9.178-0.579,18.42 0.24,27.534 0.407,4.535 2.616,9.574 8.105,10.866 5.758,1.355 9.12-2.795 11.458-6.872 5.113-8.917 9.607-18.191 14.265-27.364 1.829-3.601 3.018-7.587 5.205-10.936 5.258-8.053 12.972-8.302 19.036-0.831 5.127,6.317 6.488,13.931 6.743,21.75 0.24,7.365 0.011,14.744 0.131,22.114 0.158,9.643 1.267,19.133 5.902,27.815 2.827,5.296 5.864,10.161 13.217,9.833 7.578-0.338 13.517-2.826 17.295-9.749 4.878-8.94 4.967-18.119 2.665-27.834-3.384-14.281-6.79-28.606-9.072-43.089-3.278-20.802 0.425-40.337 13.419-57.548 2.661-3.524 5.105-7.217 7.55-10.898 12.627-19.011 21.138-39.504 22.972-62.527 2.005-25.175-0.591-49.971-6.57-74.349-2.252-9.18-6.032-18.155-10.334-26.603-2.911-5.717-7.245-12.074-15.075-11.081-7.826,0.993-10.987,7.831-13.985,14.21-0.618,1.316-1.076,2.793-1.216,4.234-0.744,7.656-1.699,15.313-1.939,22.99-0.299,9.57 0.253,19.165 0.019,28.739-0.218,8.92-2.012,17.557-6.811,25.298-9.507,15.332-25.776,16.774-37.943,3.446-6.808-7.457-8.727-16.765-10.475-26.253-1.464-7.95-2.956-15.947-5.256-23.68-2.966-9.974-8.25-11.186-16.201-4.356-1.114,0.957-2.126,2.041-3.131,3.117-13.166,14.081-17.32,31.152-16.543,49.865 0.458,11.034 1.513,22.089 1.17,33.1-0.495,15.861-12.06,28.709-26.543,30.939-5.694,0.877-10.303,0.213-14.885-4.465-4.21-4.298-9.986-7.701-15.698-9.76-13.029-4.697-26.887-5.504-40.347-3.053-7.674,1.398-15.32,5.239-21.946,9.562-9.767,6.373-13.751,17.552-12.327,27.999 1.075,7.886 4.215,16.852 10.57,23.318 0.41,0.418 1.351,0.314 2.213,0.487 5.615-7.635 11.284-15.344 16.954-23.053 0.594,0.428 1.188,0.856 1.782,1.284-5.282,8.174-10.564,16.349-16.217,25.098 2.649,1.284 4.45,2.157 5.929,2.874 7.353-10.621 14.303-20.659 21.252-30.697-2.961,12.041-12.391,20.409-16.154,32.646 23.304,2.507 45.377,0.76 65.673-4.115 6.417-10.539 13.332-18.523 22.99-24.127-5.839,7.091-11.679,14.182-18.032,21.897 8.538,2.251 13.39,0.523 17.542-5.718 3.462-5.204 8.656-9.257 13.082-13.819 0.352,0.347 0.704,0.694 1.055,1.042-5.06,6.094-10.12,12.188-15.348,18.485 3.9,3.529 6.532,2.218 9.294-0.106 2.164-1.821 4.587-3.334 6.894-4.983 0.186,0.333 0.372,0.667 0.558,1-2.392,2.62-4.785,5.241-7.508,8.224 3.477,2.479 6.365,4.538 9.258,6.601 6.878-6.111 12.555-12.736 20.878-15.799-2.656,3.54-5.828,6.44-8.964,9.377-3.217,3.016-6.4,6.068-10.326,9.794z"/>
    <path d="m100.389,285.297c5.019-7.295 10.038-14.59 15.057-21.885-2.033,9.266-7.084,16.539-15.057,21.885z"/>
    <path d="m392.158,232.891c-1.406,9.94-2.572,21.648-4.834,33.14-1.975,10.032-8.313,17.952-15.522,24.891-4.458,4.291-10.174,4.672-14.171,2.01-3.748-2.496-5.031-8.122-2.785-13.987 1.44-3.762 3.431-7.311 5.145-10.97 5.027-10.735 8.468-21.767 8.715-33.859 0.099-4.825 1.992-9.982 4.343-14.292 2.468-4.523 7.427-6.116 12.503-4.63 4.984,1.459 6.052,5.978 6.572,10.492 0.208,1.812 0.034,3.667 0.034,7.205zm-5.396-8.033c-0.795-0.997-2.446-5.057-5.194-6.035-3.879-1.381-6.818,2.073-7.923,5.895-0.8,2.772-0.874,5.765-1.165,8.669-0.512,5.116-0.532,10.318-1.492,15.344-2.015,10.543-5.162,20.668-12.087,29.299-2.319,2.89-3.965,6.826-0.387,9.872 3.595,3.06 7.289,0.848 9.678-1.991 7.048-8.375 15.546-16.153 16.748-27.866 1.047-10.211 1.168-20.517 1.822-33.187z"/>
    <path d="m344.14,409.622c1.52-6.963 2.457-12.718 4.094-18.267 1.217-4.126 4.628-4.434 7.952-2.477 1.834,1.08 3.853,2.667 4.669,4.519 5.241,11.898 9.107,24.106 3.184,36.89-1.075,2.321-4.06,5.455-5.933,5.306-2.743-0.218-6.671-2.497-7.638-4.89-2.828-6.997-4.44-14.486-6.328-21.081zm9.003-17.191c-4.011,9.574-4.722,25.45-1.736,32.941 0.919,2.306 3.123,4.1 5.525,7.116 8.177-15.062 3.56-26.845-3.789-40.057z"/>
    <path d="m189.93,332.433c6.736-8.255 13.471-16.51 20.207-24.765 0.594,0.457 1.188,0.913 1.783,1.369-5.446,9.358-12.027,17.871-19.694,25.576-0.766-0.726-1.531-1.453-2.296-2.18z"/>
    <path d="m206.398,330.476c5.939-6.675 11.877-13.35 17.816-20.026-3.001,9.115-9.478,15.413-15.446,22.115-0.79-0.696-1.58-1.392-2.37-2.089z"/>
    <path d="m188.197,314.619c-1.148,1.755-2.224,3.563-3.457,5.256-4.085,5.61-8.228,11.179-13.019,16.292 2.061-9.582 9.088-15.831 16.476-21.548z"/>
  </g>
</svg>
