<?xml version='1.0' encoding='iso-8859-1'?>
<!DOCTYPE svg PUBLIC '-//W3C//DTD SVG 1.1//EN' 'http://www.w3.org/Graphics/SVG/1.1/DTD/svg11.dtd'>
<svg version="1.1" xmlns="http://www.w3.org/2000/svg" viewBox="0 0 407.223 407.223" xmlns:xlink="http://www.w3.org/1999/xlink" enable-background="new 0 0 407.223 407.223">
  <g>
    <path d="m330.526,286.055c-7.777,8.118-14.636,18.147-28.166,15.14-4.528,4.125-8.791,8.009-13.111,11.945 4.417,15.963-3.85,22.251-23.425,18.609-5.751,4.619-10.984,8.822-17.879,14.36-0.367,1.233-1.337,4.766-2.469,8.246-3.091,9.498-10.526,15.102-20.46,15.521-2.925,0.123-6.415-0.732-8.67,0.562-6.953,3.991-12.599,1.896-17.789-2.667-13.538,9.646-16.428,8.946-24.87-5.628-13.5-3.333-14.062-3.982-14.869-16.3-4.336-3.605-8.166-6.789-12.642-10.509-6.558,2.115-14.13,3.326-21.324-1.018-6.776-4.092-7.683-8.928-4.076-20.416-6.706-6.659-13.979-11.974-23.4-15.082-5.332-1.759-9.288-7.687-14.558-12.352-9.574,7.702-21.159,10.175-32.905,2.023-9.105-6.32-10.569-16.75-6.207-35.115-35.496-4.106-42.353-19.221-26.891-50.326-7.175-1.813-11.914-5.577-10.375-13.942 0.213-1.156-0.648-2.962-1.599-3.807-7.745-6.889-4.955-14.808-0.253-20.829 5.168-6.617 6.861-13.379 6.701-21.828-0.494-0.392-1.36-1.049-2.192-1.745-7.49-6.261-8.026-8.474-3.523-16.726 2.528-4.633 5.785-8.128 4.139-14.86-1.657-6.779 5.388-10.38 11.062-12.525 2.485-20.976 2.485-20.976 19.684-27.399 2.308-5.561 3.172-12.292 6.993-15.496 3.599-3.019 10.316-2.322 16.871-3.472 3.411-6.268 9.796-8.513 17.961-7.314 2.172,0.319 4.734-0.989 6.922-1.98 8.731-3.954 15.687-1.488 19.843,7.41 1.754,3.757 3.156,7.679 5.722,13.999 1.936-4.76 2.804-6.919 3.692-9.07 1.668-4.038 2.722-8.499 5.138-12.026 7.896-11.526 20.235-11.103 27.752,0.658 1.576,2.466 2.822,5.144 3.378,6.17 8.157,2.435 15.341,3.732 21.741,6.713 7.312,3.406 9.447,10.452 7.098,19.135 0.917-0.145 1.835-0.29 2.752-0.435 0.761-1.646 1.588-3.265 2.271-4.943 2.07-5.082 3.377-10.634 6.264-15.19 6.495-10.249 15.279-10.923 23.807-2.488 1.289,1.274 2.293,2.836 3.662,4.559 11.751,2.017 21.214-11.777 33.816-4.303 1.441-2.691 2.448-4.521 3.41-6.374 4.901-9.447 13.864-13.155 24.033-10.101 5.388,1.617 9.019,4.786 10.319,10.387 0.823,3.542 1.701,7.071 3.116,12.936 1.681-5.218 2.518-8.374 3.705-11.393 3.212-8.169 8.91-10.858 16.609-6.597 4.567,2.527 8.261,2.861 13.222,1.744 8.352-1.881 12.183,0.653 18.246,9.326 5.809,1.312 11.895,1.186 15.793,4.045 3.063,2.247 3.423,8.18 5.56,14.06 9.649,3.53 18.264,10.318 17.418,24.165 2.808,1.682 5.3,3.196 7.814,4.674 3.892,2.287 6.233,5.969 5.279,10.13-1.423,6.211 1.724,10.551 4.212,15.459 3.894,7.682 3.151,10.272-3.889,17.217-4.428,4.368-5.688,12.766-2.133,17.644 5.627,7.722 7.877,14.747 2.185,24.199-3.378,5.608-2.275,13.859-10.401,17.603 9.7,11.094 10.269,22.366 2.998,33.973-7.02,11.206-18.002,15.707-31.343,17.196 1.367,5.393 2.859,10.226 3.791,15.165 2.447,12.967-3.817,20.78-17.037,20.89-5.803,0.047-11.617-0.972-18.523-1.607zm-40.399-167.805c-8.172,3.061-9.101,5.227-7.613,17.806 2.462-6.034 4.912-12.038 7.341-18.061 2.256-1.947 5.636-3.276 2.547-7.763-0.758,2.672-1.517,5.345-2.275,8.018zm-209.712,18.394c-2.692,7.487-10.063,4.046-14.895,6.286-6.114,12.127-5.867,22.622 0.639,29.73 4.219,4.61 12.754,6.797 18.133,4.646 4.848-1.939 7.028-7.128 5.699-15.095-0.654-3.924-2.003-7.782-3.441-11.514-1.838-4.769-4.083-9.38-6.151-14.06 5.093,1.814 10.314,3.335 15.249,5.507 8.937,3.932 18.312,2.176 21.222-4.367 2.28-5.125-0.564-14.378-5.793-18.85-4.256-3.639-10.002-4.326-15.189-0.616-3.349,2.395-5.734,6.172-8.441,9.422-2.422,2.905-4.694,5.935-7.032,8.911zm246.813,1.328c-1.653-4.037-3.099-8.175-5-12.092-4.371-9.005-16.412-12.618-23.093-7.098-6.04,4.991-8.672,14.427-5.497,19.709 3.472,5.774 11.655,7.531 19.666,4.107 2.015-0.861 3.782-2.367 5.837-3.052 2.706-0.902 5.584-1.286 8.388-1.893-1.283,4.149-2.812,8.241-3.792,12.46-1.395,6.01-3.104,12.083-3.356,18.184-0.269,6.527 3.014,9.15 9.463,9.583 10.354,0.695 18.304-6.137 19.188-16.881 0.549-6.671-0.553-13.07-3.395-16.886-7.49-2.497-12.949-4.317-18.409-6.141zm-83.94,48.402c-1.009-0.939-2.018-1.879-3.027-2.818 2.053-3.164 3.856-6.529 6.21-9.449 5.081-6.304 10.849-12.087 15.595-18.62 6.532-8.992 11.881-18.629 11.807-30.347-0.112-17.623-14.009-27.27-30.832-21.524-9.317,3.182-16.388,9.102-19.814,18.011-3.66,9.518-5.945,19.595-8.409,29.533-1.513,6.102-2.406,12.284-9.256,14.52-7.631-3.713-9.961-9.891-10.701-17.253-1.156-11.499-4.35-22.34-10.92-32.071-6.014-8.907-14.511-13.559-24.936-14.307-12.814-0.919-21.738,7.592-22.439,20.343-0.48,8.74 0.939,17.103 5.95,24.247 6.324,9.016 13.404,17.5 20.073,26.277 2.545,3.35 4.856,6.878 7.241,10.278-5.338,4.585-7.627,0.316-10.299-1.585-7.191-5.115-13.949-10.9-21.426-15.535-9.332-5.786-19.574-6.252-29.643-1.775-8.835,3.928-12.973,12.952-11.686,24.063 1.052,9.08 5.951,14.516 15.311,16.989 3.464-5.49 4.489-12.638 11.041-16.969-0.66,7.503-7.568,12.439-5.87,20.313 9.702-0.541 6.652-11.256 13.607-14.646-1.79,5.831-3.314,10.794-5.142,16.75 4.21,0 7.15,0.392 9.95-0.069 10.831-1.785 21.623-3.805 32.415-5.818 3.325-0.62 6.601-1.494 8.845,3.906-2.078,1.381-4.212,3.078-6.581,4.33-16.95,8.963-31.47,20.699-40.923,37.619-2.964,5.305-4.539,11.574-5.754,17.602-0.762,3.779 0.734,7.637 5.115,8.594 2.152-8.012 4.133-15.39 6.115-22.767 0.601,0.144 1.202,0.288 1.802,0.431-0.981,7.819-1.961,15.638-2.897,23.101 5.504,2.104 7.562,0.764 8.485-3.455 1.057-4.832 2.653-9.546 4.015-14.311 1.524,2.868 1.371,5.347 1.038,7.802-0.376,2.773-0.911,5.525-1.425,8.572 9.348-0.238 4.703-10.271 10.304-12.526 0.464,2.251 0.92,4.468 1.377,6.684 1.194-0.252 1.65-0.213 1.902-0.421 10.549-8.674 20.737-17.622 26.926-30.257 0.799-1.632 3.75-2.211 5.704-3.278 0.365,2.263 1.452,4.712 0.929,6.747-0.81,3.147-2.847,5.957-4.139,9.006-3.112,7.343-5.956,14.769-5.11,24.684 5.929-6.462 10.876-11.853 15.823-17.244 0.67,0.585 1.34,1.169 2.01,1.754-4.219,5.292-8.433,10.588-12.657,15.876-8.429,10.552-8.559,21.16-0.46,32.754 2.083-3.53 4.194-7.106 6.304-10.682 0.757,0.371 1.514,0.743 2.271,1.114-1.731,4.168-3.462,8.335-5.157,12.415 15.603,9.265 33.071,1.767 35.098-15.391 1.92-16.256 0.67-32.39-6.889-47.446-1.317-2.624-2.895-5.261-3.45-8.07-0.341-1.725 1.032-3.789 1.636-5.701 1.702,0.974 4.261,1.531 4.971,2.989 5.984,12.282 15.442,21.653 26.038,29.585 5.998,4.49 13.426,7.897 20.724,9.641 12.853,3.072 19.498-4.272 15.295-16.751-2.415-7.17-6.496-14.021-10.944-20.212-9.205-12.813-21.777-21.775-35.755-28.923-1.954-0.999-4.604-3.718-4.383-5.28 0.556-3.933 4.227-3.212 7.114-2.64 7.208,1.428 14.48,2.661 21.559,4.589 13.119,3.573 25.628,1.57 37.729-3.681 9.514-4.128 14.516-14.18 12.909-24.528-1.61-10.366-8.368-17.43-18.729-19.08-8.635-1.375-17.01-0.298-24.374,4.728-6.38,4.355-12.437,9.181-18.683,13.736-2.783,2.025-5.681,3.901-8.528,5.847zm97.632,34.965c0.611,13.799 9.221,18.172 19.665,19.16 5.582,0.528 11.553-1.015 17.09-2.554 7.598-2.113 10.615-7.785 9.638-16.154-1.045-8.947-6.586-15.407-13.835-15.912-13.932-0.971-25.1,3.897-32.558,15.46zm-271.211,1.078c-8.094-12.746-19.088-17.223-32.583-16.616-5.761,0.259-9.63,2.522-10.969,8.37 1.686,0.832 3.049,1.505 4.327,2.136-6.224,16.504-6.224,16.504-0.742,19.565 3.156-3.476 3.379-9.222 9.225-12.484-1.998,5.744-3.499,10.06-5.425,15.598 3.581-0.434 6.97-1.801 7.948-0.803 4.945,5.045 8.96,2.875 13.347-0.51 0.906-0.699 2.564-0.804 3.798-0.63 4.53,0.639 6.757-1.41 7.84-5.656 0.802-3.147 2.193-6.144 3.234-8.97zm283.999-20.654c6.209-1.5 12.463-1.368 16.354-4.335 5.818-4.435 11.744-6.836 18.473-6.803 4.004-9.047-7.855-7.777-8.012-13.715 3.895-7.874 12.297,2.361 16.81-4.931-3.007-7.423-7.963-11.734-16.993-12.11-6.393-0.266-12.701-2.602-19.044-4.026-1.507-0.338-3.003-0.724-4.504-1.088-0.308,0.812-0.616,1.625-0.925,2.437 1.82,0.882 3.64,1.764 5.46,2.647 6.327,3.068 10.368,11.422 8.045,17.515-2.346,6.153-7.177,4.98-11.984,3.464-0.484-0.152-1.199,0.429-1.642,0.604-0.65,6.501-1.291,12.897-2.038,20.341zm-300.517-48.131c-8.862,5.204-16.889,6.799-25.619,6.643-8.114-0.145-12.274,4.553-13.745,13.249 4.27,4.995 12.532-4.762 15.978,4.138-8.052,6.783-8.052,6.783-8.79,11.825 4.793,1.606 10.353,2.108 14.032,5.001 6.476,5.092 13.697,5.306 21.41,6.914-0.739-7.396-1.386-13.863-2.029-20.336-9.377,1.322-12.473,0.483-14.023-3.799-2.03-5.612 2.077-14.166 8.43-17.396 1.246-0.634 2.834-0.719 3.895-1.536 0.535-0.412 0.239-1.899 0.461-4.703zm43.709,88.038c-1.857,11.639-3.633,20.535-4.59,29.519-0.698,6.557 2.345,12.009 7.139,16.536 4.031,3.806 8.557,3.495 13.328,2.126 5.129-1.471 5.083-6.022 5.129-9.835 0.083-6.863-0.168-13.806-1.208-20.572-0.456-2.961-2.669-6.195-5.025-8.198-3.779-3.211-8.34-5.502-14.773-9.576zm215.634,.985c-4.966,2.738-9.287,4.203-12.313,7.047-3.033,2.849-5.813,6.807-6.828,10.761-1.416,5.517-1.371,11.479-1.419,17.254-0.039,4.632-0.571,9.76 5.258,12.089 5.428,2.168 10.673,1.072 14.916-3.582 5.935-6.511 7.164-14.275 5.442-22.589-1.33-6.423-3.058-12.765-5.056-20.98zm-250.022-60.773c-0.889,13.026 1.869,24.094 9.787,32.243 9.679,1.098 17.892,2.029 26.353,2.989 1.419-1.682 2.946-3.492 3.08-3.651-5.603-10.317-10.379-19.113-15.452-28.454-6.352-0.836-14.194-1.868-23.768-3.127zm249.259,35.557c6.765-1.1 12.353-3.356 17.444-2.535 8.654,1.397 12.081-3.336 14.65-9.67 3.024-7.456 5.222-15.17 2.934-23.168-8.575,1.106-16.738,2.16-25.392,3.276-0.943,10.504-5.866,19.192-14.443,26.132 1.841,2.285 3.415,4.238 4.807,5.965zm40.558-158.372c-1.116,1.736-1.785,2.624-2.293,3.597-1.541,2.95-3.125,6.795-7.066,4.935-1.699-0.802-2.441-4.67-2.713-7.241-0.579-5.472-2.228-9.789-8.367-11.708-2.759,3.122-5.251,5.942-8.393,9.498-1.807-3.363-2.64-6.409-4.617-8.163-1.892-1.679-5.136-2.982-7.476-2.591-1.482,0.248-3.319,3.878-3.367,6.028-0.095,4.247 0.941,8.519 1.501,12.722 20.907-1.781 21.068-1.664 29.75,21.157 20.396-18.585 20.484-18.751 13.041-28.234zm4.761,54.079c12.759-0.821 23.815-17.511 20.177-27.306-1.507-4.057-4.682-5.86-8.641-5.171-5.01,0.872-10.051,2.101-14.775,3.953-6.238,2.446-9.605,7.814-11.174,14.077-1.527,6.095 4.964,6.382 7.664,9.375 2.212,2.452 5.356,4.061 6.749,5.072zm-289.241-11.081c-3.425-14.363-14.767-22.88-27.88-21.475-4.789,0.513-7.308,3.15-7.363,7.914-0.11,9.498 3.723,17.137 11.607,22.404 5.4,3.607 9.315,2.853 14.53-1.663 2.747-2.38 5.707-4.515 9.106-7.18zm3.416-14.907c5.865-21.276 7.257-22.278 29.688-21.053 0.324-4.331 1.08-8.71 0.792-13.019-0.142-2.12-2.126-5.735-3.438-5.809-2.444-0.137-5.469,1.309-7.388,3.049-1.942,1.76-2.838,4.674-4.808,8.178-3.272-3.844-5.708-6.707-8.089-9.506-10.616,2.479-5.893,12.218-9.56,19.663-4.051-3.184-7.476-5.877-11.817-9.29-1.406,2.396-3.861,4.683-3.477,6.294 0.993,4.168 2.422,8.771 5.186,11.842 3.517,3.909 8.521,6.482 12.911,9.651zm252.576,162.055c1.285,5.597 1.898,11.189 3.926,16.21 1.711,4.235 4.527,8.364 7.823,11.533 4.087,3.93 12.317,3.791 16.444,0.801 4.378-3.172 5.381-7.767 1.947-14.872-3.146-6.51-7.268-12.547-10.664-18.291-6.97,1.654-12.6,2.989-19.476,4.619zm30.075-109.016c5.4,6.488 12.157,11.396 20.755,13.013 7.381,1.388 12.314-2.621 11.969-8.962-0.629-11.548-15.084-23.68-27.305-22.982-1.684,5.882-3.366,11.757-5.419,18.931zm-302.309-18.899c-11.16-0.797-22.978,6.718-26.474,17.457-1.131,3.475-1.221,8.37 0.43,11.412 2.337,4.304 7.644,4.036 11.968,2.626 7.789-2.541 14.513-6.795 19.264-13.474-1.43-3.157-2.97-5.701-3.728-8.461-0.858-3.118-1.013-6.428-1.46-9.56zm8.537,156.862c2.848-5.214 5.699-10.432 8.55-15.651 0.581,0.255 1.162,0.51 1.743,0.765-1.922,5.145-3.843,10.29-5.873,15.723 13.044-0.426 20.432-11.954 20.428-30.084-5.666-1.344-11.275-2.676-16.976-4.028-14.596,15.715-17.16,26.364-7.872,33.275zm42.137-41.515c8.485,0 16.816,1.332 24.478-0.362 8.193-1.812 12.837-9.365 17.369-15.611-10.382-1.701-20.057-3.476-29.799-4.738-2.212-0.287-5.051,0.646-6.918,1.976-6.311,4.494-8.818,10.461-5.13,18.735zm206.632-.937c0.167-1.867 0.659-4.405 0.565-6.922-0.218-5.845-7.539-13.9-12.451-13.217-10.285,1.431-20.494,3.402-30.714,5.148 9.388,17.745 25.017,18.843 42.6,14.991zm-215.532-163.667c-10.049,0.93-12.218,2.344-13.513,10.257-1.299,7.934-1.878,15.987-2.798,24.216 3.548,2.701 6.888,5.244 10.279,7.825 9.813-16.306 11.152-25.74 6.032-42.298zm228.42,43.298c4.917-3.914 8.046-6.404 11.132-8.861-0.453-4.29-0.83-8.302-1.311-12.302-0.525-4.368-0.808-8.802-1.795-13.069-1.857-8.025-3.871-9.116-13.362-8.307-2.172,6.753-6.05,13.074-2.489,20.788 3.019,6.539 4.941,13.582 7.825,21.751zm-216.376-18.159c11.083,0.389 17.061-6.232 21.834-14.426 0.816-1.401 1.046-3.706 0.515-5.236-3.286-9.479-14.767-11.985-22.349-5.484 0,8.256 0,16.158 0,25.146zm199.238-.537c0-6.602-0.257-12.379 0.092-18.119 0.225-3.709 1.125-7.152-2.89-9.625-4.02-2.476-7.943-1.85-11.3,0.535-3.474,2.468-6.31,5.833-9.148,8.54 5.255,13.907 10.832,18.307 23.246,18.669zm36.369,16.88c-8.444,0.079-13.373,4.241-13.367,11.285 0.005,5.743 5.683,12.531 10.359,12.385 7.118-0.223 13.25-5.825 13.228-12.086-0.023-6.588-4.478-11.638-10.22-11.584zm-281.856,11.827c0.097,6.276 6.352,11.903 13.186,11.861 4.836-0.03 9.847-6.535 9.793-12.712-0.063-7.227-4.697-11.051-13.321-10.993-6.003,0.04-9.77,4.659-9.658,11.844zm219.39-53.341c1.915-3.473 4.22-6.755 5.607-10.389 1.894-4.961 1.477-10.025-1.523-14.628-4.075-6.254-10.258-5.993-13.223,0.936-1.943,4.541-2.774,9.557-3.99,13.952 4.745,3.662 8.614,6.646 13.129,10.129zm-26.044,249.217c0.027-7.491-2.446-10.716-8.05-10.497-6.545,0.255-12.369,6.629-12.086,13.224 0.236,5.48 5.585,10.46 10.937,10.183 5.523-0.285 9.172-5.406 9.199-12.91zm-108.09-259.059c-1.128-4.499-1.86-9.618-3.804-14.225-0.949-2.25-4.107-4.827-6.354-4.912-2.182-0.083-5.229,2.361-6.586,4.519-4.477,7.121-2.553,15.457 4.749,23.514 3.401-2.523 6.828-5.065 11.995-8.896zm4.418,5.121c2.017,4.55 4.032,9.097 6.172,13.925 9.397-1.486 16.595-5.257 18.856-15.143-9.409-9.23-15.756-8.836-25.028,1.218zm8.403,253.249c-0.204,7.483 4.183,13.554 9.846,13.625 5.51,0.069 10.292-4.834 10.353-10.615 0.073-6.986-5.617-12.918-12.311-12.835-5.007,0.063-7.714,3.434-7.888,9.825zm49.682,38.804c3.812-2.1 4.914-5.622 2.527-7.463-3.855-2.972-8.758-6.048-13.353-6.267-7.633-0.364-14.172-1.655-19.375-10.296-2.866,5.949-4.727,9.813-7.548,15.669 6.881-1.377 11.135-2.228 15.394-3.08 0.886,4.593 1.593,8.26 2.626,13.617 5.119-3.27 8.607-5.498 12.11-7.735 2.777,2.024 5.267,3.84 7.619,5.555zm48.207-278.061c2.107-4.83 4.111-9.423 6.125-14.041-4.163-7.167-10.625-8.857-18.042-6.909-6.805,1.788-8.118,6.795-4.014,12.553 3.974,5.575 9.784,7.307 15.931,8.397zm15.884,205.427c-4.706,6.198-4.107,11.676 1.77,17.582 5.911-1.77 14.583,2.62 17.66-7.73-2.226-3.848-4.38-7.573-6.688-11.564-4.316,0.58-8.618,1.158-12.742,1.712zm-42.63,45.501c-3.546,6.363-6.552,11.757-9.558,17.151-1.375,0.765-1.323,2.227-1.097,3.66 1.299,8.216 5.471,9.951 11.74,4.838 4.524-3.69 8.085-8.796 6.848-14.273-0.975-4.317-5.35-7.867-7.933-11.376zm98.903-108.7c-8-0.393-10.936,1.788-11.283,8.383-0.315,5.99 4.091,9.835 11.688,10.2 7.485,0.359 10.314-1.357 10.57-6.411 0.351-6.895-4.102-11.834-10.975-12.172zm-253.011,17.749c6.442,1.327 13.1,2.31 18.173-3.572 3.895-4.516 1.264-8.882-1.041-12.876-14.502-5.796-23.453,4.587-17.132,16.448zm45.217,55.342c3.202,9.75 11.365,6.756 18.044,7.298 5.426-8.309 5.426-8.309 1.446-17.276-4.041-0.5-8.33-1.03-12.626-1.561-2.339,3.931-4.54,7.632-6.864,11.539zm77.931-205.547c-14.491-7.551-18.25-7.69-26.937-1.593 1.971,7.191 8.498,10.026 13.836,14.688 4.281-4.278 8.236-8.231 13.101-13.095zm9.024-35.881c-9.675,5.989-10.795,19.262-2.606,30.854 7.693-5.791 8.952-20.699 2.606-30.854zm-55.355,37.425c0.023-0.522 0.046-1.043 0.07-1.565-3.865,0.53-7.715,1.329-11.598,1.541-12.54,0.684-16.739,7.542-11.926,17.888 7.691-5.858 15.573-11.861 23.454-17.864zm107.2-.613c8.671,6.644 16.551,12.681 24.845,19.036 3.68-3.051 1.715-7.814-0.245-11.945-1.307-2.755-3.921-6.303-6.455-6.773-5.533-1.028-11.389-0.318-18.145-0.318zm-60.112,33.586c0.962,0.174 1.924,0.349 2.886,0.523 1.933-5.793 3.867-11.587 5.828-17.463-4.765-2.412-8.188-4.145-11.526-5.834-6.341,6.094-6.325,6.085-2.844,12.354 1.919,3.455 3.773,6.946 5.656,10.42zm82.484,199.188c-3.772-13.305-11.021-16.067-19.363-8.058 6.496,9.982 7.287,10.331 19.363,8.058zm-131.824-8.862c-9.556-6.739-16.219-3.836-19.189,8.359 10.98,3.533 13.402,2.478 19.189-8.359zm145.943-162.379c-3.147-5.912-5.547-9.782-11.829-9.282-8.054,0.64-8.541,6.878-11.002,12.812 7.988-1.235 14.893-2.303 22.831-3.53zm-67.782-88.501c-9.048,9.185-11.225,16.872-7.192,23.776 11.394-5.949 11.698-6.888 7.192-23.776zm-38.436,257.474c-5.436,13.846-3.856,16.941 8.319,15.88 1.064-3.854 2.187-7.922 3.331-12.067-2.91-1.18-5.252-2.234-7.67-3.07-1.295-0.447-2.719-0.52-3.98-0.743zm-49.978-165.386c-5.448-11.325-8.256-14.375-13.494-13.108-4.497,1.087-8.602,3.583-8.135,10.011 7.157,1.024 13.9,1.99 21.629,3.097zm66.964,170.991c0.699,5.747 1.283,10.558 1.92,15.797 6.294-1.331 11.073-2.482 10.978-8.736-0.046-3.057-1.187-6.098-1.908-9.507-3.96,0.882-6.764,1.506-10.99,2.446zm56.849-33.074c1.095-3.289 2.073-6.227 3.19-9.582-5.777-2.138-10.969-4.06-17.678-6.542 1.538,6.055 2.656,10.456 3.848,15.147 3.737,0.343 6.874,0.631 10.64,0.977zm-103.912-1.163c1.119-4.722 2.162-9.122 3.596-15.171-6.904,2.707-12.081,4.736-17.904,7.02 1.361,3.385 2.513,6.25 3.803,9.457 3.657-0.454 6.805-0.846 10.505-1.306zm72.102-194.09c-4.952-5.747-9.086-3.405-12.747-0.133-5.096,4.555-5.085,6.597-0.968,15.062 4.417-4.809 8.749-9.524 13.715-14.929zm3.331,207.667c5.359-3.529 11.574-0.294 13.157-6.509 1.939-7.612-4.805-9.323-10.816-13.222-0.774,6.527-1.42,11.977-2.341,19.731zm-59.955-19.344c-12.608,7.162-12.739,7.435-8.871,16.402 3.414,0.35 6.86,0.703 10.863,1.113-0.688-6.045-1.283-11.283-1.992-17.515zm63.229-190.382c4.413-2.938 11.057-0.595 12.779-8.342-4.77-2.083-9.551-4.17-14.41-6.292-2.008,2.948-3.537,5.194-4.903,7.2 2.567,2.92 4.458,5.072 6.534,7.434zm-89.577-18.81c-1.722-1.469-3.878-4.441-6.726-5.441-3.252-1.141-7.61,3.523-7.812,7.297-0.198,3.704 2.874,6.426 7.045,6.406 4.377-0.02 6.607-2.307 7.493-8.262zm121.883-5.666c-3.75-0.054-6.581,3.06-6.521,7.301 0.064,4.607 2.76,6.403 7.066,6.612 4.139,0.202 6.21-2.114 6.726-5.75 0.552-3.886-3.455-8.107-7.271-8.163zm102.87,43.431c9.165,1.493 14.43-1.71 20.819-7.389-4.418-2.26-7.637-3.906-11.046-5.65-3.299,4.4-5.865,7.824-9.773,13.039zm-344.903-13.513c-3.663,2.452-6.624,4.433-10.912,7.303 7.474,3.763 12.319,8.927 20.527,5.254-3.216-4.199-5.822-7.602-9.615-12.557zm185.475,20.545c-0.941-0.266-1.882-0.532-2.822-0.798-3.833,6.962-14.401,11.929-4.884,24.442 2.876-8.824 5.291-16.234 7.706-23.644zm-100.997,30.348c-0.101-0.721-0.202-1.441-0.303-2.162-5.413-0.578-10.826-1.155-17.42-1.859 1.333,4.585 2.308,7.937 3.364,11.568 2.901-1.473 5.154-2.585 7.376-3.756 2.343-1.234 4.656-2.525 6.983-3.791zm203.686-4.172c-6.289,1.296-12.045-0.07-18.693,3.932 6.009,2.957 10.663,5.248 15.894,7.822 0.976-4.099 1.773-7.446 2.799-11.754zm-170.498,153.794c-0.006,0.87-0.012,1.74-0.017,2.609 3.027,1.005 6.05,2.698 9.082,2.716 1.442,0.008 4.054-3.144 4.106-4.924 0.098-3.379-2.529-5.177-5.989-3.991-2.51,0.861-4.796,2.37-7.182,3.59zm66.632-212.454c-6.63-1.59-10.298-0.413-10.488,3.98-0.072,1.657 2.132,4.496 3.792,4.937 4.54,1.208 5.973-0.979 6.696-8.917zm-95.231,19.261c-0.518,0.313-1.036,0.625-1.554,0.938 2.392,3.62 5.174,7.049 7.074,10.911 2.183,4.437 3.586,9.258 5.328,13.912 0.819-4.354 1.84-9.271 0.047-12.727-2.546-4.908-7.163-8.742-10.895-13.034zm279.265,21.849c-2.523-11.074-5.649-13.228-13.502-8.515 5.614,1.527 4.993,10.024 13.502,8.515zm-130.588,170.656c-4.959-1.535-8.57-5.707-12.534-1.238-0.939,1.059-0.192,5.105 1.129,6.381 3.211,3.103 6.349,1.671 11.405-5.143zm-236.972-181.141c-10.063-0.952-10.411-0.682-14.654,10.158 8.403,1.873 9.218-5.674 14.654-10.158zm149.3,145.142c-9.844,6.308-9.844,6.308-7.7,15.977 8.113-2.592 3.753-9.796 7.7-15.977zm62.9,16.077c1.485-6.663 2.391-12.152-6.13-14.515 1.049,5.316-1.87,11.268 6.13,14.515zm-140.016-173.725c3.435,2.014 6.499,2.439 7.468-2.068 0.274-1.274-1.615-4.23-2.783-4.386-5.002-0.666-4.029,3.52-4.685,6.454zm204.259-10.427c-1.679,3.618-3.355,5.548-2.926,6.68 0.741,1.955 2.671,3.567 4.417,4.916 0.262,0.202 3.352-2.062 3.197-2.739-0.468-2.027-1.895-3.833-4.688-8.857zm54.203,65.073c-1.141,0.51-2.281,1.02-3.422,1.53-0.17,4.514 2.326,7.307 8.338,7.983-1.639-3.171-3.277-6.342-4.916-9.513zm-312.83,9.797c0.737,0.322 1.474,0.644 2.211,0.965 6.898-6.278 6.898-6.278 2.864-10.932-1.822,3.577-3.448,6.772-5.075,9.967zm78.444,70.306c-3.886,0.228-5.888,0.346-8.879,0.522 1.847,2.376 3.091,3.977 4.723,6.078 1.331-2.113 2.239-3.555 4.156-6.6zm165.738,7.332c1.654-3.266 2.475-4.887 3.738-7.382-3.214,0.301-5.12,0.48-7.832,0.734 1.385,2.248 2.252,3.656 4.094,6.648z"/>
    <path d="m204.331,230.884c-17.838-0.055-23.685-5.999-23.24-23.762 0.258-10.316 4.124-19.324 10.77-27.023 7.717-8.94 19.052-8.868 26.605,0.328 8.233,10.024 12.372,21.409 9.681,34.653-2.543,12.518-5.736,15.375-18.318,15.795-1.831,0.062-3.665,0.009-5.498,0.009zm.66-7.267c2.209,0 4.427-0.13 6.624,0.027 4.816,0.342 7.548-1.984 8.952-6.415 4.029-12.713 1.321-24.015-7.424-33.802-5.138-5.75-11.04-5.788-16.138-0.115-5.801,6.455-9.398,14.028-9.289,22.973 0.174,14.362 3.154,17.343 17.275,17.332z"/>
    <path d="m190.063,295.579c-0.053-9.452 0.969-10.804 10.576-15.492-3.525,5.164-7.051,10.328-10.576,15.492z"/>
  </g>
</svg>
