<?xml version="1.0" encoding="iso-8859-1"?>
<!-- Generator: Adobe Illustrator 16.0.0, SVG Export Plug-In . SVG Version: 6.00 Build 0)  -->
<!DOCTYPE svg PUBLIC "-//W3C//DTD SVG 1.1//EN" "http://www.w3.org/Graphics/SVG/1.1/DTD/svg11.dtd">
<svg version="1.1" id="Capa_1" xmlns="http://www.w3.org/2000/svg" xmlns:xlink="http://www.w3.org/1999/xlink" x="0px" y="0px"
	 width="195.241px" height="195.241px" viewBox="0 0 195.241 195.241" style="enable-background:new 0 0 195.241 195.241;"
	 xml:space="preserve">
<g>
	<path d="M106.319,26.914c-3.85-7.396-14.714-12.625-20.816-5.329c-2.626,0.546-4.724,2.057-6.224,4.088
		C51.522,12.443-5.035-0.987,0.36,46.695c4.81,42.511,59.529,11.63,81.783-0.584c0.249,0.227,0.476,0.48,0.737,0.693
		c-4.373,18.489-2.588,36.864-2.282,55.826c0.223,13.79-2.188,27.75-2.709,41.543c-0.439,11.625-0.227,36.364,16.259,37.805
		c12.069,1.056,10.319-29.085,10.343-34.778c0.138-32.73-7.145-65.851-2.051-98.445c0.045-0.288-0.024-0.531-0.032-0.799
		c0.411-0.302,0.745-0.673,1.114-1.014c25.839,12.41,83.779,41.72,90.874-0.228C203.651-8.022,134.456,18.978,106.319,26.914z
		 M9.833,48.649C-3.077,6.711,55.4,26.888,76.871,31.628c-0.362,2.129-0.332,4.345,0.241,6.431c0.088,0.319,0.229,0.606,0.334,0.916
		C59.724,48.994,17.802,74.535,9.833,48.649z M84.337,36.067c-1.699-5.067,1.55-7.401,5.204-9.902
		c4.507-1.261,7.96,0.527,10.402,4.964c-0.251,1.423,0.146,2.936,1.079,4.071c0.009,1.42-0.366,2.786-1.028,3.994
		c-1.555,0.079-2.726,1.492-2.845,2.929c-0.964,0.574-2.053,1-3.307,1.122c-2.472,0.241-4.702-0.802-6.44-2.435
		c-0.081-1.68-1.158-3.32-2.758-4.005C84.542,36.559,84.421,36.317,84.337,36.067z M96.142,160.33
		c-1.013,18.469-8.954,7.875-10.095-4.847c-1.034-11.542,0.433-23.487,1.382-34.987c1.946-23.585-0.534-47.116,0.909-70.698
		c1.912,0.634,3.932,0.93,6.01,0.85C89.239,86.914,98.142,123.858,96.142,160.33z M185.109,47.549
		c-4.44,26.25-56.064,2.328-77.896-6.073c0.668-1.76,1.039-3.653,1.104-5.582C132.559,28.76,192.81,2.017,185.109,47.549z"/>
</g>
<g>
</g>
<g>
</g>
<g>
</g>
<g>
</g>
<g>
</g>
<g>
</g>
<g>
</g>
<g>
</g>
<g>
</g>
<g>
</g>
<g>
</g>
<g>
</g>
<g>
</g>
<g>
</g>
<g>
</g>
</svg>
