<?xml version="1.0" encoding="iso-8859-1"?>
<!-- Generator: Adobe Illustrator 16.0.0, SVG Export Plug-In . SVG Version: 6.00 Build 0)  -->
<!DOCTYPE svg PUBLIC "-//W3C//DTD SVG 1.1//EN" "http://www.w3.org/Graphics/SVG/1.1/DTD/svg11.dtd">
<svg version="1.1" id="Capa_1" xmlns="http://www.w3.org/2000/svg" xmlns:xlink="http://www.w3.org/1999/xlink" x="0px" y="0px"
	 width="192.816px" height="192.816px" viewBox="0 0 192.816 192.816" style="enable-background:new 0 0 192.816 192.816;"
	 xml:space="preserve">
<g>
	<path d="M186.913,30.3c-1.082-1.231-2.787-0.878-3.911,0c-8.176,6.386-14.307,23.381-9.082,33.926
		c-1.962,0.484-3.926,0.963-5.882,1.468c-5.104-11.502-21.667-19.972-31.13-23.592c-6.164-2.358-12.996-4.115-20.146-5.294
		c10.939,0.09,25.602-3.47,24.266-16.978c-1.955-19.795-49.187-7.4-64.838-0.451c-2.532-0.794-5.206-1.017-7.634-2.107
		c-0.748-0.336-1.543-0.364-2.278-0.195C52.498-0.569,9.854,5.514,0.41,23.856c-0.842,1.635-0.352,3.358,1.149,4.381
		c18.865,12.861,46.252,8.287,67.343,2.223c-0.068,0.725-0.12,1.452-0.198,2.176c-0.115,1.061-0.228,2.03-0.369,2.979
		c-0.038,0.254-0.085,0.506-0.131,0.759c-0.265,0.751-0.33,1.494-0.218,2.229c-22.92,5.858-42.682,19.387-49.682,42.649
		c-6.737,22.391,7.877,43.452,26.45,55.667c0.179,3.646-0.129,7.319-0.434,10.948c-0.262,3.113-0.239,6.698-0.904,9.896
		c-0.316-0.413-0.778-0.534-1.236-0.394c-12.572-13.079-29.013-0.921-15.966,12.812c24.629,25.922,81.435,15.739,109.842,2.655
		c1.392-0.641,1.54-1.93,1.036-2.996c0.111-0.093,0.212-0.196,0.323-0.29c4.248-1.351,8.522-4.352,8.459-8.813
		c-0.073-5.06-5.579-8.568-9.563-10.54c-4.945-2.446-10.949-4.034-16.463-3.08c-2.264,0.392-4.176,1.542-5.566,3.347
		c-0.684,0.886-0.902,2.018-0.924,3.108c-0.033,1.669,1.469,2.198,2.02,3.599c0.195,0.499,0.87,0.305,0.793-0.219
		c-0.122-0.84,1.163-2.865,2.005-3.779c-1.392,7.25-0.146,14.629-3.349,21.675c-1.139,0.296-2.26,0.67-3.405,0.938
		c0.599-5.854,1.178-12.068,0.839-18.043c0.799-0.571,1.237-1.54,0.762-2.775c-2.769-7.183-4.951-14.535-6.141-22.124
		c9.422-10.772,15.425-25.924,17.966-40.618c0.009,0.005,0.011,0.013,0.019,0.019c13.832,9.227,34.088,3.513,42.164-10.554
		c2.281-3.975,2.883-7.746,2.377-11.295c1.772-0.261,3.55-0.491,5.32-0.764c1.025-0.158,2.108-0.266,3.205-0.376
		c0.109,0.082,0.223,0.099,0.333,0.162c-8.333,10.492-10.239,27.036,1.222,35.784c1.268,0.968,3.033,0.131,3.807-0.998
		c3.984-5.812,5.881-12.549,6.629-19.517c0.718-6.69,2.087-15.683,0.189-22.371C193.375,51.315,195.078,39.596,186.913,30.3z
		 M7.65,24.432c11.044-15.299,41.031-14.241,56.062-3.921c0.07,0.375,0.207,0.761,0.448,1.156c0.651,1.067,1.547,1.892,2.605,2.501
		c-0.005,0.108,0.031,0.209,0.037,0.316C47.062,27.426,25.977,34.8,7.65,24.432z M37.379,173.646
		c-5.93-2.56-12.054-8.87-11.091-15.982c0.549-4.059,3.938-3.588,7.421-1.933c-2.113,4.704-1.357,11.273,3.019,14.157
		c0.675,0.445,1.486-0.594,0.867-1.124c-3.761-3.221-2.544-7.604-1.43-11.698c2.166,1.307,4.056,2.737,5.041,3.493
		c-0.257,4.924,0.287,10.03,1.279,14.905C40.771,174.889,39.036,174.362,37.379,173.646z M140.359,160.635
		c0.105,0.352,0.039,0.667-0.261,1.076c-0.335,0.005-0.67,0.076-0.974,0.311c-0.747,0.577-1.434,1.229-2.112,1.891
		c-0.627,0.271-1.282,0.494-1.935,0.723c0.277-2.951,0.558-6.069-0.129-8.883C137.261,156.968,139.768,158.682,140.359,160.635z
		 M121.288,152.163c0.128-0.005,0.266-0.015,0.383-0.017c1.474-0.027,2.937,0.162,4.386,0.44
		c-0.384,5.407,0.124,10.967-0.623,16.354c-0.211,1.526,2.01,2.248,2.381,0.656c1.162-4.998,2.215-10.63,2.117-15.991
		c0.854,0.294,1.686,0.634,2.51,0.982c-0.217,0.178-0.412,0.395-0.502,0.711c-0.965,3.376-0.36,7.269-0.08,10.762
		c-1.004,0.779-1.086,2.209-0.459,3.221c-4.223,1.844-8.557,3.28-12.93,4.56C121.505,167.365,122.789,158.92,121.288,152.163z
		 M99.434,18.571c9.754-1.66,23.816-4.637,33.266-0.232c6.721,3.133-2.949,10.282-6.236,11.262
		c-6.328,1.886-13.966,0.851-20.367-0.044c-9.09-1.272-17.293-4.814-25.936-7.119C86.418,20.55,93.19,19.633,99.434,18.571z
		 M74.813,36.804c0.642-0.379,1.143-1.001,1.177-1.836c0.062-1.577-0.364-3.223-0.571-4.833c0.074-1.093,0.128-2.186,0.07-3.26
		c4.867,4.781,14.217,7.059,22.984,8.295c-7.912-0.112-15.929,0.504-23.703,1.957C74.782,37.019,74.801,36.913,74.813,36.804z
		 M51.758,177.964c-2.504-0.508-4.988-1.097-7.423-1.84c-0.323-4.517-0.193-9.044-0.352-13.549c0.78,0.648,1.859,0.608,2.611-0.078
		c0.11-0.101,0.219-0.2,0.329-0.3c0.614-0.562,0.841-1.535,0.613-2.321c-1.043-3.604-0.23-8.29-0.298-12.01
		c-0.06-3.331-0.4-6.7-1.009-10c1.85,1.157,3.739,2.188,5.639,3.16c-0.35,0.015-0.686,0.133-0.862,0.523
		C46.275,152.114,49.019,166.683,51.758,177.964z M54.178,178.388c-1.046-6.332-1.803-12.662-2.001-19.085
		c-0.179-5.802,0.935-11.412,0.998-17.164c0.003-0.218-0.101-0.395-0.212-0.563c0.593,0.292,1.181,0.612,1.777,0.887
		c-1.554,6.857-1.358,13.913-0.234,20.834c0.226,1.389,1.686,2.134,2.933,2.233c0.877,0.069,1.752,0.091,2.628,0.134
		c-0.006,1.698,0.227,3.447,0.324,5.032c0.178,2.925,0.592,5.826,1.237,8.683C59.138,179.127,56.648,178.817,54.178,178.388z
		 M69.808,179.88c-1.978-0.054-3.962-0.158-5.948-0.316c-0.675-3.334-0.909-6.69-0.986-10.088c-0.028-1.21,0.084-2.462,0.089-3.693
		c2.568,0.049,5.13-0.018,7.691-0.117c-0.709,1.54-0.854,3.273-0.985,4.982C69.439,173.683,69.467,176.852,69.808,179.88z
		 M59.863,159.562c-1.287-5.321-2.511-10.397-2.479-15.94c1.487,0.611,2.976,1.177,4.459,1.657
		c12.107,3.919,22.437,2.85,31.091-1.373c0.067,4.728,0.482,9.489,0.656,14.235C82.323,158.582,71.152,160.107,59.863,159.562z
		 M79.022,179.851c-2.273,0.059-4.547,0.089-6.822,0.073c0.273-2.409,0.294-4.843,0.498-7.26c0.2-2.373,0.942-4.758,0.92-7.143
		c2.289-0.124,4.576-0.293,6.865-0.451C78.536,169.151,78.637,174.986,79.022,179.851z M89.679,172.032
		c0.061,2.396,0.143,4.793,0.221,7.189c-2.658,0.225-5.321,0.41-7.992,0.518c0.079-1.704,0.142-3.41,0.263-5.109
		c0.223-3.123,1.148-6.305,1.01-9.428c-0.005-0.118-0.085-0.195-0.118-0.302c2.278-0.157,4.556-0.309,6.838-0.429
		C89.27,166.896,89.614,169.533,89.679,172.032z M98.663,178.165c-1.947,0.271-3.887,0.583-5.846,0.783
		c0.06-1.869,0.128-3.737,0.177-5.607c0.074-2.896,0.563-6.142-0.223-8.971c1.336-0.054,2.67-0.122,4.009-0.143
		c1.053-0.015,1.951-0.586,2.512-1.401C99.342,167.942,99.189,173.084,98.663,178.165z M107.672,156.441
		c0.182,0.474,0.461,0.824,0.779,1.111c-0.373,6.205,0.252,12.685,0.871,18.745c-2.73,0.591-5.478,1.112-8.241,1.544
		c1.268-5.446,1.836-10.865,2.012-16.527c0.187-5.994,1.029-13.801-0.983-19.521c-0.433-1.229-2.098-1.256-2.519,0
		c-0.312,0.928-0.437,1.946-0.579,2.956c-0.257-1.303-0.523-2.605-0.958-3.847c1.938-1.335,3.763-2.86,5.499-4.511
		C103.895,143.241,105.234,150.12,107.672,156.441z M128.385,86.22c-0.932-0.62-1.843-0.71-2.634-0.465
		c0.069-0.651,0.144-1.304,0.2-1.949c0.197-2.3-3.527-2.775-4.006-0.542c-5.057,23.599-13.642,49.751-39.889,55.863
		c-17.509,4.077-35.567-6.166-46.959-19.399c31.713,1.839,79.348,2.647,73.133-41.725c-2.314-16.523-20.644-20.429-34.31-20.939
		c-4.132-0.154-34.164-2.891-33.995,5.037c0.024,1.147,1.755,1.791,2.3,0.623c0.593-1.271,15.83-0.506,23.94-0.057
		c-0.004,0.004-0.008,0.004-0.012,0.009c-2.998,3.088-5.82,6.323-8.555,9.629c0.793-2.247,1.522-4.522,2.086-6.871
		c0.559-2.326-2.158-3.816-3.893-2.266C47.433,70.635,40.08,79.245,36.79,90.132c-0.65,2.152,2.554,2.954,3.312,0.913
		c2.619-7.056,6.94-12.966,12.074-18.213c-3.719,8.951-8.882,17.256-13.451,25.831c-1.729,3.246,2.807,5.798,4.867,2.845
		c6.056-8.684,12.004-17.317,18.7-25.419c-3.641,11.597-8.858,22.663-13.254,34.03c-1.116,2.887,3.174,5.243,5.153,3
		c7.105-8.054,13.033-16.984,19.256-25.697c-1.04,4.366-1.971,8.757-2.665,13.212c-0.424,2.725,2.84,5.466,5.085,2.961
		c4.196-4.684,7.207-9.912,9.863-15.602c1.565-3.354-3.221-6.294-5.036-2.944c-0.189,0.35-0.375,0.69-0.563,1.039
		c1.064-4.111,2.214-8.203,3.417-12.292c0.861-2.93-3.177-5.52-5.285-3.076C72.87,76.97,68.16,83.735,63.442,90.496
		c3.211-8.07,6.131-16.231,7.763-24.876c0.194-1.031-0.134-2.001-0.728-2.716c0.159,0.008,0.349,0.017,0.448,0.02
		c15.409,0.468,31.294,3.899,31.699,22.567c0.776,35.742-49.078,29.198-72.32,27.799c-0.031-0.002-0.051,0.013-0.081,0.011
		c-0.04-0.06-0.086-0.119-0.125-0.179c-14.824-22.809-1.473-46.627,19.131-59.769C65.477,42.99,86.826,41.689,105.471,42.44
		c8.11,0.327,15.678,2.081,23.393,4.287c6.123,1.761,12.029,4.096,17.718,7.004C158.732,84.813,152.667,95.644,128.385,86.22z
		 M180.215,98.482c-7.688-8.358-3.131-22.41,3.707-30.317c0.246-0.08,0.46-0.218,0.697-0.313c-0.049,3.422,0.273,6.958,0.17,10.137
		C184.557,85.085,183.514,92.218,180.215,98.482z M186.184,60.463c-0.303,0.266-0.591,0.567-0.738,1.024
		c-0.08,0.25-0.084,0.535-0.152,0.791c-1.811-0.274-3.512-0.044-5.213,0.37c-1.711-4.469-2.557-8.496-1.608-13.921
		c0.812-4.644,2.956-8.906,6.142-12.293C189.275,43.533,187.727,52.308,186.184,60.463z"/>
</g>
<g>
</g>
<g>
</g>
<g>
</g>
<g>
</g>
<g>
</g>
<g>
</g>
<g>
</g>
<g>
</g>
<g>
</g>
<g>
</g>
<g>
</g>
<g>
</g>
<g>
</g>
<g>
</g>
<g>
</g>
</svg>
