<?xml version='1.0' encoding='iso-8859-1'?>
<!DOCTYPE svg PUBLIC '-//W3C//DTD SVG 1.1//EN' 'http://www.w3.org/Graphics/SVG/1.1/DTD/svg11.dtd'>
<svg version="1.1" xmlns="http://www.w3.org/2000/svg" viewBox="0 0 427.826 427.826" xmlns:xlink="http://www.w3.org/1999/xlink" enable-background="new 0 0 427.826 427.826">
  <g>
    <path d="m334.86,281.68c-9.31,7.318-12.818,17.582-12.981,29.092-0.174,12.291 0.25,24.597 0.655,36.888 0.554,16.847-5.349,31.917-12.519,46.644-1.088,2.235-2.717,4.291-4.423,6.125-8.213,8.835-17.968,9.064-26.513,0.59-11.396-11.3-16.755-25.493-17.022-41.097-0.573-33.607-1.52-67.286 3.708-100.689 1.563-9.989 3.654-19.893 5.385-29.857 0.666-3.832 1.002-7.721-0.145-12.106-1.62,3.043-3.05,6.208-4.9,9.104-4.076,6.381-7.732,13.188-12.709,18.802-8.322,9.387-21.918,5.648-25.221-6.5-0.651-2.396-0.981-5.006-0.822-7.476 2.037-31.694 9.63-61.917 22.78-90.934 8.971-19.795 24.582-27.343 44.96-27.819 8.32-0.194 16.648,0.042 24.972-0.049 2.3-0.025 4.595-0.518 7.02-2.714-3.365-0.55-6.714-1.241-10.098-1.629-35.276-4.049-53.92-36.108-40.822-69.195 10.831-27.36 25.091-39.295 60.597-37.264 11.693,0.669 22.96,2.37 31.783,11.327 6.414,6.512 8.92,14.684 10.916,23.21 3.663,15.651 1.983,31.157-3.298,45.89-5.164,14.406-15.572,24.167-33.838,26.448 11.828,2.522 21.568,3.757 30.751,6.717 25.266,8.146 42.356,24.338 47.109,51.428 2.801,15.964 5.973,31.921 7.509,48.022 0.693,7.258-1.471,15.078-3.636,22.251-3.22,10.666-11.646,13.433-21.321,7.628-3.311-1.987-6.148-4.764-10.821-8.462 0.58,6.174 1.186,10.867 1.434,15.579 1.026,19.487 2.104,38.973 2.854,58.471 0.709,18.416 1.466,36.85 1.319,55.269-0.063,7.801-1.576,15.832-3.875,23.314-3.159,10.282-10.873,16.901-21.015,20.403-12.817,4.426-23.491,0.469-28.492-12.135-3.543-8.929-5.421-18.674-6.902-28.232-2.954-19.057-1.103-38.196 0.101-57.323 0.605-9.609 0.106-19.288 0.106-28.935-0.862-0.26-1.724-0.523-2.586-0.786zm-36.698-40.414c0.503,0.413 1.005,0.826 1.508,1.238-1.008,1.696-1.818,3.555-3.058,5.06-5.053,6.134-9.804,12.608-15.489,18.107-6.405,6.196-7.536,13.234-6.064,22.661 6.199-6.374 11.73-12.062 17.262-17.75 0.572,0.49 1.143,0.981 1.715,1.471-1.514,2.2-2.865,4.536-4.574,6.572-3.951,4.707-7.969,9.368-12.163,13.858-3.278,3.51-4.431,7.257-2.234,12.578 5.609-5.613 10.971-10.98 16.334-16.347 0.524,0.477 1.048,0.954 1.572,1.43-2.044,2.769-4,5.608-6.151,8.29-3.39,4.228-6.903,8.357-10.379,12.516-2.965,3.547-3.763,7.206-0.693,11.711 6.415-6.389 12.523-12.473 18.63-18.557 0.532,0.495 1.064,0.99 1.597,1.485-6.17,10.772-17.434,18.23-20.714,31.062 4.109-3.066 8.218-6.132 12.327-9.197-2.564,5.089-6.385,8.775-9.737,12.848-1.716,2.085-3.733,4.906-3.642,7.32 0.339,8.978 0.457,18.196 2.69,26.796 1.649,6.351 5.936,12.276 10.011,17.663 3.705,4.898 6.53,4.342 10.321-0.554 0.88-1.137 1.712-2.368 2.285-3.679 7.736-17.683 13.911-35.639 11.985-55.5-0.8-8.248-0.796-16.638-0.38-24.924 0.621-12.362 5.516-23.055 14.272-31.936 4.505-4.569 9.836-6.457 15.757-3.894 5.546,2.401 7.518,7.395 7.417,13.345-0.197,11.571-0.364,23.144-0.357,34.716 0.009,16.264-0.463,32.568 0.559,48.774 0.535,8.479 3.151,17.027 6.073,25.093 2.502,6.906 7.125,8.119 14.076,5.555 6.508-2.401 11.358-6.93 13.206-13.447 1.848-6.515 3.307-13.439 3.207-20.157-0.416-27.818-1.211-55.638-2.42-83.432-0.737-16.94-2.68-33.824-3.703-50.755-0.654-10.819-0.811-21.682-0.71-32.521 0.018-1.953 2.344-5.451 3.665-5.48 2.361-0.052 5.204,1.546 7.013,3.309 1.367,1.332 1.351,4.028 2.101,6.061 2.748,7.449 5.167,15.055 8.48,22.247 2.315,5.026 5.06,10.381 12.072,11.58 3.752-7.227 5.576-14.442 5.517-22.098-0.159-20.89-6.302-40.552-13.153-59.936-1.72-4.866-5.678-9.251-9.438-13.032-13.719-13.795-31.105-19.427-50.013-20.195-15.89-0.646-31.838-0.442-47.74,0.046-6.022,0.185-12.079,1.878-17.96,3.473-14.103,3.826-17.538,15.969-22.325,26.983 0.865,0.778 1.729,1.557 2.594,2.335 3.749-4.586 7.498-9.172 11.247-13.758 0.548,0.482 1.096,0.963 1.643,1.445-6.185,12.269-20.81,19.146-24.592,35.851 9.077-7.16 16.22-12.795 23.363-18.429-1.081,4.007-3.329,6.684-5.819,9.112-5.179,5.049-10.524,9.927-15.727,14.952-3.665,3.539-6.951,7.308-5.248,13.734 8.025-7.878 15.791-15.502 23.557-23.126 0.553,0.519 1.106,1.038 1.658,1.557-1.658,2.142-3.205,4.381-4.993,6.408-6.696,7.591-13.624,14.981-20.171,22.697-6.196,7.302-7.198,25.261-2.161,34.625 6.795-0.478 9.525-5.956 12.293-10.822 5.532-9.725 10.401-19.827 15.924-29.557 1.23-2.166 4.03-3.441 6.106-5.127 1.581,2.142 4.294,4.16 4.546,6.448 1.078,9.79 1.43,19.659 2.064,29.774 5.049-3.063 7.095-9.974 13.376-12.007-7.127,14.153-21.87,24.686-18.392,44.52 7.102-7.421 13.64-14.255 20.177-21.089zm-5.894-154.266c6.829-8.285 13.535-14.846 22.831-18.422-6.67,6.829-13.339,13.657-20.76,21.256 3.984,1.915 6.725,3.233 9.306,4.473 6.398-8.06 12.48-15.292 21.514-19.498-5.573,6.804-11.146,13.608-17.479,21.339 11.13,2.943 20.716,3.995 30.426,3.005 13.569-1.383 23.083-8.881 27.13-21.623 4.391-13.824 6.02-28.029 2.165-42.635-3.917-14.84-13.51-22.449-27.987-24.942-3.195-0.55-6.455-0.901-9.694-0.981-27.226-0.671-49.731,22.459-47.905,50.394 8.288-7.638 14.339-16.822 23.838-22.039-6.262,8.555-13.24,16.349-20.184,24.172-3.256,3.668-5.741,7.433-0.568,11.765 7.564-6.891 15.124-13.779 22.685-20.667 0.515,0.524 1.029,1.047 1.544,1.571-7.751,8.138-15.502,16.276-23.392,24.561 2.436,3.088 4.18,5.296 6.53,8.271z"/>
    <path d="m59.823,196.671c-2.952,6.012-4.811,9.821-6.689,13.621-4.973,10.062-12.21,17.923-22.563,22.539-16.563,7.385-31.255-2.393-30.547-20.516 0.209-5.346 1.164-10.804 2.705-15.932 6.417-21.364 16.091-41.011 31.518-57.489 10.953-11.698 23.888-19.629 39.924-22.348 5.638-0.956 11.067-3.102 16.639-4.517 3.117-0.792 6.315-1.575 9.506-1.721 28.343-1.292 53.078,8.955 75.95,24.5 8.319,5.654 13.486,13.986 16.416,23.629 3.047,10.024 6.713,19.911 8.967,30.11 2.773,12.549 3.041,25.16-4.924,36.471-9.761,13.86-25.298,12.829-32.519-2.388-2.887-6.084-5-12.535-8.03-20.262-2.036,7.852-4.118,13.929-4.995,20.175-0.38,2.709 1.001,6.355 2.811,8.574 15.883,19.473 28.422,40.983 39.23,63.549 3.116,6.506 5.852,13.242 8.146,20.08 2.131,6.353 0.505,10.005-5.906,11.645-8.317,2.129-16.944,3.049-27.121,4.775-0.022,3.885-0.161,8.785-0.058,13.681 0.4,18.977-1.73,37.619-8.779,55.321-2.63,6.605-6.099,13.309-10.75,18.589-10.835,12.298-24.385,10.847-33.631-2.55-4.982-7.219-6.316-15.222-5.91-23.739 0.721-15.157 1.78-30.314 1.902-45.478 0.056-6.989-1.764-13.993-3.002-22.925-5.491,4.418-5.84,8.48-5.684,12.6 0.437,11.553 0.694,23.127 1.621,34.644 1.097,13.635-0.346,26.713-6.5,39.054-3.659,7.337-8.2,14.897-17.332,14.271-9.773-0.67-19.2-3.883-24.305-13.837-5.614-10.947-6.93-22.862-6.912-34.756 0.024-15.878 1.252-31.753 1.934-47.63 0.092-2.151 0.013-4.309 0.013-7.495-2.832,0.896-4.965,1.571-7.224,2.286-1.971-0.966-4.12-2.513-6.501-3.073-3.841-0.903-7.937-0.767-11.746-1.76-9.918-2.586-11.972-6.478-7.71-15.768 6.932-15.112 14.264-30.043 21.599-44.966 7.496-15.249 14.951-30.53 22.948-45.517 2.851-5.344-0.08-8.883-2.491-15.447zm71.205,219.995c10.574-4.213 14.485-12.592 17.617-21.652 7.197-20.822 8.446-42.363 8.122-64.148-0.13-8.753 1.833-10.793 10.388-11.858 3.213-0.4 6.528,0.05 9.751-0.298 3.813-0.412 7.578-1.27 12.365-2.11-2.567-6.465-4.412-11.9-6.831-17.066-10.775-23.007-23.688-44.667-40.038-64.255-2.499-2.994-4.741-8.22-3.902-11.625 3.281-13.308 7.675-26.359 12.098-39.355 0.781-2.295 3.676-3.871 5.595-5.78 1.774,2.013 4.312,3.74 5.19,6.088 3.791,10.142 6.861,20.555 10.699,30.678 1.439,3.794 4.251,7.068 6.38,10.488 8.399-4.46 9.152-5.062 11.431-10.856 3.3-8.389 3.438-16.962 0.608-25.48-3.305-9.944-6.831-19.815-10.304-29.702-2.603-7.411-7.13-13.571-13.678-17.75-18.754-11.968-38.431-21.484-61.371-22.063-41.474-1.046-64.114,15.861-81.987,49.102-1.206,2.242-1.675,4.881-3.301,9.799 8.238-7.895 14.488-13.885 20.738-19.875 0.54,0.527 1.08,1.055 1.62,1.582-2.455,2.932-4.783,5.983-7.39,8.772-5.188,5.55-10.603,10.889-15.782,16.447-3.211,3.445-6.165,7.131-4.808,13.044 8.032-6.582 13.608-15.506 23.107-19.699-4.234,5.934-9.252,11.09-13.743,16.669-4.293,5.332-10.726,9.288-12.78,18.938 7.972-7.324 14.37-13.202 20.768-19.08 0.479,0.545 0.957,1.09 1.436,1.636-6.863,7.796-13.726,15.592-21.163,24.041 2.617,1.7 4.483,2.913 6.227,4.046 3.162-3.348 5.784-6.125 8.406-8.901 0.293,0.214 0.585,0.428 0.878,0.642-0.768,1.75-1.536,3.499-2.753,6.273 6.951-2.362 11.221-6.479 14.781-11.519 6.725-9.521 12.095-19.703 14.94-31.087 0.916-3.666 2.093-7.325 6.67-7.236 4.363,0.085 5.779,3.497 6.904,7.184 2.101,6.891 4.013,13.9 6.883,20.476 2.427,5.56 2.168,10.072-0.937,15.287-4.529,7.605-8.249,15.692-13.091,25.079 8.491-2.857 11.554-10.986 20.48-11.527-4.958,4.637-8.907,8.337-12.864,12.029-3.968,3.702-7.98,7.358-11.906,11.103-3.806,3.631-5.78,8.144-7.671,14.795 10.044-6.54 16.836-14.332 26.537-17.618-9.292,9.292-19.274,17.602-29.198,25.981-3.181,2.686-6.949,5.148-6.04,10.706 7.099-3.724 10.892-11.547 20.481-14.026-10.384,13.025-24.39,20.396-31.519,34.103 5.922,3.561 8.97,1.447 12.18-2.332 5.466-6.435 11.808-11.97 19.408-15.854-3.661,8.19-13.377,11.25-16.808,20.571 3.066,0 5.23,0.188 7.352-0.032 9.582-0.996 13.134,2.134 12.649,11.737-0.328,6.493-1.374,12.958-1.546,19.449-0.21,7.934-2.225,15.977 0.13,24.497 3.542-3.379 6.358-6.065 10.751-10.257-2.927,10.192-12.299,14.361-11.471,24.66 2.8-1.98 4.866-3.44 8.302-5.87-2.522,7.56-11.903,11.143-6.151,19.422 2.014-0.869 3.734-1.611 7.231-3.12-2.834,4.556-4.673,7.513-6.731,10.822 1.55,2.859 2.587,6.141 4.705,8.418 5.769,6.2 13.152,5.416 16.302-2.281 3.102-7.579 5.714-15.699 6.541-23.786 1.129-11.038 0.388-22.27 0.4-33.419 0.005-5.066-0.975-10.316 0.055-15.149 1.243-5.83 3.245-11.919 6.555-16.781 4.258-6.256 11.998-5.415 16.236,1.002 1.556,2.357 2.394,5.237 3.302,7.964 3.835,11.52 4.092,23.456 3.693,35.408-0.373,11.186-1.233,22.356-1.619,33.542-0.292,8.492 3.271,15.262 10.491,20.967z"/>
    <path d="m159.579,55.445c-0.889,6.769-1.239,13.663-2.771,20.284-3.895,16.83-14.936,26.681-31.594,30.396-21.602,4.817-40.758-0.744-57.748-14.32-7.987-6.382-12.919-14.925-12.628-25.287 0.26-9.29 1.085-18.715 3.076-27.77 2.973-13.522 12.635-21.842 25.3-25.961 8.493-2.762 17.566-3.771 26.407-5.419 3.531-0.658 7.166-0.753 10.699-1.399 12.518-2.291 22.803,2.086 29.467,13.198 6.654,11.096 10.049,23.136 9.792,36.278zm-67.886,37.363c3.484,0.819 6.373,2.377 8.784,1.83 2.689-0.611 4.943-3.136 7.773-5.095-0.259,2.391-0.435,4.017-0.69,6.365 3.496-0.304 6.6-0.587 9.708-0.843 13.995-1.152 24.193-8.402 28.605-21.35 6.267-18.392 3.96-36.467-7.589-52.429-2.407-3.327-7.527-5.642-11.785-6.502-13.421-2.713-26.605-0.449-39.295,4.33-14.775,5.564-23.429,19.523-22.136,36.225 4.269-4.508 8.105-8.558 11.94-12.609-2.428,6.668-6.249,11.912-9.826,17.317-3.529,5.333-3.421,5.404 0.851,13.224 1.729-2.036 3.263-3.984 4.952-5.787 1.45-1.548 3.078-2.931 4.627-4.387 0.361,0.391 0.723,0.783 1.084,1.174-3.066,4.705-6.132,9.411-9.622,14.767 2.964,2.256 5.34,4.064 7.779,5.92 6.332-6.773 11.58-13.168 18.071-18.128 0.53,0.543 1.059,1.087 1.589,1.63-5.211,6.216-10.422,12.431-15.546,18.542 3.546,4.094 6.32,4.491 9.68,1.019 3.407-3.521 6.424-7.734 12.076-8.518-3.414,4.118-6.828,8.236-11.03,13.305z"/>
    <path d="m207.181,67.173c5.274-4.173 9.457-7.486 13.643-10.794 10.031-7.927 20.039-5.027 22.185,7.463 2.899,16.875-0.083,33.435-10.188,47.319-3.188,4.381-11.289,7.303-17.117,7.263-20.318-0.141-38.332-15.936-36.901-37.981 0.752-11.59 6.77-17.071 18.259-15.683 3.523,0.425 6.952,1.636 10.119,2.413z"/>
    <path d="m214.944,10.341c2.51-2.348 4.886-5.091 7.757-7.139 4.751-3.39 11.613-3.309 15.206-0.315 3.816,3.181 4.108,7.015 1.21,13.764-4.04,9.408-9.905,16.31-20.756,18.464-11.443,2.272-22.422-4.777-23.745-16.249-0.7-6.071 3.859-10.802 10.751-10.562 3.122,0.108 6.207,1.285 9.577,2.037z"/>
    <path d="m247.868,212.782c2.847-2.994 5.695-5.988 8.542-8.982 0.552,0.509 1.105,1.018 1.657,1.526-2.707,3.118-5.415,6.236-8.122,9.355-0.692-0.633-1.384-1.266-2.077-1.899z"/>
  </g>
</svg>
