<?xml version="1.0" encoding="iso-8859-1"?>
<!-- Generator: Adobe Illustrator 16.0.0, SVG Export Plug-In . SVG Version: 6.00 Build 0)  -->
<!DOCTYPE svg PUBLIC "-//W3C//DTD SVG 1.1//EN" "http://www.w3.org/Graphics/SVG/1.1/DTD/svg11.dtd">
<svg version="1.1" id="Capa_1" xmlns="http://www.w3.org/2000/svg" xmlns:xlink="http://www.w3.org/1999/xlink" x="0px" y="0px"
	 width="195.649px" height="195.649px" viewBox="0 0 195.649 195.649" style="enable-background:new 0 0 195.649 195.649;"
	 xml:space="preserve">
<g>
	<g>
		<path d="M188.006,85.906c-2.845-4.288-7.436-8.071-12.869-7.321c-4.907,0.678-7.396,5.392-8.508,10.044
			c-1.457-1.552-3.014-3.029-4.705-4.382c-15.902-12.709-38.891-15.09-58.484-10.939c8.443-22.589,8.066-58.507-15.916-70.148
			C70.581-5.064,47.987,3.296,47.385,22.053C28.518,18.36,9.06,31.246,4.786,50.061c-4.278,18.833,9.841,32.157,27.349,30.138
			c0.206,3.18,0.465,6.355,0.745,9.527c-0.17,0.18-0.357,0.309-0.52,0.507c-1.215,1.47-0.546,3.201,0.914,3.733
			c1.673,17.586,3.978,35.092,4.094,52.818c-11.099,14.543-6.767,32.434,7.256,43.122c13.913,10.604,34.028,5.652,44.115-7.721
			c6.703-8.888,7.816-18.539,4.711-27.185c9.758-12.949,25.383-13.882,34.271,1.644c0.881,1.54,2.259,2.016,3.574,1.845
			c-2.77,13.635,3.371,28.383,21.531,31.514c15.473,2.667,27.686-7.89,30.686-22.625c1.809-8.882-1.518-24.782-10.336-30.669
			c0.139-0.166,0.291-0.297,0.41-0.513c4.887-8.923,5.875-18.693,3.754-27.796c5.621,0.528,11.52-2.378,13.594-7.744
			C192.786,95.866,190.68,89.94,188.006,85.906z M116.786,79.224c7.62-0.18,15.174,0.613,22.479,2.667
			c-1.861,7.122-5.164,13.736-13.685,13.491C116.686,95.126,116.213,85.853,116.786,79.224z M108.545,79.749
			c1.734-0.188,3.471-0.324,5.203-0.421c-3.834,8.918,0.424,19.256,10.301,21.407c10.731,2.338,19.871-6.726,21.35-16.801
			c0.324,0.128,0.656,0.227,0.98,0.36c-0.949,6.082-0.242,11.945-4.556,17.442c-3.789,4.829-9.743,6.561-15.653,6.24
			C111.23,107.165,106.709,92.242,108.545,79.749z M42.654,129.648c-0.02-2.072-0.032-4.146-0.101-6.219
			c3.614-1.755,6.921-4.695,7.278-8.71c0.48-5.39-4.081-8.583-8.483-10.532c-0.293-3.434-0.617-6.854-0.94-10.285
			c6.328,0.489,11.197,3.78,15.155,10.253C63.06,116.415,53.641,125.169,42.654,129.648z M41.811,109.853
			c1.895,1.09,3.547,2.622,3.499,4.867c-0.038,1.742-1.335,3.166-2.935,4.331C42.223,115.984,42.039,112.917,41.811,109.853z
			 M82.367,176.492c-7.022,10.479-21.013,13.205-31.576,6.953c-12.106-7.167-14.137-21.672-5.581-32.352
			c7.622-9.513,18.927-11.199,29.542-7.84c0.254,0.776,0.667,1.522,1.443,2.112C86.807,153.438,89.928,165.208,82.367,176.492z
			 M175.909,162.716c-0.244,11.311-8.57,19.872-19.85,19.55c-12.49-0.358-19.686-10.625-17.604-22.366
			c1.983-11.179,11.229-18.836,21.825-21.354c2.745-0.651,2.161-5.026-0.666-4.917c-12.589,0.488-21.629,8.183-26.018,17.747
			c-10.199-17.552-32.33-17.646-42.957-2.158c-2.51-4.066-5.985-7.785-10.322-10.902c-1.086-0.781-2.145-0.92-3.057-0.644
			c-11.308-6.412-24.916-4.642-34.812,3.782c0.138-2.544,0.185-5.089,0.211-7.633c0.149-0.009,0.285,0.012,0.448-0.029
			c15.104-3.818,25.167-16.087,17.98-31.39c-2.796-5.954-12.929-15.564-21.334-15.638c-0.285-3.05-0.579-6.108-0.836-9.154
			c-0.296-3.506-4.62-4.244-6.286-2.162c-13.799-1.295-23.959-9.482-20.406-24.883c2.368-10.263,8.724-15.758,16.642-18.579
			c0.307,3.769,1.727,7.577,1.983,11.43c0.348,5.256-0.216,10.568-0.818,15.783c-0.169,1.459-4.465,15.916-0.012,15.201
			c0.238-0.038,0.475-0.076,0.713-0.115c0.8-0.128,1.367-0.901,1.607-1.607c2.729-8.02,4.073-16.354,4.601-24.793
			c0.322-5.146,0.612-12.796-2.64-17.397c4.588-0.941,9.475-1.24,14.284-1.212c0.495,0.32,1.105,0.261,1.683,0.025
			c0.288,0.006,0.579,0.005,0.865,0.013c3.469,0.096,3.919-4.473,1.196-5.85c4.248-17.365,24.733-21.379,38.714-9.642
			c17.259,14.489,6.812,42.608,5.589,60.935c-0.025,0.373,0.035,0.719,0.154,1.037c-1.298,2.174,0.507,5.679,3.777,5.085
			c0.892-0.162,1.789-0.267,2.683-0.408c-2.974,15.471,4.191,31.85,21.752,33.981c14.686,1.783,29.59-11.791,28.725-26.517
			c17.834,10.494,17.361,27.567,14.457,45.984c-0.039,0.252-0.004,0.487,0.014,0.727c-0.92-0.169-1.871-0.263-2.873-0.229
			c-2.932,0.096-3.907,3.269-2.223,5.366c2.918,3.635,7.109,5.305,9.752,9.438C175.409,153.213,176.008,158.092,175.909,162.716z
			 M184.4,98.274c-0.054,0.196-0.071,0.275-0.082,0.334c-0.011,0.007-0.026,0.023-0.076,0.127c-0.106,0.218-0.903,1.286-0.394,0.681
			c-0.782,0.93-0.592,0.691-1.725,1.258c0.536-0.269-0.678,0.22-0.82,0.262c-0.41,0.121-1.321,0.295-1.471,0.312
			c-1.576,0.177-3.137,0.126-4.716,0.327c-1.212-2.863-2.769-5.594-4.593-8.17c0.73-2.414,1.472-4.822,2.914-6.921
			c0.472-0.688,0.976-1.056,1.429-1.334c0.604-0.372,0.562-0.317,1.115-0.336c0.183-0.006,0.241-0.014,0.296-0.021
			c0.021,0.008,0.014,0.013,0.092,0.028c0.34,0.062,0.668,0.18,0.996,0.295c0.062,0.042,0.576,0.262,0.68,0.319
			c0.354,0.194,0.685,0.43,1.012,0.666c0.035,0.049,0.576,0.495,0.647,0.562c0.384,0.353,0.746,0.73,1.103,1.109
			c0.851,0.908,0.758,0.833,1.445,1.884c1.185,1.812,1.521,2.616,2.045,4.556C184.721,95.788,184.717,97.11,184.4,98.274z"/>
		<path d="M66.809,36.67c-0.31-1.197-1.045-2.04-1.987-2.524c-0.137-0.418-0.267-0.835-0.456-1.249
			c-1.579-3.464-7.087-1.666-6.986,1.892c0.083,2.914,1.05,5.668,1.209,8.564c0.279,5.073,7.952,5.148,7.934,0
			c-0.002-0.57-0.007-1.138-0.009-1.706c0.282-0.615,0.433-1.295,0.228-1.909c0.09,0.264,0.096,0.526,0.019,0.786
			c0.106-0.448,0.147-0.901,0.124-1.358C66.878,38.301,67.034,37.541,66.809,36.67z"/>
	</g>
</g>
<g>
</g>
<g>
</g>
<g>
</g>
<g>
</g>
<g>
</g>
<g>
</g>
<g>
</g>
<g>
</g>
<g>
</g>
<g>
</g>
<g>
</g>
<g>
</g>
<g>
</g>
<g>
</g>
<g>
</g>
</svg>
