<?xml version="1.0" encoding="iso-8859-1"?>
<!-- Generator: Adobe Illustrator 16.0.0, SVG Export Plug-In . SVG Version: 6.00 Build 0)  -->
<!DOCTYPE svg PUBLIC "-//W3C//DTD SVG 1.1//EN" "http://www.w3.org/Graphics/SVG/1.1/DTD/svg11.dtd">
<svg version="1.1" id="Capa_1" xmlns="http://www.w3.org/2000/svg" xmlns:xlink="http://www.w3.org/1999/xlink" x="0px" y="0px"
	 width="193.587px" height="193.586px" viewBox="0 0 193.587 193.586" style="enable-background:new 0 0 193.587 193.586;"
	 xml:space="preserve">
<g>
	<g>
		<path d="M53.86,55.541c0.119-0.226,0.222-0.449,0.283-0.699c0.334-1.302,0.144-2.838-0.17-4.018
			c-0.012-0.044-0.04-0.072-0.054-0.115c-0.053-0.885-0.099-1.769-0.299-2.636c-0.398-1.729-1.713-2.332-3.021-2.198
			c-1.308-0.134-2.623,0.47-3.021,2.198c-0.2,0.867-0.245,1.75-0.299,2.636c-0.013,0.043-0.042,0.072-0.054,0.116
			c-0.315,1.179-0.504,2.715-0.17,4.018c0.061,0.25,0.164,0.474,0.283,0.699c0.06,0.128,0.085,0.276,0.16,0.396
			c0.048,0.075,0.116,0.104,0.167,0.176c0.076,0.095,0.164,0.174,0.249,0.262c0.757,0.868,1.711,1.226,2.685,1.183
			c0.973,0.043,1.927-0.315,2.684-1.183c0.086-0.088,0.173-0.167,0.249-0.262c0.051-0.071,0.119-0.1,0.167-0.176
			C53.776,55.817,53.8,55.669,53.86,55.541z"/>
		<path d="M193.227,94.709c-1.446-7.934-6.562-14.22-13.255-18.478c-10.754-6.842-29.64-4.835-28.72,10.504
			c-1.41-0.761-2.935-1.494-4.718-2.171c-0.968-0.367-1.715-0.153-2.255,0.316c-6.32-2.603-13.853-1.292-20.591-0.816
			c-9.539,0.674-18.557,1.205-28.081-0.45c-0.877-0.153-1.687-0.365-2.453-0.615c8.235-22.544,8.601-54.854-16.493-65.87
			c-0.195-0.647-0.669-1.198-1.574-1.18c-0.329,0.007-0.612,0.095-0.93,0.121c-13.365-4.685-42.517-4.287-41.155,14.17
			c-0.773,0.087-1.552,0.171-2.272,0.289C15.185,33.064-2.679,43.75,0.336,61.272c2.765,16.069,20.912,18.271,37.271,17.865
			c-0.891,19.25,4.678,38.02,15.591,51.054c-1.245,2.659-2.486,5.318-3.923,7.895c-0.651,1.168-1.848,2.813-2.75,4.513
			c-0.408-0.02-0.828,0.111-1.186,0.483c-0.131,0.136-0.241,0.3-0.371,0.439c-13.16-7.398-29.736-7.327-22.94,12.376
			c4.473,12.968,19.402,18.912,35.642,21.672c0.372,0.577,1.201,0.692,1.795,0.28c14.848,2.301,30.5,2.094,40.11,2.163
			c7.369,0.055,15.975-0.002,24.753-0.744c0.626,0.71,1.807,0.883,2.442-0.207c0.002-0.005,0.005-0.008,0.007-0.012
			c22.581-2.259,45.706-9.582,51.695-32.67c4.43-17.082-19.7-7.156-30.946,0.008c-0.398-1.048-1.897-1.524-2.853-0.723
			c-2.18-5.864-4.332-11.697-6.127-17.706c9.887-7.419,18.711-16.191,21.198-24.309c8.433,2.418,15.466,7.622,19.092,16.146
			c0.699,1.646,3.182,1.699,4.3,0.554C189.816,113.511,195.028,104.603,193.227,94.709z M118.473,91.62
			c-0.492,1.679-1.067,3.343-2.31,4.823c-2.389,2.848-5.935,4.252-9.486,4.927c-4.32,0.821-14.878-0.341-12.85-7.152
			c0.378-1.269-1.305-1.79-2-0.843c-6.24,8.501,5.856,13.54,12.849,13.672c5.242,0.1,10.233-1.79,14.297-5.013
			c2.979-2.364,5.683-6.688,6.297-10.878c1.32-0.098,2.643-0.194,3.912-0.283c1.443,4.155,3.527,7.3-0.479,12.086
			c-4.272,5.106-11.332,7.529-17.624,8.865c-6.434,1.366-13.921,1.381-19.795-1.901c-7.88-4.402-6.008-14.049-3.367-21.18
			C95.939,92.347,107.473,92.281,118.473,91.62z M81.704,60.959c1.678-0.134,3.716,0.148,5.04,0.228
			c1.623,0.096,3.328,0.568,5.005,0.834c-0.658,6.405-2.067,12.637-3.754,17.914C83.231,75.417,82.313,67.802,81.704,60.959z
			 M92.089,56.828c-2.074-0.321-4.358-0.216-6.09-0.174c-1.307,0.031-3.049,0.069-4.651,0.404c-0.116-1.193-0.243-2.343-0.408-3.403
			c-0.399-2.566-1.302-4.827-2.454-6.92c1.162-1.059,2.489-1.896,4.129-2.417c2.852-0.907,5.675-0.143,8.556-0.175
			C91.993,48.202,92.229,52.508,92.089,56.828z M89.989,39.839c-4.757-1.076-10.106,0.544-13.344,4.077
			c-1.411-1.83-3.025-3.512-4.927-4.946c1.425-1.458,2.971-2.79,4.723-3.911c3.048-1.951,6.412-2.234,9.778-3.191
			C87.9,34.255,89.058,36.987,89.989,39.839z M70.656,21.585c2.009,0.576,3.896,1.2,5.415,1.883c2.64,1.188,4.884,2.705,6.795,4.477
			c-5.543,0.413-10.657,4.426-14.262,8.959c-1.91-1.125-3.948-2.117-6.093-2.951c0.256-0.191,0.471-0.444,0.562-0.806
			c0.791-3.124,1.828-6.208,3.933-8.707C68.028,23.228,69.294,22.332,70.656,21.585z M53.84,23.212
			c0.915-1.719,2.555-2.825,4.28-3.755c2.4,0.114,4.779,0.452,7.094,0.871c-3.052,3.188-4.87,7.71-5.382,12.379
			c-0.014,0.127,0.02,0.228,0.033,0.341c-2.156-0.705-4.352-1.328-6.592-1.782C52.703,28.549,52.492,25.746,53.84,23.212z
			 M51.631,19.645c-2.165,3.009-2.831,6.935-1.908,11c-4.091-0.604-8.155-0.846-11.887-0.744
			C39.114,23.36,44.802,20.454,51.631,19.645z M31.384,155.868c-5.265-6.648-7.115-13.214,4.18-10.423
			c0.12,0.029,0.228,0.063,0.348,0.094c-1.013,1.617-1.888,3.297-2.651,5.114c-0.607,1.446-1.146,2.917-1.697,4.385
			C31.495,155.223,31.439,155.537,31.384,155.868z M33.068,157.876c0.9-1.088,1.577-2.779,2.066-3.722
			c1.331-2.569,2.505-5.202,3.731-7.816c1.012,0.282,2.017,0.557,3.027,0.818c-2.89,3.859-5.197,8.257-6.919,12.68
			C34.329,159.189,33.671,158.552,33.068,157.876z M37.24,161.978c2.514-4.939,5.833-9.24,8.807-13.825
			c0.632,0.82,1.616,1.308,2.72,0.978c3.192-0.955,4.266-6.261,5.293-9.026c0.778-2.098,1.648-4.238,2.351-6.418
			c1.06,1.06,2.186,2.038,3.325,3.001c-6.638,8.983-12.003,19.211-17.68,28.937C40.532,164.681,38.887,163.437,37.24,161.978z
			 M59.389,170.524c-1.762-0.344-3.531-0.651-5.282-1.061c1.403-2.493,2.581-5.104,3.62-7.865
			c2.061-5.475,4.453-11.527,5.173-17.336c0.186-1.5-1.95-1.789-2.641-0.715c-2.574,4.003-3.411,8.965-4.713,13.498
			c-1.164,4.054-2.602,7.941-4.546,11.604c-2.027-0.524-4.069-0.974-6.076-1.598c-0.025-0.008-0.056-0.025-0.081-0.034
			c6.141-9.181,12.815-18.313,17.924-28.008c0.759,0.545,1.486,1.136,2.279,1.632c-0.169,0.658-0.19,1.413-0.28,2.083
			c-0.255,1.904-0.418,3.838-0.524,5.755c-0.144,2.612-1.038,6.174,1.223,8.125c0.141,0.12,0.294,0.188,0.443,0.272
			C63.245,161.093,61.045,165.828,59.389,170.524z M62.5,171.148c1.128-2.502,2.345-4.964,3.705-7.374
			c1.277-2.266,2.751-4.435,4.078-6.677c1.362,0.789,2.969,1.393,4.663,1.903c-2.578,4.115-4.647,8.601-6.272,13.082
			C66.611,171.804,64.551,171.503,62.5,171.148z M71.204,172.392c2.145-4.365,4.685-8.43,7.245-12.508
			c3.148,0.638,6.403,0.975,9.335,1.212c-2.988,3.69-5.417,8.042-7.952,12.102C76.948,172.988,74.07,172.736,71.204,172.392z
			 M83.492,173.409c0.952-1.324,1.937-2.624,2.87-3.962c1.835-2.632,3.93-5.23,5.535-8.037c0.656,0.047,1.358,0.094,1.911,0.142
			c0.905,0.079,1.91,0.152,2.891,0.227c-0.844,1.443-1.572,2.89-2.205,3.952c-1.533,2.572-2.804,5.203-3.899,7.979
			C88.222,173.667,85.857,173.537,83.492,173.409z M102.538,173.956c-3.251-0.055-6.481-0.131-9.653-0.197
			c1.395-1.87,2.779-3.733,4.066-5.691c1.154-1.755,2.356-3.478,3.606-5.163c0.21-0.283,0.452-0.564,0.693-0.847
			c2.907,0.145,5.983,0.195,9.075,0.097C107.514,165.884,105.095,170.013,102.538,173.956z M111.903,173.963
			c-2.009,0.025-4.02,0.051-6.023,0.033c3.126-3.857,6.117-7.896,8.624-12.089c2.772-0.24,5.468-0.701,8.045-1.335
			c-1.057,1.62-2.03,3.323-3.122,4.799c-2.099,2.837-4.477,5.609-7.174,7.894C112.011,173.47,111.941,173.718,111.903,173.963z
			 M167.573,142.533c0.11,0.671,0.134,1.294,0.197,1.939c-1.974,2.74-3.595,6.035-5.078,8.391
			c-2.612,4.146-5.204,8.303-7.843,12.431c-4.544,2.339-9.288,4.093-14.234,5.253c4.818-8.452,11.575-14.979,17.43-22.783
			c0.589-0.784,0.008-1.759-0.784-2.144C160.275,144.05,163.62,142.976,167.573,142.533z M146.511,154.466
			c1.688-1.918,3.402-3.612,5.196-5.115c-6.352,6.141-11.457,14.117-14.905,22.031c-1.943,0.436-3.892,0.855-5.878,1.161
			c2.183-3.273,4.434-6.503,6.731-9.701c1.839-2.559,3.901-5.103,5.754-7.76C144.345,155.617,145.524,155.587,146.511,154.466z
			 M140.34,150.466c0.03,0.074,0.087,0.116,0.122,0.186c-2.34,3.241-4.419,6.752-6.623,9.96c-2.779,4.046-5.248,8.229-7.509,12.548
			c-3.486,0.373-7.015,0.604-10.56,0.717c2.14-1.59,4.074-3.428,5.821-5.461c2.372-2.76,5.488-6.126,6.541-9.694
			c1.512-0.681,2.938-1.461,4.206-2.41c1.831-1.372,1.561-4.311-0.103-5.236c-0.169-0.761-0.422-1.52-0.688-2.247
			c2.226-3.346,4.467-7.514,4.634-11.367c0.057-1.312-1.655-1.576-2.306-0.625c-1.051,1.533-1.496,3.382-2.107,5.121
			c-0.44,1.252-0.947,2.479-1.509,3.679c-1.081-2.583-2.4-5.005-3.537-7.574c-0.715-1.617-3.137-0.435-2.754,1.16
			c0.651,2.713,1.11,5.45,1.738,8.174c0.302,1.309,0.322,3.057,0.531,4.671c-9.636,2.779-19.136,3.793-29.385,3.631
			c-5.127-0.081-10.082-0.945-15.002-1.876c-0.008-1.123-1.411-2.041-2.325-1.036c-0.148,0.163-0.266,0.355-0.411,0.521
			c-2.217-0.422-4.432-0.832-6.655-1.167c-0.22-1.049-1.744-1.723-2.533-0.792c-0.025,0.03-0.046,0.069-0.072,0.1
			c-0.067-1.028-0.199-2.061-0.249-2.966c-0.102-1.86-0.266-3.733-0.508-5.581c10.744,5.32,23.97,6.652,39.312,2.047
			c5.684-1.706,16.408-7.257,26.654-14.455C135.948,137.325,137.697,144.142,140.34,150.466z M100.139,140.558
			c-41.24,9.791-55.066-30.426-58.236-61.576c6.592-0.324,12.634-0.917,16.859-1c1.928-0.038,2.416-2.957,0.463-3.418
			c-6.586-1.554-12.478-1.879-19.306-1.904c-3.845,0.165-7.675,0.002-11.499-0.316c2.943-9.413,6.245-27.129-2.645-33.223
			c-1.197-0.821-3.21,0.251-3.05,1.75c0.522,4.902,2.762,9.196,3.11,14.288c0.384,5.613-0.53,11.215-1.326,16.754
			c-1.047-0.132-2.097-0.177-3.141-0.346C5.569,57.76,4.392,47.886,17.836,41.947c9.961-6.201,22.803-7.247,33.946-4.878
			c21.409,4.55,20.598,26.32,27.053,42.735c1.391,3.536,3.871,6.045,7.012,7.881c-3.785,7.915-5.862,17.056,0.361,24.319
			c5.692,6.646,16.605,7.106,24.55,6.098c8.694-1.103,18.312-4.739,23.882-11.816c3.104-3.946,4.315-10.721,2.404-15.812
			c3.144-0.076,5.944-0.004,8.127,0.399c0.364,0.068,0.705,0.057,1.021-0.001C169.721,111.946,116.917,136.576,100.139,140.558z
			 M181.704,113.317c-4.668-8.105-12.361-13.754-21.457-16.184c-0.588-3.186-2.567-6.146-6.285-8.745
			c1.534-4.892,3.447-9.021,8.854-10.303c5.045-1.195,10.654,1.424,14.74,4.126C189.327,89.998,188.78,103.075,181.704,113.317z"/>
	</g>
</g>
<g>
</g>
<g>
</g>
<g>
</g>
<g>
</g>
<g>
</g>
<g>
</g>
<g>
</g>
<g>
</g>
<g>
</g>
<g>
</g>
<g>
</g>
<g>
</g>
<g>
</g>
<g>
</g>
<g>
</g>
</svg>
