<?xml version="1.0" encoding="iso-8859-1"?>
<!-- Generator: Adobe Illustrator 16.0.0, SVG Export Plug-In . SVG Version: 6.00 Build 0)  -->
<!DOCTYPE svg PUBLIC "-//W3C//DTD SVG 1.1//EN" "http://www.w3.org/Graphics/SVG/1.1/DTD/svg11.dtd">
<svg version="1.1" id="Capa_1" xmlns="http://www.w3.org/2000/svg" xmlns:xlink="http://www.w3.org/1999/xlink" x="0px" y="0px"
	 width="194.496px" height="194.496px" viewBox="0 0 194.496 194.496" style="enable-background:new 0 0 194.496 194.496;"
	 xml:space="preserve">
<g>
	<g>
		<path d="M162.265,47.82C150.58,3.918,101.939-9.864,62.997,6.923c-0.957,0.412-1.799,1.876-1.669,2.909
			c0.715,5.671,1.619,10.674,4.154,15.317c-7.274,1.106-14.759,3.768-22.326,8.364C28.99,42.118,24.432,61.208,31.273,75.889
			c7.509,16.117,22.922,24.748,40.046,23.18c-1.268,4.596-2.017,9.179-2.021,14.106c-0.002,2.235,0.72,5.429,3.24,6.121
			c2.013,0.555,3.163-0.45,3.705-1.876c5.513,4.103,15.494,1.316,21.782,0.683c5.883-0.594,11.752-1.249,17.627-1.826
			c-0.887,0.519-1.564,1.39-1.58,2.586c-0.279,20.919,12.124,45.478,2.105,65.764c-4.056,8.214-8.254-2.5-9.272-6.135
			c-2.047-7.301-2.64-15.051-3.292-22.573c-1.023-11.786-1.142-23.668-1.517-35.486c-0.077-2.459-3.846-3.146-4.406-0.596
			c-2.985,13.599-7.22,78.067,16.99,74.518c22.704-3.329,8.204-62.833,5.619-76.333c-0.208-1.085-0.869-1.711-1.667-2.024
			c6.088-0.563,12.186-1.015,18.315-1.153c2.167-0.049,3.334-1.539,3.614-3.189c0.489-0.116,0.928-0.358,1.323-0.659
			C174.173,121.349,166.808,64.885,162.265,47.82z M157.152,57.752c-0.437-0.07-0.896-0.06-1.387,0.104
			c-4.242,1.417-8.392,3.253-12.583,4.828c-3.472,1.305-7.389,2.455-10.647,4.374c-1.941-3.768-4.114-7.412-6.513-10.872
			c4.639-1.368,9.115-3.276,13.568-5.181c3.789-1.621,10.62-3.394,13.921-6.704C155.105,48.58,156.239,53.156,157.152,57.752z
			 M120.499,48.982c-3.49-4.098-7.29-7.845-11.386-11.086c0.117-0.075,0.244-0.114,0.352-0.213
			c4.427-4.065,10.065-7.276,15.771-9.662C124.482,35.179,122.789,42.158,120.499,48.982z M133.312,18.081
			c6.321,4.539,11.755,10.368,15.933,17.231c0.717,1.177,1.354,2.431,1.977,3.697c-3.851,0.477-7.515,3.538-10.833,5.35
			c-4.303,2.35-8.712,4.452-13.182,6.426c3.124-8.952,5.123-18.484,5.219-27.816c0.012-1.12-0.678-2.174-1.622-2.811
			C131.768,19.417,132.654,18.971,133.312,18.081z M128.572,15.03c-2.441,1.526-4.48,4.621-5.482,6.75
			c-0.01,0.022-0.007,0.043-0.017,0.065c-6.67,2.989-13.385,7.064-17.615,12.747c-0.111,0.15-0.141,0.298-0.212,0.448
			c-2.521-1.732-5.156-3.212-7.848-4.549c2.697-3.601,5.282-7.285,7.886-10.954c1.955-2.755,6.984-7.237,6.526-10.979
			C117.766,9.829,123.402,12.036,128.572,15.03z M84.483,19.506c0.378-3.901,2.35-7.971,2.232-11.827
			c5.191-0.607,10.432-0.652,15.667-0.423c1.208,0.053,2.377,0.256,3.566,0.383c-2.132,2.056-3.593,5.639-4.854,7.724
			c-2.655,4.39-5.317,8.785-7.841,13.254c-3.015-1.219-6.097-2.24-9.273-2.913C84.145,23.64,84.283,21.572,84.483,19.506z
			 M79.478,8.921c0.469-0.115,0.944-0.169,1.414-0.271c-0.893,2.373-1.051,5.097-1.27,7.62c-0.249,2.868-0.212,5.786-0.045,8.693
			c-2.935-0.364-5.922-0.492-8.956-0.336C67.07,15.304,69.584,11.353,79.478,8.921z M53.73,89.269
			c-6.127-3.191-11.326-7.975-15.04-14.842c-8.397-15.527,0.138-31.985,15.437-38.285c1.213-0.5,2.411-0.924,3.604-1.332
			c0.05,0.126,0.043,0.245,0.11,0.373c8.205,15.625,5.627,38.205-3.983,52.506C53.511,88.203,53.527,88.769,53.73,89.269z
			 M101.611,110.358c-6.938,0.93-18.981-0.027-24.949,4.361c0.03-0.516,0.047-1.001-0.004-1.545
			c-0.073-0.801-0.105-1.605-0.155-2.41c0.337,0.022,0.681,0.025,1.035-0.029c17.992-2.774,27.11-27.461,28.844-43.105
			c0.436-3.922-4.854-4.376-6.692-1.813c-5.433,7.577-12.222,14.287-18.44,21.213c-1.817,2.023-4.414,4.624-6.289,7.442
			c-0.42-0.575-1.313-0.629-1.913-0.126c-6.018-0.419-11.703-1.699-16.85-3.942c0.088-0.04,0.179-0.054,0.265-0.112
			c15.962-10.791,15.743-41.395,7.81-57.289c22.461-4.77,40.958,6.521,53.554,23.756c-0.304,1.675,0.908,3.02,2.432,3.514
			c0.7,1.066,1.337,2.183,1.994,3.285c-0.191,0.23-0.35,0.508-0.415,0.901c-2.155,12.937-6.897,22.868-16.415,32.075
			c-2.709,2.621,0.069,7.134,3.608,6.198c9.231-2.44,18.632-7.291,23.4-15.457c1.894,6.67,3.107,13.403,3.49,19.878
			C124.436,107.322,112.984,108.834,101.611,110.358z M138.975,82.537c-0.059,0.011-0.1,0.047-0.155,0.062
			c-1.18-3.727-2.504-7.421-4.128-11.008c7.826-1.997,16.256-4.338,23.546-7.618c0.598,4,1.081,7.956,1.411,11.651
			c0.082,0.919,0.149,1.831,0.201,2.735c-2.45,0.633-4.84,1.769-7.347,2.321C148.034,81.663,143.465,81.75,138.975,82.537z
			 M142.956,104.227c-0.311-5.726-1.291-11.513-2.801-17.23c4.727,0.567,9.656,0.141,14.34-0.465
			c1.706-0.221,3.625-0.437,5.363-0.964C159.195,96.019,155.062,103.973,142.956,104.227z"/>
		<path d="M89.612,52.861c0.067-0.759,0.158-1.505,0.098-2.307c-0.019-0.252-0.067-0.513-0.113-0.774
			c-0.007-0.676,0.009-1.352-0.01-2.027c0.007-0.242-0.083-0.416-0.111-0.635c-0.023-0.607-0.028-1.214-0.069-1.819
			c-0.038,0.005-0.076,0.01-0.113,0.016c-0.021-4.356-6.932-5.027-7.268-0.016c-0.041,0.605-0.047,1.213-0.069,1.819
			c-0.028,0.218-0.118,0.393-0.111,0.635c-0.051,1.808-0.063,3.62-0.027,5.428c-0.051,2.548,1.923,3.791,3.897,3.756
			c1.62,0.028,3.176-0.846,3.678-2.556c0.064-0.162,0.148-0.307,0.175-0.501c0.028-0.203,0.003-0.394,0.025-0.592
			c0-0.04,0.021-0.067,0.02-0.108C89.615,53.075,89.61,52.968,89.612,52.861z"/>
	</g>
</g>
<g>
</g>
<g>
</g>
<g>
</g>
<g>
</g>
<g>
</g>
<g>
</g>
<g>
</g>
<g>
</g>
<g>
</g>
<g>
</g>
<g>
</g>
<g>
</g>
<g>
</g>
<g>
</g>
<g>
</g>
</svg>
