<?xml version="1.0" encoding="iso-8859-1"?>
<!-- Generator: Adobe Illustrator 16.0.0, SVG Export Plug-In . SVG Version: 6.00 Build 0)  -->
<!DOCTYPE svg PUBLIC "-//W3C//DTD SVG 1.1//EN" "http://www.w3.org/Graphics/SVG/1.1/DTD/svg11.dtd">
<svg version="1.1" id="Capa_1" xmlns="http://www.w3.org/2000/svg" xmlns:xlink="http://www.w3.org/1999/xlink" x="0px" y="0px"
	 width="193.218px" height="193.217px" viewBox="0 0 193.218 193.217" style="enable-background:new 0 0 193.218 193.217;"
	 xml:space="preserve">
<g>
	<g>
		<path d="M185.306,109.706c-0.192-0.221-0.407-0.361-0.623-0.495c14.053-7.684,9.493-19.778-4.527-26.78
			c-20.902-10.439-50.839-2.911-73.16,0.343c0.777-11.42-4.064-25.213-7.889-35.328c-3.753-9.925-10.22-20.891-20.771-24.683
			c-17.942-6.448-32.986,6.927-28.33,24.037C28.187,40.504,2.883,46.675,0.138,72.612c-2.404,22.715,27.177,31.5,45.235,34.878
			c-5.658,18.817-6.055,45.64,8.433,59.708c11.351,11.021,30.552,2.083,31.485-12.982c19.444,1.911,39.466,1.482,58.977,1.238
			c-2.369,18.084,24.247,19.284,35.608,9.29c7.896-6.945,8.585-16.869,9.06-26.829c0.075-1.591,0.197-3.541,0.297-5.623
			c0.162-0.388,0.309-0.782,0.376-1.194c0.091-0.556-0.035-1.155-0.277-1.687C189.525,122.244,189.082,113.998,185.306,109.706z
			 M111.977,86.989c7.752,0.173,15.57-0.426,23.353-1.078c0.199,5.113,2.675,9.521,0.026,14.707
			c-1.91,3.738-6.022,5.562-10.047,5.732c-3.94,0.168-7.753-1.525-10.408-4.391C111.07,97.829,111.422,92.187,111.977,86.989z
			 M105.758,87.013c0.134-0.088,0.304-0.106,0.414-0.228c1.057,0.092,2.123,0.059,3.184,0.111
			c-4.886,12.059,2.252,25.019,15.952,25.112c5.928,0.041,11.407-2.971,14.675-7.853c3.187-4.763,3.709-13.201,0.957-18.675
			c0.978-0.072,1.963-0.164,2.938-0.225c0.031,0.163,0.008,0.312,0.069,0.481c5.387,14.759,0.438,27.804-16.05,30.731
			c-6.43,1.142-13.29-0.813-17.82-5.515C104.146,104.796,104.874,94.878,105.758,87.013z M92.474,67.388
			c-1.088,0.464-2.232,0.745-3.519,0.566c-0.269-0.038-0.508-0.142-0.76-0.217c0.663-4.85,1.994-9.633,2.412-14.473
			c0.331-0.17,0.657-0.348,0.994-0.507c0.228-0.108,0.296-0.286,0.427-0.439c0.229,2.108,0.599,4.224,0.699,6.329
			C92.865,61.566,92.703,64.479,92.474,67.388z M9.586,83.58c-0.242-3.743-0.373-7.497-0.424-11.239
			c-0.034-2.552,0.672-6.581,0.158-9.635c1.152-1.846,2.547-3.559,4.166-5.053c-0.592,4.189-0.056,8.956-0.029,12.818
			c0.046,6.598,0.441,13.326,2.339,19.678C13.332,88.322,11.244,86.134,9.586,83.58z M17.262,68.186
			c0.118-4.194,1.072-9.223-0.105-13.368c1.98-1.265,4.106-2.27,6.296-2.922c0.374-0.111,0.757-0.168,1.134-0.264
			c-0.178,0.293-0.317,0.628-0.356,1.047c-1.239,13.465-1.643,28.105-0.421,41.579c0.022,0.24,0.156,0.371,0.255,0.539
			c-2.375-1.023-4.639-2.194-6.717-3.556c0.468-0.195,0.852-0.653,0.761-1.312C17.103,82.697,17.056,75.472,17.262,68.186z
			 M53.524,156.001c0.353,0.036,0.733,0.074,1.172,0.058c1.688-0.062,3.405,0.102,5.114,0.327c-0.181,2.434-0.018,4.974,0.156,7.449
			C57.292,161.907,55.104,158.926,53.524,156.001z M65.555,165.881c-1.072-0.053-2.099-0.285-3.076-0.675
			c0.163-2.746,0.434-5.624,0.282-8.383c0.295,0.047,0.601,0.086,0.893,0.132c0.785,0.124,1.808,0.368,2.947,0.643
			C65.608,160.171,65.467,163.37,65.555,165.881z M68.215,165.616c-0.119,0.031-0.231,0.034-0.348,0.061
			c0.258-1.661,0.662-3.263,1.215-4.868c0.291-0.845,0.68-1.621,1.019-2.411c2.255,0.461,4.59,0.78,6.449,0.485
			C74.726,161.927,72.508,164.473,68.215,165.616z M92.877,136.869c-0.056,3.999-0.348,8.003-0.977,11.953
			c-0.02,0.127,0.008,0.233,0.012,0.352c-0.423,0.031-0.848,0.046-1.271,0.079c0.011-0.291-0.079-0.592-0.351-0.866
			c-2.949-2.965-5.077-6.303-3.538-10.518c0.966-2.646,3.583-4.738,6.185-6.1C92.832,133.456,92.902,135.16,92.877,136.869z
			 M99.938,135.881c-0.394,4.317-0.746,8.642-1.307,12.942c-1.157,0.063-2.326,0.075-3.483,0.148
			c1.189-5.689,2.46-12.768,1.382-18.593c1.291-0.336,2.599-0.456,3.887-0.384C100.132,131.942,100.112,133.968,99.938,135.881z
			 M101.897,148.683c0.987-4.029,1.783-8.109,2.357-12.218c0.225-1.601,0.569-3.331,0.707-5.045
			c0.071,0.046,0.149,0.063,0.221,0.112c5.272,3.581,2.956,10.722,4.644,15.697c0.145,0.43,0.434,0.784,0.771,1.08
			C107.686,148.362,104.795,148.547,101.897,148.683z M132.893,141.704c0.02,0.936,0.041,1.872,0.061,2.808
			c-0.122,0.12-0.246,0.24-0.286,0.433c-0.229,1.116-0.366,2.204-0.306,3.32c-0.561-0.006-1.114-0.015-1.673-0.021
			c0.073-0.193,0.107-0.402,0.019-0.622c-1.199-2.969-1.826-6.771,0.746-9.151c0.484-0.448,1.063-0.773,1.671-1.051
			C132.716,138.787,132.859,140.18,132.893,141.704z M145.218,148.629c-0.269-0.069-0.479-0.213-0.797-0.217
			c-2.534-0.032-5.095-0.062-7.646-0.095c0.393-1.229,0.311-2.63,0.342-4.086c0.054-2.468,0.593-5.367-0.521-7.632
			c1.191-0.098,2.385-0.098,3.44,0.008c0.185,0.019,0.367,0.082,0.552,0.11c-0.772,3.16-0.408,6.729-0.248,9.85
			c0.094,1.802,2.7,1.801,2.795,0c0.153-2.905,0.698-5.752,1.087-8.609c1.166,0.687,2.162,1.612,2.776,2.809
			C148.42,143.537,146.741,146.114,145.218,148.629z M151.173,159.831c1.734,0.079,3.469,0.141,5.202,0.206
			c-0.127,1.433-0.042,2.89,0.245,4.331C154.272,163.542,152.438,161.98,151.173,159.831z M164.251,164.627
			c-1.633,0.35-3.134,0.456-4.514,0.368c-0.224-1.609-0.232-3.23-0.395-4.857c1.627,0.042,3.254,0.027,4.883,0.022
			c-0.004,0.777,0.085,1.569,0.112,2.336c0.026,0.694,0.086,1.386,0.122,2.078C164.39,164.589,164.319,164.612,164.251,164.627z
			 M171.093,162.298c-1.214,0.579-2.467,1.081-3.727,1.482c0.006-0.149,0.021-0.298,0.028-0.447
			c0.036-1.004,0.179-2.108,0.153-3.172c1.166-0.01,2.394-0.011,3.599-0.097C171.139,160.811,171.116,161.556,171.093,162.298z
			 M176.064,118.422c1.433,0.103,3.162,0.388,4.08,0.818c0.703,0.329,1.514-0.26,1.501-0.9c0.583,3.826,0.996,7.759,1.058,11.79
			c-1.336,0.938-2.623,2.004-4.04,2.754c-0.705,0.373-1.283,0.587-1.973,0.79c0.11-2.839,0.167-5.674,0.071-8.521
			C176.69,122.968,176.694,120.563,176.064,118.422z M179.02,104.907c-3.245,1.504-1.249,5.738,1.748,5.815
			c-0.224,0.525-0.311,1.114-0.162,1.72c0.458,1.878,0.733,3.9,1.039,5.898c-0.006-0.214-0.101-0.434-0.322-0.627
			c-1.061-0.925-1.829-2.1-3.047-2.825c-1.238-0.737-2.524-1.045-3.942-1.197c-2.347-0.25-4.536,0.7-6.304,2.163
			c-3.531,2.923-4.622,8.413-4.121,12.744c0.577,4.986,3.093,9.793,8.148,11.382c2.601,0.817,5.548,0.342,8.024-0.641
			c0.734-0.29,1.562-0.663,2.409-1.086c-0.361,4.961-1.107,9.807-2.256,14.232c-0.932,3.588-3.359,6.276-6.37,8.256
			c0.037-0.383,0.105-0.765,0.116-1.144c1.398-0.397,2.658-1.077,3.593-2.295c0.862-1.124,0.212-3.035-0.958-3.654
			c-3.22-1.703-8.037,0.011-11.533,0.277c-5.095,0.388-10.195,0.66-15.299,0.896c-0.147,0.007-0.253,0.066-0.386,0.092
			c-0.079-0.453-0.098-0.95-0.15-1.423c1.597-1.958,2.682-4.768,3.312-6.817c0.823-2.679,0.727-5.557-0.398-8.12
			c-2.028-4.622-7.037-6.646-11.741-7.179c-4.383-0.496-9.413,0.742-12.521,4.006c-3.816,4.007-2.221,8.969,0.684,12.846
			c-4.854-0.043-9.721-0.062-14.587-0.009c0.122-0.146,0.294-0.196,0.387-0.39c2.929-6.153,0.016-16.31-5.182-20.598
			c-4.464-3.683-10.689-3.728-15.893-1.738c-10.375,3.966-16.805,17.364-5.898,24.001c-1.112,0.1-2.239,0.133-3.348,0.248
			c-0.822,0.085-1.376,0.482-1.719,0.989c-0.74,0.1-1.454,0.47-1.913,1.205c-0.459,0.736-0.88,1.478-1.282,2.215
			c-1.83-1.991-5.911-1.404-8.401-1.629c-4.211-0.379-8.414-0.819-12.646-0.852c-1.856-0.014-4.442,0.365-5.993,1.416
			c-0.094-0.221-0.215-0.46-0.299-0.673c-1.763-4.434-2.707-9.133-3.228-13.941c0.191,0.101,0.34,0.215,0.566,0.304
			c1.854,0.73,3.768,0.787,5.711,0.436c4.041-0.733,7.522-3.738,9.803-7.003c2.327-3.331,2.787-7.401,1.12-11.083
			c-2.204-4.867-9.055-6.915-13.908-6.931c-3.167-0.01-3.909,4.735-0.861,5.583c-1.984,4.43-1.97,9.768-1.768,14.656
			c-0.352-0.099-0.712-0.186-1.024-0.339c-0.464-8.684,0.266-17.621,0.624-26.082c3.556,0.1,5.016-5.147,1.184-6.06
			c-4.404-1.048-9.503-2.062-14.636-3.402c1.739-7.585,1.888-15.488,1.752-23.242c-0.107-6.075,1.243-15.815-1.88-21.215
			c-0.923-1.596-3.432-1.667-4.337,0c-2.718,5.006-0.565,13.1-0.161,18.559c0.612,8.264,1.01,16.536,0.732,24.815
			c-2.067-0.62-4.069-1.377-6.044-2.168c0.409-0.153,0.77-0.451,0.832-1.041c1.403-13.46,3.322-28.073,2.261-41.579
			c-0.064-0.809-0.445-1.352-0.942-1.69c8.399-1.319,17.311,0.371,25.61,1.077c1.548,0.132,2.18-1.206,1.929-2.406
			c-0.007-0.066,0.012-0.127-0.002-0.194c-1.776-8.702-1.261-17.782,8.114-21.467c7.584-2.981,15.705,0.99,21.041,6.274
			c3.647,3.611,6.196,8.327,8.176,13.29c-0.328,0.289-0.589,0.645-0.612,1.093c-0.029,0.556,0.005,1.115,0.027,1.674
			c-0.299-0.329-0.665-0.594-1.118-0.636c-8.843-0.835-14.753,8.896-11.927,16.757c1.366,3.8,4.451,6.746,8.419,7.649
			c3.451,0.785,8.132-0.202,11.347-2.465c0.651,4.822,1.324,9.637,2.999,13.946c0.147,0.381,0.42,0.69,0.718,0.968
			c-6.827,19.004,3.624,38.36,25.33,36.43c19.467-1.73,30.939-20.345,23.069-37.988c7.046-0.129,13.976,0.308,20.925,1.942
			C180.389,88.985,192.558,98.632,179.02,104.907z M171.609,132.512c-1.176-1.552-1.333-2.239-1.721-4.162
			c-0.102-0.507-0.149-0.956-0.172-1.988c-0.017-0.809,0.106-2.147,0.125-2.271c0.288-1.872,0.576-2.682,1.588-4.115
			c0.221-0.312,0.571-0.617,1.006-0.884c0.1,2.014,0.61,4.007,0.841,6.062c0.327,2.913,0.432,5.854,0.562,8.785
			c-0.658-0.116-0.57-0.147-1.184-0.512c-0.178-0.105-0.258-0.146-0.295-0.162c0.003-0.012-0.029-0.057-0.242-0.252
			C171.979,132.886,171.18,131.947,171.609,132.512z M55.929,133.155c0.004,0.114,0.091,0.158,0.116,0.259
			c-0.509,0.319-1.04,0.597-1.584,0.813c-0.746,0.298-1.675,0.454-2.628,0.495c0.116-2.113,0.259-4.224,0.528-6.329
			c0.342-2.673,1.169-5.211,1.738-7.813c0.591,0.162,1.176,0.34,1.744,0.535C55.14,124.98,55.785,129.258,55.929,133.155z
			 M58.8,122.515c2.045,1.387,2.977,3.468,1.075,6.894c-0.332,0.598-0.749,1.163-1.205,1.702
			C58.861,128.266,59.086,125.323,58.8,122.515z M86.463,56.043c-0.713,3.219-0.948,6.611-0.938,9.909
			c-0.377-0.469-0.709-0.979-0.936-1.562C83.165,60.746,84.282,58.091,86.463,56.043z"/>
		<path d="M73.804,37.368c-0.02-0.709-0.036-1.418-0.055-2.127c-0.115-4.117-5.682-3.84-6.195,0c-0.133,0.993-0.133,1.97-0.077,2.94
			c-0.028,0.959-0.049,1.918-0.075,2.877c-0.569,1.877-0.45,3.869-0.008,5.811c0.854,3.746,6.701,2.886,6.634-0.898
			c-0.016-0.918-0.05-1.836-0.072-2.753c0.191-0.967,0.573-1.881,0.808-2.942C75.022,39.114,74.582,38.014,73.804,37.368z"/>
		<path d="M56.86,64.65c0.002-0.35-0.107-0.621-0.18-0.919c-0.047-1.001-0.089-2.004-0.139-3.005c0.078-4.31-6.44-4.259-6.652,0
			c-0.05,1.001-0.092,2.003-0.139,3.004c-0.073,0.298-0.183,0.569-0.18,0.92c-0.007,0.928-0.014,1.855,0.009,2.782
			c-0.097,2.391,1.769,3.546,3.637,3.496c0.565,0.015,1.112-0.093,1.623-0.302c0.658-0.171,1.254-0.646,1.525-1.329
			c0.303-0.514,0.52-1.105,0.489-1.865C56.874,66.504,56.867,65.578,56.86,64.65z"/>
		<path d="M78.699,81.826c-1.816-0.225-2.895,1.357-2.952,2.954c-2.069-1.43-4.261-2.106-7.139-1.166
			c-3.533,1.154-5.863,4.801-6.717,8.228c-2.204,8.836,5.447,16.845,13.868,17.733c6.986,0.736,13.177-5.338,14.785-11.693
			C92.545,89.974,86.445,82.785,78.699,81.826z M67.601,95.607c-0.791-3.327,1.087-6.528,3.79-7.676
			c-1.368,4.076-0.904,9.247,0.163,13.489C69.602,99.939,68.106,97.731,67.601,95.607z M74.345,102.871
			c-0.337-2.669-0.47-5.318-0.414-8.012c0.05-2.421,0.596-4.83,0.556-7.229c0.634,0.114,1.271,0.342,1.901,0.695
			c-0.347,1.772-0.357,3.658-0.422,5.417c-0.116,3.137,0.111,6.269,0.319,9.4C75.629,103.14,74.978,103.058,74.345,102.871z
			 M78.498,102.675c0.186-2.528,0.389-5.052,0.61-7.58c0.173-1.977,0.722-4.026,0.983-6.049c2.522,1.448,4.394,3.167,4.118,6.806
			C83.975,98.94,81.308,101.624,78.498,102.675z"/>
	</g>
</g>
<g>
</g>
<g>
</g>
<g>
</g>
<g>
</g>
<g>
</g>
<g>
</g>
<g>
</g>
<g>
</g>
<g>
</g>
<g>
</g>
<g>
</g>
<g>
</g>
<g>
</g>
<g>
</g>
<g>
</g>
</svg>
