<?xml version='1.0' encoding='iso-8859-1'?>
<!DOCTYPE svg PUBLIC '-//W3C//DTD SVG 1.1//EN' 'http://www.w3.org/Graphics/SVG/1.1/DTD/svg11.dtd'>
<svg version="1.1" xmlns="http://www.w3.org/2000/svg" viewBox="0 0 413.431 413.431" xmlns:xlink="http://www.w3.org/1999/xlink" enable-background="new 0 0 413.431 413.431">
  <g>
    <path d="m184.683,318.159c-4.775-18.817-9.196-36.236-13.34-52.566-8.392-6.253-16.643-11.714-24.108-18.096-19.853-16.974-39.513-34.182-58.973-51.607-17.101-15.312-33.314-31.652-41.715-53.565-10.317-26.914-14.007-54.251 0.494-81.094 14.55-26.931 37.765-42.333 67.666-45.815 35.381-4.121 68.185,2.957 94.928,29.12 19.078-18.906 42.841-28.191 68.465-32.813 18.803-3.392 36.523,1.18 52.703,11.354 7.406,4.657 12.806,11.221 16.063,19.21 9.292,22.793 12.505,45.837 3.732,69.839-6.994,19.135-15.424,37.429-26.881,54.269-9.735,14.307-19.886,28.336-29.408,42.782-7.279,11.042-13.861,22.544-20.754,33.84-1.148,1.882-1.881,4.336-3.526,5.541-8.194,5.999-8.379,13.993-8.05,23.28 0.44,12.419-1.264,24.915-2.093,38.114 8.034,0.211 9.332,6.309 9.537,12.813 0.241,7.647-0.123,14.965-2.651,22.681-2.893,8.833-2.293,18.814-3.175,28.299-0.511,5.486-0.555,11.049-1.545,16.443-0.866,4.719-3.879,7.362-9.244,7.772-16.815,1.284-33.602,2.949-50.383,4.636-9.172,0.922-12.198-0.877-14.031-9.309-1.714-7.889-3.311-15.805-4.897-23.721-1.472-7.345-2.057-14.47-7.189-21.189-3.136-4.106-1.235-11.987-1.79-18.155-0.698-7.774 6.766-8.683 10.165-12.063zm-102.845-214.925l-.243-.24c-1.673,3.126-3.002,6.504-5.085,9.327-5.248,7.11-10.686,14.094-16.336,20.888-4.125,4.959-3.234,8.872 1.351,13.14 6.007-7.232 11.542-14.058 17.256-20.73 5.742-6.706 11.346-13.589 19.44-17.949-11.551,14.235-23.103,28.469-34.406,42.399 7.883,14.542 26.428,33.885 36.773,38.921 6.303-7.316 12.372-14.72 18.836-21.762 6.256-6.815 12.919-13.257 19.403-19.863 0.518,0.501 1.036,1.002 1.555,1.503-12.602,14.579-25.204,29.158-37.529,43.417 23.196,20.13 45.331,39.493 67.739,58.536 2.112,1.795 5.984,2.339 8.959,2.16 13.921-0.842 27.831-1.97 41.712-3.327 12.711-1.243 25.379-2.912 35.766-4.124 7.434-12.665 13.119-23.394 19.784-33.476 12.185-18.435 25.092-36.391 37.429-54.728 10.332-15.357 17.906-32.086 24.076-49.537 6.689-18.92 5.159-37.648-0.36-56.353-2.217-7.516-5.94-14.383-12.386-19.202-13.899-10.39-29.553-15.29-46.711-11.852-21.497,4.306-41.661,12.117-58.816,26.417-3.313,2.761-7.015,5.056-10.427,7.488-2.311-1.525-4.006-2.348-5.339-3.568-22.231-20.354-49.007-27.892-78.371-26.682-32.944,1.356-57.435,16.663-71.723,46.861-2.379,5.029-3.429,10.686-5.093,16.053 7.075-4.126 11.432-10.432 18.279-13.709-4.035,5.734-8.34,11.144-13.21,15.987-7.006,6.968-6.696,14.627-3.339,22.968 0.56,1.391 0.87,3.151 0.556,4.577-1.274,5.772 1.23,10.444 3.4,17.018 3.205-3.763 5.213-6.216 7.323-8.579 6.558-7.345 13.155-14.655 19.737-21.979zm178.247,217.046c-2.73-0.223-4.885-0.67-7.001-0.529-19.809,1.321-39.633,2.493-59.407,4.225-12.072,1.058-13.691,3.842-10.982,15.874 0.314,1.395 1.004,2.706 1.627,4.338 1.862,0.199 3.667,0.616 5.454,0.547 17.617-0.681 35.241-1.263 52.843-2.232 19.386-1.069 19.515-1.399 17.466-22.223zm-57.539-59.62c-7.996,0.982-15.483,1.901-24.22,2.973 6.651,17.989 9.844,35.976 17.966,53.033 5.809-1.162 10.665-2.133 15.487-3.098-3.133-17.957-6.075-34.814-9.233-52.908zm7.918,.568c3.602,16.38 7.013,32.129 10.549,47.851 1.249,5.555 4.945,3.844 8.938,3.093 0.7-17.277 1.377-33.999 2.064-50.944-7.393,0-14.212,0-21.551,0zm30.397-2.212c0,17.517 0,34.485 0,51.759 2.797,0 5.819,0 7.756,0 2.159-18.042 4.21-35.185 6.357-53.125-4.601,0.446-8.835,0.855-14.113,1.366zm-12.279,93.038c0.645,13.84 1.259,27.012 1.906,40.889 4.402-1.143 7.43-1.929 10.256-2.663 2.148-13.251 4.603-25.652 2.187-38.226-5.469,0-10.065,0-14.349,0zm-38.94,1.862c3.608,14.771 6.798,27.833 10.108,41.386 3.111-0.439 5.827-0.822 8.95-1.263-1.312-14.042-1.721-27.471-4.827-41.239-4.984,0.39-8.893,0.697-14.231,1.116zm19.05-.559c2.471,14.155 4.817,27.595 7.294,41.787 3.374-1.22 5.368-1.942 7.062-2.554 0-13.182 0-25.949 0-39.232-5.146-0.001-9.392-0.001-14.356-0.001zm39.812-1.926c0.651,12.982 1.234,24.622 1.818,36.263 0.971,0.035 1.943,0.069 2.914,0.103 3.497-12.185 3.011-24.945 4.663-38.299-3.668,0.755-6.391,1.315-9.395,1.933z"/>
    <path d="m319.801,266.653c3.411-23.005 15.595-35.86 32.318-35.319 18.537,0.6 30.972,15.129 33.089,39.706 3.062,0 6.241-0.106 9.411,0.019 11.138,0.442 18.467,7.85 18.792,18.897 0.217,7.36-1.243,9.495-8.601,9.688-16.177,0.424-32.369,0.279-48.554,0.468-17.214,0.202-34.354-1.496-51.696,1.076-7.615,1.13-16.437-2.829-24.089-5.984-5.771-2.381-5.776-9.35-0.411-14.88 7.651-7.886 17.116-12.634 28.187-13.62 3.607-0.322 7.268-0.051 11.554-0.051zm8.052,8.406c-22.323-6.115-40.407,0.194-44.447,14.646 5.41,3.391 11.328,4.308 17.745,3.868 11.377-0.78 22.779-1.726 34.166-1.683 11.766,0.044 23.523,1.555 35.294,1.734 11.255,0.172 22.524-0.542 33.62-0.863 0.494-11.938-1.717-15.162-10.616-14.971-4.585,0.098-9.107,2.151-13.707,3.069-1.849,0.369-3.834,0.061-6.836,0.061 1.44-4.113 2.594-7.07 3.514-10.098 3.338-10.978-1.191-19.485-9.031-26.534-7.116-6.399-15.5-8.732-24.54-4.472-9.774,4.608-15.529,12.159-15.18,23.51 0.11,3.56 0.018,7.127 0.018,11.733z"/>
    <path d="m42.515,315.308c-1.771-13.477-4.668-25.79 3.937-36.417 4.571-5.645 10.614-8.878 17.695-10.525 16.088-3.742 28.57,4.294 39.684,26.059 2.36-0.756 4.779-1.546 7.207-2.306 12.607-3.949 22.758,1.688 30.998,9.831 8.657,8.554 8.049,20.194 5.673,31.283-1.35,6.301-7.087,6.745-12.367,7.046-13.588,0.777-27.176,1.552-40.768,2.236-15.446,0.777-30.901,1.377-46.343,2.231-3.625,0.199-7.397,0.581-10.78,1.784-9.581,3.407-18.901,1.747-28.242-0.675-4.541-1.178-8.153-3.62-9.042-8.619-0.89-5.006 1.856-8.393 5.49-11.277 8.052-6.393 17.496-9.243 27.47-10.599 2.492-0.34 5.068-0.052 9.388-0.052zm7.997,7.76c-2.791,0.254-4.416,0.928-5.463,0.417-13.327-6.496-24.112,0.444-34.863,6.708-1.795,1.045-3.575,4.39-3.2,6.231 0.356,1.745 3.468,3.985 5.511,4.143 7.979,0.615 16.047,1.021 24.024,0.546 29.348-1.748 58.653-4.267 88.013-5.709 15.149-0.743 19.878-5.922 16.474-20.668-2.27-9.83-9.888-14.871-18.093-17.786-7.26-2.58-14.321,0.643-19.516,6.954-1.143,1.389-3.323,1.925-6.393,3.6 0-4.333 0.368-7.171-0.087-9.87-0.66-3.913-1.05-8.274-3.077-11.483-6.373-10.092-21.767-14.83-32.253-10.632-11.156,4.466-16.316,14.295-14.42,27.896 0.856,6.142 2.068,12.234 3.343,19.653z"/>
    <path d="m320.929,76.319c0.601,15.207-4.81,28.828-11.422,42.04-3.933,7.858-10.316,13.359-18.707,16.101-9.449,3.087-17.154-2.285-17.319-12.214-0.065-3.963 0.668-8.085 1.827-11.894 3.406-11.186 2.276-21.725-3.48-31.834-0.363-0.639-0.74-1.27-1.066-1.928-8.374-16.925-0.418-31.039 18.893-33.275 16.475-1.908 29.642,8.695 31.246,26.397 0.199,2.185 0.028,4.404 0.028,6.607zm-4.757,.618c0-2.621 0.01-4.093-0.001-5.566-0.1-13.327-5.876-20.8-18.585-23.117-9.915-1.807-18.174,2.16-24.622,9.375-5.925,6.631 0.113,12.271 2.522,18.11 0.139,0.337 0.358,0.642 0.544,0.959 6.459,11.015 8.647,22.453 4.194,34.878-1.205,3.363-1.623,7.228-1.445,10.815 0.275,5.527 3.774,8.26 8.939,6.694 7.446-2.258 14.525-5.544 18.183-13.198 6.062-12.684 11.446-25.556 10.271-38.95z"/>
    <path d="m113.872,119.947c-11.796,14.89-23.592,29.782-35.387,44.672 6.455-19.028 21.356-31.652 35.387-44.672z"/>
    <path d="m95.722,178.272c1.102-9.361 16.209-28.824 31.406-40.075-10.468,13.359-20.937,26.717-31.406,40.075z"/>
    <path d="m161.98,172.849c-11.189,12.646-21.48,24.278-33.187,37.508 3.492-11.726 22.975-33.451 33.187-37.508z"/>
    <path d="m150.443,162.693c-10.605,12.253-21.21,24.506-32.28,37.295 1.299-9.357 16.593-27.782 32.28-37.295z"/>
    <path d="m141.891,215.136c7.712-10.786 17.187-19.958 28.522-27.479-8.781,9.741-17.561,19.482-26.342,29.222-0.727-0.58-1.454-1.161-2.18-1.743z"/>
    <path d="m181.53,219.951c-3.032,3.299-6.064,6.597-9.096,9.896-0.64-0.581-1.279-1.161-1.919-1.741 2.987-3.339 5.974-6.678 8.961-10.018 0.685,0.622 1.37,1.242 2.054,1.863z"/>
    <path d="m81.776,61.27c-2.238,2.018-4.476,4.037-6.714,6.055-0.37-0.381-0.739-0.762-1.109-1.144 2.301-2.147 4.603-4.294 6.904-6.442 0.306,0.511 0.613,1.021 0.919,1.531z"/>
    <path d="m69.469,91.852c1.656-1.814 3.312-3.629 4.967-5.443 0.272,0.238 0.544,0.475 0.816,0.713-1.609,1.857-3.218,3.714-4.828,5.57-0.318-0.28-0.636-0.56-0.955-0.84z"/>
    <path d="m56.153,107.305c1.973-2.404 3.946-4.807 5.918-7.211 0.39,0.272 0.779,0.544 1.169,0.816-1.812,2.539-3.625,5.077-5.438,7.616-0.549-0.407-1.099-0.814-1.649-1.221z"/>
    <path d="m81.838,103.234c1.152-1.979 2.305-3.958 3.457-5.937 0.517,0.435 1.035,0.871 1.552,1.306-1.748,1.467-3.495,2.933-5.247,4.395-0.005-0.004 0.238,0.236 0.238,0.236z"/>
  </g>
</svg>
