<?xml version='1.0' encoding='iso-8859-1'?>
<!DOCTYPE svg PUBLIC '-//W3C//DTD SVG 1.1//EN' 'http://www.w3.org/Graphics/SVG/1.1/DTD/svg11.dtd'>
<svg version="1.1" xmlns="http://www.w3.org/2000/svg" viewBox="0 0 440.071 440.071" xmlns:xlink="http://www.w3.org/1999/xlink" enable-background="new 0 0 440.071 440.071">
  <g>
    <path d="m97.751,34.041c-18.565,2.291-19.358,1.645-21.266-15.806-0.24-2.198-0.575-4.4-0.599-6.603-0.081-7.523 0.854-9.262 8.706-9.528 29.056-0.983 58.128-1.625 87.198-2.033 17.676-0.248 35.361,0.237 53.042,0.274 42.746,0.091 85.492,0.04 128.237,0.222 8.654,0.037 10.724,2.541 11.095,11.486 0.046,1.104 0.016,2.213 0.002,3.319-0.228,18.071-3.123,20.752-21.739,18.83-0.909,7.472-1.958,14.985-2.679,22.529-0.314,3.283 0.311,6.651 0.049,9.944-0.767,9.634 0.561,18.556 4.674,27.64 11.44,25.265-0.971,60.737-25.671,73.635-13.819,7.216-28.197,12.503-42.646,18.01-9.159,3.491-18.685,7.784-25.92,14.138-10.335,9.075-10.899,13.874 2.299,21.478 15.938,9.182 32.172,18.091 47.045,28.826 20.483,14.784 34.676,34.883 42.966,58.926 6.996,20.288 5.008,39.988-4.65,58.839-2.363,4.611-3.158,8.675-2.189,13.632 1.551,7.931 2.586,15.964 3.862,24.101 1.084,0.34 2.082,0.888 3.105,0.938 13.309,0.657 14.561,1.953 14.007,14.964-0.094,2.203-0.283,4.418-0.657,6.588-1.652,9.562-4.799,12.051-15.129,11.64-8.439-0.335-16.866-1.313-25.3-1.322-8.039-0.009-16.082,1.32-24.117,1.254-14.328-0.118-28.65-1.156-42.977-1.24-20.18-0.118-40.363,0.276-60.544,0.464-14.334,0.133-28.668,0.36-43.002,0.411-13.553,0.048-27.107-0.109-40.66-0.1-2.562,0.002-5.134,0.61-7.683,0.507-8.892-0.359-10.781-2.045-12.458-10.807-0.414-2.163-0.692-4.369-0.817-6.567-0.764-13.445 0.753-15.09 14.261-15.792 0.689-0.036 1.359-0.412 2.706-0.844 1.517-9.403 3.28-19.1 4.511-28.864 0.288-2.285-0.826-5.009-1.97-7.173-12.442-23.536-12.484-47.306-1.305-71.183 9.217-19.689 21.979-36.841 39.965-49.213 14.229-9.787 29.11-18.749 44.287-26.999 13.978-7.598 16.339-12.971 1.254-24.789-7.329-5.742-16.848-8.777-25.54-12.672-13.404-6.007-27.11-11.358-40.4-17.599-24.214-11.371-37.125-46.142-26.22-71.358 8.952-20.705 4.609-40.813 2.867-62.103zm179.545,324.252c0.531,0.443 1.062,0.887 1.593,1.33-3.504,6.706-7.008,13.411-10.52,20.132 9.096,4.217 9.084,4.208 13.139-1.786 2.315-3.423 4.677-6.813 7.018-10.218 0.689,0.434 1.378,0.868 2.068,1.302-2.607,5.017-5.214,10.033-8.057,15.504 9.427,3.261 17.668,0.474 25.733-3.245 23.997-11.066 29.701-39.831 25.637-60.585-5.092-26.004-18.585-47.464-39.838-63.011-15.704-11.488-32.779-21.152-49.549-31.115-14.807-8.796-12.188-23.721-2.991-32.319 9.581-8.957 20.632-15.402 33.242-19.002 13.89-3.967 26.965-9.637 39.483-16.898 15.204-8.82 22.083-22.663 23.195-39.168 2.172-32.228-29.709-65.635-62.759-66.262-20.975-0.398-39.097,6.154-52.057,23.747-0.536,0.727-1.936,0.818-3.282,1.34-19.031-22.174-42.479-31.459-70.762-21.228-21.157,7.653-37.003,21.612-43.952,43.521 0.616,0.633 1.233,1.266 1.849,1.899 4.862-4.56 9.724-9.119 14.6-13.692-4.497,10.237-19.278,13.488-18.418,29.411 8.685-9.26 16.064-17.127 23.443-24.994-0.107,3.564-1.651,5.853-3.364,8.007-5.273,6.633-10.514,13.297-15.957,19.79-3.922,4.68-3.726,9.026 0.424,14.1 6.784-7.509 13.326-14.751 19.868-21.993 0.481,0.466 0.963,0.932 1.444,1.398-6.593,8.776-13.187,17.551-19.966,26.574 2.099,2.842 3.76,5.091 5.761,7.8 7.13-9.24 13.342-18.297 23.122-24.035-6.552,9.156-13.103,18.312-20.396,28.503 9.588,5.467 18.055,10.294 26.825,15.295 1.869-3.541 3.139-5.949 4.447-8.427-3.386-2.688-6.179-4.906-8.928-7.088-2.548,2.137-4.64,3.891-7.47,6.265 1.283-6.495 2.355-11.917 3.702-18.735 4.287-1.26 9.399-3.718 14.666-4.112 11.28-0.844 22.64-0.605 33.967-0.838 17.319-0.357 34.64-0.674 51.956-1.126 20.244-0.527 40.483-1.253 60.728-1.673 2.129-0.044 4.289,1.389 7.515,2.513-2.531,3.055-3.827,5.355-5.756,6.824-9.654,7.354-19.121,15.042-29.326,21.559-11.769,7.515-24.058,14.289-36.508,20.623-4.29,2.182-9.85,3.203-14.641,2.751-7.247-0.683-14.332-3.109-21.48-4.815-4.023-0.96-6.466,0.113-6.34,4.766 3.274,3.003 7,5.605 9.677,9.027 8.435,10.779 8.565,21.777-2.913,29.43-4.278,2.853-8.957,5.101-13.411,7.696-5.404,3.148-12.822,5.143-15.638,9.863-3.792,6.356-9.421,7.965-14.816,10.822-6.382,3.38-12.939,6.453-18.136,14.702 8.726-3.452 15.679-6.203 22.633-8.954 0.272,0.685 0.544,1.37 0.815,2.055-9.188,4.599-18.347,9.257-27.573,13.778-6.593,3.231-10.599,8.395-13.369,16.62 12.262-6.094 22.163-13.689 34.278-16.616-1.989,2.157-4.269,3.771-6.645,5.227-9.427,5.775-18.906,11.464-28.321,17.258-4.959,3.052-8.122,7.11-7.142,14.053 8.386-5.987 16.222-11.583 24.057-17.178 0.544,1.936 0.344,2.706-0.152,3.123-6.49,5.442-13.024,10.83-19.542,16.239-10.956,9.091-12.836,23.036-4.604,35.634 6.729-6.276 13.434-12.529 20.139-18.783 0.516,0.558 1.031,1.116 1.547,1.674-7.415,8.012-14.831,16.025-22.321,24.119 2.04,3.905 3.704,7.092 5.401,10.34 8.274-8.846 16.114-17.228 23.954-25.61 0.665,0.567 1.331,1.134 1.996,1.701-7.42,9.186-14.839,18.372-22.654,28.048 3.196,2.476 5.681,4.402 8.454,6.55 7.338-8.628 12.854-17.946 22.479-23.51-5.916,8.571-11.833,17.141-17.645,25.56 4.951,4.791 7.677,3.452 10.743-0.575 4.502-5.911 9.625-11.349 14.484-16.988 0.574,0.486 1.148,0.971 1.722,1.457-4.89,6.715-9.781,13.43-15.295,21.001 3.992,0.617 7.087,1.096 10.272,1.589 5.474-9.105 11.012-17.424 20.244-22.691-4.344,6.326-8.689,12.652-13.649,19.875 17.407-0.884 31.817-14.532 38.571-31.254 3.415-8.456 8.077-13.768 16.956-15.217 9.055-1.477 15.654,2.24 20.664,9.677 2.814,4.177 6.111,8.028 9.613,12.573 5.242-7.395 9.853-13.899 14.463-20.403-1.721,6.494-4.988,11.828-8.103,17.25-3.964,6.898-3.911,6.928 3.196,14.017 4.806-7.575 9.548-15.049 14.29-22.523 0.578,0.338 1.156,0.676 1.734,1.014-4.229,8.353-8.458,16.705-12.91,25.499 2.543,1.64 4.518,2.914 6.493,4.188 4.563-7.083 8.709-13.515 12.856-19.946zm-188.922-331.184c44.121-1.006 87.368-2.754 130.615-2.766 43.516-0.012 87.033,1.702 131.127,2.672 0.361-6.039 0.635-10.63 0.925-15.487-5.341-0.919-9.642-2.291-13.948-2.308-79.47-0.301-158.941-0.445-238.412-0.59-2.936-0.005-5.882,0.211-8.803,0.516-1.394,0.146-2.741,0.744-4.811,1.34 1.031,5.184 2.013,10.12 3.307,16.623zm259.813,388.246c-86.438-3.619-170.784-3.501-256.393,0.012 0.499,5.387 0.981,10.599 1.533,16.559 7.528-0.402 13.717-0.766 19.909-1.057 8.798-0.414 17.6-1.113 26.398-1.076 11.716,0.049 23.517,1.78 35.129,0.861 30.196-2.389 60.277-1.287 90.466-0.019 26.661,1.119 53.406,0.234 81.534,0.234 0.451-4.911 0.929-10.124 1.424-15.514zm-214.011-20.107c-0.826,3.371-1.471,5.462-1.803,7.601-0.148,0.957 0.33,2.01 0.668,3.767 58.223-5.567 116.329-5.143 175.519-0.098-1.255-4.595-2.071-7.585-2.468-9.039-9.263,0-17.454,1.133-25.213-0.218-21.051-3.665-37.496-14.396-47.635-33.921-2.322-4.472-5.741-8.5-9.201-12.225-5.825-6.271-9.616-4.98-13.121,3.142-8.344,19.334-20.642,34.334-42.111,40.642-11.39,3.347-22.286,3.834-34.635,0.349zm85.831-331.387c27.054-22.561 55.636-27.558 87.633-11.493 0-6.719 0-12.032 0-18.396-58.538,0-116.569,0-175.236,0 0,6.24 0,11.583 0,18.352 32.092-16.175 61.01-10.985 87.603,11.537zm95.249-29.791c0.084,14.692-1.143,28.604 15.988,34.839 1.426-11.982 2.815-23.659 4.377-36.794-7.506,0.721-13.481,1.295-20.365,1.955zm-206.452,34.997c17.39-7.072 15.926-20.836 15.813-35.121-6.915-0.494-13.14-0.939-20.357-1.455 1.63,13.115 3.052,24.563 4.544,36.576zm1.54,311.85c-0.692,10.38-1.209,18.135-1.751,26.259 5.511,0 9.444,0 14.533,0 0.722-5.553 1.404-10.798 2.072-15.935-4.65-3.232-8.493-5.903-14.854-10.324zm220.596,26.257c0.104-8.931 0.984-16.825-3.328-25.07-4.643,3.345-8.702,6.269-13.02,9.379 0.851,5.54 1.607,10.463 2.41,15.691 4.937,0 8.871,0 13.938,0zm-168.312-240.821c-3.595-1.893-6.364-3.352-9.474-4.989-2.052,2.445-3.778,4.501-5.615,6.689 10.022,5.447 10.022,5.447 15.089-1.7zm26.063,13.925c-8.789-6.775-8.789-6.775-12.488-1.926 8.187,5.614 8.187,5.614 12.488,1.926zm-13.909-8.738c-4.455-2.407-8.646-4.947-11.273,2.192 4.41,3.31 8.406,4.705 11.273-2.192z"/>
    <path d="m138.778,312.492c-9.457,8.522-18.913,17.044-28.37,25.566 2.111-8.292 8.283-14.069 28.37-25.566z"/>
    <path d="m213.184,292.777c-3.432,3.054-5.107,5.738-7.267,6.212-4.108,0.9-7.035-1.666-7.602-5.826-0.521-3.819 1.935-7.008 5.397-6.655 2.768,0.283 5.254,3.33 9.472,6.269z"/>
    <path d="m231.29,252.726c-3.512,3.03-5.211,5.497-7.464,6.205-3.356,1.055-8.847-3.689-7.87-6.795 0.69-2.195 3.819-5.35 5.475-5.134 2.897,0.379 5.5,3.018 9.859,5.724z"/>
    <path d="m229.102,219.23c-3.838,2.794-6.268,5.865-7.979,5.506-2.645-0.555-4.798-3.454-7.16-5.359 1.82-1.977 3.686-5.594 5.45-5.545 2.641,0.074 5.212,2.723 9.689,5.398z"/>
    <path d="m242.111,270.297c-4.313,3.08-6.587,5.892-9.027,6.044-1.726,0.107-3.676-3.386-5.526-5.273 1.876-1.834 3.55-4.789 5.686-5.174 1.968-0.355 4.434,2.053 8.867,4.403z"/>
    <path d="m226.99,288.209c2.275,3.146 4.627,5.082 4.875,7.258 0.139,1.215-3.56,4.26-4.919,3.934-2.153-0.516-4.454-2.896-5.336-5.044-0.369-0.901 2.728-3.225 5.38-6.148z"/>
  </g>
</svg>
