<?xml version='1.0' encoding='iso-8859-1'?>
<!DOCTYPE svg PUBLIC '-//W3C//DTD SVG 1.1//EN' 'http://www.w3.org/Graphics/SVG/1.1/DTD/svg11.dtd'>
<svg version="1.1" xmlns="http://www.w3.org/2000/svg" viewBox="0 0 443.898 443.898" xmlns:xlink="http://www.w3.org/1999/xlink" enable-background="new 0 0 443.898 443.898">
  <g>
    <path d="m359.132,293.118c-0.312,5.937-0.673,9.454-0.655,12.969 0.195,37.217 0.457,74.434 0.679,111.651 0.018,2.945 0.116,5.922-0.243,8.832-0.896,7.265-3.375,9.585-10.474,10.301-43.934,4.429-87.899,8.539-132.134,6.48-20.192-0.94-40.344-2.709-60.523-3.951-15.785-0.972-31.597-1.535-47.375-2.605-15.002-1.017-18.468-3.334-19.814-18.12-2.265-24.888-3.484-49.893-4.38-74.877-0.668-18.617-0.132-37.277-0.132-58.086-6.235,4.505-10.84,7.936-15.554,11.211-5.839,4.057-9.335,4.097-13.009-1.663-5.109-8.012-9.326-16.629-13.467-25.208-3.097-6.417 1.62-10.436 5.79-13.987 12.331-10.5 24.522-21.215 37.4-31.013 35.168-26.756 70.761-52.953 105.965-79.663 10.497-7.964 20.406-16.729 30.314-25.435 6.114-5.373 14.849-5.698 23.257,0.549 13.891,10.321 27.533,20.978 41.293,31.475 2,1.526 4.076,2.954 7.708,5.575 0-7.401 0.149-13.362-0.049-19.311-0.147-4.4-1.371-8.855-0.891-13.149 0.254-2.27 3.057-5.993 4.823-6.06 8.674-0.333 17.444-0.17 26.067,0.815 7.516,0.858 8.564,2.525 8.844,9.973 0.582,15.464 1.209,30.933 1.31,46.403 0.035,5.258-1.452,10.526-2.392,16.785 17.241,18.612 35.572,38.214 53.658,58.039 5.438,5.961 10.24,12.507 15.242,18.858 3.474,4.412 3.154,9.127-0.301,13.177-5.97,6.999-12.219,13.773-18.604,20.399-3.731,3.872-7.732,3.495-11.557-0.36-2.933-2.961-6.108-5.683-10.796-10.004zm-41.811-52.522l-.061,.023c19.26,17.993 35.854,39.035 60.159,52.737 4.903-5.431 9.741-10.791 15.323-16.973-48.275-58.277-101.759-109.913-160.851-155.943-8.191,6.934-15.809,13.874-23.927,20.171-41.916,32.517-84.034,64.774-125.902,97.351-9.285,7.224-17.798,15.437-26.774,23.067-3.883,3.301-5.261,6.675-2.462,11.492 3.446,5.933 6.433,12.132 10.44,19.786 12.608-12.967 10.987-30.54 21.125-42.449-3.189,9.991-6.379,19.982-9.747,30.534 16.901-4.315 15.038-20.557 23.178-32.747-1.683,7.685-2.871,13.11-4.211,19.231 9.666-5.061 15.271-11.636 17.043-21.562 0.83-4.651 3.215-9.024 4.896-13.523 0.439,0.166 0.878,0.333 1.317,0.499-1.175,5.609-2.349,11.217-3.776,18.029 7.974-4.738 13.376-9.493 15.595-17.658 1.602-5.895 4.645-11.399 7.045-17.077 0.639,0.266 1.279,0.532 1.918,0.797-1.344,5.355-2.687,10.71-4.176,16.646 14.311-5.085 13.871-19.244 21.628-29.975-0.655,5.415-1.107,9.155-1.56,12.896 0.489,0.149 0.979,0.299 1.468,0.448 3.209-6.46 6.419-12.921 9.628-19.381 0.526,0.238 1.051,0.475 1.577,0.713-0.694,2.992-1.387,5.985-2.188,9.44 8.919-1.481 5.857-11.636 12.372-14.503-0.296,2.153-0.552,4.017-0.99,7.203 7.267-4.536 13.616-7.971 16.983-14.93 10.546-2.713 16.926-11.298 24.7-17.824 4.779-4.012 9.28-4.059 14.099-1.032 3.104,1.95 5.931,4.367 8.759,6.722 3.962,3.3 7.762,6.796 11.719,10.101 4.239,3.54 8.593,6.943 12.875,10.433 3.998,3.258 8.052,6.455 11.925,9.856 4.148,3.643 8.113,7.494 12.157,11.254 7.927-3.939 2.242,7.674 7.642,6.704 0.641-0.115 1.37,0.255 2.545,0.502 3.74-4.408 7.635-8.998 11.529-13.588 0.594,0.428 1.188,0.856 1.782,1.284-2.618,4.226-5.004,8.621-7.918,12.631-3.212,4.422-1.106,6.551 2.559,8.251 4.699-4.054 6.602-10.883 14.936-13.417-4.843,6.266-8.626,11.159-13.021,16.844 3.12,2.507 5.881,4.722 8.642,6.937zm-218.822,127.242c6.84-8.36 13.275-16.224 19.71-24.088 0.753,0.574 1.506,1.148 2.258,1.722-5.966,8.634-11.638,17.492-17.997,25.826-4.568,5.985-5.716,11.932-3.071,20.162 7.475-8.326 14.128-15.736 20.782-23.146 0.603,0.521 1.206,1.042 1.808,1.562-5.951,7.241-11.969,14.429-17.814,21.755-1.773,2.222-4.18,4.738-4.381,7.271-0.693,8.734-0.504,17.53 3.617,26.477 13.341,1.039 26.42,2.058 38.379,2.99 5.107-8.329 9.327-15.214 13.548-22.099 0.66,0.364 1.321,0.727 1.981,1.091-2.962,6.472-5.925,12.944-9.236,20.177 6.112,0.745 11.183,1.652 16.286,1.91 6.167,0.312 12.361,0.074 19.292,0.074 0-2.904 0.034-5.019-0.006-7.132-0.486-26.152-1.069-52.303-1.435-78.457-0.156-11.098 2.438-13.323 13.761-12.849 9.184,0.384 18.366,0.898 27.554,1.106 11.417,0.259 22.858-0.099 34.253,0.499 8.361,0.438 10.055,1.953 10.198,9.893 0.465,25.746 0.407,51.502 0.543,77.254 0.021,3.904 0.003,7.809 0.003,12.911 13.884-1.121 27.017-1.985 40.105-3.294 12.827-1.283 25.608-3.017 38.285-4.539-1.469-46.373-2.553-91.544 4.542-137.204-41.376-38.395-82.904-76.931-123.918-114.99-13.454,10.679-26.652,21.205-39.905,31.664-30.358,23.959-60.784,47.834-91.019,71.947-1.918,1.53-3.472,4.821-3.437,7.268 0.142,9.933 0.907,19.86 1.598,29.778 0.152,2.177 0.946,4.31 1.615,7.198 3.997-4.674 7.107-8.312 11.774-13.771-3.992,13.161-15.914,20.796-11.36,35.314 4.89-5.559 9.025-10.259 13.159-14.959 0.585,0.437 1.169,0.875 1.754,1.312-2.567,3.885-4.78,8.07-7.772,11.593-6.721,7.913-9.048,16.566-5.454,27.774zm106.289-15.071c8.271,0 16.264-0.376 24.208,0.088 12.124,0.707 14.297,2.682 15.006,14.346 1.071,17.638 1.614,35.308 2.313,52.967 0.154,3.88 0.022,7.772 0.022,12.625 5.15-0.466 8.565-0.775 11.745-1.062 2.539-24.382 2.344-81.787-0.185-91.151-13.944-2.097-59.663-1.505-66.967,1.076 0.657,29.157 1.318,58.518 1.999,88.775 4.212,0.444 7.88,0.83 12.004,1.264-2.981-26.841-3.584-52.086-0.145-78.928zm5.91,6.973c0,24.927 0,48.319 0,71.9 8.868,0 17.091,0 26.133,0 0-24.157 0-47.504 0-71.9-9.044,0-17.248,0-26.133,0zm90.21-232.699c0,6.847 0.901,12.869-0.183,18.509-2.448,12.739 0.33,22.788 11.732,29.954 3.703,2.328 5.175,7.679 10.458,8.785 0.847-19.336 1.66-37.917 2.506-57.248-8.753-2.84217e-14-15.925-2.84217e-14-24.513-2.84217e-14z"/>
    <path d="m181.305,31.095c3.048-8.807 4.937-17.087 8.694-24.409 4.732-9.225 14.868-8.749 19.83,0.472 1.695,3.15 3.173,7.003 3.015,10.455-0.487,10.598-0.879,21.355-3.06,31.68-2.571,12.171-10.244,17.54-22.387,16.863-13.084-0.729-25.336-4.499-35.727-12.971-4.787-3.903-8.417-8.255-6.074-15.137 2.472-7.262 6.659-10.843 14.937-10.344 7.217,0.435 14.348,2.291 20.772,3.391z"/>
    <path d="m235.717,64.135c2-4.421 3.408-8.622 5.683-12.282 2.834-4.56 7-7.862 12.827-6.83 5.303,0.939 7.787,5.054 9.454,9.818 2.171,6.205 1.892,12.287-0.617,18.293-0.85,2.034-1.794,4.04-2.856,5.971-8.035,14.609-19.006,18.601-34.838,12.728-7.775-2.884-11.457-8.014-10.599-14.764 0.813-6.399 6.215-11.501 13.512-12.531 2.512-0.355 5.085-0.287 7.434-0.403z"/>
    <path d="m298.312,79.404c0.685-8.167 2.857-14.865 10.221-18.795 7.065-3.771 12.938-2.103 14.005,5.543 1.616,11.581-1.771,22.521-7.583,32.48-1.208,2.07-4.911,3.855-7.408,3.785-7.994-0.223-16.088-0.763-23.904-2.357-6.991-1.426-9.549-5.207-9.275-10.406 0.295-5.598 5.25-10.569 11.73-11.055 3.564-0.268 7.2,0.435 12.214,0.805z"/>
    <path d="m264.064,292.772c0-6.987-0.214-13.983 0.053-20.96 0.355-9.284 2.922-12.175 11.713-12.502 9.917-0.369 19.857-0.122 29.786-0.112 5.969,0.006 10.343,2.747 10.714,8.813 0.986,16.108 1.543,32.248 1.931,48.383 0.109,4.523-2.657,7.483-7.424,8.093-13.467,1.724-26.855,3.163-40.402-0.125-4.547-1.103-6.376-3.24-6.451-7.322-0.149-8.087-0.044-16.179-0.044-24.269 0.041,0.001 0.083,0.001 0.124,0.001zm23.067-25.855c-4.525-0.434-9.269-0.889-15.214-1.459 0.438,9.133 0.813,16.932 1.198,24.962 5.024,0.72 9.155,1.311 14.016,2.008 0-8.94 0-16.522 0-25.511zm9.894,24.016c4.781-1.306 8.176-2.234 11.805-3.225-0.184-4.187-0.224-7.796-0.523-11.384-0.842-10.101-1.562-10.562-12.636-8.289 0.421,7.12 0.846,14.304 1.354,22.898zm-23.685,25.949c5.324,0 9.497,0 13.545,0 0-5.684 0-10.618 0-16.345-4.82-0.495-8.922-0.915-13.545-1.39 0,6.381 0,11.406 0,17.735zm24.408-17.025c0,6.132 0,11.164 0,16.972 3.737-0.296 6.833-0.542 10.42-0.826 0.371-6.415 0.701-12.121 1.089-18.834-4.586,1.072-7.723,1.804-11.509,2.688z"/>
    <path d="m177.465,332.675c-14.298-0.069-27.845,1.704-41.203-2.292-8.357-2.5-9.495-3.353-9.874-12.153-0.395-9.183-0.041-18.397-0.269-27.59-0.135-5.446-0.63-10.894-1.21-16.314-0.609-5.694 1.112-9.516 6.29-9.598 13.131-0.207 26.273-3.5 39.426-0.11 4.688,1.208 8.111,3.19 8.128,8.764 0.055,17.99 0.263,35.979 0.31,53.968 0.004,1.368-0.794,2.738-1.598,5.325zm-44.103-33.831c0,4.427-0.108,7.674 0.019,10.913 0.512,13.099 0.539,13.098 14.704,14.933 0-8.189 0-16.317 0-24.513-5.215-0.473-9.515-0.862-14.723-1.333zm21.835,2.942c0.596,8.234 1.132,15.658 1.673,23.127 5.376,0 9.253,0 14.288,0 0-5.627 0.062-10.684-0.024-15.738-0.049-2.866-0.341-5.728-0.558-9.139-4.869,0.554-9.13,1.039-15.379,1.75zm-21.872-29.055c-4.847,16.953-1.086,21.386 15.177,18.291 0-6.366 0-12.809 0-19.776-5.233,0.512-9.863,0.965-15.177,1.485zm22.533-2.691c0,8.156 0,15.258 0,23.536 5.665-0.986 10.166-1.77 14.724-2.563 0-6.759 0-12.438 0-18.668-5.269-0.825-9.833-1.539-14.724-2.305z"/>
    <path d="m130.772,382.726c-6.619,12.318-15.65,22.977-23.655,34.341 0.43-8.185 12.299-25.45 23.655-34.341z"/>
    <path d="m122.648,424.57c0.892-10.153 9.784-22.297 21.82-29.541-6.903,9.347-13.807,18.693-21.82,29.541z"/>
    <path d="m283.134,423.818c5.028-7.617 10.056-15.235 15.084-22.852 0.71,0.459 1.42,0.917 2.13,1.376-4.881,7.722-9.763,15.444-14.644,23.166-0.856-0.563-1.713-1.126-2.57-1.69z"/>
    <path d="m312.458,407.533c-3.149,4.686-6.299,9.372-9.987,14.86-0.352-7.937-0.116-8.348 9.987-14.86z"/>
    <path d="m317.321,240.596c3.043-2.976 6.086-5.951 9.129-8.927-1.298,4.903-2.041,10.445-9.17,8.949-0.019,0.001 0.041-0.022 0.041-0.022z"/>
  </g>
</svg>
