<?xml version='1.0' encoding='iso-8859-1'?>
<!DOCTYPE svg PUBLIC '-//W3C//DTD SVG 1.1//EN' 'http://www.w3.org/Graphics/SVG/1.1/DTD/svg11.dtd'>
<svg version="1.1" xmlns="http://www.w3.org/2000/svg" viewBox="0 0 421.983 421.983" xmlns:xlink="http://www.w3.org/1999/xlink" enable-background="new 0 0 421.983 421.983">
  <g>
    <path d="m369.702,88.726c14.723-1.274 23.97,3.671 28.218,20.037 6.832,3.178 13.277,6.06 19.615,9.161 4.939,2.417 5.443,6.428 3.087,10.913-1.508,2.871-3.307,5.618-5.213,8.248-13.359,18.435-26.535,37.006-44.373,51.63-7.463,6.119-15.42,7.432-24.299,4.1-6.934-2.603-9.679-6.414-9.884-13.877-0.118-4.294-0.021-8.595-0.021-13.727-12.018-2.283-16.577-10.927-17.307-22.434-0.068-1.078-0.177-2.187-0.496-3.21-1.211-3.876-2.677-8.406-7.433-7.954-2.808,0.267-5.344,3.404-7.817,5.122 9.09,15.856 9.899,26.454 3.169,33.141-7.526,7.478-16.842,7.635-30.969-0.297-0.389,2.556-0.797,4.544-0.929,6.551-0.038,0.58 0.762,1.189 1.101,1.825 4.752,8.906 4.788,12.601 0.18,16.449-6.323,5.281-14.121,5.703-20.872,1.102-0.855-0.583-1.63-1.281-3.324-2.627-17.999,22.048-42.035,38.269-58.388,61.528 5.128,11.075 10.781,20.824 14.238,31.299 5.798,17.571 9.559,35.809 5.33,54.351-4.578,20.069-14.734,36.462-32.791,47.749-22.29,13.933-46.252,21.987-72.485,22.8-16.333,0.506-32.538-1.219-48.062-6.582-17.635-6.092-31.629-16.896-41.771-32.876-26.292-41.426-22.96-82.12 2.618-122.25 21.183-33.233 52.529-48.792 91.157-49.457 10.542-0.182 21.721,2.454 31.571,6.392 8.765,3.504 15.485,2.224 22.102-2.727 8.089-6.051 16.139-12.297 23.389-19.304 43.433-41.975 86.223-84.571 126.281-129.856 11.234-12.699 23.711-24.373 36.261-35.811 11.204-10.212 18.823-8.889 27.833,3.231 2.367,3.184 4.951,6.208 7.454,9.29 6.552,8.071 6.384,12.077-0.477,19.733-4.576,5.106-9.029,10.33-13.335,15.665-4.539,5.627-5.69,13.609-3.358,22.672zm-169.347,245.76c2.709-11.038 2.801-22.199 1.474-33.374-0.466-3.923-0.474-8.775-2.753-11.438-5.693-6.649-7.291-14.747-10.308-22.412-5.264-13.372-6.387-28.77-1.581-44.269 0,6.941 0,13.881 0,21.775 7.921-6.069 10.882-12.717 10.609-21.327-0.237-7.458 0.575-14.949 1.032-24.755 5.222,10.986 1.142,20.603 2.249,30.315 7.775-6.112 7.771-6.113 8.398-16.028 0.05-0.798 0.2-1.589 0.5-3.892 0.492,4.273 0.802,6.97 1.235,10.736 2.884-2.278 4.973-3.669 6.755-5.38 8.86-8.509 17.726-17.016 26.42-25.693 7.565-7.55 7.784-7.527 16.367-0.335 1.5,1.257 4.97,1.919 6.381,1.031 1.404-0.883 1.574-4.04 1.846-6.253 0.104-0.851-1.082-1.814-1.549-2.789-3.617-7.537-2.547-11.862 4.089-16.702 4.915-3.585 7.169-3.352 13.705,2.745 3.746,3.494 7.56,3.885 11.895,1.941 4.118-1.846 6.165-5.307 5.432-9.632-0.826-4.871-1.633-10.059-3.95-14.284-2.898-5.284-1.824-8.823 2.283-12.256 1.938-1.62 3.856-3.345 6.033-4.583 7.969-4.533 16.109-1.663 19.227,7.088 1.436,4.028 1.568,8.501 2.617,12.69 1.148,4.581 2.342,9.417 8.617,8.566 11.264-12.104 22.267-24.069 33.462-35.854 2.731-2.875 5.159-7.093 11.863-5.21-11.021,16.784-26.978,28.175-36.93,43.929 0.526,5.729 0.559,11.335-0.281,16.808-1.372,8.933 3.337,12.247 12.485,10.595 3.443-0.622 7.005-3.767 9.363-6.689 14.048-17.414 27.76-35.099 41.421-52.484-1.921-4.861-4.978-6.266-9.445-6.536-7.343-0.444-11.533-4.379-12.942-12.091-1.555-8.51-4.342-10.138-12.565-9.847-11.577,0.409-15.902-3.631-15.377-15.312 0.578-12.848 3.304-24.983 13.355-34.304 3.38-3.134 6.199-6.872 9.596-10.696-3.322-4.257-6.104-7.949-9.021-11.531-4.65-5.708-6.758-6.048-12.24-0.865-11.303,10.686-23.082,20.996-33.364,32.612-41.775,47.199-86.955,91.008-132.721,134.221-8.573,8.095-18.611,14.987-28.893,20.811-7.784,4.409-16.945,6.674-25.254-0.78-1.747-1.567-4.593-2.127-7.039-2.664-24.718-5.424-48.123-1.943-69.876,11.064-25.275,15.111-39.326,38.342-48.18,65.781-9.563,29.638-1.258,55.654 14.896,80.035 3.306,4.989 6.083,12.075 13.543,13.699 1.749-8.608 3.375-16.612 5.001-24.615 1.257,8.275 0.407,16.156 0.098,24.058-0.247,6.297 0.046,6.308 7.377,7.686 1.868-7.627 3.732-15.24 5.596-22.853 0.562,0.105 1.124,0.21 1.686,0.315-1.036,8.473-2.071,16.947-3.208,26.246 3.623,1.148 6.779,2.148 10.42,3.302 1.106-4.272 1.881-7.266 3.237-12.503 0.659,6.163 1.064,9.953 1.482,13.863 33.565,5.796 64.692,2.219 93.6-15.658 4.643-2.871 6.246-5.928 6.351-11.198 0.185-9.341 1.278-18.664 1.99-27.995 0.583,0.024 1.166,0.049 1.749,0.073 0,10.222 0,20.443 0,32.199 15.548-12.452 20.258-27.555 20.483-44.95 0.421,1.951 0.84,3.902 1.259,5.853z"/>
    <path d="m82.14,335.92c-10.762,3.399-21.437,4.295-32.268,1.927-15.815-3.457-25.361-19.401-20.324-34.792 1.545-4.72 3.947-9.494 7.096-13.299 19.293-23.316 43.126-38.237 74.392-38.632 7.961-0.1 15.934-0.325 23.884-0.03 15.466,0.575 21.892,5.57 26.914,20.38 9.24,27.247 6.262,53.376-7.337,78.481-5.108,9.431-12.388,16.875-21.509,22.46-13.444,8.233-26.677,7.508-39.731-1.099-7.585-5.001-11.348-11.874-11.136-20.979 0.109-4.64 0.019-9.284 0.019-14.417zm38.834-76.197c-32.102-3.844-56.582,10.241-76.872,33.525-2.324,2.667-4.009,6.041-5.407,9.335-5.501,12.962 1.312,24.058 15.227,25.706 12.081,1.432 22.898-1.109 32.628-8.509 3.105-2.361 6.498-5.253 10.704-2.137 4.56,3.378 1.242,7.006 0.18,10.657-2.005,6.888-4.157,13.78-5.444,20.817-1.317,7.202 2.183,12.391 8.441,16.096 10.821,6.406 21.892,4.953 32.631-4.651 20.834-18.633 29.472-55.979 18.795-88.452-2.783-8.463-8.335-12.21-16.824-12.372-4.684-0.089-9.372-0.015-14.059-0.015z"/>
    <path d="m354.752,169.338c3.825-12.432 19.357-31.028 29.431-36.081 0.422,9.487-7.339,13.631-11.751,19.536-4.437,5.937-8.684,12.351-17.68,16.545z"/>
    <path d="m358.557,111.124c-4.868,10.696-13.097,18.233-22.622,25.983 0.656-10.099 11.754-23.024 22.622-25.983z"/>
    <path d="m184.638,356.813c0.911-10.165 1.821-20.33 2.857-31.886 2.862,10.217 1.886,23.731-2.857,31.886z"/>
  </g>
</svg>
