<?xml version='1.0' encoding='iso-8859-1'?>
<!DOCTYPE svg PUBLIC '-//W3C//DTD SVG 1.1//EN' 'http://www.w3.org/Graphics/SVG/1.1/DTD/svg11.dtd'>
<svg version="1.1" xmlns="http://www.w3.org/2000/svg" viewBox="0 0 413.917 413.917" xmlns:xlink="http://www.w3.org/1999/xlink" enable-background="new 0 0 413.917 413.917">
  <g>
    <path d="m16.851,278.013c-7.644,6.315-14.187,5.135-16.596-3.001-0.525-1.773-0.241-4.569 0.862-5.921 15.308-18.771 27.784-39.393 39.168-60.639 12.487-23.306 22.492-47.713 29.239-73.348 3.844-14.606 10.467-27.666 20.689-38.848 9.443-10.33 17.399-11.124 29.632-4.057 7.47,4.316 15.417,7.925 23.431,11.154 9.939,4.005 20.071,4.408 30.727,1.596 22.387-5.906 42.629-14.964 59.629-31.434 16.471-15.957 24.937-17.971 50.223-2.828 14.027,8.4 21.65,22.4 28.207,36.367 15.413,32.833 37.324,60.974 61.139,87.775 7.391,8.318 16.503,15.121 24.954,22.472 1.842,1.602 4.134,2.786 6.382,3.803 5.892,2.666 10.295,10.289 9.217,16.328-1.025,5.743-6.502,7.336-11.54,3.358-7.058-5.573-10.93-5.388-17.41,0.322-4.588,4.043-9.769,7.445-14.145,11.691-7.466,7.244-15.017,14.507-21.613,22.519-10.786,13.101-20.082,27.484-31.385,40.09-14.04,15.658-31.885,24.564-53.608,24.286-16.274-0.209-32.553-0.079-48.83-0.049-11.677,0.021-23.167,1.625-33.808,6.513-26.485,12.167-51.728,8.985-75.016-7.154-17.775-12.319-34.549-26.136-51.316-39.839-11.314-9.248-22.736-17.87-38.232-21.156zm65.601-63.231l-.226-.174c0.223,1.945 0.446,3.891 0.795,6.94 10.757-8.956 9.127-22.684 17.229-31.901-1.546,6.67-3.093,13.339-4.859,20.959 11.168-5.762 19.373-19.641 33.36-7.555 3.498-9.31 6.74-17.937 9.982-26.565 0.653,0.202 1.306,0.404 1.959,0.606-2.326,9.53-4.651,19.06-6.927,28.384 2.516,1.763 3.924,2.892 5.466,3.791 1.678,0.978 3.481,1.74 5.362,2.662 6.508-24.089 8.089-27.654 15.281-33.549-3.678,12.45-7.101,24.041-10.718,36.283 3.505,1.166 5.996,1.994 8.165,2.716 4.851-11.165 9.339-21.496 13.827-31.827 0.745,0.293 1.491,0.586 2.236,0.879-3.734,10.691-7.467,21.383-11.545,33.059 4.288,0.721 7.259,1.22 10.345,1.739 4.133-12.008 5.972-24.062 14.802-33.348-3.125,11.303-6.251,22.606-9.616,34.776 4.247,0 7.296,0 10.225,0 5.353-12.856 7.85-26.342 14.459-38.137 0.835,0.266 1.67,0.533 2.505,0.799-3.421,12.292-6.843,24.585-10.251,36.829 5.373,2.495 7.75,0.44 9.501-4.09 3.503-9.064 7.399-17.977 11.132-26.952 0.965,0.359 1.931,0.719 2.896,1.078-3,9.334-6,18.667-9.002,28.007 5.942,2.044 7.996-1.225 9.606-5.14 2.198-5.345 4.238-10.759 6.578-16.04 0.676-1.526 2.152-2.698 3.261-4.032 0.507,0.304 1.014,0.608 1.52,0.912-2.053,6.678-4.105,13.355-6.672,21.707 11.592-3.424 10-14.807 17.544-21.398-2.039,6.073-3.549,10.572-5.559,16.557 13.289-5.327 24.409-10.967 33.135-20.331 6.128-6.576 12.234-12.464 21.822-8.798 2.827-5.029 5.231-9.306 7.636-13.584 0.615,0.35 1.23,0.7 1.845,1.051-1.732,4.759-3.463,9.517-5.195,14.276 0.81,0.504 1.62,1.008 2.43,1.512 3.641-3.533 7.282-7.065 10.923-10.597 0.398,0.377 0.796,0.754 1.195,1.13-1.918,3.676-3.836,7.352-5.687,10.9 28.951,25.653 64.655,45.124 86.249,36.68-1.078-1.134-1.965-2.23-3.012-3.145-35.823-31.347-64.064-68.382-84.979-111.219-6.121-12.538-13.012-25.017-25.651-32.956-12.39-7.784-16.85-7.819-27.723,1.547-1.918,1.652-3.926,3.223-5.69,5.028-16.802,17.191-38.211,25.383-60.714,31.836-16.131,4.625-31.547,3.608-46.304-4.011-6.698-3.458-12.947-7.923-18.996-12.468-9.431-7.086-14.83-6.952-20.859,3.378-5.788,9.916-11.226,20.403-14.546,31.329-13.376,44.016-32.764,84.881-60.538,121.661-1.765,2.337-3.259,4.88-6.193,9.311 6.965-3.062 11.837-4.516 15.957-7.147 10.964-7.002 21.485-14.697 32.442-21.71 3.488-2.233 4.604-4.954 5.336-8.7 0.849-4.347 2.611-8.515 3.977-12.761 0.73,0.183 1.459,0.366 2.189,0.549-0.719,4.312-1.437,8.624-2.156,12.936 2.735-1.572 4.159-3.767 5.567-5.973 1.633-2.562 3.253-5.132 4.879-7.699zm79.805,92.13c1.019,0.342 2.038,0.683 3.057,1.025-3.662,10.746-7.324,21.491-11.175,32.789 6.013,0.674 8.92-1.119 10.991-6.555 3.746-9.832 8.585-19.248 12.968-28.837 0.932,0.378 1.864,0.757 2.796,1.135-3.574,9.734-7.148,19.468-10.839,29.521 8.22-0.364 11.967-4.34 14.188-10.874 2.267-6.669 5.384-13.048 8.129-19.555 0.773,0.265 1.546,0.529 2.319,0.794-2.083,7.607-4.166,15.213-6.249,22.82 0.991,0.491 1.983,0.981 2.974,1.472 8.185-6.952 8.341-19.514 17.135-26.425-2.599,7.375-5.199,14.75-7.815,22.174 9.29,1.148 9.342,1.173 12.748-5.958 4.186-8.762 8.276-17.57 13.452-28.58 0.502,13.998-7.557,22.975-9.739,33.765 7.13,0.111 7.229,0.16 9.024-3.553 2.94-6.083 5.736-12.236 8.593-18.359 0.571,0.206 1.141,0.412 1.712,0.619-2.351,6.957-4.701,13.914-7.016,20.766 5.127,2.985 6.875,0.36 8.654-3.393 2.816-5.94 6.114-11.651 9.208-17.458 0.517,0.27 1.034,0.539 1.551,0.809-2.907,6.721-5.813,13.442-9.342,21.603 8.28,0 15.034-0.328 21.746,0.064 17.553,1.023 31.859-6.197 43.763-18.043 11.512-11.456 22.343-23.646 32.87-36.027 9.89-11.632 19.736-23.098 33.428-30.521 1.977-1.071 3.461-3.052 4.265-3.785-11.414-3.701-23.419-5.908-33.72-11.344-13.968-7.37-26.804-16.968-39.771-26.113-5.417-3.821-10.692-7.172-18.089-7.878-12.695,18.324-31.729,28.083-51.819,35.547-35.385,13.146-69.468,11.252-100.943-11.66-3.434-2.5-7.315-4.385-9.507-5.68-34.148,20.637-67.059,40.526-100.164,60.533 10.894,4.882 21.019,9.419 30.824,13.814 2.833-8.165 5.553-16.003 8.273-23.842 0.724,0.229 1.448,0.458 2.172,0.687-1.798,7.284-3.384,14.629-5.475,21.828-1.244,4.285-0.647,7.049 4.463,8.214 4.677-8.412 6.117-18.641 13.458-25.873-1.682,7.349-4.21,14.37-6.672,21.413-3.253,9.305-3.231,9.313 6.075,14.903 3.958-11.016 7.931-22.076 11.905-33.136 0.915,0.294 1.83,0.588 2.744,0.882-3.581,12.242-7.161,24.484-10.728,36.679 4.213,3.174 7.551,5.688 11.461,8.634 4.51-11.836 5.131-23.907 13.738-32.793-3.102,11.751-6.203,23.503-9.418,35.68 3.635,2.154 6.501,3.852 9.922,5.879 4.635-14.264 7.842-27.77 14.276-39.986 0.683,0.221 1.366,0.442 2.048,0.664-3.848,14.427-7.696,28.853-11.608,43.521 3.752,1.541 6.305,2.589 9.29,3.815 2.455-7.013 4.665-13.455 6.966-19.864 2.263-6.304 4.619-12.574 6.934-18.859 0.74,0.256 1.48,0.511 2.219,0.767-0.939,14.027-7.951,26.572-11.186,40.874 3.357,1.255 6.563,2.453 10.226,3.823 5.198-11.841 10.051-22.894 14.903-33.948 0.763,0.293 1.525,0.587 2.287,0.88-3.683,11.363-7.366,22.726-11.291,34.835 3.718,0.434 6.057,0.706 8.039,0.938 5.109-12.198 9.941-23.732 14.772-35.267z"/>
    <path d="m116.925,193.002c1.929-6.113 3.857-12.226 5.786-18.339 0.83,0.25 1.661,0.5 2.491,0.75-1.79,6.155-3.579,12.31-5.369,18.466-0.97-0.293-1.939-0.585-2.908-0.877z"/>
    <path d="m82.452,214.782c0.636-3.024 1.271-6.047 1.907-9.071 0.833,0.311 1.666,0.622 2.499,0.933-1.546,2.653-3.091,5.307-4.634,7.962 0.002,0.002 0.228,0.176 0.228,0.176z"/>
    <path d="m257.806,306.852c-1.689,4.721-3.377,9.442-5.066,14.163-0.782-0.268-1.565-0.536-2.347-0.804-0.452-5.364 3.682-9.267 4.547-14.212 0.955,0.284 1.911,0.568 2.866,0.853z"/>
  </g>
</svg>
