<?xml version="1.0" encoding="iso-8859-1"?>
<!-- Generator: Adobe Illustrator 16.0.0, SVG Export Plug-In . SVG Version: 6.00 Build 0)  -->
<!DOCTYPE svg PUBLIC "-//W3C//DTD SVG 1.1//EN" "http://www.w3.org/Graphics/SVG/1.1/DTD/svg11.dtd">
<svg version="1.1" id="Capa_1" xmlns="http://www.w3.org/2000/svg" xmlns:xlink="http://www.w3.org/1999/xlink" x="0px" y="0px"
	 width="190.94px" height="190.939px" viewBox="0 0 190.94 190.939" style="enable-background:new 0 0 190.94 190.939;"
	 xml:space="preserve">
<g>
	<g>
		<path d="M67.546,85.729c0.014-0.026,0.023-0.057,0.037-0.084c0.439,0.134,0.917,0.185,1.417,0.09
			c0.23-0.044,0.453-0.154,0.681-0.213c0.876,2.114,4.254,3.087,5.341,0.547c0.599-1.4,1.179-3.013,1.735-4.786
			c9.705-9.125,17.164-29.348,20.574-37.866c5.719-14.29,9.471-36.34-10.186-40.498c-6.596-1.396-12.284,0.059-17.132,3.15
			c-4.473-4.372-10.43-6.722-18.267-5.911C40.41,1.331,33.659,7.146,30.269,15.274c-1.618,0.257-3.232,0.663-4.821,1.407
			c-11.829,5.535-9.02,24.885-6.529,34.606c4.189,16.341,16.436,33.384,33.275,38.093c-0.001,0.004-0.002,0.007-0.003,0.012
			c-34.3,7.979-26.937,109.851,13.011,101.003c39.542-8.758,30.066-92.864,0.947-103.564C66.683,86.719,67.186,86.396,67.546,85.729
			z M87.804,9.979c17.691,3.633,5.433,28.837-6.783,48.677c1.551-16.412,0.359-35.084-6.578-46.87
			C78.271,9.76,82.702,8.931,87.804,9.979z M58.619,6.272c2.751,0.457,5.061,1.588,7.027,3.205
			C60.841,13.977,57.07,20.071,54.304,26.2c-4.545-5.186-10.658-9.484-17.113-10.807C40.439,8.346,47.088,4.358,58.619,6.272z
			 M35.414,20.954c5.58,1.112,11.44,7.406,15.712,13.491c-3.486,10.908-6.202,32.294,0.815,44.764
			C41.697,66.104,31.912,38.337,35.414,20.954z M56.174,42.857c0.336,0.69,0.627,1.325,0.83,1.845
			c5.149,13.158,4.384,26.261,6.204,39.851c0.088,0.656,0.443,1.22,0.907,1.641c-0.364-0.087-0.738-0.133-1.107-0.198
			c0.009-0.278-0.01-0.568-0.213-0.88C54.145,71.765,53.263,58.326,56.174,42.857z M27.935,56.284
			c-3.655-8.94-7.726-24.183-0.452-32.429c0.19-0.215,0.388-0.368,0.581-0.558c-2.839,18.62,6.392,43.713,18.554,57.238
			C38.248,74.393,32.105,66.483,27.935,56.284z M66.052,182.169c-30.036,10.406-37.056-78.722-10.876-88.281
			c0.008-0.003,0.012-0.008,0.02-0.011c0.52,0.092,1.09,0.08,1.712-0.088C82.418,86.913,96.16,171.735,66.052,182.169z
			 M59.643,34.049c-0.224-0.453-0.487-0.906-0.739-1.36c2.405-6.74,6.077-13.393,11.121-17.835
			c7.747,13.807,5.202,40.696,2.044,57.656c-0.638,0.955-1.255,1.878-1.824,2.73C71.15,61.454,64.562,44.001,59.643,34.049z"/>
		<path d="M74.211,163.863c-0.83-5.767-9.845-11.354-14.625-6.654c-0.366,0.36-0.553,0.769-0.65,1.188
			c-4.563,1.996-8.067,7.257-8.572,11.782c-0.9,8.084,10.075,10.394,15.82,8.047C71.994,175.853,75.091,169.977,74.211,163.863z
			 M64.538,171.542c-2.161,1.371-7.849,1.646-7.706-1.915c0.107-2.664,2.406-5.649,4.681-7.713c2.338,0.767,5.172,0.349,6,3.321
			C68.183,167.641,66.502,170.296,64.538,171.542z"/>
		<path d="M172.534,35.518C170,18.816,155.359,1.544,138.849,15.321c-21.962,18.327-54.968,105.627-3.938,106.338
			c-3.925,14.75-9.884,38.955-2.159,52.976c8.386,15.223,33.897,12.639,36.752-5.051c0.244-1.511-0.366-2.695-1.288-3.435
			c2.006-23.373,1.766-46.872,3.865-70.201C173.901,75.711,175.596,55.713,172.534,35.518z M165.856,83.396
			c-1.992,27.95-2.447,55.929-4.339,83.901c-0.063,0.953,0.243,1.655,0.711,2.179c-3.013,7.278-9.577,9.82-17.282,6.562
			c-7.434-3.144-7.768-10.251-7.864-17.212c-0.175-12.411,2.105-24.673,2.456-37.038c0.027-0.984-0.515-1.665-1.234-1.999
			c0.458-1.372,0.014-3.025-1.725-3.337c-14.726-2.632-20.542-13.085-21.149-26.238c0.896,0.632,2.255,0.655,2.828-0.531
			c9.975-20.63,18.906-42.171,27.989-63.198c1.238-2.868-2.356-5.052-4.208-2.46c-12.433,17.403-20.142,41.342-26.632,61.817
			c0.824-23.144,15.478-52.464,26.395-63.354C168.234-3.879,166.697,71.599,165.856,83.396z"/>
		<path d="M148.985,155.083c-1.854-0.426-3.748,1.481-3.383,3.17c-2.596,2.688-5.872,6.889-3.55,10.68
			c1.791,2.923,5.745,3.069,8.724,2.392c2.945-0.67,6.323-2.979,6.81-6.171C158.323,160.303,153.335,156.083,148.985,155.083z
			 M151.984,164.334c-0.29,0.559,0.121,0.007-0.506,0.616c-0.311,0.303-1.424,0.893-1.908,1.066c-1.192,0.43-1.41,0.44-2.367,0.439
			c-0.659-0.001-0.904-0.099-1.163-0.364c0.137,0.14,0.053,0.072-0.053-0.335c0.074,0.291,0.007-0.629,0.047-0.849
			c0.284-1.581,1.011-3.054,1.783-4.46c1.079,0.67,2.181,1.309,3.13,2.16c0.572,0.512,0.605,0.574,0.915,1.066
			c0.104,0.165,0.176,0.557,0.175,0.521C152.041,164.31,152.057,164.194,151.984,164.334z"/>
	</g>
</g>
<g>
</g>
<g>
</g>
<g>
</g>
<g>
</g>
<g>
</g>
<g>
</g>
<g>
</g>
<g>
</g>
<g>
</g>
<g>
</g>
<g>
</g>
<g>
</g>
<g>
</g>
<g>
</g>
<g>
</g>
</svg>
