<?xml version="1.0" encoding="iso-8859-1"?>
<!-- Generator: Adobe Illustrator 16.0.0, SVG Export Plug-In . SVG Version: 6.00 Build 0)  -->
<!DOCTYPE svg PUBLIC "-//W3C//DTD SVG 1.1//EN" "http://www.w3.org/Graphics/SVG/1.1/DTD/svg11.dtd">
<svg version="1.1" id="Capa_1" xmlns="http://www.w3.org/2000/svg" xmlns:xlink="http://www.w3.org/1999/xlink" x="0px" y="0px"
	 width="193.041px" height="193.041px" viewBox="0 0 193.041 193.041" style="enable-background:new 0 0 193.041 193.041;"
	 xml:space="preserve">
<g>
	<path d="M177.226,139.025c-2.764-3.867-5.867-7.367-8.265-11.499c-4.175-7.191-0.874-15.475,1.959-22.461
		c0.267-0.659,0.063-1.206-0.338-1.578c0.314-0.461,0.505-1.018,0.494-1.665c-0.532-30.398,4.544-62.943,0.275-92.994
		c-0.132-0.93-0.666-1.589-1.369-2.018c0.077-0.085,0.189-0.147,0.261-0.236c1.451-1.823,1.17-3.859-0.678-5.257
		c-4.477-3.388-13.943,0.693-18.727,1.848c-12.12,2.927-24.074,6.572-35.887,10.547c-7.135,2.401-30.522,8.511-37.268,18.086
		c-0.119-0.69-0.552-1.333-1.326-1.581c-11.27-3.618-19.973,2.967-30.748,5.325c-4.617,1.01-9.276,1.793-13.994,2.109
		c-1.987,0.133-4.529,0.326-6.411-0.473c0.389,0.165,3.692-6.226,3.908-6.654c1.069-2.12-1.111-4.526-3.296-3.296
		c-11.779,6.633-8.578,17.811,4.354,17.74c6.213-0.034,12.541-1.449,18.573-2.813c5.951-1.347,10.846-4.327,16.15-6.288
		c-4.593,2.73-8.978,6.736-11.105,9.228c-4.674,5.472-6.766,11.024-7.612,18.112c-0.715,5.998-0.366,12.119-2.961,17.737
		c-1.501,3.249-5.68,5.899-8.871,7.131c-3.719,1.435-4.247-4.815-4.687-6.5c-0.718-2.753-4.388-2.431-5.248,0
		c-2.241,6.333-0.475,12.387,6.275,14.489c6.241,1.944,14.909-4.419,18.121-9.214c5.499-8.21,4.179-18.043,5.761-27.355
		c1.178-6.93,12.995-22.42,21.264-19.173c-0.005,0.052-0.032,0.088-0.035,0.142c-1.348,26.115-4.581,53.778,2.639,79.299
		c-9.045-1.376-13.559,4.09-15.817,11.603c-2.241-4.41-4.881-8.586-8.074-12.428c-1.742-2.096-4.953-0.719-5.688,1.502
		c-3.226,9.741-9.347,18.125-12.579,27.882c-0.84,2.538,1.8,4.871,4.223,4.224c6.841-1.83,13.408-4.283,20.017-6.426
		c-0.151,3.843-0.111,7.522-0.083,10.546c0.129,13.552-4.331,23.768-18.577,27.198c-13.005,3.132-25.038-3.104-22.802-17.02
		c0.452-2.813-3.234-6.122-5.501-3.202c-5.85,7.533-4.791,17.473,2.954,23.389c9.642,7.366,23.311,7.47,34.181,2.968
		c11.082-4.59,16.9-15.148,17.57-26.717c0.17-2.925-0.061-6.65-0.259-10.611c3.366,4.886,7.524,9.395,10.943,12.988
		c1.448,1.522,4.564,1.343,5.504-0.709c3.981-8.691,5.834-17.324,6.031-26.87c0.04-1.959-1.616-3.396-3.479-3.479
		c-6.478-0.286-12.602,0.617-18.585,2.09c1.237-6.839,4.612-11.959,13.007-11.706c0.146,0.004,0.258-0.043,0.39-0.062
		c0.521,0.709,1.305,1.182,2.399,1.055c24.496-2.863,47.761-11.419,71.987-15.565c-8.249,8.748-14.698,19.347-15.32,31.644
		c-0.299,5.899,1.243,10.095,3.187,15.635c2.742,7.813,4.512,13.376-4.76,15.56c-2.705,0.637-2.188,4.104,0,4.965
		c9.27,3.645,16.011-3.369,14.262-12.74c-1.183-6.339-3.757-12.196-5.63-18.336c-4.027-13.201,7.45-27.728,15.796-37.854
		c0.409-0.052,0.813-0.129,1.223-0.183c-3.372,7.431-4.133,15.099-0.634,23.188c1.836,4.242,5.326,7.909,7.951,11.672
		c3.818,5.472,3.291,10.195,3.838,16.431c0.232,2.646,4.037,4.307,5.449,1.476C185.433,154.092,181.931,145.608,177.226,139.025z
		 M45.4,143.922c2.482-5.487,5.423-10.764,7.848-16.284c2.888,3.498,5.354,7.274,7.84,11.131
		C55.868,140.391,50.683,142.236,45.4,143.922z M83.29,141.606c-0.363,5.116-1.257,9.999-2.917,14.796
		c-3.157-4.293-5.709-8.969-8.557-13.383C75.549,142.216,79.362,141.71,83.29,141.606z M152.244,55.98
		c2.4,1.729,5.877,4.962,9.343,6.798c0.076,2.475,0.097,4.956,0.221,7.42c-2.296-1.321-4.683-2.541-6.716-3.855
		c-5.286-3.417-10.514-6.921-15.812-10.32c-1.493-0.958-2.794,1.36-1.373,2.35c5.175,3.606,10.321,7.248,15.529,10.805
		c2.521,1.721,5.547,4.323,8.643,6.024c0.104,1.624,0.135,3.275,0.262,4.888c-9.826-5.977-19.321-12.198-28.864-18.767
		c3.228-4.176,6.369-8.413,9.389-12.727C145.9,51.144,148.987,53.636,152.244,55.98z M143.883,47.101
		c1.518-2.2,2.961-4.446,4.401-6.692c3.809,3.819,8.326,7.978,13.148,10.625c-0.004,2.144-0.041,4.285-0.007,6.431
		c-2.563-1.475-5.25-2.814-7.552-4.278C150.577,51.089,147.204,49.083,143.883,47.101z M162.851,85.773
		c0.185,1.932,0.35,3.876,0.564,5.785c-8.963-8.633-25.32-14.319-34.978-19.774c-0.717-0.405-1.417-0.839-2.133-1.247
		c1.127-1.459,2.25-2.927,3.388-4.363c0.792-0.999,1.566-2.012,2.351-3.016C141.463,71.076,151.441,80.746,162.851,85.773z
		 M161.438,47.375c-1.189-0.598-2.385-1.184-3.516-1.933c-3.024-2.001-5.787-4.371-8.46-6.825c1.573-2.509,3.076-5.058,4.527-7.634
		c2.18,1.788,4.653,3.33,6.95,4.914c0.267,0.183,0.551,0.408,0.826,0.613C161.602,40.117,161.483,43.738,161.438,47.375z
		 M164.279,9.749c-1.122,7.419-1.841,15.103-2.294,22.897c-2.193-1.413-4.396-2.889-6.7-4.064c3.276-6.035,6.223-12.25,8.618-18.752
		C164.026,9.798,164.158,9.779,164.279,9.749z M124.866,19.954c9.339-3.084,18.818-5.75,28.344-8.191
		c0.961-0.246,2.148-0.443,3.401-0.636c-9.313,20.392-22.584,38.254-36.521,55.777c-6.697-3.933-13.331-7.969-19.758-12.336
		c-5.76-3.913-10.64-9.118-16.069-13.405c-0.007-0.233-0.001-0.466-0.008-0.699c-0.022-0.686-0.167-1.284-0.404-1.797
		C97.392,31.932,109.983,24.87,124.866,19.954z M99.29,68.943c-5.188-2.828-10.182-5.958-15.101-9.212
		c0.057-2.826,0.142-5.644,0.163-8.476c7.895,8.253,19.998,14.818,27.861,19.804c1.009,0.64,2.063,1.206,3.083,1.831
		c-0.843,1.042-1.78,2.149-2.656,3.211C108.404,73.399,103.67,71.332,99.29,68.943z M110.151,79.111
		c-1.016,1.22-1.975,2.394-3.006,3.633c-3.698-1.934-8.327-2.92-12.076-4.525c-3.853-1.651-7.596-3.625-11.122-5.916
		c0.072-3.3,0.119-6.613,0.191-9.917c3.736,2.65,7.523,5.224,11.378,7.721C100.192,73.136,105.038,76.604,110.151,79.111z
		 M83.9,75.209c2.497,1.813,5.131,3.444,7.879,4.964c3.582,1.98,8.211,4.715,12.606,5.963c-1.324,1.618-2.66,3.203-3.955,4.859
		c-5.521-2.618-11.149-5.078-16.661-7.776C83.77,80.551,83.852,77.879,83.9,75.209z M83.804,85.946
		c2.781,1.598,5.589,3.152,8.409,4.674c1.716,0.925,3.818,2.383,5.976,3.332c-1.282,1.708-2.566,3.416-3.759,5.168
		c-2.151-0.816-4.481-1.417-6.484-2.287c-1.339-0.582-2.638-1.265-3.939-1.938C83.87,91.914,83.831,88.93,83.804,85.946z
		 M84.167,98.351c0.753,0.391,1.502,0.768,2.227,1.14c1.713,0.88,3.806,2.031,5.927,2.842c-2.463,3.919-4.63,7.941-6.247,12.1
		C85.105,109.072,84.516,103.713,84.167,98.351z M89.011,118.189c11.634-12.877,22.041-27.479,32.624-41.531
		c6.319,3.671,12.701,7.24,19.066,10.806c7.297,4.089,15.431,11.167,23.686,12.71c0.027,0.005,0.054-0.001,0.081,0.003
		c0.002,0.018,0.004,0.037,0.007,0.056C138.681,103.488,114.131,111.877,89.011,118.189z"/>
</g>
<g>
</g>
<g>
</g>
<g>
</g>
<g>
</g>
<g>
</g>
<g>
</g>
<g>
</g>
<g>
</g>
<g>
</g>
<g>
</g>
<g>
</g>
<g>
</g>
<g>
</g>
<g>
</g>
<g>
</g>
</svg>
