<?xml version="1.0" encoding="iso-8859-1"?>
<!-- Generator: Adobe Illustrator 16.0.0, SVG Export Plug-In . SVG Version: 6.00 Build 0)  -->
<!DOCTYPE svg PUBLIC "-//W3C//DTD SVG 1.1//EN" "http://www.w3.org/Graphics/SVG/1.1/DTD/svg11.dtd">
<svg version="1.1" id="Capa_1" xmlns="http://www.w3.org/2000/svg" xmlns:xlink="http://www.w3.org/1999/xlink" x="0px" y="0px"
	 width="189.503px" height="189.503px" viewBox="0 0 189.503 189.503" style="enable-background:new 0 0 189.503 189.503;"
	 xml:space="preserve">
<g>
	<path d="M183.923,33.841c-0.616-12.923-10.306-27.99-24.589-26.858c-0.867,0.069-1.568,1.196-0.777,1.876
		c4.864,4.179,10.528,6.514,14.455,11.887c4.784,6.548,4.395,15.856,3.774,23.487c-0.879,10.81-4.473,21.519-8.463,31.826
		c-4.463-6.699-13.023-12.001-18.685-16.624c-1.508-1.232-3.26-1.056-4.585-0.249c0.032-0.06,0.073-0.118,0.105-0.179
		c2.451-2.291,4.315-5.176,4.936-8.483c0.148-0.789,0.185-1.684,0.152-2.625c5.078-13.057,7.639-27.388,7.883-44.447
		c0.031-2.146-2.224-4.001-4.335-3.302c-5.384,1.782-9.104,3.574-12.669,6.394c-1.078-0.954-2.225-1.829-3.446-2.553
		c-1.487-0.883-2.791-0.386-3.56,0.599c-1.204-2.269-3.248-3.953-6.413-4.194c-4.468-0.34-8.774,2.156-12.308,4.598
		c-5.103,3.527-9.791,8.064-11.688,14.123c-1.138,3.635-0.335,8.337,3.479,9.99c0.826,0.358,1.639,0.507,2.446,0.595
		c-0.881,0.03-1.751,0.44-2.345,1.504c-2.51,4.506-4.846,8.518-8.351,11.719c-1.737-0.461-3.567-0.405-5.384,0.517
		c-1.323,0.672-1.142,2.492-0.065,3.267c-1.639,1.011-0.381,3.918,1.528,3.254c1.015-0.353,1.969-0.904,2.952-1.371
		c0.416,0.163,0.831,0.336,1.236,0.558c2.825,1.553,3.759,5.293,4.028,8.217c0.588,6.385-2.103,12.65-5.995,17.58
		c-0.085-0.14-0.124-0.297-0.214-0.435c-0.627-0.971-1.669-1.351-2.678-1.293c0.084-3.204-0.924-5.875-3.922-6.866
		c-0.214-0.071-0.478-0.035-0.733-0.009c-0.213-0.577-0.655-1.1-1.335-1.156c-1.075-0.09-2.288,0.03-3.55,0.248
		c1.904-1.441,3.648-3.214,4.813-4.376c2.106-2.1,3.819-4.654,4.169-7.654c0.595-5.085-4.287-8.193-8.629-9.106
		c-10.78-2.266-25.117,3.846-23.911,16.631c0.407,4.311,2.307,8.232,4.659,11.809c0.51,0.777,1.403,1.452,2.392,1.372
		c0.025-0.002,0.053-0.006,0.079-0.008c-4.17,3.883-6.964,8.581-6.552,13.168c-1.369-2.706-3.187-5.165-5.485-7.058
		c-0.906-0.745-2.088-0.762-3.058-0.364c-0.245-0.629-0.471-1.264-0.849-1.861c-4.979-7.855-16.338-3.925-21.108,1.786
		c-4.993,5.977-9.128,16.733-6.804,24.552c0.454,1.53,2.183,1.872,3.31,1.229c0.013,0.018,0.011,0.039,0.024,0.057
		c5.473,7.072,15.826-1.549,19.612-6.114c2.823-3.404,5.749-8.3,6.485-13.16c3.29,5.107,5.295,9.993,3.527,16.601
		c-0.82,3.064-2.617,5.571-4.858,7.75c-2.019,1.961-4.833,2.567-6.701,4.619c-0.455,0.5-0.433,1.385,0.222,1.726
		c6.511,3.375,13.731-5.269,16.262-10.31c2.236-4.453,2.535-9.634,1.334-14.458c0.176,0.247,0.283,0.502,0.485,0.746
		c0.308,0.373,0.696,0.575,1.035,0.884c-0.127,0.303-0.215,0.636-0.113,1.033c2.904,11.29,14.405,15.527,24.161,9.469
		c8.346-5.184,12.737-16.292,9.711-25.588c6.754-6.641,10.756-15.297,9.239-24.834c-0.477-3.003-2.377-6.327-4.948-8.607
		c3.924-2.933,7.282-6.665,9.317-11.039c0.178-0.382,0.245-0.755,0.281-1.119c1.475,0.968,3.446,1.725,5.292,1.882
		c-3.608,3.69-5.779,8.877-6.589,13.828c-0.283,1.727,0.428,3.224,2.154,3.795c6.445,2.131,13.494,1.192,18.723-3.349
		c2.805-2.436,5.703-6.316,7.153-10.418c0.875,1.437,2.059,2.749,2.903,4.232c0.69,1.212,1.039,2.494,1.227,3.814
		c-0.898,2.892-1.748,5.359-2.427,7.066c-1.368,1.338-3.06,2.417-4.528,3.225c-3.253,1.79-7.203,2.808-10.914,2.742
		c-2.264-0.04-5.664-1.361-5.466-4.116c0.101-1.398-2.049-1.63-2.398-0.325c-0.611,2.285-1.332,3.563,0.023,5.827
		c1.132,1.891,3.172,2.909,5.208,3.514c3.926,1.167,8.193,0.656,12.129-0.57c-7.628,11.04-17.949,20.567-27.152,29.959
		c-11.652,11.891-22.593,24.435-34.381,36.203c-7.713,7.697-16.098,14.521-24.897,20.951c-13.978,10.215-17.129,6.42-17.93-7.639
		c3.47-0.137,6.963-0.959,10.307-2.623c5.049-2.514,8.127-7.447,8.563-12.965c0.422-5.331-3.516-13.329-9.05-14.246
		c-0.069-1.096-0.277-2.197-0.688-3.295c-0.839-2.246-3.847-2.643-5.03-0.635c-8.081-7.204-30.981,3.547-28.894,16.572
		c-0.764,0.824-1.027,2.082-0.401,3.12c4.784,7.949,13.018,13.091,21.777,13.913c-1.454,7.256-1.797,13.655-1.114,21.782
		c0.158,1.876,1.977,3.937,4.077,3.104c0.052-0.02,0.101-0.045,0.153-0.065c24.889,42.563,56.916,11.405,83.548-14.142
		c20.306-19.477,42.883-36.718,55.323-62.667c0.658-1.373,1.043-2.687,1.307-3.973C178.207,70.682,184.817,52.595,183.923,33.841z
		 M42.739,94.762c-3.652,4.652-7.294,6.393-13.008,6.332c-0.303-0.003-0.491,0.146-0.741,0.217
		c0.364-4.668,2.031-9.242,4.274-13.294c2.17-3.922,8.693-11.278,13.58-6.576C49.992,84.47,44.56,92.442,42.739,94.762z
		 M67.103,60.561c-0.207-2.352,0.41-4.529,1.478-5.893c2.758-3.52,7.443-4.771,11.787-4.811c0.493-0.005,0.985,0.018,1.477,0.048
		c0.288,0.017,0.575,0.047,0.862,0.077c0.066,0.007,0.046,0.003,0.089,0.008c0.032,0.008,0.054,0.015,0.221,0.042
		c0.531,0.088,1.055,0.214,1.574,0.354c0.17,0.046,0.942,0.323,1.08,0.357c0.372,0.168,0.734,0.355,1.082,0.569
		c0.163,0.099,0.235,0.135,0.263,0.143c0.022,0.033,0.087,0.106,0.292,0.303c0.387,0.373,0.315,0.087,0.509,1.022
		c-0.235-1.132-0.178,1.069-0.012,0.035c-0.03,0.187-0.281,0.905-0.3,1.019c-0.531,1.133-1.076,1.777-1.894,2.654
		c-1.202,1.29-2.588,2.354-4.033,3.355c-2.054,1.425-5.012,2.425-5.037,5.324c-0.007,0.859,0.484,1.814,1.27,2.214
		c0.157,0.08,0.332,0.074,0.494,0.129c-1.597,0.729-3.195,1.611-4.743,2.606c-0.441-1.53-2.181-1.245-1.799-3.303
		c0.08-0.431-0.457-0.672-0.707-0.298c-0.37,0.556-0.612,1.267-0.782,1.991c-0.136,0.005-0.241,0-0.377,0.006
		C68.527,66.019,67.343,63.272,67.103,60.561z M74.615,76.884c3.406-3.668,8.032-7.186,13.028-8.373
		c-0.394,1.254-0.268,2.551-0.201,4.106c0.145,3.391-1.047,6.796-2.681,9.705c-1.862,3.315-4.979,5.646-8.545,6.818
		c-1.971,0.647-6.104,0.832-7.402-1.286C67.007,84.905,72.983,78.642,74.615,76.884z M87.199,98.286
		c-6.284,5.505-12.504,3.319-16.989-1.938c6.246,1.035,13.934-2.969,17.665-6.957c1.498-1.601,3.542-5.138,4.938-8.987
		C94.337,87.103,92.964,93.234,87.199,98.286z M13.768,126.377c-3.915-3.491,6.578-9.234,8.549-10.177
		c2.54-1.216,5.416-1.866,8.188-2.245c1.107-0.15,2.356-0.438,3.468-0.479c-1.252,4.563-2.578,8.008-7.312,11.032
		C23.704,126.398,16.975,129.236,13.768,126.377z M19.472,134.493c7.944-1.275,17.004-7.204,20.218-14.429
		c1.287,2.258,3.074,4.326,3.376,7.17c0.442,4.158-2.663,6.976-6.035,8.703C31.068,138.994,24.864,137.617,19.472,134.493z
		 M112.546,24.702c-0.287-0.845-1.58-1.122-2.044-0.234c-0.003,0.007-0.007,0.013-0.011,0.019c-0.369-0.127-0.718-0.283-0.984-0.539
		c-1.779-1.709,0.763-5.628,1.699-7.069c2.511-3.863,6.688-6.766,10.658-8.96c1.563-0.863,4.484-2.208,6.126-1.488
		c2.816,1.235,1.343,6.55,0.003,9.091c-1.128,2.139-2.797,3.883-4.868,5.122c-2.415,1.444-5.669,0.874-7.418,3.26
		c-0.058,0.08-0.067,0.17-0.109,0.254C114.566,24.447,113.519,24.643,112.546,24.702z M129.914,43.501
		c-3.119,3.445-7.337,4.512-11.609,3.872c2.132-7.294,7.435-14.698,16.009-13.565C133.308,37.227,132.683,40.442,129.914,43.501z
		 M134.149,29.419c-0.874,0.308-1.271,0.995-1.301,1.693c-3.767-1.057-7.062-1.113-10.529,0.735
		c-0.15-0.255-0.347-0.496-0.613-0.696c-1.758-1.315-4.155-0.853-6.159-1.742c-0.287-0.127-0.551-0.325-0.815-0.516
		c0.852-0.362,1.685-0.798,2.488-1.299c2.952,1.484,7.999-1.073,10.239-2.65c3.294-2.318,5.549-5.617,6.992-9.335
		c0.106-0.274,0.14-0.585,0.229-0.869c0.466,2.28,3.313,4.003,5.342,1.8c0.247-0.268,0.464-0.473,0.698-0.717
		c0.625,1.29,1.106,2.67,1.207,4.294C142.222,24.852,138.16,28.008,134.149,29.419z M140.819,33.574
		c-0.092-0.008-0.176,0.039-0.268,0.046c-0.027-0.852-0.191-1.681-0.415-2.498c3.753-2.067,6.598-5.415,7.212-10.009
		c0.438-3.267-0.343-6.367-1.84-9.126c6.512-2.939,4.385,11.856,1.019,25.205C145.01,35.206,143.102,33.762,140.819,33.574z
		 M155.985,100.24c-8.887,14.166-22.133,25.75-34.359,36.935c-24.928,22.804-55.653,66.569-86.768,29.531
		c34.509-15.341,57.963-46.224,83.811-72.772c10.284-10.563,18.308-20.759,24.46-31.474c0.048,0.788,0.377,1.584,1.213,2.269
		C157.245,75.306,167.322,82.167,155.985,100.24z"/>
</g>
<g>
</g>
<g>
</g>
<g>
</g>
<g>
</g>
<g>
</g>
<g>
</g>
<g>
</g>
<g>
</g>
<g>
</g>
<g>
</g>
<g>
</g>
<g>
</g>
<g>
</g>
<g>
</g>
<g>
</g>
</svg>
