<?xml version='1.0' encoding='iso-8859-1'?>
<!DOCTYPE svg PUBLIC '-//W3C//DTD SVG 1.1//EN' 'http://www.w3.org/Graphics/SVG/1.1/DTD/svg11.dtd'>
<svg version="1.1" xmlns="http://www.w3.org/2000/svg" viewBox="0 0 426.408 426.408" xmlns:xlink="http://www.w3.org/1999/xlink" enable-background="new 0 0 426.408 426.408">
  <g>
    <path d="m172.824,330.204c-0.705,12.309-0.56,24.623-2.338,36.652-1.782,12.054-4.978,23.978-8.513,35.668-2.538,8.392-7.624,15.604-15.373,20.373-9.37,5.765-17.869,4.389-25.196-3.827-7.208-8.083-9.199-17.675-8.648-28.181 0.758-14.435 1.626-28.88 1.718-43.326 0.047-7.449-1.481-14.908-2.41-23.39-6.348,3.538-6.589,8.238-6.404,12.819 0.466,11.538 1.198,23.065 1.861,34.594 0.756,13.148 0.135,26.097-6.435,37.947-2.075,3.742-4.503,7.443-7.452,10.507-3.712,3.857-8.451,4.747-13.962,3.629-13.691-2.777-21.345-11.112-24.371-24.419-3.656-16.073-2.666-32.342-2.193-48.572 0.283-9.71 1.193-19.401 1.908-30.437-4.243-0.314-8.04-0.511-11.816-0.896-5.01-0.51-10.151-0.614-14.976-1.881-9.067-2.381-11.065-6.584-7.128-15.267 6.268-13.824 12.873-27.5 19.604-41.106 8.17-16.516 16.392-33.014 25.068-49.266 3.039-5.694 0.489-9.462-2.887-14.848-1.995,4.117-3.659,7.445-5.232,10.816-5.059,10.843-12.439,19.522-23.541,24.452-16.527,7.34-31.12-2.417-30.765-20.513 0.063-3.221 0.418-6.519 1.227-9.628 6.281-24.138 16.592-46.183 33.942-64.523 10.746-11.359 23.464-18.94 39.084-21.632 5.986-1.032 11.69-3.658 17.668-4.788 5.611-1.06 11.443-1.746 17.128-1.486 26.479,1.209 49.998,10.997 70.478,27.26 5.85,4.645 9.942,12.469 12.837,19.643 4.305,10.667 7.254,21.949 9.994,33.161 2.924,11.966 1.88,23.7-5.173,34.318-4.266,6.423-9.935,10.546-18.032,9.831-7.799-0.688-12.121-5.901-14.947-12.539-2.52-5.918-4.692-11.984-7.785-19.962-2.16,8.98-4.341,16.127-5.351,23.437-0.297,2.147 2.508,4.928 4.262,7.122 17.735,22.177 31.614,46.613 42.771,72.654 1.137,2.654 2.316,5.317 3.135,8.077 2.389,8.047 0.735,11.751-7.394,13.709-7.639,1.838-15.559,2.491-24.363,3.818zm-154.616-114.354l.355,.332c-1.509,7.377 1.511,10.915 7.731,7.823 5.956-2.96 11.789-7.257 16.028-12.34 7.185-8.614 12.281-18.69 15.024-29.77 1.039-4.2 1.807-9.257 7.554-8.992 5.592,0.257 5.858,5.579 7.238,9.56 2.124,6.125 3.702,12.495 6.405,18.348 2.587,5.603 1.928,10.093-1.254,15.167-3.552,5.664-6.244,11.868-9.676,18.547 3.04-0.373 4.598-0.565 7.192-0.883-5.826,8.443-16.514,12.239-16.961,24.209 5.62-3.706 10.403-6.859 15.185-10.012 0.423,0.628 0.846,1.255 1.269,1.883-6.793,5.877-13.599,11.738-20.372,17.637-4.758,4.145-8.609,8.784-8.909,16.824 3.863-3.127 6.594-5.453 9.449-7.617 2.8-2.122 5.114-5.31 10.062-5.567-9.887,13.298-24.639,21.009-30.215,36.789 12.727-3.572 18.373-17.355 31.928-22.468-6.478,9.296-15.417,14.068-20.577,23.085 6.085,0.469 11.513-0.223 15.959,1.55 4.242,1.692 7.459,5.952 11.265,9.201-6.317,9.879-6.317,9.879-5.437,16.835 2.314-0.785 4.628-1.57 7.886-2.675-3.448,7.189-13.135,10.156-8.263,19.725 1.513-0.767 2.691-1.53 3.979-1.962 0.919-0.308 1.986-0.173 4.442-0.327-7.221,6.361-14.188,11.097-10.276,20.703 1.48,0.072 2.745,0.133 4.279,0.207-6.831,11.837-3.849,23.083 1.144,34.136 2.168,4.798 6.96,7.086 11.535,6.579 2.698-0.299 5.803-3.986 7.253-6.885 2.389-4.776 4.743-10.077 5.068-15.284 1.032-16.542 1.056-33.144 1.611-49.718 0.168-5.026 0.064-10.236 1.376-15.008 2.18-7.93 8.012-12.915 13.287-12.355 7.595,0.807 10.266,6.864 11.198,12.901 1.807,11.708 3.097,23.569 3.484,35.403 0.376,11.532-0.546,23.114-1.091,34.665-0.291,6.178 2.21,11.226 5.638,16.007 2.951,4.115 6.422,4.091 10.217,1.194 6.649-5.075 9.846-12.286 12.427-19.913 6.591-19.471 7.733-39.573 7.328-59.916-0.256-12.858 1.951-14.906 14.903-15.315 2.892-0.091 5.84,0.29 8.668-0.15 2.934-0.457 5.753-1.647 9.1-2.661-2.341-5.945-3.941-10.741-6.07-15.29-10.763-23.001-23.357-44.902-39.934-64.281-3.79-4.431-6.017-9.051-4.27-14.846 3.647-12.096 7.206-24.229 11.312-36.171 0.904-2.63 3.633-5.93 6.053-6.45 4.039-0.868 4.686,3.54 5.71,6.534 3.503,10.243 6.822,20.552 10.451,30.75 1.436,4.036 3.076,8.252 8.22,8.945 10.627-7.307 14.79-19.793 10.592-33.372-3.197-10.341-7.288-20.404-10.585-30.717-2.781-8.698-7.985-15.447-15.562-20.15-18.905-11.735-38.74-21.003-61.651-21.155-26.575-0.177-50.114,6.934-66.794,29.126-5.604,7.456-10.509,15.535-14.908,23.77-4.381,8.203-3.059,18.48-8.715,26.412-0.173,0.243 0.483,1.076 0.814,1.763 4.383-3.867 8.732-7.704 13.082-11.541 0.479,0.526 0.959,1.053 1.438,1.579-5.127,5.452-10.3,10.861-15.364,16.37-3.575,3.892-3.048,6.38 1.745,9.232z"/>
    <path d="m376.043,202.055c-0.978,1.888-1.234,2.193-1.297,2.534-1.379,7.38-4.944,15.248-3.461,22.007 1.406,6.405 8.224,11.565 12.461,17.417 14.919,20.603 26.91,42.83 36.116,66.523 4.111,10.579 2.596,13.684-8.377,16.253-7.276,1.703-14.836,2.191-23.522,3.397 0,5.765-0.044,11.803 0.008,17.841 0.156,17.887-2.615,35.271-8.784,52.09-3.032,8.266-7.059,15.896-14.304,21.279-10.47,7.779-20.447,6.443-28.486-3.606-6.226-7.783-8.015-16.751-7.499-26.482 0.803-15.15 1.611-30.305 1.998-45.468 0.232-9.099-1.168-13.542-5.895-22.715-1.241,5.711-2.814,9.573-2.777,13.42 0.107,11.191 0.49,22.408 1.451,33.556 1.175,13.626-0.142,26.71-6.179,39.102-3.577,7.343-7.936,15.098-17.005,14.761-10.232-0.381-19.92-3.826-25.124-14.223-5.327-10.643-6.637-22.199-6.672-33.724-0.046-15.15 1.14-30.302 1.742-45.456 0.127-3.193 0.018-6.394 0.018-10.626-6.19-0.23-11.854-0.206-17.474-0.692-17.93-1.552-20.878-6.678-12.983-22.836 13.645-27.929 27.258-55.878 41.344-83.584 2.973-5.848 1.797-9.944-2.384-15.574-2.07,4.219-3.777,7.642-5.436,11.088-4.845,10.06-11.88,17.878-21.86,23.296-13.488,7.322-33.825,1.369-31.932-20.604 1.918-22.256 11.354-41.778 23.875-59.652 6.134-8.756 13.828-16.9 22.26-23.467 17.642-13.738 56.365-20.586 78.467-16.42 15.601,2.941 29.368,9.808 43.115,17.027 13.543,7.111 22.221,18.082 26.126,32.965 2.29,8.728 5.603,17.202 7.63,25.981 2.907,12.589 3.132,25.083-4.511,36.519-4.31,6.449-9.888,10.521-17.974,9.9-7.852-0.602-12.172-5.836-15.056-12.418-2.582-5.894-4.725-11.979-7.619-19.409zm22.182,23.125c8.388-4.581 9.126-5.178 11.386-10.967 3.278-8.394 3.399-16.962 0.555-25.476-3.09-9.252-6.596-18.368-9.592-27.649-2.909-9.014-8.21-16.123-16.207-21.004-18.994-11.591-38.804-20.974-61.75-20.974-25.706-0.001-48.4,6.888-65.427,27.705-8.583,10.494-14.783,22.035-19.828,34.6-3.697,9.206-1.51,19.411-6.266,28.181-0.066,0.122 0.854,0.778 1.9,1.703 1.679-1.824 3.257-3.77 5.082-5.447 1.488-1.366 3.273-2.408 4.926-3.593-10.869,16.538-10.869,16.538-8.275,20.927 2.149-1.679 4.245-3.317 7.255-5.668-0.462,2.97-0.703,4.519-1.114,7.159 7.868-2.84 14.273-6.758 18.067-13.476 5.117-9.058 9.403-18.588 13.986-27.945 1.943-3.966 1.283-10.363 7.704-10.304 6.199,0.057 6.324,5.758 7.681,10.217 1.783,5.855 3.562,11.779 6.129,17.309 2.55,5.494 2.223,10.029-0.836,15.288-5.012,8.617-9.219,17.703-13.765,26.591 0.477,0.391 0.954,0.782 1.431,1.172 4.55-3.391 9.1-6.782 13.65-10.173-8.843,13.619-25.184,20.78-28.655,39.007 7.174-4.463 10.934-12.059 18.795-14.163-12.191,16.004-31.153,26.876-35.652,48.963 7.743,2.664 13.785,2.591 19.001-4.909 4.001-5.754 9.471-10.583 16.382-13.398-5.227,6.155-10.455,12.311-14.982,17.641 5.152,2.945 11.255,4.387 12.88,7.9 1.869,4.041 5.478,9.271 1.111,15.179-2.236,3.024-1.446,8.285-2.23,14.051 4.738-3.735 8.313-6.552 13.129-10.348-3.067,10.22-13.934,14.165-13.152,25.307 4.256-3.621 7.876-6.701 11.497-9.782-2.463,10.447-16.422,15.817-10.894,29.887 5.194-5.061 9.915-9.66 14.636-14.259 0.525,0.459 1.05,0.918 1.574,1.378-3.526,4.251-7.315,8.317-10.492,12.815-2.385,3.377-5.85,7.486-5.522,10.956 0.591,6.245 2.579,12.958 5.966,18.194 4.732,7.316 13.538,6.372 16.813-1.607 3.108-7.572 5.678-15.706 6.498-23.794 1.118-11.039 0.377-22.268 0.386-33.416 0.004-5.065-0.897-10.285 0.05-15.154 1.073-5.513 2.882-11.292 5.945-15.913 4.795-7.232 13.126-6.335 17.504,1.275 1.42,2.467 2.651,5.308 2.977,8.094 1.341,11.437 2.952,22.904 3.218,34.389 0.267,11.521-1.378,23.077-1.366,34.617 0.009,8.213 3.146,15.379 11,19.563 10.844-4.482 14.551-13.836 17.728-23.595 6.464-19.854 7.695-40.321 7.387-61.011-0.149-9.994 1.885-12.074 11.574-12.966 2.873-0.265 5.814,0.154 8.674-0.176 3.807-0.44 7.564-1.307 12.187-2.143-2.247-5.811-3.814-10.598-5.904-15.145-10.763-23.415-23.627-45.549-40.39-65.26-3.104-3.65-6.16-7.542-4.645-12.655 3.901-13.163 7.942-26.293 12.371-39.285 0.774-2.271 3.71-3.806 5.648-5.681 1.753,2.033 4.249,3.788 5.13,6.146 3.788,10.143 6.863,20.553 10.71,30.671 1.44,3.78 4.274,7.036 6.421,10.451z"/>
    <path d="m204.176,66.771c2.842-8.042 6.335-13.697 14.853-15.081 10.111-1.643 17.443,1.484 19.611,11.511 1.402,6.485 0.935,13.58 0.16,20.269-0.654,5.647-2.74,11.178-4.602,16.62-1.358,3.968-2.364,9.276-5.334,11.203-5.258,3.411-11.882,6.518-17.949,6.546-18.891,0.089-39.696-14.491-36.855-39.897 1.143-10.22 6.189-14.643 16.581-13.838 4.226,0.327 8.376,1.617 13.535,2.667z"/>
    <path d="m162.943,54.911c-0.972,7.112-1.423,14.344-3.02,21.313-3.808,16.609-15.26,25.464-31.25,29.362-17.099,4.169-33.255,0.803-48.039-7.642-18.21-10.402-26.144-22.341-21.94-49.443 3.667-23.637 14.782-34.439 38.53-39.285 10.22-2.085 20.603-3.697 30.992-4.541 11.093-0.902 19.405,4.558 25.141,13.921 6.81,11.112 9.867,23.178 9.586,36.315zm-64.643,30.374c0.298,0.284 0.595,0.568 0.892,0.852-0.683,1.941-1.367,3.881-2.395,6.8 5.043,0.86 9.522,2.223 14.019,2.283 16.345,0.219 31.287-4.019 38.057-20.788 7.583-18.782 4.363-36.94-6.716-53.377-2.42-3.59-8.087-5.982-12.67-6.924-10.723-2.204-21.379-0.514-32.07,2.1-28.315,6.924-34.339,33.792-25.892,57.48 5.58-7.51 10.906-14.677 16.232-21.844 0.694,0.482 1.388,0.964 2.082,1.446-5.177,8.427-10.354,16.854-16.076,26.166 2.908,2.159 5.51,4.09 7.665,5.69 6.139-8.264 11.531-15.522 16.923-22.781 0.627,0.428 1.254,0.856 1.881,1.285-3.879,8.515-11.839,14.948-13.984,24.071 6.066,5.75 8.557-0.243 12.052-2.459z"/>
    <path d="m379.323,55.852c-0.971,6.755-1.398,13.645-3.022,20.239-3.801,15.434-14.106,25.101-29.21,28.956-22.157,5.656-42.202,0.329-59.89-13.833-7.981-6.39-12.944-14.908-12.668-25.268 0.247-9.29 1.074-18.714 3.054-27.772 2.956-13.525 12.597-21.869 25.257-26.004 8.489-2.773 17.564-3.784 26.404-5.434 3.53-0.659 7.168-0.739 10.7-1.388 12.932-2.375 23.139,2.348 30.047,14.063 6.515,11.047 8.842,20.851 9.328,36.441zm-91.516,3.889l-.204-.198c-0.191,4.837-5.92,9.8 0.681,14.886 4.981-5.135 9.958-10.267 14.936-15.399-1.137,4.382-3.696,7.326-6.095,10.394-2.384,3.048-4.607,6.221-6.794,9.193 8.527,9.32 26.712,16.876 36.302,16.775 17.16-0.18 31.65-3.445 38.625-21.676 7.121-18.611 4.352-37.063-7.507-53.303-2.403-3.291-7.601-5.442-11.876-6.298-13.043-2.611-25.756-0.196-38.242,4.081-18.285,6.264-24.127,24.11-23.899,38.465 0.017,1.047 2.654,2.054 4.073,3.08z"/>
    <path d="m209.737,9.836c2.643-2.491 5.014-5.223 7.865-7.296 4.479-3.257 12.01-3.385 15.22-0.369 4.47,4.2 3.225,8.964 1.118,13.919-4.021,9.459-9.803,16.356-20.71,18.411-10.199,1.922-19.832-3.084-22.833-13.098-2.549-8.504 2.121-14.5 10.985-13.752 2.776,0.235 5.472,1.404 8.355,2.185z"/>
    <path d="m18.208,215.85c2.195-3.414 4.39-6.827 6.585-10.241 0.108,5.03-2.138,8.446-6.231,10.572 0.001,0.002-0.354-0.331-0.354-0.331z"/>
    <path d="m272.763,286.98c-5.12,5.538-10.241,11.076-15.361,16.613 1.746-8.528 8.083-13.061 13.753-18.167 0.535,0.518 1.072,1.036 1.608,1.554z"/>
    <path d="m238.032,193.97c2.804-2.965 5.609-5.929 8.413-8.893 0.474,0.43 0.949,0.861 1.423,1.291-2.798,3.103-5.596,6.206-8.394,9.309-0.481-0.569-0.961-1.138-1.442-1.707z"/>
    <path d="m288.294,396.328c1.406-1.793 2.812-3.587 4.218-5.38 0.407,0.308 0.814,0.615 1.221,0.923-1.397,1.801-2.794,3.601-4.191,5.401-0.417-0.314-0.832-0.629-1.248-0.944z"/>
    <path d="m98.3,85.285c1.088-1.767 2.013-3.668 3.312-5.264 1.203-1.478 2.806-2.63 5.726-2.552-2.715,2.889-5.43,5.778-8.146,8.667-0.297-0.284-0.594-0.568-0.892-0.851z"/>
    <path d="m287.807,59.741c1.493-2.791 2.987-5.582 4.48-8.374 0.689,0.516 1.379,1.033 2.068,1.549-2.251,2.209-4.502,4.417-6.753,6.626 0.001,0.001 0.205,0.199 0.205,0.199z"/>
  </g>
</svg>
