<?xml version='1.0' encoding='iso-8859-1'?>
<!DOCTYPE svg PUBLIC '-//W3C//DTD SVG 1.1//EN' 'http://www.w3.org/Graphics/SVG/1.1/DTD/svg11.dtd'>
<svg version="1.1" xmlns="http://www.w3.org/2000/svg" viewBox="0 0 448.403 448.403" xmlns:xlink="http://www.w3.org/1999/xlink" enable-background="new 0 0 448.403 448.403">
  <g>
    <path d="m68.512,448.403c-3.321-1.231-6.556-2.838-9.979-3.621-9.138-2.089-13.153-8.858-14.267-16.958-1.801-13.102-2.525-26.357-3.55-39.559-1.115-14.359-2.07-28.731-3.057-43.099-0.178-2.586-0.21-5.183-0.251-7.776-0.395-25.098-2.738-49.976-6.333-74.855-3.361-23.267-8.237-46.474-7.155-70.249 0.174-3.832-0.997-7.72-0.866-11.559 0.352-10.351 7.315-14.417 16.612-9.942 4.12,1.983 8.239,3.974 12.308,6.061 3.909,2.005 7.751,4.14 11.131,5.953-2.26-18.768-4.195-37.895-6.939-56.904-4.134-28.645-6.155-57.663-14.748-85.571-1.156-3.754-1.146-8.178-0.434-12.064 0.354-1.934 3.37-4.473 5.453-4.757 3.712-0.507 7.642,0.91 11.458,0.789 23.357-0.738 46.636-1.506 69.741-6.245 18.828-3.862 38.04-6.259 57.2-7.993 29.563-2.675 59.07-6.371 88.885-5.929 8.51,0.126 17.028-2.798 25.592-3.16 18.081-0.765 36.195-0.923 54.297-0.965 4.737-0.011 8.057,2.907 9.859,7.604 5.056,13.184 4.606,27.054 5.609,40.78 0.966,13.216 2.447,26.396 3.772,39.584 1.25,12.44 2.715,24.859 3.862,37.307 1.77,19.207 3.349,38.432 5.09,58.582 6.337-4.903 11.534-9.236 17.053-13.109 5.591-3.923 9.4-3.32 12.99,2.413 1.968,3.142 3.304,7.022 3.763,10.714 4.935,39.68 5.968,79.531 5.971,119.497 0.002,21.915 3.342,43.815 3.747,65.748 0.295,15.957-1.495,31.979-2.856,47.93-0.757,8.867-7.506,12.679-15.268,13.341-9.289,0.792-18.701,0.131-28.06,0.134-6.802,0.003-13.63-0.296-20.401,0.177-11.189,0.783-22.321,2.604-33.514,3.056-26.963,1.088-53.944,1.836-80.925,2.331-17.909,0.329-35.843-0.437-53.741,0.098-10.994,0.328-21.954,2.089-32.908,3.38-11.481,1.353-22.912,3.168-34.412,4.319-13.898,1.391-27.846,2.279-41.768,3.449-1.005,0.085-1.965,0.699-2.946,1.067-3.337,0.001-6.676,0.001-10.015,0.001zm-17.836-417.876c0.094,0.967-0.045,3.39 0.608,5.576 2.617,8.764 6.163,17.307 8.083,26.208 2.544,11.797 3.963,23.842 5.727,35.8 1.582,10.725 3.01,21.472 4.446,32.218 1.801,13.483 3.43,26.99 5.356,40.455 0.904,6.317 3.242,12.567 3.19,18.833-0.033,3.978 1.356,5.339 4.03,7.141 9.766,6.581 20.022,12.617 28.974,20.184 19.878,16.804 39.368,34.098 58.471,51.781 17.158,15.883 37.489,27.164 56.418,40.47 3.702,2.602 8.078,4.058 13.263,1.802 30.878-13.435 56.146-34.397 78.879-58.636 16.945-18.068 33.309-36.681 49.869-55.107 1.011-1.125 2.104-2.748 2.082-4.122-0.062-3.837-0.73-7.661-1.09-11.496-1.853-19.776-3.661-39.555-5.533-59.329-1.145-12.092-2.386-24.175-3.568-36.263-1.398-14.3-2.875-28.593-4.125-42.906-0.609-6.975-0.495-14.016-1.209-20.976-1.236-12.055-1.766-12.037-14.382-11.107-22.793,1.679-45.61,3.053-68.428,4.361-8.852,0.508-17.758,0.165-26.598,0.789-13.778,0.974-27.538,2.279-41.274,3.742-17.33,1.846-34.645,3.85-51.934,6.05-14.561,1.853-29.029,5.304-43.62,5.844-19.029,0.704-38.138-0.766-57.635-1.312zm171.887,357.442c2.058,4.09 2.014,4.328-1.248,10.86-4.252,8.515-8.485,17.039-12.928,25.966 4.928,0.28 8.933,0.508 11.279,0.641 5.67-11.477 10.945-22.155 16.22-32.833 0.673,0.278 1.345,0.555 2.018,0.833 1.002,11.965-9.438,20.259-11.543,32.208 8.951-0.557 17.391-1.244 25.844-1.577 22.168-0.874 44.351-1.387 66.508-2.468 10.077-0.492 20.09-2.189 30.161-2.971 9.522-0.739 19.078-1.291 28.624-1.369 7.744-0.064 15.495,0.993 23.243,1.009 8.07,0.017 9.574-1.474 10.717-7.207 4.042-20.275 0.809-40.496-0.446-60.704-0.969-15.614-3.578-31.161-3.914-46.771-0.691-32.157 0.568-64.367-3.567-96.398-0.945-7.324-1.71-14.672-2.608-22.437-5.784,5.274-11.322,9.693-16.115,14.81-15.806,16.877-31.243,34.1-47.01,51.014-17.387,18.651-34.902,37.197-56.733,51.353 3.603,2.103 6.928,3.971 10.182,5.954 12.545,7.646 25.729,14.442 37.451,23.193 20.631,15.403 40.414,31.947 60.422,48.173 3.409,2.764 6.362,6.173 9.124,9.607 0.96,1.193 0.706,3.363 1.006,5.087-1.669-0.022-3.438,0.296-4.983-0.153-1.911-0.556-3.805-1.519-5.418-2.701-17.967-13.173-35.873-26.429-53.805-39.65-11.383-8.393-22.653-16.949-34.215-25.089-8.089-5.695-16.643-10.726-24.867-16.237-2.383-1.597-4.224-2.087-6.929-0.525-6.18,3.568-12.422,7.129-18.953,9.969-11.474,4.989-23.201,9.804-34.351-2.445-45.163,36.584-90.61,72.372-140.386,102.265 40.569-39.944 86.05-73.884 132.199-107.558-7.056-4.345-14.465-7.903-20.691-12.927-20.094-16.216-40.436-32.232-59.374-49.741-16.585-15.334-33.269-30.27-52.11-42.816-12.519-8.336-24.332-17.725-36.702-26.295-5.04-3.492-6.29-2.793-5.658,3.268 1.793,17.193 3.898,34.361 6.289,51.482 1.411,10.098 3.6,20.087 5.563,30.805 8.224-9.149 12.139-20.775 21.876-27.833 0.038,2.065-0.566,3.707-1.45,5.181-5.685,9.472-11.478,18.88-17.11,28.383-0.878,1.482-1.705,3.404-1.537,5.016 0.426,4.096 1.43,8.133 2.185,12.104 7.541-9.219 15.061-18.411 22.581-27.604 0.564,0.432 1.127,0.864 1.691,1.295-1.013,1.872-1.884,3.839-3.062,5.599-4.814,7.192-9.195,14.762-14.724,21.366-7.44,8.887-4.76,18.486-3.586,28.148 0.021,0.174 0.493,0.293 0.81,0.468 6.592-10.366 13.166-20.704 19.74-31.041 0.735,0.405 1.471,0.81 2.206,1.215-0.918,2.486-1.557,5.123-2.805,7.431-4.895,9.058-9.108,18.668-15.233,26.827-6.645,8.852-2.409,17.649-2.368,26.625 7.306-10.939 14.612-21.878 21.918-32.818 0.618,0.34 1.235,0.68 1.853,1.021-0.721,2.184-1.086,4.576-2.222,6.516-5.501,9.393-10.39,19.307-17.066,27.804-7.165,9.12-2.355,17.823-1.465,26.898 7.462-11.722 14.923-23.444 22.385-35.167 0.596,0.157 1.192,0.313 1.788,0.47-0.381,2.305-0.136,4.981-1.246,6.854-6.958,11.733-14.246,23.27-21.345,34.92-1.016,1.667-2.392,3.658-2.257,5.394 0.97,12.479 2.343,24.926 3.472,37.394 0.531,5.863 5.138,7.866 9.41,7.863 13.103-0.01 26.24-0.584 39.299-1.7 12.776-1.092 25.477-3.082 38.202-4.746 10.527-1.377 21.04-2.853 30.976-4.205 4.011-14.054 12.231-24.66 19.808-35.642 0.781,0.4 1.562,0.799 2.343,1.199-5.584,11.188-11.168,22.376-16.77,33.599 7.602,0 14.866,0 22.131,0-0.828-6.219 9.518-28.253 17.276-36.459z"/>
    <path d="m281.156,204.205c7.775-10.286 10.271-11.33 20.3-8.385 5.591,1.642 8.365,5.36 8.557,11.394 0.317,9.969-4.738,17.943-9.66,25.949-2.218,3.607-4.831,6.985-6.873,10.683-2.306,4.177-6.375,5.487-9.845,3.943-10.723-4.77-22.779-7.306-30.307-17.862-4.381-6.143-5.926-14.107-2.555-20.017 3.279-5.749 11.419-9.444 18.563-8.229 3.94,0.671 7.826,1.661 11.82,2.524z"/>
    <path d="m332.536,123.441c-3.514,0.679-6.999,1.65-10.546,1.992-30.333,2.927-60.615,6.142-91.194,6.012-14.311-0.061-28.636,2.426-42.95,3.802-12.67,1.218-25.32,2.66-38.004,3.701-11.767,0.966-23.563,1.619-35.357,2.194-2.183,0.107-4.416-0.812-6.535-2.44 7.511-1.006 15.009-2.132 22.536-2.994 19.588-2.244 39.153-4.815 58.796-6.426 20.798-1.706 41.692-2.212 62.512-3.69 20.417-1.45 40.787-3.543 61.192-5.18 5.5-0.441 11.052-0.329 16.578-0.28 1.027,0.009 2.047,0.933 3.07,1.434-0.034,0.625-0.066,1.25-0.098,1.875z"/>
    <path d="m329.475,160.682c-4.205,1.28-8.339,3.282-12.628,3.702-11.768,1.152-23.61,1.512-35.406,2.417-21.15,1.623-42.314,3.13-63.422,5.205-29.529,2.903-58.787,8.807-88.639,8.029-6.749-0.176-13.481-0.971-20.221-1.481-0.003-0.474-0.007-0.948-0.01-1.422 3.027-0.435 6.041-1.093 9.083-1.269 14.945-0.861 29.943-1.117 44.836-2.505 14.81-1.381 29.502-3.992 44.277-5.806 12.614-1.548 25.255-2.932 37.916-4.025 18.756-1.619 37.538-2.955 56.314-4.335 7.742-0.569 15.495-0.999 23.25-1.35 1.454-0.066 2.938,0.545 4.409,0.844 0.08,0.665 0.161,1.331 0.241,1.996z"/>
    <path d="m100.253,79.328c5.377-0.868 10.742-1.814 16.133-2.588 13.261-1.905 26.524-3.804 39.806-5.562 9.301-1.232 18.619-3.002 27.955-3.178 22.405-0.422 44.415-3.583 66.405-7.496 9.954-1.771 20.061-3.222 30.144-3.599 15.833-0.592 31.705-0.168 47.56-0.115 1.021,0.003 2.04,0.512 3.06,0.786 0.021,0.545 0.042,1.091 0.063,1.636-4.879,0.406-9.752,0.925-14.639,1.199-15.637,0.875-31.373,0.866-46.896,2.684-18.777,2.199-37.313,6.405-56.073,8.803-12.799,1.636-25.845,1.244-38.702,2.54-10.577,1.066-20.989,3.748-31.564,4.866-13.379,1.414-26.846,2-40.283,2.829-1.044,0.064-2.144-0.77-3.217-1.187 0.082-0.54 0.165-1.079 0.248-1.618z"/>
    <path d="m325.566,91.274c-6.167,1.064-12.295,2.653-18.506,3.099-23.942,1.717-47.951,2.596-71.857,4.687-24.401,2.134-48.741,5.079-73.047,8.145-14.961,1.887-29.775,4.922-44.729,6.879-4.072,0.533-8.411-0.971-12.628-1.54 0.046-0.639 0.092-1.278 0.138-1.917 36.554-5.227 72.981-11.743 109.696-15.319 36.747-3.579 73.78-4.22 110.688-6.148 0.082,0.705 0.163,1.41 0.245,2.114z"/>
    <path d="m135.997,209.721c28.838-9.346 58.852-9.601 88.598-11.953-28.979,8.101-59.071,7.976-88.598,11.953z"/>
    <path d="m153.168,224.56c15.552-2.925 31.208-4.912 47.058-5.148 0.105,0.908 0.21,1.817 0.314,2.725-15.645,1.83-31.29,3.66-46.936,5.49-0.144-1.022-0.29-2.044-0.436-3.067z"/>
    <path d="m263.871,388.796c-0.209,1.976 0.086,4.189-0.714,5.887-3.418,7.262-7.101,14.403-10.854,21.499-0.461,0.872-1.926,1.212-2.926,1.799-0.523-1.083-1.192-2.125-1.508-3.266-0.17-0.613 0.121-1.472 0.452-2.087 4.393-8.146 8.83-16.268 13.257-24.396 0.764,0.188 1.528,0.376 2.293,0.564z"/>
    <path d="m176.889,391.156c-2.128,10.948-7.581,19.027-12.706,28.083-2.081-5.96 5.661-23.09 12.706-28.083z"/>
    <path d="m266.121,409.832c0.877-7.329 6.236-12.114 10.213-17.683 0.648,0.35 1.296,0.701 1.943,1.051-3.155,6.003-6.311,12.005-9.466,18.008-0.896-0.459-1.793-0.918-2.69-1.376z"/>
    <path d="m295.918,395.715c-2.407,4.006-4.815,8.011-7.222,12.017-0.787-0.475-1.574-0.949-2.361-1.424 2.491-3.937 4.983-7.874 7.474-11.811 0.702,0.406 1.405,0.812 2.109,1.218z"/>
  </g>
</svg>
