<?xml version='1.0' encoding='iso-8859-1'?>
<!DOCTYPE svg PUBLIC '-//W3C//DTD SVG 1.1//EN' 'http://www.w3.org/Graphics/SVG/1.1/DTD/svg11.dtd'>
<svg version="1.1" xmlns="http://www.w3.org/2000/svg" viewBox="0 0 450.766 450.766" xmlns:xlink="http://www.w3.org/1999/xlink" enable-background="new 0 0 450.766 450.766">
  <g>
    <path d="m133.212,249.524c-7.704,0.473-13.864,0.585-19.953,1.3-6.107,0.716-10.306-1.843-12.231-7.186-2.354-6.535-3.578-13.467-5.702-20.096-1.779-5.552-3.212-11.563-6.442-16.233-7.71-11.149-12.105-23.48-15.648-36.322-2.628-9.524-5.566-18.963-8.631-29.335-6.491,1.879-12.359,3.634-18.259,5.273-12.286,3.413-21.432,0.793-27.815-9.637-8.132-13.289-13.892-27.655-14.284-43.597-0.256-10.412 1.038-12.58 10.975-16.525 8.207-3.258 16.468-6.632 25.002-8.772 62.554-15.686 123.664-36.047 184.717-56.602 8.373-2.819 16.573-6.155 24.95-8.961 11.56-3.872 23.216-3.776 34.704,0.331 6.865,2.454 12.278,6.654 14.642,13.967 5.204,16.096 10.324,32.221 15.717,48.253 2.268,6.742 1.698,11.386-5.12,15.769-5.559,3.574-9.473,9.707-14.117,14.706 0.417,0.699 0.835,1.398 1.252,2.097 4.941-0.544 9.93-0.821 14.812-1.694 7.812-1.396 9.692-0.958 13.124,6.313 2.176,4.609 3.282,9.726 4.842,14.623 0.949,2.979 1.85,5.974 3.307,10.693 3.433-4.674 5.886-7.783 8.091-11.059 7.198-10.694 14.189-21.531 21.536-32.121 1.708-2.462 4.509-4.165 6.807-6.217 2.064,2.337 4.164,4.643 6.17,7.028 0.635,0.755 1.015,1.724 2.129,3.678 0.494-2.431 0.972-3.729 0.99-5.032 0.217-15.98 6.087-29.463 18.087-40.021 12.44-10.946 24.949-21.829 37.782-32.305 5.999-4.897 9.672-3.026 11.34,4.835 0.304,1.434 0.662,2.94 0.535,4.371-2.089,23.415 0.005,47.096-5.227,70.34-3.992,17.74-11.554,33.29-24.361,46.238-0.763,0.771-1.403,1.675-2.023,2.571-0.185,0.268-0.107,0.718-0.187,1.413 5.478,0 10.947,0 18.627,0-7.292,14.148-13.758,26.479-26.078,33.826-11.946,7.123-21.772,16.049-30.403,26.881-6.598,8.28-14.563,15.471-22.183,23.421 8.911,28.617 17.971,57.71 27.297,87.661 4.564-1.277 9.034-2.536 13.51-3.779 20.371-5.658 34.203,4.797 34.481,25.834 0.041,3.103 0.816,6.392 2.052,9.247 3.774,8.715 1.526,17.004-6.456,21.908-1.878,1.154-3.887,2.112-5.889,3.047-45.08,21.037-90.706,40.783-137.499,57.728-20.066,7.266-40.126,14.601-60.462,21.038-6.771,2.143-14.539,2.833-21.6,2.014-15.777-1.829-25.388-12.045-31.477-26.202-8.064-18.751-13.395-38.258-15.759-58.47-2.217-18.954-7.564-36.511-17.835-52.832-7.229-11.487-13.033-23.909-18.86-36.204-1.09-2.301-0.099-6.482 1.386-8.901 2.27-3.698 5.864-6.567 8.787-9.885 2.108-2.395 4.037-4.945 6.85-8.416zm-49.282-127.433c1.009,14.285-11.075,27.103-1.017,42.467 3.805-8.235 7.246-15.683 10.687-23.131 0.767,0.335 1.535,0.67 2.302,1.005-2.85,7.859-5.406,15.841-8.633,23.542-3.122,7.449-1.797,13.787 3.345,21.171 2.739-6.526 4.994-11.899 7.25-17.272 0.694,0.269 1.387,0.538 2.081,0.807-1.537,5.206-2.709,10.556-4.701,15.582-2.592,6.54-1.13,11.194 5.426,15.045 3.165-7.181 6.172-14.002 9.904-22.47 2.326,14.595-12.185,25.423-3.139,39.018 2.864-6.429 5.542-12.441 8.22-18.454 0.471,14.461-12.512,27.057-3.843,42.726 7.305-0.357 14.255-0.73 21.209-1.024 4.105-0.173 9.177-0.412 10.401,4.025 0.737,2.673-1.541,6.866-3.598,9.484-4.969,6.325-10.605,12.126-16.327,18.537 3.697,6.325 7.198,12.315 11.337,19.397 2.99-6.653 5.202-11.573 7.413-16.493 0.202,6.136-1.169,11.745-3.099,17.155-1.872,5.245-0.486,8.932 3.991,12.117 2.649-6.541 5.11-12.619 7.572-18.697 0.138,5.9-0.921,11.296-2.779,16.401-2.91,7.993-0.604,14.02 5.668,19.426 1.571-3.694 2.924-6.877 4.278-10.06-3.619,13.775 1.105,26.434 3.87,39.281 0.926,4.301 1.265,8.729 1.853,13.101 2.715,20.159 7.627,39.748 15.384,58.575 3.856,9.361 10.241,15.414 20.452,18.434 7.309,2.161 13.735-1.002 16.41-7.081 1.676-3.807 2.435-8.017 3.806-12.738-3.332,0.173-5.109,0.209-6.874,0.366-9.462,0.841-12.952-0.698-16.254-9.253-8.154-21.125-3.41-29.103 13.301-38.189 2.581-1.403 5.312-2.583 8.072-3.596 14.855-5.449 29.653-11.072 44.635-16.15 27.526-9.331 55.194-18.244 82.743-27.509 8.269-2.781 16.34-6.152 25.299-9.555-8.569-29.692-16.871-58.461-25.358-87.87-11.157,4.746-21.175,3.416-31.475-0.419-2.633,2.823-5.629,5.163-7.495,8.197-6.113,9.939-12.156,19.955-17.535,30.299-2.76,5.307-5.449,9.177-12.1,9.552-2.411,0.136-4.834,2.805-6.955,4.658-2.765,2.415-4.963,5.57-7.955,7.594-1.374,0.929-4.056-0.077-7.535-0.291 16.545-22.143 31.896-42.687 47.305-63.309-4.741-11.237-7.769-22.13-5.764-34.455 2.9-17.826 11.515-32.409 22.389-46.109 2.918-3.676 5.975-7.241 8.809-10.665-8.405-9.133-6.519-21.078-12.118-31.071-9.469,0.697-19.082,1.405-30.634,2.255 3.913-6.433 6.837-11.393 9.91-16.259 6.937-10.984 10.791-22.415 5.918-35.397-3.356-8.94-6.879-17.842-9.669-26.963-4.261-13.934-7.365-16.721-21.849-16.483-4.718,0.077-9.628,0.599-14.089,2.039-14.358,4.638-28.459,10.073-42.818,14.709-55.976,18.074-111.408,38.079-169.563,48.565-0.459,0.083-0.751,1.091-0.915,1.346 6.77,6.726 14.877,12.507 19.793,20.3 4.986,7.903 6.821,17.794 10.363,27.729 2.058-4.255 3.53-7.297 5.594-11.563 1.352,10.313-8.755,18.87-0.521,28.952 2.779-7.78 5.201-14.556 7.622-21.331zm354-103.866c-16.298,13.246-31.511,24.372-42.872,39.428-4.002,5.302-6.059,12.48-7.621,19.126-2.772,11.797-4.316,23.876-6.733,35.764-0.871,4.286-2.542,8.468-4.345,12.473-0.601,1.335-3.193,3.06-4.1,2.692-1.713-0.694-3.92-2.689-4.05-4.294-0.382-4.733 0.133-9.541 0.33-14.318 0.202-4.915 0.441-9.829 0.677-15.01-2.005,0.432-3.029,0.348-3.286,0.752-14.242,22.415-30.572,43.232-47.279,63.859-13.017,16.071-18.147,35.187-15.062,56.012 0.332,2.24 1.512,4.354 2.392,6.783 54.355-42.799 89.55-98.672 119.193-158.918-2.769,15.956-9.386,30.474-16.841,44.576-7.391,13.981-14.729,28.088-23.441,41.245-8.904,13.446-18.944,26.236-29.418,38.52-10.399,12.196-21.956,23.404-33.639,35.714 8.418,3.327 15.239,1.651 20.738-2.702 9.761-7.725 19.304-15.862 28.034-24.718 8.851-8.979 17.738-17.708 28.881-23.764 9.634-5.236 16.056-13.303 21.713-22.722-8.56-1.702-16.281,3.858-25.767-0.186 3.844-4.218 6.661-7.939 10.091-10.968 15.844-13.991 25.254-31.49 28.516-52.222 1.712-10.883 3.095-21.865 3.753-32.854 0.631-10.564 0.136-21.194 0.136-34.268zm-142.509,391.964c6.266-0.033 10.458-1.39 12.804-7.7 2.869-7.718 6.751-15.06 10.194-22.564 0.604,0.248 1.209,0.496 1.813,0.744-2.593,7.337-5.185,14.674-8.017,22.687 9.359-1.026 14.759-4.374 16.609-13.016 1.036-4.84 3.846-9.3 5.857-13.931 0.631,0.199 1.263,0.398 1.894,0.597-1.453,6.034-2.906,12.067-4.379,18.184 9.664,0.108 10.218-7.295 13.171-12.474 0.225-0.395 1.005-0.473 2.258-1.014-0.405,2.764-0.737,5.033-1.227,8.378 3.466-1.355 6.942-1.649 8.515-3.533 4.275-5.119 7.743-10.91 12.678-18.107-0.343,5.278-0.562,8.65-0.83,12.771 16.606-7.665 32.62-14.951 48.504-22.513 2.11-1.004 4.885-3.271 5.081-5.186 0.971-9.482 2.142-19.161-2.189-28.24-4.27-8.952-8.155-10.48-17.755-6.716-57.936,22.714-117.1,41.683-177.015,58.396-4.022,1.122-7.848,2.95-13.116,4.967 20.45,16.438 22.102,36.002 13.381,57.552 10.008,0.541 14.136-3.821 15.793-12.402 1.223-6.328 2.833-12.946 8.14-17.854-1.639,7.743-3.278,15.487-5.039,23.807 7.652-0.938 11.855-3.742 12.875-10.799 0.516-3.567 2.25-6.985 3.63-10.391 1.345-3.32 1.487-7.361 6.312-11.295-2.263,9.38-4.021,16.669-5.928,24.574 8.283-1.165 13.693-3.569 15.433-12.112 1.489-7.313 4.812-14.253 7.324-21.358 0.709,0.199 1.417,0.398 2.126,0.597-1.908,8.322-3.816,16.645-5.768,25.157 8.091-0.046 11.216-4.022 13.14-10.375 1.88-6.205 4.988-12.037 7.557-18.033 0.766,0.273 1.532,0.547 2.298,0.82-1.952,6.5-3.905,12.999-6.124,20.382zm-284.092-322.691c-0.22,2.211-0.672,3.699-0.46,5.085 2.247,14.739 7.781,28.322 14.957,41.27 1.033,1.864 2.676,3.81 4.527,4.702 2.838,1.367 6.656,3.228 9.009,2.279 1.897-0.765 2.797-5.315 3.126-8.297 0.345-3.136-0.515-6.405-0.842-9.561-12.998,0.426-15.269-0.97-19.678-11.621-0.422-1.02-0.941-2.013-1.244-3.068-2.252-7.826 0.552-14.183 7.863-18.095 2.685-1.437 5.301-3.005 9.189-5.221-10.26-4.238-17.98-1.014-26.447,2.527zm51.43,46.301c-4.258-15.562-3.021-32.049-17.515-42.838-3.086,1.51-5.941,2.908-9.17,4.488 8.563,13.279 12.741,27.514 15.374,42.791 3.992-1.568 7.01-2.753 11.311-4.441zm148.243,260.641c-1.325-1.707-2.023-3.01-3.085-3.86-1.026-0.822-2.426-1.178-3.556-1.691-6.602,8.821-6.229,15.76 2.626,27.061 0-4.978 0.929-8.412-0.195-10.928-2.276-5.095-0.946-8.29 4.21-10.582zm-173.805-279.487c-0.523-9.791-0.523-9.791-7.457-14.239-2.836,8.312 0.139,13.992 7.457,14.239zm178.874,286.126c-1.044,0.222-2.089,0.444-3.133,0.665 0.932,4.112 1.864,8.223 2.795,12.335 5.004-5.203 3.226-9.191 0.338-13z"/>
    <path d="m222.826,314.9c-0.075-10.343 5.706-14.813 13.701-17.217 6.826-2.053 11.154,0.339 11.696,7.221 1.031,13.092-2.313,25.503-7.197,37.495-1.982,4.866-6.716,6.407-11.061,4.961-11.438-3.806-22.628-8.372-33.842-12.823-1.609-0.638-2.966-2.172-4.167-3.533-5.66-6.417-4.151-14.144 4.071-16.321 6.191-1.639 12.994-1.054 19.531-1.247 1.744-0.051 3.511,0.675 7.268,1.464z"/>
    <path d="m129.342,187.984c41.364-14.944 82.711-29.938 124.126-44.737 3.321-1.186 7.122-1.029 10.503-1.471 0.391,1.058 0.564,1.338 0.584,1.629 0.025,0.35 0.043,0.919-0.148,1.032-2.192,1.298-4.308,2.84-6.665,3.728-41.891,15.773-83.52,32.367-128.4,39.819z"/>
    <path d="m251.564,100.195c-23.365,7.303-46.403,16.029-70.19,21.492-21.744,4.993-41.7,16.4-65.925,18.372 12.979-9.607 123.65-43.532 135.393-42.142 0.241,0.76 0.481,1.519 0.722,2.278z"/>
    <path d="m126.884,157.366c2.544-0.905 5.024-2.116 7.642-2.67 42.574-8.999 82.569-28.144 126.102-33.354 0.294,0.721 0.587,1.443 0.881,2.164-1.896,1.064-3.671,2.55-5.705,3.13-32.821,9.347-65.618,18.786-98.555,27.708-9.704,2.629-19.824,3.721-29.753,5.518-0.205-0.832-0.408-1.664-0.612-2.496z"/>
    <path d="m147.048,209.477c39.505-16.387 78.464-34.291 122.271-44.275-6.992,6.501-111.671,44.215-122.271,44.275z"/>
    <path d="m261.909,198.385c-1.741,1.06-3.355,2.519-5.242,3.12-32.048,10.209-64.13,20.312-96.41,29.839 31.875-16.472 65.35-28.333 100.519-35.328 0.378,0.791 0.755,1.58 1.133,2.369z"/>
    <path d="m255.458,230.751c-29.679,7.298-58.339,17.93-88.379,23.21 10.557-9.251 73.853-26.343 88.379-23.21z"/>
    <path d="m167.109,281.117c22.391-8.833 44.195-19.558 69.683-21.358-6.564,6.529-58.59,22.686-69.683,21.358z"/>
  </g>
</svg>
