<?xml version='1.0' encoding='iso-8859-1'?>
<!DOCTYPE svg PUBLIC '-//W3C//DTD SVG 1.1//EN' 'http://www.w3.org/Graphics/SVG/1.1/DTD/svg11.dtd'>
<svg version="1.1" xmlns="http://www.w3.org/2000/svg" viewBox="0 0 378.69 378.69" xmlns:xlink="http://www.w3.org/1999/xlink" enable-background="new 0 0 378.69 378.69">
  <g>
    <path d="m181.819,43.266c13.153-16.159 30.028-26.464 48.255-34.758 16.845-7.666 34.491-10.634 52.774-6.907 23.034,4.695 37.372,20.33 46.261,40.647 17.709,40.477 10.683,78.757-14.558,113.633-12.037,16.632-26.094,31.958-40.41,46.74-14.306,14.771-21.533,32.178-24.226,51.988-0.283,2.081-0.031,4.515 0.803,6.422 5.532,12.644 5.605,12.612 3.161,24.229 1.74,1.927 3.81,3.987 5.611,6.26 4.094,5.168 5.797,10.804 4.068,17.519-1.879,7.3-5.086,14.618-0.583,22.318 0.866,1.481 0.126,4.559-0.863,6.356-5.459,9.925-11.227,19.681-16.885,29.497-3.046,5.285-7.683,7.316-13.703,7.729-13.19,0.907-26.348,2.278-39.513,3.522-20.656,1.951-34.796-8.87-46.948-23.745-2.228-2.727-5.053-4.98-7.173-7.776-2.104-2.775-4.064-5.8-5.359-9.009-1.358-3.366-1.293-7.342-2.818-10.597-6.261-13.366-3.764-24.999 6.051-34.863-1.727-5.613-4.797-10.823-4.418-15.768 0.345-4.499 4.436-8.71 7.397-12.776 2.56-18.48-9.612-29.38-22.178-39.751-7.654-6.317-16.231-11.501-24.06-17.622-28.488-22.274-45.697-51.531-51.988-86.967-1.311-7.386-0.868-15.557 0.788-22.911 6.365-28.257 20.15-51.56 45.037-68.132 21.404-14.253 67.204-16.992 89.557,9.187 1.625,1.902 3.667,3.448 5.92,5.535zm55.359,215.987c0.549-3.708 0.959-6.215 1.286-8.733 2.639-20.292 10.214-38.308 24.475-53.261 3.56-3.732 7.105-7.48 10.594-11.278 14.458-15.739 29.446-31.165 39.457-50.283 15.323-29.265 18.967-59.733 4.407-90.202-12.959-27.118-29.667-37.19-54.734-33.961-29.975,3.862-55.53,16.479-71.885,43.485-4.648,7.674-9.672,8.387-15.457,1.733-1.929-2.219-3.46-4.779-5.328-7.055-6.101-7.434-12.289-14.992-21.905-17.918-15.548-4.731-31.157-5.276-46.377,1.446-26.579,11.74-39.363,34.361-47.15,60.677-3.078,10.401-3.1,21.045-0.532,31.64 5.232,21.586 15.555,40.76 30.573,56.736 9.984,10.62 22.296,19.092 33.794,28.239 15.846,12.606 30.869,25.573 29.789,48.53-0.028,0.595 0.654,1.224 1.075,1.961 9.713,0 19.483,0 30.08,0-0.899-14.976-2.656-29.241-2.345-43.461 0.288-13.15-6.204-19.595-17.46-23.28-1.398-0.457-2.825-0.908-4.12-1.587-13.039-6.839-26.516-13.131-35.507-25.543-11.539-15.93-10.425-33.319 2.778-45.951 13.304-12.729 32.767-13.988 47.436-2.632 4.621,3.578 8.401,8.235 12.627,12.335 1.687,1.637 3.536,3.104 5.569,4.873 2.083-3.673 3.459-6.726 5.381-9.383 8.505-11.752 19.37-19.042 34.626-17.636 14.733,1.359 27.528,11.644 27.691,23.888 0.265,19.889-6.029,36.932-24.68,47.213-2.58,1.422-5.096,2.98-7.752,4.241-7.174,3.402-11.887,9.143-13.257,16.664-2.166,11.89-3.861,23.928-4.696,35.977-0.548,7.913 0.768,15.956 1.31,24.938 10.451-0.832 19.868-1.584 30.237-2.412zm-39.322,2.525c0.858-17.474 0.892-33.99 2.689-50.313 1.808-16.426 6.614-31.41 24.401-38.699 14.273-5.849 18.115-19.605 20.398-33.224 2.341-13.957-4.049-20.38-19.417-21.877-12.902-1.257-25.715,10.208-27.694,23.532-0.486,3.271-0.196,6.692-0.952,9.881-1.372,5.793-6.719,7.033-10.747,2.577-1.45-1.604-2.176-3.839-3.478-5.605-5.012-6.798-9.632-13.973-15.308-20.176-9.743-10.647-26.041-11.597-36.949-2.387-8.621,7.279-14.305,20.04-3.984,34.586 4.533,6.389 11.118,11.804 17.786,16.08 9.239,5.926 19.403,10.423 29.23,15.415 7.258,3.687 11.152,9.696 11.469,17.598 0.529,13.209 0.594,26.438 0.707,39.66 0.036,4.216-0.399,8.436-0.633,12.952 5.176,0 8.825,0 12.482,0zm-60.544,56.525c19.319-1.302 38.002-2.332 56.641-3.882 18.522-1.541 37.26,1.509 55.01-1.636 0.989-1.76 1.537-2.357 1.676-3.037 2.528-12.377-1.37-17.182-13.74-16.697-6.961,0.273-13.913,1.314-20.861,1.241-19.825-0.208-39.644-0.981-59.469-1.194-12.453-0.135-21.38,11.298-19.257,25.205zm7.783,21.843c33.105-1.22 65.455-2.347 97.798-3.663 5.759-0.234 9.485-3.735 8.526-7.722-1.131-4.698-4.052-7.169-9.49-7.053-33.442,0.711-66.889,1.149-101.196,1.691 1.542,5.921 2.719,10.44 4.362,16.747zm34.454-68.779c-0.043-0.288-0.087-0.577-0.13-0.865-10.287,0-20.588-0.292-30.856,0.145-4.1,0.174-8.047,2.173-7.958,7.433 0.065,3.845 4.518,7.66 9.175,8.01 1.448,0.109 2.929-0.353 4.396-0.353 18.36,0 36.719,0.056 55.079,0.054 8.82-0.001 17.647,0.115 26.456-0.212 6.343-0.236 10.821-5.941 10.651-12.787-0.103-4.146-4.428-6.832-10.94-6.664-1.831,0.047-3.648,0.463-5.479,0.632-16.798,1.545-33.596,3.074-50.394,4.607zm-23.289,78.697c-0.245,0.886-0.49,1.772-0.734,2.658 11.096,8.467 21.521,17.888 37.787,15.073 9.69-1.677 19.654-2.02 29.517-2.388 12.424-0.463 16.514-3.662 20.109-17.683-29.036,0.784-57.858,1.562-86.679,2.34z"/>
    <path d="m308.313,90.424c-1.365,17.482-8.714,29.225-22.537,34.481-10.755,4.089-17.018,0.719-19.289-10.378-0.295-1.442-0.982-2.925-0.831-4.318 1.511-13.935-5.559-24.131-15.01-32.793-5.5-5.041-6.655-11.33-7.257-17.796-0.267-2.868 1.274-6.559 3.2-8.87 11.639-13.957 33.446-12.572 43.575,2.609 4.28,6.414 8.736,12.794 12.18,19.657 2.727,5.433 4.032,11.579 5.969,17.408zm-5.635-1.098c-0.082-0.743-0.014-2.278-0.44-3.661-3.93-12.761-9.907-24.605-18.643-34.61-6.167-7.064-17.855-7.802-26.683-3.292-10.662,5.447-13.341,15.699-4.952,24.437 11.369,11.842 19.82,24.171 19.416,41.597-0.177,7.642 4.95,9.745 12.431,6.996 12.054-4.431 19.054-15.828 18.871-31.467z"/>
  </g>
</svg>
