<?xml version="1.0" encoding="iso-8859-1"?>
<!-- Generator: Adobe Illustrator 16.0.0, SVG Export Plug-In . SVG Version: 6.00 Build 0)  -->
<!DOCTYPE svg PUBLIC "-//W3C//DTD SVG 1.1//EN" "http://www.w3.org/Graphics/SVG/1.1/DTD/svg11.dtd">
<svg version="1.1" id="Capa_1" xmlns="http://www.w3.org/2000/svg" xmlns:xlink="http://www.w3.org/1999/xlink" x="0px" y="0px"
	 width="192.579px" height="192.579px" viewBox="0 0 192.579 192.579" style="enable-background:new 0 0 192.579 192.579;"
	 xml:space="preserve">
<g>
	<g>
		<path d="M191.97,129.836c-0.437-1.728-2.103-2.923-3.854-2.935c-3.604-0.021-7.507-0.094-11.094,0.775
			c0.644-7.097,0.605-14.309,1.2-21.357c1.347-15.941,7.311-41.49-0.075-56.544c1.011-0.021,2.021-0.019,3.031-0.048
			c2.802-0.083,3.836-2.851,3.112-4.86c0.845-0.04,1.64-0.434,2.096-1.338c2.179-4.315,0.191-10.683-0.054-15.295
			c-0.142-2.678-2.283-3.971-4.768-3.632c-29.051,3.957-57.881-3.567-86.863-0.886c-0.57-0.32-1.387-0.341-1.932,0.021
			c-0.078,0.053-0.118,0.136-0.189,0.192c-2.666,0.294-5.332,0.646-8.001,1.137c-1.377,0.254-2.468,1.81-2.411,3.167
			c0.312,7.41,1.16,14.141,2.749,21.341c0.483,2.188,4.058,1.719,3.917-0.53c-0.024-0.227-0.02-0.453-0.043-0.679
			c2.441-0.064,4.88-0.087,7.319-0.108c-3.718,12.737-4.172,25.767-4.111,38.938c-10.211-1.134-20.919-0.963-31.561-0.401
			c1.083-1.72,1.102-4.142,1.263-6.042c0.347-4.106,0.57-8.209,0.669-12.329c0.027-1.111,0.105-2.284,0.17-3.464
			c3.429-0.171,6.717-0.818,8.323-2.757c0.352-0.427,0.539-0.891,0.649-1.357c3.436-5.491,1.655-15.299,0.44-20.99
			c-0.275-1.29-1.786-2.553-3.146-2.395c-8.042,0.933-16.111,1.215-24.19,1.325c-1.813-1.296-3.859-3.082-4.141-5.439
			c-0.342-2.856,6.283-1.899,7.521-1.792c2.33,0.202,3.533-2.256,3.199-4.199c-0.326-1.35-0.466-2.714-0.465-4.09
			c0.162-0.05,0.428-0.119,0.864-0.196c1.498-0.265,2.897-0.904,4.092-1.832c1.846-1.433,3.593-3.153,5.239-4.825
			c1.854-1.885,3.817-1.293,6.493-1.292c1.229,0.001,2.441-0.67,3.049-1.749c2.373-4.212,3.976-1.556,6.915,0.74
			c3.586,2.802,8.673-2.236,5.045-5.045c-6.595-5.104-11.985-8.273-16.965-1.019c-2.442-0.016-4.905,0.057-7.101,1.201
			c-3.006,1.567-4.545,5.779-7.798,6.906c-5.492,1.904-6.919,4.308-6.465,8.865c-4.221,0.399-8.373,1.948-9.347,6.597
			c-0.595,2.84,0.714,5.295,2.668,7.24c-1.561,0.007-3.123,0.018-4.684,0.023c-1.055,0.003-2.322,0.594-2.789,1.6
			c-3.711,7.994-7.29,19.705,3.55,23.329c0.376,0.125,0.713,0.147,1.024,0.112c0.934,1.126,2.209,1.37,3.558,1.369
			c0.02,4.31,0.235,8.63,0.524,12.922c0.236,3.502,0.532,7.018,2.369,9.878c-2.305,0.176-4.591,0.35-6.847,0.51
			c-2.525,0.18-2.626,3.529-0.363,4.042c-6.553,3.247-10.145,14.206-10.678,20.227c-0.511,5.767,1.16,17.316,6.777,21.88
			c-0.118,0.018-0.237,0.025-0.355,0.044c-1.243,0.194-1.53,1.769-0.927,2.686c-0.107-0.048-0.185-0.117-0.31-0.151
			c-0.542-0.152-1.238,0.084-1.498,0.609c-0.012,0.024-0.012,0.05-0.024,0.074c-0.2-0.02-0.376-0.099-0.616-0.004
			c-1.297,0.515-2.203,1.434-3.083,2.49c-2.774,3.33-5.357,6.814-7.986,10.26c-5.073,6.646-11.208,13.591-14.638,21.293
			c-0.999,2.243-0.225,4.589,2.202,5.411c11.995,4.062,24.63,3.037,37.05,4.359c2.037,0.218,3.75-1.869,3.75-3.751
			c0-2.532,0.024-5.071,0.046-7.61c0.584,0.021,1.169,0.044,1.752,0.065c1.306,0.049,2.62,0.218,3.917,0.202
			c1.961,8.475,7.871,15.71,17.402,17.635c12.161,2.457,24.303-6.125,30.099-16.357c2.446,0.234,5.034,0.122,7.37,0.216
			c2.785,0.112,7.056,1.107,9.734,0.097c2.53-0.954,2.53-4.186,0-5.14c-2.679-1.01-6.949-0.016-9.734,0.096
			c-1.679,0.068-3.488,0.03-5.282,0.087c0.399-1.273,0.668-2.571,0.845-3.879c3.132,0.173,6.264,0.25,9.397,0.331
			c2.126,0.056,4.225,0.212,6.281-0.077c-0.423,13.728,9.277,23.519,23.745,23.64c10.518,0.088,19.37-4.77,24.546-12.49
			c3.611,0.674,7.257,1.127,10.92,1.438c3.003,0.256,7.354,1.511,9.789-0.731c0.926-0.853,0.925-2.511,0-3.363
			c-0.144-0.133-0.335-0.159-0.49-0.268c0.015-0.041,0.056-0.054,0.067-0.096c0.937-3.318,0.442-7.012,0.403-10.44
			c-0.02-1.665-1.373-3.046-3.05-3.05c-4.111-0.01-8.491-0.194-12.764,0.062c0.001-0.221,0.03-0.433,0.027-0.656
			c-0.057-3.722-1.312-7.7-3.366-11.338c7.07,1.598,14.425,2.171,21.653,2.227c1.795,0.014,3.213-1.211,3.755-2.859
			C192.198,140.602,193.341,135.252,191.97,129.836z M36.163,59.978c-0.089,0.026-0.162,0.109-0.25,0.146
			c-0.156-0.235-0.353-0.45-0.6-0.63c-4.763-3.464-2.62-9.6-0.538-14.155c0.719,0.001,1.439-0.006,2.158-0.006
			c0.092,1.678,0.492,3.322,0.761,5.044c0.47,3.008,0.921,5.984,1.619,8.939C38.254,59.514,37.18,59.685,36.163,59.978z
			 M8.995,171.578c2.068-3.696,4.57-7.257,7.135-10.738c-0.86,4.251-0.225,8.783,2.344,12.124
			C15.29,172.676,12.12,172.295,8.995,171.578z M24.543,173.37c-1.289-0.068-2.581-0.122-3.866-0.215
			c-4.061-5.913-1.474-12.256,0.807-18.332c0.137-0.365,0.016-0.694-0.185-0.982c0.504-0.69,1.03-1.386,1.516-2.072
			c0.358-0.505,2.036-2.641,3.646-5.107C23.052,154.405,23.737,165.44,24.543,173.37z M168.015,163.167
			c3.352,0.179,6.675,0.714,10.024,1.049c-0.096,2.295-0.124,4.617,0.342,6.815c-0.932,0.08-1.852,0.174-2.699,0.202
			c-3.299,0.112-6.633-0.038-9.939-0.344C166.833,168.498,167.581,165.898,168.015,163.167z M173.403,35.737
			c0.227-1.145,0.486-2.242,0.613-3.329c3.12-0.994,4.899-1.872,5.317,2.309c0.226,2.259,0.291,5.822,1.676,8.097
			c-3.103,0.093-6.213,0.111-9.326,0.091C172.375,40.547,172.925,38.144,173.403,35.737z M163.962,33.414
			c1.374,0,2.747-0.008,4.122-0.036c-0.029,0.312-0.056,0.617-0.091,0.941c-0.304,2.831-0.657,5.701-1.235,8.505
			c-1.713-0.033-3.425-0.051-5.139-0.099C162.703,39.728,163.541,36.564,163.962,33.414z M154.545,33.152
			c0.132,0.01,0.264,0.024,0.396,0.033c1.333,0.077,2.668,0.1,4.002,0.143c-0.271,3.113-0.681,6.2-1.284,9.28
			c-1.628-0.055-3.253-0.081-4.882-0.144C153.78,39.433,154.417,36.234,154.545,33.152z M144.072,37.671
			c0.3-1.572,0.859-3.548,0.793-5.327c1.472,0.14,2.942,0.241,4.414,0.368c-0.306,3.229-0.737,6.396-1.267,9.562
			c-1.549-0.062-3.098-0.124-4.647-0.185C143.588,40.619,143.791,39.142,144.072,37.671z M132.94,37.419
			c0.55-1.942,1.699-4.051,1.493-6.122c1.758,0.179,3.513,0.352,5.27,0.53c-0.349,1.681-0.179,3.667-0.318,5.209
			c-0.146,1.614-0.31,3.26-0.392,4.902c-2.364-0.086-4.729-0.183-7.091-0.244C132.187,40.259,132.539,38.834,132.94,37.419z
			 M124.498,39.05c0.541-2.819,1.251-5.874,0.603-8.662c1.698,0.14,3.396,0.334,5.093,0.496c-0.899,1.479-1.004,3.554-1.216,5.176
			c-0.236,1.829-0.399,3.691-0.493,5.558c-1.514-0.028-3.029-0.098-4.54-0.105C124.125,40.69,124.337,39.881,124.498,39.05z
			 M106.632,29.475c2.893,0.051,5.317,0.206,6.446,0.231c2.543,0.056,5.085,0.229,7.628,0.394c-0.678,2.194-0.486,4.511-0.648,6.894
			c-0.103,1.511-0.303,3.02-0.503,4.526c-2.182,0.02-4.363,0.04-6.542,0.117c0.172-0.77,0.324-1.546,0.512-2.309
			c0.562-2.302,1.695-4.532,1.649-6.931c-0.034-1.821-2.082-2.482-3.373-1.396c-1.964,1.651-2.101,4.476-2.389,6.856
			c-0.16,1.323-0.225,2.639-0.3,3.954c-0.876,0.047-1.755,0.059-2.63,0.118c0.162-1.782,0.235-3.58,0.376-5.301
			C107.034,34.484,107.224,31.766,106.632,29.475z M88.526,44.11c-0.133-2.976-0.165-5.955,0.023-8.938
			c0.037-1.73,1.217-2.94,3.014-3.798c0.178,1.012,0.37,1.949,0.476,2.676c0.3,2.058,0.628,4.105,1.116,6.128
			c0.238,0.987,1.119,1.387,1.34,2.115c0.234,0.775,1.309,0.587,1.365-0.186c0.046-0.637,0.823-1.023,0.848-1.89
			c0.058-2.012,0.004-4.006-0.055-6.018c-0.031-1.058,0.074-2.624,0.064-4.241c1.359-0.202,2.797-0.321,4.238-0.397
			c-0.114,2.321,0.317,4.76,0.268,7.065c-0.027,1.334-0.139,2.697-0.223,4.061c-0.266-0.28-0.506-0.599-0.794-0.848
			c-1.014-0.877-2.787,0.27-1.954,1.508c0.26,0.385,0.464,0.81,0.7,1.21C95.468,42.959,91.99,43.442,88.526,44.11z M56.304,57.37
			c0.318-2.919,0.869-5.762,1.781-8.555c0.472-1.445,1.341-2.761,2.008-4.135c0.982-0.062,1.961-0.151,2.942-0.223
			c-0.841,4.02,0.152,9.255,1.637,12.318c0.344,0.71,0.919,0.822,1.468,0.699c-0.001,0.058-0.004,0.113-0.005,0.17
			c-1.407,0.208-2.853,0.365-4.357,0.455c-1.303-1.708-4.341-1.648-5.509,0.191c-0.141,0.001-0.285,0.008-0.426,0.009
			C56.076,58.081,56.26,57.781,56.304,57.37z M55.744,72.331c-0.007,2.807,0.089,5.612,0.065,8.421
			c-0.009,0.943-0.068,1.888-0.131,2.829c-0.019,0.282-0.042,0.444-0.065,0.639c-0.189,0.431-0.297,0.927-0.2,1.53
			c0.075,0.465,0.261,0.886,0.503,1.261c-4.096,0.258-8.17,0.562-12.188,0.87c0.01-0.126,0.079-0.22,0.059-0.358
			c0.112,0.787,0.266-2.248,0.267-2.802c0.004-2.166-0.062-4.342-0.096-6.509c-0.069-4.389,0.105-8.778,0.104-13.165
			c3.108-0.072,6.217-0.132,9.324-0.183c0.601-0.01,1.323,0.008,2.103,0.032C55.54,67.419,55.75,69.977,55.744,72.331z
			 M49.107,57.676c0.363-2.621,0.886-5.233,1.43-7.822c0.245-1.164,0.65-2.363,0.738-3.553c0.03-0.406-0.033-0.797-0.12-1.188
			c1.139-0.035,2.276-0.1,3.414-0.146c-1.407,3.998-1.254,9.456-1.009,12.403c0.036,0.434,0.213,0.75,0.451,0.97
			c-1.969,0.029-3.941,0.052-5.923,0.127C48.563,58.507,49.019,58.31,49.107,57.676z M40.519,45.324
			c2.203-0.013,4.403-0.089,6.605-0.132c-0.303,0.972-0.338,2.101-0.38,3.018c-0.14,3.047-0.255,6.125,0.099,9.16
			c0.067,0.577,0.575,0.996,1.093,1.106c-1.86,0.073-3.722,0.151-5.536,0.356c-0.53-2.959-0.85-5.944-1.176-8.935
			C41.055,48.355,40.924,46.793,40.519,45.324z M35.894,173.997c-2.96-0.211-5.925-0.35-8.887-0.49
			c0.408-4.365,0.638-8.738,0.971-13.111c0.441-5.787,2.467-11.006,3.304-16.645c0.179-1.204-1.294-2.5-2.293-1.335
			c-0.179,0.209-0.292,0.479-0.46,0.698c1.068-2.181,1.598-4.188,0.671-5.205c0.112,0.055,0.168,0.175,0.301,0.198
			c2.074,0.383,4.276,0.781,6.563,1.179C35.52,150.816,35.822,162.436,35.894,173.997z M48.473,166.008
			c-0.781,0.039-1.568,0.118-2.384,0.149c-0.863,0.031-1.726,0.064-2.588,0.098c0.028-2.761,0.035-5.524,0.048-8.287
			c0.789,0.028,1.577,0.057,2.366,0.086c1.027,0.037,2.108,0.168,3.181,0.225C48.552,160.833,48.326,163.438,48.473,166.008z
			 M50.547,153.491c-1.182-0.036-2.387,0.115-3.592,0.159c-1.128,0.041-2.255,0.082-3.383,0.122
			c-0.009-4.44-0.074-8.878-0.261-13.304c4.498,0.691,9.213,1.324,14.026,1.784C54.358,145.439,52.188,149.409,50.547,153.491z
			 M70.53,180.783c-10.826,0.233-15.653-11.557-13.768-20.65c0.471-2.272,1.477-5.041,2.879-7.743
			c-1.602,8.799,0.853,20.115,4.085,26.215c0.573,1.081,2.248,0.329,1.94-0.817c-3.103-11.537-2.062-21.22,0.476-32.602
			c0.077-0.347,0.02-0.676-0.105-0.968c0.612-0.479,1.239-0.921,1.896-1.278c2.572,0.084,5.098-0.018,7.631-0.091
			c-2.591,4.067-2.148,10.375-2.419,14.973c-0.449,7.614-0.628,15.324-2.643,22.725C70.478,180.642,70.536,180.695,70.53,180.783z
			 M82.558,158.313c-0.577,6.272-0.744,12.589-1.148,18.877c-2.617,1.69-5.526,2.883-8.546,3.344
			c2.301-5.91,3.153-12.077,3.825-18.362c0.647-6.054,2.299-12.755,2.069-18.786c-0.009-0.235-0.13-0.387-0.209-0.572
			c0.17-0.01,0.346,0.004,0.515-0.006c0.128,0.622,0.435,1.228,1.079,1.728c1.37,1.062,2.749,1.99,4.101,2.925
			C82.94,150.787,82.862,155.012,82.558,158.313z M90.836,166.149c-1.375,3.254-3.617,6.236-6.354,8.67
			c0.637-4.253,1.073-8.538,1.544-12.812c0.421-3.822,1.403-7.667,2.046-11.487c1.062,1.021,2.056,2.142,2.854,3.57
			C92.961,157.737,92.398,162.455,90.836,166.149z M65.436,134.655c-9.553-0.215-19.243-1.162-28.81-0.59
			c-0.012-0.042,0.008-0.086-0.009-0.128c-2.449-6.391-5.974-10.582-6.312-17.953c-0.18-3.939,0.63-7.87,2.391-11.389
			c2.077-4.15,6.174-4.638,8.966-7.776c0.937-1.053,0.938-2.463,0.268-3.504c16.445,1.26,33.922,2.621,50.123,0.814
			c0.084,12.398-0.493,26.111,1.858,38.305C84.499,133.951,75.315,134.878,65.436,134.655z M115.733,159.168
			c-2.211-0.396-4.473-0.196-6.766-0.138c-3.078,0.08-6.152,0.158-9.227,0.325c-0.188-4.832-1.915-9.478-4.824-13.257
			c4.264,0.525,9.808-0.688,13.594-0.861c4.597-0.21,9.214-0.435,13.824-0.52C118.976,148.796,116.674,154.086,115.733,159.168z
			 M122.525,161.884c0.206-2.786,1.03-5.915,2.384-8.835c-0.98,6.83-0.895,14.234,0.496,20.891
			C123.236,170.902,122.157,166.862,122.525,161.884z M128.732,177.187c-0.813-4.761-0.964-9.479-0.618-14.38
			c0.397-5.66,2.022-11.356,2.013-17.022c1.702-1.513,3.679-2.542,5.845-3.019c-0.001,0.004-0.003,0.006-0.004,0.01
			c-1.79,11.618-2.651,23.312-4.721,34.912c-0.066,0.371,0.046,0.664,0.182,0.934C130.463,178.219,129.556,177.749,128.732,177.187z
			 M143.345,142.898c-1.504,4.591-0.495,10.278-0.474,15.037c0.032,7.179-0.218,14.345-0.356,21.521
			c-0.002,0.104,0.076,0.157,0.098,0.25c-0.558,0.08-1.092,0.211-1.664,0.253c-2.837,0.208-5.348-0.076-7.586-0.706
			c0.271-0.161,0.515-0.399,0.638-0.805c3.391-11.224,5.359-23.397,6.46-35.063c0.027-0.283-0.021-0.532-0.095-0.765
			c0.01,0.002,0.019,0,0.029,0.002c0.548,0.099,1.005-0.006,1.396-0.198c0.646,0.012,1.276-0.003,1.911-0.012
			C143.579,142.575,143.416,142.682,143.345,142.898z M146.874,142.898c-0.067-0.206-0.224-0.306-0.336-0.464
			c1.543,0.029,3.076,0.188,4.621,0.623c-1.757,11.645,0.087,23.321-2.521,34.924c-1.169,0.521-2.376,0.981-3.657,1.304
			c1.471-6.321,1.696-12.975,2.018-19.427C147.26,154.601,148.542,147.997,146.874,142.898z M160.61,162.948
			c-1.043,5.797-4.473,10.59-9.298,13.612c3.335-9.762,3.742-20.741,4.32-30.992c3.057,2.697,4.746,6.939,5.237,10.836
			c0.138,1.096,0.093,2.14,0.075,3.19C159.387,160.234,159.51,162.08,160.61,162.948z M172.85,78.7
			c-0.483,10.655-2.032,21.324-2.282,31.976c-0.111,4.73-2.435,15.052-2.028,22.15c-12.84-0.129-25.683-0.755-38.517-1.13
			c-7.37-0.216-14.73-0.4-22.104-0.318c-1.102,0.012-1.929,0.098-2.644,0.22c-0.656-0.567-1.536-0.906-2.556-0.712
			c-1.167,0.221-2.297,0.399-3.449,0.607c1.491-10.864-0.465-22.753-0.839-33.574c-0.573-16.602-0.073-33.146,1.084-49.711
			c0.983-0.002,1.966,0.039,2.948,0.043c0.543,0.267,1.149,0.228,1.723,0.024c1.652,0.014,3.304,0.074,4.956,0.101
			c0.018,0.224,0,0.444,0.021,0.669c0.151,1.64,2.338,1.607,2.524,0c0.023-0.206,0.07-0.41,0.097-0.616
			c2.231,0.044,4.463,0.122,6.694,0.182c-0.338,2.142,2.623,3.024,3.315,0.892c0.086-0.265,0.149-0.53,0.232-0.794
			c17.038,0.505,34.062,1.292,51.107,1.147C171.871,59.191,173.281,69.208,172.85,78.7z"/>
		<path d="M164.457,64.95c-0.515-1.926-3.282-2.859-4.678-1.235c-0.285,0.332-0.518,0.705-0.739,1.086
			c0.152-0.928-0.067-1.927-0.761-2.564c-3.791-3.479-13.656-1.466-18.426-1.45c-7.488,0.023-15.151-0.288-22.605,0.569
			c-1.838-0.748-4.29,0.084-4.674,2.95c-1.48,11.038-2.686,23.203,1.427,33.841c0.584,1.512,2.798,1.823,3.675,0.791
			c-0.103,1.03-0.354,1.348,0.975,1.811c0.044,0.016,0.053-0.045,0.093-0.045c0.264,0.354,0.618,0.713,1.006,0.819
			c1.477,0.406,3.351,0.016,4.847-0.085c4.872-0.325,9.771-0.383,14.649-0.561c3.719-0.135,16.582,1.296,20.169-2.386
			c1.515,0.483,3.628-0.386,3.445-2.276c-0.57-5.911-0.315-11.816,0.211-17.72C163.434,74.393,165.537,68.983,164.457,64.95z
			 M157.525,93.209c-3.841-0.89-10.317,0.376-12.091,0.483c-8.372,0.514-17.554,0.147-25.687,2.419
			c-0.932,0.262-1.439,0.972-1.743,1.796c0.002-0.105,0.034-0.189,0.02-0.306c-1.289-10.076-0.418-20.179,0.951-30.206
			c6.909,0.634,13.964,0.408,20.876,0.431c4.771,0.015,14.636,2.028,18.427-1.451c0.031-0.029,0.042-0.075,0.072-0.107
			c-1.179,3.213-0.991,7.344-1.177,10.46C156.846,82.22,156.937,87.742,157.525,93.209z"/>
	</g>
</g>
<g>
</g>
<g>
</g>
<g>
</g>
<g>
</g>
<g>
</g>
<g>
</g>
<g>
</g>
<g>
</g>
<g>
</g>
<g>
</g>
<g>
</g>
<g>
</g>
<g>
</g>
<g>
</g>
<g>
</g>
</svg>
