<?xml version='1.0' encoding='iso-8859-1'?>
<!DOCTYPE svg PUBLIC '-//W3C//DTD SVG 1.1//EN' 'http://www.w3.org/Graphics/SVG/1.1/DTD/svg11.dtd'>
<svg version="1.1" xmlns="http://www.w3.org/2000/svg" viewBox="0 0 458.223 458.223" xmlns:xlink="http://www.w3.org/1999/xlink" enable-background="new 0 0 458.223 458.223">
  <g>
    <path d="m338.336,296.494c21.905,44.499 44.02,89.414 66.116,134.339 0.975,1.982 1.814,4.032 2.652,6.077 0.558,1.362 1.365,2.751 1.439,4.161 0.51,9.792-8.676,10.764-14.129,14.964-4.332,3.337-9.18,2.914-12.706-1.648-2.224-2.878-4.375-6.066-5.546-9.464-16.366-47.515-46.339-87.81-69.499-131.999-1.523-0.175-2.981-0.631-4.361-0.461-56.655,6.988-111.576-0.103-164.933-20.129-19.932-7.481-37.429-18.923-53.463-32.734-17.431-15.015-27.709-33.945-31.806-56.617-8.714-48.226 5.736-89.161 46.071-118.253 21.508-15.512 45.255-18.778 70.463-14.763 11.227,1.788 22.216,5.156 33.245,8.061 8.067,2.124 9.771,1.597 13.967-6.192 4.018-7.459 7.738-15.081 11.868-22.476 11.78-21.094 29.185-35.965 51.526-44.771 19.908-7.847 38.931-5.704 56.483,7.002 12.851,9.303 22.403,20.975 28.047,36.054 7.943,21.219 13.003,42.666 13.019,65.635 0.037,53.15-7.209,104.984-25.084,155.106-3.418,9.588-8.74,18.499-13.369,28.108zm-249.747-48.249c3.475,6.3 8.922,10.192 15.648,13.587 2.926-7.866 5.74-14.968 8.146-22.206 0.64-1.924 0.927-5.123-0.164-6.263-4.705-4.919-9.982-9.29-15.05-13.861 0.038-8.973-5.85-15.577-8.854-25.68-4.204,10.765-7.052,19.427-10.927,27.603-4.076,8.6-2.341,15.434 4.364,21.487 2.139,1.931 4.55,3.564 6.837,5.333zm-16.685-22.712c4.409-10.761 8.965-21.08 12.825-31.653 1.85-5.066 3.215-10.588 3.38-15.947 1.47-47.582 40.621-81.788 88.04-76.282 14.512,1.686 29.426,2.073 42.535,10.065 1.792,1.092 4.22,1.157 6.366,1.646 5.379,1.224 9.419-0.575 11.904-5.52 3.799-7.559 7.197-15.339 11.347-22.696 5.402-9.579 10.502-19.525 17.271-28.098 17.404-22.044 61.14-20.433 73.282,12.977 1.996,5.492 3.57,11.254 4.419,17.027 4.069,27.649 1.855,54.9-3.84,82.274-6.094,29.29-13.335,58.051-25.375,85.531-3.98,9.083-8.625,17.801-18.218,21.085-7.79,2.667-16.43,3.926-24.687,3.899-12.368-0.041-24.732-1.755-37.565-2.796-2.492,6.215-4.847,12.088-7.201,17.961-0.641-0.237-1.282-0.474-1.923-0.711 1.87-6.041 3.74-12.083 5.821-18.806-5.819-1.055-10.668-1.934-16.173-2.931-2.701,9.891-5.049,18.49-7.842,28.717 14.297-1.061 26.602,3.268 38.376-0.435 1.9,0.959 3.895,2.799 5.956,2.876 19.171,0.718 38.355,1.035 56.976-4.787 12.586-3.935 22.115-11.54 27.502-23.798 2.071-4.714 4.105-9.472 5.719-14.354 15.256-46.159 22.522-93.511 22.948-142.18 0.204-23.304-3.509-45.345-11.828-66.94-4.651-12.073-12.003-21.704-22.024-29.792-14.327-11.564-30.196-13.368-46.742-7.21-19.205,7.148-34.483,19.678-44.721,37.713-5.089,8.965-9.664,18.219-14.57,27.29-5.224,9.66-5.987,9.978-16.447,7.837-10.454-2.14-20.865-4.517-31.367-6.389-12.315-2.195-24.847-4.849-37.248-2.03-38.707,8.796-62.818,33.437-74.413,70.81-1.841,5.935-3.965,12.244-1.461,20.204 6.132-10.266 11.529-19.301 16.925-28.336-4.259,11.528-10.126,22.065-15.761,32.725-4.097,7.751-3.526,15.601-0.186,24.926 3.088-4.879 5.315-8.399 7.542-11.919-5.812,12.65-10.7,25.003 0.458,38.047zm166.295,42.26c3.724,0.801 6.917,1.899 10.167,2.108 8.822,0.565 17.667,1.022 26.504,1.036 16.901,0.026 23.273-5.037 30.142-20.572 11.685-26.428 18.983-54.015 24.863-82.225 5.313-25.491 7.535-50.887 4.409-76.737-1.164-9.623-3.524-18.794-9.329-26.796-10.568-14.565-32.906-17.61-46.994-6.346-8.552,6.837-14.266,15.79-18.842,25.571-3.899,8.334-7.325,16.933-11.811,24.938-7.823,13.959-15.054,16.444-30.312,11.495-2.086-0.677-4.1-1.614-6.085-2.562-25.512-12.185-50.73-11.508-76.799-0.609-32.942,13.772-54.194,64.971-25.118,102.595 2.685,3.475 8.183,5.103 9.442,7.497 3.561,6.773 9.713,8.324 15.065,11.686 1.687-1.998 3.087-3.656 5.104-6.045 0,3.51 0,5.681 0,8.508 5.415,2.305 11.045,4.701 16.807,7.154 1.985-4.127 3.514-7.306 5.042-10.485 0.376,0.172 0.753,0.344 1.129,0.515-0.628,3.506-1.256,7.012-1.998,11.153 17.715,6.59 35.651,10.368 53.643,13.854 1.869-4.461 3.252-7.761 4.634-11.061 0.413,0.14 0.825,0.279 1.238,0.419-0.481,3.506-0.961,7.012-1.626,11.859 5.736,0.774 11.047,1.491 16.173,2.182 1.645-2.137 2.933-3.81 4.55-5.912 0.002,2.266 0.002,4.032 0.002,6.78zm75.322,42.552c9.644,15.888 18.938,30.856 27.882,46.03 8.79,14.913 17.877,29.709 25.635,45.157 7.844,15.62 14.217,31.979 21.525,48.677 3.19-1.681 5.152-2.59 6.983-3.715 1.805-1.108 3.476-2.433 5.774-4.067-20.558-48.926-46.743-94.348-71.145-140.594-6.05,3.093-10.623,5.43-16.654,8.512zm-177.593-62.215c-2.797,10.254-5.276,19.345-7.949,29.145 17.392,7.923 34.68,13.16 52.735,17.681 2.803-9.841 5.286-18.559 7.899-27.733-10.523-3.361-20.389-6.513-31.208-9.968-2.104,7.124-4.17,14.12-6.237,21.115-0.604-0.162-1.208-0.324-1.812-0.485 1.275-7.39 2.551-14.779 3.881-22.489-5.756-2.416-10.781-4.526-17.309-7.266zm-20.059-11.325c-3.17,10.061-5.975,18.967-8.942,28.382 6.528,3.723 12.083,6.893 18.135,10.345 2.835-10.265 5.331-19.304 7.88-28.535-5.53-3.301-10.482-6.257-17.073-10.192zm75.523,30.77c-2.794,10.145-5.188,18.84-7.762,28.187 7.109,1.385 13.092,2.55 19.226,3.745 2.494-9.532 4.765-18.21 7.211-27.557-6.277-1.471-11.869-2.78-18.675-4.375z"/>
    <path d="m321.679,116.313c-2.609,32.132-6.565,60.805-13.582,89.096-4.92,19.839-14.164,34.687-46.263,38.172-18.03,1.957-35.964-1.157-53.67-4.388-20.272-3.7-40.332-8.333-58.614-18.564-14.358-8.035-26.111-18.209-28.796-35.455-2.334-14.996-1.977-29.739 10.945-40.543 13.96-11.672 29.418-17.916 47.917-11.302 17.274,6.176 34.82,11.286 53.02,14.241 5.802,0.942 10.316,0.195 14.002-3.823 4.688-5.11 9.381-10.363 13.103-16.175 4.948-7.725 8.909-16.077 13.391-24.106 4.041-7.238 9.593-12.955 17.076-16.755 11.932-6.06 24.532-1.648 28.529,11.012 2.17,6.871 2.323,14.379 2.942,18.59zm-73.637,119.095c2.946,0 5.895,0.093 8.837-0.015 27.295-1.002 38.014-13.258 43.092-33.098 6.134-23.964 9.816-48.238 12.098-72.764 0.747-8.027 0.837-16.253-0.007-24.257-1.347-12.763-10.434-16.924-20.984-9.956-3.278,2.165-6.367,5.107-8.535,8.364-4.677,7.03-8.539,14.596-13.039,21.751-4.288,6.819-8.596,13.68-13.552,20.008-7.318,9.346-17.101,11.569-28.665,9.36-17.714-3.384-35.008-8.073-51.815-14.55-16.478-6.35-39.287,3.336-45.941,19.651-6.773,16.607-0.914,38.245 14.214,48.229 8.516,5.621 17.866,10.492 27.49,13.82 24.801,8.576 50.581,12.529 76.807,13.457z"/>
    <path d="m97.549,219.265c-3.045,9.777-6.089,19.554-9.134,29.331 0.746-10.492 3.769-20.276 9.134-29.331z"/>
    <path d="m237.146,213.26c-18.664,0.626-36.405-3.966-54.032-9.32-10.177-3.092-16.693-10.22-21.986-18.97-3.021-4.996-2.54-9.735 2.207-12.475 5.912-3.413 12.37-6.555 18.984-7.917 9.824-2.023 19.669-0.31 29.19,3.313 11.425,4.347 23.146,6.696 35.597,5.233 8.993-1.057 15.035-5.181 18.507-13.397 1.573-3.723 3.082-7.487 4.907-11.087 1.49-2.939 3.101-5.913 5.187-8.435 7.398-8.944 15.88-7.485 20.009,3.273 12.464,32.48-8.824,65.703-44.253,68.984-4.757,0.443-9.544,0.541-14.317,0.798zm48.561-74.544c-2.657,2.435-5.83,4.291-7.458,7.057-3.155,5.359-5.631,11.15-8.036,16.91-2.501,5.987-5.862,11.42-11.872,13.973-12.65,5.373-26.093,6.157-38.52,0.608-10.8-4.823-21.637-7.294-33.114-6.553-5.331,0.345-10.821,2.216-15.697,4.534-5.507,2.617-5.883,5.353-3.231,10.744 2.717,5.525 6.804,9.747 12.705,11.613 26.294,8.312 53.039,12.498 80.465,6.819 27.933-5.784 41.49-40.226 24.758-65.705z"/>
  </g>
</svg>
