<?xml version='1.0' encoding='iso-8859-1'?>
<!DOCTYPE svg PUBLIC '-//W3C//DTD SVG 1.1//EN' 'http://www.w3.org/Graphics/SVG/1.1/DTD/svg11.dtd'>
<svg version="1.1" xmlns="http://www.w3.org/2000/svg" viewBox="0 0 453.564 453.564" xmlns:xlink="http://www.w3.org/1999/xlink" enable-background="new 0 0 453.564 453.564">
  <g>
    <path d="m419.58,431.378c-9.066-3.208-18.68-5.298-25.859-12.4-1.733-1.714-3.218-3.679-4.731-5.43 0.732-1.503 0.942-2.811 1.702-3.362 9.305-6.749 15.918-15.133 19.515-26.395 2.259-7.074 7.457-8.008 13.75-4.07 6.587,4.121 13.928,6.933 18.277,14.404 6.209,10.666 6.559,17.561-2.493,26.016-5.071,4.736-11.933,7.554-17.989,11.237-0.724-5.68434e-14-1.448-5.68434e-14-2.172-5.68434e-14zm-22.555-17.396c8.256,7.306 18.824,10.714 28.875,8.907 12.314-2.214 18.558-16.807 10.527-26.156-4.455-5.186-10.783-8.763-15.601-12.544-8.274,10.356-16.021,20.054-23.801,29.793z"/>
    <path d="m235.114,149.842c-19.478-8.861-20.875-13.201-13.604-30.347 3.853-9.087 8.052-17.799 15.033-24.891 2.013-2.044 4.115-4.173 6.569-5.576 5.597-3.199 9.827-1.582 11.527,4.629 1.226,4.48 2.232,9.262 2.021,13.849-0.656,14.224-4.295,27.548-14.491,38.753 9.9,0.79 14.097-5.714 16.613-12.956 2.221-6.391 3.727-13.354 3.845-20.094 0.408-23.389 10.351-40.904 30.395-52.813 0.581-0.345 0.933-1.075 1.5-1.754-1.04-1.827-2.187-3.651-3.145-5.569-1.411-2.825-4.139-6.179-0.437-8.57 1.779-1.148 5.25-0.237 7.754,0.461 2.368,0.66 4.646,2.031 6.641,3.52 1.675,1.25 2.885,3.123 4.622,5.082 30.811-7.872 60.189-1.644 89.099,9.027 1.989,0.734 4.106,1.404 6.199,1.533 15.356,0.946 26.538,9.897 35.042,21.073 12.709,16.703 9.475,42.638-8.212,56.703-15.393,12.24-20.298,25.052-12.895,43.221 2.119,5.201 2.592,11.302 2.761,17.021 0.397,13.402-8.06,20.709-21.537,18.96-3.533-0.458-6.91-2.326-10.432-2.602-2.519-0.197-5.837,0.435-7.597,2.026-2.902,2.623-1.579,5.892 0.94,8.548 3.233,3.409 6.412,6.869 9.635,10.288 15.839,16.799 15.555,36.543-0.41,53.005-7.282,7.509-14.311,15.31-20.915,23.418-7.112,8.732-10.429,18.856-9.02,30.333 2.108,17.165-1.646,33.583-5.104,50.347-4.299,20.84-20.578,24.761-37.041,20.794-10.199-2.458-18.131-8.62-19.362-20.628-2.095-20.43-4.823-40.798-6.707-61.245-0.497-5.393-3.405-10.794-0.516-16.624 0.572-1.156-2.262-5.032-4.343-6.212-2.71-1.538-6.207-2.06-9.417-2.286-19.026-1.337-36.371-9.067-54.39-14.179-8.06-2.286-11.536-7.049-11.043-15.283 0.293-4.888 1.422-10.298 3.955-14.364 5.71-9.166 12.515-17.652 18.904-26.393 1.694-2.318 4.992-4.55 5.003-6.834 0.071-13.928 12.875-14.786 20.813-20.023 2.461-1.624 9.602,0.819 12.582,3.578 8.742,8.095 17.542,8.008 27.992,4.127 7.372-2.738 15.455-3.591 23.243-5.173 4.781-0.971 9.043-2.579 11.413-7.291 3.27-6.502 0.469-11.748-6.753-12.205-2.112-0.134-4.488,0.074-6.378,0.93-7.506,3.397-13.358,0.053-18.916-4.325-4.742-3.735-5.07-6.454-1.081-10.868 2.894-3.202 6.592-5.673 9.506-8.859 5.593-6.115 5.559-8.778 0.525-17.329-8.488,0.533-13.789,5.431-16.854,12.986-1.347,3.321-2.115,6.912-2.84,10.442-0.97,4.723-3.326,8.16-8.287,8.758-5.249,0.632-9.103-1.588-11.006-6.761-0.466-1.267-1.18-2.444-1.909-3.924-7.932,2.026-11.238,7.489-13.755,14.251-2.621,7.039-5.218,14.376-9.439,20.464-6.875,9.916-16.559,9.867-22.583-0.495-4.996-8.595-10.801-18.671-10.505-27.907 0.386-12.05-0.699-27.112 16.792-33.747zm28.682,148.467l.065-.081c3.118,0.625 6.236,1.25 9.507,1.906 7.207-12.605 16.119-23.145 28.245-30.964-7.991,10.096-15.981,20.191-24.569,31.042 5.707,1.087 9.557,1.82 13.648,2.599 9.002-11.085 17.49-22.422 30.411-29.353-8.567,9.975-17.134,19.951-26.137,30.433 3.552,2.232 5.837,3.668 7.787,4.893 8.15-5.401 12.044-14.586 21.122-17.706-4.087,6.068-8.422,11.884-13.592,16.828-5.984,5.723-8.025,12.412-7.702,21.07 8.716-8.27 16.917-16.05 25.117-23.831 0.56,0.563 1.121,1.127 1.681,1.69-7.465,8.016-14.924,16.038-22.397,24.046-6.212,6.656-6.627,9.534-2.47,18.863 3.874-4.065 7.665-8.043 11.456-12.021 0.66,0.561 1.32,1.123 1.979,1.684-3.448,4.333-6.772,8.774-10.379,12.971-3.837,4.464-4.581,8.809-0.063,13.939 4.403-4.24 8.744-8.42 13.084-12.6-1.968,5.529-5.208,9.745-8.667,13.774-3.829,4.459-6.718,9.023-3.597,16.067 5.175-5.02 9.909-9.613 14.643-14.206 0.585,0.512 1.171,1.024 1.756,1.536-3.57,4.285-7.044,8.653-10.729,12.836-7.376,8.373-5.82,18.977 3.898,24.375 7.395,4.108 15.365,3.938 23.161,1.592 7.482-2.251 6.954-9.252 7.933-15.202 0.469-2.851 0.701-5.76 1.401-8.553 3.282-13.1 4.739-26.283 2.18-39.686-2.23-11.677 1.13-22.109 6.739-32.176 6.421-11.525 15.34-20.894 24.571-30.146 12.523-12.551 12.362-27.247 0.317-40.27-3.185-3.444-6.282-7.018-9.01-10.825-4.104-5.728-4.005-11.644-0.085-17.04 3.845-5.294 9.233-6.754 15.362-5.523 2.802,0.563 5.396,2.151 8.196,2.742 9.455,1.996 15.047-2.598 14.082-12.191-0.683-6.787-1.994-13.649-4.104-20.126-5.603-17.205-1.034-31.289 12.073-43.017 8.772-7.85 13.253-17.957 15.549-29.123 1.676-8.149 0.763-16.469-5.763-22.04-6.805-5.809-14.263-11.698-22.474-14.828-14.362-5.475-29.354-9.62-44.388-12.929-16.619-3.658-33.439-3.169-48.397,1.279-1.201,4.369-1.972,7.172-2.743,9.975-2.143-0.86-4.644-1.28-6.357-2.67-3.666-2.976-6.706-1.567-9.811,0.602-11.448,7.993-19.734,17.952-20.545,32.685-0.357,6.481-0.48,13.055-1.733,19.385-1.523,7.694-3.354,15.511-6.469,22.657-3.346,7.675-9.978,12.113-18.7,12.961-3.943,0.383-7.924,0.997-11.727,2.074-8.368,2.371-16.524,15.964-14.036,24.152 2.196,7.226 5.166,14.278 8.46,21.084 1.752,3.62 4.916,6.556 8.564,11.242 3.676-5.196 6.796-8.629 8.758-12.63 2.371-4.837 3.116-10.521 5.754-15.163 2.761-4.859 6.31-9.705 10.642-13.131 5.794-4.581 9.97-3.164 14.504,2.921 1.568,2.104 3.364,4.037 5.693,6.806 3.827-8.179 6.092-15.512 10.341-21.418 4.544-6.316 10.957-11.287 15.651-15.948 7.457,5.201 15.293,8.942 15.256,19.367-0.038,10.882-9.108,14.854-14.392,21.812 2.413,4.017 5.816,5.052 10.164,4.097 2.816-0.618 5.701-1.235 8.562-1.271 7.672-0.095 14.711,4.469 16.311,10.227 1.895,6.822-2.133,15.44-9.094,19.159-1.56,0.833-3.331,1.314-5.048,1.806-11.43,3.27-22.932,6.304-34.29,9.808-7.519,2.32-15.81,2.295-20.405-3.213-9.96-11.94-18.635-8.421-28.139-0.528-0.546,0.453-1.066,0.937-2.186,1.925 3.959,7.346-1.401,12.075-5.382,17.715-6.222,8.815-12.38,17.835-17.144,27.471-4.262,8.622-1.828,12.358 7.249,15.117 3.705,1.126 7.487,1.997 11.067,2.94 9.213-16.337 17.981-26.896 26.77-31.482-8.25,11.456-15.719,21.825-23.678,32.876 6.427,1.87 11.56,3.366 16.693,4.862zm-16.724-203.493c-13.242,8.942-17.325,22.199-21.891,34.929-0.78,2.176 1.16,6.853 3.23,8.135 2.533,1.569 6.803,1.66 9.801,0.723 2.286-0.714 4.288-3.762 5.509-6.222 5.771-11.629 8.111-23.709 3.351-37.565z"/>
    <path d="m162.599,53.681c-0.829,3.905-1.39,6.551-1.934,9.113 16.119,12.446 18.849,30.312 19.477,48.571 0.169,4.928-2.348,10.811-5.477,14.814-7.101,9.085-14.9,17.752-23.304,25.642-4.856,4.558-11.165,7.899-17.331,10.634-5.828,2.586-8.53,6.129-8.165,12.396 0.253,4.329 0.735,8.774 0.068,13.002-1.876,11.903 3.781,19.793 12.318,27.051 11.288,9.596 21.389,20.654 33.06,29.718 18.005,13.982 18.776,32.491 14.92,51.947-4.792,24.175-17.108,44.115-36.531,59.783-16.908,13.639-28.551,30.61-29.713,53.268-0.385,7.499-5.025,11.714-11.747,13.958-11.314,3.776-23.919-2.598-27.749-13.868-0.807-2.373-1.876-4.669-2.969-6.931-5.563-11.507-6.703-23.265-3.836-35.869 1.981-8.713 2.028-17.853 3.18-26.772 0.983-7.606-2.363-12.886-7.708-17.937-8.653-8.178-17.31-16.489-24.892-25.633-10.598-12.781-10.228-18.259-1.949-32.228 8.661-14.614 20.133-26.372 34.135-35.809 2.998-2.02 6.121-3.897 8.904-6.183 4.063-3.338 10.279-5.492 10.073-11.827-0.249-7.665-2.368-15.249-8.224-20.629-2.409-2.214-6.385-2.995-9.798-3.758-2.768-0.619-5.791,0.009-8.648-0.343-7.847-0.967-11.22-3.642-11.666-11.68-0.695-12.526-7.125-19.876-18.308-24.202-6.045-2.338-12.197-4.678-17.748-7.954-10.936-6.454-13.496-12.928-10.344-25.353 1.597-6.295 0.697-11.477-4.33-15.633-5.263-4.352-7.041-10-6.136-16.485 1.29-9.253 1.953-18.743 4.61-27.614 3.451-11.518 11.925-18.68 23.997-21.102 20.347-4.082 40.989-6.873 61.209-1.148 16.937,4.796 33.306,11.701 49.7,18.242 4.932,1.967 8.926,3.774 14.091,0.609 1.903-1.166 5.262,0.045 8.765,0.21zm-136.028,52.052l-.209-.192c-2.26,4.463-4.572,8.901-6.765,13.396-2.687,5.506-2.239,10.227 3.421,13.779 7.751-9.707 15.234-19.078 22.716-28.448 0.715,0.541 1.43,1.083 2.145,1.625-7.008,9.714-14.016,19.427-21.694,30.068 4.659,1.849 8.237,3.268 12.062,4.786 7.171-8.633 13.972-16.82 20.772-25.006 0.615,0.46 1.229,0.92 1.844,1.38-5.941,8.235-11.883,16.469-18.336,25.413 2.765,1.53 5.027,2.782 7.129,3.945 5.914-6.793 11.261-12.935 16.608-19.077 0.601,0.517 1.202,1.033 1.802,1.55-3.789,5.183-7.432,10.481-11.411,15.512-3.443,4.353-2.06,6.877 2.652,9.138 4.163-4.496 8.129-8.779 12.095-13.063 0.566,0.495 1.132,0.99 1.697,1.484-2.993,3.878-6.11,7.67-8.92,11.676-1.179,1.681-2.682,3.999-2.361,5.713 1.172,6.247 3.051,12.362 4.673,18.559 5.68,0.542 10.801,0.567 15.689,1.648 3.708,0.82 7.756,2.257 10.536,4.693 6.935,6.078 11.413,13.985 13.451,23.036 1.292,5.738-0.029,10.427-5.546,13.946-8.222,5.246-16.04,11.129-24.001,16.782-11.979,8.506-21.46,19.37-29.228,31.717-5.777,9.182-5.736,12.444 1.494,20.185 6.381,6.831 13.499,13.003 20.545,19.177 9.458,8.288 20.169,15.65 18.981,30.548-0.071,0.888 0.906,1.86 1.692,3.362 4.124-4.715 8.001-9.148 11.878-13.581-3.337,12.266-16.2,19.928-15.104,35.25 6.6-5.963 10.069-13.599 17.503-17.067-5.389,8.615-11.296,16.726-17.727,24.398-4.638,5.533-5.312,11.087-2.322,18.63 6.397-8.446 11.092-17.037 19.171-22.603-4.845,8.584-10.32,16.629-16.153,24.406-4.88,6.505-2.452,13.29-0.548,19.57 1.704,5.619 7.736,5.916 12.789,6.276 9.887,0.705 14.928-3.298 15.293-13.827 0.504-14.538 6.223-26.671 15.307-37.368 6.538-7.699 13.653-14.946 20.895-22 7.158-6.973 12.613-15.004 15.803-24.344 3.148-9.216 6.075-18.589 8.023-28.114 3.179-15.544 1.697-29.597-11.639-41.318-11.885-10.446-22.269-22.647-32.917-34.432-5.259-5.821-10.921-11.767-10.893-20.551 0.026-8.319 0.065-16.639 0.033-24.958-0.027-7.002 3.23-11.908 9.785-14.024 18.769-6.058 27.6-22.518 38.606-36.643 1.616-2.075 2.032-5.415 2.21-8.22 0.751-11.825-2.031-22.967-7.507-33.401-2.206-4.203-5.295-7.641-9.949-8.35-6.236,3.878-8.487,12.229-17.162,12.746-1.983-7.7 4.205-12.41 5.369-19.454-3.296-1.545-6.805-3.257-10.368-4.846-10.547-4.702-21.073-9.455-31.693-13.988-5.563-2.375-11.15-5.459-16.995-6.262-17.323-2.379-34.612-0.851-51.71,2.734-9.291,1.948-15.092,7.826-18.937,16.251-4.452,9.754-3.733,19.717-1.709,29.742 1.146,5.675 5.318,6.669 10.166,5.635-0.305,5.752 0.016,10.907 6.969,12.381z"/>
    <path d="m426.576,286.168c-2.621-5.611-4.026-8.723-5.518-11.793-3.124-6.425-5.93-13.045-9.559-19.174-3.057-5.162-6.239-10-2.336-15.863 3.147-4.727 7.708-8.383 13.479-7.403 6.6,1.121 14.573,2.451 15.868,10.708 1.78,11.351 2.796,23.047-3.355,33.682-1.685,2.912-4.462,5.192-8.579,9.843zm3.018-14.302c3.645-9.139 4.021-17.545 2.683-26.117-0.752-4.821-4.54-6.604-8.614-6.691-2.477-0.053-5.671,1.203-7.348,2.991-3.017,3.218-0.83,6.603 1.18,9.792 3.822,6.065 7.43,12.265 12.099,20.025z"/>
    <path d="m453.446,166.336c-0.792,4.163-1.451,10.714-3.407,16.851-1.38,4.331-4.01,8.541-7.006,12.007-3.568,4.127-9.569,3.886-12.055-0.688-5.235-9.631-9.097-19.908-4.511-31.003 2.848-6.89 8.095-10.835 15.909-11.027 8.912-0.219 11.843,2.685 11.07,13.86zm-16.094,25.659c7.693-10.22 8.097-20.507 7.835-30.943-9.365-2.418-11.652-1.559-13.809,5.491-2.746,8.975 0.324,16.697 5.974,25.452z"/>
    <path d="m440.792,306.343c-1.283,8.856-4.31,16.736-11.116,22.773-3.556,3.154-7.569,4.178-11.901,1.961-4.272-2.187-6.217-6.183-5.807-10.709 0.875-9.65 6.047-17.582 11.997-24.734 1.423-1.711 6.266-1.939 8.879-1.008 5.087,1.813 7.389,6.434 7.948,11.717zm-19.375,17.848c7.098-5.521 11.557-12.135 11.093-17.316-0.165-1.839-1.397-4.064-2.859-5.144-1.056-0.78-4.248-0.61-4.841,0.259-2.57,3.767-4.997,7.775-6.582,12.028-1.412,3.791-0.627,7.658 3.189,10.173z"/>
    <path d="m180.797,38.603c0-2.217-0.418-3.542 0.065-4.266 4.263-6.391 24.174-13.564 31.115-11.1 1.397,0.496 3.148,2.217 3.259,3.501 0.116,1.348-1.231,3.689-2.475,4.15-10.269,3.801-20.587,7.64-31.964,7.715z"/>
    <path d="m272.51,37.546c-11.161,2.548-18.655-4.398-27.225-7.252-1.11-0.369-2.012-2.873-2.045-4.409-0.02-0.951 1.618-2.428 2.798-2.83 5.84-1.987 11.337-0.305 16.521,2.36 4.68,2.408 9.719,4.725 9.951,12.131z"/>
    <path d="m358.291,103.857c5.118-3.635 10.507-8.585 16.809-11.669 8.824-4.318 16.133,0.681 15.606,10.609-0.25,4.72-2.202,10.002-5.038,13.792-5.382,7.195-11.69,13.768-18.108,20.099-6.664,6.575-14.621,7.476-22.899,3.537-13.592-6.469-25.472-26.549-24.442-41.907 0.236-3.526 1.202-7.195 2.677-10.41 4.167-9.085 11.992-11.053 19.138-4.061 6.084,5.952 10.855,13.246 16.257,20.01z"/>
    <path d="m263.796,298.309c1.017-3.374 1.285-7.261 3.183-10.031 7.098-10.356 14.729-20.346 23.134-29.801-6.003,15.04-17.33,26.553-26.257,39.694 0.005,0.057-0.06,0.138-0.06,0.138z"/>
    <path d="m291.048,161.691c2.405-10.732 6.585-16.56 17.703-24.088-5.411,7.362-10.822,14.725-17.703,24.088z"/>
    <path d="m234.88,281.009c3.09-4.761 6.181-9.522 9.271-14.283 0.698,0.421 1.395,0.841 2.093,1.261-3.043,4.833-6.085,9.666-9.128,14.499-0.745-0.493-1.491-0.985-2.236-1.477z"/>
    <path d="m105.545,269.99c1.277-5.423 1.803-10.117 3.504-14.338 3.058-7.593 8.771-11.267 14.723-10.431 7.809,1.096 15.112,7.253 14.89,14.853-0.356,12.181-1.972,24.363-3.81,36.429-0.372,2.438-3.76,5.076-6.377,6.332-2.794,1.341-6.326,1.599-9.526,1.559-13.158-0.165-25.837-3.103-37.629-8.776-10.668-5.132-11.372-12.236-2.989-20.343 7.889-7.628 16.991-8.847 27.214-5.285z"/>
    <path d="m109.987,131.512c-1.199-12.087 1.395-20.534 5.571-28.559 1.611-3.096 4.564-4.962 8.135-3.52 4.146,1.674 3.23,5.277 1.897,8.248-2.652,5.912-5.525,11.746-8.696,17.394-1.079,1.919-3.329,3.18-6.907,6.437z"/>
    <path d="m96.957,179.431c-2.483-11.168-1.511-19.656 0.307-27.948 0.407-1.858 3.948-3.029 6.046-4.516 0.945,2.083 2.902,4.296 2.652,6.224-0.871,6.716-2.336,13.375-3.971,19.958-0.412,1.661-2.294,2.958-5.034,6.282z"/>
    <path d="m94.532,257.081c-4.42-5.912-3.378-12.736-2.502-19.386 0.158-1.197 2.474-2.991 3.696-2.916 1.201,0.073 3.293,2.218 3.242,3.377-0.271,6.242-1.088,12.461-1.716,18.687-0.907,0.08-1.813,0.159-2.72,0.238z"/>
    <path d="m26.571,105.733c1.349-2.725 2.698-5.45 4.047-8.176 0.816,4.068-0.846,6.612-4.256,7.983-3.55271e-15,0.001 0.209,0.193 0.209,0.193z"/>
  </g>
</svg>
