<?xml version='1.0' encoding='iso-8859-1'?>
<!DOCTYPE svg PUBLIC '-//W3C//DTD SVG 1.1//EN' 'http://www.w3.org/Graphics/SVG/1.1/DTD/svg11.dtd'>
<svg version="1.1" xmlns="http://www.w3.org/2000/svg" viewBox="0 0 460.915 460.915" xmlns:xlink="http://www.w3.org/1999/xlink" enable-background="new 0 0 460.915 460.915">
  <g>
    <path d="m460.915,201.411c-14.622,20.394-29.244,40.788-44.517,62.09 1.688,4.062 4.081,9.277 6.038,14.651 3.332,9.15 2.251,12.396-5.9,16.959-31.212,17.473-62.514,34.785-93.732,52.246-15.769,8.82-31.401,17.887-47.15,26.743-21.091,11.86-42.227,23.642-63.363,35.421-11.475,6.395-18.995,4.981-27.484-4.908-6.34-7.386-12.781-14.687-19.093-21.93-11.162,2.059-22.078,4.476-33.121,5.955-6.363,0.852-13.015,0.875-19.387,0.076-16.313-2.046-19.538-7.377-14.948-24.155-3.811-0.754-7.579-1.526-11.358-2.243-14.947-2.836-18.372-7.634-15.619-22.873-4.446-0.768-8.963-1.322-13.369-2.348-15.866-3.693-18.825-12.073-8.828-24.637 0.662-0.832 1.311-1.673 2.456-3.136-4.119-2.497-8.417-1.205-12.398-1.381-13.194-0.583-24.827-4.641-33.743-14.798-6.577-7.492-7.086-14.3-1.84-22.776 4.977-8.043 12.063-13.207 21.264-15.667 25.16-6.727 49.912-7.145 74.022,4.232 0.959,0.453 2.033,0.677 3.073,0.932 0.302,0.074 0.67-0.116 2.206-0.43-2.637-4.324-5.264-8.274-7.531-12.42-5.769-10.553-4.115-16.545 6.76-21.975 20.357-10.165 40.939-19.881 61.362-29.915 36.958-18.158 73.859-36.432 110.803-54.62 16.173-7.962 32.11-16.491 48.675-23.538 14.411-6.131 16.967-4.552 25.23,8.943 1.109,1.81 2.396,3.511 4.448,6.494 1.794-5.532 3.235-9.811 4.57-14.122 5.618-18.145 13.748-34.978 26.199-49.474 7.159-8.335 15.814-14.931 25.943-19.153 12.121-5.052 18.502-1.163 20.517,11.741 2.11,13.512-0.68,26.553-3.825,39.531 0.62,0.391 1.213,1.095 1.726,1.04 13.848-1.45 16.875,1.709 14.471,15.531-0.554,3.184-1.618,6.301-2.674,9.37-1.035,3.006-2.357,5.914-3.805,9.485 1.94,0.563 3.199,0.974 4.48,1.294 9.778,2.441 12.62,6.67 10.026,16.44-1.65,6.215-4.282,12.169-6.799,19.139 6.436,1.259 12.864,2.405 16.218,8.639-0.003,6.514-0.003,13.03-0.003,19.547zm-201.796,53.417c1.339-9.801 4.737-17.577 12.807-22.425 8.346-5.015 17.111-3.868 26.323-0.374 7.426-33.218 14.627-65.426 21.978-98.307-14.353,3.955-208.081,98.757-213.212,104.161 14.392,5.005 28.37,11.198 42.995,14.648 23.45,5.533 47.309,9.362 71.054,13.584 2.767,0.492 6.468-0.263 8.765-1.846 8.546-5.894 17.543-9.979 29.29-9.441zm73.925-131.595c-2.07,5.312-3.839,8.606-4.647,12.121-6.631,28.839-12.486,57.874-19.897,86.507-2.803,10.828-4.968,21.078-3.377,32.274 0.994,6.993 0.185,14.242 0.185,22.271 34.081,3.819 68.358,6.684 103.901,5.059-1.297-3.457-2.009-6.195-3.288-8.635-16.607-31.675-31.707-64.014-45.093-97.211-6.056-15.019-14.218-29.194-21.564-43.682-1.226-2.419-3.164-4.478-6.22-8.704zm118.146,60.749c-6.881-1.854-10.158,2.442-14.288,5.17-1.71,1.129-5.343,1.429-6.741,0.348-1.328-1.026-1.61-4.549-1.046-6.618 0.936-3.433 3.031-6.533 4.437-9.859 3.469-8.207 6.823-16.463 10.221-24.695-6.254-3.683-10.202-1.435-13.883,1.8-2.447,2.152-4.789,5.216-8.21,1.957-3.467-3.303 0.195-5.847 1.532-8.527 3.223-6.461 6.879-12.731 9.703-19.359 1.87-4.389 2.602-9.262 4.376-15.913-9.087,2.747-14.576,6.084-17.899,12.626-1.306,2.571-2.397,5.407-4.299,7.462-1.157,1.249-4.115,2.166-5.457,1.53-1.32-0.626-2.262-3.423-2.2-5.228 0.07-2.035 1.564-3.987 2.235-6.041 3.025-9.26 6.804-18.374 8.739-27.862 2.19-10.743 4.976-21.827 0.481-33.929-3.82,1.815-7.134,3.09-10.146,4.874-10.166,6.022-17.766,14.63-24.358,24.318-11.37,16.711-16.99,35.828-22.98,54.754-0.845,2.67 0.219,6.412 1.447,9.195 10.648,24.133 21.419,48.213 32.409,72.191 4.399,9.598 9.44,18.903 15.085,30.123 12.931-16.917 24.841-31.866 35.964-47.38 4.108-5.727 6.901-12.667 4.878-20.937zm-257.521,215.612c14.083-31.419 27.801-62.023 41.574-92.749-4.107-3.856-9.843-7.31-12.624-12.384-2.898-5.287-2.947-12.137-4.492-19.501-16.83-3.673-34.914-6.904-52.583-11.673-17.958-4.847-35.508-11.21-53.236-16.909 9.453,15.092 11.535,33.076 21.648,48.894 2.44-9.091 4.362-16.254 6.285-23.416-0.173,7.7-1.259,15.176-3.277,22.391-2.062,7.372 0.615,12.966 5.256,19.913 2.466-9.012 4.546-16.611 6.625-24.21 0.98,3.067 0.868,5.922 0.425,8.724-1.126,7.121-2.534,14.2-3.579,21.332-1.21,8.258 2.488,14.712 7.481,22.342 3.866-15.239 7.225-28.48 10.583-41.722 0.829,0.199 1.658,0.398 2.487,0.597-2.781,12.596-5.535,25.198-8.353,37.785-2.427,10.836-1.294,14.405 7.859,23.454 4.155-16.065 8.262-31.943 12.369-47.821 0.743,0.177 1.485,0.354 2.228,0.531-0.401,2.738-0.657,5.506-1.227,8.209-2.905,13.775-6.022,27.506-8.801,41.305-1.687,8.381-1.275,8.923 5.362,13.567 3.211-10.555 6.422-21.111 9.633-31.666 1.469,2.491 1.398,4.6 0.921,6.612-2.085,8.776-4.096,17.577-6.538,26.257-1.09,3.874-1.098,7.068 2.078,9.822 4.048,3.515 8.099,7.025 11.896,10.316zm-139.501-73.498c10.115,4.344 12.702,4.471 30.498,3.428 2.833-0.166 7.247,0.535 8.349,2.378 2.317,3.875-2.034,5.164-4.715,6.828-4.036,2.505-7.992,5.137-7.326,12.152 2.933,0.814 6.181,2.193 9.536,2.544 6.437,0.675 12.976,0.449 19.388,1.262 2.473,0.313 5.289,1.999 6.785,3.95 0.607,0.792-1.421,4.484-3.062,5.944-3.851,3.425-7.576,6.61-6.502,13.321 3.267,0.363 6.302,0.7 9.683,1.075 1.988-5.882 3.748-11.086 5.507-16.291 1.001,2.837 0.353,5.233 0.134,7.667-0.23,2.558-0.051,5.154-0.051,9.731 8.613-6.441 5.014-16.842 12.895-22.428-0.98,7.001-1.797,12.836-2.799,19.994 9.441-2.307 17.517-4.281 25.988-6.352-7.135-12.804-14.019-23.869-19.64-35.541-8.767-18.207-16.596-36.863-25.039-55.23-1.272-2.766-3.205-5.849-5.697-7.339-26.105-15.607-53.826-17.195-82.398-8.331-3.576,1.11-6.933,3.936-9.619,6.714-8.662,8.958-6.11,16.959 6.669,21.198 1.384-3.538 2.775-7.093 4.167-10.649 0.283,0.089 0.565,0.179 0.848,0.268-0.661,4.421-1.322,8.843-2.136,14.284 6.532,0.669 12.044,1.234 17.103,1.752 1.712-3.557 2.847-5.913 4.998-10.38 0,4.708 0,7.012 0,10.226 4.318,0 8.253-0.202 12.159,0.047 6.111,0.389 12.234,0.864 18.288,1.739 3.074,0.444 7.001,0.974 6.879,5.396-0.124,4.497-3.769,4.315-7.092,4.685-3.555,0.396-7.333,0.746-10.504,2.215-5.775,2.676-11.675,5.686-13.294,13.743zm235.155,27.814c37.863-20.929 74.67-40.304 111.997-63.187-18.217-1.277-33.965-2.189-49.676-3.534-16.092-1.379-32.147-3.181-48.624-4.839-0.947,3.63-2.244,6.696-2.46,9.835-0.447,6.48-3.759,10.135-9.309,13.337-15.367,8.867-31.27,10.246-48.198,4.817-15.162,29.113-27.87,58.826-39.178,91.545 10.09-5.796 17.88-10.272 25.267-14.516 1.019-12.533 3.12-24.067 9.914-34.478-2.144,10.487-4.288,20.974-6.805,33.281 6.521-3.365 10.921-5.635 15.114-7.798 0.76-15.305 5.004-28.916 11.735-41.96-2.513,12.472-5.027,24.944-7.99,39.649 6.187-3.608 10.143-5.915 11.907-6.944 4.045-13.03 7.421-23.906 10.797-34.782 0.885,0.232 1.769,0.465 2.654,0.697-2.409,9.484-4.819,18.967-7.531,29.643 8.406-2.648 13.469-5.772 15.26-13.706 1.441-6.382 4.827-12.325 7.349-18.463 0.795,0.273 1.589,0.546 2.384,0.819-1.385,6.183-2.768,12.366-4.607,20.584zm-22.617-91.455c-2.52-0.253-4.983-0.504-7.446-0.749-11.751-1.17-21.172,3.406-28.492,12.239-6.824,8.234-5.615,13.535 3.254,19.439 17.008,11.322 34.999,11.134 53.64,5.455 1.956-6.91 4.403-13.356 5.519-20.024 1.594-9.533 2.457-19.211 3.157-28.862 0.412-5.668-1.107-10.837-7.401-12.931-6.221-2.07-11.403,0.056-15.659,4.478-5.49,5.706-7.257,12.783-6.572,20.955z"/>
    <path d="m128.943,179.267c-4.306-0.378-8.717-0.291-12.897-1.232-8.608-1.937-10.956-7.314-5.552-14.093 4.905-6.154 10.737-11.714 16.795-16.777 21.741-18.173 45.814-32.626 71.703-44.155 9.548-4.252 18.892-9.001 28.133-13.893 11.834-6.264 24.346-8.95 37.625-7.958 15.794,1.18 21.275,12.53 12.362,25.786-2.179,3.24-5.062,6.141-8.064,8.673-17.191,14.501-35.696,27.037-56.434,35.934-17.889,7.674-35.748,15.502-54.021,22.164-9.346,3.407-19.569,4.408-29.396,6.497-0.084-0.315-0.168-0.63-0.254-0.946zm-13.7-8.483c2.931,0.613 5.252,1.384 7.615,1.545 13.559,0.927 26.614-1.582 39.157-6.565 15.411-6.122 30.8-12.319 46.014-18.912 18.652-8.082 35.564-19.11 51.291-31.935 3.621-2.952 6.889-6.361 10.152-9.721 3.341-3.44 4.54-8.148 2.193-11.912-1.542-2.473-5.734-3.897-8.986-4.534-3.431-0.672-7.329-0.487-10.716,0.443-8.641,2.372-17.388,4.718-25.602,8.225-33.938,14.487-66.736,31.052-95.035,55.271-5.948,5.091-12.356,9.819-16.083,18.095z"/>
    <path d="m38.631,292.99c-2.267-7.374 0.288-13.469 4.81-19.044-1.603,6.348-3.207,12.696-4.81,19.044z"/>
    <path d="m143.271,148.49c7.106-7.753 15.153-12.431 23.507-16.608 10.952-5.476 21.763-11.338 33.069-15.972 11.619-4.762 23.742-8.308 35.695-12.229 2.008-0.659 4.382-1.039 6.398-0.625 2.647,0.542 7.096,1.799 7.226,3.103 0.261,2.612-1.335,5.93-3.176,8.1-2.278,2.687-5.475,4.664-8.461,6.672-24.9,16.749-52.126,27.564-81.848,32.057-4.578,0.693-8.487,0.227-12.41-4.498zm11.219-.294c33.318-4.04 61.911-18.414 89.938-39.248-20.355,0.071-80.506,26.972-89.938,39.248z"/>
  </g>
</svg>
