<?xml version='1.0' encoding='iso-8859-1'?>
<!DOCTYPE svg PUBLIC '-//W3C//DTD SVG 1.1//EN' 'http://www.w3.org/Graphics/SVG/1.1/DTD/svg11.dtd'>
<svg version="1.1" xmlns="http://www.w3.org/2000/svg" viewBox="0 0 449.184 449.184" xmlns:xlink="http://www.w3.org/1999/xlink" enable-background="new 0 0 449.184 449.184">
  <g>
    <path d="m250.741,313.997c-17.515,16.002-38.977,23.793-59.926,32.633-39.226,16.552-80.555,19.261-122.297,18.399-17.23-0.356-33.275-5.772-47.584-16.009-14.474-10.355-20.906-24.625-20.934-41.83-0.037-23.037 9.19-42.504 26.636-57.092 21.062-17.613 44.7-30.878 72.861-33.03 18.513-1.415 36.656,1.674 54.562,6.538 26.451,7.185 50.116,20.296 73.627,33.805 2.169,1.246 4.298,2.561 5.375,3.205 26.662-14.069 52.28-28.082 78.346-41.202 25.927-13.051 53.704-19.937 82.746-18.105 47.482,2.995 64.238,42.319 50.267,74.88-14.3,33.327-37.409,58.1-74.341,67.01-12.539,3.026-25.242,3.013-37.679,0.957-17.412-2.879-34.785-6.417-50.71-14.804-10.184-5.364-20.62-10.251-30.949-15.355zm-53.616-10.672c-1.728-3.697-4.185-1.387-6.365-0.713-15.183,4.695-30.312,9.574-45.537,14.127-21.22,6.346-42.907,10.158-65.089,10.255-11.871,0.052-22.955-3.065-31.842-11.547-15.782-15.063-15.444-26.378 1.236-40.642 17.959-15.358 39.756-20.176 62.431-21.404 18.623-1.009 36.491,3.787 54.245,9.182 22.274,6.769 43.37,15.769 62.872,28.607 8.11,5.339 16.746,9.955 25.433,14.322 10.317,5.187 21.101,9.445 31.404,14.655 16.715,8.454 34.606,12.882 52.985,14.384 10.634,0.87 22.122,0.666 32.176-2.447 34.88-10.799 55.83-35.768 65.934-70.215 1.267-4.318 0.952-9.368 0.318-13.933-3.706-26.682-24.647-37.344-47.993-37.786-18.145-0.343-36.04,2.878-53.234,8.876-8.749,3.052-17.169,7.045-24.495,10.096-2.156,10.561-3.928,19.245-5.916,28.987 4.251-1.698 7.198-3.032 10.246-4.065 10.938-3.706 21.692-8.365 32.924-10.698 15.636-3.248 31.569-4.104 46.783,3.059 7.757,3.652 11.924,10.025 11.474,18.116-1.029,18.457-3.214,29.117-23.906,38.614-15.273,7.01-31.024,8.111-47.595,6.718-28.288-2.377-54.62-9.781-78.116-26.12-8.572-5.961-16.862-12.437-25.901-17.587-10.944-6.235-22.764-10.918-33.812-16.989-15.679-8.617-32.442-14.122-49.588-18.649-16.532-4.365-33.473-7.199-50.455-4.987-26.695,3.476-49.31,16.352-68.549,34.655-14.053,13.369-20.209,30.572-19.257,50.067 0.652,13.351 5.533,24.443 17.058,32.21 10.075,6.789 20.772,12.272 32.973,12.722 16.929,0.624 33.933,0.803 50.843-0.055 21.692-1.101 43.065-4.465 63.595-12.319 5.364-2.052 9.573-4.545 12.311-9.496 0.291,1.292 0.583,2.584 1.229,5.448 4.225-3.21 9.174-5.04 10.504-8.332 4.625-11.448 7.995-23.403 11.843-35.165-0.766-0.502-1.532-1.004-2.298-1.505-3.624,3.186-7.246,6.37-10.869,9.554zm5.083-17.151c-2.99-1.589-4.4-2.614-5.977-3.133-16.768-5.522-33.291-12.112-50.416-16.141-22.434-5.278-45.122-4.868-67.208,3.299-10.365,3.833-19.573,9.302-26.783,17.736-5.791,6.774-5.757,10.105-0.816,17.362 8.973,13.177 22.498,14.586 36.544,13.704 33.131-2.082 64.347-12.542 95.512-22.899 6.26-2.08 11.879-6.094 19.144-9.928zm79.124-1.624c20.375,9.974 40.754,13.567 61.829,14.4 10.926,0.431 21.536-0.461 31.942-4.113 15.241-5.35 19.526-10.694 20.488-26.646 0.647-10.725-1.819-14.351-12.237-16.98-11.797-2.977-23.953-3.224-35.219,0.974-20.21,7.53-40.002,16.205-59.791,24.811-2.736,1.19-4.459,4.71-7.012,7.554zm-7.51-12.447c0.568,0.49 1.137,0.98 1.705,1.469 2.071-1.711 5.402-3.072 5.989-5.194 2.266-8.189 3.656-16.622 5.889-27.472-5.483,3.22-8.672,5.092-11.184,6.567-0.877,9.009-1.638,16.819-2.399,24.63zm-59.826,20.321c-3.51,12.368-6.868,24.202-10.321,36.37 4.693,1.089 6.88-1.033 8.002-4.265 2.824-8.132 5.351-16.367 8.102-24.526 1.672-4.957-1.317-6.177-5.783-7.579zm1.177,32.128c13.014-2.733 10.608-13.577 13.823-20.806 0.471-1.059-2.625-3.702-5.5-7.501-3.124,10.626-5.496,18.695-8.323,28.307zm57.689-74.816c-12.63,2.982-8.855,13.061-10.603,20.294-1.07,4.43 1.646,6.279 6.108,6.518 1.453-8.667 2.853-17.016 4.495-26.812zm33.394-15.407c-0.836-0.514-1.672-1.028-2.509-1.542-1.741,1.508-4.741,2.822-5.008,4.557-1.239,8.053-4.688,15.954-3.249,24.965 1.848-0.797 3.439-1.011 3.615-1.629 2.496-8.751 4.801-17.558 7.151-26.351zm-48.475,36.803c0.902-5.048 1.743-9.759 2.801-15.686-4.91,1.934-8.998,2.586-9.095,7.598-0.068,3.479-0.357,7.451 6.294,8.088zm-25.23,31.094c-1.281,5.37-2.218,9.302-3.156,13.233 0.574,0.352 1.149,0.704 1.723,1.056 3.317-2.344 6.634-4.689 10.576-7.475-3.063-2.283-5.262-3.922-9.143-6.814zm61.399-62.358c-0.968-0.273-1.936-0.547-2.904-0.82-5.072,5.263-1.721,11.82-1.004,18.014 1.303-5.732 2.605-11.463 3.908-17.194zm-50.256,23.433c-0.012,0.619-0.023,1.238-0.034,1.857 1.747,0.175 3.494,0.35 5.241,0.525-0.055-1.301-0.11-2.602-0.166-3.903-1.681,0.507-3.361,1.014-5.041,1.521z"/>
    <path d="m223.561,115.193c2.026-2.348 3.596-4.186 5.187-6.007 8.184-9.364 17.361-17.434 29.222-21.844 7.888-2.933 15.814-4.392 24.388-2.432 23.706,5.42 34.488,22.821 27.913,46.151-8.502,30.169-23.997,56.379-45.257,79.301-5.65,6.092-11.185,12.299-16.585,18.613-6.651,7.775-8.196,8.127-17.542,4.554-20.286-7.754-40.119-16.465-58.452-28.194-22.221-14.216-36.967-34.598-44.832-59.36-9.552-30.076 13.063-57.738 44.648-55.463 8.229,0.593 16.715,1.893 24.383,4.749 6.88,2.561 12.952,7.488 19.072,11.808 2.833,1.998 4.932,5.037 7.855,8.124zm-61.511-9.319c0.253-2.152 0.845-4.837-2.695-4.21-15.549,2.755-26.806,23.9-20.063,39.081 2.604-4.464 4.744-8.586 7.307-12.428 5.124-7.683 10.48-15.212 15.74-22.805-6.383,12.047-12.619,24.175-19.216,36.103-2.874,5.197-4.024,9.817 1.775,15.049 2.928-4.732 5.514-9.367 8.55-13.685 2.781-3.955 6.048-7.567 9.101-11.33l-.194-.163c-1.349,3.232-2.427,6.613-4.101,9.666-3.787,6.904-7.869,13.646-11.544,19.961 11.962,20.98 20.045,29.546 39.336,40.506 11.293,6.415 22.885,12.335 34.565,18.02 5.359,2.609 11.254,4.119 16.411,5.952 5.894-6.381 10.712-11.745 15.687-16.96 21.788-22.842 38.329-48.721 47.019-79.373 3.101-10.938 2.712-21.064-5.926-28.995-8.758-8.041-20.028-9.729-30.413-4.975-15.114,6.918-29.975,15.023-31.364,34.979-0.391,5.614-6.169,7.246-10.437,3.346-1.54-1.408-2.69-3.384-3.622-5.293-9.222-18.895-24.757-27.245-45.309-27.894-4.963-0.157-8.396,1.062-10.607,5.448z"/>
    <path d="m188.154,148.738c-5.942,9.941-11.884,19.882-18.211,30.467-0.848-8.657 5.763-20.573 18.211-30.467z"/>
    <path d="m175.834,139.627c-6.079,10.213-12.158,20.426-18.237,30.638-0.638-0.364-1.276-0.729-1.915-1.093 3.685-11.513 10.989-21.003 17.961-30.678 0.73,0.378 1.46,0.755 2.191,1.133z"/>
    <path d="m175.605,186.905c3.386-10.854 10.666-19.392 17.821-29.532-1.136,7.427-10.178,22.625-17.821,29.532z"/>
    <path d="m186.614,189.461c3.43-5.16 6.859-10.32 10.289-15.481 0.643,0.383 1.287,0.767 1.93,1.15-3.323,5.193-6.645,10.386-9.968,15.579-0.75-0.416-1.501-0.832-2.251-1.248z"/>
    <path d="m205.953,186.248c-2.919,4.802-5.838,9.603-8.757,14.405-0.732-0.435-1.465-0.869-2.197-1.304 2.911-4.806 5.822-9.612 8.733-14.418 0.74,0.439 1.48,0.878 2.221,1.317z"/>
    <path d="m162.549,131.649c1.223-2.973 2.446-5.946 3.669-8.919 0.728,0.445 1.456,0.889 2.184,1.334-2.015,2.474-4.031,4.948-6.046,7.422l.193,.163z"/>
  </g>
</svg>
