<?xml version='1.0' encoding='iso-8859-1'?>
<!DOCTYPE svg PUBLIC '-//W3C//DTD SVG 1.1//EN' 'http://www.w3.org/Graphics/SVG/1.1/DTD/svg11.dtd'>
<svg version="1.1" xmlns="http://www.w3.org/2000/svg" viewBox="0 0 420.632 420.632" xmlns:xlink="http://www.w3.org/1999/xlink" enable-background="new 0 0 420.632 420.632">
  <g>
    <path d="m398.063,354.919c0,14.103 0.144,28.208-0.046,42.308-0.148,10.99-4.441,16.913-15.166,19.46-7.317,1.737-14.991,2.616-22.519,2.704-27.463,0.32-54.932,0.148-82.398,0.158-20.982,0.008-41.965-0.134-62.945,0.051-28.908,0.254-57.816,1.158-86.72,1.017-22.763-0.111-45.531-1.162-68.274-2.27-6.786-0.331-13.518-2.141-20.229-3.497-6.505-1.315-10.059-5.812-10.75-12.083-1.46-13.265-2.943-26.558-3.56-39.879-1.337-28.869-2.249-57.759-3.118-86.647-0.717-23.815-1.108-47.64-1.675-71.459-0.134-5.639 1.429-9.866 5.887-14.213 7.685-7.494 13.513-16.855 20.863-24.739 25.14-26.966 50.289-53.937 76.038-80.318 22.459-23.01 45.595-45.366 68.744-67.688 5.679-5.477 12.46-9.854 18.943-14.442 6.335-4.484 12.908-4.816 18.747,0.87 12.151,11.831 24.584,23.421 36.063,35.883 20.316,22.057 40.655,44.154 59.753,67.252 15.396,18.621 28.968,38.749 43.367,58.195 5.561,7.51 11.372,14.845 16.673,22.533 2.6,3.772 5.486,7.977 6.185,12.318 2.518,15.649 4.956,31.389 5.944,47.187 1.374,21.993 1.55,44.067 1.977,66.111 0.266,13.726 0.049,27.462 0.049,41.194-0.612-0.003-1.223-0.004-1.833-0.006zm-347.258,42.18c48.185-30.293 95.529-60.057 143.792-90.399-2.882-1.784-4.84-3.26-7.008-4.297-21.95-10.493-42.048-24.111-61.572-38.346-20.695-15.089-40.158-31.865-60.209-47.842-7.333-5.843-14.295-12.4-22.349-17.026-10.344-5.942-14.689-2.846-14.61,8.778 0.012,1.806 0.174,3.613 0.301,5.417 1.641,23.311 3.281,46.622 4.99,69.928 0.032,0.434 0.898,0.807 1.709,1.489 3.082-3.56 6.172-7.129 9.261-10.698-2.576,11.919-15.057,20.733-8.081,35.157 6.662-6.283 9.835-15.623 18.773-19.323-5.318,9.438-11.229,18.379-17.419,27.123-3.624,5.119-3.68,10.066-0.923,16.569 3.631-4.723 6.371-8.506 9.346-12.095 2.939-3.544 6.116-6.891 9.188-10.324 0.542,0.499 1.084,0.998 1.627,1.497-1.616,2.701-3.108,5.486-4.873,8.086-4.062,5.986-8.235,11.896-12.403,17.809-2.502,3.549-4.381,7.122-1.283,11.996 5.645-5.553 9.158-12.577 16.75-17.904-4.008,13.928-18.363,20.634-15.672,35.662 4.087-5.995 8.174-11.99 12.262-17.985 0.637,0.374 1.274,0.747 1.912,1.121-2.641,5.338-4.593,11.183-8.073,15.902-6.368,8.634-6.549,17.54-4.828,27.627 1.069,6.272 3.475,8.979 9.37,9.452 12.219,0.979 24.419,2.535 36.655,2.899 16.909,0.503 33.844,0.126 50.675,0.126 2.455-5.753 4.478-11.139 7.019-16.266 2.527-5.097 4.667-10.629 10.894-13.245-4.094,9.356-8.188,18.712-12.853,29.372 5.475,0.3 9.289,0.51 13.172,0.723 4.756-8.509 6.372-18.379 15.7-23.807-3.184,7.752-6.369,15.504-9.801,23.858 5.414,0 9.62,0 13.536,0 4.468-8.979 6.973-18.368 13.721-25.271 0.733,0.322 1.466,0.644 2.199,0.966-3.303,7.506-6.607,15.013-10.351,23.522 5.819,0 9.684,0 13.611,0 4.808-7.379 6.769-16.355 15.421-20.826-2.605,6.38-5.211,12.761-8.346,20.44 5.285-0.418 8.715-0.689 11.481-0.907 4.4-8.313 8.321-15.722 12.242-23.131 0.904,0.421 1.807,0.842 2.711,1.264-2.94,6.985-5.881,13.97-9.212,21.884 10.717,0 19.9,0 28.599,0 4.177-4.452 2.97-11.643 10.677-15.129-0.983,5.987-1.708,10.408-2.45,14.927 1.38,0.248 2.421,0.606 3.46,0.598 34.365-0.285 68.729-0.554 103.092-0.986 4.308-0.054 8.627-0.861 12.9-1.567 4.816-0.795 7.581-3.278 7.747-8.703 0.31-10.104 1.77-20.198 1.665-30.285-0.484-46.281-1.236-92.559-2.171-138.833-0.168-8.318-1.65-16.609-2.747-27.014-22.471,19.72-42.662,38.332-63.825,55.763-21.395,17.622-43.752,34.076-65.583,50.962 13.82,9.439 28.088,19.281 42.457,28.976 23.373,15.77 46.849,31.388 70.181,47.218 3.657,2.481 8.578,4.282 8.622,10.092-5.956,3.478-9.862-0.712-13.833-3.399-37.123-25.113-74.23-50.251-111.14-75.675-4.624-3.185-8.35-4.365-13.772-2.245-4.601,1.799-10.129,3.556-14.695,2.625-9.351-1.906-17.066,1.082-24.779,5.162-7.022,3.715-14.326,7.105-20.759,11.687-26.868,19.133-56.126,34.228-84.523,50.777-7.809,4.551-15.471,9.373-23.443,13.615-3.861,2.051-7.836,5.271-14.132,2.459zm103.272-129.811c14.15,11.374 31.424,17.478 46.897,26.686 14.505,8.632 28.258,6.441 42.067-1.209 2.215-1.227 4.564-2.281 6.585-3.775 17.436-12.895 34.896-25.76 52.122-38.93 3.036-2.321 5.659-5.703 7.36-9.146 3.676-7.439 6.896-15.135 9.827-22.906 6.82-18.078 8.174-36.549 3.172-55.352-3.992-15.009-14.699-25.042-29.666-26.075-8.571-0.592-17.472-0.262-25.88,1.398-20.908,4.127-36.948,15.606-47.645,34.333-4.239,7.421-10.132,7.65-15.336,0.939-1.1-1.418-1.727-3.221-2.895-4.566-7.163-8.256-14.574-17.03-26.082-18.093-12.146-1.122-24.826-2.036-36.664,0.194-28.755,5.416-52.426,34.228-34.819,66.561 3.068-5.894 6.001-11.528 8.933-17.161-1.127,6.799-3.943,12.864-6.445,19.055-2.407,5.955-2.264,6.013 2.569,11.741 4.433-8.663 8.186-17.655 15.146-24.537-3.542,8.762-7.65,17.159-11.786,25.541-2.154,4.365-1.512,7.595 4.078,9.332 1.849-3.069 3.743-6.214 5.637-9.358 0.338,0.151 0.677,0.303 1.015,0.454-1.068,3.981-2.136,7.961-3.305,12.317 2.972,1.974 5.571,3.701 8.395,5.576 4.207-8.518 8.109-16.418 12.011-24.317 0.565,0.252 1.13,0.503 1.695,0.755-3.32,8.855-6.639,17.71-10.007,26.693 3.396,1.834 5.751,3.106 8.18,4.417 3.455-7.723 5.567-15.262 13.697-21.783-4.239,9.287-7.479,16.385-10.864,23.802 2.997,1.791 5.388,3.22 7.998,4.78 1.606-1.816 2.942-3.326 5.227-5.909-0.508,3.566-0.838,5.879-1.217,8.543zm67.611-258.231c-17.9,10.77-168.84,162.305-180.008,180.082 16.492,11.528 32.943,23.026 51.581,36.054-1.872-7.188-3.566-11.926-4.267-16.807-1.012-7.044-2.723-14.419-1.634-21.253 3.226-20.232 15.505-34.823 34.312-41.424 31.045-10.897 61.731-12.178 88.324,12.312 0.45,0.415 1.329,0.364 2.504,0.652 1.891-1.729 4.05-3.592 6.085-5.581 20.341-19.885 44.869-28.582 73.05-26.661 18.948,1.292 33.05,10.701 40.147,28.449 5.7,14.255 7.649,29.37 4.783,44.729-1.311,7.024-3.005,13.977-5.134,23.758 14.159-12.057 26.38-22.464 38.806-33.045-4.782-7.348-8.606-13.911-13.089-19.986-14.582-19.762-29.016-39.655-44.275-58.888-9.873-12.448-21.239-23.698-31.664-35.719-15.399-17.757-30.452-35.813-45.883-53.541-4.195-4.819-9.219-8.917-13.638-13.131z"/>
    <path d="m242.783,386.156c-1.911,6.623-3.615,13.393-10.851,19.633 1.001-9.624 5.533-14.844 10.851-19.633z"/>
  </g>
</svg>
