<?xml version='1.0' encoding='iso-8859-1'?>
<!DOCTYPE svg PUBLIC '-//W3C//DTD SVG 1.1//EN' 'http://www.w3.org/Graphics/SVG/1.1/DTD/svg11.dtd'>
<svg version="1.1" xmlns="http://www.w3.org/2000/svg" viewBox="0 0 442.074 442.074" xmlns:xlink="http://www.w3.org/1999/xlink" enable-background="new 0 0 442.074 442.074">
  <g>
    <path d="m187.551,230.186c-11.927-9.272-18.567-22.497-24.007-36.262-17.951-45.42-18.27-89.994 10.824-131.116 27.917-39.457 66.13-61.959 115.446-62.781 19.666-0.328 39.236,2.244 57.158,10.382 9.949,4.517 19.171,11.655 27.132,19.273 9.856,9.432 18.068,20.583 26.982,30.997 36.867,43.071 38.816,90.551 17.651,140.865-14.471,34.4-38.892,59.579-71.832,76.713-9.402,4.89-19.383,7.781-30.011,8.543-25.086,1.799-49.925,1.822-73.224-9.669-6.458-3.185-12.755-6.696-19.024-10.004-7.02,2.623-9.585,6.92-8.211,14.347 0.66,3.569-0.605,7.814-1.974,11.378-3.716,9.676-10.622,17.153-18.171,23.986-17.148,15.519-34.484,30.831-51.604,46.381-24.622,22.364-49.12,44.865-73.666,67.313-1.334,1.22-2.564,2.56-3.942,3.727-11.695,9.903-19.157,10.621-31.567,0.859-10.204-8.026-18.772-16.546-23.567-28.862-3.195-8.208-3.305-15.525 2.653-22.238 13.177-14.85 26.152-29.901 39.847-44.263 11.975-12.558 24.754-24.355 37.299-36.362 18.288-17.503 36.754-34.82 54.992-52.375 5.456-5.251 10.627-10.84 15.524-16.618 5.599-6.605 7.837-7.435 15.548-3.241 3.201,1.74 5.953,4.625 9.744-0.973zm-70.883,141.62c6.969-2.125 8.834-6.758 9.933-12.298 2.249-11.339 4.784-22.622 7.223-33.923 0.304-1.408 0.626-2.833 1.162-4.162 0.361-0.896 1.112-1.635 3.174-4.529-2.99,15.733-5.472,28.798-7.955,41.863 0.612,0.202 1.224,0.403 1.837,0.604 2.855-2.656 5.709-5.312 8.395-7.811-0.903-15.063-0.452-18.166 4.414-27.668-0.776,8.687-1.436,16.067-2.136,23.906 11.186-5.018 10.591-5.399 12.513-15.578 2.377-12.588 6.198-24.903 9.395-37.336 0.793,0.171 1.586,0.341 2.379,0.512-2.336,12.362-4.673,24.725-7.413,39.224 9.969-8.831 18.223-15.794 26.058-23.203 5.506-5.207 10.649-10.839 15.569-16.611 4.805-5.637 6.691-12.353 2.804-19.1-8.726-15.152-19.956-28.176-34.434-38.73-2.322,1.847-4.482,3.196-6.188,4.978-26.265,27.434-52.308,55.083-78.746,82.35-19.125,19.724-40.268,37.472-57.218,59.33-9.552,12.318-9.911,12.961-2.134,26.741 2.781,4.928 5.581,9.979 12.245,11.084 1.949-11.194 3.81-21.883 5.671-32.572 1.267,4.125 0.82,7.983 0.243,11.823-0.963,6.41-1.914,12.824-3.048,19.205-0.924,5.195 1.131,8.193 6.45,9.565 3.123-16.418 6.209-32.639 9.295-48.86 0.736,0.121 1.471,0.242 2.207,0.363-2.317,16.415-4.634,32.83-7.261,51.439 7.591-5.349 12.394-7.693 11.979-16.977-0.637-14.266 3.737-28.368 9.614-41.838-2.254,14.599-4.507,29.198-7.003,45.368 9.999-5.845 15.787-11.653 15.69-22.166-0.063-6.803 1.248-13.678 2.48-20.422 1.836-10.048 4.146-20.01 6.254-30.008 0.733,0.144 1.465,0.288 2.198,0.432-2.423,17.727-4.845,35.453-7.365,53.889 9.788-3.662 10.132-5.127 11.508-15.152 1.787-13.019 4.101-25.885 9.605-38.158-1.825,12.997-3.65,25.995-5.597,39.856 11.138-6.276 10.708-6.783 12.197-16.617 1.981-13.09 5.186-25.995 7.866-38.98 0.904,0.169 1.808,0.339 2.712,0.509-2.152,12.97-4.3,25.939-6.572,39.658zm181.846-94.975c7.925-0.625 16.029-0.427 23.723-2.107 7.666-1.674 14.894-5.309 22.365-7.939 5.792-2.038 10.546-5.137 15.445-9.171 13.96-11.493 21.777-27.675 33.471-40.807 3.09-3.469 5.502-7.659 7.684-11.803 22.174-42.101 24.642-84.209-1.828-125.368-7.968-12.391-18.226-23.332-27.675-34.738-4.588-5.538-9.189-11.281-14.719-15.781-20.271-16.494-45.019-19.805-69.6-19.412-46.412,0.741-80.786,24.745-106.337,61.819-19.825,28.765-22.38,61.159-15.811,94.689 3.375,17.228 9.055,34.037 19.704,47.741 10.793,13.89 23.67,26.465 37.044,37.978 21.77,18.742 47.806,26.334 76.534,24.899zm-88.439-12.178c3.916-1.576 4.915-3.761 2.712-6.892-4.154-5.905-8.18-11.915-12.629-17.592-3.011-3.842-7.073-4.36-12.024-1.596 7.481,8.892 14.759,17.543 21.941,26.08z"/>
    <path d="m399.083,151.222c-0.053,21.007-4.03,40.922-16.482,58.436-1.881,2.645-3.641,5.501-6.007,7.654-13.626,12.395-27.156,25.133-44.054,32.976-38.969,18.087-75.497,11.488-108.975-13.435-27.879-20.754-40.033-50.6-43.126-84.188-3.26-35.4 4.904-68.104 26.585-96.871 1.303-1.729 2.565-3.62 4.248-4.911 23.332-17.884 47.746-32.374 79.115-28.914 14.382,1.586 28.943,1.734 41.925,9.071 17.372,9.818 33.707,21.14 47.209,36.001 3.064,3.372 5.821,7.622 7.072,11.944 6.827,23.585 12.672,47.399 12.49,72.237zm-206.079-3.544c1.624,8.796 3.127,18.006 5.072,27.122 1.504,7.053 4.809,13.941 5.07,20.986 0.359,9.684 5.585,16.134 11.399,22.473 4.138,4.512 8.772,8.652 13.587,12.445 29.412,23.17 71.759,30.209 105.481,9.603 7.361-4.498 14.004-10.155 21.105-15.096 19.957-13.886 30.16-33.371 33.688-57.04 2.926-19.63 0.841-38.989-3.044-58.11-2.674-13.16-8.225-25.672-17.167-35.822-16.684-18.939-37.897-30.936-62.125-37.746-8.192-2.302-16.38-2.442-24.646-0.521-15.219,3.539-29.952,8.431-43.199,16.883-19.941,12.723-34.683,29.681-39.509,53.397-2.721,13.38-3.793,27.095-5.712,41.426z"/>
    <path d="m282.356,114.046c9.901-11.622 22.184-16.483 36.694-16.683 7.595-0.105 13.56,2.711 17.579,8.799 7.579,11.48 11.472,24.039 8.882,37.961-3.94,21.18-14.611,39.021-27.827,55.568-4.906,6.142-12.202,6.736-18.795,6.054-18.747-1.939-37.037-6.127-53.906-15.094-14.088-7.488-23.508-18.938-28.724-33.894-4.059-11.637-1.931-22.193 6.58-31.092 15.251-15.945 33.669-19.935 54.561-13.714 1.366,0.406 2.645,1.107 4.956,2.095z"/>
    <path d="m282.91,70.256c-3.688-0.225-7.738,0.027-11.552-0.807-8.402-1.837-10.453-7.087-5.837-14.21 4.552-7.024 11.132-11.525 19.313-12.574 7.038-0.902 14.252-0.595 21.383-0.485 1.611,0.024 3.474,1.139 4.751,2.277 5.1,4.549 10.182,9.142 14.946,14.035 4.12,4.232 4.395,9.746 3.508,15.221-0.838,5.175-4.625,8.028-9.198,9.672-5.785,2.081-10.996,0.289-14.431-4.444-5.777-7.96-13.209-10.678-22.883-8.685zm43.013,.484c-1.387-3.608-2.033-6.5-3.497-8.891-6.968-11.382-26.152-18.944-38.828-14.559-4.844,1.676-9.409,5.308-13.033,9.077-4.634,4.819-2.882,8.802 3.686,9.287 4.291,0.317 8.663-0.204 12.981-0.561 7.675-0.634 14.324,1.162 19.39,7.379 1.364,1.674 2.784,3.838 4.624,4.463 2.822,0.959 6.5,1.853 8.943,0.784 2.475-1.085 3.893-4.587 5.734-6.979z"/>
    <path d="m379.892,143.413c-0.369,5.032 0.064,10.303-1.346,15.025-1.257,4.209-3.979,8.414-7.171,11.443-1.809,1.716-6.506,2.289-8.732,1.13-2.246-1.17-3.627-4.985-4.291-7.891-0.518-2.265 1.123-4.945 0.966-7.387-0.409-6.365-1.14-12.72-2.018-19.04-0.542-3.899-1.88-7.692-2.348-11.594-0.96-7.99 3.42-13.216 11.152-14.085 3.719-0.418 6.15,0.737 7.755,4.251 4.09,8.957 7.275,18.051 6.033,28.148zm-18.169,25.339c8.091-2.882 10.584-6.85 11.381-12.091 0.863-5.676 2.179-11.387 2.117-17.071-0.069-6.324-1.11-12.709-2.418-18.923-0.813-3.862-4.126-6.093-8.14-5.277-4.006,0.814-6.097,3.872-5.381,8.029 0.665,3.858 1.248,7.935 2.965,11.366 3.795,7.582 4.2,14.996 1.324,22.902-1.015,2.792-1.035,5.947-1.848,11.065z"/>
  </g>
</svg>
