<?xml version='1.0' encoding='iso-8859-1'?>
<!DOCTYPE svg PUBLIC '-//W3C//DTD SVG 1.1//EN' 'http://www.w3.org/Graphics/SVG/1.1/DTD/svg11.dtd'>
<svg version="1.1" xmlns="http://www.w3.org/2000/svg" viewBox="0 0 415.874 415.874" xmlns:xlink="http://www.w3.org/1999/xlink" enable-background="new 0 0 415.874 415.874">
  <g>
    <path d="m207.733,109.853c28.619-34.511 58.676-42.548 91.072-32.004 5.441-6.458 11.047-13.112 17.304-20.539-4.354-4.131-8.525-8.141-12.757-12.084-2.153-2.007-4.659-3.683-6.584-5.878-5.5-6.271-4.413-10.399 3.501-12.698 29.321-8.518 58.683-16.893 88.039-25.29 1.765-0.505 3.603-0.771 5.419-1.078 6.077-1.028 8.962,0.671 9.938,6.778 0.63,3.947 0.36,8.068 0.226,12.103-0.78,23.545-1.644,47.088-2.462,70.632-0.077,2.209 0.438,4.559-0.155,6.601-0.852,2.935-1.792,6.985-3.95,8.078-2.171,1.1-6.253-0.162-8.838-1.585-5.41-2.979-10.387-6.745-15.614-10.235-1.802,1.403-3.135,2.096-4.003,3.166-14.965,18.461-16.145,13.128 0.31,31.61 17.048,19.148 24.561,42.166 25.978,66.597 3.823,65.922-20.846,121.608-65.371,169.002-13.431,14.296-29.889,24.933-47.978,32.97-10.736,4.77-21.036,10.514-31.591,15.7-12.845,6.312-25.733,4.95-38.316-0.616-31.792-14.064-61.982-30.843-88.487-53.642-25.668-22.078-51.244-44.265-76.916-66.339-45.491-39.116-42.085-102.503-13.7-142.352 17.096-24 38.245-44.18 66.481-54.672 36.692-13.634 71.585-9.546 103.802,13.393 0.898,0.64 1.785,1.298 2.712,1.894 0.285,0.182 0.686,0.183 1.94,0.488zm-177.962,114.337l-.321-.281c0.156,1.077 0.837,2.503 0.388,3.177-6.021,9.043-0.491,16.444 3.155,25.371 7.773-15.156 12.879-30.472 22.806-43.173-5.056,13.858-10.494,27.517-17.028,40.631-3.822,7.67-2.81,13.139 4.027,18.357 5.442-11.786 10.814-23.42 16.186-35.055 0.773,0.345 1.545,0.689 2.318,1.034-5.082,13.225-10.164,26.451-15.325,39.879 3.362,3.093 6.099,5.611 9.023,8.301 5.514-11.917 10.359-22.388 15.205-32.86 0.771,0.322 1.543,0.643 2.314,0.965-4.796,12.093-9.593,24.186-14.586,36.777 3.922,2.756 7.297,5.128 10.96,7.703 6.032-11.358 9.279-22.928 18.603-31.153-4.771,11.393-9.542,22.786-14.478,34.574 4.284,3.326 7.885,6.122 12.019,9.331 6.379-11.842 10.689-23.622 18.489-33.232 0.656,0.342 1.311,0.684 1.967,1.026-5.3,11.942-10.599,23.883-16.002,36.057 5.374,4.344 9.907,8.008 15.082,12.191 5.31-12.271 10.295-23.79 15.28-35.309 0.832,0.329 1.664,0.659 2.496,0.988-4.356,12.629-8.713,25.258-13.12,38.035 3.817,2.89 6.884,5.212 10.327,7.819 6.347-11.821 10.452-23.717 17.569-33.883 0.674,0.327 1.348,0.655 2.023,0.982-5.009,12.066-10.018,24.133-15.208,36.634 4.738,3.5 8.747,6.461 13.249,9.786 6.712-12.063 11.82-23.847 19.563-33.932 0.702,0.39 1.405,0.78 2.107,1.169-5.696,12.174-11.392,24.348-17.297,36.969 4.57,3.101 8.4,5.7 12.467,8.459 5.476-11.197 10.504-21.478 15.531-31.758 0.791,0.342 1.582,0.683 2.374,1.025-4.346,11.451-8.692,22.901-13.126,34.586 3.946,2.361 6.981,4.177 10.393,6.219 5.03-9.344 9.73-18.072 14.429-26.801 0.824,0.405 1.648,0.81 2.471,1.214-4.012,9.289-8.023,18.577-12.408,28.73 3.839,2.018 7.157,3.763 10.685,5.618 6.476-11.835 12.443-22.74 18.411-33.645 0.674,0.324 1.347,0.648 2.021,0.972-2.765,12.459-10.414,23.023-15.351,35.519 4.098,2.095 7.914,4.047 12.079,6.176 5.047-10.331 9.817-20.096 14.588-29.861 0.803,0.343 1.606,0.687 2.409,1.03-4.052,10.081-8.103,20.161-12.708,31.619 7.8,3.036 15.019,6.762 22.69,8.619 11.565,2.799 19.501-2.541 23.144-13.87 1.451-4.513 3.174-8.939 4.773-13.404 0.437,0.099 0.873,0.198 1.309,0.297-1.296,6.618-2.592,13.236-3.975,20.295 7.904-2.403 11.698-6.84 13.287-14.142 1.295-5.951 4.3-11.53 6.547-17.274 0.688,0.208 1.376,0.415 2.064,0.623-1.729,7.19-3.459,14.379-5.319,22.112 11.723-3.288 11.656-3.313 15.191-12.992 0.978-2.677 2.489-5.16 3.755-7.732 0.292,0.154 0.584,0.308 0.876,0.461-0.444,3.629-0.889,7.259-1.334,10.888 0.8,0.448 1.6,0.896 2.399,1.344 10.697-8.906 22.764-16.609 31.844-26.937 31.534-35.868 53.432-76.446 57.196-125.298 2.749-35.676-2.835-68.812-26.38-97.234-1.639-1.979-2.808-4.348-4.453-6.321-8.643-10.368-8.78-22.839-8.096-35.522 1.434,6.747 2.867,13.494 4.391,20.665 5.665-3.781 6.352-7.683 4.69-13.044-1.472-4.749-1.511-9.943-2.183-14.941 0.645-0.058 1.29-0.116 1.935-0.174 1.226,5.566 2.451,11.131 3.815,17.324 5.05-2.56 5.667-5.763 4.603-10.316-0.903-3.864-1.974-8.041 0.791-12.076 1.165,3.744 2.329,7.488 3.03,9.74 4.976,0 9.284-0.828 13.068,0.228 3.96,1.105 7.415,4.018 12.314,6.848 0.972-14.252 2.513-26.558-0.185-38.95-0.516-2.372-1.2-5.518-0.128-7.292 6.115-10.114 4.291-21.254 6.643-33.812-29.824,8.297-57.569,16.017-87.062,24.222 8.956,8.531 16.245,15.473 24.048,22.905-3.047,3.589-5.487,6.27-7.707,9.121-4.283,5.5-8.807,10.863-12.569,16.709-5.776,8.973-6.243,9.522-16.805,5.42-12.926-5.02-25.8-5.444-38.837-0.664-9.821,3.601-18.896,8.612-26.01,16.278-6.915,7.451-13.06,15.617-20.256,24.331-1.646-1.468-3.798-3.152-5.667-5.106-2.977-3.113-5.217-7.28-8.723-9.482-22.731-14.282-47.486-20.461-73.914-14.143-41.659,9.959-69.57,37.123-87.584,74.757-7.86,16.421-9.653,34.436-6.861,53.266 1.561-1.609 2.575-2.658 3.589-3.707z"/>
    <path d="m385.074,79.41c-6.879-8.852-8.873-19.168-10.234-29.698 7.039,8.691 9.198,19.058 10.234,29.698z"/>
    <path d="m232.892,377.926c-0.514,4.948-1.028,9.896-1.542,14.844-0.794-0.062-1.589-0.125-2.384-0.187 0.348-4.971 0.695-9.942 1.043-14.913 0.961,0.086 1.922,0.171 2.883,0.256z"/>
    <path d="m29.771,224.19c2.196-4.587 4.392-9.175 6.587-13.762 0.652,0.358 1.305,0.716 1.957,1.074-2.907,4.165-3.132,9.874-8.853,12.416-0.011-0.009 0.309,0.272 0.309,0.272z"/>
  </g>
</svg>
