<?xml version='1.0' encoding='iso-8859-1'?>
<!DOCTYPE svg PUBLIC '-//W3C//DTD SVG 1.1//EN' 'http://www.w3.org/Graphics/SVG/1.1/DTD/svg11.dtd'>
<svg version="1.1" xmlns="http://www.w3.org/2000/svg" viewBox="0 0 443.027 443.027" xmlns:xlink="http://www.w3.org/1999/xlink" enable-background="new 0 0 443.027 443.027">
  <g>
    <path d="m443.027,123.313c-0.685,3.156-1.726,6.283-1.992,9.474-1.066,12.822-2.199,25.653-2.671,38.503-0.218,5.944-2.939,9.028-7.605,12.24-20.781,14.308-43.872,24.061-66.584,34.549-48.193,22.255-95.117,46.847-140.065,75.142-8.707,5.481-17.682,10.556-26.189,16.325-5.798,3.932-11.181,3.983-17.673,1.821-19.33-6.435-37.243-15.737-55.036-25.456-21.306-11.639-42.823-22.894-64.297-34.221-13.982-7.375-27.983-14.722-42.12-21.792-5.497-2.749-8.053-7.023-9.341-12.749-2.58-11.467-5.443-22.87-8.243-34.287-2.425-9.888-1.816-13.256 7.531-18.122 21.533-11.21 43.031-22.71 65.394-32.058 55.343-23.134 111.195-45.049 166.761-67.652 9.801-3.987 18.924-5.011 29.755-2.597 41.707,9.3 82.873,20.161 123.051,34.839 12.037,4.397 24.794,6.802 37.157,10.342 4.157,1.19 8.117,3.069 12.168,4.633-0.001,3.69-0.001,7.379-0.001,11.066zm-359.811,95.889c-4.396-2.421-8.792-4.842-14.09-7.759-3.461,9.832-6.575,18.679-9.981,28.355 3.957,1.93 7.365,3.591 10.873,5.302 4.749-9.379 9.033-17.84 13.316-26.301-2.567,9.105-5.134,18.209-7.921,28.095 3.957,1.923 7.799,3.79 12.482,6.066 3.455-9.636 6.625-18.479 10.147-28.301-5.392-2.036-10.078-3.805-14.826-5.457zm48.731,22.577c-4.377-2.873-8.753-5.746-14.029-9.209-3.926,11.269-7.341,21.069-10.8,30.998 3.801,2.158 6.614,3.755 10.093,5.73 2.5-5.272 4.635-10.268 7.199-15.035 2.366-4.4 5.192-8.554 7.815-12.816-3.515,9.871-7.03,19.741-10.749,30.183 5.366,2.924 10.128,5.518 14.915,8.127 4.31-10.499 8.42-20.512 12.819-31.227-6.383-2.546-11.774-4.697-17.263-6.751zm176.222-36.973c-0.08-0.358-0.097-1.001-0.249-1.034-5.48-1.224-18.263,4.185-19.953,9.173-3.718,10.972-6.819,22.152-10.54,34.469 8.772-2.694 14.781-5.866 17.862-14.109 3.694-9.884 8.709-19.273 13.152-28.877-3.412,10.607-6.824,21.214-10.529,32.73 9.214-2.929 16.703-5.966 19.548-15.995 2.07-7.295 5.861-14.101 9.638-22.874 1.257,10.672-6.451,17.682-4.158,26.897 3.101-2.505 5.628-5.314 7.399-8.538 5.952-10.84 11.635-21.827 17.432-32.805-4.336,11.347-8.673,22.695-13.381,35.015 8.064-2.137 13.47-4.836 14.969-12.645 0.673-3.505 2.868-6.727 4.433-10.048 3.847-8.162 7.729-16.308 11.598-24.459-7.853,2.202-15.778,3.519-17.793,12.541 0-1.265 0-2.53 0-4.891-11.876,6.403-22.792,12.027-33.392,18.195-2.545,1.477-4.038,4.765-6.036,7.255zm76.998-39.169c0-2.044 0-4.087 0-6.268-10.41,3.015-16.265,9.329-19.398,19.293-2.612,8.308-7.08,16.029-10.624,24.054-0.908,2.056-1.43,4.282-2.279,6.89 7.976-0.83 11.755-4.6 14.705-10.897 5.364-11.447 11.89-22.348 17.931-33.478-4.746,12.055-9.493,24.111-14.502,36.83 6.867-2.107 11.34-4.835 14.097-12.109 4.384-11.568 10.951-22.308 16.594-33.399-0.085,13.8-8.416,24.422-14.447,38.065 14.043-5.532 25.001-12.58 35.674-20.122 1.095-0.774 2.257-2.19 2.417-3.434 1.623-12.549 4.705-24.996 3.602-39.208-11.258,6.961-21.211,13.772-31.79,19.409-6.294,3.356-10.138,7.79-11.98,14.374zm-374.878,8.022c11.282,5.531 20.449,9.339 28.926,14.319 20.861,12.256 42.97,21.713 65.142,31.233 17.529,7.526 34.11,17.229 51.454,25.224 14.122,6.509 27.764,13.357 43.991,2.01 12.143-8.491 26.886-13.335 40.632-19.444 13.543-6.019 26.298-13.56 39.453-20.299 32.781-16.792 65.161-34.399 97.315-52.372 15.733-8.794 30.632-19.085 45.834-28.816 2.244-1.436 4.076-3.516 6.549-5.695-13.499-3.908-26.086-6.838-38.167-11.179-40.256-14.465-81.176-26.402-123.087-35.075-8.025-1.661-15.106-1.213-22.555,1.782-32.809,13.193-65.592,26.462-98.595,39.154-39.511,15.194-79.834,28.387-117.165,48.807-5.779,3.161-11.666,6.129-19.727,10.351zm175.92,88.025c-11.727-3.597-22.815-6.999-34.723-10.652-3.912,10.161-7.778,20.201-11.771,30.572 15.568,7.203 29.343,16.312 46.493,18.827 0.001-13.2 0.001-25.575 0.001-38.747zm78.638-39.4c-6.519,3.123-10.559,4.7-14.19,6.94-1.989,1.227-4.111,3.325-4.759,5.459-3.584,11.805-6.734,23.743-10.698,38.036 5.945-3.963 11.975-5.773 13.758-9.576 5.82-12.409 10.091-25.542 15.889-40.859zm-51.587,23.97c-8.299,3.903-14.446,6.793-19.925,9.37 0,8.279-0.003,15.232 0.001,22.185 0.007,12.725 0.009,12.725 3.991,19.577 5.149-16.526 10.169-32.635 15.933-51.132zm71.217-32.743c-10.461,2.509-16.578,6.56-18.71,16.16-1.655,7.453-4.98,14.527-7.382,21.829-0.686,2.086-0.742,4.379-1.516,9.312 6.209-4.474 12.129-6.526 13.951-10.471 5.273-11.418 8.898-23.596 13.657-36.83zm-181.159,47.968c4.082-10.536 7.755-20.016 11.788-30.424-5.161-1.883-9.405-3.432-13.992-5.105-3.449,10.382-6.526,19.643-9.701,29.2 4.109,2.184 7.291,3.876 11.905,6.329zm139.632-27.138c-11.062,1.727-15.126,6.947-16.476,15.738-1.218,7.932-4.131,15.594-6.097,23.426-0.545,2.171-0.378,4.521-0.721,9.394 4.48-4.038 8.315-5.886 9.439-8.785 4.869-12.56 8.946-25.426 13.855-39.773zm-177.041-23.761c-4.6-1.891-8.123-3.339-12.269-5.044-3.333,8.958-6.343,17.047-9.541,25.643 4.149,2.266 7.463,4.076 11.443,6.251 3.658-9.475 6.896-17.861 10.367-26.85zm158.304,32.187c-8.441,3.108-8.418,3.114-9.918,8.581-2.817,10.264-5.702,20.511-8.468,30.789-0.699,2.595-1.055,5.283-1.568,7.929 4.185-1.558 7.877-3.654 8.799-6.613 4.016-12.899 7.228-26.049 11.155-40.686zm-187.286-47.618c-3.91-1.996-7.173-3.661-10.971-5.6-2.8,10.975-5.201,20.39-7.723,30.276 3.203,1.267 5.687,2.25 8.626,3.413 3.47-9.683 6.628-18.493 10.068-28.089zm-5.819,29.906c3.301,1.238 5.826,2.185 8.953,3.357 3.414-8.655 6.559-16.629 9.889-25.069-3.47-1.922-6.141-3.401-9.605-5.32-3.11,9.1-5.911,17.298-9.237,27.032zm-14.701-19.836c0.515,0.092 1.03,0.184 1.545,0.277 1.724-5.608 3.449-11.215 5.311-17.27-4.285-1.95-7.593-3.455-12.589-5.728 2.244,8.896 3.988,15.809 5.733,22.721z"/>
    <path d="m376.599,319.911c0.014,8.328-5.845,17.393-16.855,22.084-9.028,3.847-18.598,7.226-28.246,8.644-19.558,2.875-39.312,4.499-59.021,6.226-15.837,1.389-25.593-11.958-19.774-26.765 5.166-13.146 15.986-19.848 28.8-23.5 17.937-5.112 35.63-11.493 54.775-10.96 6.178,0.173 12.398-1.506 18.592-1.461 14.282,0.105 22.791,8.8 21.729,25.732zm-101.872,29.248c10.436-0.807 19.209-1.771 28.005-2.069 6.389-0.217 10.319-3.249 12.543-8.849 1.217-3.063 2.292-6.238 2.935-9.462 2.408-12.066-6.165-21.784-18.242-19.553-8.572,1.584-16.996,4.727-25.011,8.253-4.15,1.826-7.735,5.609-10.74,9.206-4.497,5.382-6.362,11.752-2.727,18.46 3.452,6.37 9.68,3.619 13.237,4.014z"/>
    <path d="m127.436,381.885c-9.386-2.875-19.22-4.774-28.058-8.84-15.019-6.911-29.478-15.06-44.014-22.978-3.479-1.895-6.938-4.454-9.367-7.528-6.948-8.789-6.857-18.126-0.473-27.583 5.76-8.532 14.671-12.011 25.066-9.401 4.259,1.069 8.417,2.65 12.493,4.311 9.19,3.744 18.29,7.709 27.446,11.538 12.656,5.293 23.927,12.773 34.74,21.155 7.199,5.581 10.088,11.916 7.818,21.044-2.369,9.523-8.759,14.091-17.489,16.322-2.452,0.627-5.121,0.404-7.691,0.571-0.157,0.461-0.314,0.925-0.471,1.389zm-28.965-56.611c-10.65-5.771-20.867-10.525-32.104-12.02-3.391-0.451-8.033,1.27-10.659,3.613-9.082,8.101-8.402,19.224 1.84,25.879 7.835,5.092 16.583,8.779 26.046,13.67 0.365-13.152 4.447-23.288 14.877-31.142z"/>
    <path d="m351.705,287.759c-5.407-2.022-11.088-3.524-16.159-6.186-8.187-4.298-10.166-12.228-3.876-19.056 5.347-5.804 12.017-10.952 19.049-14.526 15.904-8.084 33.513-10.331 51.048-12.085 6.46-0.646 13.158-1.08 19.518-0.109 13.017,1.989 18.057,13.423 10.812,24.304-4.719,7.086-10.907,13.217-19.628,15.111-18.599,4.038-37.294,7.638-55.963,11.351-1.413,0.281-2.931,0.037-4.4,0.037-0.133,0.387-0.267,0.774-0.401,1.159zm.301-7.711c7.274-0.854 14.615-1.343 21.803-2.667 6.947-1.279 12.548-10.955 11.032-17.953-2.043-9.423-9.014-14.382-17.813-11.174-8.164,2.976-15.878,7.344-23.481,11.646-4.469,2.529-8.626,6.081-8.312,12.032 0.177,3.352 8.321,7.633 14.565,8.099 0.731,0.055 1.47,0.008 2.206,0.017z"/>
    <path d="m196.361,149.519c6.036-14.719 15.586-25.349 30.306-30.785 11.153-4.118 21.801-3.599 30.906,4.778 8.843,8.136 12.397,18.417 8.617,29.981-2.828,8.65-6.81,16.981-10.902,25.143-3.449,6.88-8.073,13.164-11.669,19.981-3.575,6.778-8.646,10.339-16.406,10.858-23.152,1.549-46.319,1.704-69.122-2.614-7.58-1.436-15.251-5.636-21.447-10.426-10.91-8.432-11.003-18.501-1.132-28.165 12.975-12.701 29.216-17.823 46.992-18.717 4.368-0.221 8.755-0.034 13.857-0.034zm4.072,7.731c-20.036-1.712-28.043-1.264-41.596,4.906-6.55,2.982-12.82,7.251-18.113,12.133-5.599,5.165-5.192,11.585 0.876,16.135 4.843,3.63 10.814,7.492 16.53,7.912 21.929,1.607 43.953,2.036 65.95,2.42 2.719,0.048 6.626-2.119 8.047-4.443 8.025-13.126 15.994-26.347 22.806-40.118 2.413-4.877 2.608-11.528 1.898-17.126-1.351-10.661-11.424-16.726-21.897-14.498-10.562,2.247-19.109,7.575-25.087,16.565-3.411,5.129-6.244,10.643-9.414,16.114z"/>
    <path d="m185.076,121.107c-9.804,13.169-12.044,14.116-25.673,10.975-4.193,4.719-8.645,9.588-16.299,9.021-1.606-0.119-3.962,1.819-4.994,3.434-4.058,6.353-9.206,9.444-16.507,6.414-7.556,14.507-11.298,15.98-27.35,10.66-2.315,5.93-2.23,14.239-11.288,14.971-7.646,0.619-14.508-0.764-20.823-9.974 5.246,1.577 8.196,2.4 11.105,3.351 11.339,3.704 14.489,1.584 15.426-10.383 0.112-1.422 0.457-2.826 0.92-5.588 3.09,1.032 5.678,1.731 8.135,2.746 9.779,4.041 13.141,2.466 16.075-7.468 0.803-2.717 2.038-5.306 3.537-9.135 3.851,2.055 6.886,3.674 9.92,5.293 0.759,0.759 1.518,1.518 2.277,2.277 1.148-2.285 2.263-4.588 3.452-6.851 2.204-4.192 5.026-7.157 10.449-6.154 4.238,0.784 6.849-1.864 8.978-5.123 1.544-2.363 3.16-4.679 4.35-6.436 1.817,0 2.743-0.295 3.214,0.044 9.648,6.946 11.623,6.778 18.255-2.788 2.945-4.248 5.352-7.539 11.58-4.981 1.796,0.737 6.062-2.139 7.904-4.406 3.956-4.869 7.869-7.873 14.799-7.689 3.724,0.099 7.896-3.196 11.244-5.769 4.463-3.429 8.303-7.065 14.777-5.227 1.942,0.551 4.594-1.443 6.934-2.234 4.49-1.519 8.911-3.391 13.521-4.327 1.806-0.367 4.043,1.388 5.996,4.398-2.566,0.986-5.161,1.904-7.691,2.974-3.662,1.549-7.273,3.221-10.915,4.817-1.991,0.872-4.677,2.972-5.895,2.329-7.191-3.792-10.812,1.379-15.169,5.181-4.702,4.103-10.697,3.834-16.306,5.245-5.081,1.278-8.772,7.356-13.731,10.158-2.496,1.409-6.446,0.245-10.207,0.245z"/>
    <path d="m160.065,284.54c2.834-6.789 5.668-13.578 8.501-20.367 0.736,0.296 1.472,0.592 2.208,0.888-2.735,6.829-5.47,13.657-8.204,20.486-0.835-0.336-1.67-0.672-2.505-1.007z"/>
  </g>
</svg>
