<?xml version="1.0" encoding="iso-8859-1"?>
<!-- Generator: Adobe Illustrator 16.0.0, SVG Export Plug-In . SVG Version: 6.00 Build 0)  -->
<!DOCTYPE svg PUBLIC "-//W3C//DTD SVG 1.1//EN" "http://www.w3.org/Graphics/SVG/1.1/DTD/svg11.dtd">
<svg version="1.1" id="Capa_1" xmlns="http://www.w3.org/2000/svg" xmlns:xlink="http://www.w3.org/1999/xlink" x="0px" y="0px"
	 width="193.277px" height="193.277px" viewBox="0 0 193.277 193.277" style="enable-background:new 0 0 193.277 193.277;"
	 xml:space="preserve">
<g>
	<path d="M189.913,131.789c-3.643,0.005-11.629-1.456-15.9,0.428c-0.33-2.42-2.104-4.845-3.281-6.861
		c-2.096-3.595-4.432-7.053-6.752-10.506c-0.981-1.462-2.457-1.709-3.735-1.213c-0.271-5.742-1.101-11.44-1.759-17.148
		c-0.447-3.869-0.352-8.01-0.932-11.932c7.457,5.428,14.121,12.044,19.609,19.98c3.496,5.057,11.822,0.268,8.294-4.848
		c-17.481-25.346-48.283-39.888-80.343-42.851c11.742-11.086,12.732-36.078-5.079-42.425c-8.202-2.922-16.877,3.818-20.287,10.804
		c-3.324,6.808-0.846,19.512,9.234,16.978c2.477-0.623,3.096-3.74,1.452-5.499c-2.735-2.925-4.903-3.506-2.708-7.794
		c1.78-3.479,5.826-6.92,9.94-5.896c7.034,1.75,8.306,12.973,7.052,18.558c-1.562,6.945-6.438,13.565-13.451,14.721
		c-36.159,0.43-71.728,15.629-89.591,46.788c-2.487,4.338,3.689,7.631,6.531,3.817c4.88-6.55,10.684-12.34,17.152-17.371
		c0.551,6.57,1.493,13.098,0.983,19.703c-0.801,0.437-1.474,1.129-1.724,2.028c-1.364,4.905-3.522,9.637-3.553,14.801
		c-0.258,0.354-0.519,0.707-0.769,1.065c-5.978-1.394-11.796-1.672-17.744,0.209c-3.213,1.017-3.267,4.71-0.858,6.567
		c4.133,3.184,8.572,6.06,12.202,9.834c4.276,4.445,1.595,10.589-0.664,15.316c-1.207,2.526,0.849,6.791,4.159,5.408
		c7.303-3.049,14.316-6.838,20.956-11.152c3.03,4.059,6.766,7.364,11.628,9.254c2.495,0.969,4.319-1.803,3.936-3.937
		c-2.206-12.291,1.33-20.495,9.305-29.775c1.879-2.187,0.679-5.588-2.353-5.682c-5.298-0.163-10.527-1.064-15.759-0.015
		c0.096-0.991-0.389-1.988-0.999-2.717c-3.905-4.665-9.36-7.826-14.392-11.125c1.345-7.528,0.733-15.354,0.95-22.964
		c0.006-0.226-0.071-0.394-0.108-0.589c17.766-12.071,39.712-18.819,61.704-19.618c-0.228,0.442-0.384,0.949-0.386,1.565
		c-0.029,13.055,1.694,26.619,5.045,39.313c-7.099-1.706-14.895-1.584-21.716-0.776c-3.411,0.404-6.53,4.836-3.167,7.647
		c7.819,6.537,10.768,16.198,10.587,26.146c-0.049,2.695-0.497,5.045-1.172,7.186c-0.243,0.312-0.358,0.667-0.291,1.039
		c-2.803,7.486-9.512,11.303-18.862,11.415c-2.194,0.025-3.018,2.167-2.323,3.751c-0.661,1.477-0.64,3.312,0.628,4.91
		c18.469,23.312,46.111,6.594,54.931-16.128c4.146-10.682,5.149-23.023-0.946-33.176c-3.133-5.218-7.779-8.515-13.072-10.552
		c-1.912-13.662-2.608-27.004-2.834-40.776c-0.012-0.645-0.195-1.166-0.451-1.621c18.925,0.247,37.596,4.87,53.334,14.458
		c-1.307,4.63-0.187,9.408,0.526,14.133c1.056,6.987,2.702,14.012,4.364,20.877c0.154,0.639,0.568,1.024,1.062,1.23
		c-1.258,2.105-3.307,4.051-4.713,5.934c-1.59,2.125-2.693,4.45-3.332,7.005c-3.646,0.247-7.004,3.88-11.177,3.372
		c-3.614-0.44-4.383,4.749-1.735,6.408c1.274,0.801,2.439,1.764,3.574,2.773c-0.859,0.575-1.723,1.155-2.535,1.669
		c-1.506,0.952-0.184,3.215,1.394,2.384c1.164-0.614,2.319-1.245,3.478-1.873c1.37,1.357,2.719,2.748,4.127,4.058
		c-0.604,0.935-1.076,1.901-1.556,2.867c-0.638,0.485-1.303,0.943-1.933,1.438c-0.807,0.632-0.344,1.61,0.404,2
		c-1.279,3.265-2.322,6.646-3.852,10.112c-1.171,2.652,0.718,5.771,3.839,4.993c3.339-0.831,6.459-2.069,9.464-3.536
		c0.574,0.625,1.529,0.843,2.293,0.014c0.932-1.011,1.904-1.957,2.905-2.859c1.854-1.137,3.683-2.338,5.472-3.635
		c2.991,5.469,7.398,9.491,13.19,12.376c2.394,1.192,5.592-0.762,4.713-3.623c-1.704-5.55-3.513-11.243-1.935-17.029
		c0.175-0.638,0.43-1.251,0.705-1.856c0.824-0.577,1.655-1.148,2.367-1.84c0.687-0.667,0.68-1.561,0.293-2.249
		c2.713-3.197,6.387-5.896,9.283-8.249C194.577,135.542,192.582,131.786,189.913,131.789z M15.411,134.969
		c-1.437-1.159-2.931-2.274-4.444-3.316c2.111-0.541,4.315-0.616,6.666-0.447C16.841,132.498,16.099,133.759,15.411,134.969z
		 M46.999,154.634c-2.159-1.087-4.04-2.523-5.782-4.337c0.234-1.014-0.033-2.07-0.615-2.895c0.403-0.376,0.763-0.786,1.176-1.155
		c2.112-1.88,4.554-3.443,6.723-5.273C47.163,145.208,46.634,149.671,46.999,154.634z M51.754,129.239
		c0.904,0.025,1.806,0.031,2.712,0.104c-1.731,2.443-3.143,4.891-4.294,7.386c-0.445-0.291-0.987-0.442-1.584-0.139
		c-3.417,1.74-6.336,4.757-9.071,7.396c-0.65,0.628-1.208,1.34-1.826,1.999c-0.492,0.033-1.003,0.14-1.538,0.426
		c-4.374,2.347-8.628,4.856-12.99,7.178c3.438-2.539,6.531-5.861,9.467-8.583c3.13-2.902,6.294-5.761,9.551-8.519
		C45.211,133.923,48.752,131.842,51.754,129.239z M41.856,126.235c-0.01,1.206,0.637,2.38,1.668,3.034
		c-3.385,2.608-6.496,5.793-9.277,8.388c-3.549,3.313-7.392,6.632-11.034,10.076c-0.174-1.765-0.602-3.547-1.43-5.36
		c-0.165-0.361-0.429-0.682-0.63-1.028c3.248-2.368,6.353-4.906,9.333-7.629c2.92-2.668,6.265-5.312,9.186-8.204
		C40.357,125.928,41.08,126.205,41.856,126.235z M33.007,119.741c0.441,0.308,0.898,0.589,1.331,0.909
		c0.84,0.62,1.669,1.521,2.529,2.417c-2.14,1.931-4.113,4.121-6.078,6.073c-3.547,3.524-7.192,6.929-11.1,10.039
		c-0.552-0.671-1.121-1.335-1.759-1.964c1.923-2.912,3.991-5.713,6.188-8.417c0.982-0.252,1.864-0.999,2.014-2.309
		c0.004-0.028,0.013-0.056,0.016-0.085C28.317,124.041,30.782,122.019,33.007,119.741z M97.135,116.393
		c-1.249,0.794-2.459,1.608-3.538,2.252c-1.728,1.031-3.539,2.06-5.168,3.289c-1.042-2.589-2.333-5.065-3.875-7.349
		C88.865,114.562,93.228,115.008,97.135,116.393z M101.372,159.036c-7.939,4.354-15.902,7.687-24.385,10.406
		c-2.059-0.856-4.034-2.057-5.888-3.519c3.105-0.402,5.941-1.592,8.481-3.292c0.18,0.92,1.106,1.662,2.101,0.98
		c4.685-3.207,9.471-6.215,14.447-8.951c3.385-1.86,7.034-3.271,10.586-4.835C105.401,153.1,103.534,156.184,101.372,159.036z
		 M108.481,144.505c-8.191,2.417-16.321,7.885-23.437,13.031c2.327-2.971,4.114-6.517,5.168-10.402
		c0.062-0.229,0.072-0.473,0.129-0.702c2.159-0.965,4.281-2.015,6.393-3.142c4.282-2.283,8.958-4.404,13.108-7.02
		C109.717,139.055,109.196,141.843,108.481,144.505z M109.733,132.443c-6.646,1.778-12.519,6.111-18.625,9.803
		c0.259-2.127,0.381-4.278,0.284-6.445c2.222-1.791,4.511-3.493,6.931-5.04c3.055-1.954,6.457-3.319,9.542-5.187
		C108.942,127.728,109.495,130.056,109.733,132.443z M101.44,118.514c1.707,1.081,3.222,2.484,4.553,4.162
		c-5.283,1.592-10.534,5.329-15.021,9.287c-0.338-2.435-0.811-4.853-1.564-7.197c1.953-1.1,3.998-2.123,5.91-3.174
		C97.156,120.581,99.416,119.662,101.44,118.514z M169.512,135.719c-4.211,1.473-8.175,4.345-11.783,6.703
		c-1.491,0.974-2.959,2.001-4.436,3.01c-0.133-0.125-0.215-0.275-0.369-0.388c-1.568-1.159-2.99-2.494-4.378-3.867
		c1.673-0.907,3.337-1.831,5.025-2.706c4.506-2.336,9.22-3.447,13.875-5.014C168.032,134.443,168.723,135.22,169.512,135.719z
		 M145.823,138.453c-0.027-0.026-0.055-0.054-0.081-0.081c2.586-1.306,4.813-3.297,5.819-5.733c0.638-0.119,1.242-0.521,1.552-1.318
		c1.407-3.641,4.446-7.039,7.483-9.955c1.351,2.083,2.721,4.154,3.998,6.284c0.275,0.458,0.547,1.026,0.825,1.628
		C158.697,130.297,151.928,134.381,145.823,138.453z M153.618,150.419c0.421-0.477,0.677-0.985,0.822-1.502
		c1.727-1.089,3.447-2.187,5.201-3.224c4.571-2.701,9.877-4.604,14.061-7.845c1.74,0.871,4.162,1.139,6.71,1.116
		c-2.578,2.54-4.813,5.377-6.211,8.633c-2.749,1.561-5.414,3.374-7.924,4.924c-0.66,0.407-1.23,0.926-1.872,1.356
		c-0.881-0.767-2.096-1.029-3.387-0.101c-4.105,2.955-8.313,5.517-12.873,7.417C149.434,157.346,150.821,153.577,153.618,150.419z
		 M173.339,163.27c-2.399-1.645-4.436-3.74-6.313-6.203c0.47-0.287,0.923-0.588,1.398-0.869c1.336-0.788,2.771-1.5,4.227-2.204
		C172.385,157.088,172.668,160.198,173.339,163.27z"/>
</g>
<g>
</g>
<g>
</g>
<g>
</g>
<g>
</g>
<g>
</g>
<g>
</g>
<g>
</g>
<g>
</g>
<g>
</g>
<g>
</g>
<g>
</g>
<g>
</g>
<g>
</g>
<g>
</g>
<g>
</g>
</svg>
