<?xml version="1.0" encoding="iso-8859-1"?>
<!-- Generator: Adobe Illustrator 16.0.0, SVG Export Plug-In . SVG Version: 6.00 Build 0)  -->
<!DOCTYPE svg PUBLIC "-//W3C//DTD SVG 1.1//EN" "http://www.w3.org/Graphics/SVG/1.1/DTD/svg11.dtd">
<svg version="1.1" id="Capa_1" xmlns="http://www.w3.org/2000/svg" xmlns:xlink="http://www.w3.org/1999/xlink" x="0px" y="0px"
	 width="192.341px" height="192.342px" viewBox="0 0 192.341 192.342" style="enable-background:new 0 0 192.341 192.342;"
	 xml:space="preserve">
<g>
	<g>
		<path d="M135.804,37.339c-0.097-0.376-0.62-1.951-0.218-0.615c-0.005,0.018-0.009,0.037-0.014,0.055
			c-0.114-0.416-0.312-0.792-0.591-1.114c-0.96-3.86-7.123-3.672-7.155,0.783c-0.019,2.633-0.038,5.266-0.057,7.899
			c-0.031,4.379,5.967,4.714,7.189,1.154c0.216-0.34,0.386-0.714,0.425-1.154c0.038-0.439-0.003-0.9,0.006-1.348
			c0.088-1.081,0.152-2.161,0.393-3.231C135.954,39.001,136.002,38.107,135.804,37.339z"/>
		<path d="M149.837,1.974c-13.082-4.189-24.057-1.368-32.729,5.224c-0.254-0.416-0.599-0.802-1.148-1.094
			c-16.244-8.626-28.668,3.758-24.017,18.55c-13.64,0.407-16.283,16.741-6.696,24.43c-7.668,4.186-11.114,12.234-6.493,18.019
			c-3.517,1.206-6.497,3.489-7.935,7.449c-2.08,5.728-0.628,11.36,2.422,16.177c-4.625-0.295-9.2,0.748-12.877,4.094
			c-3.215,2.925-2.791,6.304-0.928,9.201c-4.004-1.031-8.448-0.923-11.915,0.267c-3.349,1.149-5.295,3.457-6.403,6.241
			c-2.868-3.565-6.849-6.106-11.867-6.599c-9.074-0.887-14.466,4.74-15.318,12.638c-0.909,0.726-1.533,1.903-1.461,3.166
			c-10.007,10.625,9.74,28.251,17.056,33.675c11.599,8.598,31.423,19.233,47.454,19.338c-2.676,7.659,0.905,15.992,9.39,18.92
			c4.119,1.42,8.551,0.545,11.869-2.19c1.054-0.869,1.845-1.929,2.451-3.095c2.438,2.929,6.065,4.805,9.835,5.469
			c5.105,0.898,10.293-0.418,14.056-4.049c3.421-3.301,5.564-10.53,4.25-15.711c2.159,0.22,4.323,0.43,6.299,1.424
			c2.113,1.064,3.691-0.024,4.382-1.533c28.45-0.751,27.577-26.926,22.15-52.743c2.972,1.438,6.312,1.974,9.427,0.63
			c4.154-1.789,5.854-6.648,5.778-10.873c-0.089-5.021-2.666-9.625-6.766-12.451c-2.254-1.554-5.029-2.173-7.714-2.375
			c-1.841-0.137-4.572-0.091-6.626,0.772c-0.812-3.234-1.555-6.293-2.152-9.098c9.888,6.188,26.933-4.655,17.857-18.191
			c2.586-2.24,4.853-4.967,6.586-8.386C190.943,33.851,175.132,10.073,149.837,1.974z M170.574,41.012
			c-0.546,3.966-2.432,7.727-5.925,9.028c0.296-0.479,0.514-1.031,0.507-1.743c0.018-1.789,0.176-3.627-0.038-5.39
			c-0.018-1.279-0.042-2.557-0.153-3.825c-0.014-0.162-0.089-0.265-0.118-0.414c-0.036-0.253-0.109-0.472-0.196-0.69
			c-0.079-0.195-0.153-0.386-0.261-0.55c-0.114-0.172-0.247-0.312-0.392-0.452c-0.176-0.178-0.35-0.344-0.559-0.467
			c-0.106-0.062-0.219-0.1-0.331-0.15c-0.255-0.112-0.504-0.21-0.778-0.252c-0.185-0.032-0.365-0.022-0.553-0.025
			c-0.188,0.003-0.368-0.008-0.553,0.025c-0.274,0.042-0.524,0.14-0.779,0.252c-0.113,0.05-0.225,0.088-0.331,0.15
			c-0.209,0.124-0.382,0.289-0.56,0.467c-0.144,0.14-0.276,0.281-0.392,0.452c-0.105,0.164-0.18,0.355-0.26,0.55
			c-0.087,0.218-0.16,0.437-0.197,0.69c-0.029,0.149-0.104,0.252-0.118,0.414c-0.111,1.268-0.135,2.547-0.152,3.825
			c-0.215,1.763-0.057,3.602-0.038,5.39c-0.009,0.791,0.258,1.388,0.616,1.892c-11.16-2.797-3.481-20.488,7.216-22.061
			c0.049,0.09,0.069,0.183,0.136,0.27C169.372,32.383,171.294,35.775,170.574,41.012z M96.396,31.719
			c2.737,0.717,5.246-2.321,3.712-4.829c-5.996-9.809-0.214-21.644,12.362-15.536c-8.466,8.587-14.197,20.871-16.87,32.805
			c-0.166,0.741-0.294,1.496-0.444,2.243C83.33,44.223,81.885,27.918,96.396,31.719z M94.891,86.82
			c0.068,0.762,0.158,1.52,0.198,2.224c0.146,2.589,0.282,5.175,0.535,7.756c-1.726-0.252-3.476-0.923-5.027-1.5
			c1.031-1.633,1.975-3.245,2.715-4.79C93.895,89.295,94.412,88.063,94.891,86.82z M99.399,89.963
			c0.09-1.592,0.522-3.61,0.238-5.318c1.947,0.558,3.696,1.456,3.995,3.852c0.35,2.792-0.801,5.219-2.864,7.034
			c-0.572,0.503-1.194,0.809-1.835,1.025C99.143,94.362,99.275,92.166,99.399,89.963z M93.98,52.935
			c-0.728,4.588-1.341,9.215-2.068,13.807c-0.153-0.062-0.273-0.161-0.45-0.195c-2.022-0.393-4.213-0.586-6.4-0.53
			C78.574,60.722,85.617,53.807,93.98,52.935z M86.6,71.988c0.724,0.235,1.41,0.488,2.222,0.681
			c0.767,0.182,1.366-0.024,1.801-0.399c0.02,0.003,0.044,0.004,0.064,0.007c0.09,0.012,0.158-0.025,0.244-0.022
			c-1.44,7.405-3.552,14.6-7.499,21.21c-4.242-3.805-7.645-8.223-7.657-14.155C75.763,73.189,81.492,71.922,86.6,71.988z
			 M66.897,97.202c4.136-1.741,9.172-0.685,13.078,1.048c0.052,0.023,0.106,0.018,0.158,0.039
			c-3.203,4.036-7.474,8.229-12.34,12.041c0.015-0.188-0.021-0.379-0.044-0.57c0.52-0.42,0.745-1.16,0.15-1.813
			C64.896,104.652,60.615,99.848,66.897,97.202z M53.141,109.209c4.357-0.279,7.826,2.459,11.934,3.139
			c0.01,0.002,0.016-0.006,0.026-0.004c-5.872,4.234-12.408,7.77-18.941,9.828C45.25,116.102,45.662,109.686,53.141,109.209z
			 M64.562,133.221c-0.67,2.058-2.47,3.719-4.434,4.988c-1.01-2.701-1.685-5.574-2.048-8.424c-0.199-1.556-0.145-3.102-0.06-4.646
			c1.029-0.555,2.065-1.084,3.079-1.693C63.726,126.147,65.818,129.359,64.562,133.221z M57.846,139.481
			c-0.313,0.146-0.639,0.329-0.939,0.452c-2.454,0.99-5.346,1.558-8.026,1.101c0.601-4.2,1.793-8.343,2.122-12.538
			c0.964-0.389,1.921-0.861,2.881-1.3C54.19,131.518,55.879,135.891,57.846,139.481z M47.294,129.865
			c-1.094,3.09-1.444,6.629-1.457,9.941c-2.77-1.827-3.551-5.346-3.555-8.584C43.946,130.875,45.619,130.409,47.294,129.865z
			 M40.274,123.336l0.006-0.002c0.012,0.084,0.02,0.174,0.033,0.258c-8.369,1.388-16.322-0.148-22.248-6.623
			c-0.001-0.002-0.003-0.002-0.004-0.004C21.583,104.105,38.771,110.377,40.274,123.336z M160.762,100.399
			c1.896-0.108,3.771,0.214,5.448,1.114c2.504,1.346,4.129,4.216,4.429,6.73c0.308,2.574-0.36,5.062-1.975,6.182
			c-2.34,1.625-5.65,0.174-8.334-1.199c-0.986-4.219-2.038-8.365-3.053-12.34C158.41,100.774,159.581,100.467,160.762,100.399z
			 M152.757,75.056c5.046-0.449,9.831-1.8,14.058-4.15C172.997,81.976,154.698,88.229,152.757,75.056z M117.259,58.793
			c-2.985-1.986-5.54,1.875-3.96,4.409c-5.124,4.487-6.038,11.666,1.15,16.908c7.431,5.419,13.264,2.126,16.31-3.921
			c4.243,5.548,11.346,7.414,17,3.364c-0.224,0.265-0.409,0.562-0.509,0.917c-1.076,3.852-1.109,8.231-0.544,12.908
			c-2.457-1.156-5.018,0.357-7.163,1.951c-2.358,1.753-4.402,3.88-6.189,6.212c-7.572-2.459-16.703-1.787-24.235-1.197
			c-2.477,0.195-2.486,3.674,0,3.854c7.137,0.517,14.18,0.474,21.13,2.462c3.658,1.047,7.397,2.814,8.766,6.619
			c1.033,2.874,0.095,9.734-3.287,10.896c-4.616,1.584-13.017-7.127-16.165-9.553c-3.451-2.658-9.764-8.363-14.46-5.505
			c-1.621,0.987-1.946,3.839,0,4.737c7.639,3.527,13.529,8.621,20.566,13.279c6.165,4.08,13.617,5.252,17.67-2.086
			c4.194-7.595,2.201-16.385-4.729-21.004c1.119-1.065,2.302-2.063,3.541-2.963c1.675-1.218,3.713-1.984,5.217-3.412
			c5.37,28.787,28.466,66.319-14.157,69.358c-1.868-0.206-3.741-0.22-5.636-0.048c-14.703-4.096-10.245-27.217-5.315-38.172
			c1.588-3.528-2.982-6.299-5.216-3.049c-7.815,11.375-9.202,38.824,4.779,44.67c-0.854,3.99,1.062,8.265-1.892,11.879
			c-1.97,2.41-4.937,2.959-7.891,2.707c-2.684-0.229-5.511-1.926-7.045-4.112c-2.439-3.478,0.18-7.035-1.035-10.567
			c-0.255-0.742-1.011-1.281-1.814-1.031c-1.218,0.377-2.121,1.14-2.81,2.097c-2.016-0.321-4.432,0.905-4.151,3.276
			c0.369,3.115,0.915,7.215-1.453,9.695c-1.411,1.479-3.541,1.371-5.558,0.768c-5.96-1.781-7.034-7.911-5.166-13.016
			c2.262-1.096,1.88-5.088-0.714-5.693c-14.658-3.422-27.788-6.707-41.196-14.131c-6.75-3.737-12.901-8.344-18.199-13.951
			c-3.865-4.09-4.889-8.178-5.856-12.61c6.181,5.349,13.632,6.972,21.449,6.093c-0.978,4.963-0.273,10.107,4.24,13.274
			c4.58,3.216,10.84,2.841,15.913,1.126c5.226-1.768,10.134-5.471,12.167-10.732c2.237-5.791-0.185-11.433-4.096-15.734
			C75.357,113.635,83.002,106,88.296,98.7c6.193,5.142,15.461,4.336,19.809-2.685c3.989-6.441,1.181-14.581-5.869-17.129
			c-1.258-0.455-3.12-0.831-4.647-0.523c5.195-20.415,2.835-42.741,17.239-60.269c15.792-19.219,43.038-10.43,55.004,7.317
			c-0.297-0.121-0.541-0.318-0.859-0.407c-0.56-0.157-1.139-0.03-1.646,0.244c-2.795-1.013-5.348-1.196-8.72,0.294
			c-2.899,1.282-5.252,3.267-7.148,5.68c-0.439-0.216-0.938-0.3-1.45-0.286c-2.034-7.599-8.325-13.491-17.104-14.472
			c-13.678-1.528-22.803,9.461-21.436,22.695c1.206,11.669,12.095,19.073,23.289,18.712c6.734-0.217,11.724-3.365,14.79-7.985
			c1.813,2.695,4.599,4.878,8.212,6.171c8.297,2.969,15.297-2.522,18.002-10.019C174.219,74.829,133.022,69.273,117.259,58.793z
			 M144.859,75.072c-3.149,2.315-6.527,1.367-8.933-1.332C138.872,74.406,141.864,74.86,144.859,75.072z M126.865,70.976
			c-3.025,11.964-15.911,2.319-10.838-5.568C119.2,67.534,122.873,69.426,126.865,70.976z M146.813,38.576
			c-0.746,6.688-4.187,12.153-12.054,12.904c-7.91,0.755-15.1-4.247-17.017-11.891c-2.428-9.681,4.416-17.772,14.023-17.348
			C140.813,22.639,146.455,30.242,146.813,38.576z"/>
		<path d="M107.147,131.215c-1.47-2.894-4.368-5.488-7.738-5.625c-2.795-0.115-6.09,1.615-7.646,4.158
			c-0.456,0.072-0.853,0.348-1.12,0.821c-5.636,2.071-9.123,7.944-8.172,14.457c1.405,9.627,14.533,11.377,21.293,6.498
			C110.145,146.92,110.462,137.743,107.147,131.215z M88.198,144.053c-0.896-2.736-0.063-5.543,1.666-7.684
			c0.046,1.124,0.122,2.249,0.166,3.354c0.094,2.385,0.186,4.775,0.425,7.152C89.418,146.215,88.602,145.284,88.198,144.053z
			 M93.457,147.922c0.298-2.347,0.383-4.715,0.477-7.078c0.077-1.949,0.284-4.002,0.236-6.012c0.15-0.043,0.285-0.01,0.439-0.076
			c0.067-0.029,0.12-0.068,0.186-0.1c-0.086,4.139,0.548,8.532,0.757,12.377c0.021,0.379,0.153,0.668,0.322,0.918
			C95.066,148.029,94.251,148.043,93.457,147.922z M100.777,145.771c-0.493,0.537-1.119,0.949-1.797,1.296
			c0.001-0.013,0.008-0.022,0.009-0.035c0.25-4.593,1.082-9.95,0.566-14.731c0.608,0.184,1.236,0.776,1.999,2.182
			C103.359,137.805,103.416,142.893,100.777,145.771z"/>
	</g>
</g>
<g>
</g>
<g>
</g>
<g>
</g>
<g>
</g>
<g>
</g>
<g>
</g>
<g>
</g>
<g>
</g>
<g>
</g>
<g>
</g>
<g>
</g>
<g>
</g>
<g>
</g>
<g>
</g>
<g>
</g>
</svg>
