<?xml version="1.0" encoding="iso-8859-1"?>
<!-- Generator: Adobe Illustrator 16.0.0, SVG Export Plug-In . SVG Version: 6.00 Build 0)  -->
<!DOCTYPE svg PUBLIC "-//W3C//DTD SVG 1.1//EN" "http://www.w3.org/Graphics/SVG/1.1/DTD/svg11.dtd">
<svg version="1.1" id="Capa_1" xmlns="http://www.w3.org/2000/svg" xmlns:xlink="http://www.w3.org/1999/xlink" x="0px" y="0px"
	 width="190.711px" height="190.711px" viewBox="0 0 190.711 190.711" style="enable-background:new 0 0 190.711 190.711;"
	 xml:space="preserve">
<g>
	<g>
		<path d="M110.839,157.75c-0.414,0.191-0.741,0.439-0.999,0.725c-0.056-0.162-0.113-0.342-0.165-0.485
			c-0.992-2.762-1.726-5.617-2.381-8.487c0.146-0.279,0.328-0.545,0.468-0.826c0.571-1.146-0.047-2.33-0.978-2.789
			c10.944-2.311,21.201-6.983,29.149-14.116c23.343-20.951,27.377-56.591,16.234-84.733C139.683,15.505,106.04-1.381,73.449,0.088
			c-2.322,0.105-3.573,1.712-3.865,3.475c-1.561,0.457-2.597,2.406-1.143,4.031C80.073,20.602,99.223,34.718,95.868,54.45
			c-2.456,14.447-19.995,14.66-27.479,24.65c-7.971,10.64,3.222,16.264,13.733,15.702c-5.56,7.979-11.236,11.307-22.21,8.979
			c-7.602-1.613-15.251-5.656-21.569-10.486c-0.306-1.105-1.348-1.778-2.42-1.861c-0.139-0.118-0.305-0.222-0.443-0.341
			c-1.314-1.135-3.752,0.414-2.566,1.98c0.176,0.232,0.379,0.446,0.56,0.675c-4.963,35.566,25.777,53.894,57.166,53.835
			c-0.103,2.959-0.07,8.465,0.965,12.559c-10.872-0.043-29.514,2.863-27.427,17.361c2.05,14.237,28.597,13.461,38.308,13.028
			c11.778-0.524,31.035-1.446,37.549-13.228C149.248,160.642,122.244,152.461,110.839,157.75z M38.928,99.732
			c6.709,6.248,15.138,10.703,24.386,11.602c6.835,0.662,14.022-1.009,19.203-5.074c7.291,4.828,16.883,8.094,25.642,6.371
			c7.801-1.533,17.914-8.656,15.115-17.825c-0.555-1.821-3.032-2.687-4.419-1.167c-4.586,5.029-5.033,10.195-12.62,12.012
			c-6.533,1.563-13.864-0.538-19.903-3.354c1.517-2.149,2.648-4.652,3.165-7.589c0.092-0.521,0.038-0.996-0.075-1.442
			c1.476-0.605,2.818-1.368,3.905-2.331c1.716-1.518,0.434-4.935-1.945-4.697c-3.93,0.392-7.57,1.638-11.521,2.041
			c-6.442-2.417-7.14-4.745-2.094-6.985c2.691-1.906,5.676-3.487,8.498-5.188c6.28-3.789,12.684-8.289,15.214-15.475
			c7.596-21.575-9.036-38.598-24.417-52.09c27.517,1.031,50.74,12.573,64.923,37.146c13.535,23.448,9.368,57.913-9.163,77.418
			C104.496,152.915,44.53,141.635,38.928,99.732z M102.378,146.668c-0.061,0.734-0.054,1.475-0.038,2.213
			c-1.884,2.18-3.664,4.504-5.348,6.953c-0.018-0.064-0.051-0.135-0.066-0.199c-0.664-2.685-1.117-5.442-1.432-8.199
			C97.802,147.291,100.097,147.012,102.378,146.668z M72.447,177.059c-3.349-3.301,2.022-6.502,8.213-8.859
			c-1.742,3.641-3.861,6.998-6.433,10.242C73.62,177.998,72.985,177.588,72.447,177.059z M77.338,180.269
			c3.724-3.947,6.816-8.591,8.303-13.765c2.196-0.666,4.158-1.178,5.648-1.535c-3.229,5.648-6.169,11.449-9.011,16.869
			C80.562,181.438,78.872,180.973,77.338,180.269z M85.867,182.448c3.088-4.908,6.21-9.795,9.359-14.663
			c0.639-0.988,1.33-1.964,2.007-2.941c1.01-0.493,1.724-1.358,1.757-2.539v-0.004c1.433-2.015,2.853-4.043,4.235-6.092
			c0.081,0.439,0.159,0.883,0.239,1.318c0.29,1.575,0.345,3.919,1.092,5.634c-2.768,2.989-4.991,6.709-7.149,10.042
			c-1.993,3.081-3.597,6.355-5.018,9.713C90.226,182.857,88.03,182.734,85.867,182.448z M101.229,182.803
			c-1.86,0.084-3.905,0.143-6.008,0.151c1.498-2.786,3.138-5.491,5.006-8.103c2.318-3.242,5.293-6.186,7.523-9.523
			c1.732-0.023,2.501-0.844,2.766-1.962c0.563,0.476,1.265,0.783,2.058,0.792c0.746,0.01,1.493-0.01,2.24-0.038
			c-1.17,2.526-2.203,5.151-3.485,7.569c-2.097,3.949-4.622,7.635-7.568,10.992C102.908,182.723,102.055,182.764,101.229,182.803z
			 M109.697,182.299c1.766-2.193,3.424-4.471,4.914-6.888c2.127-3.448,4.523-7.473,5.824-11.519c0.603-0.01,1.196,0.025,1.792,0.048
			c-0.479,1.269-0.81,2.651-1.257,3.819c-1.537,4.02-3.616,7.949-6.474,11.185c-0.871,0.985-0.514,2.173,0.265,2.799
			C113.077,181.98,111.382,182.16,109.697,182.299z M124.446,171.521c0.876-1.638,2.521-4.224,3.1-6.61
			c0.756,0.271,1.5,0.619,2.233,1.028c-0.653,1.228-1.202,2.524-1.785,3.754c-1.282,2.704-2.574,5.376-4.141,7.93
			c-0.454,0.741-0.362,1.431-0.021,1.972c-2.043,0.693-4.163,1.252-6.349,1.658C120.325,178.394,122.548,175.069,124.446,171.521z
			 M128.765,177.451c1.093-1.796,2.127-3.623,3.115-5.488c0.432-0.813,0.923-1.615,1.402-2.42
			C134.389,172.639,131.627,175.795,128.765,177.451z"/>
		<path d="M119.056,50.696c-3.754,0.93-6.341,4.095-7.347,7.697c-1.334,4.771,0.985,10.053,3.566,13.943
			c1.503,2.265,5.766,0.844,4.637-1.955c-1.082-2.684-2.048-5.668-1.407-8.58c0.224-1.02,0.536-1.653,1.113-2.499
			c0.138-0.201,1.308-0.953,1.151-0.893c1.319-0.517,2.418-0.451,3.863,0.737c2.439,2.006,3.152,5.099,3.856,8.023
			c0.981,4.076,7.975,3.275,7.433-1.006C134.862,57.799,128.732,48.298,119.056,50.696z"/>
	</g>
</g>
<g>
</g>
<g>
</g>
<g>
</g>
<g>
</g>
<g>
</g>
<g>
</g>
<g>
</g>
<g>
</g>
<g>
</g>
<g>
</g>
<g>
</g>
<g>
</g>
<g>
</g>
<g>
</g>
<g>
</g>
</svg>
