<?xml version='1.0' encoding='iso-8859-1'?>
<!DOCTYPE svg PUBLIC '-//W3C//DTD SVG 1.1//EN' 'http://www.w3.org/Graphics/SVG/1.1/DTD/svg11.dtd'>
<svg version="1.1" xmlns="http://www.w3.org/2000/svg" viewBox="0 0 395.991 395.991" xmlns:xlink="http://www.w3.org/1999/xlink" enable-background="new 0 0 395.991 395.991">
  <g>
    <path d="m328.107,183.665c-0.779-35.691-1.519-69.586-2.289-104.855-29.824,9.826-56.119,25.078-84.234,35.932-28.288,10.92-56.573,21.846-85.074,32.852 2.281,51.066 4.55,101.873 6.85,153.382 10.43,1.866 19.914,6.183 26.451,15.935 12.476,18.611 8.715,49.274-8.756,63.391-9.92,8.016-21,14.233-34.317,14.631-14.058,0.42-28.185,1.659-42.157,0.707-9.517-0.649-19.304-3.317-28.111-7.089-15.585-6.673-30.601-14.712-45.682-22.513-6.254-3.235-7.063-6.438-3.38-12.265 11.397-18.029 22.899-35.995 34.622-53.812 9.474-14.398 22.175-25.617 36.081-35.632 16.167-11.644 33.21-17.672 54.25-8.279-1.276-10.937-2.563-20.472-3.463-30.043-1.216-12.941-2.101-25.914-3.189-38.868-2.719-32.373-5.234-64.767-8.328-97.105-1.279-13.365-0.088-17.072 12.467-22.916 33.432-15.563 67.5-29.573 102.377-41.623 16.729-5.78 33.168-12.393 49.847-18.32 7.46-2.651 15.106-4.915 22.822-6.679 7.996-1.829 11.576,1.431 11.774,9.36 1.39,55.664 2.891,111.327 4.208,166.993 0.307,12.987 0.046,25.987 0.046,38.779 25.24,5.102 36.304,26.684 26.069,49.393-11.186,24.823-22.568,33.957-54.928,32.707-28.465-1.099-56.696-6.431-83.04-18.671-8.347-3.878-9.036-5.913-4.65-13.913 6.423-11.716 12.595-23.573 18.684-35.467 8.049-15.724 18.103-29.463 33.967-38.398 15.588-8.78 31.35-15.214 51.083-7.614zm-251.196,190.592l-.023-.064c2.7,2.06 5.4,4.12 8.526,6.505 6.726-11.667 12.772-22.153 18.817-32.638-2.082,12.364-10.299,21.966-13.313,34.813 4.002,0.579 7.017,1.014 9.501,1.373 7.241-12.649 14.022-24.495 20.804-36.342 0.804,0.441 1.609,0.881 2.413,1.322-5.746,11.442-11.492,22.884-17.19,34.229 5.918,4.435 8.045,0.681 10.04-3.52 4.444-9.359 8.646-18.866 16.467-26.298-4.734,10.418-9.467,20.836-14.453,31.808 4.918,0 8.713,0 11.981,0 5.947-12.095 11.97-23.142 19.672-33.205-1.624,5.621-4.126,10.739-6.747,15.794-2.744,5.293-5.603,10.526-8.492,15.936 8.048,2.945 11.898,0.193 14.758-6.124 2.297-5.074 5.801-9.601 8.769-14.371 0.577,0.379 1.153,0.759 1.73,1.138-2.964,5.918-5.929,11.837-9.287,18.54 24.533-6.174 32-19.577 33.959-37.953 2.263-21.224-8.351-32.766-29.562-32.82-7.754-0.02-9.05-2.385-7.316-10.021 1.736-7.648 3.055-15.523 3.317-23.339 0.315-9.378-5.815-16.159-15.021-16.394-5.922-0.151-12.608,0.636-17.7,3.35-9.15,4.878-17.966,10.814-25.848,17.561-23.532,20.145-36.557,47.928-53.597,74.623 8.846,3.986 16.822,7.58 24.598,11.084 6.517-11.84 12.502-22.713 18.486-33.586 0.718,0.351 1.435,0.702 2.153,1.053-4.796,11.732-12.369,22.381-15.765,36.04 3.222,0.583 5.772,1.045 8.323,1.506zm131.775-260.937c8.642-0.471 12.931-4.47 16.331-10.642 3.238-5.879 6.866-11.766 13.043-15.463-3.161,5.854-6.322,11.709-10.819,20.037 34.192-15.226 65.963-29.373 98.746-43.972-0.979-15.451-2.022-31.929-3.153-49.786-4.971,1.425-9.085,2.337-13.007,3.775-15.927,5.84-31.682,12.166-47.708,17.715-34.82,12.058-69.298,24.939-102.774,40.401-10.068,4.65-10.344,5.584-8.921,16.537 1.626,12.508 2.572,25.104 3.927,37.649 0.289,2.675 1.066,5.298 1.635,8.028 10.467-3.065 17.009-7.99 20.356-18.321 3.387-10.451 9.587-19.989 14.555-29.928 0.732,0.321 1.464,0.642 2.196,0.962-3.824,12.579-12.249,23.515-15.898,36.978 8.573-1.616 12.453-5.469 14.589-12.699 2.157-7.303 6.503-13.96 9.89-20.899 0.644,0.291 1.288,0.583 1.932,0.875-3.086,7.768-6.172,15.536-9.691,24.394 6.675-0.292 10.202-2.124 12.384-7.056 1.844-4.166 4.485-7.98 6.774-11.95 0.496,0.307 0.992,0.615 1.487,0.922-1.803,3.822-3.608,7.644-5.874,12.443zm48.618,166.142c7.68-12.346 13.752-23.987 24.493-32.315-6.538,10.458-13.075,20.916-20.195,32.306 4.571,1.027 7.599,1.707 10.889,2.446 3.824-8.651 8.242-16.311 15.964-21.609-4.035,6.998-8.07,13.996-12.527,21.724 14.523,4.068 28.011,5.93 41.696,5.795 19.958-0.196 33.183-10.145 39.602-29.122 6.095-18.018-3.451-31.719-22.299-32.08-3.239-0.062-6.539-0.078-9.686-0.726-2.179-0.449-4.142-1.946-7.046-3.397 2.464-2.24 3.791-4.191 5.613-4.947 3.83-1.588 4.03-4.662 4.217-7.948 0.783-13.748-4.479-19.266-18.445-18.867-3.534,0.101-7.192,0.754-10.535,1.903-19.295,6.632-33.997,18.687-43.021,37.247-6.461,13.289-12.943,26.569-19.805,40.653 6.907,2.929 13.776,5.84 21.085,8.937z"/>
    <path d="m76.911,374.257c4.828-8.654 9.657-17.307 14.486-25.961-0.534,9.732-5.735,17.465-9.689,25.673-0.332,0.689-3.152,0.18-4.818,0.226-0.003-0.002 0.021,0.062 0.021,0.062z"/>
    <path d="m156.029,128.158c2.92-6.786 5.841-13.571 8.761-20.357 0.636,0.252 1.271,0.504 1.907,0.755-2.804,7.012-5.608,14.025-8.412,21.038-0.752-0.479-1.504-0.957-2.256-1.436z"/>
    <path d="m292.011,278.252c-0.831-7.879 3.076-13.111 9.666-16.846-3.222,5.616-6.444,11.231-9.666,16.846z"/>
    <path d="m253.33,263.978c2.505-4.1 4.999-8.183 7.494-12.265 0.714,0.402 1.428,0.805 2.142,1.208-2.537,4.081-5.072,8.163-7.666,12.208-0.011,0.018-0.855-0.498-1.97-1.151z"/>
    <path d="m312.821,276.406c2.014-3.686 4.029-7.372 6.88-12.59-0.579,7.683-0.579,7.683-6.88,12.59z"/>
  </g>
</svg>
