<?xml version='1.0' encoding='iso-8859-1'?>
<!DOCTYPE svg PUBLIC '-//W3C//DTD SVG 1.1//EN' 'http://www.w3.org/Graphics/SVG/1.1/DTD/svg11.dtd'>
<svg version="1.1" xmlns="http://www.w3.org/2000/svg" viewBox="0 0 427.652 427.652" xmlns:xlink="http://www.w3.org/1999/xlink" enable-background="new 0 0 427.652 427.652">
  <g>
    <path d="m131.952,29.873c32.08,0 64.181,0.74 96.233-0.194 37.124-1.082 74.204-3.652 111.306-5.528 3.677-0.186 7.389-0.284 11.054-0.012 14.651,1.086 29.278,2.514 43.936,3.468 12.961,0.844 16.859,3.939 17.977,17.194 2.166,25.672 3.775,51.39 5.783,77.077 1.978,25.3 4.375,50.568 6.185,75.879 1.26,17.624 2.343,35.287 2.617,52.947 0.539,34.646 0.693,69.302 0.565,103.952-0.113,30.543-12.561,38.399-40.848,40.179-13.229,0.832-26.524,0.606-39.788,0.87-37.2,0.738-74.409,1.212-111.598,2.305-31.284,0.919-62.543,2.71-93.823,3.818-15.045,0.533-30.116,0.247-45.171,0.579-13.619,0.3-27.243,1.53-40.84,1.224-9.858-0.222-19.69-2.172-29.504-3.561-7.553-1.069-11.95-5.61-12.586-13.212-1.623-19.421-3.664-38.836-4.421-58.296-1.862-47.849-3.022-95.724-4.604-143.585-1.363-41.219-2.923-82.433-4.38-123.649-0.078-2.21-0.045-4.425 0.006-6.637 0.46-20.195 6.262-26.101 26.86-26.214 35.01-0.192 70.022-0.053 105.033-0.053 0.004,0.483 0.006,0.966 0.008,1.449zm75.221,337.964c0.445,0.551 0.89,1.102 1.336,1.652-4.366,5.217-8.732,10.434-13.839,16.537 10.318,1.879 18.36,1.192 24.891-6.493 3.794-4.464 8.39-8.166 14.492-9.868-4.348,5.11-8.696,10.221-13.498,15.865 10.48,1.34 19.428,1.862 27.153-6.348 0,3.262 0,4.899 0,6.843 2.218,0 4.051,0.051 5.88-0.008 44.538-1.422 89.076-2.83 133.612-4.335 3.638-0.123 7.349-0.553 10.86-1.476 10.224-2.688 13.727-6.472 14.212-16.865 0.841-18.016 1.661-36.067 1.457-54.091-0.358-31.665-0.783-63.361-2.51-94.971-1.685-30.834-5.248-61.56-7.586-92.364-1.865-24.57-3.083-49.19-4.717-73.779-0.185-2.785-1.209-5.514-1.923-8.607-13.589-0.794-26.443-2.397-39.259-2.131-36.436,0.756-72.849,2.886-109.285,3.345-50.493,0.637-101,0.259-151.5,0.285-23.967,0.012-47.935-0.185-71.901-0.002-8.89,0.068-10.392,1.452-10.966,10.168-0.702,10.655-0.758,21.357-0.902,32.041-0.029,2.19 0.789,4.39 1.446,7.762 7.782-11.553 14.67-21.779 21.559-32.006 0.615,0.36 1.23,0.721 1.845,1.082-1.03,2.126-1.884,4.357-3.113,6.357-5.403,8.79-10.488,17.819-16.511,26.168-5.447,7.551-4.755,15.258-3.732,25.16 9.173-13.326 17.26-25.075 25.348-36.823 0.642,0.44 1.283,0.879 1.925,1.319-7.622,12.5-14.974,25.179-23.021,37.4-2.629,3.992-3.643,7.698-3.509,12.28 0.429,14.735 0.462,29.482 0.926,44.216 0.15,4.771 1.158,9.515 2.024,16.2 4.546-6.092 7.513-10.068 10.479-14.043-9.608,14.671-13.47,30.181-8.752,49.457 6.035-8.609 11.112-16.057 16.414-23.341 3.369-4.629 4.753-9.303 4.429-15.305-0.989-18.319 2.356-36.001 11.183-52.268 9.098-16.766 22.686-28.289 41.849-31.215 16.523-2.522 33.069-1.561 48.802,5.067 7.025,2.96 13.938,6.186 19.913,8.85 7.3-7.577 13.756-15.645 21.573-22.054 10.402-8.528 23.018-12.565 36.318-15.125 32.404-6.236 66.61,9.237 76.78,48.089 4.172,15.939 1.489,31.502-1.632,47.01-5.662,28.137-18.732,53.434-31.633,78.677-11.572,22.642-24.552,44.472-39.453,65.173-7.977,11.083-9.336,12.595-21.375,7.37-42.721-18.54-83.656-40.408-119.942-69.856-17.492-14.196-33.458-30.24-39.684-53.194-0.152-0.559-1.072-0.911-2.128-1.754-5.841,8.829-11.228,17.953-17.614,26.314-5.025,6.578-5.221,13.095-2.977,21.925 4.757-5.428 8.694-9.92 12.631-14.412-1.734,6.121-4.428,11.667-8.264,16.258-7.473,8.943-5.758,18.605-4.378,30.141 7.309-8.593 13.468-15.834 19.627-23.076 0.666,0.543 1.333,1.087 1.999,1.63-5.599,7.588-11.123,15.232-16.816,22.748-5.958,7.866-7.058,18.168-2.418,28.897 7.739-12.412 15.754-24.069 25.277-34.667-6.174,12.146-12.698,24.214-21.462,34.344-6.109,7.061-5.189,13.12-3.788,21.942 7.196-7.882 13.237-14.499 19.278-21.116-4.044,7.894-9.373,14.685-15.165,21.054-5.988,6.584-5.697,13.247-1.685,21.61 8.32-11.169 15.966-21.433 23.612-31.696 0.753,0.554 1.506,1.108 2.259,1.662-6.915,10.301-13.109,21.193-20.941,30.742-8.32,10.145-6.202,20.199-3.39,31.473 5.842,0.93 11.281,1.606 16.634,2.703 4.897,1.003 8.157-0.27 11.234-4.535 6.243-8.653 13.14-16.84 19.906-25.106 1.569-1.917 3.696-3.378 5.566-5.048 0.331,0.386 0.662,0.773 0.992,1.159-7.846,10.86-15.693,21.72-24.141,33.414 14.396,1.331 25.651-0.241 33.526-12.146 2.858-4.32 7.617-7.382 11.509-11.018 0.239,0.191 0.478,0.383 0.717,0.575-5.14,6.734-10.279,13.468-16.137,21.143 3.86,0.232 6.061,0.175 8.195,0.524 10.07,1.646 17.555-1.811 23.701-10.099 4.598-6.201 10.569-11.384 15.929-17.02 0.59,0.553 1.18,1.106 1.769,1.658-6.17,7.834-12.339,15.667-19.489,24.745 4.542,0 7.101-0.334 9.545,0.058 10.262,1.646 17.531-2.748 23.613-10.603 3.638-4.699 8.057-8.792 12.126-13.158 0.673,0.565 1.347,1.13 2.02,1.695-5.142,6.301-10.285,12.602-16.006,19.612 9.166,1.871 15.995,1.164 21.668-5.865 4.13-5.118 9.33-9.371 14.053-14.01 0.406,0.443 0.812,0.885 1.218,1.328-4.533,5.796-9.066,11.593-13.94,17.824 10.008,2.461 16.522-0.672 22.237-6.842 4.196-4.532 8.937-8.559 13.435-12.812zm4.077-49.924c7.194-10.502 15.511-20.889 21.905-32.35 12.368-22.169 24.16-44.697 35.246-67.535 11.353-23.391 18.758-48.086 17.781-74.456-0.713-19.259-8.883-35.211-25.874-44.793-29.653-16.724-74.109,0.593-84.144,24.052-1.728,4.04-3.941,7.88-6.046,11.75-4.09,7.519-8.646,7.94-13.303,0.499-6.889-11.009-16.875-16.481-29.265-18.48-2.901-0.469-5.753-1.326-8.666-1.617-28.053-2.808-48.106,6.871-59.896,34.392-7.085,16.538-5.223,33.569-5.035,50.599 0.021,1.914 1.413,3.812 2.346,6.164 2.082-1.929 3.574-3.312 7.177-6.651-4.736,9.914-6.995,17.554 1.681,23.992 3.074-4.22 6.116-8.395 9.158-12.57 0.469,0.294 0.938,0.589 1.407,0.883-2.392,5.621-4.785,11.242-7.421,17.436 2.684,2.968 5.235,5.788 7.951,8.791 3.454-4.86 6.243-8.785 9.032-12.71 0.658,0.377 1.316,0.753 1.974,1.13-2.353,5.145-4.707,10.291-7.229,15.805 2.995,2.573 5.635,4.842 8.447,7.258 3.649-5.466 6.804-10.19 9.958-14.915 0.65,0.334 1.3,0.667 1.951,1.001-2.553,5.828-5.105,11.655-7.771,17.741 3.971,3.004 7.374,5.58 11.168,8.45 3.113-4.252 5.745-7.848 8.377-11.444 0.404,0.236 0.809,0.472 1.213,0.707-1.721,4.624-3.442,9.247-5.332,14.325 3.622,2.122 6.62,3.879 9.817,5.752 2.329-3.043 4.102-5.361 5.876-7.679 0.328,0.242 0.655,0.485 0.983,0.727-0.89,3.035-1.781,6.069-2.815,9.594 4.227,2.347 7.999,4.44 11.626,6.454 2.813-3.03 5.109-5.502 9.135-9.838-1.695,5.91-2.663,9.288-3.767,13.138 4.363,2.605 8.338,4.979 12.186,7.276 2.033-2.77 3.491-4.755 4.948-6.74 0.209,0.183 0.419,0.365 0.963,0.841-0.286,2.576-0.598,5.38-0.887,7.977 16.219,10.364 43.862,23.028 55.145,25.044z"/>
    <path d="m350.43,191.659c-12.959-0.732-14.321-9.683-15.303-18.044-1.07-9.105-0.908-18.361-1.14-27.555-0.146-5.766-0.027-11.54-0.027-18.728 1.335-0.901 4.004-2.703 6.863-4.632 0.162-0.901 0.591-1.975 0.5-3.002-0.49-5.485-1.058-10.965-1.696-16.435-1.212-10.389 0.948-13.275 11.221-14.804 8.015-1.193 11.006,1.544 12.12,11.461 0.451,4.015 0.554,8.075 0.68,12.119 0.144,4.613 0.988,8.565 5.769,10.934 5.254,2.603 6.515,7.945 6.692,13.112 0.504,14.707 0.586,29.428 0.765,44.145 0.062,5.101-2.505,8.284-7.483,9.498-3.194,0.779-6.383,1.576-9.168,2.264-23.978,46.077-47.733,91.728-70.745,135.95 0.76,7.29 3.171,13.83 1.51,19.083-1.722,5.447-6.716,10.512-11.474,14.204-8.534,6.624-21.171,3.866-27.345-4.913-4.753-6.759-2.623-17.112 5.45-23.4 3.705-2.886 8.066-5.853 12.513-6.655 7.275-1.311 10.357-5.997 13.378-11.682 16.395-30.862 32.854-61.69 49.449-92.446 5.232-9.701 10.952-19.14 17.471-30.474zm13.553-61.018c-2.589-0.141-5.47-0.518-8.334-0.414-8.366,0.305-9.106,1.181-9.747,9.642-0.553,7.298-1.485,14.575-1.822,21.88-0.315,6.828-0.067,13.681-0.067,20.784 8.678,1.111 16.137,2.016 23.235-1.192 2.542-19.332 1.221-40.62-3.265-50.7zm-81.98,212.286c0.187-4.513-3.775-8.934-7.878-8.792-6.078,0.211-14.71,8.647-14.707,14.372 0.002,4.283 3.973,7.922 8.751,8.023 5.447,0.115 13.598-7.9 13.834-13.603zm69.044-247.486c-2.422,2.336-4.56,3.42-4.636,4.634-0.451,7.142 0.49,14.142 4.717,20.807 3.133-7.699 3.848-15.417-0.081-25.441z"/>
    <path d="m376.306,328.661c2.208,0 4.438-0.198 6.62,0.037 6.359,0.685 8.891,3.352 9.422,9.957 0.206,2.558 0.138,5.159-0.048,7.723-1.625,22.355-9.867,22.486-24.439,19.289-4.883-1.071-10.179-0.374-15.283-0.279-3.289,0.061-6.575,0.769-9.855,0.716-10.439-0.168-12.48-2.328-12.993-13.146-0.939-19.798-0.024-20.833 20.271-22.499 8.76-0.719 17.528-1.352 26.292-2.024 0.005,0.075 0.009,0.151 0.013,0.226zm-38.653,31.301c8.7-0.771 16.801-1.489 24.514-2.173 0-8.025 0-14.772 0-22.013-2.446,0-4.571-0.071-6.69,0.011-19.787,0.763-21.063,2.316-17.824,24.175zm30.676-24.709c1.546,8.885 2.856,16.41 4.473,25.7 3.527-1.431 7.758-1.877 8.398-3.633 2.424-6.649 5.806-13.5 2.89-21.318-2.108-0.279-3.874-0.649-5.652-0.718-2.895-0.114-5.798-0.031-10.109-0.031z"/>
    <path d="m61.28,350.511c-8.577,11.321-17.155,22.643-25.732,33.964 0.086-8.079 11.116-22.765 25.732-33.964z"/>
    <path d="m25.817,139.495c2.952-11.315 10.187-19.816 17.681-28.18-4.273,10.41-10.386,19.725-17.681,28.18z"/>
    <path d="m40.258,142.812c-5.301,7.948-10.603,15.896-15.904,23.844-0.662-0.422-1.323-0.845-1.985-1.267 4.064-8.728 10.145-16.18 17.889-22.577z"/>
    <path d="m185.62,238.454c-18.901,0.022-33.449-9.193-39.101-24.626-6.937-18.942 7.575-41.059 27.741-42.279 20.774-1.257 37.835,11.287 43.034,31.64 4.337,16.977-6.545,33.033-23.977,35.221-2.529,0.317-5.13,0.044-7.697,0.044zm-30.003-32.041c0.007,8.021 1.958,13.277 7.429,17.428 8.935,6.78 19.157,9.225 30.064,6.561 13.955-3.409 19.806-15.9 13.977-29.121-1.468-3.331-3.365-6.527-5.437-9.529-7.688-11.142-16.383-13.882-29.568-9.557-11.276,3.699-16.476,11.348-16.465,24.218z"/>
  </g>
</svg>
