<?xml version='1.0' encoding='iso-8859-1'?>
<!DOCTYPE svg PUBLIC '-//W3C//DTD SVG 1.1//EN' 'http://www.w3.org/Graphics/SVG/1.1/DTD/svg11.dtd'>
<svg version="1.1" xmlns="http://www.w3.org/2000/svg" viewBox="0 0 410.757 410.757" xmlns:xlink="http://www.w3.org/1999/xlink" enable-background="new 0 0 410.757 410.757">
  <g>
    <path d="m220.94,176.224c0,9.259 0.399,15.065-0.14,20.781-0.362,3.839-1.12,8.283-3.365,11.154-3.457,4.42-3.361,8.371-1.133,14.217 3.414-2.207 6.567-4.179 9.653-6.249 18.315-12.291 37.716-15.163 58.865-8.034 15.895,5.358 26.812,15.725 32.926,30.844 10.705,26.471 9.751,51.889-7.167,76.199-13.288,19.093-28.51,36.443-44.314,53.358-10.615,11.361-21.988,22.081-29.45,35.989-2.828,5.27-7.602,6.835-12.804,6.106-4.539-0.636-9.103-2.229-13.268-4.212-19.24-9.158-38.433-18.424-57.474-27.988-21.103-10.599-40.884-22.756-55.73-42.044-26.867-34.906-21.125-69.858 3.161-102.851 15.45-20.99 39.384-25.79 64.627-20.368 9.076,1.949 17.782,5.619 27.663,8.83 0-3.642 1.452-8.327-0.26-10.399-6.279-7.6-3.853-16.601-5.11-25.653-2.857,0.568-5.259,0.875-7.562,1.529-20.26,5.753-40.805,4.606-61.375,2.557-33.115-3.299-62.05-16.188-86.701-38.478-12.754-11.531-23.446-24.624-28.279-41.602-9.147-32.137 6.317-65.871 31.215-84.319 9.97-7.387 20.89-12.837 33.369-14.887 10.379-1.706 19.162,0.719 26.911,7.981 2.718,2.548 6.368,4.408 9.914,5.708 9.197,3.372 13.096,14.123 7.228,21.962-2.083,2.783-5.113,5.216-8.225,6.798-6.562,3.335-14.212,1.666-17.733-3.186-3.572-4.922-2.953-10.529 1.924-16.838 1.29-1.669 2.713-3.234 4.017-4.778-7.846-10.213-14.925-12.418-26.597-8.529-27.884,9.289-50.122,38.652-51.423,67.907-0.565,12.701 2.334,24.714 9.803,34.869 18.372,24.975 42.578,42.052 72.617,50.195 18.245,4.946 37.044,6.355 55.884,6.449 12.725,0.064 24.971-2.882 36.674-6.844 1.715-13.574 4.145-15.953 16.59-16.925 10.04-0.784 12.125,1.293 16.055,16.473 39.704,8.166 78.66,5.668 116.524-10.117 22.458-9.362 38.599-25.124 47.724-47.767 2.971-7.371 6.108-14.785 7.987-22.468 6.933-28.341 0.055-52.961-21.334-73.093-10.802-10.168-23.557-11.892-37.335-7.346-4.038,1.332-7.905,3.183-12.428,5.032 1.225,2.352 2.134,3.814 2.782,5.385 3.687,8.933 1.931,15.707-5.067,19.826-7.628,4.491-17.333,3.172-22.783-3.095-6.788-7.807-1.216-23.02 9.907-24.256 7.635-0.849 13.238-4.403 19.577-7.652 18.65-9.559 41.402-9.734 58.587,8.704 21.811,23.401 28.692,50.288 19.973,81.021-5.984,21.091-14.039,41.208-31.04,56.165-5.934,5.221-12.133,10.552-19.09,14.121-23.062,11.831-47.342,19.74-73.695,19.403-1.086-0.014-2.173,0.053-3.258,0.016-18.957-0.66-38.493,3.524-58.017-9.601zm-127.781,125.479c5.456-9.433 10.052-17.379 14.648-25.325 0.194,4.358-1.415,7.806-3.044,11.244-2.784,5.877-5.538,11.769-8.386,17.615-1.945,3.992-1.497,7.181 2.772,9.501 2.431-4.032 4.796-7.955 7.162-11.879-0.243,5.251-1.688,9.973-3.678,14.454-2.211,4.975-0.413,7.885 3.774,10.44 2.458-4.378 4.597-8.189 6.737-12.001 0.525,4.474-0.67,8.157-2.055,11.767-1.505,3.921-2.114,7.491 2.5,10.15 2.16-2.716 4.064-5.11 5.968-7.505 0.424,0.273 0.848,0.545 1.272,0.818-1.335,3.613-2.67,7.226-4.227,11.439 2.743,1.961 5.183,3.706 7.603,5.436 2.303-3.064 4.093-5.446 5.884-7.828 0.399,0.221 0.797,0.442 1.196,0.663-0.976,3.282-1.952,6.563-3.179,10.69 7.915,4.711 15.222,10.262 23.414,13.713 24.873,10.477 50.225,19.847 72.145,34.797 6.833-8.553 12.789-16.717 19.469-24.238 18.468-20.794 38.17-40.44 54.644-63.049 14.845-20.375 18.165-41.763 10.853-65.581-7.654-24.931-32.781-39.375-57.759-32.332-13.947,3.934-25.467,12.034-35.165,22.57-6.716,7.297-15.07,8.268-21.918,1.087-15.638-16.398-35.17-18.899-55.914-15.276-13.672,2.388-24.242,10.265-32.207,22.029-10.48,15.477-11.879,33.271-14.415,50.845-0.178,1.215 0.816,2.598 1.906,5.756zm104.002-135.344c-0.66,10.359-1.593,19.689-1.747,29.031-0.13,7.867 0.565,8.226 8.683,9.241 2.099,0.263 4.237,0.219 7.058,0.349 3.089-13.653 5.031-26.895-0.274-41.301-4.708,0.92-9.074,1.773-13.72,2.68zm124.631-133.88c-2.935-4.416-5.062-8.488-8.078-11.735-1.249-1.344-4.756-1.841-6.617-1.122-4.78,1.848-7.31,9.328-5.289,13.753 1.787,3.914 7.082,6.093 12.004,4.321 2.52-0.907 4.626-2.966 7.98-5.217zm-218.587-.767c-5.471-0.436-11.714,5.527-12.029,10.888-0.215,3.667 2.006,5.212 5.213,5.472 5.11,0.414 11.013-4.56 11.239-9.487 0.161-3.5-0.891-6.403-4.423-6.873zm103.787,205.29c2.252-8.471 1.712-16.033-1.01-23.444-0.305-0.831-2.25-1.06-5.09-2.28 0.387,8.59 0.578,15.942 1.239,23.252 0.077,0.845 2.767,1.454 4.861,2.472z"/>
    <path d="m201.487,258.195c11.615-10.924 24.796-17.433 39.349-20.978 5.17-1.259 10.782-1.613 16.099-1.196 20.382,1.599 32.164,18.097 27.273,38.01-1.193,4.857-3.12,9.613-5.284,14.141-13.041,27.271-31.403,50.893-50.694,73.916-5.701,6.804-11.218,8.519-19.726,4.692-15.105-6.794-30.759-12.366-46.166-18.494-24.69-9.821-38.189-28.515-43.003-54.163-2.483-13.233 2.007-23.262 13.13-30.702 20.257-13.548 41.91-13.855 64.369-7.153 1.352,0.403 2.622,1.076 4.653,1.927zm-24.278,24.327c-0.089,0.297-0.178,0.594-0.266,0.891-1.805,0.079-3.63,0.016-5.413,0.263-8.246,1.137-10.691,4.495-11.075,13.05-0.378,8.429 4.449,12.809 11.296,15.231 10.875,3.846 21.908,7.325 33.053,10.281 3.131,0.83 7.702,0.432 10.228-1.357 13.939-9.869 24.539-22.368 27.307-39.944 0.597-3.791 1.524-8.182-3.16-10.488-4.131-2.034-7.791-0.523-10.995,2.172-2.758,2.32-5.32,4.878-7.915,7.386-9.356,9.041-20.075,10.375-31.96,5.901-3.613-1.361-7.396-2.271-11.1-3.386zm-3.073,38.188c-4.219-2.44-7.91-3.658-10.248-6.147-3.29-3.502-7.762-7.915-7.82-11.994-0.106-7.523-3.942-10.991-9.349-14.155-5.852-3.424-11.744-6.779-17.622-10.166-10.977,20.42 9.671,54.618 37.45,61.917 2.404-6.164 4.844-12.417 7.589-19.455zm43.348,39.079c14.723-16.038 41.006-49.267 44.345-62.099-5.211-1.662-10.473-3.341-14.035-4.478-9.907,10.69-18.876,19.954-27.291,29.695-2.609,3.021-5.146,7.312-5.218,11.069-0.156,8.193 1.292,16.415 2.199,25.813zm-62.538-72.432c13.148-14.139 28.589-7.991 44.052-4.67 0-7.072 0-12.717 0-18.169-21.415-10.943-50.838-6.749-67.182,9.765 7.612,4.302 15.081,8.524 23.13,13.074zm92.903,.675c6.254,1.998 11.923,3.809 18.281,5.84 2.968-6.563 6.416-12.526 8.389-18.943 2.855-9.29 2.439-18.583-4.715-26.227-5.636-6.023-10.809-5.906-16.272,0.324-3.973,4.53-7.569,9.392-12.052,15.005 10.902,5.397 7.834,14.341 6.369,24.001zm-69.179,33.629c-2.782,7.167-5.338,13.75-8.144,20.977 13.055,5.391 24.985,11.415 39.374,13.829 0-9.865 0-18.315 0-25.94-10.73-3.046-20.638-5.859-31.23-8.866zm27.967-39.26c3.683-2.777 6.428-4.435 8.666-6.613 5.943-5.784 11.278-12.338 20.538-12.937 1.175-0.076 2.575-1.36 3.33-2.457 3.633-5.274 7.08-10.676 11.012-16.671-12.556-1.649-21.795,4.499-31.112,9.465-15.126,8.062-15.665,9.943-12.434,29.213z"/>
  </g>
</svg>
