<?xml version='1.0' encoding='iso-8859-1'?>
<!DOCTYPE svg PUBLIC '-//W3C//DTD SVG 1.1//EN' 'http://www.w3.org/Graphics/SVG/1.1/DTD/svg11.dtd'>
<svg version="1.1" xmlns="http://www.w3.org/2000/svg" viewBox="0 0 429.017 429.017" xmlns:xlink="http://www.w3.org/1999/xlink" enable-background="new 0 0 429.017 429.017">
  <g>
    <path d="m149.495,411.55c-43.855-1.255-81.658-17.458-111.502-49.873-19.813-21.52-29.626-48.285-31.405-77.453-2.71-44.414 9.268-84.734 36.898-119.757 26.187-33.192 60.813-51.886 102.967-55.471 12.152-1.033 24.361,1.655 34.502,9.362 4.572,3.475 10.282,7.255 8.311,14.291-1.768,6.308-8.106,6.842-13.383,8.194-4.246,1.087-8.902,1.06-12.847,2.757-45.099,19.394-85.909,66.465-74.118,132.791 2.068,11.636 4.499,23.093 10.526,33.513 16.133,27.892 46.478,43.181 78.331,38.856 25.038-3.4 48.776-10.679 70.504-24.103 6.322-3.906 10.758-8.718 13.397-15.482 2.677-6.86 5.193-13.798 8.228-20.498 3.168-6.994 8.279-12.197 16.016-14.126 9.962-2.482 18.318,2.556 18.892,12.789 0.443,7.896 0.248,16.645-2.697,23.76-9.165,22.139-19.505,43.934-37.282,60.805-6.601,6.265-13.866,12.197-21.738,16.685-20.994,11.969-43.369,20.076-67.919,20.984-8.439,0.312-16.854,1.278-25.681,1.976zm-56.108-25.675l-.136-.234c9.819,7.781 21.455,10.499 33.333,12.478 7.605-7.874 14.498-15.908 24.184-20.806-5.92,6.638-11.84,13.276-18.351,20.576 2.873,0.999 4.231,1.889 5.583,1.88 22.076-0.135 44.076-0.748 65.595-6.741 44.124-12.287 71.342-42.239 87.65-83.538 3.342-8.465 5.128-17.384 1.004-26.34-6.805-0.421-10.18,3.376-12.749,8.005-2.494,4.496-4.497,9.262-6.819,13.856-6.272,12.414-11.719,25.055-24.789,32.796-25.764,15.258-53.715,22.426-83.167,22.248-34.492-0.208-69.968-21.74-80.96-63.222-1.693-6.388-3.048-12.914-3.917-19.462-4.677-35.266 0.245-68.34 22.972-97.148 19.09-24.197 42.083-42.14 73.877-45.961 1.325-0.159 2.565-1.022 5.698-2.332-3.287-3.257-5.391-6.085-8.152-7.931-6.893-4.609-14.707-6.609-22.995-6.578-21.139,0.08-40.552,6.377-58.845,16.558-12.667,7.05-23.396,16.501-33.628,26.698-11.606,11.566-17.522,26.743-26.405,40.024-0.894,1.338-1.231,3.049-2.726,6.909 11.242-8.275 20.437-15.043 29.631-21.81 0.467,0.631 0.934,1.262 1.402,1.893-9.497,7.856-18.727,16.07-28.577,23.455-7.794,5.844-10.096,13.384-10.324,23.465 10.198-8.066 19.476-15.404 28.754-22.742 0.541,0.643 1.082,1.287 1.622,1.93-2.795,2.674-5.532,5.413-8.398,8.008-6.553,5.934-13.267,11.693-19.732,17.721-6.374,5.943-7.2,9.417-5.206,19.293 7.069-5.919 14.057-11.769 21.044-17.619-4.234,6.38-8.718,12.358-14.396,16.816-10.875,8.538-9.879,19.044-7.233,32.484 10.898-12.063 20.328-23.037 32.888-30.569-1.909,3.517-4.329,6.551-6.957,9.391-6,6.487-11.782,13.225-18.249,19.217-7.311,6.773-8.374,13.854-2.888,22.898 10.278-9.322 18.185-20.842 30.694-27.277-9.794,10.894-19.588,21.787-30.288,33.688 2.97,4.613 5.853,9.088 8.735,13.564l.608,.551c0.131,6.269 3.645,10.642 7.977,15.268 6.159-6.865 11.886-13.248 17.612-19.631 0.504,0.416 1.009,0.832 1.513,1.248-5.629,7.394-11.257,14.788-17.18,22.57 3.066,3.392 5.445,6.023 7.842,8.675 7.246-7.241 13.477-13.468 19.708-19.694 0.457,0.474 0.914,0.948 1.37,1.422-5.679,7.008-11.358,14.016-17.499,21.595 12.589,10.076 23.861,19.777 39.27,22.455z"/>
    <path d="m125.653,25.805c4.274-6.792 7.454-13.077 11.773-18.447 8.224-10.225 19.908-9.903 26.163,1.657 8.288,15.316 10.25,32.267 5.669,49.203-1.051,3.883-5.65,8.152-9.605,9.679-19.939,7.698-39.971,6.376-58.708-3.577-14.277-7.585-14.876-22.186-2.277-32.52 8.064-6.613 17.07-10.131 26.985-5.995zm9.995,12.188c-3.502-1.501-5.778-2.314-7.905-3.414-9.667-4.999-16.242-4.217-24.043,2.984-8.612,7.949-7.503,16.949 3.257,21.768 15.376,6.886 31.385,6.636 47.517,2.81 5.889-1.396 9.044-5.261 8.776-11.058-0.474-10.248-1.37-20.491-2.547-30.683-0.319-2.765-1.925-5.585-3.555-7.957-4.735-6.885-8.756-7.119-13.857-0.605-5.668,7.238-10.548,14.931-7.643,26.155z"/>
    <path d="m221.702,183.153c1.884-4.416 3.405-9.417 6.004-13.775 5.278-8.85 13.711-10.464 21.239-3.473 4.42,4.105 8.343,9.521 10.512,15.114 4.484,11.565 3.397,23.779 1.464,35.845-0.725,4.527-3.309,7.552-7.654,8.33-16.039,2.867-32.083,3.675-47.811-1.784-7.494-2.601-14.819-6.113-15.607-15.134-0.783-8.965 5.762-14.104 12.6-17.827 5.64-3.07 12.089-4.656 19.253-7.296zm18.628-13.044c-7.199,4.509-8.177,11.142-8.994,17.658-0.539,4.299-2.748,8.447-6.615,6.101-9.739-5.907-16.138,0.178-22.508,5.135-8.141,6.335-6.833,12.575 3.156,15.7 14.903,4.661 30.039,5.393 45.926,0.915 0.104-16.308 5.633-33.339-10.965-45.509z"/>
    <path d="m275.362,50.983c1.327-2.113 2.406-3.967 3.616-5.73 3.576-5.207 8.183-8.632 14.852-7.255 6.775,1.399 11.548,5.854 12.554,12.455 2.281,14.966 0.349,29.359-9.018,41.948-3.572,4.802-8.597,7.028-14.457,6.38-17.333-1.918-32.752-8.207-44.798-21.229-11.232-12.141-8.454-24.831 7.345-29.682 6.59-2.024 14.337-0.632 21.52-0.193 2.7,0.166 5.296,2.031 8.386,3.306zm.624,11.318c-2.777-2.055-5.3-4.098-7.997-5.88-5.574-3.684-11.748-4.187-17.975-2.381-10.822,3.14-13.018,10.631-5.382,18.917 9.662,10.486 22.297,15.13 36.076,17.139 4.997,0.729 8.326-1.5 10.796-5.812 5.313-9.279 7.176-19.297 5.975-29.723-0.349-3.025-3.059-5.778-5.516-10.121-5.927,6.628-10.487,11.725-15.977,17.861z"/>
    <path d="m384.193,96.246c1.961-3.047 3.594-5.795 5.431-8.397 3.201-4.536 7.425-7.284 13.18-6.01 5.467,1.21 8.874,4.763 10.55,10.169 3.09,9.966 0.927,19.837-1.003,29.488-4.435,22.187-12.857,26.976-34.436,19.93-8.013-2.616-15.964-5.745-23.441-9.612-14.568-7.536-15.768-20.129-3.194-30.816 9.671-8.219 20.358-11.78 32.913-4.752zm4.208,8.767c-2.564-1.185-4.21-1.903-5.819-2.695-10.878-5.356-20.764-3.401-28.554,5.663-5.573,6.484-4.743,13.659 2.924,17.16 9.294,4.244 19.062,7.464 28.684,10.965 1.661,0.605 3.613,0.498 5.436,0.553 8.254,0.247 9.866-0.418 11.987-8.114 2.227-8.084 3.566-16.423 5.039-24.695 0.373-2.092 0.321-4.593-0.498-6.49-1.352-3.136-2.836-7.355-5.441-8.546-4.059-1.857-6.244,2.562-8.124,5.637-1.887,3.086-3.428,6.384-5.634,10.562z"/>
    <path d="m397.856,224.272c1.37-2.427 2.823-5.846 5.02-8.693 3.089-4.003 7.146-6.483 12.519-4.404 5.073,1.963 7.889,6.098 7.342,11.177-0.702,6.513-2.18,13.068-4.302,19.27-2.488,7.271-5.608,14.406-9.226,21.188-3.773,7.072-7.132,8.386-14.556,5.982-16.894-5.469-29.122-16.908-38.134-31.809-2.911-4.813-3.931-10.585-0.035-15.627 4.204-5.441 10.503-7.603 16.753-6.065 8.054,1.982 15.699,5.635 24.619,8.981zm-.631,10.336c-1.98-1.601-3.982-3.791-6.452-5.1-5.438-2.882-10.905-6.163-16.773-7.602-3.245-0.796-8.862,0.717-10.581,3.171-1.657,2.366-0.985,8.216 0.94,10.909 7.3,10.213 16.468,18.744 28.062,24.029 7.055,3.217 11.713,2.373 14.758-4.505 4.391-9.919 7.204-20.573 10.186-31.058 0.904-3.179-0.205-6.624-6.027-7.98-4.15,5.333-8.697,11.177-14.113,18.136z"/>
    <path d="m371.343,350.528c0.741-1.324 2.132-4.799 4.365-7.603 5.882-7.382 14.615-6.377 18.145,2.199 4.152,10.086 4.21,20.743 2.638,31.362-0.861,5.815-5.599,7.582-10.567,7.682-12.052,0.241-23.194-3.473-33.14-9.993-6.636-4.35-6.68-13.038 0.222-17.432 4.83-3.077 11.107-3.881 18.337-6.215zm13.942-7.974c-3.046,4.582-4.743,6.782-6.05,9.193-1.525,2.813-2.708,5.811-3.943,8.517-15.721-2.257-16.211-2.06-19.502,7.987 10.008,5.849 20.241,10.697 32.353,8.947 4.098-11.674 1.798-21.766-2.858-34.644z"/>
    <path d="m165.985,281.949c2.291-5.104 3.625-9.384 5.974-13.008 3.787-5.843 10.901-5.839 14.36,0.164 6.521,11.318 7.015,23.875 5.004,36.337-0.399,2.474-5.232,5.993-8.035,6.007-10.918,0.053-22.048-0.051-32.708-2.118-10.633-2.06-12.876-10.579-6.114-19.124 5.351-6.763 12.158-10.649 21.519-8.258zm6.185,6.294c-17.548-2.62-22.21-0.162-24.256,13.63 12.08,4.504 24.337,4.48 37.418,2.709 0.237-12.225 0.898-22.875-6.984-34.301-2.508,7.295-4.349,12.646-6.178,17.962z"/>
    <path d="m380.829,18.911c2.929-3.738 4.955-6.86 7.507-9.468 5.205-5.319 11.594-3.804 13.012,3.543 1.092,5.66 0.748,11.686 0.397,17.51-0.308,5.098-1.189,10.222-2.403,15.191-1.76,7.206-5.52,10.016-12.885,8.673-7.162-1.307-14.343-3.262-21.07-6.021-9.078-3.724-12.012-10.17-9.708-18.425 2.254-8.077 9.892-13.282 18.436-12.417 2.125,0.215 4.205,0.872 6.714,1.414zm2.059,8.77c-3.985-1.683-6.847-3.5-9.936-4.059-5.071-0.917-8.415,2.15-10.219,6.556-1.606,3.92-2.022,8.373 2.161,10.852 8.157,4.833 16.767,8.592 26.908,6.754 4.309-11.478 4.736-22.621 3.398-33.871-0.778-0.208-1.556-0.416-2.333-0.624-3.279,4.728-6.556,9.455-9.979,14.392z"/>
    <path d="m47.965,91.605c2.404-3.443 4.381-6.98 7.027-9.914 5.256-5.829 12.132-4.587 14.243,2.991 2.876,10.322 1.386,20.623-4.838,29.389-1.987,2.798-6.687,4.824-10.303,5.094-10.468,0.783-20.443-2.045-29.217-7.796-8.456-5.543-8.11-14.356 0.854-19.132 3.611-1.924 8.276-2.306 12.502-2.494 3.148-0.141 6.359,1.162 9.732,1.862zm.126,10.528c-4.224-6.085-10.032-8.99-17.597-5.66-5.852,2.577-6.534,7.594-1.165,10.746 7.785,4.57 16.435,6.637 25.458,5.503 2.146-0.27 4.848-2.326 5.859-4.296 3.554-6.928 4.012-14.283 2.279-22.183-9.206,2.457-4.847,15.001-14.834,15.89z"/>
    <path d="m306.43,404.618c2.337-3.771 4.522-8.527 7.877-12.22 1.81-1.991 5.849-3.291 8.455-2.769 1.817,0.363 3.927,4.258 4.146,6.731 0.815,9.198 0.771,18.392-5.608,26.186-4.383,5.355-9.749,7.821-16.516,5.726-6.642-2.056-13.314-4.162-19.672-6.935-4.124-1.799-7.577-5.147-6.258-10.394 1.285-5.109 4.996-8.541 10.233-8.501 5.676,0.045 11.339,1.367 17.343,2.176zm4.616,6.187c-3.999-1.163-7.409-2.43-10.932-3.099-3.19-0.604-6.624-1.172-9.722-0.574-2.083,0.402-4.913,2.631-5.285,4.473-0.323,1.595 1.925,4.688 3.77,5.549 4.274,1.997 8.942,3.235 13.54,4.436 8.912,2.329 12.871,0.298 16.288-8.214 1.866-4.649 2.472-9.412 0.893-16.333-3.521,5.666-5.914,9.517-8.552,13.762z"/>
    <path d="m38.88,402.238c1.463-4.447 2.262-8.087 3.827-11.36 2.593-5.422 7.7-6.012 11.227-1.115 4.727,6.562 6.338,13.992 3.976,21.971-5.026,16.971-13.479,20.883-29.641,13.742-8.498-3.754-12.206-8.153-11.124-13.197 1.208-5.635 6.965-9.391 15.494-10.021 1.81-0.133 3.637-0.02 6.241-0.02zm-14.799,12.162c4.264,6.157 10.93,7.589 17.827,8.209 1.575,0.142 3.603-0.804 4.872-1.891 6.707-5.752 7.672-16.9 2.282-25.738-0.557,1.051-1.2,1.924-1.511,2.902-2.973,9.369-2.977,9.138-12.739,9.98-4.154,0.359-8.943,0.69-10.731,6.538z"/>
    <path d="m32.17,331.419c4.748-12.529 15.542-19.72 25.768-27.455-8.387,9.335-16.775,18.67-25.161,28.006l-.607-.551z"/>
    <path d="m83.289,376.976c5.302-9.872 14.448-16.145 21.917-23.988 0.613,0.557 1.227,1.113 1.84,1.67-7.259,8.077-14.517,16.154-21.776,24.23-0.66-0.638-1.321-1.275-1.981-1.912z"/>
    <path d="m173.019,375.487c-6.686,7.093-13.371,14.186-20.057,21.279 3.323-10.323 10.965-16.495 20.057-21.279z"/>
    <path d="m113.81,390.219c5.205-5.648 10.41-11.297 15.615-16.945 0.605,0.516 1.21,1.033 1.815,1.549-4.982,5.87-9.965,11.739-14.947,17.609-0.827-0.737-1.655-1.475-2.483-2.213z"/>
    <path d="m93.387,385.875c6.001-6.579 12.002-13.158 18.003-19.737 0.707,0.642 1.413,1.285 2.12,1.928-5.448,6.025-10.833,12.109-16.443,17.979-0.543,0.568-2.478-0.195-3.792-0.372-0.024-0.033 0.112,0.202 0.112,0.202z"/>
    <path d="m179.915,391.025c5.211-4.792 10.422-9.585 15.633-14.378 0.539,0.565 1.078,1.131 1.618,1.696-5.18,4.824-10.36,9.648-15.54,14.472-0.57-0.597-1.141-1.194-1.711-1.79z"/>
    <path d="m67.752,364.612c3.56-3.812 7.12-7.624 10.681-11.436 0.559,0.495 1.118,0.99 1.677,1.486-3.472,3.994-6.944,7.988-10.416,11.981-0.648-0.677-1.295-1.354-1.942-2.031z"/>
  </g>
</svg>
