<?xml version="1.0" encoding="iso-8859-1"?>
<!-- Generator: Adobe Illustrator 16.0.0, SVG Export Plug-In . SVG Version: 6.00 Build 0)  -->
<!DOCTYPE svg PUBLIC "-//W3C//DTD SVG 1.1//EN" "http://www.w3.org/Graphics/SVG/1.1/DTD/svg11.dtd">
<svg version="1.1" id="Capa_1" xmlns="http://www.w3.org/2000/svg" xmlns:xlink="http://www.w3.org/1999/xlink" x="0px" y="0px"
	 width="193.215px" height="193.215px" viewBox="0 0 193.215 193.215" style="enable-background:new 0 0 193.215 193.215;"
	 xml:space="preserve">
<g>
	<g>
		<path d="M81.343,67.151c-0.446-3.526-4.059-4.316-5.982-2.425c-0.918,0.437-1.666,1.285-1.753,2.425
			c-0.133,1.741,0.295,3.398,0.5,5.085c0.033,0.598,0.041,1.211,0.1,1.786c-0.135,4.678,6.673,4.476,7.131,0
			C81.566,71.806,81.623,69.361,81.343,67.151z"/>
		<path d="M119.594,72.099c-0.263-2.126-0.612-4.265-0.876-6.323c-0.286-2.219-2.373-2.848-3.748-1.959
			c-0.014,0-0.021-0.009-0.036-0.009c-5.81,0-2.447,8.923-2.333,11.588c0.201,4.685,7.355,4.729,7.307,0
			C119.881,74.3,119.755,73.198,119.594,72.099z"/>
		<path d="M111.514,85.798c-5.32,7.587-17.125,6.071-22.278,1.97c-1.732-1.379-4.597-0.648-4.578,1.896
			c0.046,6.374,8.273,8.873,13.397,9.418c8.201,0.872,15.817-2.211,20.188-9.352C120.906,85.383,114.354,81.749,111.514,85.798z"/>
		<path d="M161.338,77.172c-1.821-15.102-7.217-31.901-15.756-45.968c-0.021-0.681-0.342-1.306-0.963-1.578
			C129.616,5.933,105.418-9.25,74.011,6.359C31.574,27.45,24.153,80.909,30.8,123.459c0.412,2.638,0.954,5.317,1.554,8.007
			c-1.209,1.128-0.932,3.384,0.887,3.82c7.308,28.546,25.254,57.132,54.822,55.212c0.616,1.685,2.218,3.076,4.464,2.634
			c19.458-3.826,46.95-6.067,58.977-24.765C169.052,141.086,165.042,107.871,161.338,77.172z M141.51,34.786
			c1.084,1.878,2.004,3.878,2.919,5.879c-0.284,1.462-0.208,3.133-0.336,4.409c-0.202,2.016-0.438,4.028-0.705,6.036
			c-0.131-0.02-0.262-0.013-0.393-0.043c-0.342-0.077-0.64-0.243-0.951-0.378c0.006-0.118,0.078-0.198,0.048-0.333
			c-0.562-2.493-0.648-5.013-0.661-7.559c-0.009-1.921,0.258-3.454-0.672-5.173c-0.282-0.522-0.882-0.688-1.422-0.577
			C139.929,36.196,140.652,35.426,141.51,34.786z M62.766,22.172c1.323-1.19,2.678-2.328,4.093-3.358
			c-0.081,1.759,0.02,3.579-0.549,5.302c-0.908,2.747-2.967,5.038-5.031,7.014c-2.874-2.352,0.843-6.29,1.488-8.922
			C62.77,22.196,62.763,22.184,62.766,22.172z M56.349,29.219c0.229,1.69,1.133,3.013,2.485,3.884
			c-2.139,1.482-5.161,3.1-6.708,2.111C53.443,33.155,54.863,31.164,56.349,29.219z M50.34,38.122
			c2.413,2.523,8.328,1.05,11.562-0.756c3.918-2.189,7.085-5.616,9.112-9.599c1.618-3.181,3.193-8.887,0.826-12.117
			c19.247-10.685,44.506-7.69,61.022,7.867c2.324,2.19,4.312,4.697,6.147,7.336c-3.847,1.846-6.376,5.335-7.223,9.489
			c-3.799-5.115-8.811-9.334-15.137-12.037c-0.186-8.027-6.39-14.901-14.483-15.831c-7.824-0.898-13.081,4.463-12.915,11.622
			c-15.24,3.007-27.329,20.946-30.183,40.096c-3.661-2.356-9.381-2.678-12.911-1.361c-3.467,1.294-6.064,3.977-7.7,7.193
			C40.754,58.696,44.644,47.847,50.34,38.122z M136.983,101.161c-0.485,1.415,1.676,2.282,2.386,1.005
			c1.265-2.276,1.472-5.046,1.778-7.581c0.049-0.4,0.101-0.798,0.148-1.194c0.088,0.365,0.175,0.728,0.229,1.077
			c0.359,2.323,0.567,4.68,0.806,7.025c-3.435,3.72-8.384,2.397-12.307-0.978c3.498-4.281,6.164-9.29,7.937-14.694
			c1.276,0.498,2.41,1.168,3.404,1.944c-0.184,0.157-0.334,0.343-0.449,0.565c-0.543-0.901-2.209-1.029-2.756,0.29
			C136.581,92.43,138.358,97.161,136.983,101.161z M96.354,106.422c-24.055-1.112-34.848-22.968-30.659-44.476
			c0.425-2.184,0.976-4.23,1.624-6.166c0.237,0.166,0.465,0.339,0.759,0.473c3.728,1.713,8.618-0.428,12.078-1.932
			c6.927-3.012,12.206-8.339,13.873-15.134c1.995,3.938,5.735,7.156,9.034,9.762c5.705,4.506,12.019,8.128,18.596,11.197
			c2.47,1.152,5.007,2.188,7.594,3.045c0.995,0.33,2.156,0.691,3.214,0.691c0.25-0.001,0.462-0.143,0.7-0.19
			C135.974,84.474,123.404,107.672,96.354,106.422z M121.346,128.725c0.156-3.523,0.118-7.016-0.054-10.554
			c-0.036-0.74-0.043-1.508-0.06-2.263c0.202,2.67,0.582,5.334,1.036,7.823c0.155,0.852,1.559,0.852,1.713,0
			c0.56-3.072,0.979-6.403,1.114-9.689C127.415,119.648,126.7,126.137,121.346,128.725z M83.278,110.817
			c0.806,0.312,1.662,0.581,2.5,0.864c-1.795,4.656-1.763,10.841-1.371,16.032c-0.927-2.477-1.458-4.972-1.574-7.653
			c-0.131-3.016,0.717-5.951,0.567-8.933C83.394,111.006,83.309,110.928,83.278,110.817z M88.107,121.503
			c0.331-2.954,1.284-5.764,1.923-8.621c0.628,0.148,1.213,0.333,1.871,0.454c1.471,0.272,2.886,0.429,4.293,0.571
			c-0.822,6.179-3.189,11.241-6.57,15.333c-0.397-0.773-1.148-1.355-2.04-1.427C87.732,125.71,87.872,123.603,88.107,121.503z
			 M81.264,128.098c-1.27-1.039-2.075-2.746-2.601-4.188c-1.781-4.883-1.222-9.834,1.019-14.414c0.02-0.04,0.018-0.077,0.035-0.117
			c0.429,0.207,0.929,0.356,1.371,0.554c-0.176,0.12-0.367,0.21-0.492,0.437C77.801,115.443,78.99,122.751,81.264,128.098z
			 M97.767,23.964c-1.24-0.218-2.468-0.34-3.68-0.36c0.59-2.07,1.815-3.574,3.52-4.396C97.275,20.714,97.383,22.419,97.767,23.964z
			 M101.416,18.647c0.218,0.025,0.391-0.03,0.618,0.012c0.754,0.138,1.411,0.393,2.046,0.672c-0.122,0.339-0.232,0.683-0.266,1.007
			c-0.165,1.61-0.399,3.211-0.646,4.811c-0.499-0.043-0.96-0.14-1.474-0.163c-0.311-0.108-0.614-0.149-0.924-0.244
			C100.232,22.482,100.835,20.666,101.416,18.647z M47.362,84.78c-0.85-0.345-1.656-0.811-2.376-1.478
			c-2.071-1.92-2.3-5.108-1.737-7.674c0.537-2.449,1.91-4.537,3.925-5.932C45.519,74.242,46.324,80.176,47.362,84.78z
			 M39.238,129.613c-1.606-7.487-2.696-15.303-3.169-23.254c1.232,0.002,2.391,0.139,3.501,0.35
			c-0.556,2.614-0.429,5.579-0.481,7.983c-0.106,4.932,0.096,9.833,0.537,14.739C39.493,129.487,39.372,129.56,39.238,129.613z
			 M148.705,158.684c-7.288,16.072-25.377,21.093-42.366,24.271c-0.246-1.024-1.022-1.829-2.453-1.691
			c-36.547,3.535-54.862-12.358-63.509-46.776c8.093-2.246,14.229-8.778,14.516-17.983c0.34-10.938-8.956-17.793-19.075-17.044
			c-0.092-6.424,0.235-12.883,1.005-19.264c0.45,2.822,1.606,5.491,3.84,7.429c4.875,4.228,11.997,2.791,17.192-0.046
			c1.476-0.806,0.384-2.736-1.061-2.517c-2.162,0.327-4.559,0.632-6.813,0.365c-0.297-2.842-0.385-5.646-0.266-8.517
			c0.123-2.959,1.253-5.608,1.785-8.418c1.181,0.162,2.33,0.63,3.475,1.111c-0.067,0.815-0.126,1.632-0.195,2.45
			c-0.283,3.398-0.518,6.803-0.444,10.214c0.04,1.875,2.821,1.863,2.9,0c0.144-3.419,0.579-6.823,1.019-10.214
			c0.054-0.417,0.125-0.842,0.195-1.267c0.009,0.001,0.018,0.006,0.027,0.007c-0.491,14.262,4.452,28.288,17.343,36.431
			c-5.951,5.361-5.49,15.092-2.304,21.744c1.743,3.639,5.441,6.262,9.062,6.527c-10.03,6.638-23.838,8.546-35.906,6.779
			c-2.36-0.346-3.44,2.996-1.012,3.671c21.504,5.969,45.152-1.09,54.215-20.385c8.973,17.616,32.224,30.952,51.236,27.144
			C150.381,154.708,149.601,156.705,148.705,158.684z M45.204,120.748c0.063,1.237,1.857,1.236,1.921,0
			c0.123-2.39,0.313-4.77,0.518-7.151c0.245,0.878,0.405,1.839,0.452,2.907c0.234,5.333-2.368,9.37-6.289,11.793
			c0.335-4.001,0.56-8.005,0.801-12.016c0.159-2.632,0.689-5.41,0.898-8.139c0.595,0.353,1.128,0.779,1.626,1.246
			c-0.025,0.404-0.05,0.809-0.079,1.21C44.806,113.974,45.034,117.375,45.204,120.748z M140.513,141.539
			c-0.005-0.271,0.06-0.537,0.081-0.807c0.315-0.34,0.354-0.799,0.125-1.256c0.136-0.692,0.325-1.378,0.521-2.048
			c0.446-1.524-0.058-2.662-0.938-3.36c0.816-0.862,1.971-1.554,2.928-2.106c0.024,1.307,0.13,2.628,0.164,3.95
			c0.08,3.026,0.245,6.044,0.416,9.064c-1.186-0.25-2.34-0.45-3.526-0.723c0.007-0.106,0.014-0.209,0-0.318
			c0.043-0.106,0.08-0.201,0.14-0.361C140.605,142.922,140.525,142.206,140.513,141.539z M152.989,146.905
			c-0.084-0.025-0.144-0.076-0.233-0.094c-2.07-0.4-4.236-0.875-6.366-1.306c0.185-3.197,0.355-6.39,0.44-9.593
			c0.051-1.937,0.241-3.871,0.088-5.756c0.595-0.238,1.217-0.39,1.823-0.597c-0.098,0.801-0.158,1.574-0.241,2.209
			c-0.535,4.096-0.885,8.211-0.677,12.342c0.093,1.831,2.694,1.81,2.826,0c0.268-3.657,0.803-7.308,1.541-10.897
			c0.293-1.423,1.057-3.146,1.393-4.805c0.24-0.021,0.471-0.093,0.716-0.102c0.667-0.023,1.449-0.182,2.068-0.492
			C155.801,134.249,154.785,140.631,152.989,146.905z M156.774,121.958c-0.088-0.063-0.132-0.171-0.226-0.227
			c-0.809-0.474-1.849-0.58-2.763-0.524c-1.691,0.101-3.376,0.467-5.005,0.916c-3.674,1.012-7.289,2.782-10.305,5.107
			c-2.651,2.046-4.507,4.346-4.953,7.73c-0.121,0.93,0.17,1.897,0.585,2.787c-0.263,1.326-0.375,2.683-0.106,3.995
			c0.079,0.387,0.188,0.675,0.293,0.982c-14.689-4.137-27.878-11.33-30.864-28.645c1.955-0.114,3.812-0.396,5.614-0.77
			c-0.006,1.776,0.18,3.575,0.298,5.305c0.217,3.169,0.722,6.278,1.566,9.341c0.439,1.595,2.752,0.914,2.446-0.674
			c-0.552-2.871-0.803-5.748-0.902-8.667c-0.069-2.035,0.119-4.135,0.002-6.183c1.674-0.519,3.271-1.152,4.806-1.876
			c0.082,1.984,0.381,3.978,0.618,5.932c0.524,4.312,1.062,8.629,1.47,12.953c-0.938,0.24-1.944,0.419-3.094,0.451
			c-1.998,0.058-2.626,3.335-0.492,3.631c17.413,2.408,21.516-18.155,11.32-28.624c6.703,6.533,16.564,6.99,22.305-1.802
			c2.548-3.901,3.165-9.054,1.787-13.467c-1.684-5.394-6.428-8.67-11.525-10.463c1.419-7.511,1.308-15.395-0.482-22.762
			c0.265,0.129,0.498,0.319,0.771,0.428c2.758,1.101,7.084,1.539,10.091,0.166c2.206,8.926,3.513,18.049,4.493,26.227
			C156.069,96.119,157.307,109.131,156.774,121.958z"/>
	</g>
</g>
<g>
</g>
<g>
</g>
<g>
</g>
<g>
</g>
<g>
</g>
<g>
</g>
<g>
</g>
<g>
</g>
<g>
</g>
<g>
</g>
<g>
</g>
<g>
</g>
<g>
</g>
<g>
</g>
<g>
</g>
</svg>
