<?xml version="1.0" encoding="iso-8859-1"?>
<!-- Generator: Adobe Illustrator 16.0.0, SVG Export Plug-In . SVG Version: 6.00 Build 0)  -->
<!DOCTYPE svg PUBLIC "-//W3C//DTD SVG 1.1//EN" "http://www.w3.org/Graphics/SVG/1.1/DTD/svg11.dtd">
<svg version="1.1" id="Capa_1" xmlns="http://www.w3.org/2000/svg" xmlns:xlink="http://www.w3.org/1999/xlink" x="0px" y="0px"
	 width="192.395px" height="192.395px" viewBox="0 0 192.395 192.395" style="enable-background:new 0 0 192.395 192.395;"
	 xml:space="preserve">
<g>
	<g>
		<path d="M179.585,22.238c-15.482-17.152-39.31-23.197-58.853-9.253c-8.874,6.331-13.629,16.719-16.755,26.777
			c-1.76,5.663-2.255,29.348-12.937,28.313c0.099-0.301,0.152-0.623,0.079-0.973c-2.291-11.066-12.348-19.027-22.922-19.386
			c-30.354-6.48-32.411,22.505-26.211,45.547C25.212,95.822,7.265,104.615,2.125,121.66c-0.262-0.096-0.531-0.163-0.793-0.261
			c-1.122-0.421-1.894,1.422-0.815,1.933c0.345,0.163,0.699,0.298,1.046,0.456c-0.053,0.229-0.131,0.443-0.179,0.676
			c-3.277,15.801,5.291,31.705,15.586,43.031c10.681,11.751,26.654,20.675,42.888,19.542c18.468-1.289,30.819-17.705,35.604-34.343
			c2.775,1.023,5.578,1.845,8.4,2.371c13.72,2.559,26.889-5.332,28.939-17.814c5.787-9.57,2.797-23.783-5.911-31.799
			c0.03-0.15,0.118-0.254,0.134-0.413c1.383-13.145,27.894-8.455,36.498-10.275c9.603-2.031,15.853-5.979,21.745-13.736
			C197.715,64.646,192.604,36.661,179.585,22.238z M43.592,98.568c1.383,4.096,2.994,7.877,4.715,11.053
			c-0.214,0.088-0.418,0.2-0.631,0.293c-1.897-1.209-4.086-2.113-6.004-3.28c-2.338-1.423-4.476-3.131-6.501-4.965
			c-0.161-0.146-0.334-0.155-0.505-0.187C37.667,100.379,40.69,99.425,43.592,98.568z M51.066,114.276
			c4.875,7.661,11.304,15.399,18.671,22.102c-2.543,2.888-3.555,7.08-8.351,7.717c-4.876,0.648-9.678-1.972-13.184-5.127
			c-3.658-3.291-6.333-7.942-6.221-12.952C42.103,120.519,46.621,116.992,51.066,114.276z M33.725,101.838
			c-0.254,0.342-0.339,0.812,0.05,1.227c2.798,2.98,6.495,6.539,10.42,8.678c-1.635,1.016-3.078,2.266-4.397,3.622
			c-2.759-1.667-6.277-2.391-9.168-3.768c-2.082-0.992-5.594-2.903-6.141-5.482C27.419,104.461,30.541,103.046,33.725,101.838z
			 M22.975,107.032c0.142,2.264,1.468,3.959,3.562,5.6c2.715,2.129,7.085,4.797,10.937,5.644c-0.819,1.263-1.438,2.647-1.92,4.103
			c-0.065-0.06-0.08-0.153-0.155-0.205c-3.852-2.687-10.009-3.473-14.481-4.837c-2.415-0.737-4.834-1.474-7.257-2.186
			C16.148,111.898,19.368,109.245,22.975,107.032z M11.966,117.662c2.2,0.948,4.498,1.738,6.677,2.57
			c4.774,1.822,10.693,5.183,15.831,5.356c0.162,0.006,0.247-0.095,0.388-0.123c-0.181,1.695-0.107,3.364,0.169,4.992
			c-3.599-0.921-7.298-1.569-10.869-2.386c-4.975-1.139-9.866-2.502-14.718-4.006C10.042,121.751,10.836,119.578,11.966,117.662z
			 M8.811,126.704c3.054,1.082,6.152,2.047,9.268,2.972c6.02,1.789,12.212,4.07,18.393,5.598c1.06,2.463,2.631,4.695,4.384,6.762
			c-5.932-1.983-11.919-3.838-18.041-5.385c-1.139-0.288-10.104-2.903-14.022-1.858C8.479,132.107,8.412,129.401,8.811,126.704z
			 M22.566,161.9c-1.029-1.073-2.03-2.208-2.994-3.393c11.683,7.952,25.412,16.253,39.465,20.446
			c-0.632,0.06-1.252,0.137-1.91,0.158C43.84,179.53,31.369,171.087,22.566,161.9z M68.593,176.212
			c-0.016-0.006-0.025-0.018-0.041-0.024c-16.617-6.026-32.657-11.259-48.17-20.06c-0.974-0.552-1.776,0.29-1.743,1.138
			c-2.463-3.198-4.67-6.7-6.37-10.43c11.121,4.628,22.325,9.062,33.621,13.243c8.819,3.264,20.508,9.063,30.686,9.918
			C74.269,172.515,71.633,174.639,68.593,176.212z M80.389,165.142c-8.933-3.929-19.906-5.354-29.156-8.239
			c-13.477-4.204-26.838-8.764-40.248-13.168c-0.762-2.057-1.383-4.154-1.799-6.281c4.103,1.508,25.823,7.501,27.861,8.204
			c15.145,5.226,29.769,12.185,45.155,16.598C81.628,163.248,81.016,164.203,80.389,165.142z M84.833,157.209
			c-0.056-0.021-0.087-0.06-0.146-0.077c-6.498-1.934-12.875-4.133-19.223-6.396c1.574-0.604,3.193-1.456,4.689-2.491
			c2.426,0.591,4.855,1.173,7.269,1.811c3.058,0.809,6.112,2.118,9.193,2.934C86.028,154.4,85.484,155.831,84.833,157.209z
			 M72.917,145.952c1.32-1.32,2.384-2.798,2.982-4.372c3.548,2.738,7.277,5.127,11.093,7.195
			C82.737,147.075,77.63,146.484,72.917,145.952z M76.488,134.882c-7.705-6.644-15.305-14.884-21.241-23.562
			c0.592-1.368-0.432-3.125-2.07-3.155c-0.554-0.883-1.119-1.764-1.633-2.652c-5.86-10.12-9.451-22.908-8.209-33.667
			c-0.898,13.438,8.258,27.794,17.792,38.572c14.865,16.803,34.501,43.053,60.105,35.477c1.767-0.522,3.303-1.245,4.729-2.056
			C116.823,159.375,86.673,143.664,76.488,134.882z M98.482,135.226c-10.518-5.692-19.17-15.663-26.797-24.693
			c-7.961-9.428-15.845-17.94-19.964-29.86C43.417,56.64,74.526,48.354,86.307,66.437c-2.21-0.901-4.471,1.521-3.629,3.531
			c-0.83,2.06-1.066,4.15-0.95,6.451c0.36,7.11,3.705,14.081,7.637,19.872c5.594,8.241,21.713,21.196,31.772,13.346
			c0.12,0.211,0.183,0.428,0.35,0.632C136.825,129.143,119.153,146.415,98.482,135.226z M150.582,87.137
			c-13.73,0.562-28.986,0.044-31.818,15.254c-4.403,1.01-7.389,2.525-12.315,0.12c-4.824-2.354-8.579-6.777-11.558-11.117
			c-2.863-4.172-5.104-8.771-6.501-13.635c-0.18-0.627-0.464-2.127-0.628-3.744c7.574,4.139,15.147,1.565,18.759-8.516
			c2.749-7.674,3.582-15.646,5.502-23.521c5.672-23.269,26.876-34.128,48.629-24.151c15.443,7.083,22.569,24.604,22.774,40.57
			C183.686,78.625,168.182,86.417,150.582,87.137z"/>
		<path d="M168.817,41.599c-4.95-2.918-9.39,4.726-4.485,7.673c7.525,4.522,3.639,12.726-0.388,18.436
			c-2.097,2.975-5.021,5.688-8.204,7.452c-1.684,0.934-4.742,0.441-5.125-0.215c-0.64-1.097-2.672-0.71-2.529,0.685
			c0.229,2.244-0.926,3.257,1.226,5.171c1.496,1.332,3.557,1.856,5.521,1.717c5.547-0.39,10.532-4.445,14.206-8.284
			C178.021,64.842,181.867,49.293,168.817,41.599z"/>
	</g>
</g>
<g>
</g>
<g>
</g>
<g>
</g>
<g>
</g>
<g>
</g>
<g>
</g>
<g>
</g>
<g>
</g>
<g>
</g>
<g>
</g>
<g>
</g>
<g>
</g>
<g>
</g>
<g>
</g>
<g>
</g>
</svg>
