<?xml version='1.0' encoding='iso-8859-1'?>
<!DOCTYPE svg PUBLIC '-//W3C//DTD SVG 1.1//EN' 'http://www.w3.org/Graphics/SVG/1.1/DTD/svg11.dtd'>
<svg version="1.1" xmlns="http://www.w3.org/2000/svg" viewBox="0 0 396.552 396.552" xmlns:xlink="http://www.w3.org/1999/xlink" enable-background="new 0 0 396.552 396.552">
  <g>
    <path d="m0,71.348c2.481-8.025 9.541-8.126 15.964-8.445 23.882-1.188 47.784-2.595 71.682-2.686 57.82-0.221 115.643,0.134 173.463,0.483 39.396,0.238 78.791,0.846 118.186,1.31 10.704,0.126 15.212,3.451 16.183,13.873 1.817,19.49 1.643,38.992-3.01,58.185-2.076,8.563-4.248,11.08-12.834,10.453-28.831-2.107-48.511,12.989-66.506,32.902-20.318,22.483-30.732,48.857-34.685,78.471-3.111,23.304-7.061,46.496-10.551,69.75-0.904,6.023-4.333,9.336-10.237,9.629-11.372,0.564-22.788,1.472-34.135,1.002-13.93-0.576-27.82-2.297-41.701-3.777-4.732-0.504-9.388-1.753-14.069-2.705-11.445-2.326-18.198-9.286-19.745-20.832-2.197-16.398-3.793-32.88-6.165-49.251-2.81-19.397-7.933-37.999-17.903-55.274-9.568-16.579-23.87-26.751-41.128-33.098-9.256-3.404-19.126-5.216-28.799-7.388-7.526-1.69-15.136-3.15-22.785-4.103-5.705-0.71-11.568-0.931-17.295-0.499-7.82,0.589-11.815-1.912-13.248-9.682-0.332-1.798-0.381-3.675-0.338-5.51 0.454-19.498 1.089-38.992 1.341-58.492 0.065-4.765-1.09-9.544-1.685-14.316zm253.952,253.046c0.871-3.177 1.516-4.895 1.802-6.671 3.324-20.693 7.405-41.305 9.702-62.113 4.143-37.534 20.081-68.928 46.798-95.113 16.542-16.212 35.62-27.21 59.609-27.47 2.444-0.026 4.88-0.712 7.337-1.095 5.138-19.65 4.42-38.853 3.257-58.136-2.802-0.359-4.245-0.689-5.692-0.708-36.454-0.476-72.908-1.065-109.364-1.334-51.911-0.383-103.824-0.633-155.736-0.723-23.581-0.041-47.17,0.174-70.742,0.803-10.544,0.281-21.053,1.868-32.342,2.935-0.28,13.294-0.563,25.423 0.961,38.448 2.931-2.045 4.541-3.169 8.156-5.692-4.982,8.474-12.361,14.277-6.223,23.666 4.035-4.477 7.649-8.487 12.728-14.122-2.989,12.419-16.79,17.915-11.79,32.607 3.465-4.08 5.739-7.279 8.544-9.913 2.816-2.644 4.718-6.713 11.036-8.621-4.758,6.137-8.076,10.418-11.75,15.156 7.607,4.108 14.137,3.294 20.96-1.895-0.926,2.817-1.455,4.427-2.293,6.975 21.499,2.029 41.651,6.372 60.192,15.537 3.235-2.428 5.811-4.361 10.053-7.544-2.508,4.438-3.997,7.074-5.664,10.025 3.03,1.905 5.473,3.441 8.072,5.076 2.896-1.842 5.586-3.554 10.227-6.506-2.431,4.584-3.856,7.274-6.092,11.49 4.981,1.061 8.673,1.848 12.217,2.603-3.893,5.045-1.31,8.338 3.198,11.187 5.07-3.791 9.831-7.351 14.591-10.911 0.919,1.084 1.838,2.167 2.757,3.251-5.486,3.723-10.971,7.445-16.375,11.112 3.442,5.305 5.538,8.535 7.708,11.879 6.408-5.56 11.987-10.401 17.565-15.241 0.564,0.63 1.128,1.259 1.692,1.889-5.682,6.073-11.363,12.145-17.159,18.339 0.965,2.623 1.835,4.99 2.919,7.94 4.438-3.745 8.472-7.148 12.505-10.551 0.457,0.422 0.913,0.845 1.37,1.267-3.956,4.955-7.912,9.909-11.992,15.018 1.128,3.842 2.205,7.508 3.367,11.466 7.626-4.29 11.49-11.487 19.559-12.911-3.954,5.545-8.932,9.914-13.86,14.339-3.57,3.205-5.247,6.747-1.683,11.56 3.265-2.258 6.217-4.299 9.169-6.341-2.527,7.205-11.717,11.014-7.3,21.262 3.745-2.426 6.931-4.49 10.647-6.896-0.809,8.44-15.615,9.961-8.774,20.909 6.723-5.018 13.01-9.709 19.296-14.401 0.488,0.619 0.975,1.238 1.463,1.857-5.82,5.393-11.79,10.635-17.415,16.224-5.169,5.136-5.066,6.401-0.786,14.074 9.635-7.094 19.272-14.19 28.908-21.285 0.467,0.601 0.934,1.202 1.401,1.803-8.557,7.284-17.163,14.511-25.641,21.885-2.676,2.327-6.246,4.353-4.858,9.006 1.478,4.956 4.158,8.543 9.686,9.315 5.821,0.813 11.597,2.06 17.44,2.585 12.081,1.087 24.182,2.094 36.298,2.615 9.833,0.426 19.698,0.09 30.341,0.09z"/>
    <path d="m281.694,112.606c1.08-2.959 1.633-5.108 2.61-7.041 4.051-8.018 9.162-11.392 15.242-10.269 7.1,1.311 14.651,9.879 14.814,17.282 0.063,2.887-0.021,6.228-1.364,8.616-5.042,8.968-10.1,18.033-16.302,26.187-2.208,2.904-7.898,5.001-11.64,4.542-10.149-1.245-20.193-3.737-30.09-6.426-3.343-0.908-6.491-3.509-9.086-6.003-6.625-6.368-7.025-13.577-1.018-20.605 7.621-8.916 17.415-11.983 28.862-9.198 2.479,0.603 4.828,1.747 7.972,2.915zm6.882,33.063c5.873-8.925 10.952-15.754 15.07-23.12 5.727-10.245 4.21-14.097-7.626-20.488-3.869,6.714-7.757,13.459-11.824,20.517-2.978-1.887-5.351-3.633-7.933-4.98-7.111-3.711-14.516-3.723-20.942,0.873-3.252,2.327-6.323,6.466-7.124,10.279-1.078,5.13 3.874,7.852 8.075,9.035 10.521,2.961 21.235,5.233 32.304,7.884z"/>
    <path d="m189.724,135.208c4.867-2.735 9.118-5.675 13.784-7.619 7.307-3.043 14.481-1.305 18.085,3.629 3.412,4.672 2.667,10.531-1.79,17.352-9.462,14.482-22.369,24.08-40.544,28.836-7.78-6.101-16.245-12.415-24.296-19.22-3.023-2.556-5.222-6.152-7.553-9.447-4.304-6.083-6.461-13.025-2.342-19.613 4.404-7.044 12.007-10.411 20.058-8.881 5.849,1.112 11.38,4.595 16.671,7.675 3.053,1.776 5.35,4.853 7.927,7.288zm-10.887,35.362c9.13-5.548 17.837-10.21 25.79-15.92 4.365-3.134 7.908-7.74 10.921-12.28 1.287-1.939 1.327-6.197 0.006-7.952-1.3-1.728-5.305-2.7-7.656-2.117-6.837,1.697-13.563,4.134-17.046,11.409-1.965-1.642-3.056-2.614-4.207-3.506-5.213-4.043-10.071-8.728-15.765-11.916-6.5-3.639-14.128-1.766-18.2,3.059-3.482,4.126-3.295,9.069 2.643,15.826 6.981,7.944 14.98,14.996 23.514,23.397z"/>
    <path d="m219.302,227.254c4.681-2.008 8.796-4.478 13.244-5.511 6.388-1.485 12.307,1.082 14.412,5.469 2.518,5.249 0.937,9.981-2.413,14.341-8.487,11.042-20.012,18.391-31.937,24.843-3.127,1.692-8.763,0.522-12.522-1.057-12.055-5.068-20.644-14.005-24.744-26.538-3.317-10.141 1.296-21.225 10.359-26.759 9.704-5.926 21.664-3.55 28.263,5.827 2.071,2.943 3.591,6.275 5.338,9.385zm-4.973,7.33c-1.89-4.154-3.423-8.689-5.872-12.658-4.902-7.947-13.706-8.948-20.76-2.791-6.79,5.927-7.997,13.396-2.895,21.788 5.281,8.685 13.148,14.675 22.257,19.807 11.302-6.189 22.35-12.742 30.521-23.01 1.544-1.94 1.496-5.147 2.183-7.769-2.676-0.696-5.625-2.47-7.972-1.872-5.58,1.42-10.876,3.962-17.462,6.505z"/>
    <path d="m84.16,101.97c7.355-4.997 12.945-9.875 19.401-12.91 8.305-3.903 16.792,0.889 17.872,9.943 0.624,5.227 0.085,11.184-1.908,15.994-3.06,7.384-7.77,14.094-11.883,21.029-2.496,4.209-5.792,5.674-11.029,4.562-7.117-1.512-14.497-1.787-21.763-2.603-0.728-0.082-1.459-0.194-2.17-0.368-11.535-2.833-19.683-10.692-19.119-18.423 0.59-8.092 11.956-17.023 22.747-17.621 3.233-0.178 6.503,0.319 7.852,0.397zm7.198,8.611c-7.226-1.75-14.125-5.603-21.342-1.098-4.346,2.712-9.971,5.113-9.417,10.988 0.543,5.764 5.837,7.922 11.157,8.933 8.921,1.695 17.847,3.362 26.953,5.074 4.144-6.386 8.319-12.378 11.989-18.664 1.803-3.088 3.584-6.694 3.693-10.12 0.103-3.246-1.128-7.599-3.41-9.499-1.638-1.364-6.332-0.224-9.026,1.097-5.31,2.606-9.573,6.61-10.597,13.289z"/>
    <path d="m177.572,308.249c4.212-3.658 8.423-7.316 12.635-10.973 0.514,0.547 1.028,1.094 1.542,1.641-4.048,3.763-8.095,7.526-12.142,11.288-0.678-0.651-1.357-1.304-2.035-1.956z"/>
  </g>
</svg>
