<?xml version="1.0" encoding="iso-8859-1"?>
<!-- Generator: Adobe Illustrator 16.0.0, SVG Export Plug-In . SVG Version: 6.00 Build 0)  -->
<!DOCTYPE svg PUBLIC "-//W3C//DTD SVG 1.1//EN" "http://www.w3.org/Graphics/SVG/1.1/DTD/svg11.dtd">
<svg version="1.1" id="Capa_1" xmlns="http://www.w3.org/2000/svg" xmlns:xlink="http://www.w3.org/1999/xlink" x="0px" y="0px"
	 width="193.187px" height="193.187px" viewBox="0 0 193.187 193.187" style="enable-background:new 0 0 193.187 193.187;"
	 xml:space="preserve">
<g>
	<g>
		<path d="M88.36,101.501c0.04,0.022,0.04,0.025,0.066,0.037C88.403,101.527,88.383,101.514,88.36,101.501z"/>
		<path d="M189.612,16.4c-0.733-1.115-1.921-1.923-3.692-1.878C124.958,16.056,66.168,44.125,4.771,35.768
			c-2.572-0.35-4.13,2.232-3.388,4.028c-1.559,1.184-2.157,3.535,0.128,4.582c11.294,5.174,20.967,14.463,30.475,22.27
			c6.353,5.217,16.801,16.667,26.073,19.409c-6.837,6.843-4.346,25.085-4.058,32.568c0.727,18.875,3.131,37.852,6.394,56.451
			c0.739,4.21,7.219,4.861,9.074,1.187c0.696-1.378,1.368-2.85,2.049-4.287c19.04-13.004,37.163-28.286,53.625-44.506
			c0.218-0.216,0.288-0.456,0.457-0.681c1.111,0.484,2.232,0.958,3.339,1.45c6.053,2.693,12.105,5.236,18,8.271
			c4.58,2.358,8.294,6.248,12.903,8.349c2.066,0.941,4.992,0.152,5.624-2.101c1.837-0.077,3.562-1.045,3.925-3.205
			c3.486-20.69,8.338-41.015,13.096-61.438c3.634-15.598,9.801-35.397,5.977-51.587c0.941-0.673,1.931-1.274,2.859-1.966
			C194.828,21.955,192.895,16.775,189.612,16.4z M52.898,72.686c-6.839-4.907-13.345-10.291-19.946-15.511
			c-5.179-4.095-11.047-9.548-17.386-13.428c52.871,8.167,105.5-14.508,158.309-19.087c-0.964,0.738-1.89,1.547-2.832,2.329
			c-34.664,20.38-72.767,33.268-107.549,53.546C60.623,77.285,56.388,75.189,52.898,72.686z M88.354,101.497
			c0.12,0.062,0.147,0.075,0.072,0.041c0.123,0.057,0.203,0.164,0.345,0.193c0.027,0.005,0.053,0.011,0.08,0.016
			c0.933,0.189,1.938-0.104,2.424-0.986c2.061-3.74-4.833-6.349-7.035-7.587c-4.726-2.656-9.438-5.422-14.316-7.81
			c3.244-1.425,6.535-2.812,9.805-4.215c0.025,0.041,0,0.087,0.03,0.127c2.73,3.624,6.759,6.464,10.374,9.152
			c2.378,1.768,5.692,4.716,8.954,5.974c-3.336,2.701-6.667,5.407-10.13,7.961c-1.102,0.813-1.569,1.901-1.652,2.991
			c-1.016-0.255-2.074-0.066-3.006,0.369c-2.781-2.998-7.31-4.996-10.74-7.226c-3.053-1.983-6.113-4.003-9.236-5.908
			c-0.062-2.236-0.189-4.445-0.496-6.575c0.978-0.439,1.983-0.853,2.964-1.289c4.099,2.384,8.224,4.911,12.041,7.704
			c2.078,1.52,4.134,3.07,6.141,4.684c0.649,0.522,1.119,1.344,1.892,1.715c0.345,0.174,0.697,0.331,1.057,0.472
			c0.252,0.104,0.334,0.147,0.425,0.194c0.004,0.002,0.008,0.005,0.013,0.007C88.358,101.5,88.356,101.498,88.354,101.497z
			 M93.365,87.227c-3.549-2.334-6.766-5.06-10.16-7.572c3.23-1.378,6.477-2.752,9.72-4.126c4.17,2.806,8.238,5.755,12.429,8.535
			c1.482,0.984,3.136,2.168,4.873,2.949c-2.303,2.03-4.601,4.064-6.953,6.035C100.476,90.667,96.469,89.268,93.365,87.227z
			 M104.142,78.423c-2.557-1.414-5.049-2.933-7.539-4.456c2.951-1.251,5.903-2.514,8.854-3.775c2.301,1.608,4.607,3.209,6.916,4.804
			c1.747,1.207,4.253,3.547,6.569,4.046c-1.415,1.315-2.794,2.671-4.225,3.968c-0.082,0.004-0.157-0.019-0.24-0.006
			c-0.69,0.106-2.684-0.904-3.391-1.125C108.661,81.121,106.356,79.647,104.142,78.423z M114.205,71.862
			c-1.871-0.947-3.658-2.035-5.476-3.066c1.817-0.781,3.616-1.604,5.432-2.393c2.109,0.919,4.124,2.012,6.092,3.217
			c1.65,1.01,3.12,2.555,4.798,3.566c-1.1,1.049-2.159,2.141-3.264,3.183c-0.039-0.084-0.021-0.171-0.074-0.253
			C120.277,73.9,116.493,73.021,114.205,71.862z M122.156,66.367c-1.237-0.647-2.465-1.267-3.71-1.85
			c2.735-1.204,5.453-2.447,8.179-3.672c0.596,0.516,1.125,1.101,1.737,1.603c1.305,1.07,2.625,2.453,4.064,3.549
			c-1.363,1.314-2.705,2.651-4.066,3.966C126.652,68.361,124.183,67.429,122.156,66.367z M135.441,63.058
			c-1.344-0.892-2.887-1.532-4.332-2.368c-0.58-0.336-1.131-0.733-1.699-1.097c5.907-2.685,11.787-5.422,17.575-8.323
			c-2.215,2.4-4.427,4.768-6.651,7.016C138.731,59.908,137.073,61.469,135.441,63.058z M67.323,155.308
			c-1.193-8.68-2.113-17.395-2.873-26.119c2.438,2.757,4.755,5.607,6.655,8.784c0.305,0.51,0.691,0.79,1.095,0.978
			C70.689,144.436,69.132,149.915,67.323,155.308z M74.396,130.955c-0.234,0.86-0.477,1.726-0.711,2.587
			c-3.002-3.622-6.327-6.966-9.763-10.184c-0.014-0.18-0.035-0.361-0.049-0.541c-0.231-3.076-0.207-6.281-0.098-9.535
			c1.369,0.829,2.782,1.583,4.133,2.443c2.956,1.88,5.582,4.71,8.605,6.394C75.745,125.175,75.134,128.234,74.396,130.955z
			 M70.716,113.229c-2.232-1.242-4.534-2.345-6.8-3.519c0.174-3.638,0.393-7.31,0.453-10.917c2.607,1.82,5.154,3.732,7.65,5.664
			c2.588,2.003,5.729,5.345,9.008,6.522c-1.312,1.929-2.32,4.114-3.116,6.434C75.791,115.664,72.841,114.411,70.716,113.229z
			 M78.014,156.727c5.651-14.766,10.11-30.826,11.938-45.195c0.7,0.208,1.471,0.239,2.308-0.123
			c7.509,4.156,15.393,7.632,23.299,11.031C103.342,134.226,90.306,145.089,78.014,156.727z M170.428,82.27
			c-3.894,16.834-7.948,33.634-9.482,50.846c-5.671-5.123-15.15-8.236-20.623-10.587c-13.521-5.81-27.784-9.811-41.292-15.649
			c15.903-11.036,30.235-23.925,44.052-37.534c11.547-11.374,24.618-23.067,35.199-35.815c0.108-0.071,0.213-0.151,0.323-0.222
			C175.408,49.411,174.152,66.175,170.428,82.27z"/>
	</g>
</g>
<g>
</g>
<g>
</g>
<g>
</g>
<g>
</g>
<g>
</g>
<g>
</g>
<g>
</g>
<g>
</g>
<g>
</g>
<g>
</g>
<g>
</g>
<g>
</g>
<g>
</g>
<g>
</g>
<g>
</g>
</svg>
