<?xml version="1.0" encoding="iso-8859-1"?>
<!-- Generator: Adobe Illustrator 16.0.0, SVG Export Plug-In . SVG Version: 6.00 Build 0)  -->
<!DOCTYPE svg PUBLIC "-//W3C//DTD SVG 1.1//EN" "http://www.w3.org/Graphics/SVG/1.1/DTD/svg11.dtd">
<svg version="1.1" id="Capa_1" xmlns="http://www.w3.org/2000/svg" xmlns:xlink="http://www.w3.org/1999/xlink" x="0px" y="0px"
	 width="189.716px" height="189.715px" viewBox="0 0 189.716 189.715" style="enable-background:new 0 0 189.716 189.715;"
	 xml:space="preserve">
<g>
	<g>
		<path d="M187.424,9.591c-0.23-0.796-0.654-1.348-1.143-1.796c-0.801-1.615-2.7-2.829-4.654-2.492
			c0.079-2.258-1.876-4.538-4.649-3.888c-28.502,6.67-57.763,13.548-85.697,22.334c-20.285,6.38-40.499,13.419-60.588,20.403
			c-8.648,3.006-20.83,5.617-28.202,11.506c-1.481,1.183-1.568,2.957-0.921,4.479c-1.426,0.691-2.231,2.678-0.869,4.321
			c9.391,11.326,23.315,32.505,39.864,35.662c-1.916,25.01-3.824,52.236,5.963,75.725c1.154,2.769,4.143,3.818,6.541,1.727
			c0.908-0.792,1.711-1.665,2.572-2.493c6.577,0.599,14.574-5.598,19.671-8.775c7.107-4.433,13.92-9.337,20.615-14.361
			c3.039-2.281,7.495-4.818,10.365-7.913c7.542,4.926,15.495,9.028,24.266,10.986c14.752,3.292,16.751-2.337,23.05-14.531
			c11.438-22.142,18.995-47.16,26.993-70.739C187.051,50.727,193.176,29.486,187.424,9.591z M49.894,135.85
			c-0.359,4.843-1.363,11.589-1.303,18.059c-2.941-17.475-1.879-35.726-2.659-53.432c2.51-0.118,5.009-0.612,7.491-1.357
			C52.157,111.355,50.804,123.589,49.894,135.85z M6.775,62.821C37.839,52.058,68.687,40.605,100.06,30.72
			c19.661-6.195,43.157-7.881,63.38-14.887c-6.223,4.881-12.182,10.421-18.945,14.664c-14.662,9.199-29.973,17.324-45.075,25.763
			c-13.236,7.396-24.05,18.406-36.357,27.22C38.693,100.933,23.49,78.854,6.775,62.821z M141.541,49.556
			c-0.123-0.97-0.242-1.941-0.303-2.919c-0.076-1.241-0.052-2.5-0.034-3.755c4.412-2.407,8.758-4.864,12.878-7.5
			c0.673-0.43,1.444-0.903,2.256-1.397c-2.808,3.01-5.652,5.998-8.561,8.979C145.663,45.132,143.621,47.359,141.541,49.556z
			 M137.505,53.822c-1.019,1.092-2.068,2.158-3.08,3.256c-0.536-3.165-1.356-6.311-2.028-9.476c1.441-0.755,2.847-1.533,4.28-2.293
			C136.482,48.286,136.665,51.254,137.505,53.822z M120.206,72.841c-1.73,1.969-3.516,3.892-5.225,5.879
			c-0.455-0.921-1.87-1.298-2.676-0.528c-1.343-5.963-2.347-11.912-2.836-18.121c2.102-1.263,4.291-2.437,6.451-3.641
			C115.649,62.318,115.87,72.46,120.206,72.841z M119.827,63.201c-0.368-2.867-0.403-5.757-0.603-8.633
			c3.171-1.72,6.375-3.402,9.579-5.077c0.108,3.974,0.732,8.015,2.208,11.362c-2.747,3.016-5.504,6.025-8.212,9.075
			c-0.251-0.235-0.563-0.406-0.943-0.427C120.474,69.421,119.947,64.142,119.827,63.201z M109.459,85.195
			c-3.33,3.978-6.637,7.977-9.865,12.042c-0.021-0.002-0.04-0.008-0.062-0.01c-0.206-1.111-0.477-2.186-0.621-3.315
			c-0.381-3.005-0.476-6.049-0.58-9.073c-0.176-5.085-0.13-10.177-0.307-15.262c-0.024-0.701-0.463-1.048-0.963-1.214
			c2.955-2.251,6.089-4.329,9.286-6.344C106.357,69.818,107.402,77.684,109.459,85.195z M94.406,93.912
			c0.057,1.636,0.908,5.173,2.29,7.022c-1.961,2.515-3.984,4.976-5.901,7.528c0.016-4.581-0.712-9.334-1.092-13.633
			c-0.538-6.074-1.081-12.321-2.552-18.291c2.632-2.29,5.162-4.488,7.516-6.394c0.16-0.13,0.338-0.243,0.499-0.372
			C94.805,77.819,94.125,85.851,94.406,93.912z M81.095,125.416c0.337,0.247,0.674,0.513,1.011,0.763
			c-1.05,0.955-1.99,2.008-2.882,3.101c-1.996-14.341-1.061-28.519-2.269-42.865c-0.033-0.389-0.212-0.656-0.419-0.878
			c2.682-2.155,5.261-4.365,7.768-6.534c0.954,5.945,1.221,12.04,1.355,18.006c0.129,5.744-0.827,12,0.538,17.63
			c-1.248,1.721-2.583,3.365-3.807,5.107c-0.054,0.077-0.053,0.157-0.099,0.234C79.961,120.197,78.688,123.65,81.095,125.416z
			 M56.661,162.33c-0.343-21.569,2.075-43.377,1.243-64.858c5.567-2.395,10.985-6.01,16.152-9.988
			c-0.058,0.605-0.112,1.216-0.169,1.825c-0.096,0.689-0.143,0.724-0.179,1.933c-1.146,12.967-1.758,26.689,0.984,39.29
			c0.303,1.391,1.379,1.823,2.41,1.633c-1.996,2.917-3.765,6.035-5.647,9.055c-0.776,1.244-1.609,2.45-2.399,3.688
			c0.707-7.046-0.212-14.851-0.133-21.417c0.116-9.575-1.033-19.271-1.102-28.658c-0.006-0.889-1.318-0.875-1.369,0
			c-0.551,9.403-2.192,19.059-2.562,28.658c-0.331,8.602-2.658,19.625-0.172,28.019c0.101,0.34,0.328,0.533,0.531,0.757
			C61.854,155.727,59.353,159.107,56.661,162.33z M94.259,143.26c-5.531,4.392-11.187,8.636-16.91,12.774
			c-3.798,2.746-7.719,5.294-11.702,7.748c2.675-3.509,5.226-7.125,7.706-10.837c4.681-7.008,10.915-14.74,14.042-22.776
			c3.874,2.977,7.788,6.009,11.781,8.926C97.46,140.459,95.842,142.002,94.259,143.26z M157.999,106.477
			c-6.55,16.884-8.455,44.037-30.218,39.329c-13.94-3.016-27.052-14.491-39.323-22.633c29.816-36.271,62.53-69.914,92.454-105.858
			C185.41,46.354,168.064,80.532,157.999,106.477z"/>
		<path d="M18.601,146.84c-1.368-3.651-2.254-7.448-2.689-11.321c-0.297-2.64-4.026-2.741-4.182,0
			c-0.218,3.851,0.406,7.481,1.34,11.214c0.919,3.67,1.954,8.021,4.206,11.093c1.273,1.735,5.008,1.491,4.654-1.261
			C21.487,153.108,19.821,150.098,18.601,146.84z"/>
		<path d="M13.364,159.401c-2.107-3.71-4.771-6.667-6.293-10.752c-1.84-4.942-1.858-10.242-1.037-15.376
			c0.426-2.658-3.158-3.728-4.067-1.121c-3.411,9.772-1.634,24.83,7.676,30.969C11.993,164.671,14.659,161.681,13.364,159.401z"/>
		<path d="M100.43,167.12c-0.429-1.595-2.288-2.29-3.696-1.504c-1.652,0.922-2.005,2.229-2.859,3.827
			c-0.815,1.527-1.892,2.853-3.078,4.103c-2.618,2.76-6.057,4.562-9.45,6.182c-2.478,1.181-0.718,5.331,1.868,4.43
			c4.025-1.404,7.641-3.367,10.94-6.073C96.978,175.767,101.48,171.035,100.43,167.12z"/>
		<path d="M108.007,168.853c-2.574,2.275-4.682,5.3-7.221,7.699c-2.8,2.646-6.106,4.935-8.707,7.763
			c-1.901,2.067,0.476,5.044,2.937,3.806c3.59-1.806,6.869-4.834,9.963-7.376c2.653-2.179,6.504-4.87,8.047-8.018
			C114.637,169.444,110.777,166.403,108.007,168.853z"/>
	</g>
</g>
<g>
</g>
<g>
</g>
<g>
</g>
<g>
</g>
<g>
</g>
<g>
</g>
<g>
</g>
<g>
</g>
<g>
</g>
<g>
</g>
<g>
</g>
<g>
</g>
<g>
</g>
<g>
</g>
<g>
</g>
</svg>
