<?xml version='1.0' encoding='iso-8859-1'?>
<!DOCTYPE svg PUBLIC '-//W3C//DTD SVG 1.1//EN' 'http://www.w3.org/Graphics/SVG/1.1/DTD/svg11.dtd'>
<svg version="1.1" xmlns="http://www.w3.org/2000/svg" viewBox="0 0 434.733 434.733" xmlns:xlink="http://www.w3.org/1999/xlink" enable-background="new 0 0 434.733 434.733">
  <g>
    <path d="m159.384,75.578c-0.316-3.174-0.588-5.902-0.899-9.021-3.9-0.347-7.217-0.3-10.37-0.995-6.376-1.405-10.219-5.932-11.888-11.898-1.679-6.003 1.936-10.397 6.921-12.336 8.517-3.313 6.558-10.055 5.758-15.89-1.884-13.74 6.112-20.093 16.589-23.882 15.144-5.476 25.58,4.059 22.511,19.834-2.42,12.439-2.42,12.439 8.194,19.621 36.821-19.414 75.699-19.129 114.888-10.596 15.816,3.443 30.672,10.478 40.979,24.335 15.6,20.973 18.757,38.254 11.519,65.821 21.05,16.88 20.873,40.575 19.163,64.308-0.651,9.035-2.651,18.418-6.196,26.72-14.38,33.68-56.313,42.904-81.816,16.204-5.603-5.866-9.815-12.718-10.349-20.285-0.793-11.241-1.387-23.17 1.492-33.846 4.956-18.371 15.366-34.142 30.741-46.123 7.845-6.113 13.106-7.987 32.943-11.057 13.027-23.013 0.574-54.921-19.32-66.613-9.912-5.825-20.395-10.338-31.977-11.57-26.068-2.774-52.129-4.319-77.814,2.821-6.706,1.864-13.194,4.509-20.183,6.934 0.061,6.738-3.053,11.105-8.799,14.196-4.045,2.176-6.617,5.892-4.783,12.141 2.569-0.51 5.217-1.128 7.895-1.551 11.74-1.856 19.098,2.889 19.523,14.669 0.512,14.183 2.973,28.658-3.114,42.572-1.324,3.027-0.472,7.203-0.024,10.775 2.331,18.594 11.093,33.975 23.494,47.756 10.339,11.488 20.205,23.419 29.95,35.422 23.647,29.128 32.529,62.72 31.153,99.916-0.745,20.137-2.834,39.55-11.984,57.829-12.183,24.34-32.577,38.249-57.68,46.37-3.139,1.016-6.499,1.347-9.638,2.361-19.18,6.193-38.502,4.673-57.838,1.115-14.094-2.594-28.208-5.138-42.197-8.23-25.664-5.673-58.19-26.217-63.658-64.334-3.278-22.85-0.166-45.563 8.213-67.288 12.975-33.642 31.713-63.914 54.057-92.069 7.55-9.514 15.879-18.574 22.169-28.87 4.671-7.645 7.297-16.777 9.554-25.575 1.519-5.922 0.853-12.023-3.887-17.54-4.693-5.461-5.449-12.747-4.428-19.958 0.309-2.183 1.057-4.337 1.11-6.516 0.324-13.265 5.734-22.665 20.026-25.677zm160.831,157.629l-.034-.108c26.177,4.583 39.944-6.032 47.721-26.946 8.176-21.988 7.89-44.673 0.604-67.113-2.463-7.585-7.248-12.36-15.316-14.251-9.598-2.248-18.579-0.377-26.424,4.522-18.723,11.694-29.104,29.234-32.284,51.287 3.953-5.508 7.906-11.017 13.353-18.607-3.267,14.397-17.534,21.811-14.405,37.425 5.559-7.41 10.32-13.756 15.08-20.102-2.657,8.387-7.075,15.491-11.186,22.767-1.891,3.346-4.581,7.104 0.479,10.602 5.812-8.409 11.484-16.616 17.157-24.824 0.686,0.446 1.372,0.891 2.059,1.337-5.873,9.897-11.746,19.794-18.054,30.423 3.847,2.349 6.832,4.173 9.818,5.996l-.286-.24c3.905,2.611 7.812,5.221 11.718,7.832zm-224.842,40.916c0.498,0.531 0.996,1.063 1.494,1.594-6.35,6.405-12.374,13.18-19.128,19.128-9.655,8.503-11.001,19.481-11.78,32.674 11.373-11.635 20.459-23.144 32.646-31.388-8.766,11.481-18.451,22.042-28.067,32.664-1.935,2.137-5.048,4.443-5.158,6.787-0.507,10.782-2.419,21.934 4.204,32.402 9.399-9.45 18.43-18.53 27.461-27.609 0.59,0.598 1.179,1.197 1.768,1.795-9.305,10.301-18.61,20.603-28.451,31.498 2.075,3.385 4.027,6.568 6.132,10 10.655-11.29 20.482-21.702 30.308-32.114 0.795,0.726 1.589,1.452 2.384,2.177-9.788,11.131-19.575,22.261-29.641,33.709 2.223,1.891 4.085,3.476 5.055,4.301 10.155-9.628 19.876-18.843 29.596-28.059 0.546,0.481 1.092,0.962 1.638,1.443-8.681,10.136-17.362,20.272-26.269,30.672 8.11,7.804 17.473,11.872 27.404,14.677 19.075,5.388 38.3,9.626 58.091,12.186 18.354,2.374 35.591-0.945 51.79-7.238 29.641-11.515 47.677-34.273 52.225-65.942 2.233-15.548 2.014-31.537 1.858-47.316-0.212-21.458-6.197-41.72-18.683-59.097-12.644-17.596-26.948-34.008-40.688-50.806-9.893-12.095-18.597-24.761-21.075-40.626-0.771-4.939-0.946-9.971-1.373-14.725-13.938,0-27.032,0-40.922,0 0.831,16.827-4.667,31.033-13.651,43.955-5.247,7.547-11.001,14.743-16.566,22.067-6.458,8.499-13.225,16.778-19.351,25.507-4.441,6.329-8.059,13.236-12.043,19.885 0.473,0.288 0.946,0.576 1.418,0.865 3.102-2.135 6.204-4.27 9.306-6.404 0.523,0.503 1.045,1.005 1.568,1.508-15.099,12.385-29.071,25.52-33.101,47.3 7.346-6.547 13.473-12.009 19.601-17.47zm110.343-192.98c-16.574-1.132-31.898,0.003-46.967,3.056-3.155,0.639-7.334,4.926-7.878,8.078-1.477,8.559-1.9,17.444-1.452,26.133 0.241,4.677 3.192,9.086 9.332,9.034 12.508-0.105 25.016-0.183 37.524-0.164 4.497,0.007 6.729-2.41 7.592-6.459 2.69-12.62 3.961-25.303 1.849-39.678zm-61.567-30.369c0.883,4.97 3.305,7.601 7.841,8.535 4.231,0.87 8.406,2.045 12.561,3.242 8.609,2.48 18.423-0.345 23.667-7.453 1.301-1.763 2.419-5.478 1.495-6.739-3.418-4.667-7.358-9.254-13.886-9.703-12.482-0.86-22.598,4.223-31.678,12.118zm32.489-17.724c1.339-5.194 2.351-9.8 3.739-14.29 1.109-3.586 2.581-7.152-1.124-9.963-3.406-2.585-7.125-3.076-11.344-1.439-8.25,3.2-11.46,8.178-10.01,16.862 0.586,3.513 1.584,6.957 2.537,11.045 5.728-0.783 11.024-1.507 16.202-2.215zm2.955,34.9c-6.363,1.484-12.605-3.12-14.298,6.474 5.051-0.682 10.785,3.519 14.298-6.474z"/>
    <path d="m195.704,361.209c-7.814-3.022-12.96-5.286-18.28-7.016-15.138-4.921-29.448-11.364-41.631-21.852-12.619-10.864-17.082-25.556-17.5-41.313-0.317-11.949 7.435-19.416 17.94-24.085 12.768-5.675 25.639-5.331 38.544-0.537 3.034,1.127 5.978,2.495 9.273,3.882 2.475-2.291 4.725-4.703 7.299-6.701 15.855-12.311 38.876-4.212 43.837,15.239 2.821,11.062 1.954,21.817-2,32.388-7.811,20.878-21.561,37.128-37.482,49.995z"/>
    <path d="m221.591,402.192c-7.895,0.135-11.772-3.091-14.691-7.564-3.016-4.62-1.787-9.175 1.227-13.277 1.945-2.647 4.065-5.263 6.522-7.419 6.515-5.715 10.718-12.782 14.008-20.727 1.917-4.629 4.598-9.303 8.068-12.846 5.374-5.486 12.784-3.692 16.085,3.245 2.36,4.959 3.585,9.787 2.212,15.713-3.784,16.335-10.597,30.425-25.329,39.499-3.012,1.855-6.603,2.769-8.102,3.376zm28.621-48.253c-0.257-5.375 1.29-10.69-4.397-12.349-5.908-1.724-8.284,3.228-10.858,7.239-0.396,0.616-0.817,1.265-1.005,1.958-3.3,12.134-10.403,21.608-19.72,29.896-5.236,4.658-5.311,8.541-2.088,12.453 3.714,4.508 7.947,5.143 13.662,1.65 15.663-9.575 23.246-23.905 24.406-40.847z"/>
    <path d="m185.882,180.622c2.458,0.767 5.45,1.213 7.957,2.561 16.163,8.687 25.112,22.667 26.609,40.574 0.583,6.979-1.576,14.744-9.246,18.799-10.296,5.443-20.366,1.545-23.003-9.838-2.79-12.049-7.169-22.973-15.231-32.586-6.851-8.169-5.011-13.543 4.962-17.313 2.379-0.901 4.921-1.375 7.952-2.197zm29.76,43.327c-0.741-16.73-10.314-27.968-23.799-35.945-3.51-2.076-9.321-1.344-13.781-0.442-4.919,0.994-6.339,5.361-2.926,9.21 9.276,10.46 15.02,22.345 17.768,36.039 1.28,6.379 6.357,8.642 12.659,7.161 7.148-1.682 10.055-6.305 10.079-16.023z"/>
    <path d="m128.41,377.823c-7.093,7.882-14.186,15.764-21.279,23.646-0.605-0.546-1.209-1.092-1.814-1.638 5.298-9.505 13.489-16.395 23.093-22.008z"/>
    <path d="m119.631,403.696c6.018-6.258 12.035-12.516 18.053-18.773 0.622,0.578 1.244,1.156 1.866,1.735-5.783,6.52-11.566,13.04-17.349,19.56-0.857-0.842-1.713-1.682-2.57-2.522z"/>
    <path d="m79.789,336.991c5.174-5.272 10.347-10.543 15.521-15.815 0.554,0.502 1.108,1.005 1.662,1.507-5.098,5.353-10.195,10.707-15.293,16.061-0.631-0.585-1.261-1.169-1.89-1.753z"/>
    <path d="m111.449,238.967c2.367-2.127 4.733-4.255 7.099-6.382 0.392,0.424 0.785,0.847 1.178,1.271-2.312,2.185-4.623,4.37-6.935,6.555-0.447-0.481-0.894-0.963-1.342-1.444z"/>
    <path d="m308.782,225.615c0.341-2.707-0.071-5.838 1.166-8.042 3.511-6.258 7.696-12.139 11.616-18.168 0.623,0.369 1.246,0.738 1.869,1.107-4.996,8.274-9.992,16.547-14.963,24.842 0.026,0.021 0.312,0.261 0.312,0.261z"/>
    <path d="m320.215,233.207c-2.902-7.683 1.902-12.613 7.136-17.363-2.411,5.716-4.822,11.432-7.201,17.201 0.031,0.054 0.065,0.162 0.065,0.162z"/>
  </g>
</svg>
