<?xml version="1.0" encoding="iso-8859-1"?>
<!-- Generator: Adobe Illustrator 16.0.0, SVG Export Plug-In . SVG Version: 6.00 Build 0)  -->
<!DOCTYPE svg PUBLIC "-//W3C//DTD SVG 1.1//EN" "http://www.w3.org/Graphics/SVG/1.1/DTD/svg11.dtd">
<svg version="1.1" id="Capa_1" xmlns="http://www.w3.org/2000/svg" xmlns:xlink="http://www.w3.org/1999/xlink" x="0px" y="0px"
	 width="190.159px" height="190.159px" viewBox="0 0 190.159 190.159" style="enable-background:new 0 0 190.159 190.159;"
	 xml:space="preserve">
<g>
	<g>
		<path d="M184.563,31.781c-5.278-2.677-11.601,0.686-16.031,3.535c-2.106,1.355-5.604,3.435-7.993,5.908
			c-3.104-4.76-6.723-9.268-10.819-13.33C119.19-2.378,60.572,4.829,64.023,54.034c-0.699-0.003-1.435,0.253-2.115,0.926
			C34.47,82.104-21.668,105.573,8.826,151.682c10.503,15.88,36.126,33.794,56.4,27.248c30.032-9.697,38.886-45.426,67.783-57.021
			c1.56-0.625,2.305-1.93,2.466-3.276c40.065-5.945,44.353-41.828,28.755-71.169c0.377-0.27,0.729-0.59,1.089-0.894
			c1.958,3.652,4.047,7.481,7.004,10.093c-0.326,0.253-0.655,0.542-0.979,0.78c-2.84,2.086-0.251,6.83,2.821,4.825
			c5.662-3.694,10.678-8.644,14.236-14.398C191.667,42.589,190.375,34.73,184.563,31.781z M132.004,112
			c-2.214,0.152-3.318,1.93-3.381,3.667c-13.957,6.052-23.294,16.567-33,28.372c-5.555,6.756-11.08,13.306-17.372,19.392
			c-19.552,18.914-44.195,3.952-58.997-11.014c-40.068-40.512,25.78-67.144,46.921-92.998c1.454,0.456,3.195-0.25,3.154-2.283
			c-0.389-19.011,5.81-35.363,25.656-40.187c16.377-3.981,34.731,3.547,47.356,13.593C171.382,53.656,180.56,108.662,132.004,112z
			 M175.276,54.151c-1.475-1.944-3.235-3.671-4.664-5.676c-0.953-1.337-1.845-2.716-2.738-4.095c0.024-0.02,0.048-0.044,0.072-0.063
			c0.66-0.535,1.354-1.056,2.052-1.57c0.579,1.208,1.474,2.297,2.312,3.302c1.271,1.524,2.641,2.966,4.049,4.363
			c0.414,0.411,0.859,0.866,1.325,1.305C176.912,52.558,176.112,53.379,175.276,54.151z M181.5,46.553
			c-0.403,0.75-0.879,1.486-1.393,2.211c-0.191-0.127-0.372-0.255-0.564-0.387c-1.513-1.05-2.941-2.219-4.342-3.414
			c-1.037-0.886-1.985-1.866-3.011-2.762c-0.173-0.151-0.419-0.324-0.665-0.508c2.353-1.578,4.876-2.93,7.577-3.615
			C184.495,36.712,182.88,43.987,181.5,46.553z"/>
		<path d="M128.81,34.023c-23.146-18.348-37.854,0.588-52.022,18.156c-1.626,2.015-0.435,4.557,1.362,5.287
			c-0.035,0.148-0.083,0.28-0.096,0.456c-0.095,1.368,0.072,2.671,0.539,3.962c0.875,2.416,2.892,4.354,5.109,5.558
			c0.944,0.513,2.403,0.525,3.224-0.301c13.033,15.776,46.628,45.335,63.543,23.558C166.25,70.381,144.245,46.26,128.81,34.023z
			 M133.563,91.964c-14.24-0.267-28.8-14.09-38.703-22.89c-1.453-1.291-9.883-11.828-12.794-10.805
			c-0.266-0.714-0.479-1.488-0.473-1.984c5.087-5.644,9.282-12.002,14.486-17.55c10.681-11.387,24.081-3.771,33.729,4.616
			c8.08,7.025,15.1,15.893,18.656,26.057C152.14,79.909,144.666,92.172,133.563,91.964z"/>
		<path d="M78.313,76.042c-1.776-2.747-4.707-5.364-8.131-5.552c-4.263-0.233-7.748,2.337-10.687,5.148
			c-1.127,1.078-0.931,2.42-0.185,3.363c-0.297,0.302-0.49,0.742-0.37,1.524c0.072,0.467,0.388,0.657,0.743,0.723
			c0.077,0.335,0.185,0.659,0.336,0.967c0.447,0.977,1.015,1.851,1.595,2.754c1.461,2.275,2.998,4.497,4.8,6.516
			c0.764,0.855,2.042,0.873,2.994,0.386c3.129-1.601,5.731-4.253,8.034-6.856c0.939-1.062,1.819-2.213,2.515-3.448
			C81.026,79.671,79.305,77.576,78.313,76.042z M68.588,86.43c-1.844-2.32-3.555-5.06-5.873-6.708
			c0.178-0.107,0.361-0.174,0.53-0.335c1.834-1.754,4.161-3.921,6.924-3.422c2.003,0.361,3.383,2.327,4.416,4.146
			C73.045,82.469,70.888,84.727,68.588,86.43z"/>
		<path d="M97.35,91.793c-3.144-3.02-6.265-6.421-10.109-8.56c-0.82-0.457-2.034-0.582-2.842,0
			c-4.128,2.974-7.534,6.847-10.125,11.223c-0.476,0.803-0.551,2.006,0,2.803c0.65,0.938,1.233,1.348,2.398,1.376
			c0.227,0.005,0.423-0.117,0.64-0.171c0.051,1.412,1.466,2.73,2.262,3.787c1.433,1.902,2.809,3.857,4.402,5.633
			c0.97,1.081,2.698,0.934,3.689,0c4.073-3.837,8.432-7.919,10.419-13.31C98.423,93.653,98.034,92.45,97.35,91.793z M85.946,102.106
			c-1.785-2.352-4.044-5.382-6.32-5.692c1.728-2.714,3.844-5.234,6.337-7.28c2.135,1.485,4.086,3.339,5.91,5.217
			C90.41,97.12,88.169,99.742,85.946,102.106z"/>
		<path d="M117.05,108.01c-0.974-3.544-5.011-6.886-7.512-9.39c-0.665-0.665-1.809-1.055-2.729-0.722
			c-5.241,1.897-10.867,4.876-14.789,8.905c-1.416,1.454-0.818,3.206,0.429,4.073c0.018,0.035,0.016,0.067,0.037,0.104
			c3.894,6.683,10.726,12.39,18.143,6.995C112.993,116.256,117.935,111.227,117.05,108.01z M105.212,114.694
			c-3.681,1.281-6.704-1.577-8.884-4.311c3.121-2.625,6.728-4.888,10.52-6.46c1.535,1.562,2.964,3.219,4.186,5.027
			C109.65,111.39,107.928,113.749,105.212,114.694z"/>
		<path d="M61.062,95.122c-2.067-3.74-5.426-7.062-9.153-9.146c-1.134-0.635-2.432-0.426-3.375,0.435
			c-3.629,3.313-8.541,4.847-12.194,8.181c-1.612,1.472-0.754,3.484,0.748,4.271c-0.13,0.325-0.159,0.68,0.076,1.034
			c2.594,3.91,6.741,8.166,11.81,7.766c5.46-0.431,9.455-5.429,12.087-9.726C61.59,97.076,61.541,95.987,61.062,95.122z
			 M49.148,102.208c-4.008,1.478-6.927-0.535-9.518-3.394c0.197-0.108,0.398-0.179,0.585-0.348c3.065-2.766,6.988-4.327,10.357-6.7
			c1.84,1.302,3.467,2.954,4.756,4.801C53.778,98.965,51.897,101.196,49.148,102.208z"/>
		<path d="M39.365,115.619c-0.774-6.561-6.773-10.412-12.605-12.144c-1.487-0.442-2.765,0.524-3.27,1.856
			c-1.757,4.631-6.351,7.501-8.004,12.266c-0.684,1.971,1.455,3.461,3.123,3.095c2.531,3.964,6.095,7.332,9.708,10.251
			c1.17,0.945,2.457,0.962,3.625,0C36.454,127.225,40.083,121.689,39.365,115.619z M29.717,125.897
			c-3.448-2.049-6.475-4.343-9.016-7.408c1.868-3.266,4.552-5.964,6.515-9.155c3.244,1.361,6.439,3.389,6.9,7.163
			C34.562,120.145,32.172,123.327,29.717,125.897z"/>
		<path d="M75.987,108.688c-2.18-2.361-4.795-5.077-7.755-6.451c-1.188-0.552-2.444-0.504-3.43,0.442
			c-2.833,2.72-9.465,5.978-9.907,10.15c-0.005,0.049,0.024,0.094,0.023,0.143c-0.551,0.5-0.847,1.306-0.404,2.048
			c3.146,5.27,7.411,9.076,11.634,13.407c0.901,0.924,2.346,1.07,3.451,0.444c2.629-1.487,4.679-3.854,6.588-6.145
			c1.475-1.771,4.428-4.7,4.428-7.18C80.615,113.059,77.518,110.346,75.987,108.688z M67.959,123
			c-3.433-1.979-6.612-5.034-9.246-8.09c1.137-0.461,2.043-1.351,3.06-2.181c1.762-1.439,3.507-2.898,5.206-4.409
			c2.679,2.028,5.316,4.591,7.201,7.334C72.562,118.339,70.405,121.107,67.959,123z"/>
		<path d="M59.333,128.348c-1.317-3.418-3.22-6.104-6.123-8.315c-0.688-0.523-2.003-0.49-2.695,0
			c-2.595,1.839-4.836,4.03-7.009,6.344c-1.722,1.833-3.946,3.749-4.479,6.286c-0.318,1.512,0.94,2.921,2.512,2.513
			c0.005-0.001,0.009-0.006,0.015-0.007c0.558,3.852,3.543,7.728,5.929,10.567c0.869,1.034,2.422,0.778,3.326,0
			c3.357-2.888,7.869-5.572,10.084-9.567C62.147,133.907,60.154,130.477,59.333,128.348z M54.798,135.247
			c-1.8,1.867-3.71,3.615-5.556,5.424c-1.229-1.407-2.374-2.88-3.471-4.408c-0.464-0.647-1.276-1.525-1.911-2.35
			c0.706-0.608,1.323-1.347,2.003-2.118c1.831-2.076,3.784-4.122,5.924-5.914c1.55,1.738,2.453,3.937,3.231,6.146
			c0.13,0.368,0.4,3.008,1.077,1.787C55.801,134.345,55.212,134.818,54.798,135.247z"/>
		<path d="M91.352,115.773c-0.761-0.571-2.143-0.52-2.911,0c-4.838,3.269-10.049,6.912-13.198,11.938
			c-1.37,2.186,1.093,4.701,3.15,4.188c2.581,2.776,5.991,4.92,7.778,8.124c0.752,1.348,2.449,1.665,3.751,0.982
			c4.47-2.342,9.423-6.088,9.718-11.617C99.956,123.443,95.792,119.103,91.352,115.773z M88.478,135.533
			c-2.81-1.428-5.648-3.199-8.006-5.325c2.77-3.211,5.893-5.901,9.337-8.353c2.095,1.743,4.039,3.891,4.239,6.676
			C94.274,131.725,91.118,134.009,88.478,135.533z"/>
		<path d="M78.314,144.787c-2.677-2.689-5.372-5.391-8.725-7.23c-1.128-0.619-2.497-0.466-3.426,0.441
			c-3.315,3.243-7.562,6.014-9.907,10.106c-1.783,3.112,2.992,5.895,4.795,2.803c1.688-2.896,4.645-5.077,7.283-7.305
			c1.577,1.11,3.053,2.35,4.436,3.706c-0.67,1.21-1.327,2.428-2.038,3.615c-0.599,0.997-1.224,1.979-1.86,2.953
			c-0.147,0.217-0.278,0.443-0.415,0.665c-1.856-1.178-3.361-3.008-4.942-4.464c-0.633-0.583-2.027-0.25-1.896,0.785
			c0.484,3.812,3.279,7.166,6.715,8.822c0.974,0.47,2.044,0.414,2.85-0.368c3.227-3.13,5.49-7.077,7.573-11.101
			C79.346,147.077,79.247,145.724,78.314,144.787z"/>
		<path d="M127.254,69.626c1.113-2.119,1.66-4.415,1.258-6.606c-0.476-2.592-4.021-3.216-5.718-1.51
			c-1.546,1.556-2.037,3.889-3.172,5.759c-0.812,1.341-1.848,2.238-3.119,2.93c-1.789,0.973-4.002,0.597-5.905-0.536
			c-1.81-1.078-2.878-2.809-2.961-4.686c-0.135-3.02,3.172-5.683,5.602-7.59c1.795-1.409-0.141-4.537-2.213-3.802
			c-4.708,1.67-9.32,5.252-10.148,10.477c-0.745,4.692,1.664,8.882,5.312,11.652c3.428,2.602,8.47,3.245,12.464,1.745
			c0.107-0.04,0.217-0.111,0.325-0.156c1.018,4.105,3.512,9.218,8.176,7.758C133.328,83.131,130.333,73.237,127.254,69.626z
			 M125.426,81.063c-0.83,0.964-2.822-2.99-3.819-5.217c0.858-0.588,1.69-1.252,2.466-2.016
			C125.26,76.301,126.778,79.494,125.426,81.063z"/>
		<path d="M117.097,42.161c-1.247-1.076-2.81-1.364-4.411-1.516c-0.052-1.216-0.042-2.413,0.187-3.54
			c0.303-1.488-1.494-2.16-2.357-0.994c-0.881,1.191-1.495,2.708-1.988,4.299c-2.138-0.058-4.275-0.002-6.406,0.156
			c-2.1,0.156-2.099,3.102,0,3.26c1.845,0.139,3.692,0.271,5.537,0.43c-0.194,1.377-0.322,2.736-0.323,3.971
			c-0.004,3.794,5.815,3.786,5.878,0c0.017-0.957-0.053-1.95-0.146-2.956c0.899,0.202,1.791,0.351,2.639,0.254
			C117.229,45.349,118.548,43.411,117.097,42.161z"/>
		<path d="M145.021,63.392c-0.72-0.532-1.723-0.352-2.456,0c-1.241,0.596-2.534,1.024-3.845,1.395
			c-0.281-0.904-0.523-1.822-0.861-2.706c-0.833-2.184-4.155-1.368-3.559,0.981c0.22,0.862,0.391,1.737,0.545,2.617
			c-1.54,0.284-3.087,0.534-4.623,0.788c-1.945,0.323-1.182,2.918,0.424,3.131c1.521,0.202,3.178,0.169,4.854,0.044
			c0.249,1.5,0.529,2.992,0.982,4.433c0.925,2.943,5.571,1.679,4.629-1.276c-0.399-1.25-0.741-2.523-1.093-3.792
			c1.55-0.324,3.062-0.703,4.422-1.171c1.077-0.371,1.724-1.202,1.786-2.345C146.279,64.495,145.77,63.946,145.021,63.392z"/>
	</g>
</g>
<g>
</g>
<g>
</g>
<g>
</g>
<g>
</g>
<g>
</g>
<g>
</g>
<g>
</g>
<g>
</g>
<g>
</g>
<g>
</g>
<g>
</g>
<g>
</g>
<g>
</g>
<g>
</g>
<g>
</g>
</svg>
