<?xml version="1.0" encoding="iso-8859-1"?>
<!-- Generator: Adobe Illustrator 16.0.0, SVG Export Plug-In . SVG Version: 6.00 Build 0)  -->
<!DOCTYPE svg PUBLIC "-//W3C//DTD SVG 1.1//EN" "http://www.w3.org/Graphics/SVG/1.1/DTD/svg11.dtd">
<svg version="1.1" id="Capa_1" xmlns="http://www.w3.org/2000/svg" xmlns:xlink="http://www.w3.org/1999/xlink" x="0px" y="0px"
	 width="188.175px" height="188.175px" viewBox="0 0 188.175 188.175" style="enable-background:new 0 0 188.175 188.175;"
	 xml:space="preserve">
<g>
	<g>
		<path d="M186.662,107.97c-1.624-14.144-1.334-33.192-8.086-46.151c-3.312-6.36-8.169-10.068-13.845-12.249
			c0.478-1.748,0.057-3.585-0.2-5.479c-0.521-3.848-0.983-7.776-2.118-11.501c-0.434-1.429-1.713-2.47-3.234-2.463
			c-8.601,0.038-17.201,0.05-25.802,0.123c-1.405,0.012-2.776,0.973-3.116,2.373c-1.125,4.639-1.083,9.313,0.418,13.81
			c-2.31-0.048-4.57-0.139-6.736-0.339c-7.318-0.676-45.231-4.912-77.225-4.332c0.333-4.668-3.035-9.225-7.396-10.862
			c-6.313-2.37-13.501-1.183-20.009-0.432c-1.609,0.186-3.046,1.231-3.015,3.015c0.061,3.455,0.599,7.235,1.513,10.829
			C5.673,46.746-1.765,51.15,0.362,58.657c0.06,0.212,0.173,0.364,0.264,0.541c-1.877,30.183,1.664,60.853,1.958,91.068
			c0.018,1.834,1.344,4.035,3.307,4.344c31.737,5,63.418,2.646,95.39,2.917c24.562,0.21,51.413,3.948,75.287-3.288
			c1.713-0.521,2.553-1.665,2.809-2.918c1.299,0.14,2.646-0.329,3.51-1.817C190.254,136.811,188.271,121.985,186.662,107.97z
			 M179.895,109.22c-13.276-10.726-33.05-13.953-45.148-26.15c-0.29-3.711-0.929-7.543-2.368-10.285
			c3.485,2.511,6.999,4.979,10.524,7.411c11.388,7.859,23.633,16.816,36.576,22.11C179.659,104.618,179.799,106.931,179.895,109.22z
			 M162.169,57.424c4.257,0.976,7.658,5.23,10.313,11.37c-3.417-1.658-6.954-3.149-10.244-4.89
			c-4.727-2.501-9.228-5.398-13.625-8.441C153.224,55.833,157.769,56.416,162.169,57.424z M135.886,36.727
			c6.871,0.05,13.741,0.071,20.612,0.098c0.586,2.593,1.021,5.225,1.399,7.848c0.152,1.053,0.242,2.085,0.41,3.081
			c-7.136-1.396-15.032-1.265-22.617-1.271c-0.003-0.021,0.004-0.037,0-0.058C135.137,43.109,135.195,39.918,135.886,36.727z
			 M144.003,55.187c8.312,7.814,19.608,16.41,30.771,19.996c0.553,1.825,1.077,3.709,1.538,5.701
			c-15.272-7.364-29.956-14.526-42.652-26.058C137.117,54.893,140.568,55.011,144.003,55.187z M129.769,54.75
			c10.717,15.351,30.471,25.68,47.76,32.096c0.549,3.09,1.011,6.282,1.376,9.525c-9.018-6.771-19.276-12.247-28.63-18.413
			c-11.418-7.527-22.388-15.631-33.431-23.66C121.094,54.566,125.421,54.667,129.769,54.75z M118.393,122.222
			c-4.238-2.092-10.664-0.873-15.283-0.988c-0.859-0.021-1.703-0.112-2.559-0.146c-0.05-1.192-0.108-2.387-0.258-3.553
			c1.465-0.214,2.963-0.579,4.491-1.13c14.073-5.08,21.865-20.025,13.19-33.14c-6.194-9.363-25.15-16.928-33.923-7.038
			c-18.872,9.552-7.935,40.103,11.851,41.483c-0.121,1.021-0.185,2.061-0.244,3.096c-5.433-0.357-10.844-0.856-16.27-1.607
			c-1.574-0.219-2.155,1.784-0.657,2.383c5.234,2.087,11.012,2.967,16.681,3.722c-0.054,0.803-0.126,1.619-0.2,2.446
			c-0.234,0.005-0.47,0.013-0.705,0.018c-7.026,0.144-14.057,0.089-21.075,0.481c-0.426,0.023-0.747,0.138-1.111,0.214
			c-2.145-0.111-4.36-0.104-6.353,0.559c-0.251,0.083-0.486,0.243-0.722,0.396c-2.144-20.424-3.066-41.427-2.6-61.987
			c0.003-0.118-0.047-0.21-0.06-0.32c0.149,0.024,0.301,0.04,0.451,0.063c0.626,0.317,1.248,0.698,1.878,0.954
			c0.684,0.278,1.312,0.004,1.818-0.433c8.665,1.282,17.386,2.372,26.077,3.236c9.337,0.928,22.771,3.045,31.069-2.523
			c0.472-0.316,0.781-0.741,0.987-1.2c0.873,0.67,1.77,1.308,2.65,1.967c-1.288,0.234-2.221,1.404-1.953,2.986
			c2.975,17.635,3.101,35.276,1.779,53.184c-2.949,0.093-6.117,0.991-8.919,1.332C120.101,125.841,120.054,123.042,118.393,122.222z
			 M81.467,99.608c-2.991-6.487-2.001-13.108,2.053-17.833c0.478,0.242,1.013,0.363,1.606,0.172
			c5.05-1.625,8.474-4.534,14.166-3.749c4.771,0.658,8.877,3.441,12.071,6.905c9.016,9.778,1.104,21.637-9.535,25.534
			C92.881,113.915,85.021,107.317,81.467,99.608z M109.193,53.738c3.51,3.393,7.175,6.615,10.969,9.689
			c-3.676,0.07-7.311,0.253-10.935,0.442c1.41-0.269,2.42-2.231,1.099-3.262c-3.179-2.483-7.419-3.419-11.024-5.241
			c-1.658-0.838-3.244-1.807-4.815-2.798C99.394,52.93,104.293,53.333,109.193,53.738z M54.467,50.68
			c10.916,0.117,21.829,0.651,32.731,1.372c3.155,2.567,6.405,4.982,9.884,7.108c3.321,2.029,7.433,4.564,11.425,4.746
			c-5.17,0.263-10.35,0.443-15.698,0.025c-0.045-0.003-0.09-0.009-0.135-0.012c-0.073-0.118-0.137-0.238-0.253-0.344
			c-2.269-2.066-5.046-3.654-7.56-5.42c-3.112-2.186-6.19-4.434-9.386-6.497c-0.917-0.592-2.005,0.797-1.172,1.519
			c2.554,2.212,5.228,4.282,7.867,6.392c1.535,1.228,3.059,2.546,4.614,3.816c-2.482-0.236-4.954-0.468-7.446-0.675
			c-1.805-1.362-3.929-2.421-5.804-3.542c-3.762-2.251-7.589-4.392-11.413-6.537c-1.599-0.897-2.958,1.462-1.428,2.443
			c3.296,2.112,6.588,4.23,9.841,6.408c0.346,0.232,0.691,0.512,1.035,0.768c-2.255-0.067-4.508-0.072-6.753,0.041
			c-2.608-2.23-5.939-3.827-8.814-5.493c-3.516-2.037-6.962-4.086-10.217-6.431C49.217,50.503,52.232,50.656,54.467,50.68z
			 M49.636,58.029c2.717,1.944,5.619,4.244,8.602,6.292c-0.141,0.421-0.208,0.854-0.087,1.246c-0.291,0.296-0.529,0.659-0.606,1.174
			c-0.028,0.186-0.039,0.374-0.066,0.56c-9.842-5.78-20.718-9.514-29.549-16.923c4.261-0.279,8.619-0.274,12.685-0.176
			C43.27,53.187,46.32,55.656,49.636,58.029z M22.156,36.203c3.746-0.375,7.499-0.653,11.266-0.382
			c1.77,0.127,3.804,0.619,5.226,1.731c1.393,1.09,1.658,2.762,2.006,4.384c-6.925,0.274-13.424,0.817-19.123,1.717
			C21.684,41.172,21.959,38.702,22.156,36.203z M25.561,50.579c0.835,4.422,5.405,7.128,8.926,9.523
			c6.781,4.613,14.274,8.494,21.563,12.24c0.277,0.143,0.544,0.191,0.809,0.237c-0.234,2.46-0.413,4.929-0.521,7.405
			c-0.163-0.251-0.381-0.485-0.735-0.66c-14.787-7.32-27.711-18.514-42.4-26.18C16.725,51.749,21.041,51.001,25.561,50.579z
			 M50.854,95.07c1.535,0.636,3.062,1.195,4.559,1.557c0.298,0.072,0.528-0.029,0.788-0.062c0.052,2.269,0.131,4.524,0.206,6.779
			c-0.564-0.437-1.132-0.868-1.68-1.326c-1.354-1.132-2.616-2.371-3.884-3.599c0.086-0.822,0.168-1.645,0.184-2.472
			C51.034,95.638,50.938,95.354,50.854,95.07z M56.49,106.854c0.029,1.868-0.009,4.028-0.027,6.377
			c-1.079-0.38-2.161-0.754-3.143-1.271c-1.436-0.756-2.721-1.727-3.875-2.833c0.104-0.311,0.202-0.626,0.213-0.959
			c0.071-2.124,0.413-4.229,0.74-6.336C52.227,103.749,54.237,105.604,56.49,106.854z M9.874,54.771
			c0.12,0.166,0.277,0.322,0.485,0.455c8.132,5.174,16.068,10.625,23.95,16.17c5.918,4.163,12.46,10.29,19.79,11.495
			c0.928,0.153,1.749-0.371,2.183-1.075c-0.11,3.319-0.154,6.644-0.123,9.967c-5.445-5.265-14.668-8.743-20.981-12.332
			c-9.718-5.525-18.905-11.709-26.917-19.538c-0.103-1.251-0.171-2.507-0.287-3.756C8.548,55.656,9.189,55.199,9.874,54.771z
			 M33.726,109.103c-0.202,0.166-0.439,0.268-0.604,0.485c-1.168,1.542-1.045,4.042-1.146,5.896
			c-0.042,0.786-0.071,1.701-0.038,2.62c-2.545,0.44-5.133,0.529-7.725,0.593c-0.558-1.726-1.03-3.473-1.39-5.246
			c0.773-1.327,0.723-3.033-0.721-3.92v-0.005c-0.188-1.438-1.659-1.716-2.417-0.902c-2.197-0.492-4.601-0.408-6.735,0.31
			c-0.631-2.604,0.083-5.215,0.581-7.804c1.079-0.163,2.154-0.359,3.212-0.546c0.94-0.167,2.132-0.212,2.971-0.704
			c0.466-0.274,0.869-0.579,1.164-1.037c0.771-0.104,1.479-0.638,1.422-1.537c-0.236-3.71,0.526-7.177,0.96-10.754
			c2.678-0.047,5.553,0,8.026,0.685c-0.001,2.791,0.038,5.599,0.473,8.345c0.443,2.804,2.642,3.486,4.261,2.935
			c1.166,0.556,2.73,0.622,3.96,0.627c1.47,0.006,2.939,0.002,4.409,0.002c-0.255,2.124-0.637,4.237-0.883,6.359
			c-2.406,0.577-4.779,1.303-7.332,0.61C34.284,105.601,33.042,107.647,33.726,109.103z M14.659,75.966
			c-2.2-1.956-4.106-4.264-5.688-6.755c-0.099-1.572-0.247-3.136-0.359-4.705c5.466,6.397,12.478,11.45,19.353,16.194
			c0.106,0.073,0.223,0.158,0.329,0.232c-2.505-0.16-5.045-0.087-7.449-0.063c-0.02-0.467-0.201-0.931-0.721-1.252
			C18.219,78.44,16.355,77.475,14.659,75.966z M18.024,82.701c-0.127,0.319-0.211,0.661-0.209,1.025
			c0.007,2.086-0.127,4.367-0.096,6.633c-2.123-2.646-5.196-5.15-7.996-7.046c-0.128-2.832-0.293-5.658-0.446-8.487
			c1.063,1.42,2.202,2.786,3.427,4.056C13.946,80.169,15.954,82.33,18.024,82.701z M9.915,87.766
			c1.823,1.938,3.511,4.037,5.612,5.619c0.782,0.589,1.756,0.242,2.349-0.426c0.067,0.639,0.122,1.285,0.251,1.901
			c-0.597,0.032-1.187,0.11-1.828,0.235c-1.682,0.327-3.419,0.771-5.136,0.846c-0.31,0.014-0.605,0.099-0.89,0.201
			C10.179,93.348,10.028,90.559,9.915,87.766z M39.979,92.75c-0.763,0.003-1.656,0.031-2.506,0.178
			c-0.041-0.581-0.063-1.164-0.095-1.735c-0.072-1.304-0.077-2.611-0.098-3.918c2.84,1.957,5.795,3.846,8.77,5.472
			C44.025,92.747,42.001,92.744,39.979,92.75z M11.472,138.033c3.186,2.984,6.547,6.084,10.08,8.793
			c-3.529-1.42-6.876-3.492-10.015-6.3C11.524,139.696,11.487,138.865,11.472,138.033z M35.958,148.923
			c-1.327,0.113-2.628,0.129-3.913,0.091c-3.014-2.217-6.387-4.012-9.474-6.112c-3.828-2.604-7.518-5.412-11.187-8.241
			c-0.096-4.467-0.182-8.933-0.347-13.396c-0.001-0.041-0.002-0.082-0.004-0.123c7.88,10.75,19.792,22.197,32.052,27.865
			C40.71,148.974,38.336,148.982,35.958,148.923z M49.665,149.082c0.038-0.687-0.222-1.408-0.852-1.86
			c-5.97-4.282-12.582-7.593-18.531-11.983c-7.12-5.255-13.302-11.499-19.36-17.9c-0.045-1.53-0.092-3.059-0.137-4.589
			c0.423,0.62,1.105,1.086,1.925,1.139c2.103,0.138,3.979,0.494,5.973,1.026c-0.165,2.525-0.131,5.036,0.458,7.63
			c0.299,1.321,1.596,2.155,2.886,2.197c0.593,0.02,1.21-0.031,1.811-0.025c0.041,0.159,0.042,0.32,0.183,0.47
			c5.332,5.686,11.339,10.663,17.48,15.446c3.631,2.828,7.473,5.977,11.543,8.489C51.917,149.121,50.791,149.086,49.665,149.082z
			 M65.128,149.012c-1.768,0.041-3.532,0.026-5.299,0.048c-4.584-3.563-9.91-6.287-14.701-9.601
			c-6.519-4.509-12.656-9.513-18.569-14.782c2.724-0.095,5.456-0.32,8.079-0.928c9.974,9.017,20.71,17.889,32.016,25.249
			C66.146,149.008,65.636,149,65.128,149.012z M73.782,148.933c-0.034-0.031-0.044-0.068-0.081-0.099
			c-11.565-9.347-24.276-17.139-35.975-26.361c0.935-0.963,1.381-2.455,0.515-3.623c-1.07-1.439,0.226-5.252,0.009-7.741
			c0.562,0.057,1.131,0.093,1.713,0.104c2.181,0.042,4.336,0.088,6.506,0.144c0.417,0.011,0.803-0.08,1.161-0.224
			c0.922,1.031,1.872,2.038,2.996,2.909c1.593,1.232,3.71,2.646,5.889,3.302c0.059,2.243,0.178,4.5,0.513,6.641
			c-5.664-3.988-11.204-8.148-16.614-12.476c-1.022-0.817-2.483,0.556-1.469,1.469c4.796,4.322,9.798,8.395,14.658,12.642
			c1.833,1.601,3.677,3.426,5.583,5.181c0.486,0.865,1.034,1.665,1.705,2.329c0.499,0.494,1.185,0.684,1.875,0.671
			c1.482,1.125,3.008,2.151,4.653,2.859c0.588,0.253,1.244,0.105,1.723-0.23c1.701,3.901,4.474,7.074,7.609,9.94
			c0.704,0.644,1.668,1.566,2.744,2.514C77.585,148.877,75.688,148.922,73.782,148.933z M101.363,149.114
			c-2.397-1.366-5.121-2.334-7.471-3.765c-4.217-2.564-8.058-5.757-11.395-9.386c-0.775-0.842-2.3,0.298-1.603,1.237
			c3.094,4.166,6.736,7.778,10.803,10.995c0.32,0.253,0.657,0.521,1.004,0.796c-2.13-0.028-4.254-0.033-6.382-0.054
			c-1.897-1.413-4.529-2.471-6.123-3.581c-3.771-2.625-7.464-5.967-9.653-10.066c1.046,0.084,2.095,0.158,3.085,0.287
			c2.906,0.381,6.868,1.472,9.345-0.514c3.62,0.07,7.243,0.029,10.838,0.014c4.677,3.07,9.177,6.41,13.698,9.705
			c1.954,1.424,3.945,3.038,6.022,4.504C109.476,149.241,105.418,149.178,101.363,149.114z M120.744,149.325
			c-3.496-2.855-7.803-4.988-11.543-7.438c-3.602-2.357-7.249-4.588-10.978-6.701c2.926,0.128,6.557,0.332,10.437,0.402
			c3.25,2.56,6.623,4.948,10.047,7.279c2.559,1.74,5.512,4.435,8.553,6.491C125.09,149.369,122.916,149.334,120.744,149.325z
			 M134.934,149.245c-2.008-3.876-7.719-6.25-11.292-8.436c-2.863-1.75-5.737-3.493-8.581-5.281c1.441-0.057,2.87-0.137,4.246-0.275
			c7.03,5.234,14.795,9.944,22.744,13.886C139.684,149.224,137.306,149.2,134.934,149.245z M151.232,148.672
			c-0.135-0.121-0.24-0.253-0.421-0.355c-8.627-4.879-17.546-9.033-26.134-13.945c2.262-0.562,4.208-1.349,5.609-2.454
			c0.244-0.104,0.375-0.365,0.562-0.553c6.001,4.625,12.658,8.585,19.117,12.437c1.353,0.807,4.341,2.927,7.446,4.469
			C155.357,148.443,153.293,148.542,151.232,148.672z M176.207,145.597c-0.138,0.25-0.15,0.488-0.231,0.734
			c-0.496-0.09-1.021-0.129-1.597-0.037c-2.646,0.422-5.313,0.694-7.974,1.017c-0.096-0.671-0.531-1.278-1.295-1.575
			c-11.589-4.485-22.002-11.321-32.932-17.123c0.017-0.38,0.061-0.765-0.037-1.12c0.408-1.872,0.69-3.766,0.995-5.654
			c7.067,5.245,14.7,9.72,22.323,14.104c5.73,3.296,13.278,8.968,20.015,9.486c0.361,0.028,0.661-0.102,0.936-0.262
			C176.342,145.304,176.277,145.47,176.207,145.597z M177.295,142.938c-0.08-0.306-0.191-0.609-0.441-0.843
			c-4.864-4.538-13.281-6.864-19.199-9.91c-7.989-4.111-15.807-8.483-23.608-12.938c-0.162-0.094-0.292-0.035-0.442-0.064
			c0.385-2.794,0.674-5.601,0.893-8.415c6.295,5.156,13.068,9.509,20.105,13.644c7.819,4.595,15.558,10.427,23.74,14.385
			C178.031,140.354,177.681,141.737,177.295,142.938z M179.155,133.582c-5.545-5.021-13.075-8.406-19.444-11.83
			c-8.438-4.537-17.01-8.925-24.968-14.28c0.115-2.028,0.199-4.058,0.244-6.089c3.24,4.389,11.484,7.032,15.729,9.21
			c9.534,4.896,19.145,10.334,28.95,14.631c0.061,0.027,0.124,0.022,0.187,0.043C179.704,128.252,179.465,131.031,179.155,133.582z
			 M180.033,119.622c-6.985-4.76-15.622-7.851-23.178-11.227c-4.335-1.937-8.713-3.788-13.096-5.615
			c-1.479-0.617-7.625-1.803-8.53-3.049c-0.067-0.092-0.155-0.114-0.238-0.156c0.029-2.239,0.053-4.479,0.018-6.716
			c-0.021-1.316-0.011-3.173-0.054-5.239c3.629,3.859,8.254,6.792,12.962,9.549c10.076,5.901,20.513,10.941,30.327,17.299
			c0.601,0.389,1.226,0.454,1.794,0.313C180.062,116.424,180.057,118.037,180.033,119.622z"/>
		<path d="M108.09,93.496c-0.796-1.475-2.913-1.335-3.741,0c-1.933,3.113-1.229,7.598-5.931,8.205
			c-4.258,0.549-7.584-2.492-10.235-5.37c-0.905-0.984-2.785,0.034-2.304,1.341c2.038,5.542,7.905,9.436,13.848,8.764
			C105.359,105.798,111.153,99.18,108.09,93.496z"/>
		<path d="M93.717,86.441c0.046-3.476-5.505-2.922-4.784,0.647c0.371,1.838,1.664,3.383,2.031,5.246
			c0.389,1.968,3.394,1.451,3.412-0.462C94.394,90.024,93.691,88.289,93.717,86.441z"/>
		<path d="M100.683,83.83c-0.646-0.688-1.861-0.688-2.507,0c-1.692,1.801-0.615,4.896-0.249,7.099c0.248,1.493,2.756,1.493,3.004,0
			C101.298,88.727,102.373,85.63,100.683,83.83z"/>
	</g>
</g>
<g>
</g>
<g>
</g>
<g>
</g>
<g>
</g>
<g>
</g>
<g>
</g>
<g>
</g>
<g>
</g>
<g>
</g>
<g>
</g>
<g>
</g>
<g>
</g>
<g>
</g>
<g>
</g>
<g>
</g>
</svg>
