<?xml version='1.0' encoding='iso-8859-1'?>
<!DOCTYPE svg PUBLIC '-//W3C//DTD SVG 1.1//EN' 'http://www.w3.org/Graphics/SVG/1.1/DTD/svg11.dtd'>
<svg version="1.1" xmlns="http://www.w3.org/2000/svg" viewBox="0 0 423.926 423.926" xmlns:xlink="http://www.w3.org/1999/xlink" enable-background="new 0 0 423.926 423.926">
  <g>
    <path d="m141.553,75.781c-0.541-7.59-0.697-14.492-1.595-21.297-1.417-10.727-0.852-14.525 12.44-15.714 30.542-2.733 61.065-2.425 91.616-2.767 1.474-0.016 2.95-0.027 4.423,0.004 10.893,0.227 12.368,2.079 11.965,13.382-0.296,8.318-0.058,16.654-0.058,25.701 12.046,0 22.526,0 33.843,0-0.904-6.5-2.099-12.549-2.498-18.65-0.416-6.362 2.347-8.939 8.203-8.967 15.796-0.074 31.594-0.374 47.388-0.242 6.588,0.055 13.165,1.019 19.752,1.498 5.431,0.395 7.904,3.362 7.771,8.674-0.092,3.675-0.422,7.354-0.314,11.022 0.082,2.788 0.685,5.561 0.83,6.651 11.094,2.52 20.726,4.44 30.197,6.965 5.103,1.361 7.674,5.377 8.026,10.743 0.794,12.099 1.903,24.183 2.435,36.292 0.92,20.958 1.351,41.937 2.261,62.894 0.958,22.056 2.323,44.094 3.335,66.148 0.456,9.935 0.457,19.891 0.72,29.836 0.545,20.615 1.214,41.227 1.623,61.844 0.087,4.374-0.487,8.801-1.159,13.141-2.201,14.224-5.071,17.454-19.428,19.582-9.445,1.4-19.061,2.129-28.611,2.246-38.699,0.475-77.404,0.459-116.103,0.882-56.012,0.612-112.021,1.495-168.033,2.153-16.518,0.194-33.044,0.192-49.56-0.096-4.711-0.082-9.465-1.215-14.085-2.339-10.151-2.47-15.716-9.091-16.516-19.533-1.208-15.769-2.817-31.529-3.365-47.324-0.791-22.83-0.596-45.693-1.159-68.534-1.117-45.288-2.418-90.571-3.785-135.852-0.154-5.118-1.234-10.208-1.856-15.314-1.203-9.882 1.689-15.452 10.998-19.13 5.771-2.28 11.966-3.486 19.488-5.601 0.219-4.195 0.416-9.199 0.753-14.193 0.612-9.065 1.582-10.006 10.445-10.183 18.417-0.368 36.834-0.739 55.252-1.03 12.489-0.197 13.355,0.96 11.844,13.096-0.491,3.942-0.077,7.997-0.077,13.354 10.554,1.257 20.988,0.629 32.594,0.658zm262.205,113.377c-24.271,0-47.901,0-72.385,0 3.37,27.02-5.87,50.215-16.749,72.972-3.333,6.973-7.185,13.695-10.632,20.616-12.445,24.989-31.195,44.457-53.225,61.084-20.191,15.238-22.26,15.803-44.227,3.329-32.821-18.638-63.457-40.349-89.094-68.363-18.823-20.568-30.228-44.378-28.689-72.962 0.427-7.937 2.303-15.795 3.644-24.53-4.739-0.512-9.04-1.425-13.322-1.344-8.435,0.158-16.864,1.272-25.288,1.201-5.456-0.045-8.697,1.693-11.393,6.517-6.645,11.893-13.356,23.814-21.047,35.034-4.423,6.453-4.287,12.346-2.764,21.072 10.081-14.175 18.962-26.662 27.843-39.149 0.605,0.401 1.211,0.803 1.816,1.204-1.988,3.388-3.846,6.861-5.99,10.147-5.636,8.638-10.95,17.538-17.217,25.701-8.434,10.986-8.466,22.595-4.401,36.238 9.318-15.261 17.213-30.308 29.016-42.669-7.648,15.022-15.666,29.828-24.993,43.757-5.166,7.716-6.378,15.002-3.549,24.86 8.797-12.231 17.004-23.641 25.211-35.051 0.65,0.456 1.3,0.913 1.95,1.369-2.765,4.685-5.436,9.429-8.315,14.043-5.46,8.749-11.416,17.216-16.396,26.225-2.182,3.948-3.598,8.987-3.413,13.45 0.532,12.835 1.766,25.665 3.287,38.429 1.229,10.313 3.572,12.729 13.812,13.5 9.1,0.684 18.291,0.143 27.412,0.143 6.391-15.688 15.878-29.341 25.507-42.904 0.719,0.413 1.439,0.826 2.158,1.24-7.872,13.666-15.745,27.332-24.084,41.809 8.063,0 14.179,0 19.93,0 6.898-13.583 14.736-25.603 24.477-36.35-3.398,13.092-13.869,22.674-18.15,36.086 20.36,0 39.469,0 58.345,0 5.991-10.701 13.572-19.212 24.013-25.444-5.89,7.939-11.78,15.877-19.007,25.619 6.279,0 9.873,0.052 13.465-0.008 31.673-0.531 63.344-1.27 95.019-1.496 8.33-0.06 14.355-2.142 19.484-9.373 5.526-7.79 11.659-15.488 20.482-20.412-7.042,9.066-14.084,18.131-22.171,28.542 10.834,0 19.52,0 27.893,0 7.819-8.901 16.283-16.503 27.69-20.549-5.667,5.973-11.335,11.947-17.516,18.462 2.041,0.709 2.985,1.329 3.923,1.319 22.451-0.232 44.915-0.17 67.348-0.949 14.621-0.507 16.267-2.342 15.918-16.239-1.34-53.371-2.967-106.735-4.546-160.099-0.062-2.109-0.734-4.202-1.08-6.077zm-307.593-16.178c24.93-45.439 95.521-46.348 126.198-6.61 14.346-21.319 34.204-32.906 59.873-30.294 27.128,2.761 39.566,22.786 47.986,46.231 24.899-0.938 49.003-1.845 73.541-2.769 1.793-29.98-2.017-58.344-4.709-87.548-4.42-1.25-8.528-3.059-12.775-3.487-10.971-1.107-22.009-2.315-33.009-2.225-54.178,0.44-108.35,1.673-162.528,1.854-34.261,0.115-68.528-1.044-102.789-1.804-11.042-0.245-22.093-1.73-33.101-1.389-11.71,0.362-23.452,1.728-35.028,3.596-7.465,1.204-8.102,3.198-7.626,10.633 0.494,7.72 0.676,15.459 1.14,23.181 0.139,2.314 0.769,4.598 1.509,8.794 6.097-9.695 11.128-17.694 16.158-25.693-3.061,16.785-19.37,28.682-15.323,49.58 8.513-11.534 15.955-21.619 23.398-31.703 0.885,2.522 0.163,4.065-0.757,5.48-6.221,9.577-12.539,19.092-18.698,28.708-1.769,2.762-3.933,5.67-4.395,8.74-0.339,2.247 1.311,5.399 3.088,7.067 0.727,0.683 4.508-1.032 6.209-2.472 1.899-1.606 2.98-4.163 4.477-6.263 4.372-6.137 8.774-12.253 13.164-18.377 0.758,0.481 1.516,0.961 2.274,1.442-4.899,8.076-9.799,16.152-15.367,25.33 23.711-0.002 45.368-0.002 67.09-0.002zm122.129,4.194c-0.652-0.326-1.421-0.528-1.933-1.005-1.071-0.997-2.117-2.058-2.984-3.232-17.719-23.984-42.772-27.75-69.314-22.712-29.135,5.53-47.616,33.965-44.187,65.147 2.447,22.25 11.513,41.506 27.143,57.896 24.693,25.896 53.603,46.024 84.515,63.542 4.143,2.348 8.69,3.989 13.068,5.915 3.647,1.605 7.045,1.54 10.292-1.199 11.808-9.961 25.098-18.581 35.253-29.998 22.844-25.684 37.532-56.347 47.267-89.126 6.158-20.732 3.497-40.908-9.182-59.055-7.934-11.356-18.814-17.538-32.858-16.929-14.602,0.632-27.342,5.644-36.543,17.591-5.304,6.891-11.15,12.726-20.537,13.165zm-67.966-100.178c33.639,1.18 66.093-0.375 98.253-2.174 0-10.046 0-18.731 0-28.527-32.777,0.859-65.399-2.693-98.253,2.401-2.84217e-14,9.614-2.84217e-14,18.355-2.84217e-14,28.3zm-107.715,104.283c-2.266-0.739-3.213-1.28-4.18-1.317-2.574-0.098-5.166-0.103-7.735,0.077-7.086,0.497-14.856,7.834-14.811,14.876 0.049,7.555 1.095,15.104 1.919,25.287 9.039-14.183 16.746-26.276 24.807-38.923zm301.435-126.913c-7.637,0.466-14.392,0.878-21.332,1.301 0.663,7.388 1.239,13.816 1.877,20.927 7.028,0 13.773,0 20.542,0-0.358-7.306-0.692-14.151-1.087-22.228zm-26.969,1.478c-6.373,0-12.014,0-18.064,0 0.924,6.85 1.738,12.882 2.592,19.216 5.654,0 10.797,0 15.471,0 0.001-6.647 0.001-12.435 0.001-19.216zm46.922,21.458c0.708-7.679 1.299-14.091 1.978-21.449-5.707-0.739-10.767-1.395-15.896-2.059 1.095,8.629 2,15.764 2.983,23.508 2.838,0 6.38,0 10.935,0zm-262.791-20.466c-4.755,0-8.47,0-13.063,0 0.756,6.697 1.396,12.36 2.079,18.41 3.857-0.187 6.675-0.324 9.862-0.479 0.39-6.218 0.748-11.944 1.122-17.931zm-44.023-.952c0.819,6.736 1.463,12.035 2.127,17.501 4.062,0 7.202,0 10.087,0 0-5.459 0-10.395 0-15.365-3.94-0.689-7.165-1.253-12.214-2.136zm-5.364,1.174c-4.265,0.398-7.699,0.717-11.396,1.062 0,5.318 0,9.839 0,14.88 3.998,0 7.41,0 11.396,0 0-5.116 0-9.668 0-15.942zm22.482,.962c4.499,5.377 0.378,12.412 6.606,17.601 4.327-6.222 1.9-12.264 2.068-18.664-2.634,0.323-4.714,0.577-8.674,1.063z"/>
    <path d="m46.438,370.614c5.653-15.758 15.85-28.723 24.898-42.374-1.124,7.821-15.002,31.962-24.898,42.374z"/>
    <path d="m57.725,320.761c-9.221,15.029-18.443,30.057-27.664,45.085-0.634-0.372-1.269-0.745-1.903-1.117 6.87-16.352 17.7-30.408 27.171-45.253 0.799,0.428 1.598,0.856 2.396,1.285z"/>
    <path d="m30.662,326.05c7.851-11.527 16.003-23.497 24.156-35.468 0.599,0.313 1.199,0.627 1.798,0.94-0.865,1.948-1.461,4.079-2.641,5.812-6.958,10.225-14.049,20.358-21.12,30.506-0.137,0.197-0.662,0.353-0.833,0.247-0.281-0.174-0.418-0.577-1.36-2.037z"/>
    <path d="m112.053,369.817c5.593-11.505 12.789-22.007 22.296-31.094-6.668,10.956-13.335,21.913-20.003,32.869-0.764-0.592-1.528-1.184-2.293-1.775z"/>
    <path d="m354.859,353.219c-4.41,6.673-8.892,13.357-18.539,17.622 4.257-9.961 11.185-14.002 18.539-17.622z"/>
    <path d="m136.531,370.179c1.736-10.33 8.684-16.858 14.788-24.002 0.592,0.432 1.185,0.864 1.777,1.296-5.522,7.569-11.044,15.137-16.565,22.706z"/>
    <path d="m320.947,347.309c-7.362,8.554-13.113,15.236-19.428,22.574 0.522-8.657 6.159-15.352 19.428-22.574z"/>
    <path d="m266.782,366.051c4.845-5.41 9.691-10.82 14.536-16.231 0.653,0.542 1.307,1.085 1.96,1.627-4.621,5.68-9.243,11.359-13.864,17.038-0.877-0.811-1.754-1.623-2.632-2.434z"/>
    <path d="m360.264,152.208c-17.598-1.148-25.715-8.146-24.555-21.17 0.903-10.141 11.152-20.019 20.499-19.757 11.956,0.335 22.542,13.332 21.409,26.283-0.808,9.224-7.957,15.257-17.353,14.644zm.506-5.993c6.274-0.031 10.165-3.955 10.271-10.362 0.151-9.094-6.253-16.542-14.221-16.539-6.317,0.002-11.639,6.128-11.725,13.495-0.091,7.785 6.533,13.45 15.675,13.406z"/>
    <path d="m219.244,199.289c2.317-2.647 4.958-5.696 7.633-8.715 13.176-14.877 29.971-17.712 48.207-13.332 12.952,3.111 18.841,11.434 19.108,24.87 0.109,5.472 0.153,11.229-1.34,16.404-9.692,33.592-23.623,64.931-49.081,90.022-8.55,8.427-8.805,8.95-19.972,4.142-11.479-4.943-22.859-10.129-34.178-15.43-12.834-6.009-24.057-14.496-33.349-25.025-16.973-19.232-24.442-41.627-19.315-67.318 2.714-13.597 11.368-21.757 24.554-25.586 14.934-4.337 29.323-3.139 42.42,5.184 5.346,3.396 9.349,8.904 15.313,14.784zm13.502,107.27c4.74-5.261 8.919-9.89 13.088-14.529 20.284-22.569 30.117-50.251 38.209-78.714 1.074-3.777 0.915-8.067 0.567-12.054-0.87-9.984-6.03-15.771-15.9-16.76-12.877-1.29-24.967,1.001-34.466,10.918-3.818,3.986-7.642,7.967-11.494,11.919-5.3,5.438-8.65,5.263-11.036-1.652-5.077-14.717-26.511-24.465-47.063-18.244-15.291,4.628-23.477,19.709-20.509,38.008 3.106,19.151 11.557,35.188 26.711,48.058 17.853,15.164 39.775,21.897 61.893,33.05z"/>
  </g>
</svg>
