<?xml version="1.0" encoding="iso-8859-1"?>
<!-- Generator: Adobe Illustrator 16.0.0, SVG Export Plug-In . SVG Version: 6.00 Build 0)  -->
<!DOCTYPE svg PUBLIC "-//W3C//DTD SVG 1.1//EN" "http://www.w3.org/Graphics/SVG/1.1/DTD/svg11.dtd">
<svg version="1.1" id="Capa_1" xmlns="http://www.w3.org/2000/svg" xmlns:xlink="http://www.w3.org/1999/xlink" x="0px" y="0px"
	 width="192.169px" height="192.169px" viewBox="0 0 192.169 192.169" style="enable-background:new 0 0 192.169 192.169;"
	 xml:space="preserve">
<g>
	<g>
		<path d="M177.58,31.19c-9.75-7.025-25.942-4.06-36.715-2.858c-18.075,2.016-36.174,3.487-54.27,5.282
			c-25.68,2.547-64.587,5.061-79.444,29.874c-14.37,23.998-3.967,70.945,4.131,95.674c1.111,3.392,6.009,2.008,5.311-1.465
			c-4.826-23.998-7.504-48.728-6.121-73.212c2.089-36.966,47.506-39.556,76.123-42.675c23.416-2.551,47.45-5.59,70.964-6.483
			c40.873-1.553,24.978,85.115,25.187,111.965c0.001,0.139,0.063,0.232,0.076,0.364c-0.145-0.015-0.262-0.081-0.416-0.08
			c-2.214,0.014-4.433,0.088-6.651,0.147c1.695-16.524,4.9-41.238-4.292-52.142c-14.66-17.392-43.197-10.754-62.946-9.227
			c-22.036,1.704-50.001,0.966-68.735,14.348c-16.137,11.526-8.747,37.446-3.968,53.852c-5.817,0.743-11.484,1.792-16.798,3.479
			c-1.76,0.56-1.775,3.024,0,3.576c24.352,7.579,56.194,1.931,81.42,0.772c22.264-1.022,45.475-1.35,67.816-4.529
			c1.646,2.179,5.467,1.837,6.514-0.995c2.907-0.496,5.808-1.019,8.676-1.636c2.222-0.478,3.02-2.46,2.709-4.288
			c2.032,0.196,4.223-0.987,4.271-3.642c0.502-27.85,1.566-55.684,1.748-83.538C192.252,50.669,188.259,38.884,177.58,31.19z
			 M40.994,153.971c-2.193-17.495-5.761-35.906,6.339-46.692c-1.333,9.149-0.429,18.643,6.826,22.876
			c0.162,3.792,0.386,7.584,0.738,11.37c0.208,2.236,0.3,7.331,1.066,11.694C50.916,153.312,45.903,153.528,40.994,153.971z
			 M77.7,142.915c-0.237,3.128-1.472,6.337-0.22,9.348c0.165,0.396,0.401,0.74,0.67,1.043c-5.075-0.061-10.203-0.138-15.348-0.139
			c-0.26-0.355-0.607-0.581-1.03-0.678c-0.086-1.221-0.158-2.349-0.215-2.688c-0.866-5.221-1.977-10.272-2.593-15.572
			c-0.091-0.779-0.137-1.562-0.215-2.342c1.207,0.266,2.483,0.472,3.919,0.532c2.526,0.105,4.613-2.184,4.622-4.622
			c0.023-5.948,0.07-11.896,0.052-17.844c-0.012-3.754,0.62-7.609-0.955-10.89c4.255-0.906,8.556-1.658,12.917-2.176
			c-0.839,10.569-1.617,21.121-1.753,31.736C77.491,133.394,78.06,138.166,77.7,142.915z M82.281,153.353
			c0.603-0.521,0.945-1.23,1.481-2.342c0.474-0.981,0.017-1.996-0.762-2.479c-0.009-0.11,0.005-0.154-0.008-0.275
			c0.231-1.776,0.418-3.558,0.56-5.342c0.432-4.666-0.522-9.611-0.742-14.29c-0.503-10.68-0.208-21.364-0.71-32.045
			c3.991-0.418,8.007-0.68,12.016-0.947c0.045,0.299,0.067,0.597,0.11,0.896c-1.75-0.442-3.847,0.307-4.257,2.343
			c-1.717,8.544-0.465,20.689,6.184,27.105c0.011,0.976,0.036,1.943,0.042,2.922c0.053,7.85-0.669,16.324,0.431,24.298
			C91.964,153.347,87.188,153.394,82.281,153.353z M139.565,92.446c0.992,2.47,1.687,5.002,2.191,7.576
			c0.197,2.271,0.527,4.552,0.89,6.835c0.024,0.36,0.036,0.724,0.055,1.085c-1.018-4.271-2.009-8.548-2.741-12.894
			c-0.259-1.535-1.313-2.336-2.54-2.568C138.134,92.473,138.856,92.435,139.565,92.446z M102.629,152.938
			c0.214-8.059-0.05-16.562-0.688-25.055c1.38-0.521,2.536-1.606,2.748-3.041c1.394-9.446,0.502-18.908,0.225-28.397
			c-0.017-0.581-0.183-1.057-0.355-1.524c2.748-0.171,5.52-0.328,8.232-0.531c0.49-0.037,1.023-0.09,1.531-0.135
			c1.234,17.115,4.282,33.892,3.192,51.098c-0.102,1.596,0.091,4.197,0.679,6.504C112.999,152.27,107.81,152.649,102.629,152.938z
			 M125.235,151.267c-0.607-0.49-1.475-0.687-2.39-0.262c2.536-1.181,0.952-19.007,0.605-21.854
			c-1.439-11.793-3.549-23.508-5.447-35.24c5.537-0.563,11.742-1.243,17.851-1.406c-1.363,0.266-2.644,1.132-3.067,2.543
			c-1.715,5.701,0.636,12.956,1.83,18.563c0.523,2.458,0.763,5.965,2.046,8.155c1.077,1.838,3.218,2.753,5.551,3.215
			c-0.644,8.446-1.439,16.883-0.483,24.873C136.232,150.32,130.732,150.799,125.235,151.267z M167.483,148.034
			c-6.376,0.312-12.764,0.784-19.152,1.292c1.269-7.736,0.68-16.17,0.452-23.855c0.065,0.001,0.145,0.002,0.207,0.003
			c2.502,0.027,4.669-2.129,4.635-4.636c-0.12-8.979-1.635-18.134-2.796-27.046c8.484,2.116,15.028,7.172,16.401,18.204
			C168.714,123.909,167.706,136.021,167.483,148.034z"/>
		<path d="M38.445,71.077c-0.898-0.521-1.788-1.046-2.72-1.503c-2.421-1.184-5.594-0.332-6.502,2.384
			c-0.483,0.188-0.958,0.43-1.416,0.787c-2.883,2.249-0.784,6.03,1.325,7.837c0.174,0.149,0.372,0.245,0.559,0.369
			c0.021,0.022,0.031,0.047,0.053,0.068c3.009,3.009,6.42,0.947,8.238-2.044c0.154-0.09,0.309-0.18,0.463-0.269
			C41.306,77.042,41.314,72.738,38.445,71.077z"/>
		<path d="M61.89,64.215c-0.764,0.409-1.483,0.887-2.159,1.409c-3.579,1.098-5.732,8.021-3.402,11.345
			c1.567,2.235,5.699,2.782,7.104,0.281c0.284-0.164,0.548-0.355,0.766-0.601c0.03-0.015,0.049-0.045,0.078-0.061
			c0.013-0.016,0.036-0.022,0.05-0.039c0.003-0.004,0.005-0.008,0.008-0.012c1.309-0.779,2.116-2.521,1.662-3.956
			c-0.025-0.078-0.07-0.147-0.098-0.224c0.413-0.507,0.828-0.989,1.204-1.386C70.498,67.38,66.215,61.902,61.89,64.215z"/>
		<path d="M91.213,61.576c-0.682,0.511-1.314,1.087-1.984,1.618c-0.174-0.011-0.356-0.043-0.521-0.038
			c-2.569,0.078-3.867,2.13-4.43,4.338c-0.524,0.877-0.799,1.955-0.424,2.928c1.144,2.972,5.642,5.195,8.839,4.353
			c0.776-0.112,1.519-0.382,2.072-1.055c0.725-0.882,1.181-1.981,1.533-3.131c0.056-0.087,0.136-0.157,0.187-0.248
			c0.584-1.029,0.724-2.031,0.582-2.977c0.072-0.377,0.145-0.762,0.218-1.12C97.922,63.102,94.394,59.191,91.213,61.576z"/>
		<path d="M130.185,61.724c-0.385-0.51-0.88-0.925-1.414-1.274c-1.065-1.824-3.53-2.841-5.46-1.529
			c-0.394,0.267-0.757,0.576-1.114,0.889c-0.032-0.016-0.052-0.051-0.085-0.064c-0.071-0.031-0.141-0.064-0.212-0.095
			c-1.553-0.696-2.844-0.532-4.166,0.538c-1.386,1.121-1.619,3.231-1.699,5.062c-0.447,1.462-0.102,3.263,0.929,4.454
			c1.011,1.167,2.36,2.086,3.61,2.976c1.394,0.992,3.578,0.559,4.712-0.608c1.028-1.058,1.797-2.204,2.431-3.405
			c0.655-0.281,1.269-0.583,1.823-1.103C131.127,66.075,131.534,63.507,130.185,61.724z"/>
		<path d="M166.434,57.328c-0.653-0.416-1.424-0.549-2.192-0.528c-0.978-0.902-2.128-1.487-3.364-1.547
			c-1.196-0.232-2.543,0.042-3.75,0.979c-0.711,0.552-1.136,1.463-1.434,2.427c-0.215,0.11-0.443,0.194-0.649,0.323
			c0.332,0.018,0.483,0.039,0.546,0.06c-0.003,0.013-0.006,0.025-0.01,0.037c-0.1,0.027-0.346,0.056-0.812,0.088
			c-1.614,0.341-2.845,1.838-2.845,3.495c0,2.009,1.711,3.942,3.824,5.153c1.113,1.596,2.798,2.084,4.455,1.741
			c1.203-0.05,2.358-0.551,3.429-1.135c0.177-0.079,0.361-0.149,0.524-0.237c0.192-0.104,0.349-0.258,0.526-0.386
			C168.438,65.42,171.321,60.437,166.434,57.328z"/>
	</g>
</g>
<g>
</g>
<g>
</g>
<g>
</g>
<g>
</g>
<g>
</g>
<g>
</g>
<g>
</g>
<g>
</g>
<g>
</g>
<g>
</g>
<g>
</g>
<g>
</g>
<g>
</g>
<g>
</g>
<g>
</g>
</svg>
