<?xml version='1.0' encoding='iso-8859-1'?>
<!DOCTYPE svg PUBLIC '-//W3C//DTD SVG 1.1//EN' 'http://www.w3.org/Graphics/SVG/1.1/DTD/svg11.dtd'>
<svg version="1.1" xmlns="http://www.w3.org/2000/svg" viewBox="0 0 456.113 456.113" xmlns:xlink="http://www.w3.org/1999/xlink" enable-background="new 0 0 456.113 456.113">
  <g>
    <path d="m145.39,270.592c-5.94,2.155-9.815,3.861-13.854,4.972-13.448,3.698-19.636-1.842-17.371-15.378 0.285-1.702 0.804-3.366 1.57-6.507-5.361,1.679-9.603,3.038-13.866,4.327-1.382,0.418-2.806,0.725-4.23,0.968-18.255,3.112-24.352-3.731-19.21-21.508 0.291-1.005 0.344-2.08 0.691-4.29-5.173,1.541-9.793,2.958-14.438,4.289-5.192,1.489-10.224,1.353-13.933-3.105-3.934-4.729-1.623-9.628 0.587-14.222 1.382-2.874 3.279-5.5 5.592-9.301-5.317-0.553-9.766-0.876-14.17-1.513-4.272-0.618-8.704-0.999-12.698-2.476-7.822-2.894-9.533-8.615-4.746-15.421 2.259-3.212 5.308-5.902 8.179-8.639 2.572-2.452 5.393-4.645 8.769-7.518-5.413-3.075-10.493-5.441-14.997-8.622-11.028-7.789-10.248-14.703 2.018-20.486 1.606-0.757 3.289-1.351 6.428-2.626-3.7-3.337-6.917-6.097-9.963-9.035-2.074-2-4.187-4.058-5.805-6.417-8.718-12.709-5.011-20.979 10.188-23.067 1.026-0.141 2.023-0.502 4.042-1.018-1.626-2.666-2.891-5.051-4.442-7.232-7.376-10.368-9.045-21.936-6.973-34.149 1.428-8.416 4.983-10.059 12.976-6.629 9.056,3.887 17.141,9.076 24.211,16.103 6.622,6.582 13.952,12.451 21.568,19.159 3.656-5.753 5.131-9.567 0.7-15.115-3.099-3.88-5.381-10.101-4.762-14.851 0.855-6.564-1.645-10.952-4.466-16.022-3.836-6.897-7.338-14.024-10.345-21.316-1.326-3.216-1.547-7.091-1.462-10.648 0.218-9.141 6.06-13.838 14.361-10.218 9.831,4.287 19.78,9.243 28.096,15.889 25.129,20.084 49.305,41.357 74.254,61.672 8.978,7.311 14.198,16.171 16.146,27.276 2.365,13.485 5.308,26.767 12.81,39.872 2.55-2.949 4.644-5.187 6.534-7.586 14.361-18.23 29.307-35.608 49.622-47.931 20.697-12.554 42.773-14.198 65.893-11.951 18.681,1.816 35.939,6.965 51.456,18.168 7.535,5.44 16.198,9.669 24.888,13.074 12.734,4.99 15.856,14.412 3.098,23.921-1.723,1.285-3.571,2.403-5.203,3.493 2.248,15.546 4.78,30.796 6.607,46.13 4.745,39.82 9.471,79.647 13.57,119.536 1.327,12.913 0.884,26.028 0.85,39.05-0.015,5.597 1.451,9.138 6.876,11.945 13.574,7.023 22.371,18.048 24.58,33.616 3.128,22.044-8.802,46.716-27.898,58.424-8.425,5.166-17.414,3.827-26.373,3.082-3.578-0.298-7.099-1.343-10.631-2.114-17.825-3.891-27.785-15.095-29.917-33.538-4.311-37.297 16.389-59.152 46.908-65.75 5.372-1.161 7.497-3.74 7.464-8.71-0.104-15.54 0.703-31.168-0.645-46.604-3.675-42.088-8.232-84.1-12.544-126.131-0.794-7.745-2.075-15.44-3.366-24.873-6.442,13.795-26.681,97.423-26.573,108.544 1.02,0.53 2.176,1.425 3.475,1.76 17.492,4.511 28.246,17.554 29.454,35.556 1.034,15.412-1.242,29.395-13.89,40.273-13.199,11.352-36.892,12.485-50.399,1.623-6.287-5.056-8.8-12.271-10.186-19.81-2.525-13.741 0.581-26.605 7.154-38.693 5.332-9.804 14.314-15.026 23.505-18.195 10.098-36.362 20.003-72.026 30.118-108.451-1.836,0.645-3.778,1.047-5.445,1.954-26.379,14.346-45.476,33.806-48.724,65.673-2.009,19.714-3.832,39.776-9.069,58.764-10.527,38.17-27.449,73.018-60.983,97.228-17.435,12.587-36.818,20.093-57.856,22.998-16.39,2.263-32.934,5.088-49.409-0.899-2.561-0.93-7.116,0.958-9.595,2.966-7.857,6.365-15.043,13.55-22.738,20.125-4.098,3.502-8.429,6.931-13.154,9.458-10.271,5.494-15.14,3.789-21.225-6.719-6.025,3.813-11.834,8.023-18.114,11.338-9.941,5.247-13.465,3.816-18.584-6.973-9.915,8.084-19.469,16.351-29.562,23.895-4.8,3.587-10.347,6.857-16.06,8.376-7.826,2.081-12.495-3.626-10.147-11.494 1.019-3.416 2.818-6.663 4.634-9.769 10.992-18.811 24.121-36.011 38.961-51.969 23.149-24.893 46.094-49.978 69.171-74.939 8.842-9.563 17.826-18.995 26.707-28.523 1.411-1.515 2.621-3.215 5.31-6.546zm160.091,24.597l-.469,.333c2.07-2.788 4.975-5.291 6.046-8.422 2.681-7.833 5.133-15.843 6.593-23.976 3.251-18.117 5.685-36.379 8.74-54.533 3.186-18.939 9.277-36.516 26.096-49.044-21.415-21.548-14.009-43.849-2.182-66.642-3.205-0.931-5.498-1.94-7.877-2.225-7.527-0.901-15.108-1.356-22.629-2.299-25.031-3.14-46.238,5.144-64.765,21.472-21.048,18.551-34.72,42.937-51.709,64.013 4.736,7.412 13.621,9.44 17.536,19.261-4.917-1.957-8.454-2.694-11.21-4.575-14.005-9.558-28.181-18.929-41.585-29.285-16.375-12.651-32.916-24.68-52.47-32.185-7.002-2.687-13.933-6.421-19.788-11.072-16.682-13.25-32.785-27.23-49.136-40.897-3.605-3.013-7.208-6.043-10.988-8.826-1.772-1.304-3.964-2.037-6.625-3.356-0.906,11.856 2.088,21.421 9.186,29.17 6.318,6.898 13.567,12.949 20.466,19.309 4.247,3.915 8.922,7.423 12.761,11.693 1.513,1.682 2.576,5.848 1.567,7.292-2.202,3.149-5.729,2.051-8.534-0.246-1.956-1.602-3.714-3.476-5.785-4.904-5.044-3.477-9.961-7.295-15.43-9.946-3.747-1.816-8.321-2.522-12.548-2.609-6.014-0.125-7.472,3.398-3.913,8.452 1.026,1.458 2.254,2.954 3.734,3.882 8.225,5.158 16.5,10.242 24.882,15.139 2.775,1.621 6.473,2.007 8.729,4.072 2.022,1.851 3.998,5.483 3.558,7.881-0.648,3.529-4.415,4.33-7.971,3.329-2.083-0.586-4.078-1.704-6.185-1.941-7.983-0.898-16.159-2.594-24.747,3.856 4.45,2.464 7.616,4.95 11.205,6.034 5.487,1.657 11.238,2.541 16.932,3.383 4.217,0.623 7.618,1.777 8.677,7.502-2.439,1.338-4.959,2.497-7.241,4.013-6.604,4.388-13.227,8.765-19.579,13.501-1.663,1.24-2.363,3.77-4.448,7.305 11.08,0.223 20.275,1.171 29.557-0.847 3.129-0.68 6.498-1.09 9.637-0.689 4.328,0.553 6.155,4.714 3.675,7.983-1.72,2.266-4.223,3.922-6.266,5.962-4.501,4.492-8.498,9.308-11.143,17.817 6.736-2.562 11.341-4.275 15.918-6.063 5.381-2.102 10.622-4.687 16.159-6.206 2.299-0.631 5.677,0.334 7.623,1.812 0.876,0.666-0.156,4.537-1.049,6.646-0.964,2.278-2.949,4.1-4.187,6.292-2.93,5.191-6.424,10.237-6.094,17.761 4.12-0.566 7.827-0.431 11.026-1.641 7.74-2.928 15.311-6.337 22.811-9.849 3.336-1.562 6.671-3.978 10.003-1.154 3.784,3.207 0.779,6.479-0.882,9.628-1.516,2.874-3.297,5.74-4.086,8.832-0.899,3.525-4.134,7.07-0.852,11.388 8.334-1.119 14.361-6.463 20.81-10.962 3.379-2.357 5.698-7.601 10.836-5.438 5.466,2.301 2.535,7.596 2.896,11.613 0.72,8.015 3.739,10.915 11.952,10.189 5.747-0.508 11.417-1.848 17.158-2.492 3.231-0.362 6.536-0.065 11.058-0.065-15.61,13.722-32.285,15.901-47.89,7.082-5.198,6.378-10.163,13.049-15.719,19.184-23.301,25.735-46.822,51.271-70.178,76.957-16.533,18.181-33.834,35.753-46.416,57.146-1.734,2.948-3.308,5.989-5.999,10.885 37.226-23.585 63.807-55.963 96.231-81.63-2.304,11.532-9.132,20.142-17.148,27.887-6.5,6.281-13.372,12.178-20.092,18.231-4.199,3.782-7.406,7.919-5.145,15.096 3.291-2.148 6.499-3.741 9.098-6.027 10.851-9.543 21.482-19.335 32.265-28.956 7.274-6.489 14.573-12.957 22.082-19.168 1.569-1.298 4.107-1.425 6.199-2.091-1.738,6.18-4.211,11.067-7.721,15.04-7.416,8.393-15.102,16.593-23.212,24.311-4.743,4.514-6.453,8.879-3.387,16.012 4.204-2.723 8.061-4.674 11.253-7.403 6.87-5.874 13.376-12.172 20.072-18.252 6.7-6.084 13.281-12.383 22.012-13.664 4.792,1.435 9.095,2.724 12.946,3.878 3.056-12.205 5.828-23.276 8.6-34.348 0.697,0.154 1.393,0.308 2.09,0.462-2.175,10.813-4.35,21.626-6.634,32.982 4.197,0 7.508,0 10.714,0 1.651-15.106 4.378-29.07 11.425-42.082-2.388,13.667-4.777,27.334-7.406,42.377 6.82-0.754 11.989-1.326 16.566-1.832 2.743-13.298 5.293-25.659 7.843-38.019 0.616,0.118 1.233,0.237 1.849,0.355-1.849,11.893-3.699,23.785-5.773,37.121 5.149-1.304 8.462-2.143 10.954-2.774 2.954-13.772 5.659-26.381 8.363-38.99 1.44,12.433-4.308,24.052-2.131,37.308 4.275-1.552 7.911-2.872 11.043-4.009 2.085-14.578 4.045-28.275 6.004-41.973 0.74,0.094 1.481,0.189 2.221,0.283-1.343,12.62-2.686,25.239-4.128,38.788 8.745-2.495 12.948-5.831 13.633-14.453 0.984-12.39 4.025-24.617 6.189-36.914 1.944,13.548-3.986,26.529-2.272,41.178 9.259-5.837 15.619-11.057 15.077-22.572-0.505-10.723 1.657-21.585 2.827-32.366 0.258-2.376 1.283-4.669 1.955-7 0.553,0.099 1.106,0.198 1.658,0.297-0.802,14.137-1.605,28.274-2.407,42.41 0.727,0.207 1.453,0.414 2.18,0.622 10.74-13.863 19.632-28.777 24.855-45.795zm-172.316-206.886c0.755,0.523 1.51,1.045 2.265,1.568-5.706,8.496-11.412,16.993-17.489,26.04 6.463,2.832 12.309,5.393 18.492,8.102 3.394-4.39 6.379-8.433 9.559-12.314 3.087-3.768 5.407-8.336 9.235-11.388 0.545,0.472 1.091,0.944 1.636,1.415-5.384,7.962-10.767,15.924-16.48,24.374 3.422,2.079 6.092,3.701 8.796,5.344 5.082-5.582 9.819-10.786 14.556-15.99 0.536,0.38 1.072,0.759 1.608,1.139-3.851,5.739-7.702,11.478-11.801,17.585 3.206,2.315 5.782,4.175 8.54,6.166 2.483-2.245 4.721-4.268 6.959-6.291 0.428,0.28 0.856,0.561 1.284,0.841-1.237,2.728-2.474,5.456-3.847,8.486 8.853,7.796 17.473,15.385 26.808,23.605 3.041-4.146 5.735-7.818 8.343-11.374-10.39-13.975-16.724-28.682-19.13-45.186-1.097-7.525-3.6-14.758-10.072-19.832-7.115-5.577-14.206-11.193-21.123-17.011-18.257-15.355-36.556-30.664-54.54-46.334-7.16-6.238-14.669-11.457-24.595-14.713-1.036,10.26 2.402,18.298 8.116,25.557 5.339,6.781 8.803,13.801 7.036,22.966-0.597,3.096 0.528,7.821 2.693,9.904 6.014,5.787 8.319,11.969 6.386,20.516 4.464-6.635 8.929-13.269 13.393-19.904 0.617,0.439 1.233,0.878 1.85,1.318-3.506,5.795-7.081,11.551-10.502,17.396-4.465,7.629-4.399,7.73 2.916,14.711 2.049-2.329 4.098-4.658 6.148-6.988 0.32,0.291 0.64,0.581 0.96,0.872-1.581,3.458-3.162,6.916-4.954,10.837 2.949,1.689 5.367,3.074 7.55,4.324 6.672-8.855 13.038-17.298 19.404-25.741zm292.443,273.421c-1.234,7.086-2.359,11.99 2.453,17.262 13.052,14.299 8.552,38.123-12.817,47.034-14.362,5.989-33.003-4.009-34.157-18.175-1.318-16.189 7.369-28.853 22.901-33.411 2.694-0.791 5.369-1.648 8.33-2.56 0.211-2.934 0.457-5.404 0.546-7.88 0.089-2.465 0.019-4.935 0.019-7.184-1.44-0.43-2.173-0.921-2.77-0.789-39.819,8.791-49.883,43.089-33.754,73.774 1.58,3.006 4.605,6.6 7.569,7.287 10.478,2.429 21.178,4.199 31.889,5.15 3.463,0.307 7.58-2.132 10.778-4.25 13.458-8.916 18.381-22.318 19.889-37.822 1.658-17.042-4.716-29.331-20.876-38.436zm-69.33-267.695c-15.336,23.058-14.348,44.254 1.094,58.65 15.044-8.53 29.842-16.92 44.64-25.311-3.357-0.683-5.884,0.606-8.566,1.215-8.772,1.99-17.538,4.189-26.429,5.418-6.56,0.907-8.032-0.431-11.972-6.633 17.487,3.739 33.211,1.032 48.985-9.474-16.733-8.362-32.058-16.021-47.752-23.865zm11.779,176.107c1.737,0.368 3.09,0.738 4.467,0.934 10.96,1.557 17.086,8.179 16.108,18.934-0.511,5.616-2.212,11.407-4.655,16.506-5.103,10.652-17.445,13.914-27.61,8.008-9.844-5.719-12.536-17.948-6.023-27.737 1.994-2.998 3.908-6.159 6.426-8.677 4.565-4.565 5.52-9.659 3.87-16.084-1.717,0.483-3.223,0.576-4.356,1.274-22.086,13.598-22.607,39.211-10.523,58.782 0.553,0.896 1.42,1.654 2.273,2.301 9.922,7.524 26.597,6.535 36.407-1.501 12.811-10.493 14.505-28.384 9.92-41.576-3.766-10.837-10.695-19.496-24.243-21.045-0.704,3.381-1.342,6.439-2.061,9.881zm58.79,128.137c0.265-10.167-8.427-19.237-18.476-19.279-10.533-0.043-20.19,11.835-20.467,25.176-0.175,8.439 8.086,15.674 18.291,16.018 10.476,0.354 20.345-10.119 20.652-21.915zm-45.907-107.899c-0.278-11.045-8.669-16.238-15.714-10.762-4.542,3.53-8.145,9.167-10.324,14.6-2.39,5.956 2.697,13.36 8.838,15.285 5.789,1.815 10.477-0.546 13.558-7.598 1.851-4.238 2.823-8.861 3.642-11.525z"/>
    <path d="m305.481,295.189c-5.078-3.186 0.929-6.571 1.174-9.763-0.546,3.364-1.092,6.729-1.641,10.095-0.002,0.001 0.467-0.332 0.467-0.332z"/>
    <path d="m130.338,150.461c-4.42-2.149-8.066-4.188-11.911-5.733-7.027-2.824-14.101-3.305-20.623,1.356-5.19,3.709-5.609,7.982-0.246,11.146 5.483,3.235 11.833,5.049 17.895,7.231 3.194,1.15 6.584,1.757 9.885,2.609-0.005,0.811-0.01,1.621-0.015,2.432-2.081,0.557-4.262,0.88-6.225,1.715-4.842,2.061-10.346,3.466-14.196,6.757-6.373,5.447-5.373,9.773 2.362,12.646 5.025,1.866 10.499,2.496 15.724,3.864 2.212,0.579 4.302,1.629 7.863,3.017-3.573,2.548-6.061,3.86-7.956,5.764-4.844,4.865-3.235,10.388 3.553,11.687 5.498,1.052 11.149,1.309 17.44,1.995-7.097,7.155-16.883,8.132-24.903,3.247-6.053-3.687-6.873-7.866-3.571-19.962-3.572-1.294-7.266-2.475-10.836-3.953-11.623-4.812-13.496-12.23-5.424-21.797 1.36-1.611 3.461-2.597 6.181-4.569-5.245-3.415-9.256-5.605-12.78-8.408-7.543-6-7.185-12.713-0.033-19.005 8.833-7.77 31.266-6.547 37.816,7.961z"/>
    <path d="m158.996,170.653c-7.045,2.581-14.078,4.566-16.757,12.632 5.117,11.063 17.961,4.974 26.286,11.639-2.022,1.569-3.51,2.701-4.973,3.865-2.211,1.759-4.886,3.184-6.508,5.383-3.626,4.914-2.459,8.788 3.293,10.974 4.571,1.737 9.411,2.765 14.45,4.198-4.598,6.375-12.604,6.594-20.759,1.355-7.607-4.887-8.043-10.555-1.355-23.327-3.075-1.502-6.285-2.77-9.185-4.544-8.202-5.017-8.753-12.115-1.484-18.487 4.834-4.238 10.268-6.633 16.992-3.688z"/>
    <path d="m312.304,124.407c-6.197-0.744-10.456-5.266-10.069-10.69 0.415-5.813 6.283-10.509 12.154-9.727 5.979,0.796 10.664,6.523 9.929,12.137-0.703,5.365-5.982,9.004-12.014,8.28z"/>
    <path d="m294.936,280.208c-1.527,10.918-3.053,21.836-4.58,32.754-0.818-0.12-1.635-0.24-2.453-0.361-0.119-11.158 4.383-21.638 4.485-32.764 0.849,0.124 1.699,0.248 2.548,0.371z"/>
    <path d="m137.759,106.345c-2.148,3.401-4.295,6.803-6.443,10.205-0.424-5.138 1.684-8.622 5.596-10.99 0.283,0.261 0.565,0.523 0.847,0.785z"/>
    <path d="m136.913,105.56c1.512-2.128 3.025-4.256 4.537-6.384 0.543,0.379 1.085,0.758 1.628,1.137-1.773,2.011-3.546,4.021-5.318,6.032-0.283-0.262-0.565-0.524-0.847-0.785z"/>
    <path d="m370.492,109.993c-2.8,2.093-4.733,4.453-5.761,4.109-1.927-0.646-3.329-2.856-4.949-4.416 1.221-1.117 2.567-3.259 3.638-3.13 2.031,0.245 3.905,1.793 7.072,3.437z"/>
  </g>
</svg>
