<?xml version='1.0' encoding='iso-8859-1'?>
<!DOCTYPE svg PUBLIC '-//W3C//DTD SVG 1.1//EN' 'http://www.w3.org/Graphics/SVG/1.1/DTD/svg11.dtd'>
<svg version="1.1" xmlns="http://www.w3.org/2000/svg" viewBox="0 0 408.444 408.444" xmlns:xlink="http://www.w3.org/1999/xlink" enable-background="new 0 0 408.444 408.444">
  <g>
    <path d="m368.709,266.504c0,16.277-0.278,32.561 0.071,48.831 0.421,19.589 1.453,39.164 2.059,58.75 0.224,7.229-1.945,9.543-9.088,10.619-1.276,0.192-2.589,0.165-3.885,0.2-19.151,0.512-37.806,4.694-56.638,7.588-4.555,0.7-9.238,0.583-13.781,1.335-21.108,3.498-42.215,7.01-63.268,10.824-23.058,4.177-46.199,4.393-69.521,3.08-13.076-0.736-26.242,0.115-39.368,0.259-10.185,0.111-20.383,0.586-30.55,0.219-6.011-0.217-9.668-4.589-10.902-10.166-1.855-8.381-3.665-16.859-4.38-25.39-1.836-21.872-2.986-43.8-4.551-65.696-1.011-14.146-2.298-28.273-3.411-42.412-1.184-15.054-2.571-30.099-3.38-45.174-0.703-13.082-0.121-26.249-1.183-39.29-1.613-19.806-3.807-39.583-6.399-59.288-3.042-23.122-6.768-46.155-10.21-69.224-0.786-5.269-1.513-10.551-2.471-15.79-0.973-5.326 0.731-9.035 5.668-10.053 15.404-3.176 30.765-6.832 46.33-8.884 20.041-2.642 40.287-3.69 60.399-5.854 12.397-1.334 24.671-3.828 37.071-5.125 9.723-1.018 19.551-1.181 29.34-1.404 21.809-0.495 43.635-0.476 65.432-1.266 16.392-0.595 32.74-2.311 49.127-3.158 8.41-0.435 12.537,3.101 13.903,11.593 2.82,17.534 5.781,35.064 7.852,52.694 2.363,20.112 3.903,40.324 5.646,60.505 1.616,18.715 2.999,37.451 4.537,56.173 2.34,28.479 4.724,56.954 7.09,85.431-0.514,0.025-1.027,0.049-1.539,0.073zm-283.074,132.421c9.301-0.592 17.393-1.405 25.498-1.569 25.676-0.52 51.38-0.276 77.028-1.376 14.218-0.61 28.378-3.088 42.507-5.122 19.921-2.869 39.804-6.012 59.667-9.262 4.369-0.715 8.578-2.392 12.875-3.575 2.463-0.678 4.929-1.648 7.436-1.806 14.007-0.881 28.023-1.673 42.047-2.223 4.111-0.161 4.885-1.445 4.206-5.453-1.014-5.983-1.45-12.12-1.516-18.198-0.193-17.598-0.073-35.2-0.086-52.801-0.021-27.002 0.446-53.997-3.148-80.893-1.585-11.864-1.58-23.933-2.524-35.891-1.727-21.881-3.687-43.743-5.427-65.623-1.214-15.258-1.843-30.572-3.423-45.79-1.818-17.516-4.344-34.959-6.666-52.42-1.12-8.419-5.529-10.433-13.476-6.637-2.77,1.323-5.77,2.666-8.761,2.936-11.192,1.011-22.415,1.968-33.642,2.225-15.913,0.365-31.841,0.086-47.763,0.095-11.437,0.007-22.877-0.135-34.309,0.109-8.316,0.177-16.684,0.38-24.918,1.437-19.822,2.546-39.578,5.611-59.363,8.449-21.184,3.039-42.372,6.059-64.124,9.168 1.995,12.488 3.904,24.434 5.939,37.172 3.709-5.108 6.755-9.304 9.801-13.499 0.476,0.315 0.953,0.631 1.43,0.946-1.323,10.661-14.014,18.346-8.28,30.897 4.316-5.108 8.653-10.241 12.991-15.374 0.553,0.439 1.105,0.878 1.658,1.316-2.729,4.296-5.368,8.652-8.205,12.875-6.207,9.238-6.357,9.988-3.026,21.177 2.617-4.621 5.31-9.374 8.002-14.127 0.695,0.35 1.39,0.7 2.085,1.049-2.165,5.162-3.881,10.58-6.628,15.411-2.487,4.375-2.452,8.427-1.446,13.051 0.932,4.289 1.076,8.746 1.624,13.121 1.012,8.084 2.065,16.163 3.213,25.12 11.741-17.623 12.48-18.328 17.414-16.969-7.235,11.57-18.367,21.644-14.807,37.358 0.57,0.487 1.14,0.975 1.71,1.462 2.426-3.343 4.853-6.686 7.279-10.029 0.596,0.362 1.192,0.723 1.788,1.085-5.216,9.628-14.484,18.174-9.103,30.398 3.682-4.354 7.522-8.897 11.363-13.439 0.617,0.399 1.234,0.797 1.85,1.196-2.259,3.981-3.998,8.393-6.879,11.857-6.882,8.274-9.023,17.159-5.153,27.666 1.76-2.455 3.348-4.888 5.164-7.137 1.779-2.203 3.791-4.217 5.701-6.314 0.683,0.513 1.366,1.026 2.05,1.539-2.6,4.479-5.041,9.06-7.834,13.417-5.885,9.181-6.217,11.053-2.796,21.751 3.953-5.913 7.848-11.74 11.744-17.567 0.45,0.261 0.899,0.521 1.349,0.782-0.439,6.558-3.701,12.493-8.09,16.672-6.605,6.288-3.92,12.752-3.24,20.653 4.197-5.998 7.723-11.038 11.249-16.077 0.531,0.338 1.062,0.675 1.592,1.013-3.211,5.171-6.609,10.239-9.55,15.559-1.343,2.429-2.399,5.336-2.487,8.062-0.113,3.528 0.87,7.092 1.44,11.041 3.635-5.114 7.022-9.88 10.409-14.646 0.656,0.399 1.313,0.797 1.969,1.196-3.18,5.876-6.073,11.933-9.623,17.576-3.296,5.238-2.108,10.392-1.493,16.849 3.61-4.694 6.5-8.453 9.391-12.212 0.692,0.315 1.385,0.63 2.077,0.945-5.508,12.405-16.02,23.785-8.855,38.485 2.777-5.089 5.741-10.523 8.706-15.958 1.665,12.655-9.637,21.219-8.629,33.367 0.953,11.519 1.955,23.038 3.018,35.504z"/>
    <path d="m235.769,300.433c-20.152,0.755-40.376,0.708-60.434,2.509-17.267,1.55-34.816,2.453-51.369,8.828-2.807,1.081-6.146,0.958-9.249,1.053-4.288,0.13-7.011-2.011-7.603-6.368-1.139-8.383-2.35-16.761-3.234-25.172-1.849-17.592-3.596-35.195-5.217-52.81-1.741-18.924-3.193-37.874-4.956-56.795-1.197-12.846-2.769-25.657-4.074-38.494-1.623-15.965-3.237-31.933-4.669-47.916-0.643-7.178-1.047-14.392-1.182-21.597-0.182-9.687 3.929-13.596 13.572-13.577 16.063,0.031 32.151,0.558 48.182-0.16 12.052-0.539 24.025-2.764 36.047-4.113 5.311-0.596 10.673-0.735 15.983-1.335 15.129-1.708 30.273-3.335 45.357-5.393 14.889-2.031 29.73-4.441 44.553-6.922 4.473-0.749 8.927-1.979 13.19-3.537 8.108-2.963 11.56-1.719 13.034,6.744 2.738,15.721 4.986,31.538 7.032,47.367 2.031,15.711 3.645,31.478 5.29,47.236 1.683,16.124 3.071,32.28 4.802,48.399 1.061,9.876 2.599,19.7 3.793,29.563 2.124,17.54 4.302,35.075 6.14,52.646 0.747,7.133 0.888,14.352 0.897,21.533 0.009,7.007-2.503,8.797-9.31,9.538-11.659,1.269-23.238,3.26-34.875,4.763-4.005,0.517-8.091,0.366-12.122,0.722-11.157,0.986-22.293,2.235-33.46,3.061-5.345,0.395-10.742,0.068-16.116,0.068 2.84217e-14,0.053-0.001,0.106-0.002,0.159zm-145.347-239.26c0,3.231-0.245,5.655 0.038,8.017 2.572,21.422 5.282,42.827 7.861,64.247 2.6,21.595 5.251,43.185 7.584,64.809 1.444,13.387 2.183,26.849 3.514,40.251 2.058,20.721 4.481,41.406 6.444,62.135 0.42,4.439 2.105,4.917 5.706,3.675 5.016-1.731 9.992-3.763 15.158-4.847 25.135-5.276 50.776-5.921 76.269-7.847 17.274-1.305 34.577-2.211 51.861-3.4 15.052-1.035 30.11-2.039 45.132-3.412 6.981-0.638 13.885-2.121 20.898-3.232 0-2.648 0.13-4.321-0.02-5.969-1.598-17.6-3.195-35.2-4.888-52.79-0.883-9.18-1.875-18.352-2.965-27.511-1.001-8.411-2.362-16.78-3.277-25.199-1.69-15.552-3.137-31.131-4.744-46.693-1.742-16.868-3.342-33.755-5.401-50.586-1.391-11.37-3.469-22.656-5.298-34.352-4.034,1.118-6.799,2.11-9.65,2.636-14.403,2.658-28.795,5.409-43.257,7.708-11.592,1.842-23.257,3.298-34.931,4.528-10.085,1.062-20.383,0.707-30.315,2.49-21.133,3.794-42.353,5.499-63.777,5.354-10.501-0.07-21.002-0.012-31.942-0.012z"/>
    <path d="m277.459,338.672c-0.027-9.308 8.859-19.343 16.998-19.197 7.903,0.141 17.473,11.363 17.239,20.216-0.225,8.542-8.367,16.308-17.133,16.341-10.475,0.039-17.073-6.658-17.104-17.36zm5.431-1.831c0.062,5.882 2.155,10.273 5.959,12.235 3.789,1.954 7.454,1.404 10.985-0.764 5.379-3.303 6.33-10.274 2.131-17.013-2.418-3.88-4.751-8.243-10.633-6.513-5.538,1.629-8.506,5.945-8.442,12.055z"/>
    <path d="m177.568,348.354c-2.131,5.841-3.885,11.235-6.12,16.422-0.679,1.577-2.687,2.581-4.086,3.847-0.729-1.892-2.479-4.105-2.003-5.617 1.758-5.58 3.877-11.125 6.593-16.299 2.036-3.878 1.571-6.664-1.066-9.843-2.42-2.917-4.392-6.205-7.198-10.246 7.86-1.163 9.284,5.867 13.276,8.4 3.968-4.75 7.778-9.31 11.588-13.87 0.637,0.462 1.274,0.924 1.911,1.386-2.547,5.128-4.935,10.344-7.703,15.35-1.57,2.84-1.603,5.146 0.674,7.466 3.346,3.408 6.534,6.987 10.064,10.191 1.566,1.421 3.803,2.103 4.955,3.893-7.764,1.58-12.537-1.278-20.885-11.08z"/>
    <path d="m219.665,362.788c-9.347-0.084-15.753-6.492-15.458-15.76 0.431-13.553 9.12-20.512 17.019-19.955 8.213,0.579 16.4,9.678 15.916,18.862-0.436,8.293-7.743,18.402-17.477,16.853zm-10.283-18.526c0.105,9.078 3.927,13.995 10.789,13.882 5.352-0.088 10.592-6.146 10.591-12.243-0.001-7.169-5.149-14.143-10.518-14.247-6.244-0.122-10.946,5.336-10.862,12.608z"/>
    <path d="m245.343,326.129c3.487,2.452 6.974,4.905 10.388,7.306 3.874-3.952 5.226-10.591 13.382-11.993-2.801,5.006-5.267,8.79-7.022,12.878-0.641,1.493-0.129,4.042 0.789,5.539 2.856,4.662 6.158,9.05 9.951,14.499-10.151,3.154-10.041-6.834-15.782-9.557-2.082,5.475-4.161,11.224-6.499,16.866-0.521,1.257-1.954,2.135-2.968,3.187-0.808-1.289-2.546-2.836-2.272-3.823 1.708-6.134 3.444-12.334 6.048-18.116 1.408-3.126 1.187-4.75-1.148-6.997-2.491-2.397-4.48-5.315-6.688-8.006 0.607-0.596 1.214-1.189 1.821-1.783z"/>
    <path d="m197.201,164.371c4.083,8.064 5.827,16.258 4.667,24.946-1.903,14.249-4.474,11.519-14.371,12.782 11.865,9.538 24.106,18.51 24.436,36.497-3.606-4.531-6.439-8.09-9.272-11.649-0.755,0.744-1.511,1.487-2.266,2.231-1.151,2.112-2.301,4.224-3.276,6.013 7.12,4.942 14.664,10.179 23.367,16.221 13.112-16.64 26.759-33.96 40.28-51.12-1.87-3.653-3.448-6.735-5.224-10.205-5.794,1.777-11.549,3.507-17.28,5.313-3.975,1.253-6.205,0.67-6.598-4.263-0.453-5.691-2.765-10.924-2.567-17.084 0.129-4.008-2.873-8.912-3.292-13.902-0.111-1.318-3.974-2.648-6.3-3.392-6.651-2.128-7.539-3.801-3.861-9.719 4.094-6.589 6.639-13.103 4.546-21.242-1.05-4.084 0.499-8.781 0.454-13.197-0.032-3.128-0.027-8.539-1.322-8.957-4.469-1.444-9.498-1.245-14.323-1.436-1.106-0.044-2.25,0.85-3.453,1.343-1.49-7.991 1.845-8.973 19.381-6.885-4.968-4.086-9.936-8.173-14.904-12.259-0.039-0.355-0.078-0.709-0.116-1.064 4.067,0.711 8.134,1.422 10.957,1.915 3.526-4.129 6.867-8.613 10.847-12.429 1.643-1.576 4.257-5.189 7.38-0.853 0.3,0.416 3.239-0.898 4.849-1.635 2.826-1.293 5.47-3.079 8.395-4.024 1.514-0.489 3.634,0.013 5.19,0.713 4.525,2.033 8.904,4.391 14.003,6.955-0.931,4.439 3.502,2.65 6.289,2.768 1.957,0.083 3.935-0.842 5.931-1.04 8.776-0.868 12.735,4.093 9.936,12.724 1.061,0.549 2.135,1.538 3.274,1.619 4.601,0.326 5.08,2.458 3.613,6.362-0.584,1.555-0.273,3.852 0.458,5.428 4.133,8.919 5.862,17.989 4.215,27.892-2.014,12.108-3.443,24.329-4.609,36.55-0.198,2.079 1.665,5.102 3.489,6.492 6.533,4.981 10.029,11.561 11.995,19.301 1.618,6.374 4.448,12.576 5.11,19.022 0.875,8.519-0.014,17.204 0.181,25.811 0.171,7.543 0.415,15.121 1.31,22.601 1.168,9.763-2.606,14.414-12.335,15.387-13.909,1.392-27.737,3.605-41.648,4.961-7.119,0.694-14.35,0.178-21.523,0.411-7.293,0.238-14.605,0.442-21.859,1.163-14.632,1.455-29.193,3.877-43.852,4.739-16.329,0.961-32.733,0.746-49.104,0.787-4.251,0.011-6.19-3.625-6.557-7.109-1.132-10.754-1.626-21.573-2.586-32.347-0.245-2.757-0.821-5.684-2.061-8.117-4.246-8.328-5.557-17.199-5.046-26.307 0.371-6.617 2.269-13.182 2.293-19.774 0.024-6.531-1.206-13.11-2.331-19.59-0.999-5.754-3.176-11.342-3.794-17.114-0.675-6.3-1.002-12.873 0.059-19.064 1.325-7.731 3.384-15.575 6.631-22.682 5.09-11.139 13.698-18.348 26.737-19.09 4.608-0.262 9.143-1.947 13.746-2.134 4.699-0.19 9.443,0.629 14.16,1.081 1.23,0.118 2.988,1.173 3.561,0.687 5.5-4.667 9.844-0.284 13.003,2.609 7.045,6.452 9.184,15.592 11.467,24.956-2.355,0.345-3.915,0.573-6.437,0.942 0.542,4.122 0.281,8.564 1.863,12.206 1.36,3.13 4.466,5.876 7.423,7.869 9.99,6.733 10.262,9.608 0.863,17.094-1.292,1.03-2.598,2.042-4.192,3.292zm-14.274,63.871c0.492-0.413 0.984-0.826 1.476-1.239-2.71-2.632-5.419-5.263-8.753-8.501-0.312,6.287 2.663,8.696 7.277,9.74zm8.671-5.799c-0.772,0.187-1.544,0.373-2.317,0.56 1.325,3.28-2.278,7.976 4.849,9.646-0.844-3.402-1.688-6.804-2.532-10.206z"/>
  </g>
</svg>
