<?xml version="1.0" encoding="iso-8859-1"?>
<!-- Generator: Adobe Illustrator 16.0.0, SVG Export Plug-In . SVG Version: 6.00 Build 0)  -->
<!DOCTYPE svg PUBLIC "-//W3C//DTD SVG 1.1//EN" "http://www.w3.org/Graphics/SVG/1.1/DTD/svg11.dtd">
<svg version="1.1" id="Capa_1" xmlns="http://www.w3.org/2000/svg" xmlns:xlink="http://www.w3.org/1999/xlink" x="0px" y="0px"
	 width="191.711px" height="191.711px" viewBox="0 0 191.711 191.711" style="enable-background:new 0 0 191.711 191.711;"
	 xml:space="preserve">
<g>
	<path d="M183.437,44.144c0.515-13.523-0.111-27.46-2.455-40.805c-0.324-1.852-2.521-3.477-4.373-3.33
		c-15.371,1.216-30.744,1.347-46.156,1.352c-2.877,0.001-5.264,2.911-4.379,5.749c4.525,14.524,2.354,27.786-15.46,24.377
		c-9.892-1.893-26.232-11.45-16.602-22.657c1.556-1.811-0.476-4.973-2.69-3.486c-0.399,0.268-0.684,0.548-1.05,0.819
		c-0.158-0.501-0.379-0.991-0.779-1.384C85.399,0.753,78.628,1.232,73.24,1.058C65.166,0.798,57.074,1.321,49,1.394
		c-3.166,0.029-4.812,2.839-4.347,5.706c1.302,8.027,2.495,16.148,4.061,24.177c-0.101,0.488,0.015,0.994,0.291,1.407
		c1.103,5.466,2.355,10.894,4.075,16.181c-18.183-7.101-42.296,4.321-44.822,24.798c-1.471,11.925,7.979,22.073,18.37,25.772
		c4.845,1.725,17.705,4.429,23.637,0.535c-1.81,13.414-3.95,26.762-4.349,40.326c-0.076,2.588,2.089,4.223,4.441,4.441
		c6.924,0.645,13.786,0.09,20.702-0.407c4.059-0.291,8.968,0.388,13.453,0.272c-0.997,1.935-1.708,3.983-1.918,5.154
		c-2.038,11.368-0.537,25.95,8.026,34.44c10.52,10.431,26.547,9.394,37.393,0.626c8.066-6.52,13.575-21.459,10.199-32.305
		c14.692,2.363,37.993,5.461,42.387-8.051c2.83-8.699,1.271-19.725,0.869-28.674c-0.133-2.922,0.307-10.049-2.05-12.945
		c0.39-2.174-2.196-4.592-4.257-3.039c-5.999,4.522-12.953,10.91-20.768,6.598c-0.734-0.405-1.416-0.885-2.066-1.404
		c-0.068-1.58-1.424-2.99-2.921-3.043c-3.068-3.96-4.878-9.17-5.834-13.74c-1.222-5.833-1.167-13.631,3.323-18.078
		c6.414-6.35,18.973,1.234,24.738,4.783c4.256,2.621,8.149-2.779,5.99-6.255c0.139-0.087,0.293-0.138,0.423-0.242
		C184.13,63.489,183.175,51.002,183.437,44.144z M136.19,10.407c4.492-0.016,8.982-0.055,13.474-0.123
		c-4.987,6.72-10.081,13.319-15.278,19.804C136.866,24.62,137.496,17.689,136.19,10.407z M158.493,10.055
		c2.234-0.064,4.469-0.095,6.703-0.188c6.998-0.291,7.252-3.949,8.039,2.984c0.143,1.247,0.234,2.499,0.334,3.751
		c-0.815-0.345-1.74-0.395-2.625,0.156C125.308,45.143,95.92,94.974,55.086,129.773c0.135-3.534,0.26-7.072,0.399-10.604
		c0.585,0.107,1.222,0.008,1.797-0.457C95.948,87.555,130.103,50.783,158.493,10.055z M111.462,42.19
		c0.415-0.293,0.697-0.691,0.904-1.119c6.49,0.943,11.668-0.322,15.588-3.054c-22.344,27.057-46.506,52.24-72.34,76.454
		c0.121-4.414,0.176-8.826-0.03-13.244c0.105-0.067,0.212-0.099,0.315-0.187C76.417,83.502,89.11,57.956,111.462,42.19z
		 M76.874,10.614c2.908,0.328,5.842,0.651,8.625,0.404c-0.73,1.121-1.178,2.257-1.497,3.395c-0.695-0.409-1.549-0.458-2.346,0.154
		c-5.118,3.927-9.289,9.563-13.849,14.165c-3.293,3.323-6.494,6.719-9.6,10.203c-0.514-3.393-0.98-6.791-1.452-10.189
		c2.95-2.493,5.841-5.06,8.704-7.638c2.144-1.93,4.314-3.823,6.561-5.631C73.913,13.954,76.312,13.141,76.874,10.614z
		 M88.781,28.696c-0.213,0.087-0.429,0.136-0.635,0.295c-9.272,7.163-18.662,15.606-27.183,24.871
		c-0.119-0.167-0.172-0.351-0.327-0.507c-0.671-3.48-1.272-6.967-1.831-10.457c3.962-3.769,8.076-7.376,12.213-10.954
		c4.219-3.649,9.428-7.454,12.798-12.099C84.469,22.944,86.277,25.96,88.781,28.696z M69.178,10.13
		c-2.022,1.679-3.849,3.854-5.237,5.211c-2.702,2.642-5.323,5.366-7.94,8.093c-0.599-4.367-1.194-8.737-1.833-13.105
		C59.17,10.245,64.173,10.141,69.178,10.13z M17.676,72.107c1.6-7.91,7.693-12.715,14.881-14.727
		c-1.74,3.236-3.277,6.66-5.044,9.681c-2.94,5.027-5.825,10.009-8.252,15.271C17.651,79.242,16.951,75.69,17.676,72.107z
		 M21.166,85.248c2.987-5.562,6.322-10.895,9.794-16.172c2.629-3.994,5.971-8.172,7.757-12.745c1.801-0.112,3.595-0.014,5.369,0.182
		c-2.334,2.733-4.34,5.612-5.64,7.159C32.795,70.401,25.869,77.93,21.85,85.981C21.625,85.734,21.377,85.507,21.166,85.248z
		 M53.1,93.375c-0.594-1.797-2.619-2.69-4.478-2.405c-2.873,0.441-4.861,1.902-8.014,1.938c-3.939,0.045-7.856-1.002-11.575-2.195
		c-1.494-0.48-2.881-1.19-4.153-2.06c0.7-0.894,1.406-1.783,2.084-2.693c3.45-4.632,7.241-9.009,10.965-13.42
		c4.15-4.915,9.367-9.323,13.859-14.09c1.081,0.455,2.137,0.949,3.099,1.545c0.177,0.109,0.358,0.12,0.537,0.2
		c-7.592,9.071-14.229,18.791-18.891,28.934c-0.986,2.145,1.965,3.978,3.215,1.879C53.046,68.685,71.75,50.061,91.941,33.91
		c0.524-0.42,0.754-0.944,0.861-1.488c0.197,0.157,0.415,0.291,0.616,0.445C74.432,48.094,59.367,68.56,44.678,87.772
		c-1.3,1.7,1.496,3.765,2.924,2.256C64.668,71.993,79.53,52.597,98.767,36.664c0.072-0.059,0.09-0.128,0.153-0.19
		c1.731,0.959,3.481,1.738,5.213,2.415c-7.77,4.139-14.557,14.54-19.2,20.108c-10.01,12.005-19.849,24.188-29.708,36.322
		C55.011,94.023,54.07,93.368,53.1,93.375z M86.406,134.994c-3.15-0.555-6.64-0.236-9.71-0.102
		c20.714-16.318,39.664-35.33,57.408-54.921c-0.152,3.383,0.121,6.794,0.67,9.935c0.383,2.196,0.98,4.432,1.75,6.632
		c-0.539-0.185-1.125-0.248-1.618,0.007c-7.181,3.711-13.325,11.854-19.56,17.11C106.147,121.409,96.261,128.143,86.406,134.994z
		 M92.835,141.629c0.561-1.224,0.509-2.677-0.615-3.826c-0.468-0.478-0.977-0.879-1.513-1.229
		c9.624-5.689,18.789-12.245,27.663-19.002c6.426-4.893,15.798-10.84,19.178-18.465c1.321,3.084,3.04,6.019,5.143,8.58
		c-15.381,15.338-33.918,26.228-51.199,39.223c0.127-0.611,0.267-1.221,0.328-1.844C93.252,144.555,93.627,142.762,92.835,141.629z
		 M129.845,161.262c-3.216,2.746-6.097,6.611-8.902,9.217c-3,2.785-9.033,9.609-13.569,9.273c-1.433-0.105-1.731,2.197-0.338,2.496
		c4.94,1.061,9.791-2.796,13.454-5.604c2.38-1.826,4.65-3.785,6.895-5.776c-0.873,1.758-1.875,3.448-3.076,4.94
		c-6.938,8.625-17.567,8.515-26.259,2.851c-0.727-0.474-1.311-1.083-1.899-1.687c6.215-4.069,12.429-8.127,18.722-12.09
		c4.39-2.765,10.492-5.845,14.185-10.07c0.396,2.021,0.783,4.054,0.812,6.188C129.87,161.09,129.845,161.174,129.845,161.262z
		 M158.675,146.18c2.836-3.725,6.135-7.021,9.567-10.254c1.536-1.445,3.28-2.902,4.989-4.41c0.021,3.567-0.209,7.121-1.024,10.643
		C171.563,144.934,165.778,145.934,158.675,146.18z M164.167,115.236c2.861-0.855,5.596-2.289,8.041-4.146
		c-0.012,4.291,0.389,8.614,0.698,12.936c-3.218,3.104-6.113,6.857-9.068,9.949c-3.625,3.797-6.969,7.795-9.69,12.273
		c-5.002-0.016-10.244-0.273-14.605-0.48c0.094-0.06,0.191-0.09,0.283-0.172c9.928-8.848,21.863-15.158,31.679-23.979
		c2.031-1.826-0.595-5.133-2.886-3.739c-11.01,6.698-22.452,15.843-31.249,25.263c-0.839,0.898-0.513,1.972,0.216,2.535
		c-1.307-0.059-2.535-0.111-3.584-0.139c-1.477-1.167-3.497-0.838-4.746,0.368c-1.408,0.677-1.781,2.185-1.299,3.45
		c-6.236,3.08-11.73,8.883-17.497,12.885c-5.532,3.841-11.249,7.535-16.572,11.693c-1.19-2.187-1.965-4.689-2.427-7.276
		C115.798,151.596,142.815,134.803,164.167,115.236z M146.937,111.794c1.14,0.888,2.32,1.726,3.619,2.388
		c0.912,0.465,1.834,0.836,2.76,1.127c-8.613,6.416-16.844,13.588-25.191,20.033c-12.277,9.481-24.773,18.664-37.12,28.049
		c-0.22-2.24-0.298-4.433-0.314-6.383c-0.013-1.643,0.051-3.295,0.17-4.943C110.022,139.426,130.547,127.971,146.937,111.794z
		 M149.341,59.369c-2.802,0.532-5.502,1.64-7.961,3.665c-1.117,0.92-2.045,1.967-2.874,3.073c-0.817-0.02-1.659,0.294-2.39,1.118
		c-20.512,23.174-41.303,45.271-64.149,66.173c-0.621,0.568-0.742,1.205-0.602,1.781c-5.507,0.351-10.997,0.83-16.512,0.789
		c0.008-0.406,0.036-0.811,0.046-1.218c45.297-30.543,76.762-77.982,119.077-112.384c0.029,0.505,0.063,1.011,0.094,1.516
		c0.197,3.298,0.4,6.694,0.525,10.13c-4.757,3.783-8.662,8.749-12.807,13.171C157.821,51.418,153.653,55.477,149.341,59.369z
		 M171.459,64.499c-1.3-0.695-2.653-1.35-4.032-1.968c1.823-1.059,3.545-2.272,5.094-3.81c0.201-0.2,0.41-0.456,0.613-0.672
		C172.688,60.24,172.163,62.403,171.459,64.499z M174.496,47.227c-1.597,2.435-2.492,5.32-4.188,7.755
		c-1.781,2.556-4.256,4.479-6.979,5.931c-2.286-0.793-4.612-1.424-6.935-1.727c2.602-2.191,5.133-4.466,7.623-6.822
		c3.517-3.329,7.281-6.681,10.67-10.281C174.663,43.8,174.595,45.516,174.496,47.227z"/>
</g>
<g>
</g>
<g>
</g>
<g>
</g>
<g>
</g>
<g>
</g>
<g>
</g>
<g>
</g>
<g>
</g>
<g>
</g>
<g>
</g>
<g>
</g>
<g>
</g>
<g>
</g>
<g>
</g>
<g>
</g>
</svg>
