<?xml version="1.0" encoding="iso-8859-1"?>
<!-- Generator: Adobe Illustrator 16.0.0, SVG Export Plug-In . SVG Version: 6.00 Build 0)  -->
<!DOCTYPE svg PUBLIC "-//W3C//DTD SVG 1.1//EN" "http://www.w3.org/Graphics/SVG/1.1/DTD/svg11.dtd">
<svg version="1.1" id="Capa_1" xmlns="http://www.w3.org/2000/svg" xmlns:xlink="http://www.w3.org/1999/xlink" x="0px" y="0px"
	 width="190.434px" height="190.434px" viewBox="0 0 190.434 190.434" style="enable-background:new 0 0 190.434 190.434;"
	 xml:space="preserve">
<g>
	<g>
		<path d="M141.379,87.465c4.917-17.926,13.507-36.279,10.459-55.157c-2.221-13.756-13.026-31.581-29.314-28.693
			c-12.943,2.295-16.801,23.475-18.777,33.486c-2.613,13.242-4.075,28.038-2.873,41.746c-0.245-0.012-0.48-0.046-0.745-0.007
			c-2.223,0.429-4.466,0.549-6.721,0.528C92.518,57.778,98.586,0.165,70.049,0C33.268-0.21,48.299,59.693,51.452,84.188
			c-28.642,1.609-44.138,26.72-30.339,53.909c7.068,13.927,22.585,21.356,39.272,25.579c-7.228,7.947-8.513,20.104,3.668,25.148
			c10.134,4.196,18.468-0.288,23.101-7.967c1.462,1.247,3.355,2.141,5.885,2.411c4.506,0.483,7.891-2.004,10.224-5.431
			c3.31,8.004,11.048,13.306,20.871,12.265c5.331-0.564,10.089-3.274,12.863-7.914c2.521-4.213,2.612-11.021,0.261-15.762
			c16.036-4.578,29.676-14.273,35.356-31.988C179.566,112.756,166.003,83.112,141.379,87.465z M83.728,168.103
			c-0.003,0-0.006-0.001-0.009-0.001c-0.558,9.055-6.109,17.142-16.036,14.356c-10.093-2.831-5.079-11.727-0.566-17.241
			c5.622,1.138,11.247,1.967,16.647,2.601C83.749,167.913,83.74,168.008,83.728,168.103z M95.399,175.527
			c-3.868,2.347-4.74-1.69-4.631-4.738c0.112-0.726,0.183-1.459,0.241-2.194c3.015,0.285,5.867,0.518,8.573,0.732
			C98.973,171.865,97.849,174.042,95.399,175.527z M131.194,177.97c-1.01,3.244-4.811,4.957-7.904,5.327
			c-8.234,0.984-14.483-4.849-17.048-12.031c0.139-0.507,0.296-1.018,0.399-1.514c7.841,0.268,15.88-0.223,23.585-1.692
			C130.927,171.367,132.327,174.33,131.194,177.97z M149.782,152.784c-14.869,10.593-36.717,9.739-54.035,8.412
			c-17.419-1.335-35.534-4.91-51.345-12.477c-9.801-4.69-16.607-12.356-20.042-22.606c-7.079-21.13,11.638-32.95,28.737-36.262
			c0.903,0.464,2.046,0.318,2.713-0.461c0.082-0.012,0.166-0.031,0.248-0.042c2.746-0.379,2.358-4.185,0.2-5.093
			C55.091,63.939,44.572,3.494,71.188,7.849c20.49,3.353,13.144,60.563,14.85,75.201c0.263,2.254,1.553,3.563,3.816,3.816
			c4.982,0.556,8.321,0.566,12.459-2.26c1.151,0.83,2.889,0.791,3.138-0.995c3.04-21.766,1.856-45.843,12.172-65.861
			c2.785-5.405,6.982-8.483,12.948-5.741c11.029,5.068,14.056,17.721,14.145,28.626c0.139,16.88-7.808,32.696-11.673,48.804
			c-0.729,3.042,1.998,4.934,4.358,4.672c0.863,1.14,2.264,1.865,4.06,1.439c17.643-4.195,22.799,11.561,24.324,24.431
			C167.389,133.527,160.521,145.134,149.782,152.784z"/>
		<path d="M78.659,48.317c-0.802-8.035-1.17-24.085-9.669-28.425c-6.701-3.422-10.263,3.88-11.88,10.333
			c-0.57,0.4-0.699,1.114-0.39,1.704c-0.4,1.946-0.629,3.717-0.702,4.934c-0.98,16.37,3.286,34.622,7.602,50.321
			c0.5,1.819,3.167,1.4,3.225-0.436c0.001-0.047-0.003-0.094-0.001-0.141c0.186,0.363,0.449,0.702,0.859,0.957
			c3.213,2,7.067,1.157,10.559,0.607c1.187-0.187,2.029-1.537,2.022-2.656C80.209,73.086,79.895,60.692,78.659,48.317z M71.1,34.542
			c-1.405,0.069-2.849,0.494-4.164,0.751c-1.354,0.265-2.709,0.524-4.068,0.76c-0.452,0.079-0.904,0.156-1.355,0.235
			c0.07-1.131,0.26-2.248,0.409-3.37c3.016,0.228,6.01,0.552,9.034,1.083c0.002,0,0.004,0,0.006,0
			C71.004,34.183,71.054,34.361,71.1,34.542z M69.979,30.62c-2.499-0.548-5.032-0.749-7.585-0.763
			C64.125,22.785,68.072,25.832,69.979,30.62z M61.414,39.192c0.518-0.016,1.029-0.064,1.45-0.096
			c2.78-0.212,6.515-0.424,9.062-1.105c0.326,1.649,0.619,3.311,0.851,4.99c-1.634-0.134-3.502,0.228-4.981,0.287
			c-2.098,0.083-4.199,0.109-6.3,0.148C61.421,42.008,61.402,40.6,61.414,39.192z M61.702,46.267
			c2.031,0.047,4.062,0.095,6.094,0.142c1.637,0.038,3.682,0.451,5.418,0.195c0.05,0.471,0.112,0.94,0.157,1.412
			c-2.036-0.155-4.135,0.102-6.161,0.178c-1.718,0.065-3.549,0.025-5.339,0.136C61.8,47.646,61.759,46.955,61.702,46.267z
			 M63.162,57.903c-0.376-2.246-0.714-4.474-0.984-6.677c1.692,0.087,3.413,0.056,5.032,0.117c2.129,0.081,4.339,0.35,6.473,0.141
			c0.13,1.815,0.245,3.631,0.333,5.439c-1.955-0.45-3.896-0.009-5.859,0.263C66.489,57.417,64.818,57.626,63.162,57.903z
			 M63.73,61.158c1.473-0.032,2.96-0.216,4.4-0.321c2.05-0.149,4.126-0.149,6.019-0.979c0.066,1.561,0.129,3.115,0.195,4.652
			c-0.597-0.221-1.326-0.089-1.762,0.554c0.417-0.615,1.05-0.629-0.075-0.433c-0.4,0.07-0.784,0.176-1.177,0.279
			c-1.131,0.297-2.365,0.339-3.525,0.447c-1.095,0.102-2.194,0.161-3.293,0.21C64.247,64.091,63.99,62.625,63.73,61.158z
			 M65.02,68.443c1.74,0.023,3.48,0.022,5.217-0.038c1.153-0.04,3.091-0.098,4.197-0.909c0.014,0.643,0.032,1.286,0.051,1.929
			c-0.056,0.018-0.112-0.004-0.168,0.02c-1.475,0.649-2.699,1.42-4.338,1.635c-1.525,0.201-3.058-0.004-4.553-0.338
			C65.3,69.975,65.151,69.211,65.02,68.443z M65.881,73.992c2.869,0.609,6.357,0.712,8.703-0.781
			c0.024,1.212,0.075,2.423,0.095,3.635c-0.112,0.022-0.23-0.011-0.337,0.039c-2.425,1.135-5.186,1.771-7.88,1.57
			C66.318,76.971,66.089,75.48,65.881,73.992z M68.9,83.142c-1.008,0.039-1.72,0.629-2.075,1.379
			c-0.01-1.127-0.074-2.261-0.144-3.396c1.544,0.12,3.104,0.043,4.663-0.14c1.181-0.139,2.382-0.352,3.407-0.875
			C74.816,85.892,74.489,82.922,68.9,83.142z"/>
		<path d="M138.974,36.396c-0.575-0.542-1.229-0.882-1.909-1.166c-1.065-3.826-2.964-7.011-6.013-9.016
			c-18.411-12.11-19.846,50.229-19.305,58.067c0.093,1.351,1.386,1.699,2.262,1.203c3.682,1.998,7.995-0.612,11.951-5.684
			c0.885,0.058,1.748,0.037,2.504-0.24c1.46-0.535,1.377-2.323,0-2.884c-0.083-0.034-0.179-0.042-0.264-0.072
			c1.146-1.803,2.238-3.8,3.254-5.925c0.144-0.132,0.312-0.244,0.397-0.418c0.157-0.325,0.16-0.579,0.167-0.836
			c1.041-2.295,1.973-4.731,2.795-7.225c0.8-0.455,1.012-1.392,0.669-2.099c2.151-7.247,3.132-14.828,2.295-21.207
			c0.182-0.023,0.361,0.018,0.543-0.026C139.392,38.615,139.769,37.146,138.974,36.396z M115.071,80.656
			c0.092-1.272,0.182-2.587,0.271-3.893c1.632,0.695,3.297,1.305,5.01,1.799C118.79,79.771,117.043,80.55,115.071,80.656z
			 M123.008,75.889c-0.335-0.033-0.676-0.058-0.993-0.115c-2.211-0.394-4.37-1.066-6.47-1.874c0.089-1.266,0.188-2.55,0.286-3.833
			c0.237,0.037,0.493,0.092,0.697,0.12c1.889,0.258,3.781,0.444,5.68,0.609c0.741,0.065,2.138,0.332,3.648,0.516
			C125.014,72.975,124.073,74.541,123.008,75.889z M127.593,67.404c-1.463-0.057-2.859,0.021-3.429-0.003
			c-2.028-0.081-4.054-0.201-6.082-0.277c-0.33-0.012-0.659-0.032-0.989-0.048c-0.051-0.007-0.067-0.052-0.121-0.054
			c-0.239-0.007-0.553-0.032-0.884-0.052c0.258-2.981,0.565-5.982,0.961-8.96c0.112,0.135,0.257,0.26,0.449,0.361
			c3.278,1.718,7.54,3.914,11.668,4.461C128.701,64.337,128.195,65.872,127.593,67.404z M131.149,55.337
			c-0.247,1.114-0.573,2.446-0.939,3.85c-3.91-0.368-7.435-1.452-11.299-3.23c-0.607-0.28-1.188-0.124-1.588,0.223
			c0.164-1.12,0.381-2.219,0.575-3.327c0.105,0.017,0.189,0.064,0.307,0.066c2.261,0.033,4.521,0.078,6.778,0.221
			c2.135,0.136,4.345,0.875,6.478,0.765C131.357,54.387,131.252,54.872,131.149,55.337z M132.142,50.545
			c-3.638-2.22-9.439-1.573-13.521-1.475c0.283-1.319,0.597-2.622,0.938-3.91c3.095,0.162,6.202,0.48,9.26,0.928
			c1.126,0.165,2.576,0.539,3.908,0.532C132.573,47.94,132.38,49.255,132.142,50.545z M128.439,42.68
			c-2.677-0.152-5.341-0.368-8.017-0.458c0.952-3.066,2.087-6.014,3.52-8.752c2.23,1.152,4.458,2.307,6.751,3.336
			c0.586,0.263,1.185,0.559,1.791,0.846c0.355,1.688,0.507,3.44,0.48,5.228C131.451,42.608,129.683,42.75,128.439,42.68z"/>
		<g>
			<path d="M113.102,141.906c-3.233,4.462-5.526,10.909-10.9,5.031c-3.171-3.469-5.266-8.48-6.306-13.309
				c0.228-0.114,0.47-0.174,0.678-0.366c0.589-0.546,0.78-1.259,0.846-2.027c0,0,0.001,0.005,0.002,0.006
				c-0.021,0.597-0.153,0.969-0.245,1.157c0.031-0.053,0.039-0.08,0.109-0.173c0.287-0.384,0.437-0.858,0.532-1.322
				c0.199-0.973,0.414-1.933,0.672-2.893c0.26-0.965,0.558-1.919,0.867-2.868c0.257-0.788,0.676-1.9,0.808-2.179
				c1.066-2.249-0.188-5.084-2.914-5.077l-9.86,0.024c-2.698,0.007-3.964,2.801-2.893,5.042c0.142,0.299,0.286,0.598,0.431,0.896
				l0.521,0.674c0.829,0.628,0.9,0.692,0.214,0.192c0.495,0.93,0.902,1.913,1.37,2.856c0.859,1.73,2.005,3.377,3.402,4.727
				c-0.125,3.605-0.563,7.128-3.509,9.701c-2.148,1.876-5.756,1.959-8.197,1.474c-3.037-0.604-5.448-1.981-6.551-4.153
				c-0.212-0.418-0.223-1.317,0.229-2.583c0.627-1.753,2.716-3.728,3.88-5.41c1.368-1.978-0.912-5.064-3.212-4.18
				c-5.538,2.13-9.798,8.013-8.167,14.076c1.362,5.064,6.617,8.216,11.421,9.293c5.319,1.192,10.945,0.243,15.093-3.4
				c1.048-0.922,1.821-2.016,2.449-3.187c1.376,3.773,3.449,7.225,6.421,9.719c7.639,6.409,16.41-1.56,18.395-9.388
				C119.581,140.731,115.073,139.185,113.102,141.906z"/>
			<path d="M97.176,132.399C97.088,132.55,97.098,132.562,97.176,132.399L97.176,132.399z"/>
		</g>
		<path d="M124.474,104.462c-3.155-0.815-6.79,0.176-8.946,2.652c-2.991,3.436-2.979,8.13-2.312,12.378
			c0.479,3.054,4.991,2.098,5.142-0.696c0.111-2.101,0.315-4.835,1.784-6.486c0.907-1.021,1.478-1,2.753-0.655
			c1.194,0.323,2.479,1.546,3.326,2.979c1.09,1.848,1.215,4.153,0.822,6.22c-0.901,4.756,6.392,6.774,7.27,2.004
			C135.699,115.319,132.569,106.554,124.474,104.462z"/>
		<path d="M65.828,98.986c-8.356,2.212-8.126,12.22-4.774,18.329c1.111,2.026,3.991,0.588,3.565-1.503
			c-0.498-2.442-0.698-5.022,0.105-7.417c0.502-1.495,1.646-2.355,2.583-2.666c1.071-0.354,2.104-0.188,2.94,0.492
			c1.701,1.382,1.972,3.408,2.567,5.48c1.104,3.84,6.963,3.093,6.96-0.942C79.771,103.502,73.184,97.041,65.828,98.986z"/>
	</g>
</g>
<g>
</g>
<g>
</g>
<g>
</g>
<g>
</g>
<g>
</g>
<g>
</g>
<g>
</g>
<g>
</g>
<g>
</g>
<g>
</g>
<g>
</g>
<g>
</g>
<g>
</g>
<g>
</g>
<g>
</g>
</svg>
