<?xml version="1.0" encoding="iso-8859-1"?>
<!-- Generator: Adobe Illustrator 16.0.0, SVG Export Plug-In . SVG Version: 6.00 Build 0)  -->
<!DOCTYPE svg PUBLIC "-//W3C//DTD SVG 1.1//EN" "http://www.w3.org/Graphics/SVG/1.1/DTD/svg11.dtd">
<svg version="1.1" id="Capa_1" xmlns="http://www.w3.org/2000/svg" xmlns:xlink="http://www.w3.org/1999/xlink" x="0px" y="0px"
	 width="189.013px" height="189.012px" viewBox="0 0 189.013 189.012" style="enable-background:new 0 0 189.013 189.012;"
	 xml:space="preserve">
<g>
	<g>
		<path d="M176.006,106.533c-14.55-18.434-38.282-10.405-53.178,2.516c-0.306,0.266-0.464,0.557-0.648,0.844
			c-0.226-0.283-0.442-0.57-0.827-0.816c-1.609-1.028-2.913-3.047-4.151-4.477c-1.307-1.508-2.629-2.992-4.073-4.369
			c-0.504-0.48-1.054-0.658-1.582-0.66c7.215-9.854,8.59-21.736-5.889-27.333c7.16-16.181,5.022-34.959-9.146-51.444
			C80.728,2.43,43.928-11.125,27.45,12.933C1.871,21.439-0.94,54.702,7.376,77.065c4.4,11.83,11.551,20.104,20.195,25.122
			c0.251,0.899,1.235,1.633,2.16,1.19c12.933,6.512,28.851,6.086,44.054-0.746c-0.103,0.429-0.137,0.896-0.02,1.424
			c4.116,18.558,24.282,11.054,35.496-1.677c0.079,0.393,0.229,0.786,0.561,1.156c2.589,2.89,5.464,6.283,7.45,9.621
			c1.382,2.318,3.76,1.57,4.893,0.02c1.104,1.811,3.752,2.887,5.866,1.079c12.918-11.049,29.839-16.49,42.625-2.373
			c10.712,11.827,9.032,30.532,2.004,43.55c-8.29,15.352-26.823,25.745-44.01,26c-10.04,0.149-17.941-5.544-22.862-13.902
			c-8.307-14.109,1.474-30.647,7.814-43.469c0.271-0.548,0.296-1.062,0.222-1.542c0.352-0.577,0.476-1.282,0.169-2.073
			c-1.454-3.752-6.366-5.36-8.461-8.818c-1.895-3.126-6.49-0.383-4.862,2.842c1.068,2.115,2.87,3.913,4.55,5.549
			c0.901,0.876,2.027,2.119,3.241,2.996c-8.004,12.943-14.727,25.434-11.427,41.174c2.2,10.498,11.146,18.538,20.615,22.385
			c21.718,8.819,47.971-7.83,60.014-24.938C189.249,145.177,188.311,122.122,176.006,106.533z M89.083,24.257
			C104.907,39.5,105.21,56.884,96.83,71.625c0.263-24.841-21.393-42.089-45.349-49.276c-0.023-0.939-0.802-1.64-1.799-1.43
			c-0.462,0.097-0.877,0.305-1.273,0.548c-5.407-1.417-10.884-2.347-16.218-2.708C48.613,0.099,73.186,8.945,89.083,24.257z
			 M88.873,82.259c-1.474,1.558-3.011,3.081-4.672,4.52c-0.4-2.057-0.972-4.098-1.617-6.127c0.957-0.905,1.914-1.816,2.814-2.753
			c0.97-1.009,2.034-2.095,3.063-3.224C88.648,77.161,88.792,79.681,88.873,82.259z M54.576,36.691
			c1.473-1.696,3.649-3.008,4.838-4.906c1.924,0.854,3.824,1.812,5.708,2.84c-0.347,0.05-0.694,0.151-0.985,0.38
			c-1.9,1.493-3.17,3.888-4.788,5.699c-0.704,0.788-1.475,1.512-2.244,2.237c-1.491-1.284-2.994-2.542-4.526-3.679
			C53.244,38.407,53.862,37.512,54.576,36.691z M52.061,34.177c-0.783,0.966-1.489,1.987-2.178,3.021
			c-1.458-1.111-3.37-2.553-5.582-4.134c0.134-0.148,0.255-0.317,0.34-0.53c0.737-1.848,1.809-3.433,3.07-4.938
			c2.743,0.766,5.436,1.702,8.106,2.732C54.341,31.336,53.103,32.891,52.061,34.177z M62.057,43.414
			c1.958-1.826,4.327-4.021,5.125-6.635c0.114-0.375,0.044-0.673-0.034-0.963c0.774,0.457,1.559,0.87,2.325,1.365
			c1.718,1.108,3.246,2.286,4.669,3.501c-2.588,0.866-4.756,3.359-6.672,5.172c-1.24,1.173-2.352,2.464-3.527,3.697
			c-1.356-1.447-2.746-2.844-4.168-4.177C60.542,44.732,61.318,44.1,62.057,43.414z M69.342,49.116
			c2.251-1.957,5.604-3.702,7.057-6.348c1.351,1.354,2.542,2.766,3.612,4.226c-2.336,1.747-4.339,4.064-6.492,5.994
			c-1.271,1.14-2.596,2.22-3.899,3.326c-1.138-1.473-2.307-2.918-3.523-4.311C67.174,51.035,68.25,50.066,69.342,49.116z
			 M75.589,55.671c2.171-1.657,4.615-3.344,6.487-5.424c0.796,1.371,1.471,2.793,2.089,4.238c-2.719,1.455-4.423,4.934-6.262,7.344
			c-0.807,1.057-1.56,2.151-2.359,3.213c-1.305-2.182-2.702-4.319-4.196-6.387C72.761,57.66,74.211,56.722,75.589,55.671z
			 M85.598,58.331c1.034,3.22,1.701,6.611,2.191,10.102c-1.866,2.082-3.324,4.693-5.009,6.847c-0.46,0.589-0.982,1.105-1.469,1.661
			c-1.206-3.111-2.652-6.173-4.286-9.16c1.195-1.287,2.349-2.61,3.564-3.88C82.185,62.231,84.347,60.438,85.598,58.331z
			 M25.817,23.563c6.228,0.711,12.3,1.667,18.217,3.087c-0.938,1.448-1.73,2.968-2.306,4.615c-6.07-4.16-13.024-8.229-16.053-7.293
			C25.719,23.836,25.774,23.7,25.817,23.563z M19.688,26.379c-1.597,4.859-2.192,9.779-2.063,14.673
			c-2.648,2.394-4.976,5.348-6.977,8.496C11.282,41.158,14.125,33.044,19.688,26.379z M10.594,56.053
			c2.243-3.416,4.877-6.476,7.482-9.603c0.377,2.66,0.982,5.3,1.772,7.908c-1.525,1.603-2.862,3.49-4.18,5.093
			c-1.297,1.579-2.6,3.146-3.927,4.693C11.164,61.473,10.75,58.768,10.594,56.053z M12.454,67.021
			c1.475-1.537,2.976-3.049,4.433-4.605c1.283-1.371,2.841-2.74,4.286-4.186c0.525,1.382,1.187,2.73,1.814,4.087
			c-1.402,1.589-2.672,3.333-3.916,4.9c-1.558,1.962-2.996,4.016-4.457,6.054C13.781,71.231,13.038,69.15,12.454,67.021z
			 M15.97,76.309c1.794-2.266,3.589-4.532,5.45-6.744c1.028-1.221,2.2-2.401,3.353-3.599c1.131,2.115,2.406,4.174,3.75,6.201
			c-0.972,1.038-1.928,2.077-2.877,3.019c-2.227,2.21-4.458,4.566-6.24,7.18C18.136,80.436,16.983,78.412,15.97,76.309z
			 M20.421,83.824c2.278-2.361,4.507-4.702,6.983-6.878c0.882-0.775,1.853-1.541,2.831-2.315c1.505,2.103,3.181,4.099,4.875,6.076
			c-1.537,1.068-2.903,2.737-4.107,3.861c-1.842,1.719-3.622,3.505-5.418,5.274C23.729,87.982,21.969,86.006,20.421,83.824z
			 M27.507,91.738c1.912-1.647,3.809-3.311,5.763-4.907c1.209-0.988,3.002-2.089,4.221-3.436c1.517,1.638,3.093,3.218,4.709,4.743
			c-1.851,1.363-3.524,3.104-5.135,4.571c-1.22,1.111-2.438,2.225-3.661,3.332C31.326,94.791,29.345,93.365,27.507,91.738z
			 M43.697,100.148c-2.371-0.556-4.683-1.266-6.857-2.279c0.668-0.549,1.374-1.047,2.037-1.603c2.037-1.704,4.569-3.327,6.552-5.278
			c1.387,1.198,2.829,2.288,4.261,3.398c-0.685,0.836-1.34,1.712-2.1,2.467C46.385,98.053,45.054,99.119,43.697,100.148z
			 M47.815,100.892c0.504-0.357,1.028-0.685,1.514-1.068c1.138-0.894,2.442-1.912,3.482-3.086c1.85,1.312,3.715,2.588,5.619,3.707
			C54.739,101.169,51.204,101.254,47.815,100.892z M72.649,95.007c-1.851,1.059-3.673,1.925-5.481,2.699
			c-0.034-0.018-0.047-0.047-0.082-0.064c-12.2-5.979-23.9-15.77-32.111-27.505c0.288-0.365,0.62-0.706,0.86-1.097
			c0.681-1.104-0.664-2.421-1.762-1.762c-0.237,0.142-0.452,0.341-0.683,0.499c-1.59-2.466-3.079-4.982-4.324-7.589
			c0.059-0.561-0.193-1.039-0.646-1.322c-4.659-10.368-6.359-21.669-3.365-32.965c1.581,0.996,4.194,4.133,5.681,5.137
			c6.044,4.078,11.964,8.349,17.635,12.934c1.585,1.281,3.016,2.618,4.43,3.961c0.204,0.459,0.619,0.852,1.114,0.996
			c4.153,4.104,7.565,8.499,10.585,13.113c0.019,0.026,0.03,0.049,0.05,0.074c4.248,6.502,7.673,13.471,11.047,20.81
			C74.89,83.782,75.58,84.941,76.543,85c0.868,1.906,1.732,3.814,2.615,5.767C77.072,92.265,74.922,93.707,72.649,95.007z
			 M79.41,102.5c-0.319-0.972-0.947-1.546-1.667-1.833c0.714-0.377,1.436-0.705,2.144-1.11c9.984-5.709,17.678-13.158,22.768-21.531
			c0.281,0.223,0.564,0.447,0.948,0.59C124.005,86.274,86.208,123.217,79.41,102.5z"/>
		<path d="M146.883,116.847c-1.353,0.208-2.14,1.354-2.327,2.612c-12.478-0.54-22.792,13.755-26.072,24.293
			c-4.836,15.537,6.468,26.634,21.385,27.87C169.788,174.101,176.432,112.316,146.883,116.847z M158.408,143.432
			c-1.284,8.882-7.135,19.642-16.966,20.709c-12.641,1.374-18.693-9.204-15.355-20.017c3.099-10.043,11.616-17.014,20.997-20.812
			c3.802,1.676,7.125,2.402,9.578,6.383C159.089,133.632,159.044,139.023,158.408,143.432z"/>
	</g>
</g>
<g>
</g>
<g>
</g>
<g>
</g>
<g>
</g>
<g>
</g>
<g>
</g>
<g>
</g>
<g>
</g>
<g>
</g>
<g>
</g>
<g>
</g>
<g>
</g>
<g>
</g>
<g>
</g>
<g>
</g>
</svg>
