<?xml version="1.0" encoding="iso-8859-1"?>
<!-- Generator: Adobe Illustrator 16.0.0, SVG Export Plug-In . SVG Version: 6.00 Build 0)  -->
<!DOCTYPE svg PUBLIC "-//W3C//DTD SVG 1.1//EN" "http://www.w3.org/Graphics/SVG/1.1/DTD/svg11.dtd">
<svg version="1.1" id="Capa_1" xmlns="http://www.w3.org/2000/svg" xmlns:xlink="http://www.w3.org/1999/xlink" x="0px" y="0px"
	 width="192.971px" height="192.971px" viewBox="0 0 192.971 192.971" style="enable-background:new 0 0 192.971 192.971;"
	 xml:space="preserve">
<g>
	<g>
		<path d="M188.74,57.352c0.133-22.216-10.897-44.209-37.158-53.295C86.743-18.376,70.48,57.9,88.579,94.005
			c-4.024,1.258-7.887,6.464-10.54,9c-4.819,4.605-9.941,8.664-15.099,12.812c-18.099-4.993-40.554-2.405-52.952,12.819
			c-14.113,17.332-0.539,43.673,14.458,55.365c15.105,11.774,36.655,11.652,52.424,1.412c17.962-11.663,18.463-33.233,8.943-50.497
			c-0.266-0.482-0.603-0.816-0.951-1.117c0.807-0.64,1.557-1.439,2.369-2.226c2.802-2.71,5.711-5.317,8.575-7.963
			c2.904-2.682,5.856-5.312,8.75-8.005c1.407-1.308,2.999-2.579,3.988-4.191c1.893,0.389,3.861,0.591,5.938,0.502
			c42.218,19.244,72.647-16.162,74.152-52.176C188.967,58.956,189.015,58.108,188.74,57.352z M148.562,93.875
			c-0.096-0.015-0.187-0.049-0.281-0.065c5.373-6.615,10.562-13.378,15.904-20.019c3.162-3.933,7.777-8.067,11.296-12.434
			c0.85,0.305,1.697,0.562,2.542,0.772c-2.6,3.072-4.839,6.646-6.904,9.561c-5.118,7.22-9.67,14.828-14.661,22.136
			C153.959,94.152,151.415,94.335,148.562,93.875z M96.475,43.84c1.116-0.959,2.229-1.921,3.37-2.854
			c3.272-2.675,6.633-5.248,9.945-7.873c5.718-4.529,13.229-9.677,16.489-16.402c1.565,1.867,3.221,3.663,4.819,5.506
			c-12.836,8.546-22.951,20.61-35.737,29.297c-0.461,0.314-0.705,0.729-0.788,1.159c-0.845-1.651-1.619-3.327-2.265-5.038
			c0.185,0.008,0.374-0.008,0.564-0.076c1.347-0.483,2.268-1.48,3.643-1.986C97.479,45.22,97.273,44.07,96.475,43.84z
			 M97.168,54.604c13.669-7.825,24.401-19.666,37.731-28.046c0.055,0.062,0.112,0.121,0.169,0.183
			c-5.341,2.987-9.641,8.456-13.656,12.819c-6.873,7.469-13.452,15.22-21.48,21.5c-1.504-2.032-2.928-4.109-4.158-6.269
			C96.184,54.924,96.665,54.892,97.168,54.604z M119.856,48.269c3.377-3.379,6.726-6.779,10.195-10.063
			c2.773-2.623,6.034-4.755,8.718-7.438c1.627,1.77,3.356,3.447,5.018,5.185c-2.627,0.815-4.932,3.551-6.917,5.146
			c-4.606,3.701-9.261,7.337-13.803,11.117c-3.699,3.078-15.611,11.421-15.305,17.826c-2.001-1.988-3.933-4.049-5.712-6.224
			C108.539,59.26,114.253,53.875,119.856,48.269z M116.646,64.031c4.166-4.033,8.846-7.583,13.437-11.11
			c4.021-3.091,8.117-6.082,12.146-9.164c1.763-1.35,3.8-2.637,4.584-4.68c0.72,0.727,1.427,1.467,2.134,2.206
			c-5.776,3.381-10.245,10.033-14.25,14.996c-5.965,7.394-11.775,14.608-18.894,20.792c-2.111-1.689-4.208-3.439-6.216-5.326
			C112.219,69.58,114.141,66.455,116.646,64.031z M134.596,62.891c3.096-3.542,6.177-7.084,9.418-10.492
			c2.623-2.759,5.747-5.015,8.332-7.762c1.067,1.026,2.269,2.155,3.524,3.314c-4.891,3.533-9.372,9.961-12.318,13.327
			c-6.308,7.207-12.408,14.836-17.52,22.997c-0.613-0.379-1.229-0.757-1.832-1.138c-1.99-1.258-3.97-2.712-5.94-4.188
			C124.38,74.378,129.587,68.624,134.596,62.891z M145.458,66.142c4.604-5.021,10.206-9.34,15.007-14.156
			c0.771,0.645,1.56,1.285,2.361,1.914c-3.848,4.052-7.084,9.622-10.004,13.48c-5.598,7.391-11.096,14.913-16.276,22.61
			c-2.753-1.268-5.447-2.686-8.043-4.224C133.82,78.961,139.646,72.48,145.458,66.142z M155.069,71.999
			c3.696-4.597,9.037-9.36,12.8-14.479c0.562,0.363,1.136,0.675,1.705,1.011c-2.817,3.48-5.282,7.573-7.502,10.554
			c-5.881,7.899-11.615,15.915-17.386,23.896c-1.736-0.482-3.453-1.043-5.139-1.709C144.815,84.926,149.903,78.421,155.069,71.999z
			 M149.377,12.055c21.515,5.923,31.168,23.326,31.858,41.796c-1.092-0.396-2.132-0.856-3.181-1.305
			c-0.131-0.047-0.23-0.133-0.374-0.154c-11.008-4.806-19.729-12.434-28.951-21.222c-6.124-5.835-13.895-16.589-22.508-20.757
			C133.415,9.353,141.237,9.814,149.377,12.055z M112.923,14.613c-4.294,3.201-8.77,6.453-12.901,10.013
			C103.648,20.417,107.996,17.054,112.923,14.613z M93.58,34.639c7.507-7.714,16.958-12.305,25.115-19.297
			c1.007-0.863,0.63-2.241-0.207-3.009c1.053-0.349,2.083-0.744,3.174-1.018c0.498,0.618,1.048,1.197,1.55,1.812
			c-0.243,0.105-0.487,0.228-0.72,0.418c-5.285,4.312-9.688,9.862-14.942,14.331c-5.81,4.94-11.893,9.569-17.075,15.196
			c-0.021,0.023-0.033,0.054-0.053,0.078C91.219,40.1,92.33,37.306,93.58,34.639z M100.254,109.358
			c-2.541,2.41-5.056,4.846-7.565,7.289c-4.402,4.285-9.899,8.736-13.115,14.039c-0.568,0.937-0.523,2.116,0,3.055
			c0.064,0.116,0.13,0.165,0.195,0.264c-1.383,1.143-2.147,3.022-1.026,5.045c19.087,34.429-23.194,59.021-50.808,37.477
			c-14.233-11.104-22.943-35.79-6.032-48.114c10.774-7.852,26.436-8.551,39.675-7.755c0.483,0.343,1.073,0.497,1.697,0.24
			c0.077-0.032,0.147-0.079,0.223-0.111c0.661,0.048,1.35,0.081,1.996,0.135c1.415,0.116,2.075-1.005,2.011-2.132
			c4.425-2.534,8.482-5.865,12.447-8.961c3.317-2.589,9.283-5.982,12.013-10.065c2.592,3.67,5.664,6.643,9.165,8.75
			C100.839,108.796,100.549,109.078,100.254,109.358z M116.45,104.185c-1.579-0.744-3.066-0.392-4.184,0.43
			C92.496,96.757,87.04,74.488,88.658,53.488c0.054-0.703,0.182-1.356,0.258-2.045c5.152,17.011,20.585,30.378,34.932,39.644
			c7.964,5.143,24.689,13.209,36.254,10.382C148.924,109.788,133.914,112.418,116.45,104.185z M168.178,93.672
			c-0.468-0.652-1.184-1.141-1.976-1.104c-1.636,0.076-3.181,0.277-4.694,0.511c3.811-4.977,7.479-10.062,11.192-15.111
			c2.021-2.75,4.411-5.333,6.794-7.916C177.453,78.752,173.641,87.013,168.178,93.672z"/>
		<path d="M39.341,130.646c-2.056,0.815-2.744,2.718-2.424,4.368c-1.042,0.576-2.05,1.409-3.034,2.647
			c-3.261,4.104-4.101,9.916-3.257,14.987c2.218,13.316,12.832,20.667,26.001,18.158C84.351,165.523,64.964,120.492,39.341,130.646z
			 M56.992,162.896c-18.023,7.595-24.692-19.294-15.149-25.268c7.705-1.687,14.081,0.925,18.33,7.758
			C63.728,151.101,64.157,159.877,56.992,162.896z"/>
	</g>
</g>
<g>
</g>
<g>
</g>
<g>
</g>
<g>
</g>
<g>
</g>
<g>
</g>
<g>
</g>
<g>
</g>
<g>
</g>
<g>
</g>
<g>
</g>
<g>
</g>
<g>
</g>
<g>
</g>
<g>
</g>
</svg>
