<?xml version="1.0" encoding="iso-8859-1"?>
<!-- Generator: Adobe Illustrator 16.0.0, SVG Export Plug-In . SVG Version: 6.00 Build 0)  -->
<!DOCTYPE svg PUBLIC "-//W3C//DTD SVG 1.1//EN" "http://www.w3.org/Graphics/SVG/1.1/DTD/svg11.dtd">
<svg version="1.1" id="Capa_1" xmlns="http://www.w3.org/2000/svg" xmlns:xlink="http://www.w3.org/1999/xlink" x="0px" y="0px"
	 width="189.523px" height="189.523px" viewBox="0 0 189.523 189.523" style="enable-background:new 0 0 189.523 189.523;"
	 xml:space="preserve">
<g>
	<path d="M189.123,78.223c-1.571-8.504-8.793-14.609-16.979-15.866c0.38-0.359,0.769-0.69,1.133-1.093
		c0.167-0.185,0.184-0.4,0.238-0.608c0.343,0.033,0.703,0.025,1.077-0.033c5.215-0.812,8.995-7.546,10.018-12.288
		c1.146-5.303-0.649-10.752-3.614-15.132c-5.951-8.789-17.628-14.534-28.135-11.519c-3.021,0.867-5.479,2.451-7.52,4.412
		c0.058-1.465,0.012-2.961-0.209-4.49c-1.758-12.178-16.455-15.507-26.498-13.112c-5.18,1.235-10.058,4.967-13.054,9.68
		c-1.316-1.727-2.824-3.287-4.584-4.519c-9.76-6.832-24.251-3.195-30.464,6.676c-4.397,6.986-2.712,15.416,2.09,21.383
		c-3.87,2.346-7.256,7.024-9.317,10.908c-0.126,0.238-0.138,0.459-0.216,0.69c-0.652,0.139-1.277,0.527-1.746,1.26
		c-9.222,14.44-10.425,29.882-5.428,43.727c-42.289-12.914-76.348,43.16-41.507,73.993c27.427,24.271,75.484-1.87,75.13-36.345
		c-0.02-1.934-1.062-3.152-2.394-3.759c16.309,8.916,39.245,15.128,50.486-1.466c0.832-1.229,1.438-2.514,1.932-3.817
		c3.69,5.717,9.75,9.807,17.756,9.218c14.525-1.068,26.184-14.3,23.164-28.745c-0.489-2.344-1.378-4.484-2.526-6.439
		C186.376,96.512,190.953,88.124,189.123,78.223z M177.017,44.718c-1.244,1.59-2.322,3.363-3.444,4.943
		c-2.321,3.264-4.637,6.528-6.896,9.834c-0.312,0.456-0.228,0.914-0.019,1.327c-1.636,0.26-3.272,0.222-4.871-0.09
		c3.31-3.912,6.264-8.075,9.077-12.372c1.637-2.5,3.573-5.11,5.29-7.809C176.711,41.882,176.97,43.297,177.017,44.718z
		 M173.325,36.166c-1.785,2.772-3.232,5.885-4.749,8.604c-2.911,5.22-6.028,10.296-9.476,15.176
		c-1.703-0.656-3.337-1.56-4.825-2.706c0.271-0.103,0.537-0.233,0.706-0.519c2.45-4.138,4.662-8.418,7.021-12.609
		c2.192-3.899,5.387-7.771,6.991-11.991C170.65,33.266,172.063,34.676,173.325,36.166z M157.566,28.719
		c1.261-0.126,2.518-0.021,3.763,0.187c-0.256-0.094-0.548-0.115-0.86-0.027c-7.575,2.135-10.484,14.743-11.155,21.391
		c-0.182,1.805,2.525,1.994,3.033,0.41c1.132-3.527,2.166-7.049,3.678-10.44c1.549-3.474,4.349-5.967,6.082-9.231
		c0.438-0.824,0.012-1.807-0.763-2.1c1.508,0.252,2.971,0.763,4.387,1.407c-3.112,3.212-5.082,7.97-7.095,11.83
		c-2.276,4.362-4.408,8.816-6.299,13.359c-2.243-2.208-4.081-4.85-5.129-7.715C144.433,40.208,148.874,29.587,157.566,28.719z
		 M111.424,22.596c1.415-3.063,4.351-5.089,7.429-6.227c6.082-2.248,14.627-1.4,17.983,4.795
		c4.724,8.717-4.643,18.092-12.883,18.377c-5.725,0.198-10.402-2.413-12.846-6.462C110.815,29.495,109.782,26.155,111.424,22.596z
		 M101.608,28.572c0.79,2.733,1.003,5.666,0.786,8.38c-0.444,5.569-3.16,6.35-6.958,6.497
		C97.774,38.76,100.088,33.652,101.608,28.572z M96.231,20.632c0.414,0.277,0.845,0.537,1.207,0.87
		c0.739,0.677,1.279,1.508,1.84,2.321c-3.39,5.774-4.564,13.215-6.338,19.684c-0.212,0.003-0.413,0.004-0.629,0.009
		c-0.74,0.016-1.342,0.238-1.875,0.537c-1.199-0.154-2.362-0.38-3.489-0.625c1.361-4.58,2.879-9.107,4.81-13.484
		C93.146,26.795,94.935,23.813,96.231,20.632z M85.633,30.76c0.75-3.257,2.888-8.293,2.98-12.284
		c1.048-0.003,2.081,0.133,3.093,0.333c-4.391,6.93-7.161,16.173-7.767,24.174c-0.219,0.032-0.44,0.062-0.653,0.131
		c-0.251-0.251-0.504-0.45-0.757-0.672c0.454-0.137,0.804-0.592,0.515-1.168c-0.164-0.327,0.88-3.029,0.979-3.462
		C84.56,35.461,85.093,33.11,85.633,30.76z M78.25,23.431c1.249-1.96,3.196-3.271,5.385-4.079c-0.115,0.708-0.222,1.425-0.358,2.148
		c-0.679,3.593-1.417,7.174-2.076,10.77c-0.539,2.941-1.34,6.501,0.121,9.243c-0.29-0.191-0.579-0.407-0.871-0.545
		C76.167,36.061,74.404,29.463,78.25,23.431z M80.8,135.95c-0.703,26.185-28.743,41.537-52.538,34.141
		c-17.054-5.302-21.354-26.7-17.419-41.833c5.328-20.484,28.866-27.064,47.308-24.74c1.134,2.314,2.481,4.555,3.958,6.742
		c-21.318,2.913-50.39,14.51-37.246,40.274c13.275,26.021,46.975-8.044,50.776-25.093c0.064-0.288,0.034-0.548,0.033-0.816
		c0.473,0.371,0.886,0.781,1.372,1.143c2.757,2.05,6.077,4.197,9.733,6.218C84.252,131.115,80.895,132.439,80.8,135.95z
		 M65.651,114.99c1.795,2.161,3.761,4.232,5.902,6.201c-0.845,0.159-1.648,0.636-2.212,1.596
		c-5.028,8.572-29.33,45.108-38.391,22.912C22.642,125.347,49.872,119.377,65.651,114.99z M130.605,126.62
		c-8.476,15.913-38.244,0.338-47.625-6.066C61.572,105.942,53.91,81.323,65.8,58.131c1.417,0.343,3.022-0.051,4.105-1.648
		c3.274-4.83,6.876-11.426,10.131-3.424c1.765,4.336,2.605,9.107,3.501,13.678c1.431,7.303,1.333,16.239,5.054,22.889
		c5.081,9.083,12.917,13.656,22.476,17.126C120.579,110.205,138.185,112.386,130.605,126.62z M136.008,108.776
		c-0.811-0.884-1.709-1.709-2.711-2.444c-13.611-9.998-35.244-5.513-39.367-26.681c-1.697-8.711-2.101-19.694-5.695-28.534
		c0.636-0.022,1.274-0.049,1.921-0.17c0.112-0.021,0.196-0.075,0.305-0.099c7.938,5.309,16.524-1.18,19.342-8.78
		c3.111,2.657,7.231,4.448,11.962,4.859c6.883,0.598,12.888-1.793,17.132-5.963c-0.281,4.257,0.35,8.592,2.053,12.356
		c2.969,6.564,8.677,11.43,14.914,13.126c-5.474,4.055-8.811,10.543-7.702,17.879c0.331,2.192,1.187,4.103,2.283,5.832
		c-0.997,0.294-1.984,0.637-2.945,1.077c-2.706,1.241-2.258,4.403-0.463,6.055C140.786,98.732,137.22,103.252,136.008,108.776z
		 M152.832,100.801c1.643-0.369,1.794-2.156,0.97-3.223c1.589-0.195,3.135-0.172,4.643-0.023c-0.065,0.045-0.14,0.025-0.203,0.081
		c-6.438,5.706-10.959,14.923-13.789,23.176C141.191,113.445,143.487,102.896,152.832,100.801z M146.242,123.733
		c0.073-0.103,0.195-0.133,0.248-0.265c1.676-4.291,3.871-8.222,6.309-12.118c2.502-4.001,5.856-7.534,8.075-11.682
		c0.362-0.68,0.176-1.282-0.184-1.75c1.273,0.289,2.493,0.714,3.642,1.279c-0.059,0.037-0.123,0.021-0.18,0.067
		c-7.55,6.219-12.343,17.05-16.138,26.302C147.366,125.018,146.767,124.408,146.242,123.733z M156.399,115.666
		c3.052-5.044,7.205-9.531,9.942-14.712c0.072-0.139,0.027-0.252,0.057-0.385c1.112,0.798,2.123,1.767,3.032,2.878
		c-6.129,7.205-9.882,16.966-15.313,24.562c-1.399-0.129-2.719-0.411-3.863-0.976C152.149,123.162,154.164,119.362,156.399,115.666z
		 M157.52,127.934c2.929-3.46,5.57-7.077,8.062-10.898c2.037-3.122,4.231-6.179,6.355-9.27c0.077,0.193,0.178,0.357,0.249,0.556
		C175.683,118.006,166.585,126.496,157.52,127.934z M172.931,95.037c-0.021-0.019-0.042-0.037-0.064-0.056
		c-0.286-0.647-0.856-1.128-1.642-1.247c-3.51-2.44-7.65-3.963-11.918-4.378c-1.558-1.582-2.773-3.568-3.466-5.999
		c-2.327-8.166,7.381-13.457,14.169-13.48c5.957-0.02,10.236,5.091,11.609,10.414C183.417,87.258,178.575,92.162,172.931,95.037z"/>
</g>
<g>
</g>
<g>
</g>
<g>
</g>
<g>
</g>
<g>
</g>
<g>
</g>
<g>
</g>
<g>
</g>
<g>
</g>
<g>
</g>
<g>
</g>
<g>
</g>
<g>
</g>
<g>
</g>
<g>
</g>
</svg>
