<?xml version="1.0" encoding="iso-8859-1"?>
<!-- Generator: Adobe Illustrator 16.0.0, SVG Export Plug-In . SVG Version: 6.00 Build 0)  -->
<!DOCTYPE svg PUBLIC "-//W3C//DTD SVG 1.1//EN" "http://www.w3.org/Graphics/SVG/1.1/DTD/svg11.dtd">
<svg version="1.1" id="Capa_1" xmlns="http://www.w3.org/2000/svg" xmlns:xlink="http://www.w3.org/1999/xlink" x="0px" y="0px"
	 width="192.809px" height="192.809px" viewBox="0 0 192.809 192.809" style="enable-background:new 0 0 192.809 192.809;"
	 xml:space="preserve">
<g>
	<path d="M178.965,19.885C170.014,7.056,150.874,2.951,135.362,0.84c-0.241-0.214-0.521-0.407-0.941-0.454
		c-1.84-0.208-3.625-0.311-5.365-0.339c-0.104-0.013-0.217-0.027-0.32-0.039c-0.267-0.031-0.48,0.037-0.715,0.066
		c-50.188,0.218-57.778,73.975-16.039,96.703c8.313,4.527,17.562,5.639,26.643,4.264c0.348,4.354,1.261,8.752-4.106,10.237
		c-4.802,1.329-10.662-0.473-15.3-1.674c-9.656-2.503-19.021-6.694-27.752-11.476c-7.308-4.002-12.27-14.038-16.257-20.992
		c-2.627-4.582-4.781-9.381-6.27-14.448c-2.615-8.897,3.881-8.823,10.87-7.437c2.879,0.571,3.806-3.225,1.186-4.303
		c-11.287-4.642-19.823-1.089-19.098,10.117c-18.977,9.927-13.165,24.749-1.748,36.66c-5.811,16.584-23.363,21.59-37.85,29.709
		c-12.86,7.208-21.096,18.085-15.389,32.985c7.048,18.4,29.405,35.869,49.953,31.792c11.828-2.348,19.429-9.582,24.13-20.534
		c2.516-5.862,3.473-12.253,4.237-18.539c1.498-12.305,4.267-19.035,13.021-28.168c1.058-1.103,1.109-2.353,0.622-3.364
		c7.006,2.5,14.26,4.251,21.514,4.738c5.726,0.385,13.604-2.272,13.504-7.952c9.198-1.735,16.124-8.762,11.517-18.882
		c16.649-4.822,31.74-17.584,38.032-32.773C190.223,50.361,189.164,34.504,178.965,19.885z M94.458,120.054
		c-25.497,11.721-9.058,47.761-31.824,62.049c-18.249,11.453-59.4-16.378-48.05-37.674c8.134-15.262,51.445-20.811,49.975-42.484
		c5.061,4.486,10.652,8.346,15.51,11.046c4.622,2.569,9.514,4.97,14.569,7.016C94.578,120.028,94.519,120.025,94.458,120.054z
		 M81.799,105.871c-8.704-4.718-17.533-10.721-23.188-19.004c-5.657-8.287-2.067-15.238,4.029-21.011
		c3.122,13.027,12.664,27.838,22.306,36.717c9.234,8.506,28.108,14.327,40.567,15.933
		C117.568,123.262,85.915,108.102,81.799,105.871z M165.962,18.581c6.055,3.451,9.872,8.215,11.993,13.621
		c-1.655-1.649-3.337-3.269-4.917-4.906c-3.493-3.618-7.098-7.121-10.719-10.611C163.543,17.275,164.76,17.896,165.962,18.581z
		 M92.736,38.579c2.756-18.849,16.462-29.213,33.2-33.479c0.382,0.693,1.012,1.243,1.911,1.462
		c5.712,1.387,11.377,2.565,16.946,3.991c-9.854-0.286-22.832,8.705-29.09,13.382c-0.749-1.104-2.694-0.937-2.722,0.733
		c-0.009,0.462,0.032,0.915,0.037,1.375c-1.796,1.444-3.603,2.971-5.392,4.641c-0.706-0.102-1.517,0.264-1.416,1.092
		c0.009,0.076,0.024,0.151,0.034,0.226c-5.651,5.509-10.864,12.054-13.956,19.143C91.992,46.883,92.143,42.634,92.736,38.579z
		 M148.229,17.889c-0.902,3.656-2.412,7.232-4.233,10.715c-0.252-0.676-0.487-1.356-0.67-2.05c-0.666-2.52-0.806-5.109-0.619-7.686
		C144.572,18.616,146.427,18.357,148.229,17.889z M117.567,57.813c0.283-1.521-1.48-2.6-2.57-1.759
		c-0.892-2.675-1.577-5.507-2.34-7.948c-1.063-3.398-1.939-6.845-2.733-10.312c0.87-0.867,1.71-1.776,2.598-2.611
		c0.39-0.367,0.814-0.693,1.213-1.052c1.342,8.164,4.286,16.022,7.139,23.833c0.075,0.206,0.195,0.367,0.31,0.532
		c-1.284,1.361-2.587,2.729-3.979,4.052c0.053-0.191,0.196-0.331,0.188-0.55C117.345,60.496,117.272,59.396,117.567,57.813z
		 M116.903,31.385c1.418-1.141,2.946-2.132,4.437-3.176c2.678,6.459,4.664,13.095,6.536,19.832c0.223,0.805,0.709,1.276,1.277,1.509
		c-0.88,1.032-1.757,2.054-2.604,3.029c-0.438,0.506-0.952,1.06-1.412,1.583c-0.102-2.25-0.194-4.499-0.346-6.75
		c-0.151-2.246-3.336-2.246-3.487,0c-0.004,0.06-0.005,0.119-0.009,0.179C119.294,42.335,117.806,36.955,116.903,31.385z
		 M127.325,33.148c-0.963-2.08-2.013-4.739-3.654-6.608c2.062-1.343,4.187-2.583,6.342-3.762c2.055,3.032,3.964,6.137,5.593,9.432
		c0.981,1.986,1.694,4.06,2.269,6.194c0.007,0.026,0.015,0.053,0.022,0.079c-1.809,2.528-3.699,4.976-5.603,7.302
		c-0.148-1.035-0.269-2.075-0.439-3.105c-0.086-0.51-0.427-0.814-0.837-1.016C129.958,38.733,128.579,35.857,127.325,33.148z
		 M132.628,21.382c2.269-1.117,4.597-1.636,6.925-2.022c-0.492,4.569-0.151,9.658,1.935,13.665
		c-0.304,0.492-0.583,0.996-0.897,1.483c-0.615-1.372-1.281-2.722-1.989-4.048C136.896,27.269,134.8,24.283,132.628,21.382z
		 M94.358,62.941c1.654-2.735,2.119-6.977,3.378-9.477c0.552-1.095,1.229-2.116,1.872-3.158c0.331,2.754,0.879,5.482,1.594,8.208
		c0.896,3.411,2.056,7.782,4.855,10.154c1.572,1.332,4.252-0.385,3.004-2.317c-3.662-5.664-6.06-12.63-7.192-19.436
		c1.72-2.342,3.63-4.546,5.619-6.67c0.524,2.942,1.126,5.869,1.804,8.79c1.039,4.477,1.854,9.987,4.018,14.07
		c0.467,0.878,1.373,1.115,2.217,0.97c-5.006,4.493-10.602,8.325-16.614,9.711C96.988,70.387,95.443,66.746,94.358,62.941z
		 M138.013,90.809c-0.652,0.683-0.829,1.52-0.733,2.324c-10.496,1.179-21.22-1.38-29.768-8.685
		c-2.402-2.054-4.406-4.471-6.222-7.028c7.259,2.502,21.864-11.888,25.125-14.982c9.907-9.402,21.714-22.687,27.112-36.895
		C159.054,49.249,156.585,71.383,138.013,90.809z M147.289,90.823c3.645-3.411,6.535-7.232,8.826-11.332
		c0.111,0.144,0.137,0.316,0.333,0.427c1.701,0.967,3.226,2.168,4.732,3.388C156.979,86.554,152.258,89.104,147.289,90.823z
		 M163.921,80.815c-1.999-1.337-4.18-2.468-6.036-3.357c-0.251-0.12-0.47-0.056-0.7-0.046c1.644-3.303,2.794-6.818,3.733-10.409
		c0.904,0.797,1.767,1.64,2.679,2.43c1.983,1.718,3.779,3.788,5.904,5.355C167.794,76.94,165.952,78.974,163.921,80.815z
		 M171.714,71.881c-0.082,0.129-0.19,0.234-0.274,0.361c-1.645-1.887-3.81-3.343-5.702-4.95c-1.36-1.154-2.661-2.373-3.997-3.552
		c0.53-2.596,0.853-5.256,1.089-7.937c1.948,1.87,3.851,3.789,5.758,5.699c1.776,1.779,3.732,3.835,5.937,5.353
		C173.65,68.605,172.723,70.302,171.714,71.881z M176.037,63.557c-2.077-1.621-4.175-3.222-6.149-4.979
		c-2.248-2.001-4.498-3.995-6.829-5.894c0.159-3.286,0.111-6.61-0.086-9.941c2.433,2.476,4.792,5.028,7.14,7.548
		c1.722,1.849,5.097,6.985,8.146,6.956C177.639,59.402,176.896,61.517,176.037,63.557z M178.941,54.631
		c-2.83-1.759-5.713-5.332-8.176-7.623c-2.64-2.456-5.319-4.911-8.093-7.243c-0.3-3.417-0.783-6.822-1.356-10.198
		c3.152,3.45,6.293,6.912,9.516,10.298c2.052,2.156,5.588,6.879,9.161,7.492C179.813,49.788,179.501,52.224,178.941,54.631z
		 M172.513,36.386c-4.139-3.804-8.104-7.787-12.123-11.715c-0.702-3.368-1.494-6.695-2.42-9.913
		c0.405,0.163,0.804,0.357,1.206,0.527c-0.439,0.43-0.599,1.147-0.042,1.729c3.535,3.685,7.092,7.351,10.604,11.059
		c3.514,3.711,6.597,7.901,10.058,11.648c0.113,0.908,0.219,1.818,0.264,2.741C177.693,40.273,174.679,38.376,172.513,36.386z"/>
</g>
<g>
</g>
<g>
</g>
<g>
</g>
<g>
</g>
<g>
</g>
<g>
</g>
<g>
</g>
<g>
</g>
<g>
</g>
<g>
</g>
<g>
</g>
<g>
</g>
<g>
</g>
<g>
</g>
<g>
</g>
</svg>
