<?xml version="1.0" encoding="iso-8859-1"?>
<!-- Generator: Adobe Illustrator 16.0.0, SVG Export Plug-In . SVG Version: 6.00 Build 0)  -->
<!DOCTYPE svg PUBLIC "-//W3C//DTD SVG 1.1//EN" "http://www.w3.org/Graphics/SVG/1.1/DTD/svg11.dtd">
<svg version="1.1" id="Capa_1" xmlns="http://www.w3.org/2000/svg" xmlns:xlink="http://www.w3.org/1999/xlink" x="0px" y="0px"
	 width="195.152px" height="195.153px" viewBox="0 0 195.152 195.153" style="enable-background:new 0 0 195.152 195.153;"
	 xml:space="preserve">
<g>
	<path d="M174.544,22.529C161.066,9.834,142.128,1.671,123.68,5.361c-1.46-1.225-3.598-1.572-5.303,0.217
		C104.615,20.024,89.793,33.383,75.179,46.95c-7.555,7.016-27.276,19.694-27.798,30.985c-1.128-0.151-2.402,0.539-2.325,1.916
		c0.752,13.344,5.428,24.93,12.651,34.591c-3.531,1.784-7.283,5.632-8.886,6.98c-6.151,5.172-12.03,10.666-18.196,15.815
		c-0.7,0.585-0.989,1.316-1.071,2.069c-9.854-5.544-20.778-2.566-26.578,8.459c-6.07,11.537-2.443,25.79,7.123,34.001
		c14.649,12.574,50.108,15.199,44.72-12.949c-0.018-0.094-0.075-0.151-0.1-0.24c7.217-3.901,13.613-9.986,19.862-15.184
		c2.262-1.882,5.618-4.365,8.486-7.15c0.084-0.013,0.173-0.021,0.256-0.035c0.941-0.151,1.443-0.969,1.543-1.845
		c1.668-1.889,2.999-3.878,3.495-5.9c8.264,3.776,17.15,6.43,26.228,7.753c1.121,0.164,2.077-0.142,2.833-0.684
		c0.798,0.303,1.708,0.34,2.607-0.128c15.217-7.914,27.325-22.199,38.578-34.814c11.816-13.246,24.354-27.059,34.372-41.725
		c0.802-1.172,0.724-2.331,0.221-3.291C201.011,51.848,183.445,30.913,174.544,22.529z M106.379,28.955
		c2.721,8.801,7.385,17.329,13.423,24.861c-0.688-0.324-1.478-0.442-2.308-0.179c-0.706,0.223-1.402,0.474-2.106,0.701
		c-1.785-2.585-4.867-4.484-7.031-6.788c-3.24-3.449-6.053-7.315-8.647-11.264c-0.17-0.258-0.383-0.411-0.607-0.521
		C101.527,33.496,103.982,31.256,106.379,28.955z M129.961,83.23c-1.28-3.028-5.587-5.38-8.077-7.356
		c-2.275-1.806-4.632-3.507-6.962-5.245c1.095-2.141,2.217-4.267,3.376-6.376c3.284,3.278,6.654,6.475,10.134,9.523
		c2.946,2.581,6.18,5.408,9.621,7.685c-2.391,1.05-5.168,2.243-8.208,3.563C130.108,84.463,130.19,83.776,129.961,83.23z
		 M87.441,110.177c-0.559,1.055-0.801,2.077-0.723,3.062c-0.299-0.258-0.624-0.506-0.919-0.764
		c-11.488-10.031-18.995-22.936-24.083-37.013c0.379,0.312,0.885,0.495,1.508,0.385c16.166-2.881,31.992-7.873,47.692-12.815
		c-3.484,6.384-6.647,12.938-9.858,19.473c-4.148,8.442-9.479,16.091-13.848,24.337C86.521,108.141,86.762,109.333,87.441,110.177z
		 M105.51,89.646c1.836,1.201,3.889,2.077,5.777,1.854c1.733-0.205,2.398-2.779,0.439-3.254c-1.663-0.4-3.246-0.9-4.744-1.599
		c0.898-1.819,1.782-3.644,2.669-5.466c0.474,0.639,0.902,1.303,1.414,1.922c1.986,2.404,4.725,5.595,7.717,6.84
		c-6.231,2.863-12.603,5.986-18.013,9.156C102.482,95.932,104.001,92.672,105.51,89.646z M114.268,81.125
		c-1.085-1.017-2.06-2.121-2.982-3.266c0.735-1.504,1.508-2.989,2.257-4.486c1.929,1.687,3.894,3.33,5.784,5.06
		c2.613,2.394,5.281,6.083,8.613,7.423c-2.013,0.879-4.087,1.792-6.222,2.753c0.054-0.383,0.001-0.779-0.24-1.143
		C119.771,84.885,116.54,83.255,114.268,81.125z M97.122,37.618c0.022,0.051,0.021,0.1,0.051,0.151
		c2.275,4.021,4.824,7.802,7.707,11.412c1.683,2.106,3.693,4.857,6.069,6.633c-2.238,0.746-4.486,1.465-6.716,2.234
		c-2.702-1.78-5.842-2.905-8.469-4.957c-2.705-2.113-4.898-4.944-6.829-7.814C91.679,42.739,94.387,40.165,97.122,37.618z
		 M87.501,46.621c1.917,2.941,4.025,5.688,6.512,8.224c1.518,1.547,3.506,3.424,5.639,4.806c-1.763,0.618-3.529,1.226-5.292,1.849
		c-1.662-1.002-3.494-1.83-5.056-2.902c-2.748-1.889-5.124-4.295-7.294-6.837C83.858,50.066,85.66,48.321,87.501,46.621z
		 M80.119,53.521c2.218,2.711,4.642,5.216,7.283,7.538c0.723,0.634,1.555,1.347,2.427,2.037c-0.861,0.305-1.724,0.605-2.584,0.911
		c-1.454-0.852-2.972-2.171-4.195-3.204c-1.873-1.582-3.499-3.438-4.923-5.436C78.792,54.751,79.455,54.136,80.119,53.521z
		 M76.003,57.34c1.479,2.306,3.186,4.464,5.153,6.37c0.588,0.571,1.255,1.186,1.957,1.754c-1.712,0.601-3.417,1.217-5.132,1.809
		c-0.955-1.724-2.632-3.229-3.749-4.854c-0.484-0.705-0.988-1.378-1.489-2.055C73.83,59.356,74.919,58.35,76.003,57.34z
		 M71.084,61.902c0.807,2.234,2.04,4.807,3.643,6.476c-4.129,1.401-8.268,2.776-12.442,4.057c-0.724,0.222-1.082,0.712-1.198,1.249
		c-0.218-0.632-0.46-1.253-0.669-1.89C63.956,68.48,67.529,65.201,71.084,61.902z M52.536,128.723
		c0.213-0.181,0.485-0.388,0.788-0.607c2.228-0.065,4.455-0.172,6.686-0.309c3.34-0.205,6.746-0.06,10.031-0.711
		c1.577,1.259,3.16,2.513,4.832,3.664c-4.963,0.357-9.984,1.29-14.831,1.818c-4.44,0.485-8.881,0.83-13.328,1.124
		C48.651,132.038,50.585,130.369,52.536,128.723z M58.552,124.399c1.58-1.194,3.13-2.501,4.244-3.838
		c1.045,1.106,2.213,2.099,3.336,3.133C63.645,123.703,61.1,124.003,58.552,124.399z M31.342,143.127
		c0.214,0.157,0.448,0.271,0.683,0.382c-6.024,0.648-11.961,1.247-17.752,1.664C18.79,141.727,25.048,140.682,31.342,143.127z
		 M7.688,160.435c-0.1-1.888,0.114-3.623,0.474-5.27c2.976,0.164,5.988,0.376,8.914,0.192c0.318-0.02,0.521-0.176,0.716-0.331
		c-1.069,1.949-1.709,4.043-1.82,6.2c-1.223-0.101-2.445-0.04-3.712,0.036c-1.477,0.088-2.957,0.137-4.436,0.192
		C7.792,161.108,7.707,160.791,7.688,160.435z M8.143,163.842c1.075,0.047,2.15,0.093,3.224,0.14
		c1.581,0.069,3.168,0.307,4.725,0.149c0.317,2.005,1.074,4.005,2.304,5.908c1.08,1.674,2.492,3.076,4.077,4.213
		c-3.011,0.055-6.022,0.096-9.034,0.1C10.713,171.469,8.935,167.963,8.143,163.842z M21.905,155.448
		c4.339,0.246,8.733,1.395,12.191,4.078c4.002,3.107,3.74,8.771-0.857,11.312c-3.623,2.002-8.374-1.4-10.486-4.138
		C19.95,163.068,20.192,159.091,21.905,155.448z M47.721,169.779c0.079,1.904,0.033,3.665-0.201,5.279
		c-0.943,0.018-1.894,0.125-2.853,0.18c-1.894,0.108-3.866,0.162-5.734,0.513c-1.24,0.233-3.834,0.764-4.061,2.383
		c-0.14,1.003,1.154,1.386,1.525,0.42c0.045-0.115,5.033,0.021,5.404,0.021c1.462,0.002,3.03,0.188,4.576,0.244
		c-1.147,2.191-3.141,3.827-6.578,4.673c-6.478,1.594-14.058-1.161-19.691-4.142c-1.524-0.808-2.882-1.729-4.141-2.717
		c3.705,0.002,7.411,0.017,11.103,0.19c0.208,0.01,0.31-0.125,0.468-0.19c2.866,0.754,5.923,0.692,8.779-0.531
		c3.23-1.384,5.285-4.297,6.198-7.567c1.766,0.085,3.616,0.074,5.452-0.098C47.803,168.836,47.7,169.276,47.721,169.779z
		 M52.257,164.075c-1.826,0.087-3.598,0.682-5.424,0.922c-1.254,0.165-2.522,0.249-3.792,0.312c0.11-2.951-0.673-5.91-2.486-8.141
		c-0.211-0.26-0.481-0.486-0.712-0.737c7.155-0.211,14.693,0.189,21.627-0.965C58.354,158.291,55.268,161.143,52.257,164.075z
		 M66.195,151.058c-0.198-0.084-0.342-0.238-0.587-0.252c-5.362-0.323-10.888,0.95-16.236,1.522
		c-4.163,0.446-8.315,0.941-12.458,1.534c-5.034-3.582-12.09-5.358-17.699-3.808c-1.443,0.398-1.962,1.687-1.816,2.892
		c-0.119-0.04-0.18-0.14-0.323-0.149c-2.725-0.172-5.524,0.002-8.302,0.159c0.596-1.674,1.375-3.225,2.375-4.571
		c0.087,0.016,0.12,0.093,0.217,0.098c18.615,0.833,39.025,1.203,58.223-0.593C68.489,148.98,67.324,149.999,66.195,151.058z
		 M75.805,141.231c-13.124-0.874-26.96,0.47-40.541,1.931c2.58-1.982,5.072-4.071,7.556-6.172
		c12.628,0.526,26.728,0.831,38.341-2.263c0.362,0.207,0.708,0.438,1.073,0.642C79.923,136.894,77.809,139.03,75.805,141.231z
		 M117.29,139.369c-0.245-0.092-0.441-0.226-0.739-0.269c-34.069-4.915-59.318-25.857-67.521-59.595
		c3.761-0.373,5.573-2.13,8.137-4.636c1.804,16.55,12.196,31.005,23.938,42.3c8.847,8.51,25.457,20.144,39.405,19.201
		C119.436,137.374,118.362,138.357,117.29,139.369z M108.247,126.66c-6.945-2.31-13.267-6.629-18.968-11.29
		c8.964-4.716,17.147-10.713,26.483-15.133c8.058-3.814,16.446-7.178,24.476-11.157c-2.986,7.221-6.674,14.147-10.289,21.08
		c-3.068,5.883-7.359,12.358-8.493,19.069C117.044,128.531,112.629,128.117,108.247,126.66z M136.508,121.332
		c-0.051-0.035-0.104-0.052-0.155-0.091c-0.881-0.693-1.526-1.647-1.98-2.691c0.97-2.112,1.928-4.235,2.894-6.301
		c0.123,0.143,0.251,0.28,0.374,0.424c1.197,1.39,2.169,2.994,3.322,4.417C139.496,118.523,137.989,119.914,136.508,121.332z
		 M133.133,121.14c0.367,0.778,0.823,1.488,1.332,2.14c-1.554,1.474-3.081,2.974-4.651,4.432
		C131,125.607,132.074,123.376,133.133,121.14z M143.26,114.767c-0.685-1.064-1.616-2.02-2.427-2.915
		c-0.713-0.788-1.531-1.471-2.291-2.212c0.333-0.677,0.655-1.381,0.997-2.038c0.751-1.443,1.461-2.906,2.185-4.362
		c0.172,0.118,0.383,0.253,0.531,0.362c1.693,1.247,3.409,2.462,5.087,3.729c0.609,0.459,1.185,1.021,1.806,1.491
		C147.225,110.859,145.232,112.799,143.26,114.767z M156.02,101.206c-1.47,1.721-2.988,3.368-4.503,5.023
		c-1.424-1.447-3.89-2.628-5.13-3.433c-1.117-0.727-2.234-1.453-3.345-2.189c1.244-2.585,2.438-5.191,3.553-7.831
		c1.371,0.831,2.779,1.603,4.089,2.538c2.077,1.483,3.862,3.664,5.977,5.108C156.445,100.678,156.238,100.952,156.02,101.206z
		 M158.744,97.872c-1.384-1.642-3.414-2.928-5.1-4.106c-1.898-1.329-3.935-2.44-6.003-3.488c0.922-2.325,1.788-4.672,2.541-7.065
		c1.67,1.107,3.358,2.187,4.99,3.352c2.665,1.902,5.013,4.362,7.641,6.325C161.47,94.575,160.102,96.213,158.744,97.872z
		 M165.342,89.757c-2.076-2.179-4.817-3.888-7.228-5.522c-2.605-1.766-5.328-3.361-8.077-4.906c-0.674-0.99-1.81-1.642-3.023-1.683
		c-0.256-0.138-0.508-0.288-0.765-0.426c-1.15-0.617-2.109,0.395-2.019,1.377c-0.397,0.208-0.842,0.431-1.35,0.675
		c-3.836-3.044-8.314-5.499-12.21-8.4c-3.824-2.848-7.424-5.91-10.99-9.025c0.586-1.024,1.15-2.06,1.767-3.068
		c0.523-0.859,0.555-1.812,0.294-2.679c12.867,14.899,31.22,25.329,50.548,24.921C169.947,83.914,167.646,86.844,165.342,89.757z
		 M178.386,73.77c-31.394-1.452-57.029-17.995-68.701-48.034c3.053-2.968,6.163-5.874,9.149-8.91
		c-2.042,18.414,15.131,34.505,29.307,43.923c4.294,2.854,20.489,11.434,31.454,11.603C179.183,72.813,178.794,73.304,178.386,73.77
		z M185.383,61.484c-10.661,6.261-23.963-1.64-33.34-7.41c-14.114-8.685-29.703-24.006-26.814-42.044
		c0.082-0.51,0.015-0.953-0.11-1.358c16.351-1.322,31.846,6.797,43.891,17.392c6.12,5.383,10.884,12.001,14.571,19.224
		c2.376,4.654,2.365,9.181,2.72,13.824C186.001,61.182,185.692,61.302,185.383,61.484z"/>
</g>
<g>
</g>
<g>
</g>
<g>
</g>
<g>
</g>
<g>
</g>
<g>
</g>
<g>
</g>
<g>
</g>
<g>
</g>
<g>
</g>
<g>
</g>
<g>
</g>
<g>
</g>
<g>
</g>
<g>
</g>
</svg>
