<?xml version='1.0' encoding='iso-8859-1'?>
<!DOCTYPE svg PUBLIC '-//W3C//DTD SVG 1.1//EN' 'http://www.w3.org/Graphics/SVG/1.1/DTD/svg11.dtd'>
<svg version="1.1" xmlns="http://www.w3.org/2000/svg" viewBox="0 0 372.691 372.691" xmlns:xlink="http://www.w3.org/1999/xlink" enable-background="new 0 0 372.691 372.691">
  <g>
    <path d="m244.071,55.857c10.499,0 20.275-0.531 29.969,0.134 12.217,0.838 24.689,1.36 36.482,4.299 29.042,7.238 33.774,15.984 37.017,41.179 2.238,17.383 1.053,35.428-0.445,53.02-2.264,26.584-6.14,53.031-9.289,79.542-0.074,0.623 0.355,1.305 0.684,2.417 4.335,0.827 8.904,1.63 13.442,2.581 6.602,1.383 11.251,4.742 12.003,12.049 0.257,2.499 1.207,4.96 1.236,7.445 0.39,34.312-6.751,66.639-24.893,96.236-4.519,7.372-10.49,12.009-18.748,13.289-12.469,1.934-25.032,4.674-37.549,4.642-50.278-0.127-100.562-0.839-150.827-2.043-27.568-0.66-54.469-6.585-81.197-13.087-18.067-4.395-29.861-15.316-35.421-33.093-4.307-13.769-9.973-27.262-8.898-42.116 0.441-6.1 1.067-12.259 2.426-18.204 2.156-9.429 7.953-16.056 17.217-19.393 2.319-0.835 4.631-1.687 7.361-2.683-4.409-22.57-9.131-44.774-12.989-67.126-3.064-17.752-6.465-35.627-7.212-53.553-1.043-25.005 14.702-46.246 37.801-55.418 11.906-4.727 23.951-7.944 36.922-7.174 3.715,0.22 7.503-0.775 12.192-1.321-1.478-3.317-2.133-5.341-3.217-7.1-1.889-3.065-1.958-5.785-0.214-9.098 5.728-10.879 11.24-21.877 16.603-32.941 2.168-4.474 5.143-6.173 10.231-6.076 11.188,0.214 22.391-0.21 33.585-0.524 16.26-0.457 32.527-0.857 48.769-1.699 4.757-0.247 8.179,0.53 11.258,4.5 6.863,8.852 13.978,17.531 21.392,25.926 5.445,6.166 8.583,12.412 4.611,20.538-0.423,0.865-0.158,2.065-0.302,4.852zm-13.773,304.646c3.174-10.781 9.13-20.621 16.53-24.901-4.186,8.132-8.371,16.264-12.995,25.245 29.261-0.061 57.427,1.425 85.368-4.059 5.186-1.018 8.493-3.255 11.049-7.56 10.052-16.929 18.119-34.856 21.347-54.211 2.168-12.998 3.724-26.412 1.494-39.834-0.727-4.379-2.816-6.803-6.797-6.99-7.178-0.338-14.489-0.85-21.562,0.088-27.558,3.655-54.993,8.261-82.571,11.735-30.821,3.882-61.719,6.915-92.915,5.382-27.097-1.332-54.092-2.969-80.791-8.328-9.146-1.836-18.663-2.244-28.028-2.441-7.29-0.154-13.595,3.001-16.461,10.241-6.541,16.525-4.847,32.647 2.793,49.828 4.576-9.564 8.491-17.747 12.406-25.929-1.64,10.937-4.93,21.118-8.376,31.246-1.675,4.924-0.883,8.886 3.663,12.292 6.95-12.516 12.649-25.281 23.641-34.807-6.823,13.647-13.645,27.294-20.725,41.455 3.566,1.996 5.861,3.28 8.469,4.74 6.002-14.124 12.243-27.128 22.071-37.837 0.632,0.349 1.264,0.699 1.896,1.048-6.268,12.677-12.536,25.354-19.354,39.146 6.476,1.724 11.2,2.982 16.257,4.328 6.508-15.26 13.889-29.063 22.901-41.903 0.73,0.364 1.46,0.728 2.19,1.091-6.53,13.67-13.06,27.34-19.996,41.859 5.436,0.836 9.201,1.415 12.952,1.992 6.492-14.515 13.195-27.916 22.682-39.756-2.292,14.707-12.417,26.143-16.855,41.244 5.09,0.79 9.519,1.476 13.91,2.158 8.1-15.234 15.135-30.118 25.168-43.278-2.066,16.256-14.357,28.377-18.372,44.579 5.059,0 8.963,0 13.303,0 4.608-12.238 8.887-24.561 16.704-34.983 0.67,0.306 1.341,0.613 2.011,0.919-4.302,11.275-8.604,22.55-12.958,33.963 10.645,2.228 10.647,2.229 14.251-5.365 1.396-2.941 2.676-5.942 4.192-8.819 3.35-6.361 6.816-12.66 10.234-18.985 0.78,0.4 1.559,0.801 2.339,1.201-4.442,10.754-8.884,21.507-13.676,33.107 5.032,0 8.529,0 12.13,0 5.836-9.97 8.215-21.392 15.285-30.22 0.671,0.283 1.343,0.566 2.014,0.849-3.506,9.553-7.012,19.107-10.521,28.669 7.072,2.598 10.826,0.966 13.349-5.627 2.697-7.051 6.654-13.634 10.256-20.317 1.013-1.88 2.712-3.391 4.096-5.072 0.668,0.385 1.335,0.771 2.003,1.156-4.171,9.766-8.343,19.533-12.802,29.973 2.272,0.588 3.892,1.181 5.56,1.392 1.683,0.213 3.415,0.047 4.351,0.047 5.906-10.769 11.362-20.72 16.819-30.671 0.649,0.316 1.297,0.632 1.946,0.947-2.321,10.415-9.292,19.038-13.102,29.779 5.63,0 10.447,0 15.117,0 3.841-11.952 12.701-27.602 19.422-33.771-1.667,13.215-11.242,22.183-14.627,33.963 4.32,0.002 7.876,0.002 11.315,0.002zm68.504-119.22c2.902-22.242 6.195-43.955 8.442-65.775 1.918-18.628 2.865-37.368 3.8-56.08 0.613-12.269-5.418-20.543-16.905-24.928-20.039-7.65-40.863-7.642-61.514-7.129-6.33,13.423-6.289,13.445-4.719,28.179 0.182,1.711-0.514,3.51-0.756,5.274-0.82,5.971-1.618,11.944-2.384,17.621 4.845,2.993 9.276,5.459 13.415,8.345 8.059,5.62 15.396,11.932 19.643,21.186 10.241,22.313 12.204,45.006 3.664,68.318-1.297,3.542-2.202,7.228-3.76,12.418 14.444-2.612 27.394-4.954 41.074-7.429zm-173.594,11.338c-3.109-4.151-4.615-6.136-6.094-8.14-16.891-22.886-13.101-49.269 9.361-66.911 20.825-16.357 44.064-19.107 68.609-11.588 24.053,7.368 37.79,31.664 32.918,56.254-0.401,2.025-0.769,4.056-1.148,6.058 1.981,0.464 3.363,0.788 5.043,1.182-2.521,4.547-8.155,5.893-8.331,11.498 2.571-0.303 4.4-0.518 6.229-0.733 0.427,0.669 0.853,1.337 1.28,2.006-3.396,2.972-6.792,5.943-11.656,10.199 8.666-1.154 15.551-2.072 22.334-2.976 1.881-5.841 3.239-11.113 5.257-16.118 5.185-12.856 5.458-26.375 3.418-39.513-1.455-9.368-4.28-19.892-10.086-26.942-13.892-16.872-32.266-28.092-54.738-29.427-13.26-0.788-26.673,0.435-39.98,1.305-4.575,0.299-9.148,1.973-13.538,3.535-18.438,6.562-29.935,20.784-39.796,36.688-8.194,13.217-9.281,27.906-8.093,42.849 0.379,4.767 2.331,9.409 3.852,15.208 3.117-3.294 5.204-5.499 7.982-8.436-0.009,7.102-8.825,10.907-3.486,18.103 3.282-2.336 6.229-4.433 9.176-6.531 0.317,0.367 0.635,0.734 0.953,1.101-1.702,2.654-3.404,5.309-6.474,10.095 6.022-1.695 9.578-2.696 13.112-3.691 1.858,7.612 7.582,3.637 13.896,4.925zm51.156,2.369c0.006-0.484 0.013-0.968 0.019-1.453 8.313,0 16.644-0.328 24.934,0.108 6.218,0.327 9.519-2.5 11.088-8.004 2.573-9.03 5.712-17.972 7.362-27.175 3.416-19.053-6.595-37.01-24.703-43.31-24.605-8.56-47.604-4.352-66.42,15.738-4.23,4.517-7.165,10.93-8.877,16.985-4.069,14.394 6.004,37.052 18.956,44.298 1.777,0.994 4.116,1.231 6.221,1.347 10.468,0.576 20.945,0.993 31.42,1.466zm-96.889-8.558c-15.473-44.639 5.566-85.556 44.868-109.248-0.742-2.667-1.797-5.371-2.213-8.169-1.011-6.796-8.931-13.391-0.721-20.632 0.486-0.429-0.379-2.698-0.948-3.96-2.353-5.221-4.834-10.384-7.321-15.681-12.849-0.074-25.269,0.198-36.699,4.865-14.706,6.003-26.358,16.147-28.001,32.883-1.078,10.99 0.078,22.401 1.689,33.41 2.871,19.622 7.13,39.037 10.219,58.631 1.274,8.081 1.023,16.402 1.485,24.981 5.722,0.947 10.959,1.814 17.642,2.92zm158.713-179.045c-0.23,5.174-4.422,8.931-2.478,12.562 16.058,1.131 30.888,1.423 45.463,3.501 8.014,1.143 15.905,4.663 23.292,8.262 7.426,3.618 12.779,10.14 13.456,18.564 0.948,11.796 1.757,23.796 0.664,35.526-2.709,29.069-6.549,58.032-9.871,87.044-0.263,2.295-0.035,4.647-0.035,7.476 5.621-0.753 10.139-1.359 14.53-1.948 1.628-13.147 3.218-25.601 4.704-38.067 3.455-28.985 8.145-57.897 6.806-87.225-0.342-7.481-2.082-14.925-3.502-22.323-1.397-7.28-5.769-12.299-12.759-14.894-4.032-1.497-8.017-3.28-12.184-4.23-22.015-5.017-44.384-4.441-68.086-4.248zm-21.988,41.78c5.221-21.946 17.725-40.673 18.12-64.413-20.213,0.661-39.816,1.302-60.569,1.981 0.909,21.767 1.758,42.084 2.608,62.432 14.003,0 26.79,0 39.841,0zm-161.575,132.928c0-4.392 0.476-7.987-0.077-11.417-3.786-23.484-8.437-46.85-11.452-70.428-1.54-12.045-1.015-24.51-0.02-36.67 0.682-8.341 5.671-15.289 11.583-21.534 11.657-12.314 26.27-17.219 42.599-18.467 4.526-0.346 9.044-0.788 14.486-1.267-2.34-5.267-4.182-9.412-5.855-13.177-5.471,0.267-9.804,0.858-14.09,0.613-11.431-0.655-22.099,1.839-32.736,5.928-20.005,7.69-33.612,24.964-32.386,46.304 1.153,20.078 4.733,40.041 7.743,59.98 2.999,19.871 6.616,39.648 10.075,60.135 2.178,2.84217e-14 5.331,2.84217e-14 10.13,2.84217e-14zm53.324-195.054c8.445,20.887 16.9,41.8 25.281,62.532 12.635,0 24.395,0 37.619,0-0.882-20.971-1.735-41.231-2.631-62.532-20.622,0-39.958,0-60.269,0zm24.225,87.363c27.591-4.995 54.675-10.352 82.425-1.221 0.897-5.551 1.617-10.008 2.434-15.065-30.878,1.738-61.035-3.825-92.242-0.563 2.875,6.56 5.14,11.73 7.383,16.849zm-.633-124.911c13.727,9.849 25.562,18.341 37.901,27.194 10.499-9.489 22.783-15.624 31.621-27.194-23.029,1.77636e-15-44.934,1.77636e-15-69.522,1.77636e-15zm-9.394,.263c-5.462,10.575-10.978,20.271-15.418,30.746 18.833,0 36.9,0 54.967,0 0.239-0.629 0.477-1.257 0.716-1.886-12.972-9.297-25.943-18.595-40.265-28.86zm56.014,28.662c17.802,0 35.012,0 54.206,0-8.186-10.331-14.952-18.87-21.682-27.363-11.168,9.395-21.745,18.294-32.524,27.363z"/>
    <path d="m255.072,337.333c0.575,9.316-3.312,14.559-7.386,20.629-1.277-7.724-0.798-9.084 7.386-20.629z"/>
    <path d="m272.576,345.55c-1.425,3.734-2.849,7.468-4.273,11.203-0.973-0.369-1.947-0.738-2.92-1.107 1.433-3.731 2.867-7.462 4.3-11.193 0.963,0.365 1.928,0.731 2.893,1.097z"/>
    <path d="m74.266,115.499c-3.683,4.484-7.366,8.968-11.05,13.452-0.149-7.538 5.002-10.991 9.478-14.956 0.524,0.501 1.048,1.003 1.572,1.504z"/>
    <path d="m69.97,152.314c-1.753,2.406-3.506,4.812-5.26,7.218-0.6-0.406-1.201-0.811-1.801-1.217 1.705-2.579 3.41-5.158 5.114-7.736 0.649,0.578 1.298,1.156 1.947,1.735z"/>
    <path d="m140.432,56.641c-2.692,3.478-5.383,6.956-8.075,10.435-0.677-0.509-1.353-1.017-2.03-1.526 2.672-3.494 5.343-6.988 8.015-10.481 0.696,0.524 1.393,1.048 2.09,1.572z"/>
    <path d="m142.174,69.707c-2.76,2.634-5.52,5.267-8.281,7.901-0.479-0.445-0.958-0.89-1.437-1.335 2.747-2.693 5.493-5.385 8.24-8.078 0.493,0.503 0.986,1.007 1.478,1.512z"/>
  </g>
</svg>
