<?xml version='1.0' encoding='iso-8859-1'?>
<!DOCTYPE svg PUBLIC '-//W3C//DTD SVG 1.1//EN' 'http://www.w3.org/Graphics/SVG/1.1/DTD/svg11.dtd'>
<svg version="1.1" xmlns="http://www.w3.org/2000/svg" viewBox="0 0 408.136 408.136" xmlns:xlink="http://www.w3.org/1999/xlink" enable-background="new 0 0 408.136 408.136">
  <g>
    <path d="m152.373,157.163c-0.801-4.598-1.54-8.839-2.281-13.09-17.479-8.592-32.625-19.997-46.16-33.847-15.47-15.831-20.003-35.346-17.837-56.016 3.169-30.241 40.74-54.835 70.972-37.022 9.703,5.718 18.638,12.74 28.575,19.616 1.575-1.825 3.756-4.185 5.752-6.693 12.228-15.359 28.503-24.279 47.198-28.825 14.959-3.638 39.484-0.039 50.281,17.062 7.502,11.882 8.08,24.345 5.367,37.209-5.559,26.359-18.164,49.67-32.528,72.122-3.637,5.685-9.32,10.337-7.306,18.544 0.571,2.325-1.617,5.328-2.758,8.654 13.528,4.689 25.5,10.697 36.231,19.377 23.835,19.279 38.502,43.475 45.562,73.519 7.71,32.81 2.683,63.522-9.709,93.817-8.058,19.698-22.731,33.146-41.226,42.904-7.071,3.731-13.963,7.253-20.104,13.033-7.944,7.477-19.554,7.743-30.125,9.203-22.924,3.165-45.281,0.797-67.645-5.239-12.823-3.461-25.631-6.514-37.594-12.41-25.998-12.812-42.33-33.84-50.561-61.118-7.296-24.179-7.214-48.694-0.074-72.994 5.498-18.713 11.141-37.308 20.859-54.526 11.057-19.59 26.938-32.807 47.909-40.309 2.377-0.85 4.675-1.922 7.202-2.971zm55.75,239.362c19.2,0.617 37.319-2.182 53.259-14.126 5.547-4.156 12.174-6.853 18.224-10.362 14.781-8.571 25.83-20.41 32.408-36.399 12.587-30.599 14.584-61.351 6.488-93.842-9.637-38.678-50.864-80.863-96.719-80.327-16.471,0.193-33.038-1.305-49.402-0.011-27.389,2.166-50.002,13.732-65.351,37.681-14.262,22.253-19.896,47.278-24.414,72.72-2.27,12.784-2.07,25.536 0.152,38.394 6.274,36.311 25.096,62.317 60.622,74.699 20.947,7.3 42.63,10.84 64.733,11.573zm40.83-266.779c7.782-13.797 16.49-27.149 23.044-41.486 5.77-12.62 10.186-26.097 13.306-39.633 4.52-19.607-7.501-36.624-26.827-39.658-9.568-1.502-19.094-0.868-28.133,3.336-16.42,7.635-30.911,17.089-37.391,35.395-2.062,5.825-6.484,6.532-11.36,2.608-2.268-1.824-4.282-4.088-5.994-6.455-5.981-8.268-14.086-13.92-22.647-19.11-13.202-8.004-26.097-6.671-38.406,1.644-22.097,14.926-25.628,50.975-7.334,72.528 11.534,13.588 25.476,24.431 39.942,34.62 4.403,3.101 8.706,5.685 15.137,4.346 6.883-1.433 12.604,3.101 17.15,8.248 1.64,1.857 2.803,4.134 3.894,5.781 14.671,0 28.604,0 42.472,0 1.343-19.238 3.558-21.46 23.147-22.164zm-7.224,22.583c0.445-4.591 7.548-8.238 2.007-13.953-1.274-1.314-4.827-1.593-6.765-0.857-4.634,1.76-4.209,6.172-3.878,10.192 0.417,5.054 3.763,5.406 8.636,4.618zm-83.341,3.177c5.996-1.396 9.572-2.23 14.598-3.4-3.909-4.709-5.622-10.311-11.555-7.605-1.802,0.822-1.716,5.783-3.043,11.005z"/>
    <path d="m201.476,190.692c14.563-0.87 29.253,2.698 43.823,6.602 20.518,5.498 35.576,18.281 43.355,37.787 17.459,43.779 8.206,73.273-21.047,105.434-12.221,13.436-26.493,24.825-45.495,27.434-22.653,3.111-45.266,1.569-65.988-7.953-24.532-11.273-37.814-32.457-41.759-58.722-5.031-33.504 6.942-62.455 27.456-88.082 11.447-14.3 36.936-23.22 59.655-22.5zm-.848,169.285c19.831-2.1 27.113-3.035 36.255-9.344 8.117-5.602 15.972-11.934 22.734-19.087 23.71-25.079 31.39-54.228 19.996-87.446-5.636-16.43-15.887-29.414-32.364-35.512-24.401-9.03-49.131-14.26-75.36-5.564-11.862,3.932-21.209,9.827-28.183,19.728-9.394,13.338-16.321,27.914-20.482,43.728-9.514,36.155 10.793,77.473 48.287,88.768 9.332,2.813 19.391,3.218 29.117,4.729z"/>
    <path d="m273.101,45.116c-1.193,9.415-3.719,18.829-12.687,25.097-7.508,5.248-13.83,3.983-18.45-3.863-1.106-1.877-2.001-3.954-2.574-6.053-1.503-5.507-3.671-8.674-10.663-7.964-7.615,0.773-10.355-3.775-8.487-11.336 2.128-8.612 10.865-15.711 21.102-16.773 4.002-0.415 8.073-0.138 12.111-0.229 16.601-0.374 18.623,7.939 19.648,21.121zm-48.192,2.04c4.822,0.882 10.432,0.385 13.651,2.922 3.289,2.593 4.224,8.166 6.211,12.425 0.308,0.661 0.703,1.288 1.107,1.897 3.446,5.194 6.655,5.762 11.903,2.123 9.591-6.651 13.543-23.629 7.815-33.653-0.541-0.948-1.092-2.441-1.874-2.614-5.852-1.293-11.774-3.217-17.653-3.147-4.839,0.057-10.214,1.669-14.332,4.231-5.362,3.338-8.814,8.657-6.828,15.816z"/>
  </g>
</svg>
