<?xml version="1.0" encoding="iso-8859-1"?>
<!-- Generator: Adobe Illustrator 16.0.0, SVG Export Plug-In . SVG Version: 6.00 Build 0)  -->
<!DOCTYPE svg PUBLIC "-//W3C//DTD SVG 1.1//EN" "http://www.w3.org/Graphics/SVG/1.1/DTD/svg11.dtd">
<svg version="1.1" id="Capa_1" xmlns="http://www.w3.org/2000/svg" xmlns:xlink="http://www.w3.org/1999/xlink" x="0px" y="0px"
	 width="193.696px" height="193.697px" viewBox="0 0 193.696 193.697" style="enable-background:new 0 0 193.696 193.697;"
	 xml:space="preserve">
<g>
	<g>
		<g>
			<path d="M88.925,0.484c0.009-0.002,0.013-0.006,0.021-0.008C88.938,0.479,88.932,0.482,88.925,0.484z"/>
			<path d="M88.605,0.632c0.108-0.046,0.205-0.114,0.319-0.148C88.275,0.657,88.061,0.899,88.605,0.632z"/>
			<path d="M89.043,0.446c-0.041,0.009-0.059,0.021-0.097,0.031c0.012-0.003,0.022-0.001,0.033-0.004
				C89.001,0.462,89.021,0.456,89.043,0.446z"/>
			<path d="M149.099,174.833c-0.461-1.533-1.803-2.563-3.407-2.594c-3.377-0.066-6.73-0.439-10.086-0.812
				c-1.781-0.197-3.738-0.562-5.622-0.539c0.18-3.83,0.241-7.668,0.124-11.516c-0.158-5.216-0.319-11.735-2.572-16.835
				c5.277-3.277,9.141-8.746,10.56-17.696c1.283-8.09,3.301-36.663-6.021-43.303c1.578-0.124,3.386-1.215,3.644-2.897
				c2.532-16.529,1.551-32.874,0.185-49.468c-0.184-2.229-1.699-3.994-4.041-4.041c-8.966-0.18-19.461-1.863-30.068-2.974
				c0.282-3.661,1.145-7.271,1.202-10.964c0.007-0.454-0.139-0.779-0.229-1.151c0.48-0.005,0.964,0.005,1.437-0.032
				c-0.009-0.062-0.018-0.123-0.025-0.185c5.187-0.235,5.886-7.901,0.025-8.512c-2.692-0.281-5.396-0.461-8.089-0.764
				c-0.777-0.088-1.555-0.181-2.331-0.276c-0.322-0.04-0.646-0.08-0.969-0.122c-0.064-0.009-0.064-0.009-0.174-0.024
				c-1.304-0.183-2.399-0.244-3.597,0.318c0.065-0.014,0.157-0.003,0.229-0.014c-0.096,0.019-0.2,0.014-0.292,0.04
				c-0.076,0.037-0.147,0.051-0.224,0.094c-0.087,0.048-0.086,0.036-0.15,0.067c-1.272,0.539-2.161,1.81-2.378,3.239
				c-1.216,1.943-0.329,4.921,2.761,5.236c1.283,0.131,2.575,0.187,3.87,0.22c-0.092,1.822-0.392,3.587-0.709,5.412
				c-0.356,2.053-1.177,4.692-0.079,6.62c-10.845-0.579-21.353,0.122-29.983,4.38c-2.3,1.135-2.373,3.545-1.298,5.311
				c-0.95,0.232-1.794,0.973-1.924,2.271c-1.671,16.751-6.69,40.263,12.661,48.616c0.268,0.115,0.547,0.196,0.817,0.304
				c-2.92,1.031-5.178,2.808-6.94,5.08C54.852,83.83,44.08,86.88,35.389,93.648c-8.132,6.333-15.42,20.892-10.998,30.949
				c1.052,2.393,4.283,1.3,5-0.653c1.439-3.918,1.227-8.184,2.419-12.231c1.306-4.436,4.15-8.318,7.34-11.568
				c6.274-6.392,15.011-7.955,23.556-8.05c-4.592,11.007-2.676,27.726-2.059,37.339c0.353,5.479,2.538,9.056,5.748,11.445
				c-3.663,4.349-3.539,11.073-3.489,16.641c0.048,5.248,0.687,10.447,1.186,15.654c-6.083-1.013-12.352-1.075-18.41-2.23
				c-1.85-0.354-3.929,0.488-4.395,2.496c-1.592,6.843-1.232,14.319,5.425,18.226c5.806,3.407,13.682,2.032,19.49-0.48
				c0.345-0.148,0.658-0.477,0.903-0.855c0.053,0.02,0.101,0.058,0.154,0.076c4.915,1.654,10.875,1.611,15.771-0.097
				c1.52-0.529,2.658-1.791,2.645-3.473c-0.109-13.683-0.375-28.038-4.082-41.313c3.94,0.389,7.935,0.521,11.488,0.806
				c4.577,0.367,9.268,0.699,13.821,0.7c-0.016,6.104-0.69,14.236-0.251,21.805c0,0.024,0.005,0.043,0.005,0.067
				c0.725,12.269,4.42,23.004,18.679,21.143c0.138,0.083,0.262,0.182,0.429,0.233c6.427,1.99,12.656-1.118,19.008-0.098
				c1.918,0.309,3.654-0.469,4.266-2.422C150.43,183.308,150.44,179.296,149.099,174.833z M64.548,186.163
				c-4.27,0.499-8.715,1.18-12.902-0.073c-3.579-1.072-4.217-4.422-3.952-7.659c5.603,0.8,11.266,1.279,16.89,1.892
				C64.653,182.261,64.656,184.208,64.548,186.163z M70.508,71.497c-1.67-1.588-2.948-3.46-3.874-5.583
				c1.689,0.394,3.405,0.707,5.115,1.031C71.153,68.379,70.738,69.92,70.508,71.497z M65.135,61.357
				c-1.907-8.375-0.813-18.872-1.344-28.034c-0.005-0.091-0.046-0.153-0.058-0.239c0.451,0.056,0.923,0.05,1.419-0.076
				c20.297-5.149,42.231-0.569,63.024,0.085c1.206,13.539,1.896,27.124,0.181,40.637c-1.501,0.07-2.994,0.229-4.492,0.332
				c0.954-1.834,1.613-3.855,1.791-5.83c0.651-0.324,1.289-0.663,1.862-1.068c1.99-1.411,1.164-4.121-1.188-4.384
				c-6.668-0.748-13.931,0.259-21.059,0.857c-0.742-0.517-1.707-0.517-2.399,0.182c-2.322,0.156-4.624,0.251-6.872,0.188
				c-0.784-0.022-1.561-0.097-2.344-0.129c-0.276-0.133-0.579-0.136-0.87-0.048c-2.603-0.118-5.206-0.228-7.796-0.429
				c-0.32-1.308-2.322-1.888-2.967-0.49c-0.03,0.068-0.036,0.143-0.065,0.212c-2.234-0.196-4.47-0.379-6.699-0.615
				c-0.107-0.018-0.203-0.052-0.312-0.035C71.675,62.124,68.401,61.811,65.135,61.357z M121.084,69.807
				c-0.045,0.459-0.095,0.918-0.182,1.374c-0.218,1.127-0.634,2.182-1.155,3.185c-1.542,0.128-3.089,0.201-4.628,0.342
				c0.689-1.287,1.323-2.722,1.773-4.188C118.349,70.37,119.738,70.117,121.084,69.807z M112.434,70.77
				c-0.284,1.45-0.7,2.88-1.148,4.29c-2.629,0.248-5.257,0.502-7.888,0.724c0.272-0.836,0.599-1.655,0.854-2.5
				c0.265-0.876,0.568-1.779,0.863-2.689C107.5,70.74,109.979,70.814,112.434,70.77z M100.663,70.278
				c-0.121,0.646-0.242,1.288-0.385,1.911c-0.299,1.31-0.634,2.612-0.946,3.92c-2.887,0.203-5.775,0.372-8.674,0.436
				c0.821-1.901,1.643-3.801,2.464-5.701c0.168-0.389,0.345-0.777,0.519-1.166c0.783,0.065,1.578,0.163,2.359,0.221
				C97.395,70.001,98.994,70.139,100.663,70.278z M89.805,69.318c-0.01,0.039-0.018,0.075-0.028,0.115
				c-0.576,2.392-1.146,4.785-1.718,7.177c-0.702,0.001-1.398,0.064-2.103,0.052c-1.093-0.018-2.096-0.101-3.078-0.198
				c0.751-2.449,1.342-5.047,1.731-7.633C86.349,69.027,88.071,69.152,89.805,69.318z M80.646,68.302
				c-0.335,2.55-0.483,5.151-0.805,7.702c-2.375-0.485-4.43-1.204-6.148-2.167c0.061-0.449,0.053-0.884,0.145-1.344
				c0.337-1.686,0.97-3.282,1.547-4.893C77.131,67.884,78.892,68.07,80.646,68.302z M77.91,158.259
				c-2.489-0.079-5.062,0.098-7.514,0.353c0.13-5.105,1.129-9.916,1.53-14.95c1.665,0.555,3.429,0.975,5.257,1.287
				c-0.015,0.134-0.058,0.25-0.046,0.397C77.49,149.669,77.728,153.967,77.91,158.259z M70.5,162.98
				c-0.016-0.158,0.001-0.307-0.012-0.464c2.475,0.255,5.068,0.432,7.571,0.343c0.106,3.317,0.213,6.634,0.263,9.954
				c-2.345,0.407-4.473,1.258-6.721,1.648C71.29,170.632,70.857,166.806,70.5,162.98z M71.989,183.965
				c0.032-1.955-0.03-3.907-0.134-5.856c2.282,0.095,4.619-0.23,6.523-1.102c0.018,2.33,0.099,4.643,0.092,6.985
				C76.338,184.348,74.122,184.341,71.989,183.965z M110.536,146.946c3.8-0.177,7.45-0.656,10.787-1.655
				c0.66,4.194,1.274,8.293,1.689,12.457c-1.834,0.047-3.757,0.383-5.276,0.481c-1.937,0.125-4.252,0.021-6.362,0.305
				C111.285,154.563,111.176,150.619,110.536,146.946z M122.697,180.042c-0.605,5.883-4.646,4.347-7.245,0.229
				c-1.784-2.827-2.711-6.043-3.262-9.423c0.864,0.029,1.729,0.055,2.591,0.09c2.609,0.105,5.495,0.775,8.044,0.257
				c0.204-0.041,0.367-0.136,0.535-0.224C123.222,174.001,123.009,177.029,122.697,180.042z M122.825,166.518
				c-2.286-0.466-4.742,0.123-7.075,0.219c-1.344,0.055-2.697,0.079-4.048,0.135c-0.112-1.412-0.166-2.848-0.215-4.286
				c1.946,0.236,4.043,0.163,5.827,0.278c1.727,0.111,3.997,0.53,6.082,0.513c0.045,1.136,0.11,2.262,0.105,3.424
				C123.302,166.675,123.084,166.571,122.825,166.518z M97.053,139.757c-11.009-0.906-29.149,2.121-30.203-12.535
				c-0.914-12.696-2.739-34.551,7.868-43.17c0.278-0.225,0.397-0.504,0.415-0.788c15.785,4.935,35.031-0.096,51.552-1.4
				c-0.393,0.796-0.462,1.77,0.002,2.655c5.248,10.012,5.228,22.806,4.956,33.832C131.112,139.896,114.554,141.198,97.053,139.757z
				 M142.812,183.94c-4.694,1.078-9.655,2.222-14.454,2.156c0.459-2.662,0.814-5.334,1.089-8.012
				c1.672,0.258,3.435,0.259,5.021,0.413c2.802,0.274,5.604,0.523,8.414,0.668C143.151,180.777,143.115,182.303,142.812,183.94z"/>
		</g>
		<path d="M83.103,43.513c0.12-1.083,0.237-2.17,0.382-3.275c0.705-5.376-9.054-5.38-8.353,0c0.191,1.478,0.315,3.019,0.397,4.57
			c-1.523,0.104-3.048,0.186-4.52,0.357c-2.557,0.296-2.557,3.68,0,3.976c1.479,0.171,3.013,0.254,4.546,0.358
			c-0.064,1.294-0.171,2.576-0.375,3.813c-0.483,2.932,3.744,5.346,5.2,2.192c0.759-1.644,1.23-3.305,1.613-4.978
			c0.162,0.051,0.336,0.07,0.496,0.127C88.097,52.619,88.289,42.454,83.103,43.513z"/>
		<path d="M121.224,42.375c-1.112-0.245-2.425-0.165-3.737-0.024c0.045-0.548,0.075-1.084,0.044-1.277
			c-0.288-1.775-1.823-3.146-3.646-3.146c-1.652,0-3.338,1.236-3.61,2.914c-0.108,0.672-0.113,1.351,0.004,2.01
			c-1.57,0.078-3.14,0.179-4.691,0.365c-3.283,0.394-3.283,4.713,0,5.107c1.748,0.209,3.514,0.297,5.277,0.374
			c0.108,1.329,0.212,2.659,0.321,3.987c0.285,3.476,5.114,3.476,5.398,0c0.096-1.172,0.188-2.343,0.283-3.514
			c1.534,0.167,3.086,0.276,4.357-0.005C124.594,48.42,124.594,43.12,121.224,42.375z"/>
		<path d="M114.194,120.714c-11.854,2.132-24.299,0.757-36.27,0.747c-5.835-0.005-5.831,8.994,0,9.046
			c8.042,0.072,16.076,0.464,24.121,0.424c5.125-0.025,12.169,0.485,16.07-3.479C121.123,124.394,118.015,120.028,114.194,120.714z"
			/>
		<path d="M84.963,99.583c-1.332-1.605-4.446-1.605-5.777,0c-2.088,2.516-1.524,5.382-1.178,8.421c0.597,5.231,7.537,5.231,8.134,0
			C86.487,104.965,87.051,102.099,84.963,99.583z"/>
		<path d="M104.602,109.898c-1.123-3.672-0.443-7.496-2.058-11.073c-1.006-2.23-4.197-2.747-6.139-1.61
			c-2.283,1.337-2.6,3.902-1.609,6.138c1.32,2.982,2.11,6.274,3.805,9.074C100.502,115.568,105.711,113.526,104.602,109.898z"/>
		<path d="M108.11,100.425c0.169,2.983,0.614,5.987,0.925,8.963c0.464,4.459,6.466,4.459,6.93,0c0.31-2.975,0.754-5.979,0.924-8.963
			C117.211,94.765,107.79,94.765,108.11,100.425z"/>
		<path d="M51.484,118.338c4.813-4.064,11.229-5.782,15.876-9.834c2.256-1.967-0.253-4.77-2.591-4.45
			c-1.789,0.245-3.619,0.875-5.432,1.721c-1.933-1.762-5.067-2.691-7.196-4.018c-3.306-2.059-6.296-4.587-8.833-7.541
			c-1.398-1.627-4.228,0.542-2.979,2.298c2.211,3.11,4.876,5.58,7.891,7.898c1.604,1.234,3.319,2.324,5.043,3.379
			c0.415,0.254,0.802,0.53,1.184,0.8c-1.894,1.3-3.695,2.751-5.315,4.197c-1.921-1.447-4.428-2.245-6.53-3.347
			c-2.828-1.483-5.375-3.28-7.85-5.287c-1.521-1.234-3.484,0.656-2.167,2.167c2.055,2.354,4.616,4.202,7.213,5.915
			c1.885,1.243,3.965,2.712,6.15,3.644c-1.149,1.239-2.148,2.572-3.023,3.971c-5.877-0.688-11.436-3.732-17.138-5.062
			c-1.66-0.387-2.887,2.098-1.208,2.867c4.293,1.967,8.716,3.676,13.102,5.422c1.008,0.401,2.065,0.797,3.122,1.036
			c-0.642,1.691-1.163,3.427-1.406,5.237c-8.109-4.243-19.065-2.925-26.367,2.107c-10.383,7.157-9.312,19.043-1.268,27.496
			c1.385,1.455,3.688,1.315,5.091,0c3.791-3.553,8.339-6.119,12.529-9.165c2.041,4.391,4.496,8.65,4.828,13.535
			c0.193,2.839,2.889,4.348,5.43,3.116c11.989-5.817,23.941-27.28,6.834-35.136c-1.227-0.562-2.572-0.318-3.609,0.344
			c-0.065-0.056-0.144-0.088-0.21-0.143C44.12,126.246,47.123,122.023,51.484,118.338z M47.113,148.358
			c-0.986,3.811-3.665,6.905-6.828,9.241c-1.574-4.98-4.33-9.42-5.921-14.591c-0.81-2.632-3.995-3.444-5.999-1.583
			c-4.107,3.815-9.041,6.558-13.497,9.933c-3.892-5.92-2.053-11.687,4.966-15.492c6.41-3.478,13.095-3.258,19.595-1.183
			c0.351,0.762,1.314,1.156,1.953,0.775c0.175,0.439,0.431,0.87,0.914,1.261C46.379,140.032,48.522,142.917,47.113,148.358z"/>
		<path d="M168.904,118.921c1.77-5.656-5.76-13.017-9.212-16.229C153.026,96.488,144,90.599,135.079,88.39
			c-1.806-0.447-3.101,2.253-1.308,3.1c4.148,1.959,8.03,4.206,11.716,6.764c-2.435,1.581-4.547,3.962-5.87,6.07
			c-1.168,1.861-1.773,3.948-1.74,5.998c-2.008-0.714-3.346,2.52-1.44,3.47c3.469,1.729,6.424,4.322,9.146,7.083
			c0.146,0.489,0.511,0.835,0.961,0.998c0.367,0.384,0.745,0.762,1.104,1.146c1.518,1.629,2.959,3.894,4.854,5.294
			c-2.957,3.767-4.683,8.254-3.654,12.554c-2.296,4.473,1.958,11.794,5.836,13.958c0.576,0.321,1.146,0.172,1.54-0.176
			c0.385,0.094,0.781,0.173,1.212,0.073c3.823-0.881,5.661-3.734,8.38-6.44c4.881-4.858,10.614-7.813,17.596-6.199
			c2.259,0.522,4.963-1.094,4.793-3.651C187.417,126.598,180.031,117.855,168.904,118.921z M146.962,115.828
			c-1.935-1.555-3.96-2.994-6.132-4.153c0.214-1.943,0.894-3.821,2.005-5.47c1.75-2.596,4.48-3.44,6.939-4.735
			c1.173,0.954,2.344,1.913,3.469,2.96c0.659,0.615,1.268,1.28,1.905,1.916c-2.109,0.691-3.838,2.548-5.18,4.231
			C148.7,112.165,147.748,113.958,146.962,115.828z M150.552,118.835c-0.249-0.217-0.509-0.431-0.76-0.649
			c0.821-1.688,1.783-3.296,3.054-4.733c1.523-1.726,3.562-2.508,5.239-3.982c1.021,1.178,2.031,2.364,2.923,3.649
			c1.474,2.125,1.941,4.661,3.283,6.773c-0.11,0.034-0.215,0.053-0.326,0.089c-2.547,0.836-5.183,2.422-7.569,4.406
			C154.929,122.189,152.389,120.436,150.552,118.835z M154.987,150.288c-0.455-0.758-0.89-1.525-1.196-2.395
			c-0.112-0.315-0.12-0.624-0.176-0.936c1.333-0.153,2.484-1.603,2.248-3.119c-1.163-7.477,2.028-13.328,9.246-16.34
			c7.524-3.139,12.792,0.266,14.724,6.719C169.363,134.283,160.353,141.241,154.987,150.288z"/>
	</g>
</g>
<g>
</g>
<g>
</g>
<g>
</g>
<g>
</g>
<g>
</g>
<g>
</g>
<g>
</g>
<g>
</g>
<g>
</g>
<g>
</g>
<g>
</g>
<g>
</g>
<g>
</g>
<g>
</g>
<g>
</g>
</svg>
