<?xml version="1.0" encoding="iso-8859-1"?>
<!-- Generator: Adobe Illustrator 16.0.0, SVG Export Plug-In . SVG Version: 6.00 Build 0)  -->
<!DOCTYPE svg PUBLIC "-//W3C//DTD SVG 1.1//EN" "http://www.w3.org/Graphics/SVG/1.1/DTD/svg11.dtd">
<svg version="1.1" id="Capa_1" xmlns="http://www.w3.org/2000/svg" xmlns:xlink="http://www.w3.org/1999/xlink" x="0px" y="0px"
	 width="194.792px" height="194.792px" viewBox="0 0 194.792 194.792" style="enable-background:new 0 0 194.792 194.792;"
	 xml:space="preserve">
<g>
	<g>
		<g>
			<path d="M187.54,138.997c-0.172-2.98-1.514-5.46-3.886-7.244c-0.392-0.295-0.813-0.531-1.242-0.754
				c-1.67-1.684-3.688-2.996-5.649-3.654c-0.597-0.199-1.208-0.346-1.828-0.442c-3.391-6.716-8.989-12.015-15.154-16.312
				c-0.144-0.1-0.321-0.209-0.473-0.312c1.168-1.38,0.224-3.112-1.445-3.328c-0.952-0.122-1.908,0.241-2.836,0.745
				c-4.822-2.566-10.791-4.572-15.168-2.453c-0.029,0.016-0.039,0.051-0.067,0.066c-1.17-1.961-2.497-3.715-4.032-5.119
				c0.404-0.678,0.823-1.326,1.169-2.137c2.724-6.382,5.129-16.98,5.572-27.716c0.331,0.483,0.857,0.848,1.634,0.89
				c3.25,0.178,6.599,0.113,9.854,0.457c2.112,2.984,5.828,4.514,9.538,4.18c4.563-0.411,8.894-3.088,10.141-7.701
				c1.741-6.44-3.595-12.542-7.995-16.456c-1.603-1.425-3.579-0.926-4.729,0.276c-0.609-0.137-1.272-0.021-1.82,0.556
				c-1.32,1.389-2.676,3.067-3.849,4.889c-0.391-0.314-0.875-0.526-1.532-0.447c-3.679,0.441-7.027-0.907-10.517-1.905
				c-0.715-0.205-1.256,0.008-1.624,0.39c-1.761-9.645-6.098-17.646-14.645-20.256c-4.827-1.474-10.644-0.821-15.85-0.557
				c-0.09-1.386-1.308-2.538-2.639-2.591c-0.085-0.338-0.195-0.67-0.257-1.023c-0.444-2.536-0.509-5.129-0.864-7.678
				c-0.025-0.175-0.17-0.257-0.248-0.395c1.774-0.733,3.416-1.7,4.616-3.12c3.14-3.715,3.003-8.771,0.838-12.917
				c-2.264-4.335-7.257-6.766-12.035-6.39c-1.572,0.124-3.572,0.581-5.234,1.433c-4.702,0.437-8.794,4.286-9.297,9.182
				c-0.569,5.546,3.037,9.829,7.841,11.876c-0.019,0.056-0.057,0.088-0.073,0.149c-0.407,1.498-1.429,5.897-1.539,9.827
				c-1.674-0.258-3.343-0.506-4.998-0.699c-9.193-1.073-23.512-2.097-27.427,8.442c-0.342,0.921-0.265,1.719,0.06,2.371
				c-1.357,4.455-2.556,10.111-3.332,16.157c-2.48-0.128-5.195,0.32-7.564,0.429c-0.225,0.01-0.397,0.089-0.591,0.14
				c-1.796-4.141-5.287-7.628-9.849-5.249c-1.439,0.751-1.629,2.856-0.509,3.953c1.001,0.981,2.588,1.522,3.435,2.622
				c1.046,1.358,1.372,3.013,1.436,4.688c0.11,2.861-0.723,6.875-3.432,8.38c-0.982,0.545-2.428-0.528-3.202-1.047
				c-2.183-1.464-2.768-3.17-2.246-5.684c0.686-3.306,3.359-6.241,2.753-9.737c-0.136-0.783-0.904-0.842-1.447-0.519
				c-0.007-0.026-0.014-0.052-0.021-0.078c0.082-0.044-1.22,0.352-1.529,0.512c-1.37,0.712-2.217,2.043-3.083,3.272
				c-1.938,2.752-3.298,6.312-3.159,9.705c0.272,6.675,8.794,12.287,14.927,9.557c2.855-1.271,4.743-3.852,5.887-6.797
				c2.281,0.684,5.168,1.034,7.35,0.473c0.312,12.17,3.386,23.779,11.858,29.418c-2.511,0.229-4.733,1.254-5.915,4.227
				c-0.166,0.418-0.289,0.879-0.44,1.312c-5.85-1.643-14.883,5.809-18.563,8.76c-6.868,5.508-13.331,13.283-15.507,22.029
				c-5.217-1.213-11.218-1.381-15.673,1.434c-7.203,4.551-3.896,13.784,0.562,18.995c1.425,1.666,4.395,0.128,4.099-1.899
				c2.787,1.541,5.943-1.09,4.479-4.279c-0.084-0.182-0.126-0.352-0.189-0.518c0.248-0.144,0.47-0.308,0.389-0.32
				c2.325-0.821,4.818-0.682,7.07-0.184c1.808,0.398,2.163,0.564,3.415,1.271c1.1,0.621,1.476,0.994,2.032,2.018
				c-0.137-0.252,0.24,1.121,0.174,0.514c0.039,0.357,0.025,0.719,0.012,1.078c-0.019,0.521,0.051-0.059-0.192,0.887
				c-0.568,2.209-2.316,3.953-2.14,6.597c0.019,0.284,0.137,0.528,0.217,0.791c-1.233,0.942-1.644,2.412-1.372,3.938
				c0.116,0.652,0.471,1.219,0.964,1.654c1.269,1.118,3.023,1.484,4.541,0.586c6.444-3.814,13.69-10.35,10.939-18.682
				c-0.734-2.223-2.027-4.117-3.622-5.766c2.02-5.013,5.561-8.957,9.789-12.496c1.39-1.164,3.296-2.267,5.226-3.43
				c0.07-0.007,0.134-0.037,0.203-0.049c-0.053,2.344-0.082,4.639-0.086,6.766c-0.017,7.517,3.515,11.774,8.544,14.267
				c-1.039,1.896-1.509,4.335-1.913,6.207c-0.811,3.749-1.26,7.884-0.837,11.706c0.003,0.025,0.018,0.044,0.021,0.068
				c-6.956,4.485-11.763,12.32-6.516,20.186c0.083,0.125,0.184,0.199,0.276,0.298c0.024,0.033,0.031,0.071,0.056,0.103
				c0.038,0.049,0.076,0.096,0.114,0.144c0.032,0.04,0.08,0.028,0.114,0.062c0.014,0.01,0.028,0.012,0.042,0.022
				c0.167,0.14,0.341,0.261,0.539,0.289c1.975,0.286,4.026,1.231,6.27,1.418c4.223,0.351,8.452,0.457,12.687,0.489
				c5.545,0.043,12.984,1.41,18.251-0.645c0.787-0.307,1.378-0.783,1.772-1.346c1.279-0.534,2.328-1.65,2.372-3.239
				c0.175-6.213-1.961-11.243-5.465-14.909c0.138-0.195,0.322-0.341,0.411-0.578c0.83-2.209,0.096-5.455-0.118-7.74
				c-0.256-2.732-0.535-5.496-0.567-8.241c3.216,0.377,6.75,0.907,10.462,1.411c-2.93,5.312-3.16,12.83-1.195,18.369
				c0.13,0.367,0.331,0.66,0.565,0.912c-0.629,0.727-1.267,1.449-1.768,2.283c-1.151,1.918-1.468,4.106-0.983,6.266
				c0.542,2.41,1.979,2.395,3.363,2.961c-0.476,1.775,0.354,3.854,2.621,3.555c6.803-0.896,13.474,0.111,20.264,0.512
				c4.448,0.264,9.855,0.996,12.585-3.255c0.846-1.317,0.351-2.771-0.662-3.69c0.314-0.537,0.535-1.131,0.521-1.826
				c-0.078-4.014-1.191-7.161-2.977-9.561c0.298-0.418,0.526-0.914,0.553-1.57c0.089-2.284,0.498-11.975-1.467-17.254
				c3.666-2.156,6.561-5.465,8.191-10.459c1.729-5.291,2.303-12.998,1.52-20.76c1.147,1.037,2.319,2.051,3.446,3.074
				c1.598,1.452,3.177,2.926,4.729,4.428c1.04,1.006,2.063,2.473,3.392,3.199c-1.4,2.163-2.268,4.626-2.172,7.264
				c0.218,5.994,5.471,10.022,11.116,10.623c0.638,0.068,1.099-0.254,1.457-0.682c0.159,0.053,0.318,0.13,0.477,0.178
				c2.76,0.811,5.478-3.17,2.977-5.115c-0.868-0.674-1.74-1.358-2.581-2.067c-0.907-0.765-1.224-1.187-1.557-1.735
				c-0.037-0.061-0.099-0.199-0.153-0.326c-0.049-0.152-0.085-0.308-0.122-0.463c0.09,0.205,0.086-0.311,0.022-0.349
				c0.012-0.041,0.021-0.083,0.032-0.124c-0.015,0.281,0.621-0.877,0.516-0.893c0.396-0.465,0.839-0.89,1.307-1.283
				c0.167-0.113,0.567-0.41,0.665-0.475c0.371-0.242,0.757-0.457,1.146-0.67c1.301-0.713,0.646-0.393,1.839-0.818
				c0.749-0.269,1.52-0.471,2.295-0.646c0.126-0.028,0.69-0.118,0.863-0.153c0.324-0.031,0.649-0.062,0.976-0.08
				c0.21-0.012,0.844,0.029,1.267,0.049c0.64,1.275,1.177,2.699,1.934,3.787c-0.22,1.429-0.072,3.093,0.772,4.289
				c0.719,1.018,1.809,1.578,3.067,1.248C186.824,146.338,187.723,142.164,187.54,138.997z M158.65,63.488
				c0.507-2.38,1.631-4.584,2.819-6.713c1.904,1.776,3.672,3.65,4.926,5.955c0.361,0.664,0.58,1.237,0.811,2.305
				c0.019,0.087,0.022,0.086,0.031,0.113c-0.004,0.048-0.005,0.151,0.004,0.377c0.005,0.174,0.004,0.348-0.004,0.522
				c-0.001,0.077,0.004,0.053,0.005,0.095c-0.036,0.209-0.106,0.409-0.17,0.612c-0.043,0.056-0.263,0.573-0.36,0.729
				c-0.034,0.054-0.02,0.041-0.03,0.062c-0.04,0.041-0.054,0.05-0.144,0.15c-0.098,0.107-0.47,0.422-0.576,0.526
				c-0.181,0.121-0.36,0.242-0.547,0.351c-0.135,0.077-0.271,0.149-0.41,0.218c-0.052,0.027-0.029,0.018-0.061,0.035
				c-0.004,0.002-0.001,0-0.005,0.002c-0.304,0.118-1.432,0.361-1.614,0.429c-0.549,0.054-1.101,0.049-1.651,0.007
				c0.135-0.077-1.913-0.564-1.025-0.186c-0.171-0.073-0.331-0.168-0.493-0.258c-0.042-0.313-0.081-0.634-0.243-0.89
				c-0.204-0.321-0.441-0.616-0.688-0.905c-0.201-0.236-0.494-0.301-0.754-0.431c-0.11-0.33-0.015,0.17-0.059-0.599
				C158.353,64.996,158.485,64.264,158.65,63.488z M142.294,58.462c3.559,1.415,6.942,2.826,10.735,3.486
				c-0.544,1.564-0.812,3.17-0.756,4.769c-2.71,0.177-5.459,0.161-8.141,0.308c-0.727,0.04-1.241,0.358-1.577,0.793
				c0.036-3.213-0.081-6.415-0.47-9.488C142.16,58.371,142.211,58.429,142.294,58.462z M55.731,67.954
				c-0.538-0.003-1.085,0.131-1.579,0.463c-1.275,0.859-3.033,0.834-4.678,0.566c0.181-1.26,0.27-2.51,0.237-3.68
				c-0.004-0.135-0.042-0.292-0.051-0.431c2.007,0.141,4.202,0.454,6.278,0.424C55.875,66.186,55.77,67.059,55.731,67.954z
				 M38.815,144.512c-2.299-1.483-4.825-2.655-7.278-3.547c1.151-2.761,2.825-5.297,4.678-7.721
				c0.992,0.362,1.927,0.848,2.792,1.553c1.143,0.934,2.006,2.107,3.147,2.99C40.73,139.875,39.581,142.12,38.815,144.512z
				 M47.28,131.918c-0.79,0.727-1.525,1.502-2.244,2.289c-1.114-1.277-2.697-2.285-4.048-3.193c-0.664-0.446-1.41-0.694-2.14-0.981
				c2.155-2.397,4.46-4.651,6.764-6.713c2.1,0.76,4.097,1.705,5.851,3.124c0.389,0.314,0.73,0.697,1.065,1.089
				C50.721,128.926,48.958,130.377,47.28,131.918z M58.481,123.18c-0.637,0.428-1.235,0.873-1.846,1.32
				c-0.576-0.451-1.176-0.875-1.761-1.287c-1.699-1.195-3.651-2.041-5.656-2.685c2.149-1.546,4.383-2.97,6.761-4.142
				c1.089-0.537,2.312-0.795,3.499-1.101C58.998,117.834,58.707,120.5,58.481,123.18z M92.053,12.311
				c-0.103-1.803,0.664-3.231,1.764-4.463c1.118,0.479,2.607,0.536,3.775,0.144c3.865-1.296,8.099-1.281,9.722,3.254
				c1.723,4.811-3.216,6.551-7.115,6.653C96.664,17.992,92.286,16.377,92.053,12.311z M103.979,23.9
				c-0.456,3.464-0.687,7.148-0.498,10.639c-1.894-0.165-3.791-0.397-5.688-0.676c-0.025-0.513-0.011-1.032-0.029-1.483
				c-0.106-2.643,0.126-5.331,0.638-7.922c0.018-0.089-0.008-0.162,0.001-0.248C100.228,24.412,102.129,24.254,103.979,23.9z
				 M65.481,44.165c0.028-0.023,0.064-0.03,0.092-0.054c11.693-9.883,38.533-0.9,53.211-1.239
				c21.926-0.507,15.071,38.635,10.726,52.053c-3.032,9.361-44.722,5.015-52.88,3.893C57.533,96.19,63.332,59.332,65.481,44.165z
				 M77.342,186.09c-4.761,0.037-11.41-0.682-16.429,0.852c0.308-7.275,6.894-11.324,14.008-12.66
				c9.533-1.79,14.509,3.844,16.759,11.54C87.015,185.252,81.62,186.057,77.342,186.09z M88.186,165.43
				c0.211,1.242,0.363,2.721,0.622,4.166c-4.589-2.383-10.16-3.287-15.848-2.426c-1.515,0.229-3.073,0.678-4.613,1.277
				c0.337-2.328,0.709-4.643,1.303-6.947c0.571-2.212,2.047-4.398,2.737-6.605c4.797,1.143,10.123,1.436,14.876,1.675
				c-0.015,0.151-0.082,0.265-0.079,0.427C87.241,159.836,87.71,162.635,88.186,165.43z M106.961,186.938
				c-0.031-0.516-0.081-1.069-0.1-1.373c-0.053-0.906,0.75-1.838,1.291-2.463c2.082-2.404,5.345-4.064,8.267-5.174
				c6.999-2.655,15.315-2.414,15.667,6.674c0.008,0.216,0.057,0.445,0.1,0.673C123.82,184.829,114.574,184.35,106.961,186.938z
				 M108.256,173.963c0.11-4.586,0.684-8.648,2.588-13.092c0.231-0.541,0.312-1.061,0.312-1.559
				c6.283,0.615,12.629,0.752,18.137-0.534c0.152,0.628,0.322,1.239,0.461,1.785c0.838,3.313,1.337,6.751,1.664,10.177
				c-4.812-2.158-11.055-1.995-16.943,0.133C112.319,171.652,110.209,172.698,108.256,173.963z M101.18,149.316
				c-10.186-1.179-22.499,1.065-32.032-3.362c-4.174-1.939-4.964-11.557-3.776-20.895c0.051-0.118,0.139-0.223,0.183-0.346
				c0.158-0.433,0.149-0.851,0.046-1.24c1.274-8.383,4.086-16.172,7.461-17.48c0.055-0.021,0.084-0.082,0.135-0.111
				c0.466,0.133,0.874,0.338,1.364,0.444c13.039,2.854,27.227,1.067,40.476,1.146c5.398,0.031,10.434,0.039,14.548-1.739
				c6.636,7.84,7.628,21.56,7.59,31.185C137.097,156.594,113.548,150.747,101.18,149.316z M144.302,117.283
				c-0.521-2.269-1.128-4.491-1.919-6.563c2.292,0.873,4.63,1.555,6.949,2.386c-1.215,1.815-2.06,3.87-2.466,6.003
				c-0.037-0.029-0.075-0.057-0.113-0.086C145.967,118.415,145.141,117.822,144.302,117.283z M153.759,124.287
				c-0.429-0.299-0.83-0.582-1.159-0.831c-1.122-0.851-2.243-1.703-3.365-2.553c0.182-0.168,0.391-0.285,0.503-0.566
				c0.837-2.088,2.005-3.91,3.475-5.559c0.537,0.271,1.08,0.504,1.608,0.822c1.786,1.076,3.393,2.324,4.92,3.646
				c0.018,0.058,0.06,0.108,0.082,0.165c-0.008,0.006-0.029,0.023-0.035,0.028c-0.693,0.571-1.48,1.051-2.22,1.56
				C156.203,121.936,154.732,122.92,153.759,124.287z M162.366,130.381c-0.345,0.244-0.678,0.516-1.014,0.782
				c-0.846-1.677-2.625-3.259-4.442-4.633c2.189-1.136,4.513-2.239,6.522-3.619c1.365,1.556,2.653,3.179,3.789,4.931
				C165.461,128.487,163.799,129.368,162.366,130.381z"/>
			<path d="M87.991,194.792c-1.968,0-3.964-0.131-5.895-0.258c-1.69-0.111-3.286-0.216-4.757-0.228
				c-3.491-0.026-8.092-0.106-12.725-0.491c-1.307-0.108-2.529-0.459-3.71-0.797c-0.903-0.259-1.756-0.504-2.59-0.624
				c-0.304-0.044-0.545-0.203-0.742-0.363l-0.108-0.036l-0.379-0.444c-0.075-0.071-0.169-0.161-0.256-0.292
				c-2.045-3.065-2.736-6.285-2.054-9.57c0.851-4.096,3.921-8.14,8.444-11.135c-0.344-3.398-0.044-7.415,0.87-11.637l0.091-0.427
				c0.358-1.675,0.796-3.726,1.636-5.458c-5.646-2.967-8.385-7.711-8.37-14.484c0.003-1.881,0.026-3.876,0.068-5.943l-0.067,0.04
				c-1.706,1.023-3.317,1.99-4.523,3.001c-4.718,3.948-7.753,7.771-9.524,12.002c1.685,1.798,2.835,3.671,3.511,5.719
				c3.043,9.217-5.685,16.029-11.159,19.27c-1.594,0.942-3.634,0.674-5.126-0.642c-0.606-0.535-0.995-1.206-1.126-1.941
				c-0.298-1.673,0.167-3.179,1.28-4.19c-0.06-0.175-0.117-0.37-0.132-0.594c-0.119-1.792,0.563-3.17,1.224-4.503
				c0.376-0.76,0.732-1.479,0.931-2.252c0.091-0.355,0.144-0.516,0.173-0.597l0.003-0.184c0.009-0.257,0.017-0.49,0.01-0.714
				c-0.15-0.256-0.202-0.603-0.219-0.771c-0.464-0.823-0.793-1.127-1.755-1.67c-1.19-0.672-1.504-0.828-3.277-1.219
				c-2.499-0.553-4.728-0.519-6.618,0.106c-0.039,0.04-0.083,0.079-0.133,0.116c0.013,0.033,0.026,0.066,0.042,0.101
				c0.602,1.311,0.547,2.684-0.149,3.77c-0.893,1.393-2.698,2.01-4.31,1.473c-0.087,0.442-0.296,0.864-0.618,1.236
				c-0.596,0.689-1.516,1.118-2.4,1.118c-0.761,0-1.448-0.313-1.935-0.883c-2.659-3.108-5.505-8.459-4.773-13.308
				c0.41-2.717,1.865-4.882,4.324-6.436c2.46-1.555,5.541-2.343,9.154-2.343c2.024,0,4.183,0.248,6.423,0.737
				c2.757-10.333,10.901-18.091,15.557-21.824l0.34-0.273c3.567-2.866,10.99-8.83,16.744-8.83c0.508,0,0.998,0.047,1.46,0.14
				c0.009-0.026,0.017-0.053,0.025-0.079c0.088-0.28,0.177-0.561,0.282-0.824c0.948-2.384,2.617-3.816,5.083-4.352
				c-8.484-6.451-10.721-18.837-11.043-28.493c-1.838,0.33-4.283,0.141-6.573-0.484c-1.339,3.207-3.399,5.501-5.979,6.649
				c-1.117,0.498-2.339,0.75-3.632,0.75c-5.942,0-11.772-5.221-11.998-10.743c-0.133-3.242,1.052-6.892,3.25-10.013l0.224-0.32
				c0.824-1.18,1.677-2.4,3.037-3.108c0.24-0.124,1.551-0.571,1.761-0.571h0.086c0.513-0.183,1.061-0.106,1.414,0.188
				c-0.006-0.19,0.005-0.382,0.034-0.574c0.14-0.941,0.674-1.718,1.466-2.131c1.058-0.551,2.116-0.831,3.145-0.831
				c2.856,0,5.469,2.152,7.214,5.924c0.087-0.02,0.184-0.035,0.291-0.04c0.835-0.039,1.714-0.12,2.612-0.203
				c1.494-0.138,3.05-0.277,4.537-0.244c0.742-5.609,1.886-11.125,3.236-15.604c-0.333-0.789-0.332-1.677,0.004-2.581
				c2.352-6.332,8.444-9.41,18.624-9.41c3.352,0,6.597,0.326,9.33,0.645c1.423,0.166,2.834,0.369,4.462,0.617
				c0.167-3.415,0.959-7.185,1.467-9.126c-5.295-2.427-8.242-7.064-7.716-12.198c0.513-4.989,4.653-9.108,9.652-9.62
				c1.518-0.761,3.504-1.299,5.337-1.443c5.187-0.405,10.246,2.307,12.518,6.657c2.47,4.73,2.125,9.892-0.899,13.471
				c-1.018,1.204-2.419,2.199-4.273,3.03c0.008,0.029,0.014,0.059,0.019,0.091c0.156,1.121,0.258,2.26,0.356,3.361
				c0.126,1.419,0.257,2.887,0.505,4.302c0.039,0.22,0.098,0.431,0.156,0.641l0.002,0.007c1.289,0.215,2.377,1.251,2.672,2.529
				c0.609-0.033,1.226-0.071,1.848-0.108c1.969-0.119,4.005-0.242,6.012-0.242c3.132,0,5.581,0.303,7.71,0.953
				c7.712,2.355,12.705,9.049,14.85,19.903c0.423-0.169,0.908-0.185,1.41-0.04c0.604,0.172,1.203,0.355,1.801,0.538
				c2.414,0.737,4.694,1.434,7.116,1.434c0.475,0,0.946-0.028,1.402-0.083c0.547-0.065,1.008,0.021,1.447,0.251
				c1.058-1.585,2.306-3.147,3.631-4.542c0.544-0.573,1.258-0.832,2.014-0.747c1.473-1.362,3.706-1.47,5.229-0.114
				c6.811,6.057,9.551,11.763,8.146,16.959c-1.197,4.431-5.35,7.598-10.578,8.069c-3.91,0.355-7.679-1.275-9.856-4.204
				c-1.949-0.194-3.965-0.248-5.915-0.3c-1.238-0.033-2.473-0.065-3.693-0.133c-0.429-0.023-0.817-0.13-1.157-0.316
				c-0.516,9.629-2.668,20.059-5.562,26.84c-0.3,0.703-0.651,1.288-0.992,1.852c1.274,1.222,2.449,2.714,3.576,4.541
				c3.756-1.622,8.916-0.733,15.055,2.488c0.747-0.385,1.822-0.812,2.899-0.676c1.037,0.134,1.896,0.773,2.242,1.667
				c0.26,0.668,0.199,1.382-0.158,2.021c0.019,0.013,0.037,0.025,0.056,0.037c7.163,4.993,12.138,10.317,15.2,16.271
				c0.566,0.101,1.122,0.241,1.655,0.419c2.009,0.674,4.062,1.994,5.791,3.722c0.387,0.202,0.829,0.449,1.243,0.762
				c2.492,1.875,3.905,4.508,4.084,7.615c0.208,3.604-0.895,7.803-4.612,8.777c-0.281,0.074-0.563,0.111-0.841,0.111l0,0
				c-1.073,0-2.054-0.552-2.762-1.555c-0.792-1.12-1.111-2.735-0.887-4.457c-0.493-0.748-0.895-1.623-1.284-2.471
				c-0.147-0.319-0.294-0.639-0.445-0.952l-0.062-0.003c-0.296-0.016-0.609-0.032-0.793-0.032c-0.385,0.02-0.704,0.049-1.021,0.08
				c-0.034,0.01-0.212,0.04-0.389,0.07c-0.176,0.029-0.351,0.059-0.413,0.073c-0.888,0.2-1.599,0.399-2.235,0.628
				c-0.331,0.118-0.523,0.181-0.653,0.223c-0.226,0.072-0.226,0.072-0.641,0.303l-0.474,0.261c-0.377,0.207-0.752,0.415-1.112,0.65
				c-0.042,0.027-0.149,0.105-0.268,0.191c-0.143,0.104-0.3,0.217-0.391,0.278c-0.406,0.345-0.783,0.71-1.117,1.09
				c-0.073,0.229-0.242,0.642-0.476,0.922c0.011,0.153-0.01,0.29-0.02,0.347c0.017,0.064,0.034,0.126,0.054,0.187
				c0.026,0.056,0.073,0.166,0.104,0.219c0.283,0.467,0.554,0.855,1.452,1.613c0.787,0.663,1.595,1.301,2.565,2.055
				c1.073,0.834,1.444,2.119,0.992,3.438c-0.639,1.859-2.672,3.065-4.416,2.552c-0.068-0.021-0.136-0.045-0.202-0.07
				c-0.482,0.457-1.021,0.655-1.645,0.592c-5.566-0.592-11.326-4.596-11.562-11.102c-0.087-2.411,0.579-4.804,1.981-7.121
				c-0.791-0.54-1.458-1.281-2.107-2.001c-0.318-0.353-0.629-0.698-0.941-1c-1.478-1.431-3.021-2.875-4.717-4.417
				c-0.589-0.535-1.19-1.066-1.794-1.601c-0.234-0.208-0.469-0.415-0.703-0.623c0.603,7.348-0.003,14.631-1.657,19.694
				c-1.506,4.612-4.217,8.149-8.06,10.521c1.206,3.551,1.664,9.252,1.363,16.957c-0.025,0.63-0.173,1.149-0.451,1.633
				c1.832,2.593,2.798,5.81,2.871,9.567c0.012,0.589-0.122,1.163-0.406,1.746c0.933,1.028,1.401,2.596,0.468,4.051
				c-2.107,3.282-5.666,3.703-8.53,3.703c-1.162,0-2.328-0.077-3.456-0.152l-1.049-0.067c-1.659-0.098-3.311-0.231-4.958-0.365
				c-3.068-0.249-6.24-0.506-9.357-0.506c-2.119,0-4.033,0.116-5.854,0.356c-1.156,0.155-2.061-0.205-2.664-0.992
				c-0.542-0.706-0.759-1.725-0.6-2.741c-0.11-0.038-0.22-0.074-0.329-0.11c-1.143-0.378-2.438-0.807-2.945-3.059
				c-0.522-2.331-0.162-4.625,1.043-6.633c0.448-0.746,0.998-1.404,1.543-2.035c-0.164-0.231-0.291-0.475-0.384-0.735
				c-2.051-5.781-1.678-12.965,0.894-18.137c-0.948-0.131-1.885-0.262-2.807-0.392c-2.236-0.313-4.36-0.61-6.372-0.854
				c0.055,2.33,0.279,4.7,0.495,6.998l0.06,0.632c0.045,0.489,0.115,1.022,0.188,1.58c0.278,2.126,0.594,4.535-0.1,6.383
				c-0.058,0.152-0.137,0.275-0.216,0.38c3.634,3.97,5.465,9.127,5.302,14.945c-0.044,1.583-0.993,2.931-2.548,3.63
				c-0.466,0.615-1.125,1.1-1.914,1.407C93.74,194.422,91.266,194.792,87.991,194.792z M58.057,191.156
				c0.025,0.013,0.058,0.03,0.092,0.057c0.072,0.06,0.215,0.18,0.307,0.192c0.902,0.131,1.787,0.385,2.723,0.652
				c1.135,0.325,2.308,0.662,3.518,0.763c4.599,0.382,9.176,0.461,12.649,0.487c1.5,0.012,3.11,0.117,4.814,0.229
				c1.915,0.126,3.894,0.256,5.83,0.256c3.147,0,5.505-0.349,7.421-1.096c0.655-0.255,1.188-0.658,1.544-1.167l0.083-0.118
				l0.134-0.056c0.604-0.253,2.016-1.03,2.064-2.792c0.161-5.705-1.681-10.736-5.327-14.55l-0.285-0.298l0.238-0.337
				c0.056-0.079,0.117-0.151,0.179-0.224c0.081-0.093,0.144-0.167,0.172-0.241c0.606-1.614,0.308-3.892,0.044-5.901
				c-0.075-0.57-0.146-1.116-0.193-1.616l-0.059-0.632c-0.236-2.506-0.48-5.096-0.51-7.65l-0.006-0.568l0.564,0.065
				c2.19,0.257,4.508,0.582,6.962,0.926c1.148,0.161,2.319,0.325,3.509,0.487l0.723,0.098l-0.353,0.639
				c-2.699,4.895-3.177,12.28-1.161,17.961c0.095,0.269,0.241,0.503,0.46,0.738l0.306,0.329l-0.388,0.447
				c-0.602,0.694-1.169,1.35-1.623,2.105c-1.07,1.782-1.39,3.822-0.924,5.898c0.382,1.699,1.18,1.963,2.283,2.328
				c0.258,0.086,0.521,0.173,0.781,0.279l0.407,0.167l-0.113,0.425c-0.231,0.863-0.104,1.753,0.332,2.321
				c0.386,0.501,0.97,0.709,1.74,0.608c1.864-0.245,3.821-0.364,5.984-0.364c3.157,0,6.351,0.259,9.438,0.509
				c1.641,0.134,3.284,0.267,4.936,0.364l1.057,0.067c1.111,0.074,2.26,0.15,3.39,0.15c2.61,0,5.843-0.369,7.688-3.244
				c0.756-1.177,0.161-2.379-0.577-3.05l-0.301-0.272l0.205-0.351c0.319-0.545,0.464-1.042,0.453-1.563
				c-0.071-3.682-1.04-6.802-2.878-9.271l-0.217-0.292l0.211-0.297c0.295-0.414,0.441-0.827,0.46-1.301
				c0.387-9.891-0.567-14.727-1.436-17.059l-0.146-0.394l0.361-0.212c3.868-2.275,6.476-5.606,7.97-10.184
				c1.709-5.229,2.269-12.914,1.498-20.555l-0.131-1.291l0.963,0.87c0.545,0.493,1.096,0.98,1.645,1.466
				c0.606,0.537,1.211,1.071,1.803,1.609c1.704,1.549,3.255,3.001,4.74,4.438c0.328,0.317,0.654,0.679,0.988,1.049
				c0.713,0.791,1.451,1.609,2.296,2.071l0.472,0.258l-0.292,0.452c-1.474,2.276-2.178,4.622-2.092,6.974
				c0.216,5.938,5.53,9.598,10.669,10.145c0.382,0.038,0.694-0.115,1.021-0.506l0.218-0.26l0.322,0.106
				c0.083,0.027,0.165,0.061,0.248,0.093c0.072,0.029,0.144,0.06,0.216,0.081c1.223,0.361,2.719-0.561,3.185-1.918
				c0.183-0.534,0.341-1.546-0.659-2.324c-0.98-0.761-1.797-1.405-2.597-2.08c-0.925-0.778-1.285-1.236-1.662-1.857
				c-0.043-0.071-0.119-0.236-0.185-0.388c-0.066-0.2-0.104-0.357-0.142-0.515l0.219-0.081l-0.304-0.183l0.105-0.369l0.013,0.002
				l0.001-0.015l0.316,0.017l-0.298-0.127l0.108-0.382l-0.078-0.012l0.123-0.145l1.056-3.703l-0.139,2.662
				c0.275-0.283,0.577-0.562,0.91-0.843c0.126-0.088,0.272-0.194,0.407-0.292c0.133-0.097,0.256-0.185,0.305-0.217
				c0.384-0.251,0.78-0.473,1.181-0.691l0.469-0.259c0.463-0.256,0.501-0.277,0.818-0.38c0.124-0.04,0.308-0.1,0.624-0.212
				c0.676-0.242,1.424-0.453,2.353-0.662c0.07-0.017,0.268-0.05,0.465-0.084c0.164-0.028,0.33-0.056,0.409-0.072
				c0.383-0.039,0.714-0.07,1.047-0.089l0.122-0.003c0.196,0,0.53,0.017,0.846,0.033l0.643,0.031l0.132,0.262
				c0.202,0.405,0.396,0.824,0.588,1.244c0.4,0.871,0.814,1.771,1.309,2.482l0.114,0.164l-0.03,0.197
				c-0.237,1.54,0.014,2.971,0.687,3.925c0.649,0.918,1.567,1.304,2.532,1.053c3.134-0.821,4.053-4.544,3.868-7.754
				c-0.162-2.804-1.437-5.181-3.688-6.873c-0.381-0.287-0.806-0.52-1.172-0.71l-0.125-0.091c-1.632-1.646-3.568-2.9-5.453-3.533
				c-0.56-0.187-1.147-0.328-1.746-0.422l-0.254-0.04l-0.115-0.229c-2.976-5.894-7.88-11.169-14.994-16.127l-0.928-0.62l0.359-0.425
				c0.39-0.46,0.5-0.983,0.311-1.473c-0.215-0.552-0.766-0.949-1.438-1.036c-0.724-0.097-1.495,0.124-2.533,0.688l-0.236,0.128
				l-0.237-0.126c-4.037-2.148-7.746-3.284-10.725-3.284c-1.457,0-2.768,0.268-3.898,0.796l-0.008,0.011l-0.551,0.32l-0.248-0.415
				c-1.238-2.076-2.527-3.714-3.94-5.006l-0.301-0.275l0.404-0.674c0.343-0.567,0.666-1.104,0.943-1.753
				c2.956-6.927,5.128-17.737,5.532-27.541l0.042-1.016l-0.003,0.004l0.017-1.493c0.04-3.545-0.112-6.626-0.466-9.42l-0.123-0.976
				l0.861,0.476c0.051,0.028,0.097,0.06,0.141,0.093l0.721,0.295c3.311,1.32,6.437,2.567,9.926,3.174l0.58,0.101l-0.193,0.556
				c-0.536,1.541-0.781,3.084-0.729,4.587l0.017,0.485l-0.484,0.032c-1.475,0.096-2.978,0.136-4.432,0.175
				c-1.245,0.033-2.486,0.066-3.714,0.133c-0.517,0.029-0.924,0.23-1.209,0.6l-0.722,0.935l0.683,0.996
				c0.286,0.417,0.706,0.644,1.249,0.673c1.211,0.067,2.437,0.099,3.665,0.132c2.044,0.054,4.157,0.11,6.215,0.328l0.225,0.023
				l0.131,0.185c1.951,2.756,5.446,4.298,9.085,3.971c4.807-0.433,8.615-3.312,9.703-7.333c1.298-4.801-1.342-10.167-7.845-15.952
				c-1.213-1.079-2.929-0.909-4.035,0.248l-0.195,0.204l-0.275-0.062c-0.517-0.115-0.979,0.023-1.349,0.412
				c-1.4,1.474-2.711,3.139-3.791,4.815l-0.3,0.467l-0.434-0.348c-0.358-0.288-0.709-0.395-1.159-0.34
				c-0.496,0.059-1.008,0.089-1.521,0.089c-2.571,0-5.03-0.751-7.408-1.477c-0.592-0.181-1.186-0.362-1.784-0.533
				c-0.457-0.131-0.835-0.047-1.126,0.256l-0.677,0.702l-0.176-0.959c-1.988-10.893-6.799-17.578-14.299-19.868
				c-2.03-0.62-4.388-0.909-7.417-0.909c-1.977,0-3.997,0.122-5.951,0.24c-0.779,0.047-1.551,0.094-2.31,0.133l-0.492,0.025
				l-0.032-0.492c-0.071-1.107-1.061-2.08-2.159-2.124l-0.374-0.015l-0.178-0.686c-0.067-0.241-0.134-0.484-0.178-0.736
				c-0.256-1.456-0.389-2.945-0.517-4.386c-0.098-1.089-0.198-2.215-0.351-3.309c-0.086-0.067-0.143-0.137-0.188-0.217l-0.28-0.493
				l0.524-0.216c1.97-0.814,3.417-1.789,4.425-2.981c2.758-3.263,3.055-8,0.776-12.363c-2.089-4.001-6.753-6.494-11.553-6.123
				c-1.742,0.137-3.628,0.653-5.045,1.379L95.331,2.47c-4.575,0.425-8.378,4.181-8.846,8.735c-0.591,5.759,3.507,9.646,7.54,11.365
				l0.427,0.182L94.22,23.36c-0.499,1.855-1.402,6.045-1.503,9.66l-0.016,0.566l-0.56-0.086c-1.855-0.286-3.413-0.514-4.98-0.697
				c-2.704-0.315-5.913-0.638-9.213-0.638c-9.712,0-15.498,2.865-17.687,8.758c-0.268,0.721-0.255,1.384,0.039,1.973l0.089,0.178
				l-0.058,0.19c-1.395,4.579-2.572,10.288-3.314,16.075l-0.059,0.46l-0.463-0.024c-1.567-0.082-3.242,0.075-4.856,0.223
				c-0.913,0.084-1.808,0.167-2.659,0.206c-0.095,0.004-0.185,0.032-0.298,0.068l-0.604,0.165l-0.17-0.394
				c-0.747-1.72-2.871-5.722-6.477-5.722c-0.867,0-1.769,0.242-2.683,0.718c-0.505,0.264-0.848,0.771-0.939,1.391
				c-0.099,0.669,0.106,1.328,0.549,1.761c0.402,0.395,0.92,0.718,1.468,1.061c0.73,0.456,1.485,0.928,2.013,1.614
				c0.969,1.258,1.458,2.838,1.54,4.974c0.118,3.065-0.778,7.219-3.689,8.836c-0.255,0.142-0.543,0.213-0.857,0.213
				c-0.978,0-2.013-0.703-2.698-1.168l-0.168-0.114c-2.304-1.545-3.039-3.399-2.458-6.201c0.271-1.307,0.837-2.551,1.384-3.754
				c0.882-1.942,1.716-3.777,1.366-5.796c-0.059-0.34-0.391-0.358-0.699-0.175l-0.572,0.341l-0.061-0.233
				c-0.334,0.11-0.801,0.267-0.943,0.34c-1.141,0.593-1.922,1.711-2.677,2.792l-0.227,0.324c-2.074,2.944-3.192,6.369-3.068,9.396
				c0.205,5.029,5.55,9.784,10.999,9.784c1.153,0,2.238-0.223,3.226-0.663c3.089-1.375,4.763-4.306,5.624-6.521l0.167-0.431
				l0.442,0.133c2.492,0.748,5.244,0.941,7.082,0.468l0.608-0.156l0.016,0.628c0.253,9.872,2.477,22.919,11.635,29.015l1.181,0.785
				l-1.412,0.129c-2.789,0.254-4.535,1.497-5.495,3.913c-0.096,0.242-0.177,0.499-0.258,0.756c-0.057,0.181-0.114,0.36-0.175,0.537
				l-0.155,0.443l-0.453-0.127c-0.508-0.143-1.065-0.215-1.657-0.215c-5.402,0-12.64,5.815-16.118,8.61l-0.34,0.272
				c-4.628,3.712-12.775,11.476-15.334,21.761l-0.119,0.478l-0.479-0.111c-2.336-0.544-4.582-0.819-6.673-0.819
				c-3.421,0-6.321,0.736-8.62,2.188c-2.203,1.392-3.504,3.322-3.869,5.739c-0.682,4.516,2.022,9.56,4.544,12.508
				c0.376,0.44,0.847,0.533,1.175,0.533c0.602,0,1.232-0.296,1.644-0.772c0.23-0.266,0.487-0.701,0.405-1.263l-0.146-0.998
				l0.883,0.488c1.335,0.738,2.95,0.349,3.7-0.822c0.516-0.805,0.545-1.803,0.083-2.811c-0.061-0.132-0.104-0.26-0.145-0.384
				l-0.107-0.299l-1.125-0.177l1.866-0.659c2.104-0.743,4.584-0.811,7.344-0.2c1.822,0.401,2.239,0.582,3.553,1.324
				c1.185,0.669,1.622,1.104,2.225,2.213v0.001c0,0,0,0,0,0.001l-0.379,0.206l0.408-0.012c0.011,0.085,0.095,0.39,0.128,0.464
				l-0.14,0.063l0.214-0.024c0,0.007,0.001,0.014,0.002,0.021c0.001,0.011,0.002,0.021,0.003,0.032
				c0.035,0.366,0.023,0.724,0.01,1.069l-0.004,0.224l0,0.1l-0.05,0.17c-0.016,0.04-0.055,0.14-0.154,0.528
				c-0.225,0.875-0.621,1.674-1.004,2.446c-0.629,1.271-1.223,2.47-1.122,3.993c0.009,0.136,0.059,0.276,0.116,0.439
				c0.028,0.079,0.056,0.158,0.08,0.239l0.102,0.332l-0.276,0.211c-1.021,0.78-1.441,2.007-1.184,3.453
				c0.091,0.511,0.369,0.983,0.803,1.367c1.17,1.032,2.726,1.259,3.955,0.53c5.215-3.087,13.542-9.543,10.719-18.094
				c-0.658-1.992-1.805-3.816-3.507-5.575l-0.226-0.233l0.121-0.301c1.817-4.509,4.973-8.542,9.932-12.693
				c1.266-1.06,2.91-2.047,4.651-3.091l1.015-0.497l0.598-0.102l-0.014,0.606c-0.053,2.356-0.082,4.63-0.086,6.755
				c-0.015,6.534,2.689,11.054,8.266,13.817l0.467,0.231l-0.25,0.457c-0.926,1.689-1.395,3.882-1.771,5.644l-0.092,0.429
				c-0.907,4.19-1.195,8.161-0.835,11.488l0.027,0.121l0.037,0.311l-0.263,0.169c-4.447,2.867-7.464,6.758-8.277,10.675
				c-0.626,3.013,0.015,5.979,1.907,8.813c0.026,0.039,0.063,0.074,0.114,0.123L58.057,191.156z M37.334,58.528
				c0.083,1.986-0.736,3.789-1.532,5.539c-0.524,1.153-1.066,2.345-1.314,3.543c-0.499,2.402,0.072,3.851,2.035,5.167l0.173,0.117
				c0.708,0.481,1.907,1.24,2.507,0.908c2.354-1.308,3.291-4.922,3.175-7.924c-0.073-1.918-0.497-3.317-1.333-4.402
				c-0.419-0.543-1.066-0.948-1.751-1.376c-0.569-0.355-1.158-0.723-1.638-1.194C37.538,58.79,37.43,58.663,37.334,58.528z
				 M142.687,59.157c0.254,2.317,0.377,4.828,0.375,7.625c0.313-0.148,0.663-0.235,1.044-0.256c1.236-0.068,2.487-0.102,3.742-0.135
				c1.288-0.034,2.614-0.07,3.919-0.144c0.005-1.291,0.21-2.602,0.61-3.911c-3.361-0.655-6.376-1.857-9.558-3.126L142.687,59.157z
				 M60.384,187.626l0.03-0.706c0.278-6.579,5.667-11.487,14.415-13.13c8.553-1.608,14.605,2.569,17.331,11.891l0.213,0.729
				l-0.753-0.092c-1.1-0.134-2.307-0.199-3.692-0.199c-1.926,0-3.895,0.126-5.798,0.249c-1.693,0.108-3.292,0.211-4.783,0.223
				l-0.377,0.001c-1.053,0-2.189-0.031-3.374-0.064c-1.281-0.035-2.618-0.073-3.968-0.073c-3.738,0-6.38,0.298-8.568,0.967
				L60.384,187.626z M78.319,174.448c-1.044,0-2.157,0.109-3.306,0.325c-7.94,1.491-12.946,5.762-13.549,11.493
				c2.145-0.56,4.704-0.812,8.163-0.812c1.359,0,2.706,0.038,3.996,0.074c1.175,0.032,2.302,0.063,3.346,0.063l0.369-0.001
				c1.463-0.012,3.048-0.113,4.727-0.221c1.919-0.123,3.904-0.251,5.862-0.251c1.116,0,2.122,0.041,3.054,0.126
				C88.688,178.08,84.432,174.448,78.319,174.448z M106.502,187.623l-0.04-0.654c-0.018-0.291-0.041-0.594-0.062-0.855l-0.038-0.518
				c-0.064-1.114,0.824-2.141,1.412-2.82c1.797-2.075,4.646-3.863,8.467-5.314c2.592-0.982,5.151-1.502,7.404-1.502
				c5.55,0,8.725,3.062,8.94,8.624c0.006,0.166,0.041,0.339,0.074,0.513l0.12,0.627l-0.621,0.052
				c-3.096-0.165-6.604-0.353-10.016-0.353c-6.255,0-11.028,0.633-15.021,1.99L106.502,187.623z M123.646,176.958
				c-2.133,0-4.57,0.497-7.049,1.438c-3.665,1.391-6.379,3.085-8.066,5.033c-0.482,0.558-1.211,1.399-1.17,2.106l0.037,0.499
				c0.006,0.073,0.012,0.15,0.018,0.229c3.972-1.255,8.676-1.842,14.729-1.842c3.212,0,6.498,0.164,9.45,0.321
				c-0.003-0.042-0.006-0.082-0.008-0.123C131.341,178.288,127.133,176.958,123.646,176.958z M107.733,174.898l0.022-0.946
				c0.128-5.306,0.914-9.276,2.628-13.277c0.183-0.426,0.271-0.871,0.271-1.361v-0.552l0.549,0.054
				c7.682,0.754,13.262,0.578,17.975-0.523l0.482-0.112l0.117,0.481c0.092,0.381,0.19,0.755,0.285,1.112l0.174,0.668
				c0.755,2.985,1.304,6.339,1.678,10.252l0.081,0.855l-0.784-0.352c-2.217-0.994-4.762-1.499-7.563-1.499
				c-2.911,0-6.025,0.569-9.005,1.646c-2.138,0.772-4.195,1.795-6.116,3.039L107.733,174.898z M111.624,159.86
				c-0.048,0.421-0.154,0.819-0.32,1.208c-1.561,3.64-2.327,7.265-2.518,11.974c1.751-1.061,3.603-1.946,5.518-2.639
				c3.088-1.115,6.318-1.705,9.345-1.705c2.62,0,5.034,0.423,7.188,1.259c-0.365-3.509-0.88-6.548-1.567-9.27l-0.172-0.659
				c-0.057-0.213-0.114-0.432-0.171-0.654C124.307,160.378,118.896,160.541,111.624,159.86z M89.479,170.508l-0.902-0.469
				c-4.528-2.352-10.082-3.203-15.543-2.375c-1.407,0.213-2.923,0.633-4.506,1.249l-0.799,0.312l0.123-0.849
				c0.378-2.611,0.747-4.801,1.313-7.001c0.318-1.231,0.903-2.451,1.47-3.63c0.474-0.987,0.964-2.009,1.274-3l0.139-0.445
				l0.454,0.108c4.885,1.163,10.375,1.439,14.785,1.662l0.523,0.026l-0.051,0.521c-0.009,0.096-0.03,0.181-0.054,0.266
				c-0.013,0.047-0.023,0.083-0.022,0.103c0.057,2.854,0.534,5.653,0.995,8.36c0.096,0.563,0.18,1.175,0.267,1.81
				c0.104,0.765,0.213,1.563,0.355,2.353L89.479,170.508z M77.173,166.351c3.885,0,7.661,0.815,10.984,2.367
				c-0.073-0.481-0.139-0.961-0.203-1.427c-0.085-0.624-0.167-1.225-0.261-1.777c-0.443-2.605-0.946-5.558-1.008-8.473
				c-4.217-0.214-9.316-0.505-13.969-1.557c-0.324,0.911-0.758,1.815-1.18,2.693c-0.545,1.136-1.109,2.311-1.402,3.447
				c-0.495,1.92-0.837,3.842-1.17,6.06c1.366-0.483,2.682-0.822,3.921-1.009C74.31,166.46,75.752,166.351,77.173,166.351z
				 M119.7,151.74c-4.716,0-9.654-0.699-14.011-1.316c-1.632-0.231-3.171-0.449-4.567-0.61c-3.426-0.396-7.032-0.402-10.85-0.409
				c-7.343-0.012-14.936-0.024-21.335-2.997c-4.729-2.197-5.144-12.907-4.062-21.411l0.037-0.134
				c0.032-0.074,0.073-0.146,0.115-0.216c0.02-0.033,0.043-0.064,0.056-0.101c0.111-0.304,0.122-0.612,0.034-0.944l-0.026-0.101
				l0.016-0.103c1.1-7.237,3.773-16.22,7.7-17.842c0.035-0.034,0.081-0.073,0.14-0.108l0.184-0.105l0.204,0.059
				c0.208,0.06,0.407,0.132,0.604,0.205c0.234,0.087,0.469,0.175,0.729,0.231c5.035,1.102,10.735,1.615,17.941,1.615
				c3.631,0,7.331-0.124,10.908-0.244c3.515-0.118,7.149-0.24,10.654-0.24l0.869,0.003c0.649,0.004,1.294,0.007,1.932,0.007
				c4.286,0,8.774-0.131,12.415-1.705l0.34-0.147l0.24,0.283c5.173,6.112,7.767,16.714,7.708,31.51
				C137.635,146.891,131.756,151.74,119.7,151.74z M65.857,125.207C64.75,134,65.404,143.663,69.358,145.5
				c6.2,2.879,13.681,2.892,20.916,2.903c3.847,0.007,7.48,0.013,10.963,0.415c1.403,0.163,2.951,0.382,4.592,0.614
				c4.324,0.612,9.226,1.307,13.871,1.307c11.543,0,16.938-4.394,16.975-13.825c0.057-14.324-2.378-24.609-7.238-30.579
				c-3.746,1.514-8.207,1.643-12.465,1.643c-0.64,0-1.286-0.003-1.938-0.007l-0.863-0.003c-3.488,0-7.114,0.122-10.621,0.239
				c-3.585,0.12-7.293,0.245-10.941,0.245c-7.28,0-13.049-0.521-18.154-1.639c-0.307-0.066-0.585-0.168-0.862-0.271
				c-0.102-0.037-0.203-0.075-0.306-0.11l-0.041,0.025c-2.883,1.118-5.746,7.94-7.134,16.992c0.111,0.493,0.082,0.975-0.086,1.435
				c-0.034,0.095-0.086,0.188-0.14,0.277C65.875,125.177,65.866,125.192,65.857,125.207z M39.092,145.287l-0.548-0.354
				c-2.091-1.349-4.506-2.525-7.178-3.497l-0.492-0.179l0.202-0.483c1.019-2.444,2.526-4.934,4.742-7.832l0.224-0.292l0.345,0.126
				c1.135,0.414,2.096,0.949,2.937,1.635c0.57,0.466,1.069,0.984,1.553,1.486c0.523,0.544,1.018,1.058,1.584,1.496l0.372,0.288
				l-0.265,0.389c-1.456,2.136-2.558,4.354-3.276,6.596L39.092,145.287z M32.204,140.679c2.321,0.876,4.449,1.906,6.339,3.07
				c0.698-1.991,1.686-3.959,2.942-5.863c-0.477-0.409-0.91-0.859-1.331-1.297c-0.462-0.48-0.941-0.978-1.464-1.404
				c-0.667-0.545-1.424-0.984-2.304-1.339C34.489,136.359,33.147,138.55,32.204,140.679z M45.028,134.958l-0.369-0.422
				c-0.974-1.117-2.365-2.047-3.592-2.868l-0.358-0.239c-0.508-0.342-1.078-0.56-1.681-0.791l-1.034-0.403l0.482-0.536
				c2.025-2.253,4.313-4.524,6.802-6.752l0.223-0.199l0.281,0.103c2.509,0.907,4.415,1.926,5.996,3.205
				c0.432,0.349,0.795,0.761,1.13,1.152l0.342,0.4l-0.417,0.32c-1.97,1.52-3.676,2.945-5.215,4.358
				c-0.829,0.763-1.584,1.569-2.213,2.258L45.028,134.958z M39.708,129.829c0.526,0.206,1.059,0.435,1.559,0.771l0.356,0.238
				c1.133,0.758,2.4,1.604,3.412,2.634c0.563-0.607,1.207-1.277,1.907-1.921c1.45-1.331,3.043-2.671,4.86-4.087
				c-0.205-0.226-0.421-0.443-0.653-0.631c-1.433-1.159-3.164-2.098-5.426-2.939C43.544,125.854,41.524,127.847,39.708,129.829z
				 M161.183,131.937l-0.276-0.548c-0.673-1.335-2.039-2.752-4.298-4.46l-0.632-0.478l1.947-1.003
				c1.779-0.907,3.619-1.846,5.226-2.949l0.366-0.251l0.293,0.333c1.542,1.758,2.796,3.39,3.833,4.989l0.341,0.525l-0.589,0.216
				c-1.677,0.613-3.315,1.471-4.738,2.478c-0.28,0.198-0.553,0.416-0.825,0.633L161.183,131.937z M157.839,126.617
				c1.752,1.386,2.938,2.612,3.662,3.79c0.19-0.149,0.382-0.296,0.576-0.434c1.327-0.939,2.832-1.753,4.384-2.375
				c-0.874-1.293-1.899-2.618-3.115-4.025c-1.565,1.031-3.293,1.912-4.968,2.767L157.839,126.617z M56.625,125.127l-0.298-0.233
				c-0.569-0.446-1.162-0.864-1.74-1.271c-1.486-1.046-3.292-1.902-5.521-2.617l-0.944-0.304l0.805-0.579
				c2.427-1.746,4.662-3.114,6.832-4.184c0.969-0.479,2.026-0.743,3.049-0.998l1.309-0.335l-0.146,0.773
				c-0.411,2.184-0.717,4.603-0.99,7.843l-0.02,0.239l-0.199,0.134c-0.538,0.36-1.046,0.734-1.56,1.11L56.625,125.127z
				 M50.307,120.37c1.905,0.682,3.5,1.482,4.854,2.435c0.491,0.346,0.992,0.7,1.48,1.071c0.449-0.33,0.896-0.657,1.361-0.976
				c0.24-2.788,0.505-4.975,0.845-6.938c-0.908,0.228-1.835,0.473-2.648,0.874C54.319,117.763,52.383,118.923,50.307,120.37z
				 M153.879,124.98l-0.406-0.283c-0.435-0.303-0.841-0.59-1.175-0.843l-3.841-2.913l0.438-0.405
				c0.049-0.045,0.099-0.087,0.149-0.128c0.128-0.107,0.191-0.163,0.229-0.257c0.836-2.086,2.002-3.953,3.565-5.706l0.256-0.286
				l0.343,0.173c0.164,0.083,0.328,0.162,0.493,0.241c0.385,0.186,0.77,0.371,1.147,0.599c1.612,0.972,3.197,2.146,4.989,3.696
				l0.109,0.094l0.251,0.619l-0.305,0.229c-0.534,0.44-1.097,0.814-1.641,1.176c-0.212,0.141-0.424,0.281-0.632,0.425l-0.144,0.099
				c-1.305,0.896-2.652,1.821-3.541,3.067L153.879,124.98z M150.006,120.861l2.896,2.196c0.222,0.168,0.478,0.352,0.751,0.545
				c0.967-1.186,2.247-2.064,3.488-2.917l0.144-0.099c0.212-0.146,0.428-0.289,0.645-0.434c0.39-0.259,0.788-0.523,1.163-0.805
				c-1.616-1.377-3.064-2.437-4.529-3.319c-0.351-0.212-0.708-0.383-1.066-0.555c-0.054-0.026-0.107-0.052-0.161-0.078
				c-1.359,1.582-2.387,3.263-3.134,5.126C150.147,120.657,150.079,120.768,150.006,120.861z M147.203,120.011l-0.646-0.511
				l0.172-0.419l-0.019-0.004l-0.263,0.34c-0.826-0.638-1.639-1.215-2.416-1.714l-0.171-0.11l-0.046-0.198
				c-0.601-2.612-1.204-4.677-1.898-6.497l-0.398-1.043l1.043,0.397c1.297,0.493,2.638,0.936,3.934,1.362
				c1.002,0.33,2.006,0.661,3.007,1.02l0.603,0.216l-0.355,0.533c-1.173,1.752-1.999,3.764-2.391,5.818L147.203,120.011z
				 M144.743,116.973c0.586,0.382,1.188,0.805,1.801,1.262c0.412-1.705,1.104-3.365,2.026-4.868
				c-0.796-0.277-1.593-0.54-2.389-0.802c-0.973-0.321-1.971-0.649-2.96-1.004C143.764,113.125,144.256,114.875,144.743,116.973z
				 M105.744,101.304c-12.064,0-25.156-1.438-29.183-1.991c-3.655-0.503-6.645-2.265-8.886-5.237
				c-8.258-10.95-4.754-35.511-2.872-48.706l0.208-1.464l0.298-0.219c3.738-3.169,9.434-4.73,17.351-4.73
				c6.313,0,13.109,0.947,19.682,1.864c6.119,0.854,11.881,1.66,16.429,1.551l0.431-0.005c4.666,0,8.337,1.796,10.913,5.337
				c4.461,6.134,4.77,16.455,4.243,24.032c-0.643,9.244-2.758,18.352-4.374,23.343C128.647,99.209,120.491,101.304,105.744,101.304z
				 M65.945,44.451l-0.151,1.061c-1.729,12.122-5.328,37.345,2.68,47.963c2.075,2.752,4.842,4.383,8.224,4.849
				c4.007,0.551,17.038,1.981,29.046,1.981c14.063,0,22.117-1.913,23.29-5.534c3.426-10.577,8-35.854,0.273-46.479
				c-2.377-3.268-5.776-4.925-10.104-4.925l-0.407,0.005c-4.627,0.099-10.429-0.701-16.591-1.56
				c-6.539-0.912-13.3-1.854-19.543-1.854C75.026,39.957,69.557,41.427,65.945,44.451z M162.492,69.795
				c-0.286,0-0.571-0.012-0.856-0.034l-1.623-0.124l0.293-0.168c-0.02-0.01-0.038-0.019-0.053-0.027l-0.352-0.179l0.001-0.013
				l-0.209-0.116l-0.033-0.249c-0.039-0.288-0.072-0.533-0.171-0.689c-0.202-0.318-0.439-0.607-0.646-0.847
				c-0.066-0.078-0.176-0.126-0.349-0.198c-0.084-0.035-0.168-0.07-0.249-0.111l-0.185-0.093l-0.049-0.146l-0.309-0.188l0.22-0.321
				c-0.001-0.058-0.005-0.144-0.012-0.27c-0.062-1.061,0.082-1.853,0.249-2.638c0.543-2.549,1.768-4.874,2.872-6.853l0.311-0.557
				l0.467,0.435c1.722,1.606,3.665,3.584,5.024,6.082c0.408,0.75,0.633,1.389,0.859,2.438l0.041,0.26
				c-0.003,0.041-0.002,0.128,0.006,0.316c0.005,0.191,0.004,0.377-0.005,0.564l0.002,0.049l-0.003,0.108
				c-0.034,0.195-0.093,0.384-0.153,0.574l-0.114,0.259c0.005,0-0.035,0.089-0.081,0.188c-0.081,0.173-0.175,0.371-0.236,0.476
				l-0.111,0.17l-0.129,0.135c-0.067,0.073-0.236,0.226-0.391,0.362c-0.087,0.078-0.168,0.148-0.208,0.188l-0.092,0.072
				c-0.183,0.122-0.364,0.244-0.553,0.354c-0.146,0.084-0.291,0.16-0.438,0.234l-0.065,0.037c-0.002,0-0.004,0.001-0.006,0.002
				l-0.073,0.028c-0.235,0.083-0.581,0.169-1.033,0.28c-0.252,0.062-0.474,0.114-0.552,0.141l-0.125,0.029
				C163.08,69.782,162.786,69.795,162.492,69.795z M161.843,68.773c0.46,0.031,0.925,0.031,1.384-0.01
				c0.123-0.037,0.343-0.092,0.587-0.151c0.307-0.075,0.763-0.186,0.926-0.244c0.181-0.095,0.305-0.16,0.428-0.23
				c0.166-0.097,0.331-0.208,0.496-0.318c-0.004-0.002,0.091-0.086,0.194-0.178c0.122-0.108,0.26-0.228,0.312-0.284
				c0.046-0.052,0.075-0.083,0.098-0.105c0.008-0.014,0.016-0.026,0.023-0.038c0.045-0.071,0.121-0.242,0.189-0.388
				c0.063-0.137,0.103-0.219,0.133-0.277l0.018-0.053c0.04-0.127,0.082-0.253,0.108-0.383l-0.001-0.072
				c0.008-0.178,0.009-0.34,0.004-0.501c-0.006-0.149-0.007-0.251-0.006-0.322c-0.006-0.02-0.012-0.045-0.019-0.078
				c-0.232-1.076-0.446-1.593-0.761-2.171c-1.171-2.152-2.822-3.92-4.36-5.388c-0.98,1.787-1.992,3.831-2.456,6.011
				c-0.158,0.743-0.284,1.434-0.229,2.373c0.007,0.11,0.011,0.203,0.013,0.282c0.215,0.09,0.472,0.208,0.682,0.454
				c0.214,0.25,0.491,0.587,0.729,0.96c0.159,0.251,0.229,0.524,0.272,0.786C160.87,68.475,161.466,68.56,161.843,68.773z
				 M51.318,69.648c-0.586,0-1.215-0.056-1.925-0.171l-0.484-0.079l0.069-0.485c0.185-1.288,0.263-2.498,0.232-3.595
				c-0.001-0.054-0.012-0.112-0.021-0.171c-0.013-0.082-0.024-0.164-0.03-0.241l-0.038-0.572l0.572,0.041
				c0.641,0.045,1.301,0.107,1.97,0.17c1.321,0.125,2.686,0.254,3.993,0.254l0.818-0.01l-0.039,0.543
				c-0.024,0.351-0.056,0.698-0.087,1.046c-0.048,0.531-0.096,1.061-0.119,1.599l-0.021,0.48l-0.481-0.002l0,0
				c-0.492,0-0.924,0.127-1.297,0.378C53.627,69.374,52.58,69.648,51.318,69.648z M50.035,68.56c1.709,0.22,2.953,0.039,3.837-0.557
				c0.418-0.281,0.881-0.455,1.383-0.52c0.026-0.4,0.062-0.797,0.098-1.195c0.015-0.164,0.029-0.327,0.043-0.491
				c-1.271-0.015-2.569-0.138-3.827-0.257c-0.458-0.043-0.911-0.086-1.356-0.123C50.234,66.393,50.174,67.448,50.035,68.56z
				 M104.011,35.086l-0.573-0.05c-1.804-0.157-3.675-0.379-5.718-0.679l-0.407-0.06l-0.02-0.411
				c-0.014-0.287-0.016-0.575-0.018-0.853c-0.002-0.221-0.003-0.435-0.011-0.635c-0.105-2.629,0.112-5.333,0.647-8.039
				c-0.01-0.067-0.013-0.132-0.006-0.202l0.052-0.501l0.5,0.055c1.616,0.179,3.441,0.076,5.428-0.304l0.68-0.13l-0.09,0.687
				c-0.501,3.803-0.667,7.351-0.495,10.546L104.011,35.086z M98.279,33.428c1.651,0.237,3.19,0.421,4.675,0.561
				c-0.12-2.911,0.029-6.094,0.442-9.478c-1.629,0.267-3.143,0.348-4.544,0.243c-0.491,2.561-0.69,5.119-0.59,7.606
				c0.008,0.21,0.01,0.435,0.012,0.667C98.275,33.159,98.276,33.293,98.279,33.428z M99.91,18.403c-3.857,0-8.118-1.897-8.356-6.063
				c-0.098-1.712,0.521-3.291,1.89-4.825l0.24-0.268l0.33,0.142c0.98,0.42,2.394,0.473,3.419,0.129
				c5.149-1.727,8.916-0.455,10.352,3.56c0.608,1.699,0.494,3.178-0.339,4.395c-1.771,2.586-5.984,2.894-7.234,2.927L99.91,18.403z
				 M93.966,8.44c-1.042,1.253-1.492,2.481-1.415,3.842c0.202,3.518,3.956,5.121,7.358,5.121l0.275-0.004
				c2.327-0.061,5.24-0.748,6.435-2.492c0.642-0.938,0.717-2.113,0.223-3.493c-0.87-2.431-2.626-3.664-5.22-3.664
				c-1.153,0-2.456,0.241-3.872,0.715C96.605,8.849,95.121,8.836,93.966,8.44z"/>
		</g>
		<g>
			<path d="M86.439,46.233c-1.095-0.589-2.117-0.397-2.848,0.174c-1.013-0.823-2.097-1.464-3.703-1.606
				c-2.983-0.264-6.207,1.006-8.403,2.965c-5.651,5.042-1.61,16.092,3.539,19.96c5.311,3.989,11.868,0.736,15.096-4.207
				C93.754,57.955,92.538,49.516,86.439,46.233z M84.997,60.042c-0.597,1.037-1.456,1.78-2.425,2.395
				c-0.033-0.51-0.191-0.938-0.419-1.315c-0.147-0.52-0.26-1.051-0.373-1.579c-0.212-0.985-0.413-1.964-0.449-2.773
				c-0.159-3.575-5.028-3.938-5.997-1.059c-0.309-1.38-0.205-2.742,0.815-3.844c1.196-1.291,2.804-1.599,4.417-2.057
				c0.537-0.153,1.296-0.512,2.034-0.777c0.081,0.473,0.248,0.947,0.614,1.381C85.746,53.42,87.12,56.351,84.997,60.042z"/>
			<path d="M80.237,70.013C80.236,70.013,80.236,70.013,80.237,70.013c-1.991,0-3.846-0.635-5.513-1.888
				c-3.485-2.618-6.265-8.199-6.467-12.982c-0.137-3.258,0.864-5.938,2.895-7.751c2.416-2.156,5.758-3.355,8.78-3.09
				c1.654,0.146,2.792,0.803,3.681,1.484c0.914-0.544,2.031-0.549,3.063,0.005c2.765,1.488,4.743,4.096,5.569,7.344
				c0.922,3.624,0.285,7.607-1.707,10.655C88.071,67.571,84.027,70.013,80.237,70.013z M79.093,45.266
				c-2.501,0-5.29,1.101-7.275,2.873c-2.274,2.029-2.648,4.906-2.562,6.963c0.19,4.513,2.799,9.769,6.068,12.224
				c1.491,1.12,3.143,1.688,4.912,1.688c3.461,0,7.177-2.264,9.465-5.768c1.84-2.818,2.429-6.504,1.574-9.862
				c-0.757-2.973-2.559-5.356-5.074-6.71c-0.813-0.438-1.649-0.385-2.304,0.127l-0.314,0.245l-0.309-0.251
				c-0.855-0.695-1.863-1.357-3.432-1.496C79.595,45.277,79.345,45.266,79.093,45.266z M82.127,63.311l-0.054-0.842
				c-0.025-0.387-0.139-0.743-0.348-1.088l-0.053-0.123c-0.146-0.515-0.259-1.04-0.371-1.562c-0.231-1.075-0.433-2.067-0.469-2.903
				c-0.077-1.718-1.425-2.5-2.646-2.5c-0.892,0-1.985,0.415-2.377,1.58l-0.571,1.696l-0.391-1.746
				c-0.393-1.753-0.078-3.198,0.936-4.293c1.15-1.242,2.637-1.647,4.075-2.04l0.572-0.158c0.294-0.083,0.658-0.234,1.048-0.393
				c0.309-0.126,0.633-0.258,0.954-0.374l0.562-0.202l0.1,0.588c0.08,0.467,0.24,0.83,0.503,1.142c2.263,2.687,4.251,6,1.835,10.201
				c-0.573,0.993-1.396,1.809-2.591,2.567L82.127,63.311z M82.617,60.923c0.126,0.218,0.227,0.44,0.301,0.669
				c0.728-0.545,1.259-1.128,1.646-1.8c1.985-3.452,0.743-6.117-1.732-9.057c-0.257-0.304-0.449-0.646-0.579-1.035
				c-0.134,0.053-0.267,0.107-0.397,0.161c-0.42,0.172-0.817,0.333-1.153,0.429l-0.583,0.161c-1.362,0.372-2.648,0.723-3.604,1.755
				c-0.521,0.562-0.796,1.238-0.831,2.045c0.633-0.607,1.517-0.96,2.5-0.96c1.735,0,3.544,1.187,3.646,3.456
				c0.033,0.759,0.226,1.706,0.438,2.691C82.381,59.964,82.485,60.449,82.617,60.923z"/>
		</g>
		<g>
			<path d="M113.929,44.66c-2.288,0.071-2.989,2.491-1.902,3.972c-4.55,1.745-7.938,6.402-7.02,11.415
				c1.321,7.213,9.806,8.486,15.81,7.351C135.512,64.619,125.256,44.306,113.929,44.66z M120.589,61.568
				c-0.564,0.295-1.266,0.488-2.007,0.622c0.021-0.891-0.022-1.793-0.022-2.675c0.537-4.058-6.518-4.312-6.518,0
				c0,0.5-0.017,1.006-0.026,1.512c-0.694-0.495-1.252-1.118-1.54-1.916c-1.176-3.258,1.782-6.286,4.367-7.643
				c0.463-0.243,0.727-0.596,0.839-0.982c2.262,0.958,4.147,2.171,5.662,4.518C122.83,57.306,123.306,60.147,120.589,61.568z"/>
			<path d="M116.897,68.262L116.897,68.262c-6.821,0-11.45-3.038-12.383-8.125c-0.986-5.389,2.596-9.893,6.792-11.749
				c-0.378-0.831-0.381-1.812,0.021-2.637c0.475-0.975,1.417-1.555,2.585-1.592l0.309-0.004c7.193,0,13.722,7.851,14.331,14.351
				c0.465,4.957-2.321,8.376-7.644,9.383C119.602,68.137,118.251,68.262,116.897,68.262z M114.222,45.155l-0.277,0.004
				c-0.796,0.025-1.406,0.391-1.718,1.03c-0.332,0.683-0.253,1.525,0.203,2.146l0.388,0.528l-0.612,0.234
				c-4.037,1.548-7.637,5.775-6.706,10.858c1.241,6.778,9.038,7.305,11.398,7.305l0,0c1.292,0,2.579-0.119,3.826-0.355
				c6.508-1.231,7.075-5.733,6.834-8.307C126.986,52.51,120.911,45.155,114.222,45.155z M118.068,62.791l0.014-0.613
				c0.013-0.525,0.002-1.055-0.009-1.582c-0.007-0.362-0.014-0.724-0.014-1.082c0.095-0.748-0.06-1.322-0.453-1.771
				c-1.245-1.42-5.064-1.182-5.064,1.771c0,0.357-0.009,0.717-0.017,1.078l-0.028,1.392l-0.771-0.55
				c-0.843-0.601-1.421-1.325-1.721-2.153c-1.217-3.373,1.534-6.644,4.605-8.256c0.309-0.162,0.507-0.39,0.591-0.679l0.157-0.54
				l0.519,0.219c1.938,0.821,4.154,2.023,5.887,4.708c1.107,1.714,1.516,3.421,1.15,4.807c-0.279,1.059-0.983,1.891-2.094,2.471
				c-0.555,0.291-1.258,0.51-2.149,0.671L118.068,62.791z M115.425,55.875c1.191,0,2.261,0.44,2.934,1.209
				c0.584,0.666,0.825,1.529,0.697,2.496c0.004,0.286,0.011,0.641,0.018,0.997c0.007,0.332,0.013,0.665,0.014,0.997
				c0.512-0.123,0.93-0.271,1.271-0.449c0.85-0.444,1.385-1.063,1.589-1.839c0.289-1.095-0.084-2.556-1.022-4.01
				c-1.203-1.864-2.67-3.085-4.993-4.135c-0.2,0.316-0.489,0.578-0.855,0.771c-1.938,1.018-5.296,3.796-4.129,7.03
				c0.129,0.359,0.325,0.689,0.592,0.995c0.003-0.141,0.004-0.281,0.004-0.421C111.542,57.014,113.555,55.875,115.425,55.875z"/>
		</g>
		<g>
			<path d="M123.539,79.545c-13.853-1.126-27.858-0.713-41.565-3.369c-0.708-0.137-1.534-0.046-2.041,0.539
				c-0.006,0.039-0.013,0.078-0.019,0.116c-0.596-0.337-1.278,0.488-0.746,0.967c0.05,0.134,0.101,0.267,0.151,0.4
				c-0.013,0.419,0.159,0.775,0.375,1.096c-3.264,2.421-1.216,10.742-0.201,13.58c0.626,1.752,3.155,1.179,2.987-0.542
				c1.999-0.459,8.376-0.117,15.16,0.45c0.389,1.125,1.799,1.201,2.294,0.2c1.637,0.146,3.258,0.302,4.836,0.458
				c0.472,0.385,1.094,0.476,1.63,0.163c5.416,0.553,9.897,1.086,10.989,1.249c1.423,0.212,2.54-0.342,3.045-1.729
				c1.165-3.198,1.337-6.289,1.272-9.637c0.609-0.029,1.225-0.024,1.833-0.068C126.042,83.24,126.026,79.748,123.539,79.545z
				 M82.049,89.568c-0.217-1.635-0.314-3.277-0.177-4.957c0.112-1.372,0.704-2.666,0.634-3.974c1.255,0.345,2.551,0.594,3.853,0.823
				c-0.388,2.293-0.134,4.928,0.069,7.049C84.664,88.741,83.146,89.078,82.049,89.568z M89.288,88.23
				c0.118-1.5,0.22-3.003,0.43-4.491c0.085-0.598,0.255-1.172,0.41-1.75c1.797,0.202,3.605,0.348,5.397,0.476
				c0.039,0.751,0.262,1.516,0.453,2.283c0.282,1.129,0.555,2.26,0.802,3.396C94.15,88.075,91.585,88.086,89.288,88.23z
				 M99.847,84.89c-0.073-0.743-0.108-1.457-0.207-2.145c0.46,0.031,0.936,0.061,1.391,0.093c1.293,0.091,2.604,0.168,3.905,0.256
				c-0.002,0.664,0.07,1.363,0.108,2.15c0.055,1.119,0.062,2.236-0.025,3.34c-1.599-0.123-3.246-0.232-4.904-0.315
				C100.049,87.143,99.957,86.017,99.847,84.89z M116.308,89.741c-1.909-0.249-4.727-0.57-7.912-0.864
				c0.157-0.731,0.328-1.455,0.434-2.212c0.149-1.087,0.404-2.222,0.412-3.295c2.617,0.14,5.241,0.24,7.856,0.244
				C116.998,85.708,116.816,87.738,116.308,89.741z"/>
			<path d="M117.959,95.396L117.959,95.396c-0.207,0-0.422-0.017-0.644-0.049c-1.09-0.163-5.555-0.692-10.817-1.231
				c-0.609,0.286-1.343,0.209-1.916-0.191c-1.435-0.142-2.904-0.283-4.389-0.417c-0.325,0.423-0.819,0.675-1.355,0.675
				c-0.645,0-1.218-0.355-1.533-0.927c-7.43-0.614-12.383-0.784-14.334-0.505c-0.05,0.383-0.209,0.735-0.468,1.02
				c-0.385,0.425-0.95,0.668-1.548,0.668c-0.885,0-1.626-0.535-1.934-1.396c-1.053-2.945-3.008-10.958,0.029-13.859
				c-0.123-0.248-0.224-0.549-0.232-0.895l-0.082-0.217c-0.258-0.295-0.331-0.692-0.188-1.064c0.178-0.464,0.656-0.783,1.133-0.754
				c0.566-0.549,1.502-0.74,2.388-0.568c9.092,1.762,18.489,2.175,27.577,2.576c4.571,0.201,9.297,0.409,13.933,0.786
				c1.61,0.132,2.337,1.369,2.331,2.462c-0.005,1.081-0.738,2.295-2.335,2.408c-0.367,0.027-0.737,0.036-1.107,0.045
				c-0.084,0.002-0.169,0.004-0.253,0.007c0.036,2.939-0.132,6.089-1.311,9.326C120.411,94.649,119.365,95.396,117.959,95.396z
				 M106.289,93.088l0.162,0.017c5.342,0.546,9.902,1.087,11.012,1.252c1.227,0.182,2.097-0.292,2.502-1.405
				c1.188-3.264,1.3-6.474,1.242-9.457l-0.009-0.486l0.485-0.023c0.253-0.012,0.506-0.018,0.76-0.024
				c0.354-0.009,0.709-0.017,1.061-0.042c1.033-0.074,1.403-0.809,1.406-1.416c0.004-0.669-0.432-1.38-1.412-1.46
				c-4.617-0.375-9.334-0.583-13.896-0.784c-9.124-0.402-18.559-0.817-27.724-2.593c-0.154-0.03-0.314-0.047-0.475-0.047
				c-0.3,0-0.704,0.06-1.002,0.33l-0.09,0.553l-0.644-0.237c-0.098-0.017-0.163,0.04-0.186,0.099l0.091,0.083l0.249,0.667
				l-0.003,0.099c-0.007,0.248,0.079,0.487,0.291,0.802l0.266,0.396l-0.383,0.284c-2.794,2.073-1.226,9.661-0.028,13.01
				c0.236,0.661,0.772,0.733,0.992,0.733c0.312,0,0.614-0.127,0.807-0.34c0.173-0.191,0.248-0.433,0.22-0.718l-0.043-0.438
				l0.429-0.098c1.805-0.415,6.969-0.258,15.313,0.439l0.325,0.027l0.106,0.308c0.144,0.416,0.469,0.564,0.725,0.564
				c0.279,0,0.516-0.154,0.648-0.422l0.151-0.307l0.341,0.03c1.639,0.146,3.262,0.302,4.841,0.458l0.15,0.015l0.117,0.096
				c0.321,0.263,0.729,0.312,1.062,0.118L106.289,93.088z M81.641,90.298l-0.088-0.664c-0.25-1.888-0.308-3.497-0.18-5.063
				c0.051-0.626,0.193-1.224,0.33-1.803c0.174-0.734,0.339-1.429,0.303-2.104l-0.037-0.693l0.669,0.184
				c1.269,0.349,2.579,0.597,3.807,0.812l0.489,0.086l-0.083,0.49c-0.375,2.218-0.128,4.809,0.071,6.89l0.046,0.48l-0.476,0.09
				c-1.841,0.242-3.268,0.585-4.24,1.02L81.641,90.298z M82.993,81.281c-0.048,0.585-0.184,1.158-0.316,1.717
				c-0.128,0.542-0.262,1.103-0.306,1.653c-0.107,1.315-0.078,2.667,0.096,4.212c0.902-0.323,2.03-0.581,3.418-0.784
				c-0.181-1.919-0.359-4.162-0.092-6.212C84.882,81.703,83.935,81.516,82.993,81.281z M116.683,90.294l-0.439-0.058
				c-2.221-0.29-5.098-0.604-7.894-0.861l-0.562-0.052l0.202-0.936c0.127-0.583,0.259-1.186,0.344-1.792
				c0.044-0.321,0.098-0.646,0.15-0.974c0.124-0.755,0.252-1.536,0.257-2.256l0.004-0.524l0.522,0.028
				c3.037,0.163,5.525,0.24,7.831,0.244l0.523,0.001l-0.025,0.523c-0.088,1.86-0.253,4.055-0.805,6.226L116.683,90.294z
				 M109.004,88.432c2.444,0.231,4.913,0.501,6.923,0.756c0.402-1.749,0.559-3.513,0.645-5.076
				c-2.044-0.013-4.247-0.083-6.851-0.216c-0.043,0.631-0.147,1.268-0.249,1.889c-0.052,0.318-0.104,0.636-0.147,0.949
				C109.243,87.317,109.124,87.883,109.004,88.432z M105.478,89.121l-0.497-0.038c-1.595-0.123-3.237-0.232-4.892-0.314
				l-0.447-0.022l-0.026-0.448c-0.062-1.063-0.149-2.162-0.267-3.359c-0.025-0.265-0.047-0.526-0.068-0.784
				c-0.037-0.458-0.073-0.904-0.136-1.339l-0.088-0.611l2.009,0.135c0.731,0.051,1.47,0.098,2.208,0.146l2.163,0.142l-0.001,0.469
				c-0.001,0.416,0.027,0.845,0.059,1.303c0.018,0.264,0.035,0.537,0.049,0.821c0.062,1.274,0.054,2.388-0.026,3.404L105.478,89.121
				z M100.586,87.792c1.338,0.071,2.667,0.158,3.967,0.255c0.045-0.839,0.042-1.754-0.008-2.779
				c-0.014-0.278-0.031-0.545-0.049-0.804c-0.021-0.312-0.04-0.61-0.052-0.901l-1.234-0.081c-0.741-0.047-1.48-0.094-2.215-0.146
				l-0.787-0.053c0.025,0.26,0.048,0.523,0.069,0.79c0.021,0.252,0.041,0.508,0.067,0.768
				C100.446,85.885,100.526,86.855,100.586,87.792z M88.745,88.765l0.089-1.146c0.1-1.296,0.203-2.636,0.389-3.951
				c0.077-0.542,0.218-1.057,0.354-1.556l0.18-0.669l0.427,0.048c1.948,0.219,3.897,0.369,5.377,0.475l0.441,0.031l0.023,0.441
				c0.03,0.586,0.185,1.191,0.349,1.833l0.09,0.356c0.283,1.133,0.557,2.269,0.805,3.41l0.135,0.623l-0.637-0.017
				c-2.691-0.071-5.321-0.048-7.447,0.085L88.745,88.765z M90.499,82.533c-0.118,0.433-0.225,0.849-0.286,1.276
				c-0.181,1.283-0.283,2.607-0.382,3.887v0.001c1.862-0.096,4.063-0.116,6.322-0.069c-0.208-0.922-0.431-1.841-0.661-2.759
				l-0.088-0.351c-0.132-0.518-0.268-1.049-0.338-1.585C93.752,82.837,92.139,82.709,90.499,82.533z"/>
		</g>
		<g>
			<path d="M129.259,115.442c-0.459-1.086-1.879-1.691-2.974-1.706c-3.663-0.046-7.335-0.399-10.983-0.701
				c-1.732-0.144-3.495-0.423-5.234-0.394c-1.095,0.019-1.925,0.342-2.77,1.017c-0.4,0.319,0.467-0.263,1.059-0.203
				c0.019,0.046,0.036,0.089,0.056,0.134c-1.22-0.037-2.381,0.729-2.409,2.221c-0.026,1.322,0.667,2.164,1.677,2.732
				c-1.813,4.17-2.776,9.23-2.266,13.739c0.167,1.478,0.833,2.369,2.221,2.917c3.298,1.303,6.719,1.088,10.219,0.749
				c3.086-0.299,7.403-0.493,10.15-2.103c2.616-1.533,2.602-6.283,2.72-8.889C130.867,121.727,130.521,118.426,129.259,115.442z
				 M110.809,129.497c-0.561-2.012-1.03-4.07-1.11-6.131c-0.056-1.445-0.096-2.809-0.408-4.186c1.229,0.332,2.606,0.476,3.79,0.582
				c3.537,0.315,7.099,0.611,10.655,0.748c0.514,2.342,0.478,5.399-0.104,7.598C119.588,129.225,114.963,129.915,110.809,129.497z"
				/>
			<path d="M113.57,136.705L113.57,136.705c-2.375,0-4.319-0.331-6.119-1.042c-1.541-0.608-2.347-1.665-2.534-3.326
				c-0.481-4.256,0.295-9.188,2.135-13.597c-1.053-0.723-1.573-1.71-1.549-2.94c0.021-1.069,0.537-1.832,1.246-2.271
				c0.065-0.124,0.175-0.211,0.237-0.261c0.949-0.759,1.897-1.106,3.072-1.126l0.266-0.002c1.156,0,2.324,0.124,3.453,0.243
				c0.523,0.056,1.046,0.111,1.565,0.154l1.53,0.128c3.09,0.262,6.284,0.532,9.418,0.571c1.289,0.018,2.88,0.714,3.429,2.012
				c1.162,2.75,1.668,6.023,1.504,9.73l-0.025,0.6c-0.111,2.843-0.28,7.139-2.941,8.698c-2.513,1.472-6.216,1.799-9.192,2.062
				l-1.163,0.106C116.286,136.601,114.932,136.705,113.57,136.705z M108.395,114.088c-0.961,0-1.869,0.535-1.892,1.73
				c-0.021,1.003,0.432,1.729,1.422,2.287l0.394,0.221l-0.18,0.414c-1.894,4.354-2.705,9.268-2.228,13.483
				c0.147,1.306,0.7,2.032,1.907,2.509c1.68,0.663,3.507,0.972,5.752,0.972c1.321,0,2.648-0.102,4.235-0.256l1.171-0.106
				c2.876-0.255,6.456-0.571,8.774-1.93c2.189-1.283,2.345-5.249,2.448-7.874l0.025-0.605c0.157-3.557-0.322-6.685-1.427-9.297
				c-0.363-0.86-1.566-1.388-2.52-1.4c-3.169-0.04-6.382-0.312-9.489-0.574l-1.528-0.129c-0.527-0.043-1.058-0.1-1.589-0.156
				c-1.104-0.116-2.244-0.237-3.348-0.237l-0.248,0.002c-0.447,0.008-0.847,0.071-1.226,0.201l0.334,0.77l-0.788-0.023
				C108.396,114.088,108.395,114.088,108.395,114.088z M113.364,130.12c-0.899,0-1.775-0.042-2.605-0.126l-0.34-0.034l-0.092-0.329
				c-0.479-1.719-1.041-3.983-1.129-6.245l-0.007-0.19c-0.052-1.354-0.101-2.633-0.389-3.904l-0.185-0.81l0.802,0.217
				c1.197,0.323,2.54,0.462,3.705,0.566c3.221,0.287,6.965,0.605,10.63,0.746l0.386,0.016l0.083,0.377
				c0.532,2.428,0.488,5.575-0.109,7.833l-0.073,0.277l-0.277,0.077C120.142,129.591,116.545,130.12,113.364,130.12z
				 M111.198,129.031c3.507,0.299,7.727-0.172,12.019-1.328c0.466-1.976,0.507-4.583,0.106-6.708
				c-3.562-0.149-7.169-0.456-10.287-0.734c-0.969-0.087-2.058-0.197-3.108-0.415c0.179,1.094,0.22,2.177,0.263,3.312l0.008,0.189
				C110.276,125.36,110.734,127.333,111.198,129.031z"/>
		</g>
	</g>
</g>
<g>
</g>
<g>
</g>
<g>
</g>
<g>
</g>
<g>
</g>
<g>
</g>
<g>
</g>
<g>
</g>
<g>
</g>
<g>
</g>
<g>
</g>
<g>
</g>
<g>
</g>
<g>
</g>
<g>
</g>
</svg>
