<?xml version="1.0" encoding="iso-8859-1"?>
<!-- Generator: Adobe Illustrator 16.0.0, SVG Export Plug-In . SVG Version: 6.00 Build 0)  -->
<!DOCTYPE svg PUBLIC "-//W3C//DTD SVG 1.1//EN" "http://www.w3.org/Graphics/SVG/1.1/DTD/svg11.dtd">
<svg version="1.1" id="Capa_1" xmlns="http://www.w3.org/2000/svg" xmlns:xlink="http://www.w3.org/1999/xlink" x="0px" y="0px"
	 width="191.129px" height="191.129px" viewBox="0 0 191.129 191.129" style="enable-background:new 0 0 191.129 191.129;"
	 xml:space="preserve">
<g>
	<g>
		<path d="M75.112,56.613c-8.687,0.664-11.334,10.281-9.579,17.492c0.515,2.118,3.851,1.665,3.79-0.513
			c-0.127-4.521,0.757-10.502,6.043-11.578c5.269-1.072,6.653,6.805,6.77,10.236c0.119,3.48,5.423,3.503,5.417,0
			C87.539,65.002,83.754,55.952,75.112,56.613z"/>
		<path d="M121.673,60.974c-1.937-2.902-5.276-4.853-8.703-5.357c-3.681-0.542-7.377,0.403-9.619,3.549
			c-2.843,3.991-1.708,9.33-0.097,13.559c0.811,2.13,3.952,1.334,3.447-0.95c-1.021-4.625-0.857-11.534,5.107-10.609
			c1.866,0.289,3.829,1.249,4.888,2.716c1.375,1.905,0.458,3.885,0.913,6.271c0.259,1.36,2.122,2.082,3.251,1.322
			C124.362,69.12,123.766,64.11,121.673,60.974z"/>
		<path d="M105.799,7.265c-1.677,0.332-1.909,2.815-0.47,3.591c0.21,0.113,0.437,0.212,0.656,0.315
			c-3.304,1.068-5.99,3.774-6.792,7.212c-1.209,5.18,2.749,8.458,7.651,8.289c5.504-0.19,11.66-3.795,11.482-9.896
			C118.157,10.898,111.315,6.171,105.799,7.265z M106.844,21.833c-6.237,0.652-2.272-7.638,1.13-8.863
			c0.331-0.119,0.531-0.38,0.658-0.677c2.018,0.847,3.906,1.869,4.608,4.167C114.293,19.907,109.315,21.575,106.844,21.833z"/>
		<path d="M69.621,12.873c-0.815,0.18-1.112,0.798-1.145,1.444c-6.001,8.683-2.771,15.75,7.781,9.722
			C87.874,17.401,79.604,10.666,69.621,12.873z M71.009,16.353C79.148,17.381,67.975,26.326,71.009,16.353L71.009,16.353z"/>
		<path d="M111.563,127.287c-0.023-1.026-0.753-2.31-1.877-2.467c-9.564-1.326-18.7-2.33-28.174,0.121
			c-1.036,0.269-1.798,1.278-1.785,2.346c0.068,5.841,0.469,11.64,0.233,17.449c-0.161,0.005-0.326-0.012-0.487-0.006
			c-3.114,0.123-3.562,4.279-0.715,5.285c0.262,0.093,0.552,0.124,0.819,0.205c-0.013,1.162,1.602,1.418,2.219,0.554
			c3.791,0.702,7.92,0.593,11.636,0.724c5.621,0.196,11.297,0.311,16.916,0.042c1.465-0.07,2.834-1.21,2.774-2.775
			C112.853,141.586,111.728,134.473,111.563,127.287z M95.387,145.699c-4.033-0.108-8.163-0.73-12.226-0.927
			c0.836-5.119,1.229-10.331,1.364-15.496c7.42-1.508,14.555-0.845,22.013,0.222c0.207,5.481,0.773,10.938,0.951,16.421
			C103.457,145.809,99.418,145.807,95.387,145.699z"/>
		<path d="M170.755,104.328c-4.188-0.213-7.922-1.46-11.952-1.526c-0.006-2.831-0.012-5.661-0.044-8.492
			c-0.022-1.884,0.328-4.893-0.88-6.67c-0.161-0.44-0.463-0.748-0.834-0.953c-0.014-0.008-0.016-0.024-0.028-0.032
			c0.005,0.008,0.009,0.016,0.014,0.024c-0.641-0.345-1.441-0.345-2.083,0c0.005-0.008,0.01-0.016,0.015-0.024
			c-0.014,0.008-0.016,0.024-0.028,0.032c-0.367,0.202-0.666,0.501-0.829,0.931c-5.733,2.839-10.724,7.564-11.451,14.203
			c-0.191,1.752-0.023,3.48,0.372,5.158c-3.23,1.151-6.396,3.852-9.052,5.576c-0.465,0.302-0.913,0.63-1.375,0.938
			c-0.429-0.772-1.664-0.709-1.728,0.37c-0.016,0.276,0.009,0.533,0.002,0.805c-2.827,1.931-5.611,3.923-8.29,6.061
			c-0.113,0.091-0.173,0.201-0.248,0.307c-4.782-5.131-10.825-8.944-18.013-10.772c0.194-2.303,0.503-4.776,0.465-7.157
			c10.91,0.87,23.566,0.604,27.3-6.78c7.674-15.183,4.633-34.527,4.428-50.922c-0.023-1.877-1.506-3.274-3.345-3.345
			c-10.521-0.409-21.024-0.099-31.526,0.346c0.177-3.201,0.319-6.405,0.384-9.604c14.112,4.891,33.454-7.084,26.162-23.362
			c-6.657-14.862-29.322-10.504-36.863,1.551c-1.415-2.857-3.949-5.584-6.063-7.325c-2.615-2.153-5.666-3.445-9.059-3.62
			c-6.31-0.325-11.994,4.019-15.602,8.801c-3.619,4.797-6.008,10.905-4.738,16.952c1.432,6.819,8.597,10.042,15.025,9.455
			c3.59-0.327,6.989-1.175,10.371-2.258c0.151,2.673,0.11,5.349-0.721,7.934c-0.592,1.843,2.126,2.922,3.073,1.296
			c2.01-3.448,1.982-7.715,2.298-11.588c0.213-2.611-3.486-2.998-4.525-1.213c-6.053,1.132-14.769,2.174-18.927-2.407
			c-2.644-2.912-1.37-8.543,0.655-12.494c2.279-4.448,6.436-8.427,11.462-9.354c2.316-0.427,4.711,0.406,6.685,1.693
			c1.376,0.898,2.578,2.204,3.569,3.503c1.362,1.785,2.164,4.226,3.834,5.716c0.75,0.669,1.869,0.676,2.701,0.228
			c0.689,0.104,1.409-0.119,1.783-0.851c4.668-9.152,20.042-13.82,28.148-6.703c5.712,5.015,2.602,13.41-2.684,17.037
			c-4.737,3.252-11.128,3.449-16.228,1.058c-0.961-0.451-1.866-0.322-2.612,0.075c-1.282-0.074-2.618,0.702-2.638,2.371
			c-0.053,4.418,0.21,8.858,0.454,13.286c-14.084,0.634-28.166,1.385-42.274,0.889c-3.158-0.111-3.932,3.462-2.386,5.377
			c-6.548,12.228-3.175,31.124,2.967,42.67c5.415,10.178,20.964,9.635,31.614,9.997c-2.336,1.763-1.415,5.621-0.217,8.186
			c-7.819,1.496-14.463,5.516-19.634,11.008c-1.033-1.571-3.112-2.281-4.678-3.19c-2.606-1.512-5.124-3.177-7.679-4.773
			c-0.634-0.397-3.962-2.643-6.082-2.881c1.345-2.87,2.006-5.962,1.215-9.045c-2.154-8.396-14.089-7.949-20.626-7.224
			c-1.807,0.2-3.223,1.648-2.718,3.569c1.838,6.992-0.435,12.716-7.464,15.192c-2.701,0.951-2.461,4.452-0.653,5.557
			c-0.511,5.163,1.219,10.452,7.614,10.065c4.377-0.265,8.567-2.701,12.147-5.624c5.607,4.136,16.704,11.705,20.767,10.826
			c-3.163,7.33-4.458,15.575-3.431,23.639c0.14,1.1,0.904,1.665,1.709,1.783c-1.246,2.029-0.574,5.119-0.433,7.391
			c0.098,1.585,0.266,3.171,0.533,4.735c-13.148-0.284-27.087,1.95-27.035,16.965c0.008,2.093,1.893,3.207,3.788,2.886
			c2.159-0.367,4.327-0.581,6.494-0.791c0.003,0.196-0.021,0.392-0.014,0.59c0.037,1.013,1.481,0.994,1.557,0
			c0.02-0.263,0.088-0.529,0.118-0.792c2.858-0.231,5.721-0.362,8.587-0.422c0.174,1.492,2.425,1.483,2.533-0.056
			c1.892-0.016,3.784-0.014,5.678,0.007c0.139,1.312,2.016,1.317,2.184,0.025c2.33,0.035,4.66,0.079,6.989,0.117
			c0.017,0.043,0.024,0.088,0.041,0.132c0.525,1.337,2.219,1.057,2.477-0.097c1.391,0.017,2.782,0.034,4.172,0.034
			c1.919,0.001,3.403-1.903,2.869-3.767c-2.293-8.006-2.453-16.232-2.874-24.477c8.134,0.592,16.267,1.084,24.462,1.212
			c5.229,0.082,11.706,0.373,17.985-0.157c-0.271,8.081-0.515,16.178,0.479,24.213c0.183,1.476,1.099,2.711,2.719,2.718
			c12.08,0.055,24.161,0.106,36.243,0.146c1.312,0.004,2.372-0.884,2.761-2.103c5.576-17.499-12.729-18.211-26.749-17.711
			c-0.415-1.876-0.618-3.736-0.655-5.664c-0.035-1.827,0.205-3.651-0.161-5.436c0.58-0.32,1.177-0.619,1.713-0.99
			c1.104-0.764,1.185-2.311,0.459-3.227c0.143-0.369,0.214-0.798,0.188-1.292c-0.318-6.358-1.686-12.473-3.952-18.033
			c3.479-1.536,7.303-3.407,10.941-5.592c0.052,0.009,0.104,0.042,0.155,0.049c1.345,0.188,2.191-0.648,2.354-1.641
			c3.386-2.252,6.494-4.794,8.802-7.675c3.071,1.63,6.527,2.432,10.041,1.779c6.422-1.192,9.375-8.034,10.246-13.778
			C173.759,106.044,172.742,104.429,170.755,104.328z M41.528,183.343c-0.014,0.126-0.022,0.251-0.036,0.378
			c-1.433,0.134-2.866,0.243-4.297,0.441c0.685-2.774,2.408-4.624,4.744-5.863C41.766,179.974,41.707,181.669,41.528,183.343z
			 M51.084,183.131c-2.391,0.059-4.78,0.168-7.166,0.341c0.419-2.073,0.662-4.145,0.44-6.195c2.089-0.666,4.477-1.013,6.993-1.155
			C51.002,178.368,50.985,180.744,51.084,183.131z M54.173,183.061c0.098-2.39,0.08-4.769-0.279-7.017
			c1.76-0.017,3.54,0.016,5.306,0.108c-0.015,1.404,0.077,2.82,0.103,4.209c0.017,0.902,0.052,1.805,0.077,2.706
			C57.643,183.049,55.907,183.046,54.173,183.061z M152.11,177.2c2.089,1.284,3.275,3.259,2.884,6.297
			c-1.397,0.005-2.796,0.011-4.192,0.017C151.528,181.592,152.062,179.317,152.11,177.2z M148.407,175.75
			c0.278,0.064,0.532,0.149,0.798,0.225c-0.022,0.943,0.079,1.9,0.101,2.865c0.036,1.592-0.145,3.154-0.528,4.682
			c-0.412,0.002-0.824,0.003-1.235,0.005C148.048,180.978,148.391,178.326,148.407,175.75z M141.297,179.169
			c0.058-1.371,0.183-2.77,0.171-4.153c1.1,0.012,2.168,0.069,3.21,0.155c-0.152,2.771-0.058,5.575-0.228,8.367
			c-1.112,0.005-2.225,0.009-3.337,0.014C141.175,182.091,141.236,180.63,141.297,179.169z M135.787,175.164
			c0.829-0.053,1.669-0.08,2.505-0.112c-0.009,1.373,0.114,2.757,0.172,4.117c0.061,1.464,0.123,2.929,0.185,4.393
			c-1.376,0.006-2.753,0.012-4.129,0.018C135.347,180.786,135.562,177.994,135.787,175.164z M133.077,175.359
			c-0.021,2.695-0.393,5.395-1.154,7.964c-0.032,0.105,0.037,0.169,0.03,0.267c-0.104,0-0.211,0.001-0.315,0.001
			c0.162-2.694,0.115-5.568-0.685-8.046C131.643,175.481,132.354,175.42,133.077,175.359z M101.91,95.601
			c0.151-1.513,0.207-3.039,0.285-4.558c0.03-0.573,0.074-1.146,0.115-1.72c3.979,0.175,8.284,0.236,12.415-0.104
			c0.198,1.223,0.566,2.47,0.772,3.489c0.205,1.02,0.474,2.013,0.725,3.013C111.476,96.054,106.64,95.807,101.91,95.601z
			 M120.17,95.228c-0.021-0.848-0.082-1.697-0.155-2.561c-0.107-1.261-0.093-2.719-0.25-4.106c3.501-0.68,6.684-1.809,9.15-3.661
			c0.064-0.048,0.073-0.123,0.132-0.175C128.01,89.711,125.689,93.963,120.17,95.228z M57.519,50.084
			c24.126,0.977,48.223-1.988,72.366-1.396c0.17,9.04,0.509,18.051,0.097,27.101c-0.089,1.958-0.209,4.01-0.452,6.025
			c-0.34-0.555-0.859-1.006-1.73-1.037c-10.957-0.397-22.348,2.451-33.559,2.31c-11.924-0.149-23.885-0.744-35.761-1.856
			C55.027,71.239,55.201,57.428,57.519,50.084z M90.451,101.653c0.052,0.004,0.11,0.006,0.161,0.01
			c2.244,0.156,5.489,0.581,9.18,0.977c-0.086,2.243,0.192,4.591,0.402,6.814c-2.339-0.329-4.752-0.516-7.297-0.43
			c-0.942,0.032-1.845,0.161-2.76,0.263c-0.242-0.711-0.442-1.395-0.536-2.153c-0.041-0.447-0.053-0.895-0.035-1.344
			c0.166-0.386,0.182-0.603,0.082-0.69C91.135,104.503,91.213,102.722,90.451,101.653z M68.75,92.828
			c-3.653-0.813-6.399-3.596-8.423-7.388c3.074,0.464,6.148,0.895,9.225,1.297c0.016,1.043,0.173,2.106,0.286,3.171
			c0.116,1.088,0.308,2.148,0.547,3.197C69.847,92.998,69.283,92.947,68.75,92.828z M81.572,94.539
			c-0.004,0.011-0.001,0.021-0.005,0.032c-2.668-0.231-5.323-0.513-7.928-0.918c-0.22-1.545-0.365-3.097-0.386-4.675
			c-0.008-0.618,0.011-1.209,0.022-1.791c3.033,0.365,6.072,0.673,9.114,0.949c0.015,0.354,0.032,0.711,0.035,1.079
			C82.436,91.05,82.225,92.818,81.572,94.539z M85.791,94.879c0.778-1.82,1.47-4.19,1.603-6.375c2.279,0.16,4.556,0.342,6.846,0.427
			c0.829,0.031,1.766,0.081,2.683,0.128c0.023,0.382,0.037,0.754,0.058,1.144c0.089,1.728,0.148,3.468,0.312,5.192
			C93.489,95.248,89.666,95.122,85.791,94.879z M27.729,123.272c-4.303,1.439-5.623-1.852-5.97-5.479
			c8.357-3.356,12.327-10.424,11.342-18.882c4.515-0.362,10.782-0.352,11.986,3.381c1.205,3.735-2.664,8.927-5.023,11.74
			C36.817,117.904,32.594,121.646,27.729,123.272z M40.879,120.486c0.878-0.813,1.722-1.634,2.49-2.438
			c1.633-1.712,3.307-3.748,4.658-5.967c0.265,0.188,0.56,0.295,0.865,0.234c-0.349,0.02-0.496-0.183,0.215,0.615
			c0.582,0.653,1.303,1.126,2.003,1.645c0.98,0.723,1.943,1.471,2.908,2.214c-1.716,2.415-3.037,5.265-4.422,7.923
			C46.643,123.404,43.696,122.044,40.879,120.486z M54.275,126.76c-0.535-0.228-1.08-0.478-1.619-0.709
			c0.673-0.958,1.358-1.908,2.011-2.88c0.848-1.263,1.79-2.537,2.632-3.847c2.043,1.684,4.997,4.276,7.586,4.649
			c-1.518,1.993-2.897,4.104-4.058,6.348C59.843,128.352,55.787,127.403,54.275,126.76z M61.982,183.11
			c0.024-0.916,0.061-1.832,0.078-2.749c0.025-1.327,0.116-2.681,0.111-4.024c1.271,0.088,2.516,0.182,3.702,0.268
			c0.105,1.965,0.713,3.932,1.089,5.851c0.05,0.254,0.112,0.499,0.163,0.752C65.409,183.168,63.695,183.14,61.982,183.11z
			 M70.654,183.284c-0.189-2.239-0.492-4.441-1.158-6.451c0.751,0.034,1.468,0.057,2.129,0.058c0.015,2.131,0.117,4.269,0.367,6.422
			C71.545,183.304,71.1,183.293,70.654,183.284z M71.763,171.578c-2.869-0.201-6.237-0.501-9.776-0.696
			c-0.215-1.622-0.355-3.255-0.416-4.89c-0.069-1.822,0.298-4.103-0.151-5.988c3.752,0.295,7.5,0.59,11.242,0.874
			C72.312,164.484,71.958,168.038,71.763,171.578z M99.905,156.415c-13.352,0.076-26.592-0.716-39.939,0.044
			c1.837-20.182,10.339-39.337,32.933-41.448c22.421-2.095,33.989,18.427,35.866,37.781c0.033,0.339,0.154,0.611,0.266,0.893
			C119.353,154.483,109.791,156.357,99.905,156.415z M123.487,183.623c-0.334-2.583-0.604-5.163-0.854-7.742
			c0.342,0.123,0.705,0.221,1.139,0.215c1.144-0.018,2.659-0.141,4.367-0.295c0.224,1.158,0.518,2.303,0.728,3.475
			c0.254,1.419,0.377,2.871,0.473,4.324C127.388,183.607,125.438,183.615,123.487,183.623z M123.772,169.759
			c-0.668,0.006-1.186,0.221-1.636,0.509c-0.211-2.846-0.376-5.701-0.495-8.568c2.286-0.339,4.5-0.825,6.575-1.504
			c-0.165,3.097,0.658,6.526,1.641,9.347C127.583,169.645,125.492,169.744,123.772,169.759z M129.705,131.982
			c-1.476-3.064-3.222-5.944-5.281-8.532c0.065-0.032,0.133-0.036,0.196-0.08c2.197-1.503,4.453-2.919,6.727-4.31
			c0.394,1.45,1.021,2.836,2.004,4.163c0.98,1.324,2.413,2.745,4.008,3.886C134.868,128.825,132.309,130.441,129.705,131.982z
			 M141.305,124.213c-1.602-0.805-3.273-1.494-4.692-2.707c-1.24-1.061-2.162-2.431-2.815-3.923c0.769-0.461,1.532-0.932,2.303-1.39
			c2.52-1.495,6.08-2.791,8.693-4.633c1.113,2.032,2.562,3.894,4.232,5.457c0.062,0.059,0.139,0.098,0.202,0.155
			C146.484,119.369,144.013,121.959,141.305,124.213z M161.734,116.248c-3.27,0.79-6.899-1.431-9.184-3.527
			c-2.942-2.699-4.614-6.352-4.615-10.337c-0.001-3.993,2.362-7.269,5.238-9.888c0.021,0.658,0.053,1.29,0.047,1.814
			c-0.046,3.833-0.062,7.665-0.06,11.499c0.001,1.95,1.796,3.07,3.582,2.729c3.622-0.691,7.114,0.356,10.657,1.006
			C166.579,112.596,165.042,115.448,161.734,116.248z"/>
	</g>
</g>
<g>
</g>
<g>
</g>
<g>
</g>
<g>
</g>
<g>
</g>
<g>
</g>
<g>
</g>
<g>
</g>
<g>
</g>
<g>
</g>
<g>
</g>
<g>
</g>
<g>
</g>
<g>
</g>
<g>
</g>
</svg>
