<?xml version="1.0" encoding="iso-8859-1"?>
<!-- Generator: Adobe Illustrator 16.0.0, SVG Export Plug-In . SVG Version: 6.00 Build 0)  -->
<!DOCTYPE svg PUBLIC "-//W3C//DTD SVG 1.1//EN" "http://www.w3.org/Graphics/SVG/1.1/DTD/svg11.dtd">
<svg version="1.1" id="Capa_1" xmlns="http://www.w3.org/2000/svg" xmlns:xlink="http://www.w3.org/1999/xlink" x="0px" y="0px"
	 width="190.535px" height="190.535px" viewBox="0 0 190.535 190.535" style="enable-background:new 0 0 190.535 190.535;"
	 xml:space="preserve">
<g>
	<g>
		<path d="M71.664,50.74c-1.068,0.959-1.972,2.338-2.98,3.925c-1.55,2.441-3.579,4.291-5.424,6.455
			c-1.352,1.586-0.113,4.758,2.249,3.864c2.803-1.061,5.056-3.753,7.01-5.937c1.595-1.783,3.056-3.285,3.864-5.56
			C77.393,50.645,73.614,48.989,71.664,50.74z"/>
		<path d="M64.375,40.06c-3.034-0.694-5.417,2.101-7.539,3.936c-1.988,1.718-3.904,3.516-5.808,5.325
			c-0.695,0.661-0.92,1.835-0.529,2.734c0.258,0.825,0.955,1.525,1.81,1.503c0.619,0.15,1.28,0.113,1.782-0.267
			c1.949-1.474,3.92-2.916,5.898-4.35c2.219-1.607,5.289-2.871,6.313-5.488C66.833,42.093,65.729,40.369,64.375,40.06z"/>
		<path d="M63.219,27.727c-1.707-2.668-4.98-3.228-7.826-4.33c-2.98-1.154-6.088-1.772-9.283-1.741c-2.975,0.03-2.893,4.327,0,4.558
			c2.932,0.234,5.665,1.233,8.321,2.452c2.329,1.069,4.044,2.888,6.706,2.689C62.86,31.226,64.272,29.373,63.219,27.727z"/>
		<path d="M71.991,7.511c-0.151-1.822-1.934-3.86-3.946-3.306c-1.993,0.548-2.543,3.199-1.732,4.844
			c1.023,2.077,1.579,4.754,3.348,6.362c1.284,1.167,3.708,0.449,3.609-1.495C73.158,11.748,72.171,9.682,71.991,7.511z"/>
		<path d="M95.005,0.407c-2.027-0.933-3.701-0.201-4.93,1.569c-1.343,1.933-0.333,6.063-0.108,8.184
			c0.338,3.189,4.612,3.185,4.954,0c0.145-1.352,0.29-2.698,0.532-4.037c0.122-0.673,0.333-0.997,0.516-1.662
			c0.038-0.286,0.077-0.571,0.115-0.857c0.048-0.273,0.05-0.388,0.03-0.428C96.375,2.109,96.158,0.938,95.005,0.407z"/>
		<path d="M121.395,4.007c-4.459-1.926-8.225,3.95-10.666,6.906c-2.042,2.472,1.031,5.543,3.503,3.503
			c2.522-2.081,5.279-3.921,7.725-6.052C123.202,7.279,122.991,4.697,121.395,4.007z"/>
		<g>
			<path d="M129.533,21.099c0.202-0.061,0.362-0.087,0.476-0.098c-0.059,0.001-0.073,0.007-0.185,0.001
				c-0.812-0.049-1.514,0.329-2.161,0.755c-0.632,0.415-1.541,0.785-2.133,1.034c-1.011,0.426-2.068,0.743-3.067,1.193
				c-0.459,0.207-0.867,0.39-1.237,0.76c-0.037,0.037-0.051,0.052-0.084,0.086c-0.052,0.037-0.109,0.05-0.159,0.093
				c-0.061,0.051-0.066,0.135-0.12,0.192c-0.271,0.284-0.249,0.29-0.121,0.193c-0.408,0.554-0.591,1.246-0.429,1.923
				c0.1,0.414,1.684,2.441,0.376,0.663c0.337,0.458,0.581,0.785,1.082,1.078c1.736,1.017,4.367,0.061,6.166-0.388
				c2.247-0.56,4.451-1.071,5.351-3.458C134.229,22.622,131.775,20.597,129.533,21.099z"/>
			<path d="M130.008,21C130.174,20.997,130.188,20.982,130.008,21L130.008,21z"/>
		</g>
		<g>
			<path d="M129.933,52.573c0.005,0.009,0.006,0.019,0.01,0.029C130.178,53.159,130.184,53.173,129.933,52.573z"/>
			<path d="M129.942,52.602c-0.044-0.105-0.082-0.194-0.143-0.34c-0.451-0.77-1.107-1.172-1.919-1.476
				c-0.776-0.29-1.44-0.643-2.163-1.072c-1.528-0.908-2.962-1.959-4.398-3.001c-2.617-1.899-4.878,1.99-3.182,4.124
				c1.714,2.155,4.742,4.714,7.269,5.818c0.978,0.427,2.288,0.733,3.241,0c0.287-0.221,0.6-0.413,0.845-0.681
				C130.371,55.02,130.542,53.751,129.942,52.602z"/>
		</g>
		<path d="M61.688,119.781c-1.816-1.094-3.726-0.254-4.887,1.28c-0.552,0.731-1.104,1.461-1.657,2.192
			c-2.523,2.255-4.172,5.434-2.675,8.753c1.449,3.211,5.629,4.288,8.825,4.229c3.448-0.062,7.533-1.526,8.514-5.213
			C71.177,125.878,65.354,121.987,61.688,119.781z"/>
		<path d="M168.147,136.706c-0.109-16.405,0.64-39.158-6.252-54.462c-0.263-0.583-0.639-0.961-1.052-1.253
			c-0.142-0.926-0.594-1.828-1.513-2.474c-14.679-10.315-39.691-5.817-56.409-5.172c-2.228,0.086-4.467,0.113-6.712,0.117
			c0.044-0.235,0.144-0.426,0.15-0.688c0.111-4.776-0.21-9.506-0.538-14.268c-0.141-2.053-0.142-4.128-0.306-6.164
			c0.698-0.078,1.398-0.205,2.098-0.454c8.256-2.94,10.021-15.164,8.727-22.605c-0.709-4.078-3.489-6.544-6.968-7.293
			c-1.066-0.725-2.107-1.297-2.96-1.633c-6.06-2.386-13.778-1.596-19.398,1.529c-14.531,8.078-3.244,33.379,10.176,31.211
			c0.036,1.772,0.215,3.572,0.363,5.409c0.382,4.753,0.777,9.502,0.981,14.268c0.01,0.228,0.104,0.391,0.143,0.598
			c-21.292-0.561-43.1-3.094-63.614,1.985c-3.505,0.868-3.338,4.639-1.226,6.435c-0.828,32.477,1.606,64.948,1.815,97.426
			c0.016,2.421,1.899,3.995,4.182,4.182c23.992,1.967,47.835,5.209,71.891,6.443c16.38,0.84,40.995,2.734,54.987-7.801
			c0.388-0.292,0.684-0.629,0.917-0.986c0.792,0.037,1.57-0.196,2.133-0.895C169.123,168.515,168.241,150.849,168.147,136.706z
			 M155.235,84.606c-0.212,4.65-0.077,9.312,0.232,13.978c-3.677-2.77-7.655-5.229-11.331-7.955
			c-4.077-3.022-8.118-6.085-12.197-9.1C139.688,81.845,147.425,82.68,155.235,84.606z M126.964,81.393
			c9.165,7.697,18.39,17.309,28.943,22.779c0.2,2.12,0.427,4.241,0.668,6.363c-4.821-5.087-11.786-9.199-16.981-12.892
			c-7.952-5.65-16.172-11.014-24.479-16.174C119.082,81.377,123.025,81.338,126.964,81.393z M110.003,81.596
			c8.316,6.061,16.771,11.93,25.033,18.074c7.602,5.654,14.535,13.004,22.411,18.195c0.294,2.386,0.568,4.771,0.835,7.156
			c-0.863-0.578-1.76-1.097-2.666-1.551c-2.212-10.229-10.98-17.581-22.027-19.519c-1.675-0.294-2.981,0.382-3.856,1.418
			c0.058-0.568-0.109-1.145-0.671-1.591c-9.661-7.685-19.795-14.893-30.003-21.906C102.735,81.807,106.377,81.698,110.003,81.596z
			 M159.305,135.593c-0.742-0.349-1.542-0.623-2.234-0.968c-0.494-0.247-0.977-0.534-1.468-0.798
			c0.104-0.492,0.234-0.978,0.306-1.476c0.262-1.811,0.329-3.566,0.229-5.261c0.091,0.073,0.192,0.131,0.282,0.205
			c0.869,0.711,1.604,1.538,2.335,2.366C158.948,131.639,159.154,133.617,159.305,135.593z M129.316,110.47
			c0.476,0.59,1.125,1.076,2.13,1.252c9.35,1.639,16.519,7.05,16.703,17.092c0.148,8.048-5.326,15.262-13.05,17.205
			C110.149,152.301,108.438,111.678,129.316,110.47z M112.455,112.851c-0.006-0.226-0.014-0.453-0.014-0.675
			c0.003-5.091,0.006-10.181,0.009-15.272c3.941,3.266,7.991,6.373,12.246,9.184C119.855,106.604,115.626,109.086,112.455,112.851z
			 M105.78,150.37c0.196,2.518,0.027,5.054-0.312,7.562c-7.153,0.022-14.306,0.056-21.458,0.162c-0.51-1.883-1.016-3.732-0.48-5.778
			c0.201-0.77-0.037-1.458-0.465-2.006c0.425-0.48,0.9-0.869,1.302-1.39c7.545-9.775,6.252-20.301,0.781-28.762
			c-0.668-6.644-1.197-13.269-1.415-19.932c7.088,0.028,14.178,0.052,21.266,0.058c0.002,3.506,0.004,7.012,0.006,10.518
			c0.002,3.249-0.914,7.617,2.151,9.734c0.228,0.156,0.553,0.163,0.843,0.234c-0.452,1.324-0.82,2.703-1.078,4.136
			c-1.109,6.143-0.186,11.667,2.237,16.237c-1.428-0.154-2.932,0.723-3.412,2.188C104.947,145.764,105.584,147.849,105.78,150.37z
			 M94.646,81.881c4.412,3.53,8.687,7.268,12.996,10.962c-2.658,0.002-5.317,0.015-7.975,0.021
			c-2.401-2.578-6.042-4.283-8.908-6.337c-2.143-1.536-4.231-3.147-6.329-4.745C87.842,81.863,91.246,81.884,94.646,81.881z
			 M79.211,81.659c2.835,2.427,5.709,4.804,8.665,7.084c1.655,1.276,3.422,2.809,5.286,4.138c-2.787,0.01-5.575,0.011-8.362,0.022
			c-2.565-2.275-6.32-3.916-9.04-5.718c-2.836-1.878-5.576-3.895-8.322-5.901C71.362,81.404,75.288,81.538,79.211,81.659z
			 M76.708,145.281c-6.716,8.568-18.204,5.918-25.35-0.419c-9.324-8.265-6.669-17.231-2.901-27.268
			c0.502-1.337,0.138-2.486-0.632-3.306C64.05,102.692,91.122,126.89,76.708,145.281z M78.006,154.773
			c-0.194,1.583-0.255,3.19-0.315,4.794c-1.118-0.894-2.197-1.848-3.255-2.833C75.661,156.185,76.857,155.546,78.006,154.773z
			 M62.574,81.156c0.034,0.036,0.046,0.079,0.086,0.112c3.32,2.775,6.72,5.445,10.171,8.054c1.566,1.183,3.348,2.767,5.225,4.197
			c-1.05,0.647-1.808,1.747-1.786,3.047c0.01,0.605,0.098,1.207,0.123,1.812c-3.152-2.548-7.185-4.397-10.467-6.57
			c-4.776-3.162-9.061-6.831-13.161-10.778C56.031,81.018,59.302,81.08,62.574,81.156z M48.764,81.102
			c0.037,0.063,0.051,0.129,0.099,0.19c3.484,4.436,7.686,8.223,12.161,11.642c4.607,3.52,10.036,8.553,15.691,10.163
			c0.301,3.002,0.703,5.996,1.236,8.972c-1.919-1.615-3.996-3.03-6.15-4.233c0.631-0.998,0.599-2.429-0.706-3.287
			C59.75,97.079,47.51,91.436,38.074,81.563C41.629,81.293,45.193,81.171,48.764,81.102z M30.876,82.253
			c1.134-0.142,2.273-0.213,3.409-0.327c7.069,8.865,16.373,15.99,26.147,21.941c-3.376-0.482-6.693-0.334-9.721,0.64
			c0.197-0.803-0.013-1.706-0.962-2.365c-4.896-3.398-9.245-7.833-13.645-11.833c-1.693-1.54-3.375-3.089-5.09-4.603
			C30.966,84.553,30.924,83.403,30.876,82.253z M31.183,89.989c0.85,0.896,1.679,1.812,2.54,2.699
			c4.322,4.456,8.797,8.718,13.305,12.98c0.135,0.128,0.276,0.17,0.415,0.259c-1.157,0.662-2.258,1.455-3.271,2.421
			c-0.577-0.566-1.269-1.023-1.976-1.581c-1.821-1.435-3.572-2.961-5.315-4.489c-1.79-1.567-3.562-3.178-5.397-4.7
			C31.383,95.048,31.281,92.519,31.183,89.989z M31.648,101.782c0.936,0.977,1.885,1.943,2.826,2.901
			c1.619,1.649,3.265,3.273,4.959,4.845c0.689,0.64,1.381,1.338,2.164,1.836c-1.12,1.657-2.083,3.59-2.838,5.847
			c-0.01,0.03,0.004,0.052-0.005,0.082c-0.546-1.699-3.022-2.523-4.396-3.444c-0.81-0.543-1.524-1.217-2.304-1.804
			C31.921,108.623,31.781,105.203,31.648,101.782z M32.238,116.703c1.437,1.156,3.652,3.372,5.518,2.649
			c0.337-0.13,0.569-0.362,0.766-0.612c-1.872,3.362-2.609,7.101-2.498,10.896c-1.181-0.724-2.305-1.519-3.37-2.411
			C32.527,123.717,32.373,120.211,32.238,116.703z M36.47,133.858c0.668,3.483,1.97,6.909,3.779,10.023
			c-2.385-1.476-4.767-2.958-7.148-4.439c-0.088-2.691-0.201-5.384-0.296-8.075C34.017,132.401,35.296,133.32,36.47,133.858z
			 M39.775,175.909c-6.652-0.674-7.084-7.227-6.711-14.008c6.405,5.117,12.672,10.416,19.236,15.321
			C48.125,176.778,43.953,176.332,39.775,175.909z M63.058,178.351c-1.781-0.182-3.561-0.373-5.341-0.56
			c-0.036-0.481-0.243-0.957-0.722-1.31c-7.999-5.884-15.679-12.203-23.701-18.055c0.159-2.165,0.306-4.258,0.258-6.078
			c-0.005-0.208-0.016-0.416-0.021-0.624c5.513,4.839,11.17,9.537,17.004,13.955c5.248,3.975,10.959,9.624,17.031,13.091
			C66.06,178.627,64.578,178.507,63.058,178.351z M74.097,179.38c0.048-0.346-0.002-0.701-0.22-1.021
			c-3.803-5.597-11.166-9.195-16.618-13.024c-8.093-5.686-16.202-11.313-23.864-17.564c-0.05-1.715-0.127-3.43-0.181-5.145
			c17.246,12.86,35.352,24.533,52.466,37.576C81.848,179.974,77.996,179.708,74.097,179.38z M94.955,180.638
			c-9.902-7.814-20.283-14.945-30.863-21.784c2.506,0.046,4.99-0.295,7.389-1.01c7.95,9.88,19.823,16.138,30.53,22.952
			C99.664,180.768,97.312,180.717,94.955,180.638z M109.559,180.79c-0.113-0.232-0.275-0.452-0.51-0.646
			c-7.166-5.881-15.46-9.99-23.24-14.854c4.041,0.052,8.084,0.062,12.126,0.091c3.62,3.092,7.329,6.065,11.104,8.967
			c2.295,1.764,4.908,4.282,7.67,6.192C114.324,180.638,111.94,180.756,109.559,180.79z M123.018,180.211
			c-2.387-2.894-6.306-4.691-9.368-6.756c-3.773-2.544-7.431-5.257-11.033-8.039c2.036,0.011,4.072,0.039,6.108,0.046
			c1.614,0.005,3.282-1.148,3.642-2.773c0.028-0.126,0.056-0.291,0.083-0.421c7.424,5.751,14.992,11.399,22.648,16.815
			C131.053,179.553,127.026,179.944,123.018,180.211z M140.431,178.408c-7.773-7.788-18.092-13.08-27.406-19.053
			c0.47-2.664,0.792-5.677,0.696-8.561c5.188,6.33,11.747,11.466,18.27,16.339c3.529,2.636,9.788,8.314,15.201,10.233
			C144.929,177.749,142.676,178.094,140.431,178.408z M154.96,176.031c-0.253,0.003-0.493-0.024-0.771,0.032
			c-0.563,0.116-1.118,0.203-1.68,0.313c-0.029-0.109-0.022-0.212-0.081-0.324c-2.55-4.845-12.061-8.097-16.62-11.026
			c-7.606-4.889-14.756-10.404-21.305-16.636c-0.352-0.334-0.711-0.331-1.034-0.219c-0.079-0.52-0.117-1.06-0.239-1.553
			c4.316,4.309,10.399,7.082,17.439,7.722c0.433,0.039,0.855,0.031,1.283,0.043c5.006,3.158,9.609,6.897,14.238,10.588
			c2.973,2.371,6.34,5.79,10.162,6.717C155.906,173.137,155.512,174.587,154.96,176.031z M157.393,168.25
			c-2.916-2.792-7.2-4.909-10.346-7.224c-3.362-2.473-6.744-4.878-10.274-7.057c2.763-0.571,5.312-1.728,7.626-3.26
			c1.767,1.364,3.507,2.759,5.289,4.101c2.389,1.798,5.989,5.744,9.128,5.822c0.02,0.001,0.03-0.012,0.048-0.012
			C158.49,163.168,158.036,165.712,157.393,168.25z M159.278,157.288c-1.737-1.98-5.21-3.486-7.098-4.761
			c-1.778-1.199-3.546-2.411-5.312-3.63c1.333-1.147,2.518-2.465,3.602-3.87c0.545,0.321,1.07,0.664,1.626,0.974
			c2.443,1.355,4.975,2.918,7.637,3.89C159.665,152.358,159.539,154.826,159.278,157.288z M154.282,144.461
			c-0.88-0.385-1.729-0.838-2.591-1.267c1.291-1.986,2.323-4.139,3.09-6.379c1.368,0.942,3.164,2.281,4.787,2.406
			c0.14,2.532,0.226,5.063,0.225,7.592C158.015,145.911,156.072,145.245,154.282,144.461z"/>
		<path d="M137.211,126.925c-0.398-1.737-1.835-2.834-3.541-3.573c-0.163-0.374-0.387-0.84-0.284-0.283
			c-0.439-2.388-3.579-3.254-5.471-2.094c-0.51,0.312-0.979,0.689-1.428,1.089c-1.104,0.332-1.969,1.119-2.319,2.235
			c-0.026,0.025-0.053,0.05-0.077,0.076c-1.615,0.452-2.661,2.242-2.546,3.976c-0.172,0.734-0.243,1.509-0.099,2.368
			c0.58,3.428,5.269,5.486,8.343,5.368c3.416-0.131,5.257-2.344,5.706-5.07c0.024-0.019,0.05-0.043,0.074-0.062
			C136.912,129.937,137.604,128.643,137.211,126.925z"/>
	</g>
</g>
<g>
</g>
<g>
</g>
<g>
</g>
<g>
</g>
<g>
</g>
<g>
</g>
<g>
</g>
<g>
</g>
<g>
</g>
<g>
</g>
<g>
</g>
<g>
</g>
<g>
</g>
<g>
</g>
<g>
</g>
</svg>
