<?xml version='1.0' encoding='iso-8859-1'?>
<!DOCTYPE svg PUBLIC '-//W3C//DTD SVG 1.1//EN' 'http://www.w3.org/Graphics/SVG/1.1/DTD/svg11.dtd'>
<svg version="1.1" xmlns="http://www.w3.org/2000/svg" viewBox="0 0 422.729 422.729" xmlns:xlink="http://www.w3.org/1999/xlink" enable-background="new 0 0 422.729 422.729">
  <g>
    <path d="m279.05,254.18c0-6.826 0-13.652 0-20.492-14.461-13.246-22.126-30.063-24.743-49.193-1.421-10.383 3.73-18.907 9.919-26.711 13.033-16.432 26.185-32.769 39.241-49.184 8.555-10.755 16.925-21.66 25.627-32.293 1.625-1.985 4.7-4.418 6.623-4.058 1.875,0.351 3.679,3.815 4.56,6.257 3.307,9.166 6.465,18.401 9.245,27.739 12.056,40.503 4.76,77.156-22.614,109.472-8.747,10.326-22.116,16.312-39.676,18.516 0.895,11.698 1.7,23.512 2.794,35.298 0.187,2.016 1.237,4.21 2.516,5.824 9.419,11.889 18.915,23.719 28.564,35.42 4.134,5.013 8.683,9.684 13.06,14.496 18.973,20.859 38.24,41.383 60.901,58.441 4.807,3.619 9.196,8.231 12.559,13.209 3.698,5.472 2.471,10.789-3.27,13.938-7.854,4.308-16.334,7.482-24.588,11.046-4.253,1.836-7.587,0.506-10.439-3.082-5.148-6.477-11.066-12.41-15.678-19.235-18.869-27.92-39.706-54.217-62.63-78.922-8.217-8.855-17.918-11.287-29.781-9.656-0.993,3.204-2.202,6.194-2.84,9.302-6.325,30.772-27.978,46.365-55.827,54.512-35.892,10.5-67.802,1.768-95.434-23.15-2.141-1.931-4.285-3.927-6.057-6.183-2.507-3.193-1.597-6.084 1.608-8.3 0.878-0.607 1.937-0.96 2.929-1.39 17.759-7.699 32.991-19.192 48.227-30.931 11.12-8.568 23.39-15.711 35.479-22.933 12.255-7.321 25.852-5.37 39.166-4.17 2.03,0.183 4.233,1.312 5.861,2.619 8.377,6.73 16.593,13.662 26.075,21.526 2.509-0.112 6.825-0.305 12.217-0.546-1.331-2.559-2.059-4.837-3.475-6.545-14.995-18.089-30.13-36.061-45.163-54.119-10.405-12.498-20.714-25.075-31.059-37.624-2.256-2.736-4.478-5.499-7.16-8.797-9.305,9.419-14.933,20.076-18.853,31.735-1.958,5.822-3.275,11.885-5.584,17.552-0.941,2.308-4.026,5.611-5.636,5.352-2.592-0.416-6.444-3.137-6.809-5.367-1.087-6.653-1.446-13.614-0.744-20.314 0.663-6.332 3.031-12.486 4.991-20.034-2.922,1.217-5.177,1.823-7.072,3.007-5.825,3.642-11.572,7.418-17.242,11.298-13.776,9.428-23.784,21.997-30.955,37.01-1.758,3.681-3.164,9.27-8.906,7.464-5.799-1.824-5.047-7.599-4.42-12.094 3.017-21.607 10.617-41.219 26.177-57.134 2.505-2.562 4.944-5.191 8.264-8.683-2.743-0.759-4.535-1.48-6.392-1.736-21.656-2.989-42.837-8.204-61.634-19.434-18.759-11.207-33.925-26.583-37.347-49.328-1.58-10.502 0.261-21.545 0.861-32.325 0.109-1.959 1.23-4.915 2.706-5.577 10.975-4.921 8.517-18.538 16.648-25.226 0.815-0.67 0.826-2.759 0.651-4.118-1.279-9.93 4.575-15.55 12.185-19.822 4.469-2.508 8.373-5.052 11.011-9.82 3.885-7.02 9.928-11.279 18.472-11.298 2.42-0.005 5.04-0.626 7.222-1.68 13.44-6.494 25.423-4.557 36.562,6.494 2.902-1.528 5.827-3.53 9.055-4.68 10.16-3.618 21.73,1.125 27.454,11.715 11.513,21.304 23.179,42.554 33.727,64.338 5.271,10.885 8.221,22.894 12.158,34.216 30.587-28.209 40.441-33.265 56.03-27.399-11.971,20.703-28.511,37.903-42.161,58.094 20.157-3.345 25.658-2.708 36.067,4.596-11.933,10.951-27.615,14.051-42.047,22.311 5.772,8.515 10.718,17.335 17.111,24.937 15.114,17.971 30.935,35.346 46.4,53.023 1.153,1.318 1.746,3.124 2.6,4.704 0.904-0.623 1.809-1.251 2.713-1.878zm-69.13-59.073c4.2-8.1-2.151-13.086-5.56-20.44-5.359,5.034-9.95,9.346-14.752,13.856 2.562,3.09 4.36,5.258 6.555,7.907 1.986-3.233 3.669-5.974 6.686-10.885-0.693,7.699-1.141,12.677-1.589,17.655 0.705,0.162 1.41,0.324 2.114,0.486 2.308-2.995 4.615-5.991 6.923-8.986-1.116,4.484-2.232,8.969-3.54,14.227 47.116,55.644 94.619,111.745 142.104,167.824 1.742-1.389 2.773-2.21 4.212-3.358 0.418,4.371 0.73,7.632 1.26,13.174 3.027-4.617 4.637-7.072 7.62-11.622-3.259,15.536-3.259,15.536 1.157,21.364 2.045-3.006 4.053-5.957 6.061-8.909 0.723,0.11 1.446,0.22 2.169,0.329-4.776,9.91-6.524,19.241 4.769,26.816 7.696-2.142 15.665-5.589 23.708-12.602-4.359-4.19-8.095-7.911-11.971-11.481-8.735-8.045-17.62-15.929-26.28-24.053-4.479-4.202-8.76-8.641-12.872-13.205-16.441-18.244-34.067-35.602-48.879-55.093-27.352-35.992-53.871-72.568-86.479-104.378-0.85,0.338-2.129,0.847-3.416,1.374zm-165.11-81.29c0.48,0.034 0.96,0.068 1.44,0.103-1.114,7.788-2.033,15.612-3.422,23.351-0.724,4.031 0.332,6.905 3.308,9.575 9.565,8.584 21.004,12.967 33.688,16.484 2.849-14.281 2.161-28.168 8.553-40.773-1.4,14.387-2.8,28.773-4.227,43.44 7.676,1.537 13.893,2.781 20.247,4.053 1.615-6.138 2.972-11.295 4.329-16.451 0.286,0.04 0.571,0.079 0.857,0.118-0.584,5.558-1.168,11.116-1.815,17.277 18.122,3.454 35.583,3.371 52.533,1.817 6.144-9.25 4.089-16.932-2.122-23.559-5.659-6.038-11.745-11.786-18.239-16.905-11.782-9.288-22.051-19.698-29.06-33.136-2.161-4.142-5.029-7.915-7.552-11.87-9.096-14.257-26.597-19.978-40.628-7.042-6.93,6.389-15.218,5.58-23.189,1.187-1.26-0.694-2.338-1.724-3.611-2.385-6.249-3.242-10.545-1.003-11.239,5.921-0.467,4.66-1.137,9.36-0.955,14.012 0.327,8.343 0.453,16.837 5.289,25.596 1.593-5.05 2.799-8.871 4.004-12.691 0.311,9.152-5.782,19.503 6.515,25.943 1.806-8.202 3.551-16.133 5.296-24.065zm288.652-26.571c-22.255,26.841-44.23,53.177-65.935,79.734-2.624,3.211-4.754,7.445-5.456,11.493-2.245,12.943 7.119,35.659 18.711,46.015 1.342-13.257 6.909-25.134 5.938-38.429-0.483-6.612 0.265-13.692 3.948-19.516 0.84,0.15 1.681,0.3 2.521,0.45 0,6.55 0,13.1 0,19.65 6.249-5.749 14.499-10.023 10.82-20.874-1.209-3.565-0.49-7.926-0.072-11.862 0.471-4.433 0.642-9.254 6.644-13.077 0,8.256 0,15.181 0,24.179 8.084-9.147 7.338-20.167 14.866-29.311 0,8.488 0,14.864 0,21.78 3.459-1.409 6.176-2.515 10.096-4.112-1.472,6.874-5.509,9.761-9.695,12.397-6.098,3.842-18.307,18.706-21.405,26.377 6.965-1.447 10.868-9.749 20.007-9.163-5.687,7.953-12.409,12.428-20.525,15.105-2.303,0.76-5.6,1.472-6.44,3.186-3.43,6.997-7.07,14.099-6.9,23.971 4.76-1.288 8.889-1.893 12.589-3.493 17.829-7.711 27.729-22.82 34.858-39.727 13.413-31.816 11.811-63.297-4.57-94.773zm-174.726,250.177c0.108-0.917 0.215-1.834 0.323-2.75 5.745,0 11.893-1.312 17.142,0.301 8.301,2.551 13.327-1.008 19.568-6.638-7.976-0.44-14.975,2.163-24.032-1.38 8.861-3.026 15.611-4.299 22.219-2.715 7.405,1.774 12.574-0.959 17.801-6.221-4.894-3.547-9.641-6.988-15.58-11.293 10.872-2.529 16.392,4.734 23.017,7.44 10.179-3.482 19.899-6.808 31.37-10.732-7.435-5.529-13.377-10.159-19.567-14.43-1.989-1.372-4.577-2.3-6.987-2.57-12.837-1.438-24.966-0.193-36.168,7.542-24.03,16.594-48.43,32.653-72.663,48.952-0.254,0.171-0.312,0.633-0.593,1.244 7.402,8.202 16.355,13.946 27.424,15.98 11.008,2.022 22.002,4.662 33.112,5.424 9.23,0.633 19.774,1.42 27.7-2.254 16.354-7.581 31.264-18.239 40.556-34.658 2.345-4.143 4.736-8.529 3.5-14.283-2.759,0.803-4.798,1.427-6.854,1.99-8.579,2.351-16.243,5.599-19.562,15.095-1.068,3.055-4.054,5.44-6.162,8.132-0.585-0.297-1.17-0.594-1.755-0.891 0.989-3.493 1.978-6.985 3.241-11.443-5.825,2.079-9.531,4.74-11.837,9.726-2.097,4.533-3.612,9.873-9.951,12.539 0-3.634 0-6.175 0-9.053-21.921,9.95-35.045,14.102-46.418,9.045 9.716-3.007 18.671-5.777 27.626-8.548-0.127-0.619-0.253-1.239-0.38-1.858-5.364-0.564-10.727-1.128-16.09-1.693zm14.843-173.323c6.91-6.094 10.973-12.349 13.209-20.403 6.325-22.783 3.106-44.214-7.318-65.02-9.702-19.363-19.187-38.836-28.844-58.222-1.278-2.565-2.637-5.256-4.584-7.29-6.554-6.848-14.495-5.673-19.861,2.144-4.166,6.069-3.422,11.222 1.008,16.686 8.773,10.821 9.77,22.828 4.978,35.658-1.385,3.709-2.581,7.551-3.296,11.437-2.374,12.889-1.593,25.376 5.743,39.135 1.661-6.853 2.659-11.626 3.996-16.302 1.346-4.709 3.03-9.321 4.566-13.975 0.43,0.137 0.86,0.275 1.29,0.413-2.354,10.819-4.708,21.638-7.078,32.528 3.889,3.057 7.192,5.654 10.885,8.557 3.534-9.143 6.725-17.397 9.916-25.651 0.674,0.217 1.349,0.434 2.023,0.651-2.474,9.597-4.949,19.193-7.411,28.745 9.68,8.712 18.493,17.202 20.778,30.909zm-80.419,79.182c1.649-1.142 2.052-1.28 2.224-1.561 15.047-24.547 39.075-37.977 63.367-51.023 1.626-0.873 3.948-0.448 5.947-0.627 0.152,2.244 0.977,4.709 0.326,6.689-1.686,5.131-4.316,9.951-6.02,15.078-1.942,5.844-4.811,11.695-2.4,20.36 2.437-6.176 4.028-10.495 5.828-14.725 10.495-24.662 26.956-43.306 52.778-52.708 6.436-2.343 12.626-5.395 18.828-8.335 1.954-0.926 3.58-2.548 5.356-3.852-0.258-0.736-0.515-1.471-0.773-2.207-5.955,0.802-12.289,0.608-17.762,2.683-5.65,2.142-10.462,6.492-17.917,11.364 0.864-5.386 0.661-8.36 1.836-10.619 3.156-6.068 6.458-12.156 10.501-17.648 9.218-12.52 18.942-24.667 28.382-37.025 1.38-1.806 2.332-3.939 3.482-5.921-0.467-0.585-0.933-1.17-1.4-1.756-5.625,2.888-11.496,5.386-16.827,8.741-13.173,8.291-24.028,19.454-29.475,33.83-5.998,15.829-10.305,31.905-29.027,37.43-8.27,10.787-20.542,10.583-32.345,12.277-4.724,0.678-9.821,2.764-13.542,5.725-17.031,13.558-27.232,31.355-31.367,53.83zm-60.28-176.427c9.81,10.805 19.951,12.529 33.266,4.683 15.537-9.156 30.891-4.561 41.924,9.917 2.94,3.859 5.797,7.782 9.254,12.431 2.735-13.161 1.858-24.188-3.455-35.307-7.23-15.131-21.141-19.234-34.1-8.685-7.343,5.977-15.003,7.802-24.202,4.641-13.355-4.588-18.276-1.659-22.687,12.32zm50.808-28.441c19.86-4.102 31.625,3.982 40.15,19.414 0.625-4.468 0.721-8.343-0.393-11.83-1.526-4.774-4.18-9.175-5.951-13.886-1.232-3.279-3.226-7.244-2.353-10.14 1.804-5.987-1.733-9.11-5.103-11.866-5.286-4.322-12.214-5.378-18.44-3.409-6.202,1.962-7.353,8.482-7.82,14.304-0.425,5.304-0.09,10.669-0.09,17.413zm-41.469,6.128c4.431,1.116 8.077,1.521 11.278,2.933 10.939,4.823 19.515,2.318 26.068-7.564-2.94-8.542-5.314-11.004-12.048-10.896-4.639,0.075-9.452,0.513-13.847,1.882-6.127,1.909-10.376,6.134-11.451,13.645zm20.443-23.222c6.04,0 10.086,0 15.559,0-1.344-2.928-1.849-6.242-3.246-6.674-4.963-1.537-8.322,1.465-12.313,6.674z"/>
    <path d="m63.959,106.035c-2.849,13.947-5.699,27.893-8.75,42.826-2.946-9.708 0.644-29.127 8.75-42.826z"/>
    <path d="m69.857,151.951c-1.747-14.427 1.745-28.13 7.266-41.473-2.422,13.824-4.844,27.649-7.266,41.473z"/>
    <path d="m103.639,136.839c-2.16,9.281-4.32,18.562-6.481,27.843-0.902-0.22-1.805-0.44-2.707-0.66 2.35-9.54 4.699-19.079 7.049-28.619 0.713,0.479 1.426,0.958 2.139,1.436z"/>
    <path d="m143.522,117.481c-0.503-11.083 3.45-20.712 8.63-29.96-0.135,10.821-4.758,20.31-8.63,29.96z"/>
  </g>
</svg>
