<?xml version='1.0' encoding='iso-8859-1'?>
<!DOCTYPE svg PUBLIC '-//W3C//DTD SVG 1.1//EN' 'http://www.w3.org/Graphics/SVG/1.1/DTD/svg11.dtd'>
<svg version="1.1" xmlns="http://www.w3.org/2000/svg" viewBox="0 0 439.817 439.817" xmlns:xlink="http://www.w3.org/1999/xlink" enable-background="new 0 0 439.817 439.817">
  <g>
    <path d="m213.883,439.817c-7.891-4.739-15.97-9.194-23.62-14.295-8.016-5.344-16.256-4.219-22.373,3.143-1.561,1.879-5.417,3.862-7.079,3.147-2.189-0.942-4.826-4.718-4.525-6.896 1.225-8.861 2.201-18.128 5.642-26.238 8.529-20.103 18.289-39.688 27.74-59.392 1.572-3.277 4.081-6.105 6.16-9.139-8.215-5.784-9.765-11.468-6.848-22.823-15.374-10.859-31.357-20.384-45.106-32.453-9.914-8.702-16.925-20.736-25.106-31.38-14.476-18.834-20.931-41.446-29.394-63.09-3.664-9.371-6.642-19.009-10.325-28.372-0.53-1.347-3.287-2.588-4.997-2.568-7.902,0.094-15.252-1.442-22.055-5.59-8.895-5.425-11.823-14.951-5.488-23.043 4.646-5.935 10.93-10.829 17.164-15.221 9.149-6.446 18.738-12.389 30.066-14.489 2.334-0.432 4.688-0.751 5.886-0.941 0.42-5.261-0.269-10.74 1.526-15.226 1.867-4.669 6.132-8.379 9.286-12.428-1.603-0.874-3.906-1.993-6.072-3.332-9.952-6.155-11.449-17.854-3.144-26.954 12.266-13.44 27.984-21.163 45.115-26.384 2.453-0.747 4.864-1.658 7.351-2.259 9.781-2.365 13.332-3.951 24.328,6.616 13.894-6.625 29.122-7.891 44.111-9.877 9.157-1.213 13.406,0.833 20.895,6.988 21.205-6.069 41.946-8.959 62.689,1.479 5.968,3.003 7.243,7.772 8.146,13.596 12.725-1.665 23.952,3.643 35.285,7.497 14.079,4.788 14.378,13.133 12.007,27.525-1.699,10.314-5.824,20.229-9.114,31.141 3.394,0.754 8.259,1.703 13.053,2.929 9.051,2.315 18.244,4.43 25.321,11.181 6.31,6.019 7.891,14.886 4.686,22.846-7.492,18.606-21.387,27.707-41.196,28.299-0.528,0.016-1.052,0.194-0.711,0.128-7.655,36.335-17.858,71.228-39.213,101.674-11.92,16.995-25.741,32.375-45.664,40.634-0.626,0.26-1.12,0.838-1.8,1.365 10.091,3.607 12.039,15.787 4.274,26.081 11.495,9.338 14.766,23.263 19.861,36.165 4.569,11.57 8.927,23.224 13.374,34.842 0.526,1.375 1.098,2.736 1.542,4.137 2.927,9.229 0.711,13.861-8.473,16.076-4.631,1.117-8.058,2.98-11.286,6.698-8.204,9.45-25.72,12.624-38.396,1.395-3.324,7.957-8.85,13.67-16.827,16.806-5.567,0.002-11.132,0.002-16.696,0.002zm-96.188-222.161c0.728,0.346 0.895,0.426 1.063,0.506 3.324-12.255 8.814-23.327 17.345-32.751-4.118,11.658-8.621,23.099-13.542,34.357-2.019,4.618-0.055,7.387 2.859,10.391 4.35-9.883 7.751-19.915 16.08-27.105-0.101,2.685-0.865,5.052-1.835,7.331-3.092,7.262-6.094,14.571-9.469,21.702-1.734,3.664-0.432,5.8 2.506,7.892 4.453-7.438 5.23-16.749 12.569-22.492 0.3,1.9 0.145,3.63-0.379,5.24-2.163,6.649-4.217,13.348-6.75,19.857-1.596,4.102-0.645,6.978 2.626,9.548 3.158-6.137 4.132-13.404 10.518-17.616-1.051,6.225-2.9,12.124-4.631,18.058-1.838,6.301-0.404,9.066 6.358,12.17 1.457-10.767 8.637-20.621 4.212-32.138-0.456-1.188-0.698-2.502-0.797-3.777-0.443-5.725-1.338-11.537 2.849-16.991 6.441,25.318 12.06,50.881 32.297,69.663 3.332-6.305 4.926-13.553 10.808-17.947 0.689,0.348 1.377,0.695 2.066,1.043-3.156,6.975-6.312,13.951-9.28,20.513 7.692,10.885 16.729,18.301 31.014,13.623-1.239-23.495-7.788-47.116-1.975-71.105 8.365,23.293 10.98,47.258 9.303,71.954 2.195-0.371 4.338-0.959 6.501-1.05 4.536-0.192 7.281-2.23 9.164-6.493 7.934-17.96 16.181-35.782 24.255-53.68 2.834-6.283 5.502-12.641 8.245-18.965 0.612,0.225 1.223,0.449 1.835,0.673 1.128,23.459-7.9,44.259-18.108,64.878 13.484-7.688 24.006-18.402 33.444-30.165 12.318-15.353 20.705-32.943 27.338-51.336 5.478-15.188 10.36-30.591 15.9-47.069-4.742,2.363-8.399,4.011-11.889,5.958-10.047,5.604-20.731,8.91-32.166,10.448-15.306,2.058-29.93-1.456-44.769-3.99-8.67-1.481-17.691-3.203-26.288-2.296-14.132,1.492-27.947,5.99-42.079,7.489-22.489,2.385-44.408,1.247-60.795-18.09-9.794-11.557-22.458-11.329-36.412-7.834 2.377,5.176 4.579,9.936 6.752,14.709 2.126,4.672 4.223,9.357 6.459,14.316 3.934-5.793 3.712-13.423 10.53-16.935-0.563,5.129-2.245,9.828-3.377,14.657-1.109,4.73-5.742,9.188-1.736,14.943 10.025-19.627 10.025-19.627 14.735-19.37-3.446,7.213-7.027,14.383-10.27,21.703-0.921,2.078-1.774,4.922-1.081,6.846 2.346,6.524 5.401,12.794 7.997,18.727zm167.485-55.27c11.832-0.598 23.4-1.862 33.705-7.695 12.985-7.35 26.522-11.818 41.473-13.495 10.44-1.171 19.184-6.731 22.921-17.927 2.714-8.131 1.184-14.045-6.664-17.189-9.982-3.999-20.344-7.061-30.603-10.333-0.979-0.312-2.813,0.391-3.544,1.234-4.893,5.644-9.601,11.45-14.358,17.212-5.435,6.585-12.001,11.713-20.544,13.042-7.598,1.182-15.356,6.072-23.086,0.1-0.61-0.471-1.798-0.231-2.719-0.259-13.113-0.398-26.226-0.855-39.342-1.126-3.478-0.072-7.137-0.153-10.423,0.784-13.2,3.764-26.245,8.067-39.426,11.904-13.912,4.05-28.464,6.321-40.99-2.32-12.08-8.333-22.437-19.133-33.829-28.51-3.698-3.044-8.019-6.342-12.504-7.212-9.604-1.863-19.163-0.036-27.463,5.468-7.485,4.963-15.171,9.898-21.652,16.026-6.537,6.181-4.758,11.586 3.44,15.128 8.054,3.48 16.17,2.237 24.268,0.491 20.259-4.369 38.618-2.703 53.458,14.232 3.508,4.004 9.287,6.905 14.556,8.314 16.299,4.358 32.981,3.737 49.156-0.425 19.049-4.902 37.881-5.909 57.127-1.734 8.905,1.931 18.022,2.89 27.043,4.29zm9.476,242.768c-9.347-26.473-18.728-53.04-28.083-79.538-7.427,2.927-15.09,5.947-23.076,9.095 0.395,1.441 0.941,2.95 1.214,4.507 1.989,11.353 4.136,22.685 5.759,34.092 0.578,4.066-0.977,7.87-5.975,10.524-8.494-14.89-6.58-31.534-9.524-47.111-5.587,0-11.025,0-16.449,0 0.089,27.763-5.861,52.409-14.819,56.93-3.129-20.623 3.345-39.123 8.767-58.22-2.484-0.751-5.212-1.576-8.256-2.497-9.544,27.951-24.792,53.413-33.605,82.708 12.413-3.152 22.198-1.186 30.725,6.324 2.056,1.811 4.362,3.412 6.751,4.756 10.277,5.778 24.003,7.201 29.766-7.578 3.304-8.473 9.481-9.376 16.786-3.443 8.907,7.234 17.424,4.395 22.12-1.225 5.215-6.245 11.575-8.471 17.899-9.324zm-91.989-276.146c-0.863-2.31-1.919-3.967-2.052-5.695-0.551-7.175-0.879-14.37-1.186-21.562-0.617-14.429-2.991-28.476-8.942-41.752-2.598-5.796-7.06-8.657-13.501-8.642-13.182,0.032-25.073,5.067-36.988,9.701-8.179,3.181-16.302,6.807-23.828,11.282-8.25,4.905-9.743,12.195-4.468,19.471 1.876,2.587 5.787,3.602 8.451,5.732 8.634,6.906 16.983,14.174 25.713,20.954 5.88,4.567 11.777,11.09 18.444,12.242 12.537,2.166 25.734,2.607 38.357-1.731zm84.43-11.399c2.536-6.149 6.305-12.619 7.808-19.579 2.085-9.657 2.863-19.656 3.483-29.554 0.819-13.054-2.14-17.544-15.32-19.561-10.323-1.58-21.025-0.776-31.56-0.834-8.75-0.048-14.404,4.791-16.49,13.315-2.449,10.006-2.402,20.079-1.032,30.167 1.202,8.851 2.752,17.654 4.08,26.046 16.76,1.42109e-14 32.586,1.42109e-14 49.031,1.42109e-14zm-47.546-76.163c-1.198-7.332-2.952-13.756-3.124-20.221-0.21-7.911-2.658-11.459-10.674-11.157-14.118,0.533-28.067,2.362-41.262,7.832-11.768,4.879-13.135,2.797-8.098,17.701 0.408,1.207 0.86,2.441 0.985,3.694 0.319,3.186 2.242,4.688 5.126,5.369 6.819,1.611 12.319,5.407 15.202,11.676 3.648,7.932 7.601,16.053 9.226,24.514 2.796,14.562 3.894,29.451 5.715,44.287 6.195-1.922 13.047-4.049 20.004-6.208-7.348-11.917-11.13-34.923-9.613-47.931 1.432-12.286 2.94-25.011 16.513-29.556zm58.253,77.823c10.223-1.159 18.415-3.286 24.044-11.426 4.857-7.023 10.825-13.29 15.545-20.394 7.941-11.952 12.851-25.137 12.988-39.686 0.038-3.98-1.384-7.347-6.056-8.769-10.291-3.133-20.444-6.718-30.432-10.045-2.889,8.659-5.693,17.068-8.498,25.475 4.172,21.79 4.258,43.497-7.591,64.845zm-.796-72.946c2.374-6.749 5.145-12.952 6.584-19.451 0.683-3.083-0.13-8.781-2.066-9.769-8.763-4.475-18.06-8.162-28.374-6.809-5.435,0.713-10.857,1.689-16.317,2.013-9.114,0.541-13.419,4.957-12.972,14.16 0.115,2.365 1.072,4.729 0.953,7.058-0.275,5.34 2.651,5.853 6.961,5.682 15.293-0.604 30.498-0.282 45.231,7.116zm-179.218,11.871c15.992-5.384 33.639-11.326 51.403-17.307-2.377-8.234-9.142-16.978-0.302-25.62-2.635-4.877-6.624-4.573-10.744-3.472-3.176,0.848-6.275,1.981-9.435,2.896-14.692,4.257-27.872,11.223-38.717,22.123-5.735,5.764-5.582,10.505 0.287,16.037 2.28,2.147 5.136,3.683 7.508,5.343zm144.144,242.161c-3.753,2.368-7.323,4.94-11.192,6.932-2.094,1.078-4.683,1.259-7.079,1.669-1.55,0.266-3.154,0.247-4.736,0.298-7.514,0.242-15.032,0.731-22.54,0.609-5.952-0.097-11.892-0.951-17.836-1.468-0.828,13.385-0.543,13.311 11.362,17.247 19.078,6.308 36.426,0.729 53.615-6.867 4.62-2.042 3.156-5.692 2.173-8.966-0.922-3.07-2.36-5.985-3.767-9.454zm-104.923-30.018c10.108,6.83 20.186,13.64 28.892,19.522-8.044-11.926-16.838-24.964-25.217-37.386-0.998,4.853-2.239,10.884-3.675,17.864z"/>
    <path d="m185.777,256.544c0.813-9.929 6.564-17.56 11.677-25.501-0.467,10.037-5.553,18.002-11.677,25.501z"/>
    <path d="m191.197,265.751c0.275-6.097 8.017-18.015 13.744-21.158 0.44,0.274 0.881,0.547 1.321,0.821-4.441,7.139-8.882,14.277-13.323,21.416-0.581-0.359-1.162-0.719-1.742-1.079z"/>
    <path d="m123.805,79.866c19.157,2.037 38.066,4.642 53.369-10.362-3.83-4.442-10.029-3.71-18.918,2.402 1.59,0.897 2.995,1.689 4.4,2.482 0.011,0.566 0.022,1.131 0.033,1.697-4.136,0.422-8.269,1.037-12.412,1.129-1.018,0.023-2.549-1.489-2.947-2.613-0.266-0.752 0.797-2.42 1.702-3.072 8.03-5.783 16.83-9.43 26.902-7.631 2.348,0.419 5.063,2.432 6.197,4.49 0.588,1.067-1.441,4.432-3.094,5.74-10.887,8.612-22.911,13.794-37.292,11.879-4.555-0.607-9.255-0.071-13.886-0.183-3.917-0.094-8.853-0.216-9.354-4.748-0.302-2.732 2.404-6.849 4.954-8.67 13.428-9.592 29.192-13.182 44.986-16.573-14.482,8.837-32.7,10.574-44.64,24.033z"/>
    <path d="m128.361,96.116c17.678,3.535 33.402-3.559 50.447-5.923-8.765,11.187-44.563,15.414-50.447,5.923z"/>
    <path d="m186.904,97.414c-7.11,7.986-15.107,14.951-26.088,16.883-4.266,0.75-9.002-0.331-12.262-5.028 1.116-0.426 1.839-1 2.324-0.842 7.449,2.425 13.665-0.354 19.772-4.28 4.844-3.114 9.921-5.867 14.894-8.78 0.454,0.682 0.907,1.365 1.36,2.047z"/>
    <path d="m280.068,58.901c-2.075-0.361-4.24-0.458-6.21-1.128-8.021-2.732-15.616-1.227-23.009,2.129-4.745,2.154-8.771,4.995-8.24,11.149 0.401,4.643 4.334,9.244 10.349,9.955 7.055,0.834 14.327,1.018 21.366,0.236 2.99-0.332 6.701-3.286 8.12-6.055 1.39-2.713-5.512-9.335-9.488-9.197-3.957,0.137-7.859,1.472-11.824,1.971-1.527,0.192-3.162-0.472-4.748-0.747 0.907-1.223 1.549-3.007 2.763-3.582 10.058-4.76 18.618-4.299 25.051,4.546 5.396,7.418 3.502,14.284-5.456,16.427-6.662,1.594-13.805,1.491-20.738,1.532-5.745,0.035-11.276-1.155-15.705-5.572-7.215-7.196-6.502-17.116 2.152-22.474 9.646-5.973 19.978-8.199 31.002-4.073 1.898,0.71 3.593,1.964 5.382,2.967-0.256,0.637-0.512,1.277-0.767,1.916z"/>
    <path d="m247.423,89.599c2.24,1.675 4.909,2.995 6.644,5.088 5.928,7.157 12.821,6.689 20.391,3.386 2.543-1.109 5.255-1.829 8.786-3.032-3.097,6.489-12.534,11.355-19.551,10.754-9.298-0.796-13.544-7.608-17.698-14.442 0.476-0.585 0.952-1.17 1.428-1.754z"/>
    <path d="m219.129,15.377c-11.208,3.762-21.785,7.312-33.097,11.109 7.165,6.972 27.977,4.769 34.586-2.649-4.092,0.249-7.87,0.48-12.92,0.788 4.806-4.861 15.012-6.612 19.032-4.218 2.81,1.673 2.845,3.981 0.299,5.657-11.97,7.878-24.898,11.927-39.154,7.77-2.463-0.718-4.914-3.702-5.89-6.214-0.398-1.026 2.805-4.331 4.956-5.31 8.669-3.945 17.428-7.918 27.305-7.623 1.504,0.044 2.997,0.413 4.883,0.69z"/>
    <path d="m229.583,38.221c-6.292,10.245-26.693,14.42-32.932,8.796 10.74-2.869 21.836-5.833 32.932-8.796z"/>
    <path d="m205.659,53.633c5.15-1.684 9.058-2.962 13.787-4.509-2.432,6.61-6.65,8.076-13.787,4.509z"/>
    <path d="m336.902,43.65c-5.024-0.978-8.355-1.954-11.739-2.205-4.743-0.352-8.279,2.102-9.862,6.466-1.603,4.422 0.648,7.79 4.122,10.529 6.387,5.036 13.089,5.534 18.849,0.372-3.536-3.951-7.072-7.903-10.456-11.685 3.754-1.854 8.796-0.175 12.201,5.763 1.557,2.716 2.699,7.166 1.494,9.547-1.191,2.353-5.446,3.801-8.591,4.387-6.959,1.297-13.016-1.406-18.197-6.005-5.617-4.987-6.611-10.931-2.961-16.697 3.352-5.295 11.137-7.956 16.977-5.491 2.437,1.027 4.57,2.773 8.163,5.019z"/>
    <path d="m313.216,74.213c7.417,1.87 15.065,3.799 23.978,6.047-13.18,3.859-23.857,0.305-23.978-6.047z"/>
    <path d="m287.147,16.95c-10.775,1.994-22.307,0.507-32.182,7.641 4.401,2.948 7.212,3.167 16.575,0.831 4.392-1.096 8.584-2.991 12.977-4.079 1.541-0.382 3.412,0.569 5.132,0.911-1.005,1.44-1.721,3.727-3.061,4.182-9.244,3.141-18.7,6.036-28.569,4.643-2.943-0.415-7.005-2.74-7.954-5.194-1.509-3.907 2.421-6.399 5.84-7.366 10.223-2.892 20.557-5.538 31.242-1.569z"/>
    <path d="m148.479,23.91c7.015,2.001 8.334,5.422 3.965,8.997-8.421,6.889-18.001,11.621-29.151,11.626-2.267,0.001-5.797-1.777-6.446-3.568-0.643-1.774 0.954-5.797 2.712-6.771 10.905-6.045 22.085-11.604 33.309-17.047 1.427-0.692 3.638,0.234 5.485,0.411 0.08,0.504 0.161,1.008 0.241,1.512-2.986,1.428-5.972,2.858-10.115,4.84zm-3.852,1.723c-7.519,4.835-16.779,6.752-23.723,13.818 8.601,1.712 23.156-3.886 28.384-10.459-1.508-1.087-3.015-2.173-4.661-3.359z"/>
  </g>
</svg>
