<?xml version="1.0" encoding="iso-8859-1"?>
<!-- Generator: Adobe Illustrator 16.0.0, SVG Export Plug-In . SVG Version: 6.00 Build 0)  -->
<!DOCTYPE svg PUBLIC "-//W3C//DTD SVG 1.1//EN" "http://www.w3.org/Graphics/SVG/1.1/DTD/svg11.dtd">
<svg version="1.1" id="Capa_1" xmlns="http://www.w3.org/2000/svg" xmlns:xlink="http://www.w3.org/1999/xlink" x="0px" y="0px"
	 width="192.7px" height="192.7px" viewBox="0 0 192.7 192.7" style="enable-background:new 0 0 192.7 192.7;" xml:space="preserve"
	>
<g>
	<path d="M174.62,145.279c-0.001-0.861-0.318-1.66-1.002-2.25c-0.541-0.617-1.254-1.027-2.074-1.058
		c-17.9-7.261-51.366,0.172-68.677,2.132c0.146-0.377,0.276-0.771,0.302-1.246c0.499-9.293,0.842-18.65,1.112-28.033
		c0.64,0.61,1.51,0.969,2.598,0.85c2.133-0.235,4.271-0.409,6.41-0.545c-0.013,0.014-0.028,0.025-0.041,0.039
		c-1.306,1.34,0.663,3.276,2.039,2.039c0.904-0.813,1.866-1.543,2.807-2.307c12.485-0.438,25.046,0.357,37.512,0.417
		c2.552,0.013,4.312-2.046,4.466-4.465c1.133-17.737-6.112-35.087-16.606-49.068c-8.014-10.676-23.974-23.926-38.549-20.405
		c-0.063-12.46-0.162-24.881-0.238-37.207c-0.02-3.279-4.165-4.616-6.244-2.885c-13.134-2.412-26.958-1.131-40,1.339
		c-4.505,0.853-3.832,7.204,0,8.43c11.926,3.815,24.121,6.697,36.045,10.521c0.096,0.031,0.171,0.006,0.265,0.03
		c-0.761,7.017-1.233,14.145-1.568,21.313c-0.234-0.134-0.477-0.261-0.772-0.324c-27.046-5.764-54.26,29.667-64.981,50.183
		c-2.049,3.921-14.787,38.419-6.692,42.171c-0.884,0.771-1.373,1.623-1.336,2.573c0.07,1.81,2.387,1.974,3.005,0.407
		c-0.092,0.234,28.51-0.794,32.529-0.946c13.539-0.513,27.15-0.39,40.673-1.108c0.144,2.326,0.29,4.681,0.429,6.982
		c0.045,0.746,0.298,1.327,0.624,1.832c-14.907,1.389-29.895,1.955-44.814,3.174c-8.291,0.678-17.581,0.168-23.86,6.051
		c-0.58,0.543-0.515,1.752,0.27,2.1c0.058,0.025,0.118,0.037,0.177,0.062c0,0.043-0.021,0.074-0.019,0.117
		c0.469,8.907,0.787,17.779,1.524,26.67c0.151,1.823,1.196,3.785,3.176,4.172c36.717,7.158,132.194,17.131,138.382-37.959
		c0.004-0.002,0.009-0.002,0.013-0.004c0.837-0.019,1.569-0.426,2.118-1.054c0.68-0.591,0.996-1.388,0.997-2.247
		c0.011-0.083,0.011-0.162,0.016-0.244C174.63,145.441,174.63,145.363,174.62,145.279z M139.967,106.051
		c1.248-0.717,2.465-1.512,3.608-2.252c1.922-1.245,4.749-2.696,6.977-4.484c0.359,2.326,0.586,4.665,0.639,7.006
		C147.478,106.244,143.728,106.14,139.967,106.051z M149.337,93.598c-2.66,1.488-5.132,4.131-7.408,5.842
		c-1.741,1.309-3.482,2.621-5.249,3.896c-0.621,0.447-2.558,2.386-2.71,2.432c-0.11,0.033-0.149,0.128-0.235,0.184
		c-0.982-0.011-1.963-0.045-2.943-0.045c1.879-1.214,3.761-2.422,5.629-3.652c3.832-2.524,9.653-5.86,12.603-10.122
		C149.154,92.617,149.216,93.112,149.337,93.598z M147.423,86.999c-2.231,1.307-3.701,3.294-5.595,5.141
		c-3.402,3.317-7.362,6.06-11.205,8.829c-2.288,1.648-4.549,3.316-6.778,5.021c-3.29,0.111-6.565,0.311-9.81,0.678
		c2.309-1.863,4.506-3.805,6.574-5.422c8.228-6.435,16.764-12.543,25.029-18.815C146.301,83.924,146.869,85.459,147.423,86.999z
		 M104.947,49.469c3.918,0.8,7.455,1.735,10.759,2.894c-1.646,1.209-3.149,2.725-4.487,3.914c-2.13,1.893-4.283,3.902-6.286,6.043
		C104.933,58.036,104.961,53.749,104.947,49.469z M104.926,67.523c2.439-2.357,4.888-4.695,7.513-6.872
		c2.688-2.229,5.806-3.948,8.519-6.089c1.623,0.791,3.185,1.689,4.707,2.688c-4.254,0.764-7.516,3.641-10.889,6.266
		c-3.333,2.594-6.595,5.277-9.87,7.941C104.909,70.146,104.923,68.835,104.926,67.523z M104.881,75.696
		c7.391-5.16,14.251-11.208,22.276-15.329c0.561-0.289,0.741-0.863,0.754-1.448c2.654,2.007,5.202,4.393,7.698,7.336
		c-5.095-0.774-10.595,3.84-14.522,6.473c-5.537,3.711-10.751,7.9-16.312,11.567C104.795,81.424,104.869,78.565,104.881,75.696z
		 M104.615,97.209c4.524,0.693,13.141-5.805,15.854-7.439c4.482-2.698,8.867-5.559,13.218-8.461c2.469-1.646,5.39-3.045,6.517-5.927
		c0.456-1.166-0.713-2.636-1.934-2.537c-2.518,0.203-4.155,1.773-6.116,3.236c-3.676,2.741-7.41,5.4-11.181,8.009
		c-3.836,2.655-7.743,5.228-11.748,7.623c-1.201,0.718-3.133,1.44-4.573,2.435c0.018-2.179,0.061-4.353,0.081-6.532
		c5.171-2.801,10.052-6.103,15.002-9.279c2.719-1.745,5.483-3.385,8.354-4.87c2.735-1.415,5.988-1.856,8.5-3.599
		c0.472-0.328,0.706-0.846,0.812-1.381c0.118,0.155,0.238,0.287,0.356,0.444c2.177,2.903,4.123,6.034,5.842,9.303
		c-6.894,1.455-13.311,8.484-18.454,12.773c-6.814,5.684-13.582,11.484-20.662,16.837
		C104.559,104.306,104.58,100.756,104.615,97.209z M25.532,132.545c-0.009-0.006-0.012-0.019-0.021-0.024
		c-8.108-5.231,9.56-37.617,12.8-43.309c10.962-19.26,27.692-32.604,48.127-39.037c-14.807,20.865-10.343,56.436,2.614,78.167
		C73.605,128.031,39.497,127.972,25.532,132.545z M95.072,128.496c-9.29-21.117-16.986-54.847-2.237-74.471
		c-0.528,24.895,0.823,50.219,2.313,74.473C95.128,128.496,95.094,128.496,95.072,128.496z M97.267,182.752
		c-12.379,0.713-24.837,0.039-37.179-0.947c-5.7-0.456-11.386-1.178-17.047-1.967c-7.467-1.041-7.25-14.133-8.083-22.172
		c5.488,0.51,11.142-0.664,16.883-1.103c16.896-1.29,33.824-1.892,50.694-3.515c16.89-1.623,33.483-3.055,50.455-3.045
		c2.922,0.002,6.135,0.271,9.332,0.287C153.5,177.014,122.842,181.281,97.267,182.752z"/>
</g>
<g>
</g>
<g>
</g>
<g>
</g>
<g>
</g>
<g>
</g>
<g>
</g>
<g>
</g>
<g>
</g>
<g>
</g>
<g>
</g>
<g>
</g>
<g>
</g>
<g>
</g>
<g>
</g>
<g>
</g>
</svg>
