<?xml version="1.0" encoding="iso-8859-1"?>
<!-- Generator: Adobe Illustrator 16.0.0, SVG Export Plug-In . SVG Version: 6.00 Build 0)  -->
<!DOCTYPE svg PUBLIC "-//W3C//DTD SVG 1.1//EN" "http://www.w3.org/Graphics/SVG/1.1/DTD/svg11.dtd">
<svg version="1.1" id="Capa_1" xmlns="http://www.w3.org/2000/svg" xmlns:xlink="http://www.w3.org/1999/xlink" x="0px" y="0px"
	 width="192.429px" height="192.429px" viewBox="0 0 192.429 192.429" style="enable-background:new 0 0 192.429 192.429;"
	 xml:space="preserve">
<g>
	<path d="M172.082,118.803c1.331-0.677,1.048-2.913-0.421-3.221c-0.21-0.044-0.434-0.023-0.647-0.049
		c-0.004-2.037-0.01-4.072-0.004-6.11c0.005-1.696-1.153-3.135-2.751-3.614c-7.604-2.284-16.58-6.124-24.677-4.53
		c-7.803,1.535-9.935,9.05-8.535,15.963c-15.201,2.646-31.494,1.263-47.298,0.095c3.208-7.865,1.164-19.168,1.051-27.148
		c-0.031-2.19-0.006-4.375-0.032-6.563c8.466,2.146,20.844-3.224,28.963-5.19c6.468-1.566,12.945-3.071,19.442-4.504
		c4.283-0.944,9.849-0.928,13.963-2.856c0.4,0.732,0.832,1.439,1.219,2.182c1.871,3.593,8.046,1.074,6.6-2.782
		c-6.415-17.084-20.008-30.295-34.181-41.235c-7.58-5.851-28.677-20.861-39.948-15.849C82.62,7.415,79.199,2.717,73.842,1.048
		c-10.289-3.206-16.435,1.194-19.86,9.831c-0.903,0.309-1.215,1.522-0.825,2.382c-2.829,8.959-3.29,21.514-2.528,34.859
		c-0.473,0.679-0.435,1.668,0.136,2.277c1.364,20.489,5.34,42.323,7.639,55.184c-0.391-0.051-0.782-0.092-1.173-0.144
		c-1.548-0.205-1.822,2.311-0.363,2.68c0.681,0.172,1.376,0.28,2.062,0.433c0.451,2.564,0.809,4.676,1.002,6.111
		c0.046,0.344,0.162,0.636,0.3,0.908c-7.498-0.673-16.974-1.325-23.185,0.329c-0.245-0.073-0.486-0.155-0.773-0.165
		c-1.337-0.046-2.771-0.253-4.093-0.108c-0.814,0.09-1.773,0.23-2.496,0.653c-0.234,0.138-0.38,0.365-0.559,0.56
		c-0.006,0.005-0.014,0.007-0.02,0.012c-0.009-0.01-0.016-0.021-0.025-0.031c0.31-0.313,0.484-0.369,0.183-0.217
		c-0.094,0.048-0.137,0.12-0.219,0.174c-1.176-1.158-3.345-1.355-4.296,0.438c-22.419,42.252,31.968,72.159,67.179,75.025
		c19.667,1.601,47.813-6.892,58.739-24.661c2.826-4.597,6.206-11.966,8.285-19.747c0.489,0.291,1.052,0.507,1.763,0.517
		c2.62,0.038,5.239,0.048,7.86,0.058c1.823,0.007,3.81-1.656,3.615-3.616c-0.845-8.537-1.095-17.087-1.159-25.648
		C171.371,119.017,171.768,118.962,172.082,118.803z M93.358,20.153c7.597,2.35,14.576,6.61,21.187,10.925
		c13.253,8.651,23.998,19.801,32.375,32.887c-8.028-0.026-17.896,4.175-24.47,5.941c-9.772,2.625-25.012,4.102-33.699,10.005
		c-0.092-9.282-0.2-18.559-0.134-27.851c0.053-7.51,0.599-22.395-2.443-34.276C88.411,18.812,90.83,19.371,93.358,20.153z
		 M72.622,71.581c2.477,0.213,5.575,0.935,8.446,0.998c0.006,1.522-0.009,3.034-0.007,4.555c-0.859-0.003-1.683,0.225-2.694,0.44
		c-2.449,0.522-4.988,0.566-7.482,0.562c-1.265-0.002-6.864-0.111-9.025-0.508c-0.247-2.3-0.486-4.6-0.729-6.9
		C64.963,70.961,68.793,71.251,72.622,71.581z M60.762,67.232c-0.039-0.378-0.082-0.758-0.12-1.136
		c-0.162-1.595-0.261-3.195-0.407-4.791c3.792,0.016,7.582,0.002,11.377-0.061c2.989-0.049,6.37,0.233,9.55-0.045
		c-0.036,1.036-0.065,2.047-0.083,3.023c-0.019,1.037,0.002,2.092-0.005,3.135c-2.395-0.157-4.903,0.054-7.067,0.022
		C69.596,67.314,65.179,67.254,60.762,67.232z M68.03,82.207c3.266,0.484,9.192,1.506,13.023,0.049
		c0.011,1.459-0.023,2.9-0.006,4.361c-0.087-0.019-0.146-0.078-0.238-0.088c-3.719-0.387-7.877,0.458-11.642,0.607
		c-1.853,0.074-4.109-0.014-6.285,0.161c-0.216-2.081-0.436-4.158-0.659-6.237C64.286,81.741,66.68,82.007,68.03,82.207z
		 M71.195,91.181c2.624,0.102,7.237,0.98,9.905-0.502c0.031,1.957,0.034,3.912,0.077,5.87c-6.007-0.285-11.806-0.844-17.601-2.535
		c-0.103-1.091-0.229-2.18-0.338-3.271C65.926,90.771,68.696,91.083,71.195,91.181z M81.282,101.129
		c0.064,2.159,0.059,4.333,0.148,6.483c-0.043-0.015-0.058-0.06-0.103-0.073c-3.374-0.977-7.604-0.452-11.12-0.705
		c-1.883-0.137-3.761-0.322-5.638-0.521c-0.177-2.863-0.412-5.723-0.66-8.583C69.466,99.725,75.394,100.959,81.282,101.129z
		 M64.747,109.689c1.655,0.27,3.312,0.533,4.97,0.771c3.551,0.509,8.101,1.77,11.611,0.845c0.12-0.032,0.164-0.135,0.269-0.185
		c0.095,1.937,0.157,3.888,0.275,5.812c-4.176-0.28-8.32-0.524-12.367-0.617c-1.198-0.028-2.907-0.171-4.815-0.343
		c0.195-0.357,0.334-0.771,0.319-1.311C64.962,113.003,64.828,111.347,64.747,109.689z M75.312,12.272
		c0.11,0.162,0.174,0.361,0.281,0.526c-4.63-0.553-9.317-0.936-13.99-1.33C64.021,5.603,68.286,1.925,75.312,12.272z M58.888,23.48
		c0.064-1.242,0.478-4.566,1.389-8.005c5.815,1.245,11.996,2.253,17.592,1.659c0.665,1.618,1.226,3.315,1.695,5.076
		c-4.343-0.377-9.066,0.253-13.343,0.479c-2.499,0.132-4.992,0.273-7.335,0.822C58.887,23.5,58.887,23.49,58.888,23.48z
		 M58.638,36.284c-0.102-3.332-0.006-6.656,0.136-9.98c3.853-0.293,8.129,0.243,11.392,0.433c3.215,0.187,7.223,1.102,10.344-0.117
		c0.567,3.262,0.963,6.629,1.112,10.088c-0.089-0.042-0.128-0.119-0.227-0.152c-1.989-0.676-4.402,0.005-6.49,0.04
		c-3.301,0.055-6.606-0.119-9.907-0.141c-2.036-0.014-4.289-0.062-6.334,0.396C58.659,36.661,58.644,36.473,58.638,36.284z
		 M58.788,39.416c3.45-0.115,7.986,0.899,9.965,1.134c3.431,0.407,9.837,2.256,12.978,0.147c0.026,2.384,0.012,4.768-0.054,7.116
		c-3.998-0.865-8.406-0.649-12.398-0.713c-3.372-0.053-6.746,0.008-10.12,0.097C58.997,44.606,58.895,42.011,58.788,39.416z
		 M59.931,57.718c-0.18-2.166-0.322-4.335-0.477-6.503c2.555,0.095,5.11,0.161,7.664,0.295c4.7,0.246,9.663,1.224,14.397,1.153
		c-0.041,0.995-0.08,2.009-0.123,2.978c-3.268-0.034-6.932,0.758-9.779,0.988C67.71,56.944,63.821,57.311,59.931,57.718z
		 M83.194,182.769c-30.644-4.621-61.579-27.537-54.092-60.58c1.327,0.063,2.628,0.062,3.914-0.056
		c7.928,5.758,33.613,2.048,41.422,2.274c23.661,0.688,50.284,6.623,72.917-2.002c0.231-0.088,0.375-0.244,0.575-0.357
		C170.477,162.111,115.164,187.589,83.194,182.769z M153.52,118.448c-0.1-0.066-0.196-0.135-0.299-0.2
		c-0.072-0.089-0.157-0.142-0.261-0.175c-0.414-0.253-0.74-0.573-1.193-0.797c-0.67-0.332-1.369-0.404-2.014-0.285
		c-0.606-1.703-2.196-2.956-4.501-2.214c-2.001,0.645-4.037,1.164-6.089,1.631c0.244-1.578,0.588-2.902,1.076-4.005
		c0.018,0.037,0.015,0.064,0.034,0.102c0.472,0.918,2.02,0.275,1.674-0.706c-1.382-3.915,9.549-1.196,11.232-0.822
		c3.105,0.688,6.945,2.382,10.396,2.818c0.025,0.879,0.052,1.758,0.064,2.638c-0.051,0.009-0.106,0.022-0.158,0.031
		c-2.004,0.324-4.009,0.646-6.019,0.934c-0.915,0.131-1.823,0.237-2.732,0.407C153.895,117.962,153.702,118.089,153.52,118.448z
		 M155.557,119.985c1.685,0.176,3.402,0.186,3.581,0.18c1.368-0.038,2.965-0.017,4.594-0.024c0.074,3.165,0.099,6.334,0.234,9.496
		c-0.574,0.101-1.143,0.232-1.727,0.271c-0.588,0.038-1.177-0.019-1.767-0.021C159.826,125.997,158.269,122.581,155.557,119.985z
		 M160.712,141.232c-0.137,0.002-0.232,0.063-0.362,0.077c0.451-2.939,0.597-5.824,0.428-8.571c0.197,0.01,0.392,0.044,0.59,0.051
		c0.866,0.032,1.821,0.042,2.787,0.015c0.15,2.8,0.251,5.603,0.498,8.399C163.339,141.212,162.025,141.213,160.712,141.232z"/>
</g>
<g>
</g>
<g>
</g>
<g>
</g>
<g>
</g>
<g>
</g>
<g>
</g>
<g>
</g>
<g>
</g>
<g>
</g>
<g>
</g>
<g>
</g>
<g>
</g>
<g>
</g>
<g>
</g>
<g>
</g>
</svg>
