<?xml version='1.0' encoding='iso-8859-1'?>
<!DOCTYPE svg PUBLIC '-//W3C//DTD SVG 1.1//EN' 'http://www.w3.org/Graphics/SVG/1.1/DTD/svg11.dtd'>
<svg version="1.1" xmlns="http://www.w3.org/2000/svg" viewBox="0 0 411.947 411.947" xmlns:xlink="http://www.w3.org/1999/xlink" enable-background="new 0 0 411.947 411.947">
  <g>
    <path d="m263.383,346.567c-0.489,6.494-0.939,12.458-1.494,19.83 4.871,0 8.769-0.208 12.634,0.058 3.93,0.27 7.988,0.492 11.707,1.646 7.688,2.387 10.021,6.447 7.797,13.978-3.969,13.435-7.14,15.914-18.201,16.142-13.723,0.282-27.425,1.474-41.148,1.932-23.497,0.784-47.002,1.708-70.506,1.792-15.873,0.056-31.902-0.105-47.587-2.21-17.998-2.415-19.997-9.599-8.651-23.649 5.484-6.791 12.525-9.505 20.876-9.532 3.186-0.01 6.373,0.457 10.925,0.814 0.696-9.241 1.354-17.971 2.096-27.826-14.706-0.83-28.692-1.698-42.687-2.392-23.829-1.181-47.664-2.215-71.492-3.415-3.23-0.163-6.441-0.863-9.642-1.42-9.889-1.721-15.51-7.741-16.113-17.617-0.968-15.859-2.229-31.776-1.82-47.628 0.765-29.612 2.816-59.188 3.976-88.793 0.567-14.455 0.092-28.948 0.517-43.412 0.86-29.272 2.06-58.534 2.989-87.804 0.125-3.931-0.647-7.881-0.758-11.829-0.21-7.496 2.385-11.844 9.538-13.749 5.869-1.563 12.074-2.365 18.157-2.528 20.61-0.554 41.245-0.332 61.845-1.093 11.889-0.439 23.713-2.412 35.595-3.318 29.983-2.286 59.953-0.93 89.963-0.035 21.977,0.655 43.972-0.161 66.032-1.988 30.556-2.53 61.369-2.147 92.078-2.525 9.454-0.117 14.095,5.249 14.659,15.23 1.1,19.482 1.804,38.987 2.999,58.463 0.862,14.045 2.212,28.061 3.42,42.084 2.447,28.419 5.226,56.813 7.332,85.258 1.678,22.681 3.376,45.415 3.522,68.135 0.103,16.178-2.137,32.394-3.761,48.55-0.92,9.158-5.001,13.571-14.549,14.743-11.093,1.362-22.328,1.891-33.514,2.105-30.026,0.576-60.059,0.776-90.089,1.179-2.064,0.027-4.126,0.5-6.645,0.824zm-165.597-85.574c0.602-10.19 1.612-18.817 1.522-27.433-0.225-21.319-0.724-42.641-1.567-63.944-0.499-12.633-2.053-25.222-2.753-37.851-0.395-7.133-0.624-14.375 0.153-21.45 1.027-9.36 2.068-10.025 11.948-9.018 11.838,1.207 23.579,3.83 35.428,4.37 46.98,2.14 93.978,3.47 140.65-4.539 1.068-0.183 2.152-0.402 3.227-0.397 5.848,0.025 7.856,1.982 7.729,7.803-0.086,3.968-0.686,7.928-0.694,11.893-0.064,33.3-0.044,66.6-0.049,99.9-0.002,14.011 0,28.023 0,41.999 23.515,0 45.82,0 68.294,0-8.917-68.49-4.497-136.416-6.894-205.363-3.983,0-7.508-0.085-11.028,0.015-15.904,0.452-31.81,0.85-47.707,1.467-20.951,0.812-41.887,2.046-62.843,2.666-22.389,0.662-44.793,0.823-67.19,1.191-3.618,0.06-7.258-0.182-10.853,0.124-31.809,2.708-63.529,3.267-95.113-2.694-4.429-0.836-9.151-0.116-15.292-0.116-0.404,10.248-1.376,19.534-1.019,28.769 0.95,24.545 3.177,49.057 3.563,73.603 0.362,23.1-0.902,46.229-1.605,69.34-0.303,9.956-0.996,19.899-1.502,29.665 17.973,0 35.248,0 53.595,0zm7.453,.186c60.038,0 119.893,0 180.218,0 0-50.525 0-100.936 0-151.585-20.859,1.643-40.912,3.937-61.019,4.605-20.216,0.672-40.519,0.368-60.722-0.693-20.005-1.052-39.932-3.584-61.385-5.608 0,6.965-0.342,13.384 0.059,19.756 1.766,28.086 4.412,56.135 5.39,84.244 0.548,15.762-1.537,31.615-2.541,49.281zm-68.703,.71c0.394-26.572 1.365-51.827 0.989-77.062-0.457-30.718-2.171-61.416-3.075-92.13-0.287-9.742-0.246-19.555 0.598-29.253 0.881-10.132 2.834-11.885 12.705-12.464 5.694-0.334 11.522,0.336 17.197,1.176 18.578,2.751 37.05,5.744 56.017,4.665 18.382-1.045 36.829-0.969 55.248-1.359 5.776-0.122 11.568,0.071 17.329-0.278 19.1-1.156 38.176-2.75 57.286-3.699 25.982-1.29 51.987-2.12 77.981-3.191 7.936-0.327 15.865-1.067 23.8-1.131 8.336-0.067 8.959,0.546 10.201,9.094 0.828,5.7 1.284,11.486 1.452,17.246 0.969,33.233 1.779,66.471 2.695,99.705 0.318,11.55 0.343,23.133 1.293,34.635 1.477,17.867 3.633,35.679 5.634,54.785 8.157-0.975 16.112-1.926 24.806-2.966-4.644-77.047-15.849-152.158-17.655-227.965-0.076-3.167-0.955-6.315-1.521-9.858-2.839-0.303-5.298-0.851-7.74-0.782-30.332,0.859-60.658,2.006-90.994,2.67-24.195,0.53-48.402,0.583-72.604,0.684-13.006,0.054-26.043-0.852-39.014-0.234-22.354,1.065-44.647,3.462-67.004,4.405-22.378,0.944-44.802,0.813-67.206,1.102-5.394,0.07-10.745,0.117-16.383,4.233 0,37.896 0.472,76.143-0.133,114.374-0.603,38.122-2.284,76.226-3.53,115.496 7.579-0.664 13.931-1.222 21.628-1.898zm285.237,54.395c0.602,0.571 1.205,1.142 1.808,1.713-2.705,4.033-5.41,8.066-9.224,13.752 27.676-0.665 53.721,1.3 80.008-2.539 0.994-10.328 1.924-19.267 2.698-28.22 0.794-9.183 1.435-18.38 2.21-28.428-10.178,0.552-18.781,1.461-27.377,1.411-44.469-0.256-88.937-0.734-133.405-1.183-17.713-0.179-35.427-0.741-53.138-0.681-54.61,0.183-109.219,0.568-163.827,0.953-2.04,0.014-4.074,0.847-5.71,1.209 0,12.465-0.624,24.38 0.202,36.193 0.633,9.055 1.695,9.193 11.794,9.521 3.174-5.092 6.332-10.157 9.489-15.222 0.528,0.314 1.055,0.628 1.583,0.941-2.053,4.717-4.106,9.435-6.427,14.768 5.506,0 9.788,0 14,0 5.202-7.889 8.303-16.932 15.039-23.326 0.708,0.434 1.417,0.868 2.125,1.302-3.875,7.375-7.749,14.75-11.705,22.279 7.762,2.761 11.413,0.369 14.054-5.703 2.408-5.537 5.707-10.778 11.54-14.006-3.334,6.986-6.667,13.972-10.283,21.549 5.007,0 8.913,0 12.486,0 4.214-7.666 8.202-14.92 12.19-22.174 0.669,0.334 1.337,0.668 2.006,1.002-2.708,6.822-5.417,13.644-8.502,21.416 5.3,0.568 9.451,1.013 13.11,1.405 3.803-6.573 7.076-12.232 10.35-17.891 0.62,0.299 1.24,0.598 1.86,0.897-1.999,5.465-3.998,10.929-6.28,17.166 3.982,0.221 6.756,0.376 9.464,0.526 4.07-6.495 6.44-13.66 13.645-17.366-2.42,5.462-4.839,10.924-7.284,16.443 6.131,2.377 9.994,1.185 12.656-4.691 2.008-4.431 5.151-8.348 7.789-12.494 0.634,0.318 1.267,0.636 1.901,0.954-2.306,5.73-4.611,11.459-7.183,17.851 4.085,0.488 7.199,0.859 10.173,1.215 2.534-3.781 4.781-7.134 7.028-10.487 0.411,0.202 0.822,0.404 1.233,0.606-0.861,3.201-1.723,6.402-2.541,9.442 1.026,0.509 1.342,0.794 1.671,0.81 24.879,1.18 49.755,2.46 74.645,3.286 2.173,0.072 4.888-2.482 6.58-4.472 3.581-4.213 6.651-8.859 9.931-13.328 0.662,0.43 1.324,0.86 1.987,1.29-2.93,5.083-5.86,10.166-8.942,15.513 1.565,0.741 2.433,1.394 3.379,1.543 1.349,0.212 2.756,0.054 3.836,0.054 8.599-14.459 9.776-15.893 16.531-19.662-4.002,6.888-7.541,12.98-11.486,19.77 5.484,0 9.691,0 13.58,0 5.086-8.496 9.425-16.819 18.001-21.965-4.276,7.269-8.552,14.537-12.831,21.812 6.873,3.569 9.445,0.604 12.169-4.127 8.395-14.577 8.583-14.468 15.942-18.558-4.717,8.112-8.802,15.138-13.42,23.079 4.937,0 8.457,0 12.249,0 3.712-7.148 7.779-13.937 13.697-19.19 0.586,0.409 1.173,0.819 1.759,1.228-3.271,5.708-6.542,11.416-9.994,17.441 9.377,0.646 9.327,0.608 13.969-5.659 2.278-3.078 4.787-5.985 7.192-8.968zm-37.9,60.638c-2.871-0.561-5.247-1.442-7.612-1.414-10.028,0.119-20.057,0.426-30.079,0.815-16.95,0.656-33.889,1.824-50.842,2.03-15.15,0.183-30.32-0.468-45.466-1.103-6.769-0.284-13.494-1.506-20.252-2.164-10.481-1.02-15.452,5.546-19.571,14.056 5.872,4.604 12.437,4.529 18.782,4.459 16.242-0.178 32.482-0.695 48.72-1.135 26.362-0.714 52.724-1.408 79.081-2.273 5.4-0.177 10.771-1.47 16.164-1.537 7.078-0.089 10.72-3.208 11.075-11.734zm-76.952-18.216c-0.375-6.144 5.553-9.142 6.868-14.752-7.583-1.229-7.598,5.518-10.376,8.856-3.158,3.795-3.816,9.551-8.337,12.293-0.753-0.441-1.507-0.882-2.26-1.323 3.488-6.804 6.976-13.608 10.486-20.455-4.448-1.635-7.192-0.73-8.963,3.578-2.092,5.088-4.737,9.95-7.142,14.909-0.915-0.403-1.83-0.807-2.745-1.21 2.187-5.733 4.374-11.466 7.215-18.913-13.954,3.475-11.395,18.042-20.066,24.84-0.911-9.721 6.263-15.93 7.762-25.473-13.268,3.249-10.479,17.866-20.697,22.117 2.676-6.726 5.352-13.452 8.777-22.061-4.237,1.071-8.823,0.968-9.61,2.647-3.53,7.528-10,14.668-5.337,25.352 32.769,4.972 65.528-1.668 99.571-3.28 0.876-7.151 1.672-13.652 2.546-20.788-8.739-0.434-15.837-0.787-22.526-1.119-3.129,5.17-5.826,9.625-8.522,14.08-0.855-0.449-1.71-0.899-2.566-1.348 1.778-3.872 3.556-7.743 5.564-12.115-12.374-2.982-10.658,12.289-19.642,14.165z"/>
    <path d="m239.611,217.135c2.618-3.035 4.763-6.593 7.874-8.774 2.301-1.613 6.534-2.76 8.666-1.676 2.103,1.07 4.129,5.543 3.586,7.931-1.413,6.217-4.01,12.221-6.687,18.057-0.713,1.555-3.456,3.167-5.194,3.091-6.775-0.295-13.667-0.638-20.232-2.172-5.025-1.174-7.193-6.18-6.381-11.106 0.952-5.779 5.201-6.178 9.791-5.94 2.846,0.146 5.688,0.387 8.577,0.589z"/>
    <path d="m253.042,145.733c-13.677,6.378-101.944,4.602-120.559-2.509 39.513,0 78.234-0.02 116.956,0.1 1.139,0.004 2.275,1.484 3.603,2.409z"/>
    <path d="m138.704,170.509c9.989-4.989 98.057-6.636 110.687-2.333-2.142,1.106-3.479,2.265-4.948,2.467-4.624,0.638-9.295,1.257-13.951,1.28-25.193,0.122-50.387,0.133-75.58,0.002-4.96-0.025-9.916-0.842-16.208-1.416z"/>
    <path d="m236.2,189.461c-33.904,2.685-67.762,6.336-101.834,5.736 12.058-5.728 92.507-10.582 101.834-5.736z"/>
    <path d="m126.503,217.112c21.665-2.03 43.159-0.632 64.629,1.171 1.835,0.154 3.535,1.9 7.493,4.159-11.308,2.885-20.592,2.179-29.625,1.312-14.252-1.367-29.005-0.185-42.497-6.642z"/>
    <path d="m198.983,292.301c3.732-3.201 6.658-6.573 10.328-8.599 3.252-1.796 7.413-3.121 11.024-2.828 6.421,0.522 8.901,5.282 5.478,10.63-5.221,8.155-11.203,15.842-17.13,23.52-2.659,3.444-6.076,4.468-10.465,2.145-7.562-4.003-15.844-6.807-22.968-11.433-6.375-4.14-7.065-9.947-4.032-16.107 3.622-7.355 10.919-9.643 17.962-5.239 3.325,2.079 6.163,4.932 9.803,7.911z"/>
  </g>
</svg>
