<?xml version='1.0' encoding='iso-8859-1'?>
<!DOCTYPE svg PUBLIC '-//W3C//DTD SVG 1.1//EN' 'http://www.w3.org/Graphics/SVG/1.1/DTD/svg11.dtd'>
<svg version="1.1" xmlns="http://www.w3.org/2000/svg" viewBox="0 0 433.661 433.661" xmlns:xlink="http://www.w3.org/1999/xlink" enable-background="new 0 0 433.661 433.661">
  <g>
    <path d="m357.23,246.465c0,41.618 0.403,74.902-0.173,108.17-0.281,16.191-2.375,32.352-3.684,48.523-0.32,3.958-0.85,7.899-1.164,11.858-0.857,10.837-3.786,13.753-14.591,14.866-26.633,2.744-53.259,3.388-80.063,2.386-21.596-0.807-43.283,1.237-64.933,1.36-27.828,0.158-55.66-0.304-83.489-0.608-2.864-0.031-5.771-0.588-8.569-1.264-11.468-2.771-16.773-9.31-17.464-21.627-0.829-14.786-1.721-29.574-2.199-44.373-0.911-28.187-2.45-56.395-2.075-84.573 0.486-36.492 2.887-72.954 3.893-109.445 0.686-24.909 0.471-49.756-2.388-74.683-2.665-23.237-5.474-46.673-3.203-70.242 1.509-15.657 1.919-22.283 22.758-22.917 37.578-1.143 75.163-2.107 112.752-2.777 22.025-0.393 44.063,0.064 66.093-0.124 13.729-0.117 27.454-0.956 41.183-0.995 5.73-0.016 11.555,0.775 17.171,1.977 6.708,1.436 8.883,4.423 9.333,11.384 2.236,34.588 4.939,69.156 6.469,103.776 2.027,45.856 3.119,91.754 4.343,129.328zm-24.744-233.495c-5.074-0.398-9.322-1.05-13.564-1.01-18.083,0.174-36.163,0.705-54.246,0.799-11.203,0.058-22.414-0.761-33.614-0.615-27.124,0.352-54.248,0.913-81.365,1.634-17.334,0.461-34.679,1.034-51.976,2.196-8.583,0.577-9.55,1.684-9.638,9.807-0.217,19.879-0.325,39.781 0.375,59.643 0.802,22.745 3.541,45.454 3.618,68.185 0.13,37.978-1.964,75.967-1.669,113.94 0.281,36.112 2.408,72.211 3.768,108.313 0.148,3.932 0.586,7.854 0.889,11.781 0.557,0.003 1.113,0.005 1.67,0.008 2.914-6.066 5.828-12.132 8.742-18.198 1.154,2.964 0.857,5.377-0.003,7.57-2.507,6.39-5.392,12.633-7.845,19.042-3.246,8.482-2.389,16.173 2.403,21.843 6.359-12.202 10.998-25.157 18.777-36.331 0.663,0.323 1.325,0.647 1.988,0.97-5.486,12.435-10.971,24.87-16.865,38.23 4.644,0.602 8.71,1.129 12.889,1.671 1.54-4.828 2.617-8.628 3.97-12.326 1.363-3.728 2.884-7.409 4.553-11.011 1.488-3.212 3.271-6.288 4.924-9.424 0.024,11.605-7.894,20.89-7.64,33.033 14.668,0 28.656,0 42.392,0 2.766-7.13 5.358-13.812 7.95-20.494 0.739,0.261 1.478,0.523 2.217,0.784-1.714,6.469-3.427,12.937-5.444,20.55 29.777-1.187 58.499-2.332 86.065-3.431 5.788-11.236 10.834-21.03 15.879-30.825 0.72,0.329 1.44,0.658 2.16,0.987-1.334,10.942-10.143,19.371-11.779,30.628 25.493,0.916 50.268,0.432 76.303-3.861 1.766-17.819 4.37-35.321 5.028-52.896 0.865-23.108 0.365-46.274 0.131-69.412-0.139-13.729-1.201-27.449-1.27-41.177-0.051-10.107 1.459-20.235 1.187-30.324-0.858-31.796-1.954-63.592-3.482-95.363-1.388-28.854-3.424-57.677-5.254-86.509-0.568-8.978-1.396-17.939-2.224-28.407z"/>
    <path d="m108.99,271.6c0.915-32.163 1.931-64.323 2.683-96.49 0.228-9.754-0.168-19.529-0.469-29.289-0.6-19.458-1.049-38.927-2.101-58.361-0.818-15.115-2.74-30.17-3.614-45.283-0.481-8.309 1.468-10.405 9.906-10.55 39.743-0.686 79.49-1.165 119.237-1.49 23.467-0.192 46.94,0.237 70.406-0.008 10.149-0.106 11.778,0.352 12.789,9.997 1.051,10.029 1.307,20.146 1.786,30.23 1.425,29.956 3.051,59.906 4.117,89.876 1.67,46.958 5.595,93.876 2.844,140.927-0.759,12.988-1.126,26-1.993,38.98-0.93,13.93-3.978,16.9-18.069,17.015-26.389,0.216-52.782-0.055-79.171,0.184-11.186,0.101-22.362,1.309-33.548,1.412-11.883,0.11-23.773-0.479-35.659-0.788-9.396-0.244-18.792-0.492-28.186-0.795-15.295-0.492-20.088-5.296-20.181-20.449-0.067-10.847 0.099-21.694 0.124-32.542 0.025-10.852 0.006-21.704 0.006-32.556-0.302-0.005-0.604-0.012-0.907-0.02zm5.854-230.45c-0.274,2.144-0.806,4.24-0.768,6.325 0.561,31.098 1.143,62.197 1.836,93.293 0.378,16.978 1.231,33.948 1.398,50.926 0.163,16.622-0.279,33.25-0.444,49.876-0.057,5.784-0.109,11.568-0.107,17.352 0.01,26.741-0.107,53.484 0.145,80.222 0.084,8.88 2.79,11.233 12.091,11.557 5.025,0.176 10.085-0.737 15.115-0.606 14.778,0.385 29.547,1.101 44.324,1.551 2.867,0.087 5.75-0.482 8.63-0.681 7.197-0.497 14.392-1.272 21.596-1.366 15.917-0.209 31.838-0.068 47.758-0.071 13.012-0.002 26.026,0.126 39.036-0.059 7.674-0.109 8.752-1.235 9.936-8.468 0.292-1.782 0.443-3.592 0.58-5.395 4.063-53.493 1.985-106.956-0.675-160.425-2.011-40.414-3.765-80.84-5.685-121.259-0.232-4.894-0.788-9.772-1.204-14.775-65.341,0.434-129.283-4.001-193.562,2.003z"/>
    <path d="m210.372,411.756c-6-0.659-11.766-0.662-14.557-6.39-3.446-7.073-3.302-14.751 0.064-21.852 3.805-8.027 13.142-12.098 22.821-10.731 7.654,1.081 14.694,8.273 16.174,16.729 1.162,6.641-0.683,12.612-6.666,15.757-5.549,2.918-11.861,4.382-17.836,6.487zm5.169-8.186c7.184,0.003 13.228-5.491 12.922-11.747-0.364-7.434-7.04-14.185-13.871-14.026-8.257,0.192-14.368,6.473-14.232,14.627 0.128,7.765 4.727,11.141 15.181,11.146z"/>
    <path d="m152.092,387.399c-1.792,12.628-7.764,21.825-11.886,34.239-1.558-9.132 3.487-22.573 11.886-34.239z"/>
    <path d="m151.741,420.044c0.399-10.582 6.444-18.817 11.092-27.633-0.755,10.434-5.696,19.128-11.092,27.633z"/>
    <path d="m287.148,397.42c-3.233,6.99-5.032,14.721-10.712,20.447-0.684-0.354-1.368-0.709-2.051-1.064 3.591-6.806 7.182-13.613 10.773-20.419 0.664,0.346 1.327,0.691 1.99,1.036z"/>
    <path d="m244.751,415.569c3.375-6.627 6.751-13.255 10.126-19.882 0.607,0.279 1.214,0.558 1.822,0.837-3.045,6.84-6.09,13.68-9.136,20.521-0.937-0.492-1.874-0.984-2.812-1.476z"/>
    <path d="m145.005,230.05c-0.92-11.651 5.034-21.045 5.888-31.914-1.683-0.597-3.236-1.34-4.872-1.699-18.093-3.974-19.312-16.221-16.506-29.64 1.229-5.876 4.399-11.429 7.185-16.874 2.854-5.579 8.121-8.458 14.113-8.743 9.335-0.443 18.72-0.293 28.066,0.056 10.081,0.377 20.139,1.314 30.213,1.915 2.884,0.172 5.788-0.012 8.681,0.035 20.375,0.328 28.82,10.536 25.43,30.715-3.142,18.703-13.074,27.841-34.148,29.806-9.952,0.928-20.091,0.402-30.106-0.16-4.208-0.236-6.73,0.763-8.968,4.215-3.333,5.142-7.142,9.974-10.653,15.005-3.079,4.41-7.151,6.822-14.323,7.283zm63.086-66.198c-1.495-1.974-2.537-4.742-4.422-5.555-4.188-1.807-9.102-1.446-11.664,2.582-4.031,6.337-7.501,6.027-12.804,1.494-3.887-3.322-10.259-1.882-13.49,1.861-2.898,3.357-2.692,8.478 2.13,12.16 6.16,4.704 13.12,8.45 20.053,11.985 1.634,0.833 4.81-0.339 6.816-1.433 8.901-4.85 9.673-14.414 13.381-23.094z"/>
    <path d="m168.784,325.134c-5.896,0-10.53-0.106-15.158,0.021-12.661,0.348-19.521-6.021-19.984-18.727-0.079-2.168-0.096-4.346 0.008-6.511 0.605-12.533 5.98-20.233 18.39-21.708 15.343-1.823 30.94-2.074 46.418-1.951 8.208,0.065 16.448,2.104 24.584,3.707 10.005,1.971 13.179,5.58 12.448,15.655-0.46,6.341-1.979,12.855-4.364,18.749-4.142,10.237-11.137,13.964-22.267,13.322-2.88-0.167-5.748-0.526-8.62-0.822-6.523-0.673-11.764,0.598-15.713,6.847-2.404,3.803-6.657,6.567-10.41,9.352-4.161,3.088-7.976,1.155-7.752-4.04 0.184-4.246 1.424-8.447 2.42-13.894zm15.853-32.25c-3.352-1.461-6.214-3.481-9.248-3.782-2.328-0.231-6.158,1.109-6.962,2.843-0.82,1.769 0.463,5.945 2.184,7.19 5.086,3.68 10.844,6.433 16.974,9.908 2.697-4.438 5.009-7.61 6.636-11.102 1.592-3.416 4.454-7.907 0.236-10.634-4.735-3.061-6.194,3.133-9.82,5.577z"/>
    <path d="m275.328,121.201c-1.961,7.989-3.624,15.726-5.822,23.306-1.077,3.716-2.398,8.083-7.417,8.226-5.184,0.147-7.581-3.785-9.279-7.865-2.078-4.993-4.313-10.052-5.367-15.306-1.213-6.051-3.866-8.525-10.205-8.264-20.188,0.831-40.409,0.926-60.588,1.905-10.557,0.513-20.946,0.742-31.119-2.5-11.722-3.736-14.875-8.152-14.766-20.596 0.156-17.807 6.781-30.773 24.314-38.358 20.72-8.963 41.838-13.004 64.286-12.28 17.703,0.572 35.457,0.314 52.815,4.304 6.615,1.521 12.956,4.307 19.322,6.775 1.569,0.609 3.125,1.99 4.043,3.427 9.135,14.293 10.188,31.236 1.622,45.122-4.997,8.1-12.874,11.137-21.839,12.104zm-15.102,23.576c2.133-3.753 3.08-4.864 3.436-6.141 1.549-5.541 3.208-11.076 4.282-16.718 0.944-4.962 2.866-7.933 8.498-7.478 8.064,0.651 12.71-4.302 15.947-10.769 9.638-19.255-0.362-39.825-21.531-42.932-16.003-2.348-32.24-3.064-48.351-4.728-22.458-2.32-43.482,2.157-64.254,10.888-16.426,6.904-20.833,19.649-21.649,35.264-0.294,5.615 2.209,9.965 7.674,11.764 4.414,1.453 9.033,2.868 13.619,3.091 8.27,0.402 16.588,0.007 24.88-0.245 18.015-0.547 36.024-1.425 54.043-1.7 5.184-0.079 10.393,1.437 14.638,2.077 3.012,9.488 5.504,17.341 8.768,27.627z"/>
    <path d="m276.949,264.888c0,7.643 0.25,14.844-0.066,22.02-0.355,8.042-4.865,10.516-11.267,5.546-5.326-4.135-10.527-9.184-13.871-14.939-4.671-8.04-10.801-9.343-18.96-8.074-4.967,0.772-10.112,1.173-15.105,0.795-6.056-0.459-12.066-1.77-18.045-2.969-13.104-2.628-17.862-13.265-15.398-25.356 0.288-1.411 0.635-2.812 0.878-4.231 3.537-20.719 9.448-24.714 29.075-26.965 12.086-1.386 24.4-0.675 36.591-1.299 5.72-0.293 11.45-1.234 17.074-2.382 9.212-1.881 17.977-0.971 26.263,3.421 9.454,5.012 13.161,12.591 11.689,23.331-0.392,2.859-0.607,5.777-1.357,8.546-2.599,9.602-7.689,16.998-18.015,19.598-3.09,0.778-6.094,1.889-9.486,2.958zm-5.658-5.241c4.118-0.988 7.602-1.644 10.976-2.665 11.845-3.582 17.766-14.423 15.572-28.273-1.658-10.467-9.569-15.595-22.574-14.96-10.436,0.509-20.895,0.556-31.328,1.108-10.781,0.571-21.575,1.212-32.301,2.385-6.502,0.71-13.505,2.332-16.116,9.191-2.646,6.951-4.39,14.399-5.365,21.783-0.778,5.891 2.532,10.582 8.572,12.101 6.235,1.569 12.603,3.189 18.973,3.486 7.509,0.35 15.098-0.521 22.623-1.192 6.324-0.564 10.827,1.033 14.172,7.096 3.181,5.766 7.353,11.19 14.752,15.561 0.753-9.445 1.392-17.457 2.044-25.621z"/>
    <path d="m219.141,77.405c1.887-2.61 3.63-5.876 6.164-8.322 3.516-3.395 7.65-5.422 12.674-2.259 4.825,3.038 6.439,7.04 4.748,12.958-0.198,0.694-0.406,1.402-0.731,2.042-13.463,26.531-11.346,25.456-37.317,13.739-3.593-1.621-6.974-3.833-10.191-6.136-3.801-2.722-5.865-6.366-4.174-11.267 1.761-5.103 6.137-8.549 11.769-7.306 5.827,1.286 11.28,4.254 17.058,6.551z"/>
    <path d="m251.11,231.153c2.398-1.695 4.81-4.046 7.698-5.313 6.989-3.065 12.643,1.388 11.15,8.822-1.4,6.973-5.479,12.67-11.317,16.505-8.166,5.365-27.382-3.896-28.987-13.586-0.875-5.284 3.801-10.862 9.569-10.364 3.681,0.319 7.218,2.32 11.887,3.936z"/>
  </g>
</svg>
