<?xml version="1.0" encoding="iso-8859-1"?>
<!-- Generator: Adobe Illustrator 16.0.0, SVG Export Plug-In . SVG Version: 6.00 Build 0)  -->
<!DOCTYPE svg PUBLIC "-//W3C//DTD SVG 1.1//EN" "http://www.w3.org/Graphics/SVG/1.1/DTD/svg11.dtd">
<svg version="1.1" id="Capa_1" xmlns="http://www.w3.org/2000/svg" xmlns:xlink="http://www.w3.org/1999/xlink" x="0px" y="0px"
	 width="189.304px" height="189.303px" viewBox="0 0 189.304 189.303" style="enable-background:new 0 0 189.304 189.303;"
	 xml:space="preserve">
<g>
	<path d="M115.665,8.149c-1.229-1.057-2.97-1.415-4.562-0.494c-1.267-0.108-2.526-0.223-3.824-0.289
		c-0.342-1.054-1.287-1.929-2.896-2.023C51.223,2.246,0.055,32.922,0,86.903c-0.051,49.917,44.004,89.363,93.499,96.256
		C207.91,199.092,225.429,22.351,115.665,8.149z M174.525,60.195c2.692,6.256,4.587,12.853,5.674,19.616
		c-2.079-0.33-4.091-0.829-6.107-1.322C174.374,72.689,175.386,66.046,174.525,60.195z M171.391,77.847
		c-2.48-0.686-4.938-1.449-7.387-2.295c2.095-3.719,4.448-7.309,6.624-10.984C170.591,69.011,171.146,73.623,171.391,77.847z
		 M114.252,15.966c26.657,3.732,44.996,17.392,55.69,35.249c-1.426,0.345-2.495,1.556-3.006,2.823
		c-2.682,6.654-7.342,12.422-10.758,18.765c-3.597,0.664-7.442,2.491-10.412,3.352c-4.959,1.437-10.065,2.748-14.923,4.555
		c-0.057-0.059-0.101-0.129-0.158-0.185c-4.738-11.981-18.288-21.457-31.389-23.246c-1.24-0.169-2.452-0.232-3.649-0.244
		c0.176-6.916-0.726-13.82-1.345-20.702c-0.078-0.863-0.142-2.269-0.323-3.759C102.154,30.273,108.721,22.105,114.252,15.966z
		 M116.321,118.92c0.92-13.729,2.864-28.299,2.126-42.027c1.613,1.732,3.208,3.494,4.848,5.217l0,0
		C121.6,92.066,125.67,111.627,116.321,118.92z M108.913,68.576c1.798,1.09,3.418,2.413,4.979,3.812
		c-2.014,15.615-1.387,32.61-0.875,48.399c-0.064,0.023-0.114,0.062-0.181,0.085c-0.9,0.314-1.864,0.466-2.801,0.682
		C109.417,104.008,110.683,85.99,108.913,68.576z M102.959,65.94c1.008,0.29,1.955,0.655,2.876,1.055
		c-2.006,17.955-0.335,37.148,1.272,55.17c-1.54,0.209-3.103,0.359-4.699,0.412C99.725,103.599,104.765,84.691,102.959,65.94z
		 M100.225,122.606c-2.137-0.007-4.295-0.073-6.481-0.222c-2.462-19.244,0.552-38.079,0.659-57.305
		c1.632-0.127,3.315-0.14,5.111,0.103c0.153,0.021,0.281,0.072,0.433,0.095C97.255,83.462,95.714,104.721,100.225,122.606z
		 M92.253,13.105c-0.072,3.039,0.204,6.1,0.353,9.125c0.097,1.957,3.088,1.957,3.185,0c0.16-3.226,0.481-6.493,0.351-9.73
		c1.473-0.211,2.956-0.51,4.421-0.687c0.316,1.594,1.509,3.014,3.633,3.195c-3.801,4.378-8.027,8.831-12.878,10.48
		c-1.058,0.359-2.189,0.356-3.343,0.21c-0.608-3.895-0.781-7.837-1.006-11.772C88.734,13.59,90.488,13.393,92.253,13.105z
		 M86.633,67.039c1.348-0.614,2.78-1.059,4.255-1.414c-0.963,18.768-3.669,38.096,0.479,56.584c-1.304-0.101-2.609-0.207-3.912-0.31
		C86.226,103.629,88.362,85.128,86.633,67.039z M83.994,14.6c-0.077,3.467,0.179,6.877,0.866,10.282
		c-4.202-1.683-8.521-5.269-11.756-7.773C76.695,16.132,80.346,15.355,83.994,14.6z M66.584,19.043
		c0.137,0.387,0.35,0.76,0.724,1.083c4.676,4.038,11.743,10.523,18.937,12.461c0.8,8.375,2.785,16.621,3.519,25.008
		c-11.836,2.416-20.953,12.22-26.091,22.67c-0.103,0.209-0.108,0.403-0.168,0.606c-8.576-1.48-16.789-3.251-24.921-6.126
		c-0.094-0.968-0.49-1.927-1.146-2.564c-4.721-4.588-10.085-8.522-15.086-12.824c-1.982-1.705-3.738-4.527-5.833-6.608
		C26.924,36.51,45.663,25.685,66.584,19.043z M82.22,96.291c0.518,8.644,1.725,17.255,3.091,25.441
		c-1.395-0.102-2.785-0.188-4.161-0.245C81.868,113.134,82.207,104.712,82.22,96.291z M81.108,70.385
		c0.856-0.659,1.749-1.253,2.661-1.814c-1.077,5.365-1.627,10.921-1.744,16.58c-0.153-4.806-0.379-9.603-0.725-14.376
		C81.287,70.602,81.159,70.529,81.108,70.385z M69.097,84.982c-0.047-0.328-0.252-0.521-0.377-0.785
		c0.25-0.21,0.506-0.41,0.719-0.719c2.531-3.675,5.327-7.305,8.51-10.382c-0.731,16.095,0.885,32.224,0.361,48.347
		c-2.329-0.014-4.625,0.051-6.821,0.356c-0.334,0.047-0.587,0.178-0.848,0.3C73.905,109.708,70.858,97.466,69.097,84.982z
		 M28.254,74.863c-2.274,1.783-4.588,3.522-6.893,5.271c0.259-3.061,1.169-6.316,1.578-9.512
		C24.717,72.039,26.499,73.446,28.254,74.863z M9.401,70.351C9.205,75.463,9.24,80.572,8.408,85.663
		c-0.283,1.731,2.41,2.52,2.812,0.739c1.566-6.947,2.251-14.09,1.603-21.175c-0.087-0.951-0.817-1.426-1.548-1.428
		c0.326-0.912,0.578-1.868,0.949-2.754c2.215,2.404,4.682,4.609,7.231,6.738c-0.748,4.158-0.921,8.639-0.781,12.701
		c0.021,0.603,0.401,0.904,0.84,1.061c-3.763,2.855-7.508,5.73-11.119,8.748C7.592,83.046,8.059,76.453,9.401,70.351z
		 M37.659,149.251c2.834-0.812,5.744-1.352,8.668-1.826c-0.567,2.899-0.258,6.147,0.05,9.229
		C43.333,154.338,40.381,151.916,37.659,149.251z M48.755,158.426c0.304-3.707,0.96-7.853,0.146-11.411
		c0.344-0.05,0.687-0.115,1.032-0.165c0.099,3.236,0.305,6.476,0.506,9.696c0.064,1.026,0.089,2.124,0.134,3.233
		C49.947,159.352,49.37,158.867,48.755,158.426z M51.229,139.87c-5.966,1.379-12.103,2.682-17.814,4.916
		c-11.481-12.754-19.606-28.457-23.491-45.313c-0.181-0.782-0.254-1.513-0.41-2.283c0.154-0.072,0.31-0.092,0.462-0.196
		c8.298-5.752,16.662-11.478,24.821-17.415c8.217,4.132,17.265,6.967,26.438,8.358c1.693,11.853,5.403,23.501,4.531,35.546
		c-0.033,0.458,0.103,0.815,0.3,1.124c-1.294,1.15-2.561,2.33-3.823,3.517c-0.92-0.056-1.889,0.224-2.765,1.095
		c-2.628,2.61-4.762,5.611-7.285,8.312C51.501,138.269,51.256,139.08,51.229,139.87z M137.206,149.461
		c-2.128,2.787-3.089,6.205-3.556,9.581c-0.518,3.745-1.336,7.954-1.223,11.806c-12.009,4.612-26.087,6.418-42.2,4.218
		c-11.788-1.61-22.592-5.393-32.283-10.759c0.799-6.771-0.468-13.902-0.824-20.776c0.328-0.419,0.656-0.837,0.983-1.257
		c4.567-4.588,9.488-8.88,13.912-13.588c0.195-0.207,0.329-0.422,0.465-0.636c15.129-0.362,33.053,6.302,47.248-0.899
		c0.996-0.507,1.891-1.077,2.723-1.688c3.28,4.521,7.237,8.669,11.002,12.783c2.364,2.584,4.749,5.12,7.231,7.602
		c0.081,0.082,0.163,0.174,0.245,0.257C139.514,147.035,138.223,148.129,137.206,149.461z M145.971,163.894
		c0.769-3.154,1.26-6.388,2.012-9.529c0.426-1.78-2.141-2.383-2.812-0.739c-1.559,3.814-1.472,8-2.175,12.017
		c-1.127,0.663-2.207,1.382-3.381,1.987c0.849-4.277,0.973-8.796,2.983-12.698c2.306-4.471,7.261-4.811,12.171-5.146
		c-0.007,1.431,0.136,2.882,0.18,4.275c0.03,0.932,0.06,1.861,0.089,2.791C152.229,159.414,149.207,161.774,145.971,163.894z
		 M158.612,153.331c0.07-1.3,0.164-2.629,0.127-3.941c1.564-0.215,3.063-0.523,4.352-1.146
		C161.687,150.011,160.176,151.695,158.612,153.331z M163.955,143.431c-3.389-2.476-9.26-1.711-13.958-0.676
		c-2.542-3.345-7.333-6.517-9.832-8.71c-4.68-4.106-9.049-8.547-13.726-12.653c6.463-9.116,4.197-23.479,5.229-34.203
		c5.423-1.118,10.795-2.581,16.187-3.82c2.521-0.58,6.321-0.864,9.557-1.766c7.537,2.076,15.633,4.638,23.589,4.666
		c1.776,20.729-3.652,42.276-15.755,59.062C165.061,144.586,164.562,143.874,163.955,143.431z"/>
</g>
<g>
</g>
<g>
</g>
<g>
</g>
<g>
</g>
<g>
</g>
<g>
</g>
<g>
</g>
<g>
</g>
<g>
</g>
<g>
</g>
<g>
</g>
<g>
</g>
<g>
</g>
<g>
</g>
<g>
</g>
</svg>
