<?xml version="1.0" encoding="iso-8859-1"?>
<!-- Generator: Adobe Illustrator 16.0.0, SVG Export Plug-In . SVG Version: 6.00 Build 0)  -->
<!DOCTYPE svg PUBLIC "-//W3C//DTD SVG 1.1//EN" "http://www.w3.org/Graphics/SVG/1.1/DTD/svg11.dtd">
<svg version="1.1" id="Capa_1" xmlns="http://www.w3.org/2000/svg" xmlns:xlink="http://www.w3.org/1999/xlink" x="0px" y="0px"
	 width="192.003px" height="192.003px" viewBox="0 0 192.003 192.003" style="enable-background:new 0 0 192.003 192.003;"
	 xml:space="preserve">
<g>
	<g>
		<path d="M160.072,80.265c-1.613-0.422-2.993,0.495-3.732,1.747c-3.038-11.106-8.777-20.259-16.475-27.264
			c0.166-1.214-0.984-2.578-2.336-2.122c-0.029,0.01-0.055,0.028-0.084,0.038c-6.232-5.056-13.553-8.853-21.657-11.252
			c0.733-7.306-0.274-15.832-7.097-19.67c-2.418-1.361-5.095-1.757-7.795-1.562c-4.874-1.753-10.75-1.318-15.443,0.688
			c-3.91,1.672-6.929,4.939-8.234,8.554c-2.501,3.253-3.05,7.569-2.351,11.75c-18.021,5.46-35.816,18.416-34.999,36.512
			c-4.844-2.681-15.268,2.194-18.544,3.479C9.376,85.849,2.902,94.388,0.47,106.712c-2.942,14.913,8.354,24.638,22.156,31.059
			c0.014,0.256,0.076,0.52,0.264,0.784c22.406,31.553,117.492,54.992,135.189,6.97c8.528-3.276,16.44-7.602,23.276-13.346
			C205.982,111.479,183.249,86.318,160.072,80.265z M135.396,59.865c4.092,3.93,7.562,8.524,10.299,13.731
			c-0.211,0.03-0.399,0.002-0.629,0.075c-5.015,1.616-10.291,1.746-12.065-4.132C131.893,65.862,133.255,62.63,135.396,59.865z
			 M62.06,53.782c0.068,0.342,0.129,0.683,0.321,1.037c5.74,10.548-4.133,20.916-14.856,19.315
			C49.827,65.239,54.972,58.532,62.06,53.782z M46.205,87.475c-0.144-3.418,0.069-6.584,0.539-9.558
			c15.333,4.97,29.68-11.86,21.508-26.53c-0.182-0.327-0.42-0.532-0.648-0.757c2.862-1.366,5.929-2.505,9.185-3.396
			c0.298,0.624,0.589,1.257,0.932,1.83c0.939,1.567,3.53,1.443,4.352,0.007c1.811,2.187,4.266,3.98,7.383,4.985
			c6.212,2.002,18.036-0.327,22.94-6.478c0.455-0.068,0.891-0.208,1.285-0.422c6.629,1.983,12.586,5.191,17.812,9.297
			c-3.967,3.958-5.85,9.853-4.524,15.523c2.089,8.936,12.349,11.077,19.877,8.15c0.587-0.228,1.017-0.581,1.37-0.98
			c1.465,3.696,2.701,7.557,3.452,11.713c-0.283,0.065-0.562,0.085-0.853,0.23c-32.123,15.992-73.381,13.434-104.616-3.591
			C46.202,87.489,46.205,87.484,46.205,87.475z M30.992,141.194c5.145,1.857,10.253,3.309,14.914,4.496
			c-0.007,0.193-0.059,0.355-0.028,0.572c0.221,1.526,0.305,3.089,0.381,4.649C40.749,148.037,35.573,144.809,30.992,141.194z
			 M49.9,152.789c0.122-1.996,0.191-4.021,0.437-6c1.814,0.425,3.517,0.805,5.041,1.138c0.131,0.028,0.275,0.052,0.407,0.08
			c0.062,0.602,0.135,1.204,0.195,1.803c0.211,2.104,0.671,4.146,1.33,6.147C54.792,154.971,52.306,153.933,49.9,152.789z
			 M59.783,156.893c0.179-0.261,0.261-0.6,0.151-1.014c-0.61-2.306-0.855-4.603-0.901-6.983c-0.002-0.084,0.004-0.163,0.004-0.247
			c1.446,0.294,2.981,0.544,4.467,0.821c0.046,2.937,0.15,5.868,0.333,8.8C62.478,157.825,61.119,157.382,59.783,156.893z
			 M71.974,160.614c-1.755-0.44-3.5-0.919-5.229-1.437c0.183-3.01,0.307-6.025,0.377-9.044c1.676,0.288,3.417,0.529,5.132,0.79
			c-0.168,1.073-0.219,2.181-0.3,3.242C71.79,156.314,71.864,158.465,71.974,160.614z M80.926,155.999
			c-0.132,2.125-0.098,4.293,0,6.45c-2.138-0.365-4.27-0.768-6.387-1.25c0.124-2.038,0.237-4.077,0.457-6.106
			c0.135-1.24,0.437-2.443,0.656-3.647c1.848,0.257,3.739,0.468,5.62,0.687C81.06,153.42,81.004,154.752,80.926,155.999z
			 M91.515,163.718c-0.002,0.009,0.002,0.017,0,0.026c-2.479-0.187-4.963-0.427-7.441-0.779c0.112-1.974,0.2-3.95,0.376-5.921
			c0.134-1.493,0.408-2.985,0.649-4.478c2.414,0.244,4.851,0.453,7.302,0.627c0.007,0.385,0.019,0.77,0.016,1.151
			C92.397,157.504,92.148,160.621,91.515,163.718z M101.354,156.435c-0.56,2.502-1.084,5.01-1.604,7.521
			c-1.646,0.006-3.293,0.021-4.95-0.052c0.812-3.177,1.498-6.866,1.681-10.484c1.813,0.097,3.634,0.164,5.457,0.216
			C101.743,154.572,101.561,155.511,101.354,156.435z M113.832,156.604c-0.555,2.235-1.368,4.403-2.243,6.542
			c-2.806,0.366-5.638,0.646-8.512,0.753c0.63-2.155,1.262-4.311,1.86-6.476c0.342-1.233,0.752-2.471,1.094-3.723
			c2.763,0.026,5.527-0.037,8.289-0.125C114.195,154.59,114.079,155.606,113.832,156.604z M125.464,153.299
			c-0.702,2.713-1.835,5.19-3.076,7.667c-2.29,0.625-4.604,1.198-6.976,1.619c1.473-2.934,2.816-6.14,3.275-9.221
			c2.297-0.13,4.588-0.301,6.867-0.517C125.521,152.997,125.502,153.152,125.464,153.299z M133.703,151.793
			c0.017,1.701-0.09,3.396-0.323,5.081c-1.769,0.815-3.567,1.581-5.413,2.254c1.172-2.161,2.163-4.537,2.663-6.865
			C131.662,152.13,132.677,151.943,133.703,151.793z M136.07,155.548c0.23-0.975,0.427-1.96,0.561-2.968
			c0.055-0.411,0.119-0.839,0.18-1.262c2.852-0.485,5.678-1.035,8.452-1.722C142.411,151.914,139.316,153.858,136.07,155.548z
			 M181.123,120.07c-6.68,13.548-24.814,17.94-38.04,21.249c-2.292,0.574-4.662,0.969-7.009,1.418
			c-0.698-0.258-1.479-0.131-1.986,0.402c-27.789,4.894-58.78,1.605-85.54-4.808c-24.893-5.966-64.862-33.409-20.234-51.736
			c0.309-0.127,8.672-2.373,12.063-4.784c0.397,2.019,0.943,4.075,1.822,6.205c0.025,0.061,0.072,0.103,0.102,0.161
			c-0.236,0.81-0.06,1.767,0.809,2.425c30.437,23.063,77.839,23.055,111.208,6.477c0.662-0.329,1.055-0.785,1.338-1.278
			c1.508-0.231,2.893-1.303,2.711-3.039c-0.232-2.209-0.58-4.343-0.999-6.427c0.045,0.022,0.065,0.058,0.112,0.078
			C171.49,92.471,190.447,101.163,181.123,120.07z"/>
		<path d="M99.986,61.43c-0.016-0.007-0.02-0.025-0.034-0.032c-10.698-4.334-23.045,0.588-24.587,12.945
			c-1.75,14.02,10.45,23.516,23.431,24.171c11.438,0.576,20.554-8.278,21.284-19.416C120.671,70.075,109.886,56.492,99.986,61.43z
			 M100.072,91.855c-9.257,0.679-18.393-5.711-18.525-15.359c-0.132-9.63,8.699-13.846,17.072-13.199
			c-0.08,0.935,0.33,1.935,1.132,2.535c2.802,2.098,6.599,1.74,9.483,4.016c2.562,2.023,3.789,5.136,3.977,8.318
			C113.663,85.821,107.27,91.327,100.072,91.855z"/>
		<path d="M42.135,98.947c-0.004-0.025-0.001-0.051-0.006-0.075c-0.456-2.573-2.591-3.528-4.73-3.29
			c-0.782-0.314-1.577-0.531-2.398-0.66c-0.85-1.106-1.821-2.076-2.963-2.582c-5.339-2.361-9.351,1.887-10.921,6.647
			c-2.132,6.468,0.181,15.623,7.796,16.842c1.433,0.229,2.926,0.212,4.402-0.012c1.335,0.936,3.282,0.701,4.36-0.527
			c0.342-0.391,0.62-0.84,0.897-1.29c2.091-1.17,3.9-2.802,5.063-4.875C45.633,105.563,44.57,101.764,42.135,98.947z"/>
		<path d="M75.509,112.601c-4.159-2.969-7.378-0.207-9.498,3.45c-0.911,0.097-1.615,0.623-1.785,2.095
			c-0.051,0.44,0.058,0.825,0.223,1.188c-0.413,1.062-0.739,2.089-0.965,2.965c-0.403,1.558,0.468,3.079,1.746,3.777
			c0.029,0.059,0.031,0.134,0.063,0.19c0.574,1.012,1.528,1.488,2.575,1.863c2.247,0.805,5.045,0.613,7.333,0.139
			c2.515-0.52,4.971-2.33,5.452-4.968C81.345,119.503,78.526,114.755,75.509,112.601z"/>
		<path d="M116.131,115.951c-2.516-1.245-4.801,0.398-5.462,2.432c-1.481,0.568-2.81,1.438-4,2.846
			c-2.176,2.573-3.298,6.17-2.614,9.484c0.999,4.848,6.44,5.792,10.514,5.126c4.16-0.679,8.043-3.512,9.51-7.487
			C126.154,122.719,120.488,118.107,116.131,115.951z"/>
		<path d="M162.357,110.393c-0.889-2.291-3.209-2.805-4.824-1.854c-4.074,0.442-8.557,1.348-9.953,5.788
			c-1.047,3.326,1.664,6.546,4.208,8.242c2.516,1.678,6.521,2.312,9.103,0.447C165.029,120.027,163.952,114.5,162.357,110.393z"/>
	</g>
</g>
<g>
</g>
<g>
</g>
<g>
</g>
<g>
</g>
<g>
</g>
<g>
</g>
<g>
</g>
<g>
</g>
<g>
</g>
<g>
</g>
<g>
</g>
<g>
</g>
<g>
</g>
<g>
</g>
<g>
</g>
</svg>
