<?xml version='1.0' encoding='iso-8859-1'?>
<!DOCTYPE svg PUBLIC '-//W3C//DTD SVG 1.1//EN' 'http://www.w3.org/Graphics/SVG/1.1/DTD/svg11.dtd'>
<svg version="1.1" xmlns="http://www.w3.org/2000/svg" viewBox="0 0 428 428" xmlns:xlink="http://www.w3.org/1999/xlink" enable-background="new 0 0 428 428">
  <g>
    <path d="m281.424,307.486c-21.605,4.542-41.862,10.331-62.517,12.834-47.152,5.715-93.793,2.572-139.099-13.105-23.488-8.128-43.36-21.967-59.275-40.634-20.536-24.089-24.915-52.14-16.483-82.511 9.191-33.106 25.831-61.757 49.522-86.631 17.8-18.688 36.811-35.719 58.735-49.486 25.291-15.88 52.682-25.49 82.415-27.641 22.697-1.642 45.464-2.462 68.215-3.1 7.142-0.2 14.485,0.7 21.475,2.262 25.076,5.601 49.549,13.26 73.048,23.727 21.19,9.438 38.983,23.462 53.399,41.594 9.468,11.909 14.695,25.891 16.087,40.85 3.97,42.688-2.681,82.918-30.156,117.569-10.188,12.848-22.468,23.583-36.89,31.463-4.75,2.595-6.461,5.705-7.257,10.834-2.658,17.111-4.719,34.456-9.236,51.106-8.652,31.894-28.4,55.586-57.655,71.184-1.592,0.849-3.198,1.727-4.892,2.322-5.983,2.104-9.471-0.707-7.906-6.836 1.964-7.692 4.792-15.159 6.895-22.821 2.101-7.658 3.82-15.422 5.613-23.162 3.958-17.08 1.442-33.618-4.038-49.818zm94.513-58.924c12.741-12.763 22.644-25.632 27.95-41.183 7.374-21.613 12.51-43.838 11.177-66.933-1.01-17.497-4.397-34.415-15.356-48.872-11.14-14.697-25.037-26.848-41.532-34.2-36.581-16.304-73.439-32.152-115.181-30.059-28.94,1.451-58.225,1.396-85.558,11.658-59.103,22.189-102.03,63.005-130.986,118.811-1.491,2.873-2.83,5.934-3.505,9.065-0.253,1.175 1.592,2.801 2.651,4.494-7.39,6.713-11.01,15.158-11.319,26.683 10.599-11.957 20.203-22.791 29.807-33.626 0.682,0.585 1.364,1.169 2.046,1.754-9.383,11.258-18.44,22.812-28.272,33.662-5.961,6.578-7.32,10.154-3.537,20.286 6.566-8.215 12.916-16.159 19.266-24.104 0.574,0.46 1.147,0.919 1.721,1.379-5.489,10.268-12.617,19.32-22.067,27.669 1.147,3.924 2.393,8.185 4.25,14.532 5.69-7.454 9.919-13.159 14.329-18.72 4.177-5.266 8.545-10.381 12.829-15.563 0.649,0.557 1.298,1.114 1.947,1.671-8.998,11.985-17.996,23.969-27.337,36.411 1.859,3.236 3.98,6.927 6.732,11.714 7.332-9.345 14.015-17.863 20.698-26.382 0.751,0.562 1.502,1.124 2.254,1.687-6.495,9.275-12.99,18.55-19.283,27.536 2.682,3.457 5.414,6.978 8.272,10.662 6.503-8.394 12.011-15.505 17.52-22.616 0.713,0.517 1.427,1.034 2.14,1.552-5.256,7.908-10.511,15.816-16.037,24.131 3.137,2.333 5.929,4.408 8.935,6.644 4.875-6.108 9.332-11.693 13.789-17.278 0.638,0.483 1.275,0.967 1.913,1.451-3.981,6.139-7.962,12.277-12.58,19.397 10.429,5.434 19.883,10.359 29.051,15.136 7.383-9.691 13.854-18.186 20.326-26.681-1.255,11.302-9.959,18.218-15.449,28.338 10.946,2.741 20.902,5.235 29.464,7.38 7.689-9.527 14.11-17.483 20.532-25.44 0.767,0.556 1.534,1.113 2.3,1.669-5.508,7.693-11.015,15.385-17.361,24.247 6.639,0.971 11.804,1.727 15.879,2.324 8.444-9.938 15.896-18.709 23.347-27.479 0.688,0.553 1.377,1.106 2.065,1.659-6.196,8.42-12.393,16.84-19.654,26.708 7.438,0.622 12.707,1.064 17.522,1.466 8.293-13.756 18.39-24.819 28.589-35.796 0.65,0.508 1.3,1.016 1.95,1.524-8.231,11.06-16.462,22.12-25.213,33.878 7.461,0 13.542,0 19.426,0 4.269-9.87 18.889-26.734 28.856-32.185-9.151,11.622-16.907,21.472-25.819,32.788 8.136-0.743 13.812-1.262 19.012-1.737 8.556-12.202 17.194-23.362 27.427-33.124 0.658,0.516 1.315,1.032 1.973,1.549-7.541,9.8-15.083,19.6-23.819,30.953 7.396-1.177 12.906-2.053 16.611-2.643 8.066-10.211 15.074-19.083 22.082-27.955 0.762,0.555 1.524,1.109 2.286,1.664-5.897,7.809-11.793,15.618-18.86,24.977 14.915-4.033 30.301-2.252 37.721-17.97-1.143,2.616-2.287,5.232-4.039,9.241 3.456-1.17 5.452-1.795 7.412-2.519 9.744-3.596 12.07-2.289 14.075,7.771 0.719,3.61 1.665,7.174 2.769,11.871 3.845-4.194 6.511-7.103 10.741-11.716-8.618,19.983-8.618,19.983-6.576,25.068 3.502-4.508 6.895-8.875 10.289-13.243 1.214,5.179-1.29,8.637-3.601,12.024-4.788,7.019-7.548,14.61-8.227,23.124-1.215,15.241-4.799,29.932-10.954,43.982-0.565,1.289-0.075,3.039-0.075,6.468 24.836-18.798 43.182-39.917 49.269-69.53 3.413-16.602 6.007-33.383 8.57-50.145 0.84-5.495 2.692-9.318 8.088-11.631 8.182-3.508 14.786-8.883 18.038-17.687 0.984-2.663 2.829-5.021 4.4-7.44 0.267-0.412 1.144-0.427 1.904-0.681-0.003,1.467-0.003,2.871-0.003,6.48z"/>
    <path d="m151.347,152.046c-1.133-28.752 31.571-42.166 50.647-37.942 13.248,2.933 25.784,18.956 26.133,33.779 0.184,7.822-0.657,15.919-2.596,23.492-4.734,18.486-10.259,36.775-15.742,55.061-1.332,4.443-3.671,8.595-5.658,12.828-2.518,5.364-6.089,8.862-12.721,7.161-1.251-0.321-2.836,0.153-4.139,0.617-18.354,6.532-37.127,7.833-56.437,5.668-14.791-1.658-27.924-7.121-39.914-15.39-23.845-16.445-25.71-46.869-3.641-65.664 16.756-14.27 36.02-22.444 58.763-19.15 1.063,0.154 2.168,0.115 3.244,0.042 0.694-0.048 1.375-0.324 2.061-0.502z"/>
    <path d="m295.615,162.104c6.902-2.325 12.838-5.031 19.066-6.271 12.198-2.428 20.407,4.437 20.798,16.608 0.692,21.549-8.141,39.203-22.827,54.182-4.956,5.055-11.829,5.014-18.331,3.651-3.461-0.725-7.21-1.952-9.909-4.105-10.116-8.07-20.116-16.334-29.59-25.138-3.282-3.05-5.455-7.663-7.182-11.946-5.132-12.727 0.169-24.937 12.858-30.099 12.648-5.144 24.706-3.193 35.117,3.118z"/>
    <path d="m279.565,85.154c1.311-6.996 4.309-12.457 11.286-14.757 6.76-2.229 12.973-0.424 15.164,6.171 1.87,5.63 2.817,12.051 2.178,17.905-0.77,7.061-3.622,13.899-5.617,20.82-1.61,5.584-5.741,8.279-11.171,8.808-12.315,1.2-23.756-1.505-33.722-9.002-6.939-5.221-9.68-14.208-7.037-21.256 2.285-6.091 11.965-11.345 19.908-10.57 2.817,0.274 5.575,1.143 9.011,1.881z"/>
    <path d="m118.222,281.037c-4.881,6.386-9.762,12.772-15.609,20.42 0.485-8.424 2.965-11.907 15.609-20.42z"/>
    <path d="m358.95,244.84c-2.208,5.522-4.416,11.044-7.05,17.631-0.771-7.751-0.255-9.235 7.05-17.631z"/>
    <path d="m67.612,285.528c3.75-4.896 7.5-9.792 11.25-14.688 0.659,0.482 1.319,0.964 1.978,1.446-3.662,4.958-7.324,9.916-10.986,14.875-0.747-0.545-1.494-1.089-2.242-1.633z"/>
    <path d="m33.552,159.039c2.049-2.32 4.098-4.641 6.148-6.961 0.387,0.285 0.774,0.571 1.161,0.856-1.922,2.551-3.844,5.101-5.766,7.652-0.515-0.516-1.029-1.032-1.543-1.547z"/>
  </g>
</svg>
