<?xml version="1.0" encoding="iso-8859-1"?>
<!-- Generator: Adobe Illustrator 16.0.0, SVG Export Plug-In . SVG Version: 6.00 Build 0)  -->
<!DOCTYPE svg PUBLIC "-//W3C//DTD SVG 1.1//EN" "http://www.w3.org/Graphics/SVG/1.1/DTD/svg11.dtd">
<svg version="1.1" id="Capa_1" xmlns="http://www.w3.org/2000/svg" xmlns:xlink="http://www.w3.org/1999/xlink" x="0px" y="0px"
	 width="193.183px" height="193.183px" viewBox="0 0 193.183 193.183" style="enable-background:new 0 0 193.183 193.183;"
	 xml:space="preserve">
<g>
	<path d="M156.327,28.027c0.217-2.084-0.837-3.379-2.278-3.942c-0.039-11.494-25.968-18.897-52.892-18.541
		c-0.233-0.718-0.462-1.441-0.699-2.149c-1.695-5.053-9.488-4.334-9.468,1.282c0.002,0.463,0.003,0.925,0.005,1.389
		c-17.578,1.555-34.239,6.64-42.937,16.32c-0.733-0.381-1.587,0.162-1.614,0.972c-0.011,0.344,0.047,0.652,0.058,0.984
		c-0.96,1.293-1.837,2.631-2.517,4.073c-0.621-0.534-1.72-0.622-2.235,0.037c-13.055,16.71,1.637,62.231,4.068,80.936
		c2.832,21.791,16.642,36.614,33.082,48.753c0.185,0.252,0.423,0.406,0.72,0.523c6.708,4.898,13.817,9.379,20.799,13.692
		c-0.238,0.588-0.401,1.239-0.396,2.002c-0.003,0.455-0.005,0.909-0.007,1.364c-0.572,3.112-0.057,6.809-0.045,9.533
		c-0.001,0.324,0.123,0.557,0.168,0.849c0.012,0.756,0.011,1.51,0.023,2.265c0.112,6.488,10.517,6.347,9.978,0
		c0.014-0.755,0.013-1.509,0.023-2.265c0.045-0.292,0.17-0.524,0.168-0.849c0.013-2.725,0.529-6.422-0.044-9.533
		c-0.002-0.455-0.004-0.909-0.007-1.364c0.001-0.184-0.081-0.308-0.096-0.481c18.057-14.161,33.816-27.653,41.521-49.832
		C161.773,95.056,153.167,58.361,156.327,28.027z M91.018,12.54c0.007,2.049,0.015,4.098,0.022,6.147
		c0,0.22,0.093,0.373,0.115,0.577c0.008,0.326-0.028,0.656-0.001,0.98c0.174,2.087,2.443,3.333,4.17,2.979
		c0.165,0.015,0.321,0.075,0.486,0.075c0.588,0.002,1.174-0.093,1.726-0.278c2.672,0.703,5.993-0.714,6.095-4.333
		c0.065-2.322-0.263-4.621-0.752-6.892c14.367-0.088,28.175,2.865,37.388,9.377C114.49,33.285,80.26,37.4,54.209,25.53
		C63.452,18.704,76.977,14.23,91.018,12.54z M47.27,55.577c1.562,0.633,3.257,1.218,4.94,1.807
		c0.325,5.344,1.175,10.758,1.742,16.089c-1.697-0.596-3.457-1.144-5.118-1.758C48.258,66.344,47.759,60.949,47.27,55.577z
		 M57.496,114.437c2.824,1.721,5.844,3.242,8.982,4.604c-0.336,4.557,1.442,10.391,2.219,14.21c0.246,1.207,0.494,2.492,0.787,3.794
		C64.28,130.142,60.408,122.534,57.496,114.437z M79.112,147.394c-0.773-0.695-1.603-1.36-2.338-2.078
		c-2.068-3.628-2.48-9.419-3.164-13.42c-0.547-3.199-0.53-6.913-0.902-10.429c1.829,0.623,3.74,1.088,5.629,1.596
		c-0.032,4.658,0.71,9.42,0.873,14.054C79.33,140.543,79.26,143.97,79.112,147.394z M88.878,135.591
		c-0.294,6.267-0.486,12.525-0.842,18.782c-1.796-1.179-3.459-2.43-5.081-3.704c1.209-8.582,1.915-18.125,0.293-26.382
		c2.208,0.467,4.451,0.813,6.701,1.128C88.61,128.418,89.009,132.798,88.878,135.591z M97.606,138.763
		c-0.226,7-0.172,13.998-0.323,20.997c-1.723-0.826-3.516-1.783-5.509-3.01c1.075-5.82,1.421-11.858,1.869-17.718
		c0.282-3.684,1.771-9.012,1.15-13.103c1.406,0.125,2.818,0.17,4.228,0.235C97.531,130.045,97.735,134.738,97.606,138.763z
		 M107.118,161.915c-1.942,0.187-3.883-0.002-5.936-0.622c0.579-5.043,0.739-10.125,0.956-15.202
		c0.273-6.387,2.077-13.434,1.861-19.825c1.398-0.007,2.789-0.069,4.179-0.136c-0.553,4.8,0.196,10.475,0.06,14.424
		C107.992,147.671,107.458,154.795,107.118,161.915z M116.317,139.766c-0.578,6.599-1.366,13.165-2.305,19.715
		c-1.049,0.623-2.077,1.164-3.074,1.549c0.809-5.978,1.19-12.064,1.726-18c0.407-4.523,2.179-11.709,1.688-17.384
		c1.084-0.124,2.135-0.355,3.207-0.519C116.763,129.939,116.736,134.969,116.317,139.766z M124.67,150.487
		c-0.794,0.792-1.588,1.587-2.383,2.358c-1.523,1.48-2.926,2.696-4.285,3.795c2.711-10.437,5.291-22.08,4.866-32.423
		c1.461-0.318,2.889-0.713,4.314-1.109c-0.926,8.642,0.23,17.507-3.083,25.987C123.858,149.718,124.197,150.202,124.67,150.487z
		 M128.022,147.034c3.311-7.51,5.503-17.472,4.631-25.679c0.852-0.311,1.653-0.697,2.487-1.038
		c-0.241,6.827,0.101,13.579-1.732,20.495C131.708,142.963,129.9,145.038,128.022,147.034z M143.146,121.686
		c-0.921,4.117-2.53,7.917-4.558,11.49c1.123-5.009,1.742-10.195,1.623-15.182c1.352-0.695,2.71-1.379,3.983-2.179
		C143.859,117.775,143.58,119.746,143.146,121.686z M145.582,105.493c-0.119,0.059-0.24,0.06-0.358,0.135
		c-28.95,18.438-59.896,11.908-90.097,1.461c-2.61-9.122-4.271-18.713-5.492-28.476c25.478,14.446,78.833,24.727,96.97,1.767
		C146.635,88.816,146.383,97.204,145.582,105.493z M56.965,58.941c1.517,0.467,3.007,0.95,4.582,1.381
		c-1.286,2.654-0.543,6.094-0.304,8.956c0.204,2.45,0.651,4.843,1.375,7.173c-2.055-0.649-4.014-1.385-6.034-2.073
		C57.006,69.439,57.539,64.014,56.965,58.941z M65.293,68.091c-0.035-2.273,0.389-4.667-0.237-6.818
		c2.902,0.718,5.899,1.342,8.937,1.9c-0.447,1.656-0.618,3.438-0.819,4.99c-0.478,3.693-0.63,7.449-0.557,11.187
		c-2.157-0.566-4.306-1.157-6.438-1.793c-0.007-0.053,0.032-0.08,0.021-0.134C65.572,74.34,65.342,71.231,65.293,68.091z
		 M75.662,80.128c0.398-3.44,0.918-6.864,1.54-10.271c0.357-1.955,0.892-3.943,1.249-5.938c0.762,0.116,1.543,0.17,2.31,0.274
		c-0.063,2.4,0.052,4.828-0.006,7.187c-0.08,3.285-0.361,6.517-0.649,9.767C78.621,80.828,77.139,80.488,75.662,80.128z
		 M84.271,81.972c1.245-5.271,2.186-11.498,1.91-17.135c2.003,0.196,4.014,0.29,6.024,0.396c0.181,3.092,0.671,6.226,0.784,9.263
		c0.109,2.923-0.111,5.828-0.497,8.714C89.753,82.889,87.011,82.476,84.271,81.972z M97.548,65.391
		c1.598,0.016,3.179-0.047,4.765-0.096c-0.106,1.688,0.074,3.446,0.113,5.1c0.107,4.486,0.298,8.966,0.487,13.448
		c-2.186-0.033-4.38-0.14-6.582-0.319C97.789,77.661,98.489,71.169,97.548,65.391z M107.928,64.963
		c1.746-0.147,3.473-0.35,5.183-0.588c0.054,1.517,0.215,3.012,0.228,4.235c0.051,4.901,0.047,9.834-0.307,14.73
		c-1.869,0.198-3.747,0.347-5.64,0.414c0.174-4.029,0.354-8.057,0.45-12.09C107.891,69.566,108.161,67.187,107.928,64.963z
		 M116.654,82.867c0.881-4.179,1.457-8.384,1.803-12.67c0.148-1.83,0.588-4.415,0.56-6.843c1.696-0.362,3.306-0.874,4.938-1.345
		c-0.174,6.339,0.094,12.793,0.534,19.128C121.913,81.865,119.301,82.452,116.654,82.867z M129.861,59.969
		c1.727-0.692,3.394-1.47,5.017-2.308c0.008,6.527-0.521,12.548-3.799,18.959c-0.408,0.799-0.342,1.543-0.044,2.16
		c-0.505,0.206-1.004,0.439-1.513,0.632C129.941,72.947,130.146,66.378,129.861,59.969z M141.387,53.564
		c1.746-1.309,3.424-2.702,4.931-4.294c-0.062,6.954,0.076,13.946,0.188,20.933c-0.603,0.092-1.183,0.283-1.646,0.647
		c-2.532,1.989-5.156,3.673-7.844,5.13C140.536,69.201,142.535,61.121,141.387,53.564z M146.477,41.796
		c-0.764-0.234-1.642-0.165-2.562,0.431c-25.477,16.472-58.836,17.986-88.346,10.646c-0.049-0.129-0.077-0.268-0.128-0.396
		c-0.569-1.418-2.374-1.52-3.061-0.409c-1.879-0.513-3.743-1.054-5.584-1.637c-0.504-5.406-1.037-10.769-1.695-16.034
		c0.375-0.133,0.74-0.335,1.004-0.725c0.653-0.964,1.508-1.847,2.303-2.754c12.673,19.939,82.601,8.075,98.653-3.244
		c0.093,0.129,0.226,0.23,0.315,0.36C146.888,32.586,146.636,37.182,146.477,41.796z"/>
</g>
<g>
</g>
<g>
</g>
<g>
</g>
<g>
</g>
<g>
</g>
<g>
</g>
<g>
</g>
<g>
</g>
<g>
</g>
<g>
</g>
<g>
</g>
<g>
</g>
<g>
</g>
<g>
</g>
<g>
</g>
</svg>
