<?xml version="1.0" encoding="iso-8859-1"?>
<!-- Generator: Adobe Illustrator 16.0.0, SVG Export Plug-In . SVG Version: 6.00 Build 0)  -->
<!DOCTYPE svg PUBLIC "-//W3C//DTD SVG 1.1//EN" "http://www.w3.org/Graphics/SVG/1.1/DTD/svg11.dtd">
<svg version="1.1" id="Capa_1" xmlns="http://www.w3.org/2000/svg" xmlns:xlink="http://www.w3.org/1999/xlink" x="0px" y="0px"
	 width="194.225px" height="194.225px" viewBox="0 0 194.225 194.225" style="enable-background:new 0 0 194.225 194.225;"
	 xml:space="preserve">
<g>
	<g>
		<path d="M78.272,140.251c-1.759-11.906-4.437-23.583-7.88-35.112c-1.562-5.23-3.319-12.894-7.343-17.073
			c2.503-1.409,5.199-2.617,7.901-3.308c1.897-0.484,2.786-2.426,2.404-4.233c-4.025-19.01-7.838-38.063-11.824-57.08
			c-0.324-1.544-1.924-2.607-3.435-2.615c-18.65-0.101-37.454,1.182-55.391,6.582c-2.075,0.625-3.005,2.566-2.618,4.61
			c4.066,21.452,6.768,43.17,14.631,63.671c0.781,2.036,2.412,2.957,4.562,2.591c4.768-0.813,9.46-1.128,14.156-1.952
			c-0.414,0.29-0.689,0.772-0.52,1.386c3.708,13.434,13.198,81.043,36.227,75.343C83.041,169.623,79.82,150.73,78.272,140.251z
			 M68.045,123.119c-3.1,1.074-6.051,2.647-9.097,3.863c-3.543,1.414-7.155,2.419-10.862,3.076
			c-0.398-1.468-0.792-2.923-1.181-4.245c2.566,0.251,5.166-0.182,7.963-0.944c3.801-1.037,9.226-3.446,11.837-7.062
			C67.154,119.577,67.6,121.348,68.045,123.119z M65.424,112.723c-0.138,0.049-0.277,0.016-0.412,0.104
			c-1.873,1.198-3.132,3.028-4.908,4.382c-1.921,1.465-4.181,2.507-6.414,3.393c-2.029,0.804-5.006,1.792-7.623,2.129
			c-0.881-3.261-1.727-6.775-2.735-10.349c7.066,3.232,16.186,3.815,21.564-1.746C65.088,111.325,65.238,112.03,65.424,112.723z
			 M40.228,103.632c0.959-0.205,1.76-0.94,1.762-2.29c0.003-1.722-0.377-3.458-0.731-5.136c-0.175-0.832-0.385-1.674-0.71-2.461
			c-0.138-0.334-0.278-0.812-0.46-1.098c-0.079-0.124-0.233-0.34-0.345-0.494c-0.627-0.76-1.727-1.044-2.681-0.778
			c-0.396-0.327-0.894-0.544-1.523-0.513c-2.373,0.118-14.183,1.472-15.27-1.47c-2.177-5.896-3.64-12.078-5.117-18.176
			c-2.992-12.361-4.825-24.994-7.16-37.497c14.924-4.12,30.247-5.208,45.712-5.683c3.789-0.116,10.192,38.575,12.396,51.013
			c-3.367,1.177-6.702,2.864-9.363,5.038c-1.328,1.085-1.301,3.641,0,4.731c0.111,0.093,0.222,0.186,0.333,0.279
			c0.351,0.295,0.72,0.448,1.087,0.586c0.028,0.138,0.021,0.265,0.076,0.41c1.839,4.795,3.437,9.649,4.918,14.535
			c-3.44,2.449-6.033,4.753-10.53,5.074c-3.924,0.279-7.639-1.187-11.115-2.841C41.095,105.772,40.717,104.656,40.228,103.632z
			 M48.845,132.845c6.813-0.545,14.236-2.463,20.142-5.594c0.129,0.731,0.282,1.647,0.448,2.716c-0.853,0.1-1.749,0.526-2.45,0.894
			c-2.989,1.57-6.141,2.71-9.336,3.785c-2.059,0.692-5.145,1.207-7.738,2.157C49.54,135.447,49.195,134.149,48.845,132.845z
			 M50.993,140.618c0.547-0.064,1.051-0.127,1.341-0.187c2.861-0.579,5.673-1.344,8.475-2.158c1.451-0.422,6.557-1.608,9.311-3.531
			c0.103,0.786,0.206,1.613,0.307,2.455c-3.507,1.046-6.886,3.062-10.235,4.415c-2.625,1.062-5.302,1.992-7.968,2.948
			C51.793,143.249,51.38,141.933,50.993,140.618z M56.027,154.05c-0.92-1.889-1.782-3.841-2.541-5.881
			c3.188-1.016,6.382-2.007,9.533-3.136c2.631-0.942,5.421-1.824,7.906-3.161c0.227,2.38,0.408,4.831,0.515,7.225
			c-2.88,1.105-5.555,2.63-8.508,3.608C60.696,153.445,58.367,153.805,56.027,154.05z M63.914,164.778
			c2.312-0.173,4.567-0.806,6.564-1.881C69.407,166.298,67.406,167.585,63.914,164.778z M71.424,157.017
			c-1.42,1.321-2.756,2.643-4.537,3.621c-1.862,1.024-3.937,1.253-5.993,1.079c-1.2-1.429-2.316-2.979-3.31-4.691
			c4.843-0.28,9.901-1.25,13.954-3.682C71.537,154.628,71.495,155.849,71.424,157.017z"/>
		<path d="M54.613,70.477c-8.282,1.29-16.441,3.244-24.807,3.81c-3.079-11.634-7.215-23.096-11.22-34.422
			c-0.591-1.672-3.546-1.542-3.299,0.447c1.602,12.916,6.613,25.262,9.41,37.942c0.281,1.271,1.609,2.221,2.883,2.195
			c9.724-0.192,19.119-2.477,28.689-3.967C60.228,75.866,58.541,69.866,54.613,70.477z"/>
		<path d="M179.532,58.079c-4.179,0.631-8.092,2.016-11.889,3.722c-0.771-0.525-1.837-0.08-2.003,0.919
			c-6.66,3.226-12.994,7.337-19.699,10.304c-2.152,0.952-0.611,4.489,1.59,3.773c1.359-0.442,2.683-0.979,4.014-1.495
			c1.655,2.855,3.607,5.561,5.477,8.27c0.697,1.012,1.403,2.037,2.119,3.047c-1.121,0.334-2.226,0.692-3.359,1.01
			c-0.358,0.1-0.656,0.315-0.879,0.59c-1.102-2.196-2.433-4.457-4.221-6.839c-0.558-0.741-1.41-1.078-2.265-1.13
			c-11.033-15.746-58.731,5.564-68.718,13.508c-1.324,1.053-1.314,2.407-0.661,3.492c-3.725,39.809,92.119,33.71,77.252-5.898
			c7.489,2.93,17.286-1.239,25.754-5.227c1.069,0.381,2.293-0.211,2.732-1.293c0.419-0.199,0.804-0.373,1.213-0.566
			c0.261,0.39,0.488,0.805,0.786,1.165c1.022,1.237,3.371,0.258,3.226-1.336c-0.048-0.517-0.188-1.005-0.306-1.5
			c0.639-0.275,1.302-0.574,1.897-0.804c1.45-0.559,2.088-1.489,2.286-3.003C195.275,68.219,192.814,56.071,179.532,58.079z
			 M114.131,84.708c6.355-1.994,12.921-3.312,19.589-3.408c6.612-0.094,14.395,5.572,8.555,12.262
			c-6.277,7.19-22.097,5.593-30.501,5.266c-7.491-0.293-16.455-0.605-24.14-2.749C95.599,90.841,105.292,87.479,114.131,84.708z
			 M146.908,108.736c-5.486,6.675-15.936,8.286-23.981,8.763c-12.729,0.752-37.379-3.18-40.413-18.518
			c0.28-0.03,0.551-0.099,0.829-0.208c14.975,6.897,58.834,14.104,66.273-3.833C150.69,99.646,150.537,104.322,146.908,108.736z
			 M163.557,85.292c-0.88-1.285-1.95-2.467-2.912-3.687c-1.981-2.512-3.92-5.06-5.911-7.565c1.629-0.692,3.238-1.436,4.852-2.166
			c0.685,1.935,1.8,3.834,2.663,5.569c0.652,1.308,1.245,2.648,1.858,3.974c0.226,0.49,0.418,0.983,0.74,1.419
			c0.153,0.223,0.324,0.432,0.515,0.625c0.058,0.063,0.038,0.045,0.075,0.089c0.012,0.02,0,0.037,0.013,0.056
			c0.111,0.172,0.225,0.345,0.374,0.486c0.158,0.149,0.345,0.169,0.519,0.248C165.409,84.646,164.495,84.994,163.557,85.292z
			 M168.686,83.538c0.701-1.595-1.313-4.425-1.954-5.4c-1.598-2.433-2.974-4.971-4.4-7.489c1.486-0.674,2.999-1.276,4.495-1.922
			c1.234,4.769,3.229,11.058,5.67,13.427C171.227,82.598,169.961,83.104,168.686,83.538z M176.236,80.795
			c-0.024-0.047-0.017-0.094-0.047-0.141c-0.973-1.504-2.416-5.008-3.413-7.119c-0.96-2.031-1.876-4.096-2.736-6.183
			c0.437-0.174,0.858-0.386,1.297-0.554c0.637-0.245,1.308-0.493,1.971-0.74c1.457,3.046,2.752,6.154,3.895,9.343
			c0.524,1.461,0.968,2.997,1.458,4.514C177.854,80.203,177.042,80.505,176.236,80.795z M181.01,73.795
			c-1.333-3.021-2.843-5.946-4.478-8.806c0.717-0.211,1.441-0.389,2.167-0.54c0.004,0.058-0.041,0.092-0.032,0.152
			c0.589,3.783,1.808,7.231,3.27,10.756c0.38,0.917,0.738,1.865,1.104,2.819C182.369,76.693,181.643,75.229,181.01,73.795z
			 M186.373,75.064c-1.784-3.551-3.456-7.169-4.624-10.973c0.816-0.02,1.631,0.008,2.439,0.156
			c4.811,0.883,4.335,7.815,3.761,12.295c-0.225,0.086-0.448,0.16-0.673,0.244C186.973,76.213,186.664,75.642,186.373,75.064z"/>
	</g>
</g>
<g>
</g>
<g>
</g>
<g>
</g>
<g>
</g>
<g>
</g>
<g>
</g>
<g>
</g>
<g>
</g>
<g>
</g>
<g>
</g>
<g>
</g>
<g>
</g>
<g>
</g>
<g>
</g>
<g>
</g>
</svg>
