<?xml version='1.0' encoding='iso-8859-1'?>
<!DOCTYPE svg PUBLIC '-//W3C//DTD SVG 1.1//EN' 'http://www.w3.org/Graphics/SVG/1.1/DTD/svg11.dtd'>
<svg version="1.1" xmlns="http://www.w3.org/2000/svg" viewBox="0 0 442.449 442.449" xmlns:xlink="http://www.w3.org/1999/xlink" enable-background="new 0 0 442.449 442.449">
  <g>
    <path d="m84.221,121.006c-17.82,6.881-33.638,8.172-46.237-9.921 8.961-4.658 17.533-8.583 27.24-9.467 13.503-1.23 24.986-6.425 34.567-16.823-5.774-11.16-14.499-18.405-26.384-22.309-5.772-1.896-11.606-4.13-16.753-7.286-9.361-5.74-11.659-13.947-7.856-24.318 5.356-14.613 27.768-30.396 43.222-30.438 7.067-0.019 10.836,2.974 13.526,11.621 2.135,6.863 3.337,14.026 5.643,20.822 3.48,10.255 7.776,14.841 18.859,21.699 7.691-10.59 17.635-19.827 17.465-34.664-0.048-4.178 2.095-8.362 3.087-12.578 0.842-3.576 1.329-7.68 6.231-7.322 4.23,0.308 4.215,4.195 4.956,7.352 2.846,12.129 3.911,24.253 0.599,36.489-0.453,1.672-0.312,3.505-0.521,6.236 7.368-2.87 13.912-5.528 20.532-7.98 24.502-9.075 49.847-12.715 75.699-9.068 30.081,4.244 50.798,21.27 61.904,49.586 4.075,10.389 7.495,21.035 11.405,32.107 12.374,1.039 23.649,5.651 32.357,14.916 4.635,4.931 9.119,10.494 11.906,16.58 8.707,19.012 11.494,39.043 11.128,60.123-0.432,24.888-7.472,48.508-10.792,72.803-3.217,23.541-0.954,46.064 9.458,67.633 8.173,16.931 16.35,33.916 18.614,52.923 1.317,11.051-0.728,21.575-5.896,31.427-3.65,6.959-9.508,10.71-17.372,11.232-1.442,0.096-2.895,0.042-4.342,0.06-32.571,0.422-50.201-18.973-46.754-51.553 0.721-6.822 1.808-13.605 2.694-20.41 0.279-2.145 0.73-4.316 0.632-6.453-0.591-12.852-6.975-16.97-18.578-11.686-3.889,1.771-7.256,4.675-10.895,7.009-5.158,3.308-10.088,7.114-15.582,9.728-9.612,4.574-25.506,4.827-34.595-6.928-6.719-8.69-14.883-10.461-24.994-6.74-9.881,3.637-20.007,5.522-30.774,4.564-22.423-1.996-39.024-11.989-48.319-32.953-1.461-3.294-2.801-6.642-4.286-10.176-20.777-6.19-33.235-23.138-47.07-38.064-14.673-15.831-24.787-34.619-31.615-55.106-7.238-21.714-7.011-43.475 1.077-64.814 4.593-12.115 10.487-23.737 16.814-37.853zm234.577-5.809c-3.199-8.901-6.543-17.963-9.718-27.085-8.935-25.668-32.692-43.056-59.74-44.478-32.031-1.684-61.814,5.728-89.141,22.055-35.574,21.254-63.436,49.518-80.343,88.289-15.578,35.722-8.882,68.316 10.209,100.04 1.857,3.085 3.837,6.243 6.371,8.75 13.104,12.967 26.348,25.794 39.71,38.495 1.797,1.708 4.535,2.426 7.976,4.183-1.119-18.783 4.392-33.696 15.138-46.795 3.431-4.183 6.763-8.448 10.219-12.61 11.044-13.3 33.937-20.577 50.685-7.891 6.577,4.982 12.524,10.837 18.484,16.579 5.986,5.766 11.402,12.133 17.491,17.782 5.908,5.481 9.372,5.434 14.686-0.732 4.44-5.152 8.428-10.907 11.542-16.949 10.132-19.655 9.511-40.316 5.086-61.349-1.774-8.432-3.488-17.134-3.289-25.668 0.389-16.723 5.049-32.248 18.87-43.229 4.43-3.522 9.784-5.882 15.764-9.387zm-71.638,230.274c4.517,4.379 8.613,8.338 12.696,12.311 5.609,5.458 12.25,8.143 19.753,5.25 5.977-2.305 11.486-5.827 17.198-8.816 6.679-3.495 13.026-8.033 20.101-10.273 12.53-3.966 22.643,1.765 25.357,14.766 1.728,8.281 1.437,17.194 0.748,25.718-0.979,12.115-0.872,23.754 5.294,34.704 3.217,5.713 7.596,9.911 14.207,10.508 19.104,1.725 25.233,3.676 28.184-19.933 0.437-3.497 0.415-7.123 0.059-10.634-1.523-15.018-7.157-28.879-14.315-41.792-14.491-26.14-15.165-53.863-11.111-82.195 3.523-24.618 10.428-48.694 10.884-73.828 0.37-20.355-3.33-39.752-13.562-57.204-7.532-12.847-19.602-20.515-35.153-19.358-15.929,1.185-25.225,11.303-30.357,25.688-4.79,13.426-4.212,27.021-0.412,40.529 4.485,15.942 5.429,32.023 2.05,48.221-3.166,15.178-9.806,28.764-20.822,39.798-9.5,9.516-18.852,9.464-28.412,0.105-6.45-6.315-12.332-13.206-18.699-19.608-4.572-4.598-9.295-9.107-14.362-13.138-9.97-7.932-20.44-7.23-31.414-1.599-16.293,8.361-24.81,22.715-30.895,38.949-5.219,13.922-1.294,26.953 4.863,39.598 1.108,2.275 1.885,4.819 3.425,6.753 3.106,3.901 6.113,8.19 10.08,11.039 12.095,8.69 26.161,10.149 40.425,8.508 9.846-1.133 19.529-3.679 29.833-5.701 0-7.385 0-15.479 0-23.572 5.24,8.136 3.246,17.278 4.357,25.206zm-151.175-338.161c-7.223-2.423-13.108-0.978-18.175,2.745-5.794,4.256-11.525,8.79-16.458,13.987-9.557,10.067-5.897,21.251 7.784,24.255 16.89,3.71 29.226,13.201 37.58,28.386 5.002-4.559 9.965-9.082 15.745-14.351-20.124-13.816-25.712-33.505-26.476-55.022zm63.151,16.886c-1.12,1.171-2.179,1.781-2.458,2.644-3.999,12.382-11.932,22.025-20.967,31.036-10.167,10.139-19.956,20.655-30.075,30.843-10.444,10.516-22.67,17.583-37.747,19.275-5.125,0.575-10.129,2.228-15.188,3.388-0.094,0.885-0.188,1.771-0.281,2.656 2.717,1.162 5.396,3.217 8.159,3.338 14.678,0.639 27.719-3.945 38.105-14.449 15.464-15.64 30.214-32.019 49.224-43.666 2.018-1.236 4.276-3.11 5.036-5.194 3.436-9.416 6.656-18.957 6.192-29.871z"/>
    <path d="m87.122,227.502c-3.08-12.075 2.838-39.287 12.208-57.785 0.22,3.521 0.345,5.514 0.453,7.246 4.352,0.627 8.758,1.262 14.459,2.083-5.024,21.125-9.775,41.108-14.527,61.091-4.103-8.034-1.164-15.707 0.706-23.344 1.881-7.68 4.194-15.253 6.43-23.275-3.133-2.181-6.364-4.43-10.357-7.21-3.051,13.408-6.031,26.507-9.372,41.194z"/>
    <path d="m139.149,223.708c-4.056,14.15-8.046,28.069-12.036,41.988-0.981-0.243-1.961-0.486-2.942-0.73 2.127-9.586 4.254-19.171 6.402-28.856-5.023-1.597-5.799,2.064-6.54,5.009-2.018,8.022-3.652,16.14-5.594,24.183-0.536,2.222-1.617,4.313-3.121,8.204-3.101-10.7-0.023-18.864 1.745-27.104 1.249-5.822 4.647-11.386 1.436-17.661-0.493-0.963 0.108-2.986 0.879-4.01 3.948-5.244 8.116-10.321 13.148-16.636-0.6,3.509-1.023,5.832-1.39,8.164-1.031,6.549-1.022,6.551 8.013,7.449z"/>
    <path d="m120.599,196.069c-4.018,19.913-8.036,39.825-12.266,60.789-3.734-8.248-3.785-10.387 1.469-31.798 2.45-9.979 3.89-20.393 10.797-28.991z"/>
    <path d="m220.326,78.95c-0.011-4.448 4.279-8.75 8.964-8.99 4.441-0.227 9.471,4.028 9.726,8.226 0.249,4.101-4.428,8.62-9.134,8.825-4.978,0.216-9.545-3.636-9.556-8.061z"/>
    <path d="m162.56,199.61c-4.446,0.246-8.722-3.475-8.87-7.718-0.162-4.625 4.218-9.116 9.039-8.86 4.377,0.232 7.589,2.242 8.097,7.078 0.5,4.766-3.41,9.231-8.266,9.5z"/>
    <path d="m183.11,99.743c0.235,4.5-3.415,8.392-8.001,8.53-4.442,0.134-8.352-3.509-8.608-8.022-0.259-4.552 3.367-8.462 7.893-8.513 4.383-0.048 8.492,3.726 8.716,8.005z"/>
    <path d="m240.285,134.654c-4.366,0.036-8.984-3.781-9.028-7.463-0.047-3.926 3.959-7.334 8.798-7.484 5.168-0.161 8.779,2.772 8.796,7.143 0.014,4.088-4.023,7.767-8.566,7.804z"/>
    <path d="m196.758,146.183c3.726,0.139 7.976,4.089 7.986,7.421 0.01,3.428-4.12,7.1-8.089,7.191-4.618,0.107-8.833-3.817-8.408-7.827 0.371-3.491 4.683-6.928 8.511-6.785z"/>
    <path d="m204.306,202.372c4.454-0.079 8.823,3.753 8.729,7.655-0.089,3.693-3.756,7.109-7.888,7.347-4.505,0.259-8.626-3.418-8.53-7.612 0.088-3.857 3.691-7.319 7.689-7.39z"/>
    <path d="m77.33,202.808c2.556-17.895 6.827-33.255 14.386-48.682 0.262,8.346-9.013,40.352-14.386,48.682z"/>
    <path d="m140.341,141.703c-0.376,3.405-3.216,5.13-7.26,5.178-4.721,0.056-8.663-3.844-8.147-8.071 0.519-4.248 3.321-6.207 7.402-6.279 4.668-0.082 8.355,3.751 8.005,9.172z"/>
    <path d="m254.189,181.432c-0.051,3.671-4.168,7.131-8.278,6.955-4.372-0.186-7.7-3.566-7.502-7.619 0.196-4.013 3.838-7.169 8.108-7.025 3.936,0.132 7.724,3.929 7.672,7.689z"/>
    <path d="m283.5,112.11c-4.076,0.077-8.206-3.32-8.068-6.954 0.164-4.29 3.073-6.276 6.928-6.818 3.819-0.538 8.241,2.909 8.652,6.392 0.418,3.546-3.406,7.302-7.512,7.38z"/>
    <path d="m245.896,214.649c6.507-0.235 10.539,2.92 10.251,6.652-0.327,4.239-3.172,6.317-7.166,6.675-3.908,0.35-8.909-3.597-7.971-6.911 0.796-2.813 3.752-5.014 4.886-6.416z"/>
    <path d="m145.89,242.964c-1.023,11.436-4.133,22.124-9.509,32.136-1.614-12.112 3.956-22.186 9.509-32.136z"/>
    <path d="m276.416,69.317c-3.74,2.619-5.402,4.6-7.375,4.983-3.508,0.682-6.561-1.198-6.554-4.904 0.003-1.501 2.974-4.289 4.471-4.208 2.574,0.14 5.052,2.068 9.458,4.129z"/>
    <path d="m201.209,299.356c0,15.233 0,30.174 0,46.348-1.444-1.814-3.766-3.379-3.771-4.951-0.043-13.542 0.324-27.086 0.66-40.626 0.004-0.17 1.2-0.311 3.111-0.771z"/>
    <path d="m213.718,306.391c1.369,12.899 2.738,25.798 4.226,39.82-6.775-6.788-9.159-23.747-6.419-39.446 0.731-0.125 1.462-0.249 2.193-0.374z"/>
    <path d="m260.179,310.815c4.368,12.819 3.052,24.886 4.082,37.548-5.895-5.611-7.855-24.438-4.082-37.548z"/>
    <path d="m275.584,353.854c-4.726-10.911-2.787-22.248-2.677-34.25 4.733,5.716 6.423,24.709 2.677,34.25z"/>
    <path d="m230.358,311.371c0.768,10.458 1.536,20.917 2.305,31.375-0.904,0.083-1.808,0.166-2.711,0.25-4.634-10.042-2.357-20.838-2.611-31.358 1.005-0.09 2.011-0.178 3.017-0.267z"/>
    <path d="m301.227,314.546c2.867,10.059 2.571,19.941-1.72,29.518-3.693-10.043 0.941-19.682 1.72-29.518z"/>
    <path d="m176.682,287.794c-0.954,13.708-1.844,26.509-2.746,39.463-4.436-7.818-3.184-28.089 2.746-39.463z"/>
    <path d="m289.359,315.849c1.532,9.341 2.09,18.686-1.082,28.802-3.728-8.077-3.549-13.476 1.082-28.802z"/>
    <path d="m186.725,298.461c1.218,2.293 2.051,3.134 2.058,3.982 0.087,11.359 0.058,22.72-1.51,34.064-2.7-12.162-1.834-24.311-0.548-38.046z"/>
    <path d="m316.366,315.993c-2.079,7.19-4.157,14.38-6.236,21.57-0.837-0.214-1.675-0.428-2.512-0.642-0.477-7.761 4.477-14.268 4.98-21.803 1.256,0.292 2.512,0.583 3.768,0.875z"/>
  </g>
</svg>
