<?xml version='1.0' encoding='iso-8859-1'?>
<!DOCTYPE svg PUBLIC '-//W3C//DTD SVG 1.1//EN' 'http://www.w3.org/Graphics/SVG/1.1/DTD/svg11.dtd'>
<svg version="1.1" xmlns="http://www.w3.org/2000/svg" viewBox="0 0 439.918 439.918" xmlns:xlink="http://www.w3.org/1999/xlink" enable-background="new 0 0 439.918 439.918">
  <g>
    <path d="m92.934,134.932c2.16-3.438 4.231-6.389 5.954-9.53 13.527-24.648 40.431-28.812 60.988-9.383 8.99,8.496 15.956,18.286 19.452,30.32 0.606,2.087 1.49,4.093 2.491,6.801 4.428-0.306 8.763-0.46 13.064-0.929 19.027-2.073 38.036-4.357 56.987,0.712 1.701,0.455 3.629,0.06 4.273,0.06 6.175-10.68 11.409-21.143 17.981-30.685 5.973-8.672 14.682-14.114 25.252-16.692 17.073-4.164 30.57,1.062 39.58,16.142 2.44,4.084 4.71,8.269 6.501,11.426 9.914-5.711 18.87-12.23 28.82-16.345 29.534-12.214 59.462,4.91 64.383,36.735 4.141,26.784-2.272,52.244-14.424,75.747-18.408,35.603-42.79,66.923-72.992,93.525-2.468,2.174-4.554,4.785-6.807,7.202-6.629,7.112-10.39,8.277-17.997,1.975-8.986-7.445-18.327-15.359-24.637-24.961-16.444-25.022-28.631-52.244-35.845-81.491-1.057-4.286-2.112-8.574-3.288-12.828-0.163-0.591-1.019-0.99-2.398-2.248-26.402,7.496-53.7,4.561-82.281-0.074-0.972,3.363-2.176,6.687-2.886,10.112-5.597,27.001-17.508,51.499-30.05,75.722-7.222,13.948-17.247,25.665-29.981,34.913-9.466,6.874-12.814,6.181-20.691-2.163-11.343-12.016-23.341-23.421-34.492-35.607-17.234-18.832-31.869-39.652-43.61-62.308-11.367-21.935-17.094-45.423-16.19-70.275 0.668-18.371 9.753-32.117 24.528-42.238 10.063-6.894 21.407-7.598 32.901-4.508 13.318,3.581 25.307,9.721 35.414,20.873zm12.91,188.583c13.451-7.833 21.81-19.006 28.552-31.359 16.503-30.236 28.681-62.127 34.279-96.226 1.659-10.102 2.516-20.496 2.248-30.717-0.446-16.973-7.599-31.394-20.381-42.588-14.781-12.946-31.694-10.016-41.754,6.749-2.46,4.099-4.976,8.168-7.579,12.178-4.212,6.486-7.491,6.251-12.596,0.181-3.203-3.809-6.917-7.71-11.243-9.936-7.139-3.674-14.798-6.589-22.53-8.8-10.606-3.033-20.502-0.755-28.708,6.885-10.385,9.67-16.95,21.277-16.678,35.897 0.426,22.833 5.784,44.371 17.195,64.299 20.54,35.865 47.705,66.085 79.195,93.437zm228.196,.139c2.255-2.103 3.863-3.579 5.443-5.084 1.868-1.778 3.652-3.647 5.573-5.365 27.661-24.734 51.189-52.861 69.243-85.34 11.519-20.722 16.902-43.121 15.55-66.846-1.275-22.371-20.363-41.578-39.85-38.624-15.056,2.282-30.351,5.967-39.808,20.461-3.379,5.179-7.832,4.641-11.283-0.698-3.393-5.249-6.376-10.762-9.735-16.035-6.114-9.598-14.644-13.075-25.608-10.549-6.992,1.611-12.859,5.038-17.829,10.354-14.931,15.971-19.565,35.07-16.842,56.133 5.008,38.742 17.312,75.156 36.133,109.372 6.999,12.721 15.481,24.13 29.013,32.221zm-75.012-123.973c-1.077-11.777-2.164-23.674-3.265-35.715-24.271-3.893-47.892-4.215-71.556,0.133-1.22,12.561-2.37,24.41-3.702,38.133 7.027-1.921 12.632-3.454 17.759-4.856 1.557,1.599 3.631,3.728 5.413,5.558 5.279-6.999 9.947-13.187 14.614-19.375 0.588,0.417 1.177,0.833 1.765,1.25-3.839,5.898-7.678,11.796-11.516,17.694 0.572,0.699 1.144,1.399 1.716,2.098 2.986-1.38 6.265-2.36 8.871-4.261 2.295-1.674 3.795-4.42 5.759-6.589 0.325-0.359 1.231-0.191 2.214-0.308-1.187,2.963-2.313,5.774-3.92,9.786 12.361-1.224 23.386-2.315 35.848-3.548z"/>
    <path d="m98.347,167.044c2.951-5.709 4.848-9.69 7.015-13.518 8.986-15.872 28.45-17.417 38.83-2.395 4.243,6.14 7.83,13.913 8.349,21.184 0.908,12.728 0.606,25.9-1.734,38.411-2.965,15.844-7.897,31.405-13.049,46.729-4.863,14.463-13.038,27.275-24.424,37.635-8.717,7.933-12.143,7.687-20.17-1.186-4.682-5.175-8.674-10.971-13.001-16.469-12.532-15.923-25.177-31.759-37.588-47.776-12-15.489-16.272-33.762-17.204-52.761-0.637-12.979 6.192-22.681 17.61-28.426 11.375-5.723 22.266-2.432 32.45,3.853 7.421,4.579 14.683,9.417 22.916,14.719zm4.831,123.289c10.442-7.6 16.982-17.147 21.029-27.645 6.192-16.061 11.024-32.686 15.716-49.274 3.634-12.846 4.19-26.184 2.323-39.402-0.752-5.327-2.353-10.909-5.044-15.512-6.319-10.808-16.844-10.651-23.164-0.085-2.451,4.097-4.317,8.54-6.66,12.707-3.297,5.865-5.51,6.608-11.585,4.049-2.023-0.852-3.945-1.98-5.826-3.126-7.523-4.579-14.822-9.566-22.556-13.75-12.37-6.693-25.881-2.813-31.251,8.473-3.849,8.091-2.364,24.623 2.969,33.084 4.172-6.617 8.344-13.233 12.516-19.85 0.673,0.381 1.347,0.761 2.02,1.142-3.258,5.957-5.895,12.38-9.928,17.756-5.344,7.124-3.859,12.71 2.035,18.775 5.176-10.475 9.855-20.99 19.577-28.032-5.829,10.897-11.658,21.794-17.632,32.963 2.91,3.204 5.195,5.718 7.63,8.399 6.414-9.712 12.14-18.384 17.866-27.056 0.8,0.486 1.6,0.973 2.401,1.459-5.786,9.96-11.571,19.919-17.845,30.719 2.03,1.701 4.103,3.437 6.507,5.451 5.775-7.399 9.606-15.501 17.56-20.196-4.823,8.158-9.647,16.316-14.78,24.998 2.458,2.778 4.715,5.33 6.893,7.791 5.419-7.81 10.268-14.798 15.117-21.785 0.793,0.493 1.585,0.986 2.378,1.479-4.675,8.062-9.35,16.125-14.328,24.71 2.813,3.449 5.491,6.732 8.655,10.611 3.474-5.724 6.438-10.607 9.403-15.49 0.621,0.32 1.241,0.641 1.862,0.961-2.788,5.715-5.575,11.431-8.494,17.414 4.861,6.066 9.586,11.961 14.636,18.262z"/>
    <path d="m341.745,166.985c8.169-5.315 15.393-10.257 22.855-14.81 10.56-6.444 21.834-9.628 33.376-3.101 11.489,6.497 17.285,16.568 16.289,30.199-1.395,19.108-6.379,36.894-18.379,52.228-15.86,20.267-31.742,40.517-47.665,60.734-1.355,1.72-2.99,3.257-4.664,4.681-5.937,5.049-8.132,5.052-14.437,0.392-10.372-7.668-17.56-18.183-22.576-29.529-12.244-27.697-21.522-56.42-20.173-87.252 0.344-7.848 2.914-15.768 5.481-23.308 3.64-10.694 12.871-14.554 23.102-16.255 7.39-1.229 12.87,2.363 16.702,8.305 3.358,5.204 6.166,10.765 10.089,17.716zm-33.006,73.307l.023-.04c-0.272,1.008-0.981,2.132-0.75,3.007 4.011,15.203 11.156,28.826 21.292,40.815 1.979,2.34 4.78,3.985 7.645,6.311 19.066-23.589 37.694-45.926 55.478-68.915 10.026-12.96 13.252-28.619 13.096-44.822-0.158-16.495-14.567-25.96-29.985-19.759-3.702,1.489-6.974,4.039-10.459,6.075-6.978,4.078-13.809,8.448-21.001,12.107-5.837,2.97-8.51,1.848-11.691-3.827-2.339-4.173-4.17-8.638-6.619-12.74-6.483-10.86-16.697-11.137-23.09-0.05-3.013,5.225-4.644,11.602-5.45,17.651-0.917,6.878-0.96,14.07-0.061,20.953 1.942,14.869 3.718,29.9 11.572,43.234z"/>
    <path d="m303.425,217.931c6.593-9.066 13.186-18.131 19.778-27.197 0.71,0.5 1.42,1.001 2.13,1.501-6.453,9.272-12.907,18.544-19.36,27.815-0.849-0.706-1.699-1.413-2.548-2.119z"/>
    <path d="m308.739,240.292c0.612-3.454 0.316-7.458 2.011-10.255 4.549-7.506 9.949-14.496 16.783-20.706-1.452,2.596-2.815,5.247-4.373,7.778-4.759,7.738-9.593,15.429-14.398,23.141 0.001,0.002-0.023,0.042-0.023,0.042z"/>
    <path d="m322.462,258.448c5.253-7.687 10.506-15.374 15.758-23.061 0.756,0.487 1.512,0.973 2.268,1.46-5.083,7.995-10.166,15.99-15.249,23.985-0.926-0.794-1.852-1.589-2.777-2.384z"/>
    <path d="m329.534,230.352c-4.91,6.52-9.82,13.04-14.73,19.56 0.97-9.492 7.091-15.259 14.73-19.56z"/>
  </g>
</svg>
