<?xml version="1.0" encoding="iso-8859-1"?>
<!-- Generator: Adobe Illustrator 16.0.0, SVG Export Plug-In . SVG Version: 6.00 Build 0)  -->
<!DOCTYPE svg PUBLIC "-//W3C//DTD SVG 1.1//EN" "http://www.w3.org/Graphics/SVG/1.1/DTD/svg11.dtd">
<svg version="1.1" id="Capa_1" xmlns="http://www.w3.org/2000/svg" xmlns:xlink="http://www.w3.org/1999/xlink" x="0px" y="0px"
	 width="194.335px" height="194.335px" viewBox="0 0 194.335 194.335" style="enable-background:new 0 0 194.335 194.335;"
	 xml:space="preserve">
<g>
	<path d="M173.447,15.168c-23.338-6.556-37.231,32.423-14.662,38.026c-0.053,0.625,0.023,1.265,0.354,1.86
		c0.077,0.138,0.171,0.245,0.25,0.38c-2.807,6.11-5.487,12.266-7.327,18.668c-0.115,0.404-0.136,0.79-0.085,1.152
		c-11.312-4.787-23.431-7.232-35.681-7.521c0.334-0.362,0.591-0.834,0.655-1.471c0.562-5.58,1.033-11.01,1.633-16.41
		c1.438,0.133,2.892,0.198,4.365,0.086c27.276-2.089,20.3-49.058-7.752-44.44c-1.27,0.209-1.959,1.009-2.245,1.965
		c-9.629-0.391-15.604,10.345-15.781,19.845c-0.188,10.038,6.168,17.661,14.649,20.92c-0.315,6.157-0.025,12.35,0.542,18.034
		c0.062,0.622,0.311,1.083,0.632,1.443c-11.547,0.085-23.141,2.01-34.193,5.607c0.396-0.849,0.481-1.878-0.051-3.003
		c-1.947-4.122-3.327-9.121-4.806-14.042c1.156-0.789,2.286-1.606,3.289-2.556c1.251,0.826,2.847,0.896,4.065-0.677
		c19.083-24.633-23.451-42.226-41.319-27.213c-10.437,8.769-8.675,25.489,2.83,32.318c6.676,3.963,15.339,4.334,23.028,1.966
		c1.942,4.783,4.301,9.562,7.084,13.612c0.41,0.597,0.905,0.953,1.42,1.21c-11.487,4.262-22.308,10.26-31.722,17.881
		c-2.045-2.334-4.125-4.636-6.187-6.955c1.652-1.7,3.189-3.476,4.509-5.304c1.374,0.107,2.871-0.594,3.204-2.008
		c2.77-11.783-9.592-21.938-20.223-23.157C12.356,54.057,1.332,61.183,0.166,73.291c-1.081,11.223,2.983,24.374,16.433,23.301
		c4.897-0.391,9.652-2.58,13.917-5.632c2.216,2.212,4.48,4.378,6.825,6.451c-13.839,14.114-21.688,40.303-14.496,58.638
		c1.315,6.458,5.034,11.872,10.184,15.458c-0.044,1.288,0.495,2.532,1.97,3.166c40.267,17.301,88.423,22.701,126.335-4.163
		c29.103-20.622,37.045-67.152,3.759-88.413c-2.755-1.76-5.606-3.294-8.5-4.717c0.341-0.237,0.651-0.544,0.875-0.998
		c2.464-4.99,4.96-10.015,7.399-15.071c9.373,6.057,23.167,0.793,27.703-10.191C198.64,36.42,188.265,19.331,173.447,15.168z
		 M72.265,51.031c-1.182-3.408-2.554-6.58-4.348-9.186c1.027-2.394,1.018-4.997-2.21-6.056c-1.16-0.381-2.363-0.127-3.503,0.297
		c-0.158-0.031-0.314-0.04-0.473-0.054c-0.866-0.931-2.451-1.258-3.359-0.173c-0.679,0.811-1.432,1.962-2.078,3.238
		c-1.188,0.764-2.26,1.624-2.753,2.575c-0.893,1.723-0.521,4.072,1.323,5.045c0.217,0.115,0.454,0.17,0.686,0.24
		c0.358,0.567,0.82,1.087,1.513,1.487c1.501,0.868,3.077,0.66,4.54-0.019c0.537,1.786,1.271,3.563,1.853,5.275
		c-4.725,0.659-9.617,0.346-13.802-0.813c-9.688-2.682-12.388-15.801-4.149-21.818c10.727-7.834,43.414,0.278,30.621,16.789
		c-0.277,0.358-0.421,0.737-0.557,1.115C74.538,49.752,73.439,50.442,72.265,51.031z M29.797,77.826
		c-0.386-0.54-0.72-1.072-1.054-1.593c0.169-0.285,0.342-0.546,0.517-0.799c0.614-0.686,1.275-1.346,2.029-1.96
		c3.655-2.973-1.069-8.841-4.966-6.435c-0.313,0.193-0.543,0.519-0.831,0.754c-0.369-0.192-0.769-0.289-1.219-0.326
		c-0.913-1.636-3.041-2.381-4.86-1.39c-2.792,1.522-5.461,3.923-6.014,7.216c-0.167,0.995-0.042,2.002,0.293,2.908
		c-0.055,1.253-0.064,2.499-0.222,3.497c-0.328,2.075,1.307,4.231,3.182,4.551c0.25,0.282,0.543,0.534,0.921,0.714
		c2.523,1.196,4.223,0.002,5.676-1.653c0.774,0.933,1.602,1.821,2.371,2.62c-8.313,4.167-16.891,4.738-17.75-7.025
		c-0.714-9.778,4.865-16.441,14.768-15.993c9.2,0.417,12.16,7.204,15.23,14.202c-1.441,1.437-3.188,2.943-5.13,4.392
		C31.738,80.294,30.71,79.104,29.797,77.826z M112.476,41.12c-10.663-6.44-11.339-26.906,3.503-29.018
		c0.042,0.002,0.074,0.025,0.116,0.025c8.833,0.135,14.797,3.819,16.756,12.777c1.631,7.459-1.871,15.916-9.648,17.734
		c-1.305,0.305-2.546,0.442-3.73,0.446c0.438-3.067,0.983-6.147,1.615-9.239h2.197c1.441,0,3.149-1.064,3.399-2.589
		c0.209-1.273,1.088-2.232,0.645-3.686c-0.598-1.955-1.822-2.969-3.59-3.842c-3.049-1.505-6.145-2.401-9.495-2.643
		c-1.491-0.383-3.238,0.163-4.134,1.518c-0.33,0.499-0.543,1.119-0.704,1.779c-0.104,0.351-0.162,0.711-0.228,1.095
		c-0.908,1.813-0.882,4.15-0.662,6.28c0.154,1.494,0.892,2.698,2.397,3.149c0.885,0.265,1.784,0.48,2.679,0.713
		C113.163,37.427,112.745,39.247,112.476,41.12z M73.011,168.351c-0.409,2.833-0.721,5.696-0.563,8.56
		c-2.895-0.642-5.792-1.336-8.706-2.102c3.358-4.429,6.521-9.488,8.055-14.918c0.973,0.372,2.014,0.639,3.026,0.953
		C73.549,162.955,73.348,166.014,73.011,168.351z M115.722,154.54c-15.543,3.055-34.076,2.18-47.714-6.401
		C43.027,132.419,71.189,110.72,87.827,103c0.179-0.017,0.332,0.028,0.52-0.012c18.792-3.895,49.151-4.879,61.145,13.221
		C162.431,135.736,130.688,151.597,115.722,154.54z M80.694,167.777c-0.71,3.458-1.031,6.992-0.979,10.52
		c-1.184-0.209-2.369-0.399-3.552-0.635c0.089-0.208,0.166-0.429,0.188-0.691c0.242-2.779,0.691-5.535,1.263-8.265
		c0.468-2.235,1.339-4.411,1.701-6.654c0.964,0.214,1.953,0.364,2.935,0.537C81.321,164.087,81.075,165.927,80.694,167.777z
		 M83.343,178.907c0.049-0.16,0.113-0.31,0.122-0.499c0.16-3.223,0.702-6.332,1.501-9.452c0.487-1.902,1.42-3.816,1.295-5.768
		c2.119,0.258,4.255,0.366,6.387,0.476c-1.323,1.599-1.575,4.057-1.972,6.037c-0.576,2.877-0.902,5.772-0.749,8.706
		c0.038,0.727,0.425,1.126,0.894,1.377C88.318,179.557,85.824,179.28,83.343,178.907z M92.11,179.893
		c0.625-0.19,1.188-0.622,1.267-1.485c0.265-2.873,0.952-5.713,1.729-8.486c0.592-2.109,1.554-4.023,0.937-6.109
		c1.984,0.037,3.952,0.021,5.883-0.037c-0.055,1.593,0.149,3.242,0.197,4.786c0.118,3.763,0.195,7.526,0.402,11.284
		c0.008,0.126,0.059,0.217,0.081,0.331C99.073,180.236,95.57,180.17,92.11,179.893z M106.624,179.988
		c0.006-0.052,0.032-0.089,0.035-0.143c0.184-3.328,0.258-6.661,0.361-9.993c0.062-1.967,0.391-4.243,0.227-6.356
		c1.267-0.092,2.458-0.221,3.665-0.341c0.045,1.06,0.137,2.123,0.174,3.197c0.117,3.439-0.06,6.859-0.621,10.255
		c-0.281,1.706,2.118,2.444,2.633,0.727c0.819-2.732,1.42-5.495,1.778-8.326c0.26-2.051,0.635-4.253,0.663-6.4
		c0.771-0.106,1.595-0.2,2.32-0.316c1.016-0.163,2.053-0.393,3.089-0.624c0.508,5.384,2.498,10.529,2.215,16.043
		C117.488,178.982,112.002,179.685,106.624,179.988z M129.306,176.125c-0.745,0.22-1.469,0.378-2.207,0.576
		c0.856-5.361,0.555-11.451-1.089-16.385c1.344-0.431,2.687-0.925,4.025-1.458c0.35,1.36,0.772,2.708,1.016,3.943
		c0.715,3.638,1.312,7.591,0.895,11.292c-0.056,0.491,0.157,0.805,0.455,1.028C131.362,175.489,130.329,175.824,129.306,176.125z
		 M134.754,174.226c1.124-3.585,1.523-7.074,1.345-10.83c-0.096-2.03-0.161-4.646-0.71-6.979c1.301-0.663,2.572-1.392,3.825-2.146
		c0.204,0.562,0.41,1.117,0.559,1.626c1.045,3.573,2.022,7.067,3.523,10.48c0.723,1.644,3.474,0.816,3.356-0.909
		c-0.255-3.732-0.884-7.359-1.575-11.033c-0.221-1.166-0.404-2.44-0.685-3.675c1.657-1.264,3.189-2.641,4.648-4.072
		c0.954,1.475,2.167,2.8,3.637,3.967c2.443,1.942,6.805,4.616,10.465,4.78C154.883,163.646,144.654,170.313,134.754,174.226z
		 M164.932,92.039c22.947,18.572,17.377,41.557,2.211,59.095c-0.107-0.159-0.132-0.334-0.288-0.481
		c-2.583-2.434-6.87-2.338-10.009-4.07c-1.765-0.975-3.105-2.347-4.195-3.932c5.889-7.484,8.724-16.642,5.452-26.883
		c-8.128-25.445-51.688-26.685-71.771-20.093c-1.484,0.487-2.24,1.519-2.514,2.649c-21.351,6.005-40.208,24.028-28.93,47.256
		c2.591,5.336,6.766,9.216,11.835,12.01c-0.671,2.343-1.309,4.684-2.318,6.957c-1.321,2.972-3.061,5.734-4.91,8.399
		c-0.146,0.208-0.207,0.424-0.263,0.639c-5.657-1.572-11.39-3.298-17.281-5.065c-29.574-22.867-7.611-62.186,17.925-78.46
		C89.848,70.957,136.704,69.191,164.932,92.039z M186.262,45.944c-1.051,4.487-4.308,8.512-8.716,9.98
		c-3.568,1.188-6.459-0.216-9.155-2.133c1.105-2.409,2.185-4.826,3.229-7.253c0.017,0.008,0.039,0.015,0.055,0.023
		c2.004,0.986,5.191,0.317,5.618-2.286c0.364-2.219,0.689-4.469,0.768-6.717c0.085-2.451-1.151-4.432-2.918-5.09
		c-1.688-1.294-3.678-2.628-5.72-2.664c-1.897-1.053-4.843,0.258-5.222,2.382c-0.271,1.521-0.794,3.205-1.058,4.877
		c-1.144,0.863-1.842,2.039-1.277,3.913c0.414,1.379,1.435,2.357,2.703,3.112c-0.761,1.726-1.539,3.448-2.331,5.167
		c-6.114-2.668-9.193-8.088-7.389-14.949c1.789-6.802,7.652-12.511,14.928-12.164C180.486,22.653,188.515,36.327,186.262,45.944z"/>
</g>
<g>
</g>
<g>
</g>
<g>
</g>
<g>
</g>
<g>
</g>
<g>
</g>
<g>
</g>
<g>
</g>
<g>
</g>
<g>
</g>
<g>
</g>
<g>
</g>
<g>
</g>
<g>
</g>
<g>
</g>
</svg>
