<?xml version="1.0" encoding="iso-8859-1"?>
<!-- Generator: Adobe Illustrator 16.0.0, SVG Export Plug-In . SVG Version: 6.00 Build 0)  -->
<!DOCTYPE svg PUBLIC "-//W3C//DTD SVG 1.1//EN" "http://www.w3.org/Graphics/SVG/1.1/DTD/svg11.dtd">
<svg version="1.1" id="Capa_1" xmlns="http://www.w3.org/2000/svg" xmlns:xlink="http://www.w3.org/1999/xlink" x="0px" y="0px"
	 width="195.058px" height="195.058px" viewBox="0 0 195.058 195.058" style="enable-background:new 0 0 195.058 195.058;"
	 xml:space="preserve">
<g>
	<g>
		<path d="M190.795,52.015c0.935-1.588,1.938-3.157,2.811-4.754c3.459-6.326-5.602-11.55-9.573-5.705
			c-5.033-6.059-11.893-11.855-20.964-17.241c-0.271-0.161-0.559-0.247-0.849-0.304C154.019-19.364-6.266,66.479,0.19,125.096
			c0.606,5.5,2.264,9.688,4.641,12.923c-0.873,0.501-1.399,1.599-0.806,2.853c4.833,10.221,10.389,18.178,16.498,24.214
			c-1.161,0.755-2.311,1.521-3.297,2.424c-2.351,2.152-2.29,4.805-1.067,6.898c-0.29,0.697-0.482,1.43-0.482,2.173
			c0,0.277,0.01,0.408,0.015,0.595c-0.044,0.134-0.081,0.227-0.14,0.456c-0.987,3.802,3.996,7.102,6.819,3.97
			c0.06-0.067,0.044-0.086,0.081-0.139c1.036-0.354,1.811-1.016,2.647-1.71c1.401-1.167,2.711-2.494,4.086-3.7
			c0.88-0.773,1.928-1.405,2.907-2.105c32.435,18.565,75.492-3.136,110.469-27.706C176.725,122.242,206.377,84.59,190.795,52.015z
			 M75.193,47.439c13.569-8.592,59.101-36.79,78.022-24.509c-1.319,0.712-2.327,1.995-2.336,3.999
			c-0.128,28.84-36.244,57.639-56.106,74.433c-12.715,10.751-79.948,61.142-84.153,20.136C7.442,90.509,53.637,61.089,75.193,47.439
			z M129.255,143.135c-29.047,20.587-58.626,33.679-85.674,24.412c4.745-4.393-1.124-13.292-7.861-9.92
			c-1.951,0.959-4.069,1.877-6.207,2.814c-6.162-4.18-12.167-9.636-17.942-16.827C47.84,161.047,156.812,75.169,160.303,30.28
			c5.224,6.918,10.767,13.831,15.231,20.991c-4.71,3.989-8.476,10.304-12.324,14.3c-5.058,5.251,2.307,12.951,7.646,8.804
			c0.155,0.036,0.295,0.135,0.448,0.155c0.598,0.077,1.135-0.188,1.649-0.446c0.176-0.089,0.276-0.147,0.343-0.19
			c0.197-0.045,0.463-0.111,0.896-0.231c3.044-0.837,5.144-4.669,6.921-6.992c0.403-0.526,0.755-1.112,1.151-1.647
			c3.212,9.666,3.155,20.011-3.201,31.586C168.509,115.832,146.532,130.891,129.255,143.135z"/>
		<path d="M90.346,132.635c-2.117-1.154-4.817-1.232-7.112,0.854c-3.389,3.082-6.649,6.334-9.854,9.606
			c-1.681,1.716-1.981,3.691-1.565,5.507c-0.122,0.242-0.309,0.455-0.406,0.707c-0.92,2.379,1.379,4.544,3.563,4.678
			c0.556,0.034,1.114-0.145,1.672-0.266c1.892,0.543,3.974,0.26,5.705-1.656c3.748-4.146,8.873-6.642,13.058-10.294l-0.005-0.005
			C99.318,138.395,95.507,131.793,90.346,132.635z"/>
		<path d="M137.804,94.653c-5.656,5.398-11.932,10.092-17.5,15.581c-4.786,4.72,1.573,13.442,7.309,9.473
			c5.778-3.999,11.527-8.039,17.288-12.062c2.554-1.303,3.094-3.706,2.493-5.894C150.667,95.833,142.654,90.023,137.804,94.653z"/>
	</g>
</g>
<g>
</g>
<g>
</g>
<g>
</g>
<g>
</g>
<g>
</g>
<g>
</g>
<g>
</g>
<g>
</g>
<g>
</g>
<g>
</g>
<g>
</g>
<g>
</g>
<g>
</g>
<g>
</g>
<g>
</g>
</svg>
