<?xml version='1.0' encoding='iso-8859-1'?>
<!DOCTYPE svg PUBLIC '-//W3C//DTD SVG 1.1//EN' 'http://www.w3.org/Graphics/SVG/1.1/DTD/svg11.dtd'>
<svg version="1.1" xmlns="http://www.w3.org/2000/svg" viewBox="0 0 436.123 436.123" xmlns:xlink="http://www.w3.org/1999/xlink" enable-background="new 0 0 436.123 436.123">
  <g>
    <path d="m373.632,141.851c6.136,16.487 5.935,32.671 2.855,49.25-7.222,38.873-22.538,74.435-41.91,108.661-22.77,40.228-51.303,75.526-86.854,105.008-11.324,9.391-23.498,17.778-35.472,26.36-9.762,6.996-15.36,6.724-24.689-1.34-11.425-9.875-23.005-19.641-33.702-30.275-26.902-26.742-54.792-52.69-79.613-81.277-31.788-36.611-58.705-76.7-68.716-125.635-2.596-12.688-3.727-25.211-2.072-38.286 2.409-19.022 11.507-33.807 24.955-46.678 20.019-19.161 43.886-30.869 70.8-36.358 13.92-2.839 27.889-2.014 41.35,3.062 18.246,6.881 36.887,13.023 51.949,27.58 14.037-16.557 29.415-30.657 50.204-36.753 20.329-5.961 40.849-10.579 61.054,0.557 12.261-10.811 24.646-21.184 36.389-32.24 11.692-11.008 22.74-22.701 33.467-33.487 6.942,2.229 6.296,6.596 6.389,10.607 0.266,11.424 0.603,22.848 0.729,34.274 0.042,3.79 0.866,6.443 3.91,9.447 4.063,4.009 6.442,9.723 9.392,14.46 9.826,2.275 19.483,4.357 29.056,6.768 11.958,3.012 13.519,7.715 4.795,16.197-13.991,13.604-28.436,26.742-42.743,40.019-3.751,3.482-7.703,6.749-11.523,10.079zm-316.014,132.561l-.265-.271c2.518,4.201 5.036,8.402 8.576,14.31 2.808-8.628 4.876-14.982 6.944-21.337 0.642,6.58-1.023,12.573-1.799,18.678-0.435,3.419-0.594,7.857 1.178,10.409 10.015,14.427 22.391,26.808 35.08,39.688 2.23-3.916 3.869-6.796 5.509-9.676 0.407,0.187 0.813,0.375 1.22,0.562-0.938,4.185-1.875,8.369-2.48,11.068 3.831,4.51 6.882,8.102 10.554,12.424 1.961-3.892 3.407-6.763 5.549-11.016 1.716,8.325-5.759,17.815 6.866,21.168 1.839-3.479 3.749-7.091 5.659-10.704 0.518,5.112-0.97,9.678-1.181,14.301-0.249,5.459 4.181,7.614 8.169,10.234 2.946-5.839 5.433-10.768 7.921-15.697 0.481,0.21 0.963,0.421 1.444,0.631-1.745,6.645-3.49,13.291-5.321,20.266 3.071,2.505 5.835,4.76 9.01,7.35 2.919-7.528 5.518-14.232 8.118-20.936 0.743,0.224 1.486,0.449 2.229,0.673-1.4,5.858-2.852,11.704-4.187,17.577-1.856,8.168-1.623,8.569 6.84,13.613 4.107-9.518 8.215-19.039 12.323-28.56 0.636,0.251 1.272,0.502 1.908,0.753-3.462,10.718-6.924,21.436-10.45,32.351 3.515,3.267 6.565,6.102 10.327,9.599 5.934-14.782 11.016-28.284 18.429-40.617 0.736,0.307 1.471,0.615 2.206,0.922-5.419,14.309-10.837,28.618-16.708,44.12 3.64,2.131 6.895,4.036 10.15,5.942 1.714-2.977 3.727-5.824 5.091-8.954 5.53-12.685 10.862-25.458 16.266-38.198 0.784,0.303 1.569,0.607 2.353,0.91-0.844,13.039-9.388,23.863-12.446,37.097 2.018-0.547 3.161-0.565 3.927-1.11 6.303-4.486 12.787-8.766 18.751-13.674 40.987-33.736 72.779-74.73 97.152-121.845 16.047-31.02 27.574-63.411 33.329-97.799 1.458-8.714 2.68-17.775-1.671-27.376-3.375,2.823-5.854,4.926-8.364,6.99-7.665,6.304-9.319,6.139-17.288,0.524-7.149-5.037-14.667-9.551-22.663-14.709-15.355,14.484-29.955,28.256-44.904,42.357 2.946,3.297 4.896,5.439 6.801,7.619 5.608,6.416 9.998,13.31 12.723,21.667 9.991,30.643 3.449,58.867-11.61,85.901-5.242,9.411-12.691,17.057-21.72,23.206-28.177,19.188-59.275,24.392-91.723,16.262-37.588-9.418-61.01-35.541-74.277-70.944-5.467-14.589-6.996-29.942-3.606-45.645 13.203-61.168 77.324-83.123 123.017-75.454 15.704,2.636 30.15,9.059 42.762,18.566 1.094-0.511 1.896-0.669 2.387-1.146 13.21-12.831 26.517-25.567 39.432-38.689 1.93-1.961 2.981-5.851 2.728-8.697-0.748-8.405-1.824-16.86-3.771-25.058-1.97-8.292-2.409-15.842 4.801-22.227-8.178-5.438-16.619-6.552-25.01-5.392-18.44,2.55-36.04,7.742-50.546,20.273-8.952,7.732-17.252,15.926-22.658,26.82-3.989,8.039-9.601,7.762-14.74,0.187-2.039-3.006-4.086-6.365-6.957-8.389-19.221-13.551-39.948-23.431-64.007-24.3-15.957-0.577-30.487,5.064-44.512,11.54-17.972,8.299-33.425,20.282-44.862,36.641-11.89,17.007-11.898,36.037-9.512,55.257 0.867,0.246 1.733,0.493 2.6,0.739 4.219-9.136 8.438-18.271 12.657-27.407 0.988,2.519 0.563,4.53-0.199,6.405-3.187,7.842-6.626,15.586-9.65,23.489-1.154,3.018-2.462,6.541-1.95,9.535 2.39,13.989 7.627,26.999 14.954,41.414 5.996-19.018 11.748-35.734 19.356-51.78-3.571,16.175-7.846,32.114-13.474,47.561-2.925,8.029-1.598,14.184 3.364,20.287 2.087,2.567 4.338,5.001 6.514,7.496l-.173-.06c2.505,4.098 5.007,8.191 7.51,12.285zm194.933-70.426c4.871,7.319 9.901,12.929 12.748,19.486 13.762,31.703-1.833,69.002-31.276,85.289-32.266,17.849-69.502,6.965-91.785-11.812-4.928-4.153-9.207-9.753-12.087-15.532-8.617-17.297-11.086-35.264-6.24-54.594 9.641-38.453 49.03-57.715 79.671-48.293 9.497,2.92 18.602,6.083 26.251,13.129 5.295-5.049 9.944-9.482 15.587-14.864-14.351-11.003-28.753-18.331-44.945-20.31-27.183-3.321-51.867,3.94-73.217,21.366-18.642,15.215-29.106,34.947-30.51,58.979-1.347,23.066 5.733,43.844 20.567,61.385 15.974,18.89 34.258,35.049 60.762,36.171 12.395,0.525 25.275,1.021 37.22-1.657 24.474-5.488 45.515-17.547 57.209-41.103 4.705-9.477 8.077-19.787 10.766-30.055 4.326-16.521 2.184-32.92-4.133-48.646-1.433-3.568-4.289-6.754-7.068-9.539-2.743-2.748-6.219-4.765-9.944-7.526-3.144,2.672-6.438,5.465-9.576,8.126zm-29.723-6.797c-8.043-7.04-17.733-9.058-27.609-10.531-22.622-3.373-41.216,6.006-54.736,22.284-21.391,25.756-10.218,73.013 14.907,87.101 5.738,3.217 11.813,5.997 18.007,8.212 32.873,11.756 63.03,1.317 80.773-28.666 9.963-16.836 12.322-47.823-10.859-63.11-4.934,4.416-10.057,9.001-15.395,13.778 8.283,10.659 6.895,21.634 4.538,33.212-6.536,32.107-46.064,38.268-65.251,25.005-19.324-13.357-26.549-40.999-15.226-61.765 9.467-17.363 35.626-27.968 51.996-9.968 0.612,0.672 1.9,0.729 3.015,1.123 5.153-5.425 10.19-10.727 15.84-16.675zm-31.387,54.312c65.016-60.877 130.054-120.343 195.663-182.422-2.918-3.068-4.78-5.026-6.491-6.824-68.759,57.664-129.993,119.796-193.978,180.223 1.313,2.466 2.952,5.543 4.806,9.023zm6.636-29.373c-9.517-13.493-29.937-13.004-38.771,0.903-8.24,12.971-7.267,34.84 2.039,45.842 12.078,14.279 27.519,18.13 44.714,11.154 16.277-6.604 24.497-30.291 15.285-45.523-6.477,6.493-17.131,9.161-16.792,21.256 0.046,1.645-2.305,3.644-3.943,4.997-5.438,4.491-11.358,4.614-17.436,1.273-6-3.298-9.344-9.848-7.823-16.825 1.514-6.945 3.775-14.343 12.128-15.3 5.628-0.646 8.68-2.986 10.599-7.777zm175.385-209.179c-1.034-0.41-2.068-0.819-3.102-1.229-4.085,5.402-11.006,10.481-11.667,16.274-1.396,12.249-1.086,25.031 2.965,39.831 4.878-6.04 10.861-10.071 11.326-14.663 1.349-13.284 0.478-26.793 0.478-40.213zm36.481,86.241c3.561-3.963 8.366-9.311 14.203-15.807-11.405-2.868-22.161-5.573-30.827-7.753-6.27,6.294-11.348,11.391-15.707,15.767 9.259,2.232 19.798,4.772 32.331,7.793zm-53.289,9.421c9.225,3.396 17.308,6.718 25.633,9.239 2.752,0.833 6.903,0.666 9.058-0.905 4.504-3.283 8.106-7.805 12.813-12.56-8.617-2.388-15.854-3.75-22.574-6.417-8.801-3.492-15.436-1.62-20.886,5.814-1.049,1.433-2.278,2.733-4.044,4.829zm-2.64-73.872c-0.894-0.428-1.788-0.857-2.683-1.285-3.489,3.089-7.143,6.018-10.39,9.344-1.403,1.437-2.866,3.75-2.76,5.574 0.694,11.827 1.813,23.629 2.923,37.012 5.677-5.172 12.525-7.254 12.789-14.476 0.442-12.042 0.121-24.111 0.121-36.169zm-32.881,66.773c10.643-5.181 15.371-11.567 13.089-22.497-1.177-5.637-0.242-11.716-0.254-17.595-0.007-3.445-0.001-6.889-0.001-12.151-7.315,6.204-15.283,9.286-15.072,18.387 0.251,10.899 1.397,21.778 2.238,33.856zm-2.284,37.587c10.629,6.15 19.121,11.064 28.92,16.733 5.19-4.872 11.049-10.372 17.713-16.628-11.669-3.273-21.402-6.166-31.245-8.613-1.75-0.435-4.192,0.592-5.907,1.622-3.102,1.863-5.897,4.237-9.481,6.886zm16.129-12.827c10.851,2.335 19.209,3.437 27.087,6.008 9.621,3.14 14.76-1.764 20.551-9.167-5.578-1.87-10.357-3.391-15.076-5.076-5.12-1.828-10.187-3.808-15.728-5.891-4.993,4.189-9.95,8.349-16.834,14.126zm-29.152-9.785c10.186-6.568 10.321-6.572 10.049-15.897-0.193-6.606-0.691-13.211-1.29-19.795-0.333-3.663 1.235-7.784-1.879-11.51-3.276,3.453-6.458,6.086-8.667,9.373-1.662,2.472-3.155,5.903-2.846,8.701 1.042,9.453 2.921,18.815 4.633,29.128z"/>
    <path d="m50.284,262.191c-0.568-3.851-2.455-8.083-1.473-11.488 4.097-14.208 9.056-28.168 15.144-41.763-1.391,18.611-9.977,35.245-13.899,53.144 0.055,0.047 0.228,0.107 0.228,0.107z"/>
    <path d="m46.486,162.272c-6.063,17.744-12.127,35.488-18.19,53.231-0.73-0.242-1.459-0.484-2.189-0.726 1.863-19.143 12.061-35.514 18.281-53.208 0.699,0.235 1.399,0.469 2.098,0.703z"/>
    <path d="m57.618,274.412c3.533-10.598 7.067-21.196 10.6-31.793 0.704,0.261 1.407,0.521 2.111,0.782-3.531,10.556-5.329,21.796-12.983,30.73 0.006,0.009 0.272,0.281 0.272,0.281z"/>
  </g>
</svg>
