<?xml version='1.0' encoding='iso-8859-1'?>
<!DOCTYPE svg PUBLIC '-//W3C//DTD SVG 1.1//EN' 'http://www.w3.org/Graphics/SVG/1.1/DTD/svg11.dtd'>
<svg version="1.1" xmlns="http://www.w3.org/2000/svg" viewBox="0 0 447.56 447.56" xmlns:xlink="http://www.w3.org/1999/xlink" enable-background="new 0 0 447.56 447.56">
  <g>
    <path d="m168.148,21.408c36.823-15.346 72.225-8.957 107.479,4.971 7.912-16.836 22.598-23.225 39.458-23.69 7.514-0.207 16.461,2.741 22.451,7.292 9.454,7.182 16.98,16.519 16.038,30.375-0.85,12.505-4.195,23.732-11.387,33.891-0.214,0.302-0.371,0.726-0.666,0.879-9.501,4.922-8.59,13.188-8.437,22.229 0.342,20.247-1.234,40.455-8.713,59.631-2.033,5.213-4.812,10.134-7.748,16.227 22.501,9.239 36.839,26.734 44.898,49.239 8.063,22.515 5.248,44.755-4.802,67.647 3.007-1.716 5.21-2.783 7.212-4.145 16.088-10.944 33.114-8.37 48.504-0.34 10.416,5.434 16.504,17.098 18.625,28.92 4.921,27.429-4.042,51.625-20.866,72.78-8.338,10.484-18.855,19.229-28.319,28.827-1.797,1.822-3.21,4.017-4.919,5.933-12.811,14.365-28.748,21.795-48.105,21.979-17.863,0.17-35.457-1.775-53.023-5.008-21.408-3.939-42.857-8.368-64.488-10.121-12.913-1.046-26.35,1.897-39.3,4.361-18.829,3.583-37.266,9.468-56.18,12.29-17.68,2.638-35.907,4.112-52.704-5.35-26.982-15.199-41.715-38.74-45.734-68.9-1.841-13.817-2.205-27.902-2.264-41.87-0.079-18.751 11.488-31.333 29.829-34.701 7.118-1.307 13.808-0.932 20.587,1.196 2.06,0.647 4.241,0.91 6.688,1.416-9.323-24.223-8.582-48.628-1.192-72.143 7.332-23.332 19.779-44.231 41.352-58.635-6.105-26.778-11.539-54.106-6.412-82.268-13.812-3.512-21.878-35.261-19.456-47.22 3.515-17.359 24.422-36.497 41.066-37.057 19.063-0.641 36.28,5.717 40.528,21.365zm85.075,399.526c5.765,1.461 11.012,3.264 16.407,4.066 14.294,2.125 28.692,3.555 42.971,5.767 10.387,1.609 20.771,1.915 30.616-1.47 8.039-2.764 16.6-6.027 22.867-11.452 9.137-7.909 16.255-18.112 24.541-27.053 11.801-12.735 21.022-26.856 25.888-43.711 5.055-17.511 6.047-34.385-6.276-49.595-1.433-1.768-3.174-3.761-5.194-4.503-13.426-4.935-26.479-5.719-38.686,3.75-4.366,3.387-9.459,3.97-13.263,1.032-6.974,5.253-13.148,10.812-20.16,14.952-8.696,5.135-16.79,12.365-28.155,11.21-0.798-0.081-2.16,1.731-2.655,2.915-4.53,10.838-8.896,21.744-13.386,32.599-0.809,1.955-1.963,3.767-2.959,5.645-0.489-0.244-0.977-0.488-1.465-0.732-0.369-16.057 8.978-29.008 14.542-43.343-0.715-0.543-1.439-1.079-2.148-1.634-13.168-10.299-22.698-24.685-13.071-43.241 8.13-15.67 17.806-30.539 26.894-45.705 0.52-0.868 1.914-1.212 3.155-1.951 1.846,7.231 0.055,13.276-2.937,19.138-5.751,11.268-11.927,22.347-17.11,33.871-5.224,11.616-0.58,24.286 10.387,31.084 3.326,2.062 6.514,2.485 10.109,0.2 4.648-2.956 9.857-5.069 14.343-8.228 9.747-6.865 17.397-15.966 20.048-27.55 2.808-12.267 4.856-24.79 2.927-37.729-2.264-15.184-8.406-28.643-17.821-40.166-6.144-7.52-14.827-12.966-22.189-19.186-0.878,0.456-1.254,0.555-1.494,0.791-8.799,8.646-16.908,18.064-28.532,23.357-3.347,1.524-2.939,5.171-0.107,7.431 1.308,1.044 2.651,2.892 2.758,4.459 0.906,13.225 1.734,26.463 2.143,39.71 0.174,5.627-7.296,11.312-12.694,9.78-13.495-3.83-26.885-8.033-40.037-12.002-3.135,2.5-6.214,6.518-10.183,7.813-9.937,3.243-17.285-2.525-23.568-9.33-2.293-2.484-3.994-3.053-7.021-1.656-11.527,5.32-23.364,9.638-36.137,11.013-4.717,0.508-6.805-1.3-6-6.082 0.183-1.088 0.071-2.225 0.252-3.313 2.492-15.037 4.903-30.089 7.602-45.088 0.646-3.592-0.081-4.99-3.829-5.521-4.252-0.602-8.699-1.412-12.486-3.291-4.044-2.007-7.689-5.076-11.016-8.205-4.962-4.665-9.494-9.789-14.217-14.726-17.822,14.718-32.496,39.016-35.732,59.26 4.927-6.456 9.868-12.928 14.808-19.401 0.525,0.388 1.05,0.776 1.576,1.164-5.03,8.321-9.742,16.86-15.207,24.886-3.46,5.081-2.996,10.096-2.48,16.012 4.738-5.171 8.986-9.807 13.234-14.443 0.401,0.312 0.802,0.624 1.203,0.935-3.69,5.596-6.92,11.576-11.189,16.689-5.195,6.224-5.797,12.573-2.91,20.235 5.863-7.527 11.498-14.762 17.134-21.998 0.903,1.767 1.092,3.035 0.575,3.867-4.458,7.179-8.744,14.499-13.732,21.3-2.142,2.92-2.312,4.914-0.559,7.761 8.286,13.458 20.4,20.973 35.979,22.344 8.477,0.746 19.735-6.238 20.564-13.61 0.967-8.606 1.261-18.033-1.32-26.089-2.715-8.476-8.945-15.905-14.056-23.51-5.074-7.551-5.396-17.036-0.125-23.457 0.535,1.198 1.389,2.332 1.531,3.549 1.065,9.088 6.006,15.836 12.019,22.434 9.596,10.53 14.796,22.887 13.791,37.67-0.811,11.924-4.884,21.629-15.604,27.997 10.537,6.111 21.726,30.034 18.753,41.326-8.32-13.366-9.866-29.253-20.293-40.445-2.264,0.995-4.365,1.918-6.762,2.971 8.036,11.59 12.876,23.967 14.277,37.786-2.284-1.664-4.02-3.659-5.1-5.963-4.046-8.623-7.689-17.44-11.93-25.963-0.979-1.968-3.665-4.251-5.672-4.357-15.205-0.8-28.201-6.255-39.078-16.92-1.019-0.999-2.681-1.76-4.099-1.86-5.96-0.419-11.987-0.156-17.906-0.857-13.818-1.637-30.313,4.438-31.237,22.059-0.481,9.157-0.401,18.367-0.083,27.535 0.506,14.625 3.218,28.721 10.066,41.95 12.652,24.441 30.644,40.018 59.981,38.139 6.156-0.394 12.486,0.71 18.507-0.276 7.89-1.292 15.552-3.974 22.264-5.777 6.418-12.781 12.536-24.966 18.655-37.15 0.793,0.376 1.587,0.752 2.38,1.129-4.962,11.272-9.924,22.545-15.25,34.647 7.132-1.951 14.618-1.447 17.08-10.059 0.499-1.747 1.492-3.371 2.37-4.99 3.436-6.339 6.917-12.654 10.381-18.978 0.763,0.352 1.527,0.704 2.29,1.056-3.895,9.229-7.79,18.459-11.853,28.087 7.229-0.67 13.481-1.415 16.554-9.364 2.453-6.346 6.308-12.15 9.54-18.195 0.836,0.396 1.672,0.792 2.508,1.187-3.144,7.409-6.288,14.818-9.451,22.272 1.93-0.116 3.804-0.552 5.562-0.272 4.781,0.762 7.305-1.093 9.136-5.612 1.915-4.727 4.956-8.997 7.505-13.467 0.646,0.285 1.292,0.571 1.939,0.856-1.956,5.561-3.913,11.122-5.996,17.044 2.434,0 4.826-0.276 7.128,0.059 4.395,0.64 6.985-0.919 9.117-4.936 2.774-5.229 6.437-9.986 9.717-14.946 0.675,0.409 1.35,0.817 2.025,1.226-3.648,6.324-7.296,12.648-11.219,19.448 2.361,0.117 3.847,0.031 5.272,0.289 5.462,0.987 8.735-1.024 11.02-6.258 2.074-4.749 5.384-8.959 8.15-13.406 0.555,0.288 1.109,0.576 1.663,0.864-2.989,6.453-5.979,12.906-9.147,19.745 4.744,0.877 9.008,1.666 12.691,2.347 5.034-8.684 9.747-16.817 14.461-24.949 0.55,0.281 1.101,0.562 1.651,0.844-1.17,9.103-7.08,16.318-10.721,24.419zm-137.124-322.19c4.266-6.851 7.938-12.748 11.61-18.644 0.731,0.403 1.461,0.806 2.192,1.209-3.388,6.777-5.94,14.19-10.446,20.119-3.244,4.269-3.272,7.918-2.999,12.879 4.649-5.326 8.85-10.139 13.051-14.952-1.49,11.662-15.971,17.95-11.235,32.524 4.514-5.767 8.57-10.947 12.625-16.128 0.768,1.715 0.888,2.956 0.392,3.857-2.661,4.84-5.362,9.665-8.264,14.363-3.794,6.143-3.88,6.09-1.55,13.17 3.997-6.158 8.002-12.327 12.006-18.497 0.787,0.467 1.573,0.935 2.36,1.402-3.378,6.639-6.258,13.598-10.273,19.826-4.032,6.255-2.827,11.782 1.181,16.704 6.4,7.862 13.466,15.185 20.34,22.653 0.83,0.902 2.221,1.288 4.225,2.396-5.573-14.785-7.349-28.776-4.96-43.323 1.656-10.08 4.89-19.399 12.347-26.481 23.388-22.215 51.673-27.016 82.05-20.769 9.435,1.94 18.201,7.527 27.001,11.983 3.847,1.948 7.586,4.757 10.374,8.027 8.509,9.98 13.18,21.663 12.81,34.932-0.258,9.273-1.068,18.53-1.674,28.505 9.362-8.655 17.174-17.805 21.809-29.281 7.868-19.484 9.242-40.002 8.901-60.679-0.317-19.253-9.448-33.832-24.9-44.823-16.932-12.044-36.188-19.03-55.743-25.137-6.715-2.097-14.067-2.076-21.066-3.356-13.408-2.453-26.313-0.708-38.788,4.408-20.185,8.277-36.942,21.204-50.693,38.078-8.039,9.866-11.786,21.309-12.683,35.035zm167.401,63.652c0.189-10.779 0.3-20.948-6.785-29.466-12.314-14.806-28.54-22.038-47.273-23.794-8.273-0.775-16.816,0.754-24.97-0.497-5.453-0.837-9.707,0.205-14.042,2.594-9.805,5.405-19.804,10.512-26.48,20.153-7.991,11.539-8.494,24.667-7.394,37.693 1.385,16.411 8.317,30.109 22.327,40.067 11.013,7.829 23.428,9.8 36.191,11.166 5.302,0.567 10.772,1.497 15.955,0.768 7.37-1.037 14.641-3.148 21.782-5.358 8.393-2.597 16.618-6.487 21.072-14.255 6.949-12.119 10.78-25.385 9.617-39.071zm9.739-126.779c11.85-9.534 22.932-8.489 31.138,2.737 6.641,9.085 5.917,17.674-1.922,22.43 1.829,3.518 3.658,7.036 5.727,11.014 1.752-1.642 3.383-2.677 4.343-4.15 6.602-10.126 10.077-21.46 9.449-33.369-0.419-7.933-5.727-14.208-12.523-18.454-7.209-4.504-15.383-4.764-23.471-3.515-10.651,1.644-17.898,7.921-22.61,17.592 3.655,2.117 6.807,3.942 9.869,5.715zm-175.813,23.531c-6.578-9.762-4.149-21.846 6.396-31.601 6.056-5.603 21.12-6.124 26.041-0.469 1.701,1.955 2.659,2.325 4.731,1.171 1.572-0.875 3.32-1.434 5.714-2.437-5.062-4.95-8.808-10.346-15.874-12.682-12.375-4.092-22.907-1.529-32.842,6.364-7.714,6.129-13.476,13.218-12.907,23.596 0.614,11.181 4.812,21.284 10.358,30.952 2.751-4.888 5.436-9.659 8.383-14.894zm158.892,197.671c2.89-13.983-1.313-27.233-2.542-41.946-11.316,11.111-25.814,11.545-38.564,16.143 0.103,0.506 0.205,1.012 0.308,1.517 6.895,0 13.79,0 20.685,0 0.067,0.888 0.135,1.776 0.202,2.664-6.664,0.845-13.329,1.689-20.457,2.592-0.237,2.641-0.495,5.5-0.772,8.582 13.8,3.505 27.211,6.91 41.14,10.448zm-117.905-5.696c11.594-2.188 22.712-4.207 33.778-6.48 1.336-0.274 2.388-1.926 4.495-3.73-12.529-1.382-17.282-5.217-15.939-11.569 4.823,2.42 9.675,4.855 15.046,7.55 0.828-4.213 1.336-6.799 1.866-9.495-13.163-2.075-23.521-8.799-33.839-17.413-1.856,14.134-3.616,27.517-5.407,41.137zm67.227-20.405c-6.782-0.521-13.855-1.064-20.868-1.602-2.233,13.142 3.305,20.95 14.604,21.3 7.154,0.221 9.356-2.508 7.84-9.405-0.688-3.127-0.985-6.34-1.576-10.293z"/>
    <path d="m216.82,283.883c6.177-6.189 12.516-11.31 21.616-11.292 19.075,0.039 32.608,16.887 28.732,35.472-2.878,13.799-10.199,25.52-16.645,37.672-6.996,13.19-14.094,26.325-21.195,39.459-2.711,5.014-6.303,5.774-10.739,2.203-1.561-1.256-2.838-2.897-4.119-4.464-10.717-13.1-21.268-26.339-32.145-39.304-8.602-10.253-16.013-21.201-19.53-34.189-5.294-19.548 12.269-37.667 32.28-33.875 7.756,1.471 15.964,1.457 21.745,8.318zm6.408,101.636c8.612-15.822 16.739-30.042 24.158-44.623 5.216-10.252 10.189-20.747 13.899-31.603 2.476-7.245 2.844-15.348-2.811-22.119-11.297-13.526-26.62-13.389-37.527,0.421-1.522,1.928-3.095,4.788-5.271,1.54-4.846-7.236-12.28-7.698-19.748-9.3-10.705-2.297-18.548,2.077-24.875,9.526-5.918,6.967-6.014,15.564-2.322,23.556 3.458,7.487 7.333,15.039 12.416,21.461 9.613,12.143 20.334,23.402 30.367,35.222 3.897,4.589 7.175,9.702 11.714,15.919z"/>
    <path d="m330.075,385.973c0.513-12.175 5.682-22.727 11.853-32.815 10.104-16.517 21.695-31.71 38.376-42.368 6.833-4.366 14.273-5.924 22.054-5.652 5.599,0.195 9.796,5.926 9.857,12.786 0.107,12.126-4.674,23.014-9.521,33.726-6.232,13.775-17.813,23.458-27.742,34.339-4.971,5.447-10.303,10.797-16.312,14.986-4.266,2.974-9.898,5.329-14.99,5.469-7.962,0.219-12.883-6.753-13.564-16.581-0.088-1.291-0.011-2.593-0.011-3.89zm5.019,.031c0.383,5.697-0.014,12.431 6.29,15.21 6.11,2.693 11.288-1.36 16.011-5.079 0.29-0.228 0.544-0.503 0.811-0.761 4.928-4.743 9.887-9.455 14.778-14.236 15.03-14.691 29.11-30.029 33.393-51.641 0.819-4.133 1.553-8.383 1.484-12.566-0.093-5.669-2.977-8.645-8.427-7.535-6.824,1.39-14.152,3.112-19.812,6.872-15.24,10.125-24.807,25.493-34.209,40.768-5.445,8.845-9.801,18.124-10.319,28.968z"/>
    <path d="m38.774,346.995c-0.596-10.958 3.862-17.912 13.901-22.461 10.442-4.731 14.752-4.569 22.108,4.194 12.604,15.014 23.77,31.012 29.566,49.974 2.506,8.198 4.224,16.782 5.063,25.312 1.333,13.556-11.628,22.603-24.659,17.916-22.975-8.263-35.875-25.313-41.534-48.288-2.147-8.718-3.001-17.755-4.445-26.647zm5.146,4.408c0.903,4.67 2.108,13.655 4.425,22.344 5.598,20.991 17.839,36.425 38.809,44.011 7.653,2.769 18.218-3.495 17.517-10.742-0.745-7.702-1.623-15.492-3.547-22.96-5.266-20.437-16.761-37.502-30.781-52.864-2.397-2.626-7.23-5.154-10.38-4.593-12.192,2.173-16.038,7.758-16.043,24.804z"/>
    <path d="m126.352,426.659c-0.261-1.51-1.172-3.282-0.684-4.491 5.526-13.714 11.266-27.342 16.948-40.993 0.962,0.384 1.924,0.768 2.886,1.152-5.82,14.775-11.639,29.551-17.459,44.326-0.564,0.001-1.127,0.003-1.691,0.006z"/>
    <path d="m133.405,376.433c-4.645,11.188-9.29,22.377-13.935,33.565-3.082-6.629 4.616-25.87 12.103-34.37 0.611,0.268 1.221,0.537 1.832,0.805z"/>
    <path d="m288.84,326.677c-3.895,11.128-7.431,21.231-10.962,31.32-5.403-4.529 0.903-23.961 10.962-31.32z"/>
    <path d="m105.683,272.822c-4.277,8.176-8.554,16.352-12.831,24.528-2.026-5.655 5.509-20.395 11.395-25.272 0.478,0.248 0.957,0.496 1.436,0.744z"/>
    <path d="m267.377,420.495c3.594-6.474 7.189-12.948 11.458-20.638 0.828,7.375-5.163,19.336-9.795,21.618-0.555-0.327-1.109-0.653-1.663-0.98z"/>
    <path d="m158.512,74.506c7.462-0.025 15.092,8.377 15.125,16.655 0.035,8.739-6.934,15.617-15.829,15.62-8.291,0.003-13.973-5.841-13.899-14.296 0.09-10.192 6.392-17.951 14.603-17.979z"/>
    <path d="m288.653,83.158c8.32,0.363 16.077,7.698 15.735,14.878-0.318,6.676-8.949,14.262-16.109,14.159-8.076-0.117-14.353-6.757-13.927-14.731 0.457-8.523 6.575-14.644 14.301-14.306z"/>
    <path d="m182.823,158.811c2.688,7.774 4.28,14.206 7.139,20.015 1.999,4.061 5.029,8.518 8.809,10.645 17.51,9.848 30.217,9.843 45.346-1.556 5.582-4.206 8.541-9.929 8.023-17.235-0.268-3.768-0.214-8.06 5.085-8.101 5.24-0.041 5.764,3.994 6.031,8.181 0.856,13.435-6.266,22.611-16.645,29.221-20.238,12.891-47.081,6.814-61.352-7.551-6.609-6.652-9.278-20.796-5.472-29.347 0.52-1.17 1.496-2.137 3.036-4.272z"/>
    <path d="m217.979,116.638c10.164,1.222 17.214,5.74 21.596,13.86 2.654,4.918 1.104,10.048-3.813,12.726-9.346,5.09-18.903,6.004-28.617,0.555-5.559-3.118-8.044-8.119-8.324-13.959-0.263-5.479 4.364-7.73 8.654-9.542 3.669-1.549 7.536-2.629 10.504-3.64z"/>
  </g>
</svg>
