<?xml version='1.0' encoding='iso-8859-1'?>
<!DOCTYPE svg PUBLIC '-//W3C//DTD SVG 1.1//EN' 'http://www.w3.org/Graphics/SVG/1.1/DTD/svg11.dtd'>
<svg version="1.1" xmlns="http://www.w3.org/2000/svg" viewBox="0 0 418.291 418.291" xmlns:xlink="http://www.w3.org/1999/xlink" enable-background="new 0 0 418.291 418.291">
  <g>
    <path d="m36.155,260.415c-6.613-2.954-12.561-4.999-17.876-8.121-9.086-5.337-13.644-13.33-11.191-24.151 0.841-3.708 1.069-6.767-1.266-10.299-4.871-7.369-3.386-15.053 1.607-21.625 5.075-6.679 11.078-12.653 16.885-19.172-3.865-3.633-8.816-7.274-12.476-11.93-8.239-10.483-11.731-22.846-11.818-36.091-0.089-13.638 0.125-27.278 0.23-40.918 0.116-15.027 6.081-27.51 18.247-36.024 8.956-6.269 18.703-11.857 28.837-15.896 19.941-7.948 41.228-10.472 62.416-13.24 40.799-5.331 81.708-1.707 122.562-1.858 20.602-0.076 41.241,0.744 61.806,2.057 21.993,1.405 44.005,3.229 65.831,6.182 8.878,1.201 17.644,5.129 25.832,9.111 14.043,6.83 22.311,18.514 26.131,33.776 4.868,19.449 7.274,39.086 6.075,59.078-0.326,5.441-1.561,10.919-3.076,16.179-3.44,11.948-10.901,19.73-23.676,21.883-14.13,2.381-28.165,5.343-42.315,7.587-9.559,1.516-15.62-1.745-18.983-11.188-5.356-15.045-12.662-28.844-21.887-41.86-4.943-6.975-10.933-10.658-19.289-10.807-4.791-0.086-9.588,0.025-14.374-0.16-37.156-1.438-74.32-2.73-111.458-4.541-9.058-0.442-18.045-2.548-27.037-4.052-7.909-1.322-15.963,2.866-20.462,11.901-2.936,5.895-4.768,12.339-7.094,18.538-1.938,5.164-3.721,10.394-5.851,15.478-3.295,7.86-8.675,13.589-17.188,15.923-13.808,3.786-27.504,8.026-41.422,11.347-14.742,3.518-24.373,13.096-31.75,25.365-1.608,2.674-0.905,6.737-1.266,10.16 0.71,0.302 1.42,0.605 2.13,0.907 3.381-3.651 6.584-7.49 10.192-10.902 3.816-3.609 8.063-6.637 13.854-4.342 7.857,3.114 10.571,10.306 6.778,18-4.136,8.388-10.995,11.485-24.382,11.006-4.134,13.253 2.768,19.36 25.118,21.343 15.21-20.952 30.892-42.277 46.257-63.829 8.553-11.995 16.594-24.356 24.839-36.571 12.58-18.639 29.681-26.394 52.21-22.963 9.409,1.433 19.112,0.937 28.681,1.317 12.129,0.482 24.256,1.083 36.39,1.384 4.756,0.118 9.527-0.583 14.296-0.664 14.318-0.243 28.646-0.742 42.953-0.394 8.997,0.219 16.262,4.447 20.165,13.072 3.331,7.359 7.217,14.576 9.551,22.253 3.518,11.573 9.587,21.186 17.478,30.272 17.681,20.359 33.272,42.34 45.293,66.529 10.909,21.951 19.096,44.587 14.367,70.073-2.001,10.783-1.765,21.972-2.76,32.956-0.363,4.008-0.984,8.066-2.115,11.917-3.914,13.321-11.883,18.474-25.513,17.066-2.456-0.254-4.991-0.104-7.458,0.159-16.072,1.715-32.098,4.411-48.21,5.083-28.668,1.197-57.388,1.599-86.085,1.543-22.076-0.043-44.146-1.492-66.226-1.954-15.835-0.332-31.74,0.784-47.511-0.27-22.356-1.495-44.69-3.863-66.894-6.885-14.093-1.918-19.099-7.307-20.872-21.511-2.458-19.697-3.818-39.531-5.707-59.3-1.135-11.878 1.814-22.601 8.571-32.407 3.327-4.833 6.328-9.89 9.906-15.52zm135.37,52.447c-2.17,5.442-3.886,11.122-6.595,16.281-7.877,15.002-16.189,29.775-24.237,44.688-1.508,2.795-2.587,5.822-4.09,9.258 12.367,0 23.65,0 33.443,0 12.438-19.501 24.128-37.829 35.818-56.156 0.79,0.483 1.58,0.966 2.37,1.45-10.606,17.78-21.213,35.561-32.621,54.686 6.665,0 11.257,0 15.454,0 13.447-21.435 26.637-42.46 39.827-63.485-7.707,23.099-23.04,41.977-34.782,63.035 11.151,3.694 10.961,3.577 15.821-4.298 6.578-10.659 13.449-21.137 20.26-31.65 3.803-5.869 7.74-11.65 11.616-17.471 0.689,0.451 1.378,0.902 2.067,1.354-10.865,17.654-21.731,35.308-33.348,54.184 6.396,0 10.981,0 14.684,0 9.464-15.518 18.571-30.454 27.679-45.389 0.794,0.439 1.587,0.877 2.381,1.316-7.066,15.172-17.691,28.604-25.091,44.65 6.87,0 11.917,0 16.676,0 8.236-17.546 23.723-41.506 32.307-48.111-9.413,15.787-18.825,31.574-28.714,48.159 6.476,0 11.147,0 15.288,0 9.231-14.097 18.044-27.556 26.857-41.015 0.678,0.406 1.357,0.813 2.036,1.219-7.86,12.905-15.719,25.809-24.24,39.799 6.902,0 12.211,0 17.411,0 9.235-18.523 20.734-35.001 31.742-51.799 0.793,0.478 1.585,0.957 2.378,1.435-9.571,16.294-19.141,32.588-29.395,50.045 12.201-0.71 22.757-1.733 33.317-1.784 6.181-0.03 10.516-1.817 13.722-7.153 1.683-2.802 4.126-5.197 6.454-7.551 2.211-2.236 3.818-5.481 9.711-6.943-6.212,7.434-10.836,12.966-16.027,19.179 9.825,0 18.456,0.079 27.084-0.032 4.57-0.059 7.754-2.695 9.191-6.776 1.328-3.772 2.179-7.803 2.598-11.788 1.576-14.992 2.978-30.005 4.237-45.027 0.29-3.458-0.25-6.986-0.456-11.545-20.798,1.971-40.138,4.086-59.527,5.56-18.317,1.393-36.686,2.883-55.031,2.883-14.627-0.001-29.239-2.438-43.886-3.322-15.426-0.931-30.883-1.516-46.333-1.714-2.694-0.035-5.422,2.592-8.135,3.99 0.193-5.28-3.712-4.506-6.885-4.526-16.206-0.104-32.42,0.143-48.618-0.255-15.698-0.385-31.381-0.612-46.942-3.864-12.115-2.532-24.58-3.389-37.095-5.017 0,7.832 0,15.296 0,23.282 2.378-1.018 3.681-1.575 6.507-2.784-5.943,8.655-6.544,16.964-3.669,27.532 7.565-12.249 14.23-23.041 20.895-33.833 0.674,0.395 1.347,0.79 2.021,1.184-2.697,5.082-5.384,10.169-8.094,15.244-3.986,7.466-8.381,14.743-11.901,22.422-6.543,14.274-0.717,24.505 14.564,26.447 3.279,0.417 6.54,0.972 9.816,1.411 23.354,3.131 46.785,4.228 69.474,3.094 2.945-6.38 5.106-12.281 8.234-17.615 10.403-17.739 21.154-35.272 31.772-52.884zm-102.43-154.79l-.284-.267c10.53,1.084 19.165-2.852 23.424-11.77 4.437-9.29 7.999-18.995 12.039-28.479 3.126-7.339 8.311-12.89 14.919-17.338 5.929-3.991 12.106-5.781 19.217-4.21 1.666,0.368 3.528-0.154 4.806-0.235 3.611-5.152 6.819-9.73 10.028-14.308 0.516,0.32 1.033,0.641 1.549,0.961-2.239,4.651-4.478,9.301-7.159,14.871 5.362,0.354 8.963,0.591 12.292,0.811 4.213-6.853 8.07-13.129 11.928-19.404 0.493,0.288 0.986,0.576 1.479,0.864-2.762,5.759-5.524,11.518-8.591,17.912 3.937,0.854 6.67,1.447 9.335,2.026 3.355-5.009 6.369-9.508 9.383-14.007 0.378,0.275 0.755,0.55 1.133,0.825-1.587,3.987-3.173,7.973-5.219,13.112 7.144,0.34 13.204,0.629 18.816,0.896 5.078-8.014 9.662-15.247 14.245-22.48 0.605,0.353 1.21,0.705 1.814,1.057-3.363,6.719-6.725,13.438-10.443,20.867 4.534,0.862 8.365,1.59 12.207,2.321 5.661-9.725 10.911-18.745 16.162-27.764 0.756,0.396 1.513,0.792 2.269,1.188-3.924,8.386-7.848,16.771-12.143,25.949 5.806,0 10.098,0 13.871,0 5.026-7.937 9.679-15.284 14.331-22.631 0.613,0.384 1.225,0.769 1.838,1.153-3.602,7.051-7.204,14.102-11.31,22.141 6.027,0 10.675,0 15.028,0 5.232-7.175 8.39-15.272 16.216-19.917-3.31,6.379-6.62,12.757-10.348,19.942 4.254,0 7.433,0 10.484,0 2.357-3.858 4.368-7.372 6.6-10.74 2.181-3.292 4.587-6.434 6.894-9.642 0.498,0.414 0.995,0.829 1.493,1.244-3.292,6.057-6.583,12.113-10.281,18.916 7.615,0.485 14.118,0.9 20.615,1.314 4.009-5.166 8.09-10.425 12.171-15.684 0.578,0.409 1.155,0.818 1.733,1.227-2.921,5.296-5.842,10.592-9.021,16.355 3.258,1.684 5.731,2.962 8.326,4.304 7.068-7.861 13.767-15.312 20.466-22.763 0.582,0.495 1.165,0.99 1.747,1.485-6.319,8.373-12.638,16.746-19.279,25.545 2.427,3.17 4.534,5.923 7.044,9.201 7.045-8.351 13.483-15.981 19.921-23.612 0.618,0.488 1.236,0.976 1.853,1.464-6.273,8.881-12.546,17.762-19.05,26.971 1.642,2.093 3.131,3.991 4.947,6.306 7.074-7.807 13.659-15.074 20.244-22.342-0.48,3.981-2.32,6.967-4.429,9.749-3.562,4.697-7.277,9.279-10.963,13.881-2.893,3.612-2.567,6.452 1.873,8.893 4.472-5.013 8.703-9.754 12.934-14.496 0.596,0.446 1.192,0.892 1.788,1.339-3.37,4.577-6.289,9.593-10.215,13.63-6.112,6.285-1.185,11.537 0.663,17.156 1.929,5.865 6.667,4.993 11.006,4.179 11.209-2.102 22.34-4.618 33.553-6.695 10.361-1.919 16.163-8.158 18.195-18.214 0.872-4.319 1.909-8.663 2.166-13.037 1.109-18.886-0.84-37.442-5.696-55.795-2.94-11.111-9.073-19.375-19.13-24.384-6.527-3.251-13.437-6.664-20.513-7.702-18.529-2.72-37.201-4.946-55.893-5.959-29.058-1.575-58.173-2.391-87.274-2.782-37.156-0.499-74.439-3.064-111.388,2.77-17.389,2.746-34.653,6.635-51.707,11.039-11.484,2.965-21.564,9.241-30.463,17.362-9.295,8.482-11.589,19.322-11.27,31.08 0.053,1.961 1.992,3.87 3.645,6.864-3.43,5.886-3.587,13.672-1.176,23.716 7.21-12.641 13.359-23.421 19.508-34.201 0.303,3.993-0.889,7.302-2.482,10.406-4.879,9.505-9.731,19.032-14.945,28.355-3.816,6.822-3.292,12.875 1.722,19.913 6.872-12.756 13.206-24.515 19.541-36.273 0.643,0.323 1.285,0.646 1.928,0.969-6.59,13.722-13.179,27.444-19.535,40.68 6.189,12.944 16.32,13.368 26.479,11.438 5.354-10.213 10.285-19.62 15.217-29.027 0.612,0.314 1.225,0.627 1.837,0.941-4.057,8.512-8.115,17.025-12.46,26.141 7.384,0.752 12.927-1.244 17.745-5.571zm8.974,120.149c0.578,0.313 1.157,0.625 1.735,0.938-3.6,6.486-7.2,12.972-11.634,20.961 4.996,0.495 8.735,0.866 11.812,1.171 4.975-7.008 9.286-13.082 13.598-19.156 0.603,0.365 1.207,0.731 1.81,1.096-3.147,5.752-6.294,11.504-10.189,18.624 5.881,0 9.542,0.081 13.198-0.013 23.19-0.597 46.391-1.993 69.567-1.659 27.944,0.403 55.867,2.278 83.8,3.488 13.58,0.588 27.218,2.153 40.732,1.439 26.406-1.393 52.746-4.04 79.105-6.266 3.543-0.299 7.038-1.169 11.897-2.004-5.04-12.278-8.844-23.864-14.38-34.553-12.229-23.612-27.308-45.443-44.682-65.593-7.602-8.816-12.897-18.643-16.421-29.697-2.448-7.679-5.704-15.117-8.886-22.54-1.847-4.308-5.078-6.984-10.174-7.219-12.481-0.574-24.945-1.822-37.428-2.019-30.561-0.481-61.132-0.342-91.693-0.817-14.046-0.218-25.089,4.625-32.759,16.588-1.59,2.48-3.238,4.924-4.903,7.354-19.553,28.548-39.121,57.086-58.669,85.637-8.738,12.763-17.55,25.477-26.082,38.376-2.27,3.432-3.631,7.465-6.016,12.506 12.662,1.803 23.46,3.341 33.396,4.757 4.902-7.907 9.084-14.653 13.266-21.399zm-43.964-71.873c-5.262,2.721-9.084,6.763-11.163,12.975 9.032-0.033 10.866-0.912 13.41-5.512 1.698-3.072 1.429-5.456-2.247-7.463z"/>
    <path d="m29.445,159.166c5.836-12.171 11.671-24.343 17.507-36.514 0.841,0.387 1.681,0.773 2.522,1.16-5.571,12.326-11.142,24.652-16.714,36.978-1.104-0.543-2.209-1.083-3.315-1.624z"/>
    <path d="m69.095,158.072c0.21-1.744 0.221-3.545 0.7-5.211 0.339-1.178 1.312-2.173 3.421-2.459-1.471,2.463-2.943,4.926-4.41,7.396 0.005,0.007 0.289,0.274 0.289,0.274z"/>
    <path d="m213.445,183.266c15.643-10.081 32.425-14.492 50.66-12.682 14.33,1.423 21.483,8.008 25.957,21.725 6.783,20.795-0.03,38.478-12.48,54.457-11.41,14.644-26.21,25.626-41.913,35.497-8.479,5.33-16.904,6.85-26.162,3.177-22.951-9.105-45.734-18.66-65.95-33.097-6.201-4.429-11.737-10.049-16.742-15.846-14.212-16.464-6.53-41.616 9.11-50.845 25.304-14.932 51.233-20.398 77.52-2.386zm-30.454-4.402c-17.458,1.888-31.217,5.615-43.221,14.107-9.209,6.516-11.576,15.372-5.558,25.029 4.379,7.027 9.818,14.312 16.585,18.714 10.039,6.53 21.388,11.393 32.709,15.504 10.298,3.739 21.284,5.617 32.017,8.099 2.007,0.464 4.415,0.392 6.362-0.26 25.31-8.471 46.377-22.212 57.663-47.633 8.887-20.018-1.896-36.063-23.623-35.083-11.893,0.536-23.222,3.715-33.859,9.023-5.384,2.687-9.961,2.385-15.624-0.086-8.287-3.615-17.31-5.546-23.451-7.414z"/>
    <path d="m54.503,290.943c0.765-7.908 6.678-18.281 15.051-26.404-2.163,8.768-8.718,20.268-15.051,26.404z"/>
    <path d="m156.191,378.869c-0.502-10.415 13.755-37 31.307-56.699-10.281,18.62-20.562,37.24-31.307,56.699z"/>
    <path d="m312.223,377.747c8.118-13.475 16.236-26.951 25.379-42.128-0.969,8.505-15.978,34.938-23.726,43.52-0.551-0.464-1.102-0.928-1.653-1.392z"/>
    <path d="m329.62,375.688c5.605-11.652 13.79-21.623 23.376-30.702-7,10.637-14,21.274-21,31.911-0.792-0.403-1.584-0.806-2.376-1.209z"/>
    <path d="m145.703,324.385c-9.42,18.581-18.84,37.163-28.525,56.269-4.166-1.935-2.406-4.955-1.369-7.088 3.537-7.275 7.287-14.456 11.217-21.528 5.341-9.61 10.924-19.086 16.403-28.62 0.758,0.323 1.516,0.645 2.274,0.967z"/>
    <path d="m75.924,314.986c-9.372,17.852-18.744,35.704-28.116,53.555-0.827-0.432-1.655-0.863-2.482-1.295 6.425-19.408 18.336-36.004 28.092-53.704 0.836,0.481 1.671,0.962 2.506,1.444z"/>
    <path d="m106.877,324.204c-8.528,17.918-17.056,35.836-25.583,53.754-0.684-0.317-1.368-0.634-2.052-0.952 5.245-19.378 16.247-36.126 25.138-53.838 0.832,0.346 1.665,0.691 2.497,1.036z"/>
    <path d="m99.792,379.257c0.571-10.761 15.763-39.236 28.92-54.089-9.64,18.029-19.28,36.059-28.92,54.089z"/>
    <path d="m86.415,325.949c-7.661,16.283-15.321,32.566-23.454,49.852-0.886-9.173 8.791-31.008 23.454-49.852z"/>
  </g>
</svg>
