<?xml version="1.0" encoding="iso-8859-1"?>
<!-- Generator: Adobe Illustrator 16.0.0, SVG Export Plug-In . SVG Version: 6.00 Build 0)  -->
<!DOCTYPE svg PUBLIC "-//W3C//DTD SVG 1.1//EN" "http://www.w3.org/Graphics/SVG/1.1/DTD/svg11.dtd">
<svg version="1.1" id="Capa_1" xmlns="http://www.w3.org/2000/svg" xmlns:xlink="http://www.w3.org/1999/xlink" x="0px" y="0px"
	 width="188.157px" height="188.157px" viewBox="0 0 188.157 188.157" style="enable-background:new 0 0 188.157 188.157;"
	 xml:space="preserve">
<g>
	<g>
		<path d="M185.782,109.693c-0.046-0.27-0.163-0.505-0.255-0.762c-0.114-0.333-0.221-0.656-0.402-0.952
			c-0.046-0.07-0.111-0.125-0.162-0.192c-0.676-0.975-1.728-1.597-3.102-1.627c-0.089-0.01-0.144-0.059-0.236-0.066
			c-16.329-1.166-33.345-1.582-50.576-1.359c-0.048-18.401-0.318-36.825-0.965-55.162c13.467-0.895,26.958-0.854,39.653,2.333
			c3.585,0.9,6.476-3.63,3.676-6.315c-8.917-8.553-27.395-7.821-43.729-5.92c-0.499-11.954-1.104-23.874-1.896-35.702
			c-0.354-5.283-7.887-5.299-8.213,0c-0.758,12.308-1.078,24.715-1.18,37.162c-4.157,0.569-7.912,1.075-10.992,1.331
			c-17.578,1.464-35.146,1.827-52.754,2.553c-0.191-9.247-1.526-17.933-5.836-22.929c-1.316-1.525-2.895-1.483-4.146-0.693
			c-0.674-5.299-4.079-9.939-9.487-12.215c-6.562-2.762-15.672,1.853-17.983,8.549c-6.646,6.68-6.712,17.588,2.018,22.635
			c9.107,5.265,19.756-1.233,23.891-9.8c0.558,4.933,1.002,9.879,1.264,14.849c-11.786,0.385-27.471,0.924-36.102,6.645
			c-1.591,1.055-1.868,3.624,0,4.614l1.414,0.75c0.494,0.262,1.044,0.109,1.349-0.354c1.549-2.347,23.449-2.782,33.659-2.916
			c0.478,19.31-0.639,38.816-1.153,58.243c-13.071,2.216-25.903,4.854-38.203,8.098c-2.779,0.732-2.286,5.469,0.694,5.127
			c12.457-1.43,24.892-2.494,37.32-3.399c-0.27,21.219,0.622,42.286,5.588,62.838c1.317,5.449,9.342,3.103,8.308-2.291
			c-3.839-20.01-4.396-40.614-4.246-61.236c22.44-1.454,44.854-2.353,67.285-3.294c0.897,19.696,1.923,39.337,2.681,58.756
			c0.175,4.491,6.819,4.498,6.974,0c0.667-19.58,1.039-39.374,1.128-59.22c16.834-0.735,33.681-1.56,50.562-2.765
			c0.093-0.007,0.146-0.055,0.235-0.064c1.375-0.03,2.428-0.652,3.104-1.628c0.051-0.067,0.114-0.12,0.16-0.189
			c0.183-0.297,0.288-0.621,0.403-0.955c0.091-0.256,0.209-0.492,0.254-0.761c0.049-0.285,0.019-0.568,0.02-0.857
			C185.799,110.261,185.831,109.979,185.782,109.693z M36.562,25.534c-1.43,5.617-7.405,10.256-13.144,8.296
			c-4.25-1.451-4.293-5.253-3.121-8.729c0.413-0.049,0.821-0.149,1.164-0.41c3.426-2.61,5.074-9.204,10.49-7.998
			C35.972,17.588,37.49,21.887,36.562,25.534z M53.106,110.866c0.188-11.822,0.465-23.62,0.373-35.279
			c-0.043-5.397,0.737-13.376,1.061-21.691c14.232-0.573,28.49-0.224,42.707-1.367c6.869-0.552,13.948-1.319,21.094-2.001
			c0.042,18.098,0.646,36.278,1.397,54.433C97.455,105.658,74.979,107.593,53.106,110.866z"/>
		<path d="M107.699,91.619c-0.89-2.746-2.446-3.568-4.668-5.176c-2.288-1.656-4.343-3.731-6.392-5.72
			c1.643-1.759,3.285-3.517,4.954-5.25c1.855-1.926,4.236-3.686,5.054-6.308c0.937-3.006-2.188-6.281-5.249-5.249
			c-4.231,1.427-7.993,6.882-11.019,10.778c-3.334-3.203-6.84-6.335-10.811-8.348c-3.029-1.535-6.465,2.38-3.76,4.873
			c3.285,3.027,6.458,6.125,9.591,9.271c-3.02,3.418-6.073,7.123-7.471,11.125c-1.236,3.538,3.625,6.038,6.095,3.548
			c2.617-2.638,4.995-5.571,7.395-8.475c3.465,3.842,8.353,10.65,13.82,9.265C107.037,95.497,108.282,93.42,107.699,91.619z"/>
		<path d="M173.139,138.468c0.474-0.146,0.935-0.348,1.297-0.691c1.462-1.391,2.592-2.231,3.185-4.232
			c1.019-3.435-2.286-6.226-5.52-5.52c-3.697,0.807-5.171,4.067-7.254,6.971c-1.842,2.567-3.589,5.199-5.365,7.811
			c-4.905-3.524-10.001-6.925-15.521-9.229c-3.685-1.539-5.722,4.238-2.616,6.205c4.708,2.98,9.199,6.266,13.622,9.646
			c-4.483,6.748-9.789,14.587-10.894,22.596c-0.488,3.533,4.711,6.705,6.409,2.702c2.795-6.592,6.285-12.646,10.214-18.629
			c0.297-0.451,0.633-0.877,0.935-1.324c3.553,3.273,7.403,7.264,11.879,7.656c1.691,0.148,3.665-1.683,3.433-3.432
			c-0.672-5.042-6.022-8.283-10.414-11.168c0.746-1.028,1.444-2.09,2.196-3.113C169.57,143.56,171.715,140.463,173.139,138.468z"/>
		<path d="M109.347,143.093c-3.517-7.066-15.642-14.095-22.356-6.911c-8.279,2.289-11.957,12.419-9.88,20.332
			c2.789,10.625,14.137,14.123,23.576,10.218C110.037,162.862,113.85,152.142,109.347,143.093z M98.125,157.956
			c-4.721,2.835-10.687,1.618-12.659-3.745c-1.68-4.567-0.064-7.809,2.456-10.872c0.352,0.095,0.73,0.156,1.154,0.148
			c4.908-0.092,8.314-2.323,11.537,2.788C103.213,150.404,102.331,155.43,98.125,157.956z"/>
		<path d="M19.632,140.983c-3.004-0.518-5.003,1.772-5.324,4.098c-0.507-0.456-1.184-0.745-1.92-0.567
			c-8.019,1.942-10.875,12.357-9.838,19.518c1.168,8.07,7.062,14.438,15.547,14.167C39.656,177.509,39.252,144.363,19.632,140.983z
			 M17.065,169.843c-4.518,0.188-6.651-5.185-7.008-8.872c-0.523-5.404,2.002-9.022,4.686-13.348
			c0.488,0.816,1.306,1.468,2.59,1.703C28.007,151.279,29.573,169.323,17.065,169.843z"/>
	</g>
</g>
<g>
</g>
<g>
</g>
<g>
</g>
<g>
</g>
<g>
</g>
<g>
</g>
<g>
</g>
<g>
</g>
<g>
</g>
<g>
</g>
<g>
</g>
<g>
</g>
<g>
</g>
<g>
</g>
<g>
</g>
</svg>
