<?xml version="1.0" encoding="iso-8859-1"?>
<!-- Generator: Adobe Illustrator 16.0.0, SVG Export Plug-In . SVG Version: 6.00 Build 0)  -->
<!DOCTYPE svg PUBLIC "-//W3C//DTD SVG 1.1//EN" "http://www.w3.org/Graphics/SVG/1.1/DTD/svg11.dtd">
<svg version="1.1" id="Capa_1" xmlns="http://www.w3.org/2000/svg" xmlns:xlink="http://www.w3.org/1999/xlink" x="0px" y="0px"
	 width="190.938px" height="190.938px" viewBox="0 0 190.938 190.938" style="enable-background:new 0 0 190.938 190.938;"
	 xml:space="preserve">
<g>
	<g>
		<path d="M190.364,30.99c-5.82-8.298-12.52-15.193-21.48-20.069c-2.031-1.104-4.829-0.174-5.406,2.199
			c-3.869,15.909-8.508,31.824-10.398,48.13c-2.736-0.8-5.628-1.394-8.54-1.823c2.238-5.174,1.304-11.699,0.015-17.025
			c-0.515-2.123-2.373-3.061-4.349-3.311c-20.113-2.546-40.166-1.222-60.175,1.612c-1.892,0.268-3.241,2.475-3.227,4.238
			c0.029,3.554-0.249,7.073,0.45,10.501c-7.818,0.54-15.414,1.964-22.434,4.96c-13.574,5.793-12.587,14.58-9.355,27.336
			c-15.341,2.483-30.208,5.626-42.046,5.932c-3.036,0.078-4.025,3.052-3.065,5.14c-0.342,0.8-0.361,1.752,0.24,2.766
			c10.972,18.508,11.114,54.532,31.968,66.568c20.675,11.933,46.32,7.81,69.291,9.679c4.547,0.37,9.316,0.89,14.188,1.374
			c0.643,0.553,1.597,0.61,2.34,0.229c18.017,1.715,37.242,2.501,52.276-7.112c13.303-8.506,14.841-33.113,13.99-46.909
			c-0.229-3.702-3.767-4.795-6.189-3.48c0.279-1.431-0.104-2.961-1.581-3.628c-1.777-0.802-3.736-1.189-5.778-1.35
			c-0.903-14.087,0.723-28.62-2.414-42.357c-1.313-5.749-5.659-9.384-11.228-11.762c2.393-9.148,4.93-18.253,7.486-27.353
			c0.388,0.298,0.858,0.453,1.411,0.427c6.054,2.224,14.449,0.714,20.79,0.702C189.79,36.601,192.033,33.37,190.364,30.99z
			 M130.509,51.715c0.181-1.417,0.388-2.933,0.428-4.432c1.779,0.115,3.558,0.237,5.337,0.419c0.342,3.649-0.061,7.189,0.198,10.852
			c-2.527-0.188-4.928-0.308-7.112-0.411C129.851,56.026,130.23,53.888,130.509,51.715z M123.08,46.922
			c0.758,0.019,1.518,0.064,2.276,0.091c0.011,1.157,0.092,2.327,0.107,3.499c0.036,2.491-0.035,4.957-0.188,7.425
			c-0.385-0.022-0.808-0.042-1.164-0.066c-0.968-0.065-2.004-0.173-2.988-0.249C121.744,54.041,122.668,50.513,123.08,46.922z
			 M112.884,50.043c0.074-1.089,0.212-2.139,0.208-3.169c1.682-0.037,3.363,0.023,5.046,0.023c-0.451,1.373-0.655,2.852-0.847,4.354
			c-0.253,1.984-0.383,3.998-0.441,6.012c-1.49-0.131-2.925-0.23-4.438-0.37C112.568,54.61,112.726,52.328,112.884,50.043z
			 M103.138,52.456c0.211-1.45,0.794-3.701,0.115-5.191c1.687-0.104,3.374-0.159,5.062-0.23c0.01,0.979,0.134,1.975,0.205,3.008
			c0.149,2.181,0.3,4.362,0.451,6.543c-2.177-0.199-4.336-0.405-6.54-0.585C102.754,54.848,102.962,53.657,103.138,52.456z
			 M94.809,47.882c1.537-0.14,3.075-0.221,4.612-0.337c-0.241,0.792-0.312,1.696-0.275,2.349c0.109,1.923,0.203,3.93-0.045,5.87
			c-1.709-0.124-3.417-0.256-5.13-0.344C94.348,52.97,94.707,50.385,94.809,47.882z M84.993,48.878
			c1.692-0.205,3.386-0.336,5.079-0.516c-0.644,2.19-0.483,4.75-0.193,6.947c-1.811-0.055-3.625-0.156-5.427-0.145
			C84.328,53.1,84.632,50.97,84.993,48.878z M29.981,152.708c-0.838-1.106-1.522-2.303-2.256-3.468
			c3.595,2.133,7.745,3.645,12.187,4.729c-0.031,2.166,0.821,4.676,1.249,6.368c0.165,0.652,0.354,1.367,0.571,2.098
			C37.322,160.197,33.317,157.112,29.981,152.708z M47.14,164.723c-0.394-1.476-1.072-3.033-1.297-4.061
			c-0.408-1.857-0.764-3.714-0.961-5.606c-0.004-0.043-0.006-0.082-0.01-0.125c2.021,0.348,4.086,0.608,6.162,0.836
			c-0.325,3.372,0.764,6.973,1.421,10.378C50.647,165.752,48.865,165.3,47.14,164.723z M63.058,167.523
			c-2.375-0.174-4.734-0.398-7.041-0.76c0.162-3.475-0.072-7.188-0.796-10.599c2.792,0.219,5.57,0.348,8.322,0.449
			c0.338,1.731,0.835,3.413,0.874,5.223C64.458,163.758,63.852,165.732,63.058,167.523z M72.317,159.692
			c-0.282,2.724-0.462,5.452-0.796,8.165c-1.586-0.025-3.174-0.037-4.754-0.104c1.757-3.373,2.654-7.509,1.452-10.991
			c1.512,0.038,2.953,0.067,4.411,0.099C72.498,157.83,72.409,158.803,72.317,159.692z M82.583,158.623
			c-0.354,2.663-0.561,5.312-0.712,7.993c-0.026,0.471,0.214,0.927,0.534,1.31c-2.164-0.001-4.314-0.005-6.511-0.009
			c0.389-2.035,0.715-4.085,0.968-6.136c0.181-1.47,0.562-3.136,0.776-4.785c1.238,0.036,2.518,0.065,3.677,0.117
			c0.486,0.022,0.973,0.015,1.458,0.035C82.705,157.656,82.643,158.167,82.583,158.623z M94.07,168.247
			c-2.763-0.174-5.575-0.294-8.497-0.317c0.19-0.236,0.371-0.489,0.432-0.754c0.529-2.265,0.939-4.548,1.397-6.826
			c0.207-1.029,0.451-2.052,0.696-3.073c2.127,0.067,4.258,0.049,6.386,0.091c0.019,0.605,0.041,1.212,0.038,1.813
			C94.507,162.195,94.344,165.23,94.07,168.247z M103.925,161.852c-0.424,2.383-0.807,4.775-1.199,7.167
			c-1.257-0.136-2.528-0.281-3.763-0.4c0.358-2.262,0.644-4.533,0.81-6.838c0.098-1.355,0.257-2.842,0.343-4.333
			c1.537,0.018,3.075-0.009,4.612-0.002C104.367,158.887,104.183,160.397,103.925,161.852z M114.907,166.775
			c0.022,1.207,0.103,2.413,0.148,3.619c-2.607-0.285-5.204-0.581-7.762-0.875c0.43-1.714,0.822-3.438,1.23-5.154
			c0.515-2.172,1.307-4.576,1.542-6.92c1.681-0.004,3.363-0.07,5.044-0.083C114.48,160.403,114.854,163.707,114.907,166.775z
			 M124.932,162.571c-0.413,2.933-1.303,5.781-2.419,8.522c-0.926-0.079-1.852-0.126-2.775-0.216
			c0.055-1.367,0.145-2.733,0.168-4.103c0.055-3.093,0.432-6.426-0.22-9.487c2.004-0.023,4.007-0.09,6.01-0.123
			C125.161,158.848,125.196,160.697,124.932,162.571z M133.585,163.152c-0.371,2.833-0.529,5.681-0.571,8.534
			c-1.738-0.036-3.479-0.083-5.229-0.185c0.894-2.068,1.685-4.176,2.204-6.386c0.596-2.538,1.273-5.534,0.509-8.05
			c1.381-0.027,2.758-0.087,4.14-0.117C134.076,158.957,133.858,161.069,133.585,163.152z M142.522,171.418
			c-1.824,0.133-3.659,0.229-5.514,0.257c0.262-2.649,0.597-5.288,1.073-7.914c0.421-2.317,1.115-4.606,1.322-6.947
			c1.186-0.028,2.368-0.072,3.552-0.101c-0.003,1.603,0.121,3.223,0.128,4.798C143.1,164.82,142.854,168.126,142.522,171.418z
			 M152.029,159.411c-0.384,3.763-1.363,7.421-2.4,11.049c-1.102,0.191-2.18,0.448-3.3,0.588c0.598-2.638,1.03-5.281,1.319-7.989
			c0.221-2.065,0.505-4.3,0.502-6.491c1.356-0.034,2.709-0.081,4.065-0.115C152.168,157.427,152.132,158.411,152.029,159.411z
			 M157.873,168.217c-1.229,0.512-2.515,0.985-3.929,1.372c1.035-2.636,1.928-5.313,2.563-8.11c0.377-1.659,0.768-3.426,0.887-5.174
			c1.026-0.027,2.052-0.062,3.079-0.087c-0.182,1.645-0.283,3.298-0.543,4.942C159.549,163.583,158.772,165.932,157.873,168.217z
			 M164.034,164.619c0.957-2.8,1.553-5.704,1.416-8.541c1.419-0.041,2.84-0.068,4.257-0.12c0.496-0.018,0.909-0.15,1.304-0.304
			C169.396,159.098,167.142,162.142,164.034,164.619z M176.421,124.697c-0.058,0.243-0.17,0.44-0.193,0.709
			c-0.728,8.299-1.006,17.31-3.313,25.135c-0.519-1.129-1.557-2.014-3.207-2.046c-33.223-0.634-66.36,1.562-99.614,0.372
			c-5.49-0.196-44.441-7.314-45.362-5.096c-0.011,0.025-0.022,0.053-0.033,0.079c-6.687-13.599-9.06-29.718-16.934-42.953
			c40.616,0.117,80.751-18.348,113.292,14.834C132.463,127.363,161.843,132.976,176.421,124.697z M161.522,88.526
			c0.241,4.929-0.436,9.886-0.258,14.825c0.159,4.428,0.095,9.451,1.246,13.908c-2.938,0.316-5.827,0.712-8.445,0.793
			c-20.565,0.637-29.59-14.553-44.569-24.856c-5.951-4.093-12.903-6.384-20.411-7.531c1.044-0.671,1.808-1.765,1.782-3.401
			c-0.002-0.116-0.004-0.231-0.006-0.347c0-0.01-0.005-0.016-0.006-0.026c0.004-0.549-0.034-1.099-0.048-1.648
			c0.225-1.732,0.137-3.454-0.278-5.549c-0.936-4.714-7.927-3.384-8.081,1.094c-0.07,2.031-0.193,4.071-0.18,6.104
			c0,0.01-0.005,0.016-0.006,0.026c-0.002,0.116-0.004,0.232-0.006,0.347c-0.018,1.164,0.4,2.026,0.986,2.702
			c-9.83-0.724-20.418,0.227-30.959,1.736c-3.136-23.666,19.093-21.933,37.3-21.938c13.81-0.004,27.637,1.657,41.402,2.579
			C144.438,68.244,160.496,67.54,161.522,88.526z M166.511,29.792c0.922-3.303,1.841-6.606,2.737-9.915
			c3.73,2.549,7.01,5.501,9.95,8.874C174.767,28.502,170.221,28.477,166.511,29.792z"/>
		<path d="M71.477,78.453c-0.412-1.979-2.139-5.986-4.482-6.309c-2.835-0.391-6.265,1.767-5.105,5.105
			c0.018,0.051,0.045,0.091,0.064,0.142c0.76,2.31,1.358,4.236,3.544,5.66C68.696,85.133,72.158,81.725,71.477,78.453z"/>
		<path d="M118.895,83.821c0.02-0.056,0.025-0.11,0.046-0.167c1.159-3.127-1.89-5.543-4.706-5.424c-0.176-0.1-0.36-0.154-0.548-0.23
			c-0.188-0.082-0.324-0.213-0.535-0.271c-0.125-0.035-0.268-0.003-0.398-0.023c-0.243-0.044-0.469-0.038-0.711-0.042
			c-0.241,0.004-0.468-0.002-0.711,0.042c-0.13,0.021-0.272-0.011-0.397,0.023c-0.211,0.058-0.349,0.189-0.535,0.271
			c-0.253,0.102-0.479,0.213-0.707,0.357c-0.159,0.111-0.307,0.225-0.443,0.355c-0.604,0.507-1.101,1.122-1.228,1.93
			c-0.155,0.985-0.316,1.983-0.045,2.97c0.054,0.198,0.112,0.294,0.17,0.441l0.271,2.461c0.144,1.297,0.747,2.196,1.527,2.771
			c1.907,2.22,6.155,1.899,7.452-1.039c0.727-0.535,1.338-1.257,1.721-2.232C119.418,85.251,119.262,84.486,118.895,83.821z"/>
		<path d="M147.095,86.331c-0.065-0.07-0.134-0.135-0.203-0.199c-0.138-0.441-0.335-0.862-0.611-1.256
			c0.95-1.852,0.632-3.8-0.498-5.091c0.121-4.406-7.086-6.032-8.366-1.112c-0.667,2.562-1.009,5.396,0.823,7.352
			c0.369,0.767,0.831,1.494,1.495,2.129c1.187,1.134,3.272,2.045,4.988,1.68C146.694,90.934,148.629,87.981,147.095,86.331z"/>
		<path d="M71.513,103.374c-3.765-1.533-9.704-1.247-13.677,1.129c-7.753,0.686-13.393,6.049-13.566,14.563
			c-0.165,8.119,5.263,16.246,13.032,18.729c11.047,3.532,22.476-8.458,23.305-18.694C81.145,112.465,77.822,105.945,71.513,103.374
			z M70.124,123.433c-2.529,4.544-7.982,7.954-12.445,5.424c-3.643-2.065-5.706-6.836-5.77-10.872
			c-0.037-2.37,0.906-4.201,2.336-5.63c0.617,0.913,1.705,1.503,2.815,1.623c4.335,0.472,7.243-4.424,11.791-2.063
			C73.238,114.194,72.047,119.978,70.124,123.433z"/>
	</g>
</g>
<g>
</g>
<g>
</g>
<g>
</g>
<g>
</g>
<g>
</g>
<g>
</g>
<g>
</g>
<g>
</g>
<g>
</g>
<g>
</g>
<g>
</g>
<g>
</g>
<g>
</g>
<g>
</g>
<g>
</g>
</svg>
