<?xml version="1.0" encoding="iso-8859-1"?>
<!-- Generator: Adobe Illustrator 16.0.0, SVG Export Plug-In . SVG Version: 6.00 Build 0)  -->
<!DOCTYPE svg PUBLIC "-//W3C//DTD SVG 1.1//EN" "http://www.w3.org/Graphics/SVG/1.1/DTD/svg11.dtd">
<svg version="1.1" id="Capa_1" xmlns="http://www.w3.org/2000/svg" xmlns:xlink="http://www.w3.org/1999/xlink" x="0px" y="0px"
	 width="192.268px" height="192.267px" viewBox="0 0 192.268 192.267" style="enable-background:new 0 0 192.268 192.267;"
	 xml:space="preserve">
<g>
	<g>
		<path d="M182.937,124.081c-2.174-0.893-4.558-1.481-6.987-1.906c-1.361-14.026-2.156-36.815-14.077-46.548
			c-4.132-3.374-8.707-5.292-13.539-6.268c0.492-7.915-0.25-25.824-12.132-24.216c-3.891,0.527-6.802,4.059-8.291,7.443
			c-2.407,5.467-2.554,11.387-1.844,17.214c-7.108,1.163-14.242,2.853-20.973,3.932c-1.714-10.799-1.369-21.736-2.365-32.611
			c-0.167-1.821-1.343-3.122-3.221-3.22c-13.683-0.713-29.083,7.274-41.128,12.933c-1.014,0.476-8.429,4.218-11.788,7.743
			c-4.16-0.144-8.112,0.664-11.692,3.04c-16.025,10.635-22.893,30.261-23.566,48.868c-0.027,0.762,0.208,1.327,0.534,1.796
			c-0.209,0.033-0.422,0.042-0.628,0.086c-6.187,1.337-12.765,8.965-10.925,15.536c1.861,6.646,11.348,8.75,17.057,9.939
			c6.934,1.445,14.831,2.622,21.934,2.062c1.595-0.126,2.571-1.044,2.949-2.151c4.522,10.981,15.935,18.074,27.833,15.213
			c6.225-1.497,11.368-5.238,14.721-10.063c6.872,1.894,14.146,2.452,21.23,2.73c4.441,0.176,10.598,0.182,15.048-1.807
			c4.959,6.537,12.437,10.83,21.359,10.574c7.906-0.228,14.367-3.932,18.39-9.416c0.243,0.214,0.529,0.381,0.878,0.451
			c1.81,0.361,4.132,1.427,6.112,1.459c0.32,0.051,0.635,0.038,0.944-0.021c0.023-0.005,0.052,0.004,0.075-0.002
			c-0.011-0.003-0.022-0.006-0.033-0.009c0.42-0.089,0.821-0.262,1.147-0.628c0.105-0.118,0.165-0.226,0.252-0.339
			c3.995,0.31,8.148,0.134,12.031-0.323c5.468-0.646,9.337-5.575,9.974-10.94C192.864,129.19,187.138,125.81,182.937,124.081z
			 M68.918,52.876c8.163-3.406,18.316-8.043,27.598-8.501c0.636,10.095,0.386,20.17,1.944,30.181
			c-0.218,0.018-0.444,0.051-0.663,0.067c-11.961,0.859-27.814-10.3-42.364-14.505C60.944,57.34,67.442,53.493,68.918,52.876z
			 M33.901,76.026c5.409,8.783-1.34,20.702-12.29,17.781c-0.141-0.038-0.255-0.014-0.387-0.029
			C24.062,86.168,28.338,80.09,33.901,76.026z M7.576,126.732c-1.564-1.445,0.131-3.307,1.189-4.514
			c1.303-1.486,2.543-2.267,3.891-2.679c0.056,1.12,0.119,2.234,0.139,3.312c0.044,2.378,0.114,4.756,0.178,7.134
			C10.972,129.156,9.105,128.145,7.576,126.732z M15.877,131.011c0.073-2.72,0.15-5.438,0.204-8.158
			c0.024-1.207,0.1-2.46,0.157-3.718c0.638,0.009,1.301,0.03,2.029,0.066c1.267,0.062,2.522,0.171,3.774,0.292
			c0.232,1.986,0.839,4.04,1.117,5.917c0.351,2.368,0.744,4.72,1.254,7.053C21.482,132.175,18.569,131.782,15.877,131.011z
			 M27.471,132.755c-0.509-2.974-0.737-5.977-0.975-8.983c-0.096-1.212-0.131-2.54-0.301-3.83c2.167,0.248,4.327,0.472,6.496,0.602
			c-0.004,0.012-0.015,0.015-0.019,0.026c-0.757,2.428-0.248,5.118-0.128,7.634c0.077,1.608,0.154,3.217,0.231,4.825
			C31.045,132.951,29.278,132.875,27.471,132.755z M40.957,134.005c-0.456-0.296-0.979-0.529-1.651-0.59
			c-1.217-0.107-2.593-0.17-3.947-0.239c0.079-1.657,0.158-3.315,0.237-4.973c0.119-2.499,0.617-5.167-0.118-7.582
			c1.877,0.014,3.761-0.051,5.673-0.337c0.084-0.013,0.11-0.092,0.187-0.115C40.063,124.746,39.939,129.693,40.957,134.005z
			 M66.993,146.79c-9.363,2.252-17.162-6.412-19.638-14.455c-1.328-4.315-0.945-8.984,1.05-13.014
			c2.136-4.315,6.281-6.035,9.824-8.761c0.757,0.595,1.814,0.777,2.983,0.087c6.158-3.64,16.489,7.44,19.239,11.694
			C87.387,133.073,77.729,144.208,66.993,146.79z M58.586,105.583c-0.294-0.128-0.608-0.218-0.958-0.201
			c-7.638,0.36-12.73,5.499-15.332,11.971c-0.237-0.462-0.585-0.85-1.145-0.961c-7.537-1.513-15.973-4.5-24.032-4.556
			c0.22-0.386,0.378-0.829,0.426-1.35c0.413-4.447,1.211-8.582,2.302-12.429c0.163,0.108,0.304,0.233,0.507,0.312
			c15.905,6.101,26.456-12.783,19.144-25.489c8.675-3.787,19.596-3.619,32.398,1.832c10.165,4.329,18.381,6.681,28.808,6.511
			c-1.577,13.55-1.148,27.428-1.062,41.042c0.002,0.231,0.076,0.411,0.127,0.609c-4.184-0.162-8.297-0.482-12.44-1.018
			c-0.225-0.538-0.432-1.078-0.706-1.61C82.852,112.915,67.667,99.182,58.586,105.583z M87.056,138.828
			c1.582-3.629,2.284-7.607,1.74-11.622c1.362,0.295,2.747,0.495,4.129,0.706c-0.137,0.175-0.317,0.307-0.377,0.553
			c-0.392,1.596-0.073,3.463-0.011,5.081c0.065,1.715-0.039,3.541,0.306,5.228c0.04,0.197,0.188,0.302,0.294,0.444
			C91.112,139.102,89.091,139.008,87.056,138.828z M100.922,139.499c-1.875-0.011-3.741-0.06-5.604-0.141
			c0.162-0.165,0.334-0.325,0.387-0.585c0.345-1.688,0.241-3.513,0.306-5.228c0.061-1.618,0.38-3.485-0.012-5.081
			c-0.013-0.051-0.062-0.066-0.078-0.114c1.462,0.181,2.928,0.356,4.375,0.514c0.194,0.021,0.423,0.048,0.623,0.07
			c-0.196,0.19-0.347,0.432-0.407,0.736c-0.332,1.69,0.196,2.933,0.528,4.6C101.381,135.98,101.25,137.772,100.922,139.499z
			 M164.817,94.691c-4.363,0.302-8.745-0.781-10.989-4.854c-1.831-3.323,0.56-6.571,2.507-9.262
			c1.093,0.942,2.148,1.981,3.117,3.237C161.843,86.912,163.521,90.667,164.817,94.691z M132.453,56.511
			c0.787-2.148,2.333-4.967,4.615-5.596c1.543-0.425,3.035,1.834,3.836,3.519c0.056,0.118,0.066,0.257,0.119,0.377
			c-0.949,0.136-1.888,0.295-2.743,0.394c-1.998,0.231-3.934,0.672-5.83,1.315C132.451,56.518,132.452,56.515,132.453,56.511z
			 M131.568,59.457c0.286,0.151,0.635,0.218,1.054,0.108c2.136-0.556,4.261-0.767,6.464-0.808c1.01-0.019,2.062,0.126,3.104,0.215
			c0.175,1.112,0.315,2.239,0.359,3.384c-0.106-0.132-0.189-0.273-0.342-0.388c-1.688-1.29-4.511-0.462-6.504-0.318
			c-1.582,0.115-3.152,0.349-4.706,0.663C131.149,61.354,131.338,60.4,131.568,59.457z M130.572,65.896
			c1.69-0.321,3.392-0.523,5.13-0.589c2.027-0.077,4.814,0.756,6.504-0.537c0.167-0.128,0.264-0.281,0.377-0.428
			c-0.016,1.451-0.074,2.891-0.172,4.269c-3.906-0.215-7.926,0.036-11.988,0.55C130.445,68.073,130.492,66.982,130.572,65.896z
			 M106.038,139.417c-0.485,0.021-0.961,0.009-1.443,0.023c0.799-3.492,1.049-7.79-1.065-10.211c1.635,0.177,3.344,0.297,5.025,0.3
			c-1.525,2.464,0.731,6.73,2.284,9.361C109.217,139.131,107.605,139.351,106.038,139.417z M113.731,138.463
			c-0.545-1.516-0.993-3.037-1.286-4.629c-0.273-1.485-0.146-3.274-1.111-4.479c1.26-0.157,2.483-0.397,3.573-0.872
			c0.043,0.405,0.069,0.816,0.135,1.211c0.486,2.913,1.427,5.684,2.631,8.301C116.37,138.087,115.051,138.268,113.731,138.463z
			 M140.834,147.994c-10.16,0.099-17.099-9.71-19.112-18.61c-0.978-4.325-0.28-8.958,1.735-12.862
			c1.815-3.517,4.78-5.052,7.904-6.52c11.858-1.173,22.288,3.284,26.853,14.999C163.039,137.38,153.239,147.873,140.834,147.994z
			 M137.178,104.233c-0.396-0.849-1.21-1.53-2.333-1.624c-11.662-0.978-19.082,10.645-19.976,21.296
			c-3.134-1.354-6.885-1.064-10.401-0.953c0.062-0.219,0.142-0.426,0.144-0.688c0.091-13.838,0.812-27.554,1.458-41.361
			c14.63-1.58,34.161-10.258,47.37-2.413c-4.568,2.182-6.481,7.778-4.751,12.767c2.297,6.622,9.829,9.293,16.259,8.849
			c0.498-0.034,0.904-0.196,1.26-0.412c1.711,7.325,2.444,15.148,3.34,21.831c-1.564-0.019-3.108,0.051-4.6,0.215
			c-0.528,0.058-0.977,0.228-1.365,0.463C159.504,111.578,148.416,103.509,137.178,104.233z M166.952,140.835
			c-0.293,0.055-0.548,0.166-0.768,0.318c-0.626-0.119-1.247-0.203-1.821-0.251c-0.133-0.137-0.295-0.212-0.41-0.386
			c-0.113-0.135-0.266-0.208-0.412-0.294c1.542-3.718,2.146-7.898,1.591-12.213c1.382-0.145,2.766-0.168,4.146-0.138
			c0.069,0.682,0.143,1.321,0.164,1.847c0.14,3.565,0.341,7.126,0.538,10.689C168.964,140.515,167.954,140.65,166.952,140.835z
			 M173.013,140.165c0.193-3.48,0.39-6.961,0.526-10.445c0.017-0.427,0.077-0.954,0.133-1.491c0.869,0.123,1.729,0.307,2.591,0.478
			c-0.578,1.413-0.283,3.095-0.237,4.602c0.06,1.989,0.12,3.979,0.18,5.97c0.007,0.25,0.071,0.46,0.148,0.658
			C175.239,140.006,174.129,140.092,173.013,140.165z M182.88,139.332c-0.045,0.033-1.927,0.229-3.106,0.35
			c0.031-0.134,0.086-0.249,0.091-0.402c0.06-1.99,0.12-3.98,0.18-5.97c0.035-1.188,0.229-2.486,0.04-3.679
			c2.734,0.86,5.924,2.359,5.904,5.001C185.976,136.172,184.023,138.507,182.88,139.332z"/>
		<path d="M75.115,127.957c-1.886-5.778-9.587-10.392-15.517-9.348c-1.498,0.264-1.994,1.787-1.627,3.041
			c-4.258,2.134-6.491,6.403-4.941,11.418c1.568,5.072,6.705,8.791,12.039,8.152C71.315,140.475,77.234,134.445,75.115,127.957z
			 M64.472,136.046c-2.888,0.361-5.458-1.766-6.444-4.357c-1.199-3.151,0.138-6.193,2.808-8.07c3.238,0.813,6.345,1.76,8.477,4.638
			C71.926,131.78,68.146,135.588,64.472,136.046z"/>
		<path d="M141.221,119.002c-0.737-0.321-1.437-0.23-2.023,0.061c-5.137,0.784-9.725,4.828-10.439,10.132
			c-0.883,6.554,4.986,10.416,10.845,11.07c5.446,0.607,9.958-2.076,10.282-7.82C150.189,127.064,146.046,121.111,141.221,119.002z
			 M141.134,136.118c-3.443-0.032-8.558-2.043-7.912-6.267c0.51-3.334,3.382-5.458,6.387-6.545c2.83,1.562,4.851,3.764,5.779,6.984
			C146.394,133.774,144.754,136.153,141.134,136.118z"/>
		<path d="M119.322,85.205c-0.71,0.098-1.385,0.44-2.051,0.864c-0.763,0.278-1.558,0.537-2.235,0.934
			c-1.563,0.916-2.09,2.943-1.204,4.499c1.317,2.313,5.696,1.85,7.574,0.509c0.75-0.536,1.138-1.472,1.205-2.391
			C124.284,87.563,121.637,84.885,119.322,85.205z"/>
		<path d="M25.143,57.55c0.168-0.337,0.264-0.731,0.189-1.202c-0.114-0.723-0.152-1.66-0.574-2.296
			c-0.716-1.077-2.129-1.301-3.094-0.399c-1.723,1.61,0.13,5.232,0.439,7.511c0.249,1.834,2.935,1.222,3.051-0.413
			c0.072-1.009,0.012-2.031-0.009-3.042C25.143,57.657,25.144,57.604,25.143,57.55z"/>
		<path d="M20.467,69.12c-1.816-2.034-4.598-4.359-7.337-4.652c-1.408-0.151-1.887,1.714-1.074,2.592
			c1.817,1.963,4.866,2.235,7.051,3.821C20.189,71.667,21.272,70.021,20.467,69.12z"/>
		<path d="M10.884,77.727c-2.412-0.57-5.552-1.097-8.008-0.646c-2.227,0.409-3.696,3.792-1.191,4.972
			c0.619,0.292,1.191,0.223,1.686,0.013c0.172-0.026,0.414-0.085,0.819-0.221c0.806-0.27,1.425-0.501,2.279-0.645
			c1.476-0.249,2.959-0.431,4.416-0.776C12.221,80.105,12.222,78.042,10.884,77.727z"/>
	</g>
</g>
<g>
</g>
<g>
</g>
<g>
</g>
<g>
</g>
<g>
</g>
<g>
</g>
<g>
</g>
<g>
</g>
<g>
</g>
<g>
</g>
<g>
</g>
<g>
</g>
<g>
</g>
<g>
</g>
<g>
</g>
</svg>
