<?xml version="1.0" encoding="iso-8859-1"?>
<!-- Generator: Adobe Illustrator 16.0.0, SVG Export Plug-In . SVG Version: 6.00 Build 0)  -->
<!DOCTYPE svg PUBLIC "-//W3C//DTD SVG 1.1//EN" "http://www.w3.org/Graphics/SVG/1.1/DTD/svg11.dtd">
<svg version="1.1" id="Capa_1" xmlns="http://www.w3.org/2000/svg" xmlns:xlink="http://www.w3.org/1999/xlink" x="0px" y="0px"
	 width="194.101px" height="194.101px" viewBox="0 0 194.101 194.101" style="enable-background:new 0 0 194.101 194.101;"
	 xml:space="preserve">
<g>
	<path d="M193.613,118.847c-5.243-7.895-10.421-15.724-13.793-24.635c-0.498-1.316-1.527-2.306-3.012-2.315
		c-0.057-0.353-0.186-0.719-0.419-1.093c-1.559-2.501-3.481-4.969-5.676-7.391c4.367-4.797,2.653-14.41,1.98-20.183
		c-1.056-9.051-3.427-19.279-10.249-25.802c-1.424-1.36-3.805-1.479-5.21,0c-6.834,7.187-13.633,14.366-19.428,22.433
		c-0.085,0.118-0.098,0.238-0.158,0.358C94.254,39.466,33.498,36.101,28.782,83.83c-0.586,0.654-0.768,1.736-0.229,2.47
		c-0.096,1.72-0.133,3.494-0.088,5.341c-0.255,0.001-0.489-0.053-0.764,0.004C12.41,94.782-6.387,106.919,2.125,124.735
		c4.231,8.854,16.377,13.875,25.219,16.065c12.851,3.183,26.802,1.478,39.946,2.351c1.121,0.388,2.154-0.154,2.873-1.028
		c14.06,12.61,33.234,19.868,51.74,12.917c9.66-3.628,19.175-13.154,24.977-21.404c2.346-3.336,0.337-8.438-2.606-13.267
		c2.091-0.39,4.187-0.753,6.249-1.238c0.735-0.174,1.242-0.593,1.595-1.105c12.615,4.389,25.191,6.545,38.76,5.588
		C193.113,123.455,195.036,120.988,193.613,118.847z M165.333,78.117c-2.009-1.798-4.185-3.549-6.49-5.253
		c0.729-4.196,1.223-8.39,1.597-12.647c0.328-3.738,1.102-7.724,1.172-11.585C166.129,57.422,164.748,68.312,165.333,78.117z
		 M151.826,60.59c0.267-3.278,1.206-6.336,1.917-9.481c1.166-1.144,2.338-2.28,3.507-3.42c-0.498,2.581-0.555,5.25-0.728,7.972
		c-0.317,4.991-0.609,9.983-0.95,14.974c-1.375-0.943-2.7-1.908-4.146-2.817C151.533,65.405,151.629,62.993,151.826,60.59z
		 M148.817,56.021c-0.466,3.279-0.464,6.7-0.354,9.94c-1.961-1.159-3.971-2.289-6.042-3.373
		C144.516,60.36,146.667,58.191,148.817,56.021z M43.643,65.824c0.18,0.028,0.32,0.108,0.517,0.11
		c6.268,0.062,21.465,2.254,14.079,11.674c-5.742,7.323-15.747,8.92-24.363,6.793C36.199,76.675,39.517,70.546,43.643,65.824z
		 M8.942,110.132c1.017-1.865,2.486-3.369,4.123-4.711c-0.178,1.363-0.285,2.732-0.434,3.905c-0.583,4.626-1.041,9.274-0.886,13.941
		c0.059,1.782,2.655,1.766,2.753,0c0.252-4.528,0.702-9.017,1.409-13.497c0.344-2.181,1.316-4.78,1.398-7.155
		c0.579-0.299,1.2-0.511,1.793-0.785c-1.979,8.474-2.856,17.703-2.939,26.368C9.68,124.073,4.566,118.154,8.942,110.132z
		 M19.206,129.979c-0.146-0.077-0.285-0.169-0.43-0.249c0.796-9.298,3.637-18.593,4.217-27.859c1.069,1.425,2.009,2.917,2.849,4.46
		c-2.295,7.016-1.511,15.593-1.267,22.581c0.056,1.607,2.435,1.607,2.493,0c0.152-4.245,0.366-8.47,0.789-12.696
		c0.131-1.316,0.365-2.607,0.627-3.892c1.023,2.782,1.869,5.653,2.542,8.605c1.004,4.407,1.023,8.919,1.684,13.317
		C28.065,133.501,23.521,132.28,19.206,129.979z M140.048,130.392c-7.305,7.168-12.751,14.998-22.67,18.846
		c-2.079,0.807-4.429,1.225-6.953,1.317c0.171-0.838,0.034-1.757-0.676-2.587c-12.575-14.699-29.711-24.657-42.161-39.662
		c-0.786-0.947-2.367,0.064-2.021,1.176c2.576,8.289,9.067,14.354,15.218,20.168c7.367,6.966,15.237,13.317,22.512,20.375
		c-25.34-4.244-59.444-32.824-38.479-51.359c19.521-7.024,44.848-6.724,60.016,7.941C126.16,107.89,142.086,128.391,140.048,130.392
		z M145.737,113.983c-0.884,0.248-1.767,0.514-2.62,0.752c-0.73,0.204-1.476,0.415-2.218,0.626
		c-1.886-2.589-3.674-4.831-4.649-6.288c-16.523-24.66-51.261-27.283-76.871-15.535c-1.788,0.82-1.966,2.812-1.25,4.363
		c-9.947,9.64-3.846,26.312,4.477,36.391c0.618,0.747,1.273,1.471,1.925,2.197c-8.268-1.232-16.835-0.879-25.19-1.477
		c1.123-5.003-0.994-11.588-2.078-15.808c-1.367-5.319-3.623-11.081-7.116-15.69c0.083-0.853-0.588-1.33-1.316-1.412
		c-0.857-0.982-1.685-1.998-2.677-2.825c1.17-0.306,2.323-0.586,3.427-0.818c2.125-0.449,2.716-2.197,2.357-3.828
		c1.738-0.878,3.425-1.857,5.08-2.958c0.808-0.537,1.15-1.207,1.223-1.874c9.76,1.734,20.155-1.186,26.16-9.766
		c2.82-4.031,3.351-9.622,0.342-13.683c-3.271-4.413-8.767-6.07-14.212-6.698c31.053-21.423,89.622,8.816,118.695,32.338
		c-9.12,0.198-18.18,0.814-27.097,3.045c-1.702,0.427-2.273,2.063-2.055,3.619c0.723,5.168,2.416,9.504,5.962,12.979
		C145.679,112.331,145.59,113.179,145.737,113.983z M149.49,110.396c-1.636-3.363-2.835-6.469-3.351-10.08
		c9.496-1.681,18.944-2.079,28.577-2.086c2.784,6.817,6.452,13.103,10.446,19.26C172.792,117.554,161.239,114.928,149.49,110.396z"
		/>
</g>
<g>
</g>
<g>
</g>
<g>
</g>
<g>
</g>
<g>
</g>
<g>
</g>
<g>
</g>
<g>
</g>
<g>
</g>
<g>
</g>
<g>
</g>
<g>
</g>
<g>
</g>
<g>
</g>
<g>
</g>
</svg>
