<?xml version="1.0" encoding="iso-8859-1"?>
<!-- Generator: Adobe Illustrator 16.0.0, SVG Export Plug-In . SVG Version: 6.00 Build 0)  -->
<!DOCTYPE svg PUBLIC "-//W3C//DTD SVG 1.1//EN" "http://www.w3.org/Graphics/SVG/1.1/DTD/svg11.dtd">
<svg version="1.1" id="Capa_1" xmlns="http://www.w3.org/2000/svg" xmlns:xlink="http://www.w3.org/1999/xlink" x="0px" y="0px"
	 width="192.733px" height="192.733px" viewBox="0 0 192.733 192.733" style="enable-background:new 0 0 192.733 192.733;"
	 xml:space="preserve">
<g>
	<path d="M157.795,110.59c-0.264-0.442-0.587-0.861-1.04-1.201c-4.865-3.63-12.056-4.395-19.674-4.015
		c0.919-4.403,1.294-8.961,1.73-13.382c0.451-4.566,1.777-10.05-1.261-13.974l-0.139,0.139c-1.062-1.3-2.899-1.822-4.245-0.139
		c-2.603,3.252-1.987,7.409-1.96,11.322c0.038,5.427,0.04,11.11-0.633,16.591c-7.766,0.898-15.42,2.467-21.023,2.954
		c-15.869,1.385-31.566-0.073-47.108,0.894c0-0.041,0.02-0.071,0.018-0.113c-0.181-5.942-0.399-11.82-0.146-17.769
		c0.156-3.666,2.521-11.021,0.288-14.164c-0.616-0.867-1.516-1.438-2.49-1.625c31.082,0.395,62.257-2.992,93.445-0.031
		c2.14,0.203,3.459-1.268,3.9-3.018c2.682-0.672,4.79-3.551,2.921-6.297c-6.165-9.06-16.771-16.401-24.841-23.967
		c-13.654-12.801-23.947-28.501-37.457-41.44c-1.818-1.741-4.837-1.874-6.638,0C71.471,22.153,55.14,46.014,32.925,64.629
		c-1.736,1.455-1.524,3.643-0.453,5.289c-1.414,1.571-0.677,4.558,2.094,4.851c8.127,0.858,16.265,1.187,24.408,1.316
		c-0.384,0.067-0.77,0.172-1.145,0.399c-4.101,2.476-2.85,9.774-2.761,13.847c0.141,6.49,0.335,13.526,2.05,19.834
		c-5.632,0.583-11.243,1.565-16.834,3.225c-0.168-0.022-0.299-0.073-0.483-0.084c-1.207-0.063-2.138,0.424-2.893,1.168
		c-0.163,0.058-0.326,0.1-0.489,0.157c-2.561,0.91-2.966,3.53-1.948,5.291c-0.117,0.613-0.213,1.205-0.269,1.713
		c-0.381,3.42-0.159,7.207,1.486,10.294c0.155,0.29,0.359,0.471,0.547,0.689c-1.771,0.88-1.801,4.06,0.468,4.65
		c3.248,0.844,6.545,1.517,9.863,2.116c-0.502,0.65-0.877,1.434-0.883,2.479c-0.088,14.342-1.337,29.485,1.765,43.618
		c-0.312,0.071-0.628,0.117-0.94,0.192c-2.704,0.654-2.141,4.977,0.657,4.859c8.441-0.354,16.765-0.013,25.198,0.36
		c2.316,0.103,4.221-2.004,4.234-4.234c0.056-10.163,5.765-17.397,16.452-15.816c10.796,1.599,11.5,9.574,13.659,18.168
		c0.1,0.396,0.277,0.743,0.498,1.057c0.217,1.292,1.164,2.447,2.955,2.549c6.184,0.346,12.333-0.143,18.488-0.727
		c4.226-0.399,11.217,0.465,13.698-3.6c0.231-0.378,0.312-0.854,0.363-1.324c1.081-0.446,1.951-1.323,2.42-2.562
		c2.681-7.09,2.24-15.961,2.412-23.408c0.124-5.356,1.964-16.838-1.497-21.474c3.758-1.109,7.062-2.593,9.512-4.638
		c1.414,0.309,3.084-0.331,3.718-2.015c1.45-3.854,1.461-8.205,1.25-12.268C160.352,117.261,160.239,113.12,157.795,110.59z
		 M138.051,65.165c0.161-1.042,0.329-2.082,0.479-3.131c0.157-1.118,0.384-2.253,0.609-3.392c2.613,2.634,5.28,5.223,8.048,7.732
		C144.163,65.868,141.114,65.482,138.051,65.165z M130.322,56.996c0.159-2.267,0.404-4.664,0.5-7.056
		c1.546,1.673,3.142,3.306,4.718,4.954c-0.297,1.722-0.386,3.5-0.521,5.237c-0.121,1.583-0.242,3.164-0.369,4.745
		c-1.695-0.147-3.388-0.316-5.091-0.431C129.891,61.98,130.145,59.503,130.322,56.996z M122.418,40.686
		c1.214,1.36,2.438,2.711,3.658,4.065c-0.393,3.355-0.042,6.854-0.024,10.21c0.016,3.085-0.08,6.177-0.243,9.264
		c-1.624-0.082-3.234-0.237-4.865-0.287C121.752,56.21,122.456,48.381,122.418,40.686z M110.534,46.322
		c-0.045-5.993,0.872-12.456,0.343-18.492c2.263,2.482,4.491,4.987,6.722,7.489c-0.008,0.056-0.036,0.095-0.041,0.153
		c-0.717,9.274-1.114,18.92-0.896,28.385c-2.055-0.029-4.106-0.068-6.166-0.053C110.643,57.979,110.578,52.15,110.534,46.322z
		 M100.544,42.309c-0.205-8.191,0.628-16.887,0.298-25.116c2.305,2.331,4.553,4.703,6.777,7.094
		c-0.31,0.232-0.584,0.516-0.729,0.872c-2.231,5.496-1.233,12.473-1.062,18.295c0.201,6.812,0.613,13.629,1.057,20.436
		c-2.615,0.049-5.228,0.078-7.848,0.183C100.66,56.961,100.73,49.732,100.544,42.309z M121.342,117.295
		c2.129-0.109,4.254-0.146,6.379-0.245c-0.214,2.392,0.107,4.859,0.223,7.243c0.101,2.048,0.2,4.097,0.301,6.146
		c-3.427,0.544-6.859,1.082-10.304,1.557C120.211,127.672,121.939,122.196,121.342,117.295z M109.188,132.065
		c0.08-3.096,0.192-6.186,0.412-9.274c0.116-1.623,0.409-3.265,0.646-4.908c2.155-0.143,4.281-0.217,6.428-0.34
		c0.076,1.988,0.257,3.99,0.097,5.981c-0.24,3.012-0.97,5.979-1.922,8.845c-2.008,0.25-4.012,0.548-6.024,0.725
		C109.023,132.82,109.176,132.495,109.188,132.065z M98.615,126.395c0.393-2.76,1.29-5.376,1.836-8.088
		c1.664-0.035,3.341-0.14,5.012-0.213c-0.539,4.652-0.036,9.746,0.07,13.972c0.014,0.529,0.219,0.924,0.505,1.215
		c-1.445,0.096-2.891,0.206-4.338,0.247c-1.231,0.035-2.466,0.026-3.697,0.042C98.147,131.173,98.273,128.782,98.615,126.395z
		 M91.503,123.713c0.039-1.804,0.184-3.581,0.109-5.327c1.473,0.001,2.954-0.027,4.431-0.04c-1.947,4.57-2.052,10.27-1.742,15.265
		c-1.064,0.006-2.127,0.029-3.191,0.036C91.292,130.335,91.432,127.032,91.503,123.713z M69.98,122.795
		c0.301-1.559,0.98-2.991,1.56-4.446c2.442-0.021,4.885-0.008,7.33,0.006c-0.088,1.29-0.102,2.574-0.092,3.933
		c0.022,3.159-0.277,6.291-0.734,9.414c-0.25,1.707,2.076,2.442,2.634,0.726c1.372-4.212,2.37-9.435,1.954-14.061
		c1.355,0.01,2.72,0,4.077,0.009c-0.076,1.75,0.069,3.531,0.108,5.339c0.072,3.333,0.212,6.652,0.395,9.978
		c-5.846-0.005-11.694-0.075-17.543-0.206c-0.001-0.009,0.008-0.013,0.007-0.021C69.228,129.896,69.298,126.331,69.98,122.795z
		 M60.242,124.139c0.045-1.775,0.244-3.665,0.083-5.476c2.184-0.122,4.367-0.129,6.55-0.183c-0.216,0.756-0.39,1.52-0.538,2.242
		c-0.86,4.191-0.621,8.54,0.285,12.697c-2.285-0.059-4.57-0.071-6.855-0.146C60.054,130.242,60.165,127.176,60.242,124.139z
		 M89.441,45.893c-0.201-8.638,1.172-18.126,0.108-26.657c4.067-4.037,6.779-6.542,7.05-6.282c0.128,0.123,0.247,0.251,0.374,0.374
		c-3.255,6.489-1.999,14.97-1.61,21.966c0.54,9.715,1.452,19.311,0.166,28.925c-2.169,0.105-4.34,0.221-6.509,0.355
		C89.615,58.379,89.587,52.14,89.441,45.893z M84.306,24.519c-0.596,4.862,0.013,10.103,0.19,14.743
		c0.326,8.558,0.801,17.048,0.579,25.574c-1.893,0.13-3.786,0.256-5.677,0.401c-0.455-11.783-0.167-23.531-0.367-35.316
		C80.889,28.008,82.637,26.219,84.306,24.519z M66.188,50.872c0.054-2.479,0.38-5.242,0.203-7.866
		c2.592-2.689,5.186-5.381,7.711-7.994c0.05,10.172,0.693,20.394,1.887,30.479c-3.464,0.279-6.922,0.576-10.37,0.88
		C66.335,61.292,66.077,55.986,66.188,50.872z M41.396,68.468c2.275-2.167,5.395-5.294,8.948-8.912
		c0.225,2.693,0.619,5.392,1.036,8.07C48.041,67.917,44.701,68.21,41.396,68.468z M54.043,67.401
		c0.142-2.262,0.121-4.535,0.067-6.801c-0.04-1.713,0.156-3.465,0.301-5.207c2.305-2.369,4.737-4.882,7.216-7.45
		c0.031,0.553,0.07,1.113,0.082,1.65c0.123,5.628-0.203,11.492,0.628,17.069C59.567,66.909,56.795,67.158,54.043,67.401z
		 M41.388,132.573c0.87-0.873,1.403-2.119,1.132-3.525c-0.568-2.948-0.473-5.534,0.375-8.41c1.663-0.311,3.32-0.51,4.979-0.746
		c0.103,1.241,0.237,2.479,0.325,3.666c0.233,3.159,0.699,6.298,1.375,9.391C46.845,132.825,44.114,132.72,41.388,132.573z
		 M52.158,119.307c1.41-0.152,2.816-0.242,4.224-0.354c-0.114,1.723,0.061,3.505,0.104,5.187c0.076,3.013,0.188,6.052,0.47,9.061
		c-1.459-0.053-2.921-0.055-4.38-0.115c-0.299-3.171-0.531-6.333-0.571-9.527C51.988,122.172,52.098,120.738,52.158,119.307z
		 M137.373,182.414c-2.031-0.079-4.255,0.45-6.358,0.741c-5.453,0.754-10.845,1.864-16.294,2.611
		c5.042-22.427-43.115-36.356-46.401-3.097c-5.365,0.338-10.693,0.865-15.974,1.803c0.986-14.136,1.815-28.459,1.902-42.609
		c0.003-0.498-0.133-0.899-0.257-1.308c15.785,2.091,32.05,2.043,47.709,1.845c8.253-0.105,23.839,0.809,36.861-1.236
		c-0.648,2.467,0.023,5.661,0.103,8.092c0.163,5.11,0.161,10.224,0.059,15.334C138.646,168.357,136.665,176.89,137.373,182.414z
		 M139.167,121.906c-0.142,2.43-0.728,4.804-1.478,7.121c-2.13,0.31-4.257,0.598-6.395,0.935c0.092-1.889,0.185-3.779,0.277-5.668
		c0.118-2.436,0.44-4.958,0.196-7.398c2.425-0.104,4.857-0.177,7.282-0.28C139.108,118.374,139.269,120.141,139.167,121.906z
		 M141.94,128.405c1.631-3.714,2.515-8.253,1.854-11.974c2.615-0.101,5.222-0.237,7.843-0.302c0.287,1.424,0.741,2.842,1.051,4.318
		c0.479,2.281,0.586,4.575,0.613,6.875C149.53,127.518,145.742,127.914,141.94,128.405z"/>
</g>
<g>
</g>
<g>
</g>
<g>
</g>
<g>
</g>
<g>
</g>
<g>
</g>
<g>
</g>
<g>
</g>
<g>
</g>
<g>
</g>
<g>
</g>
<g>
</g>
<g>
</g>
<g>
</g>
<g>
</g>
</svg>
