<?xml version="1.0" encoding="iso-8859-1"?>
<!-- Generator: Adobe Illustrator 16.0.0, SVG Export Plug-In . SVG Version: 6.00 Build 0)  -->
<!DOCTYPE svg PUBLIC "-//W3C//DTD SVG 1.1//EN" "http://www.w3.org/Graphics/SVG/1.1/DTD/svg11.dtd">
<svg version="1.1" id="Capa_1" xmlns="http://www.w3.org/2000/svg" xmlns:xlink="http://www.w3.org/1999/xlink" x="0px" y="0px"
	 width="193.658px" height="193.658px" viewBox="0 0 193.658 193.658" style="enable-background:new 0 0 193.658 193.658;"
	 xml:space="preserve">
<g>
	<g>
		<path d="M182.907,122.575c0.005-0.094,0.051-0.157,0.05-0.255c-0.094-11.906,0.709-25.67-7.279-35.399
			c-6.396-7.787-19.934-5.697-29.733-3.774c0.731-13.806,3.07-30.974-4.755-42.3c-7.376-10.677-33.712-7.999-44.223-7.656
			c-10.265,0.334-24.625,1.165-26.451,13.502c-0.464,3.136-0.423,6.446-0.184,9.807c-4.368-8.023-9.524-15.58-17.335-20.196
			c-6.819-4.03-14.365,0.088-18.281,6.06C17.667,51.594,4.792,70.323,5.101,89.809c-9.948,13.966-4.911,30.721,11.339,37.81
			c16.245,7.088,32.178-1.636,31.94-19.889c-0.028-2.133-2.066-3.709-4.14-3.154c-11.766,3.149-23.217-0.964-26.297-12.811
			c7.662-2.581,14.087-7.971,20.316-13.534c1.449,3.388,2.912,6.593,4.129,9.467c5.857,13.833,13.893,26.656,20.104,40.32
			c-13.164,4.548-25.745,15.084-13.479,27.8c6.72,6.966,22.991,3.241,30.931,2.402c26.818-2.836,53.622,2.903,80.448,2.792
			C185.173,160.907,207.682,142.124,182.907,122.575z M41.465,111.735c-1.87,10.781-11.938,14.514-22.74,9.824
			C6.541,116.271,3.513,104.513,8.159,93.353c1.224,0.018,2.402-0.074,3.565-0.2C12.438,107.916,28.135,113.442,41.465,111.735z
			 M10.96,87.434c0.981-14.522,10.021-27.798,21.018-37.807c-1.13,7.258,1.098,15.437,4.04,23.103
			C28.667,79.428,21.006,86.552,10.96,87.434z M44.239,74.17c-0.147-0.399-0.257-0.809-0.398-1.21
			c0.509-1.139-0.053-2.351-1.016-3.087c-0.977-3.068-1.87-6.159-2.634-9.291c-1.449-5.938-2.205-28.271,13.505-15.687
			c8.487,6.798,12.743,18.791,18.315,28.111c0.053,0.822,0.112,1.647,0.13,2.451c0.39,16.871,2.447,33.773,3.74,50.613
			c-0.45-0.286-0.962-0.481-1.592-0.459c-2.626,0.097-5.646,0.607-8.733,1.452C61.187,108.91,50.662,91.579,44.239,74.17z
			 M68.854,135.585c-0.08,1.094-0.146,2.188-0.223,3.281c-1.228-0.516-2.933-0.082-3.179,1.415
			c-0.551,3.369-1.107,5.724,0.552,7.747c0.26,0.915,0.815,2.183,1.706,3.849c-6.901,0.47-7.406-5.455-1.428-17.864
			c1.531-0.445,3.094-0.732,4.654-1.035C69.866,133.39,68.938,134.384,68.854,135.585z M76.278,139.221
			c-0.704-1.633-1.443-3.282-2.239-5.04c-0.472-1.042-1.309-1.442-2.175-1.409c0.289-0.052,0.571-0.142,0.861-0.19
			c1.791-0.104,3.584-0.159,5.376-0.256C77.436,134.674,76.847,136.942,76.278,139.221z M79.66,150.522
			c0.032-0.119,0.095-0.223,0.112-0.348c0.446-2.758,0.995-5.49,1.637-8.199c1.149,2.828,2.263,5.604,3.188,8.138
			C82.95,150.23,81.305,150.361,79.66,150.522z M83.7,132.166c-0.013-0.039-0.041-0.066-0.055-0.104
			c2.521-0.124,5.043-0.247,7.565-0.359c-0.824,3.562-2.137,7.271-3.573,10.92C86.244,139.032,84.822,135.413,83.7,132.166z
			 M92.003,149.809c-0.45-0.001-0.905,0.032-1.356,0.039c2.047-4.973,3.087-7.069,3.749-8.49c0.876,2.701,1.681,5.422,2.245,8.276
			c0.023,0.118,0.084,0.195,0.118,0.304C95.173,149.89,93.587,149.812,92.003,149.809z M99.954,139.629
			c-0.92-2.718-1.907-5.42-2.822-8.207c2.364-0.099,4.729-0.22,7.095-0.312C102.673,134.005,101.243,136.795,99.954,139.629z
			 M102.066,150.14c0.097-0.165,0.211-0.318,0.275-0.506c1.248-3.57,2.792-6.994,4.478-10.349c1.252,3.759,2.396,7.564,3.413,11.419
			C107.509,150.478,104.786,150.291,102.066,150.14z M113.584,139.862c-0.977-2.999-1.997-5.982-3.134-8.988
			c1.853-0.07,3.702-0.143,5.555-0.212C115.12,133.737,114.31,136.797,113.584,139.862z M117.582,151.361
			c0.587-3.062,1.188-6.105,1.895-9.104c1.02,3.211,2.129,6.398,3.323,9.611C121.061,151.698,119.321,151.528,117.582,151.361z
			 M122.72,130.406c2.361-0.089,4.724-0.178,7.086-0.27c-1.684,3.479-3.136,6.775-4.3,10.148
			C124.483,137.042,123.568,133.753,122.72,130.406z M128.914,152.446c0.116-0.295,0.229-0.596,0.273-0.945
			c0.676-4.178,1.825-8.169,3.352-12.015c1.69,4.469,3.022,9.008,4.403,13.635C134.268,152.921,131.592,152.696,128.914,152.446z
			 M144.359,153.585c1.419-3.142,2.596-6.287,3.555-9.494c0.991,2.727,1.946,5.466,2.723,8.303c0.161,0.59,0.471,1.03,0.831,1.401
			C149.1,153.775,146.73,153.694,144.359,153.585z M160.393,153.6c-1.359,0.076-2.72,0.065-4.08,0.099
			c0.339-0.357,0.634-0.771,0.798-1.306c1.124-3.668,2.135-7.238,3.361-10.737c0.664,3.588,1.367,7.17,1.987,10.77
			c0.104,0.597,0.369,1.042,0.693,1.419C162.268,153.79,161.362,153.72,160.393,153.6z M166.279,128.951
			c-0.042,1.64-0.157,3.265-0.305,4.884c-0.293-1.486-0.551-2.979-0.851-4.465c-0.596-2.958-4.844-3.263-6.24-0.815
			c-2.212,3.873-3.772,7.874-5.137,11.972c-1.063-2.827-2.18-5.635-3.282-8.482c-1.074-2.775-5.748-3.572-6.445,0
			c-0.856,4.389-1.766,8.394-3.03,12.383c-1.554-4.906-3.246-9.725-5.562-14.443c-0.034-0.068-0.113-0.091-0.152-0.155
			c5.327-0.4,10.375-1.088,15.851-2.012c5.54-1.09,11.125-1.587,16.745-1.625C167.015,126.769,166.359,127.683,166.279,128.951z
			 M168.377,153.718c0.346-0.363,0.641-0.775,0.786-1.293c0.737-2.607,1.345-5.129,1.892-7.638c0.799,2.37,1.665,4.728,2.595,7.071
			C172.325,152.806,170.575,153.431,168.377,153.718z M175.242,119.265c-8.347-1.61-18.717,0.853-25.93,1.975
			c-22.764,3.541-45.918,3.112-68.862,5.276c0.596-19.524-1.044-39.051-1.185-58.579c-0.11-15.358-5.699-25.164,13.983-27.097
			c12.736-1.251,28.818-1.457,40.689,3.605c9.19,3.919,4.323,35.268,4.166,43.389c-0.051,2.66,2.471,4.134,4.851,3.695
			c7.934-1.461,20.114-4.954,27.248,0.866C176.336,97.399,175.485,110.841,175.242,119.265z"/>
		<path d="M127.346,45.88c-12.822-0.046-25.645-0.122-38.465-0.128c-1.999-0.001-3.581,1.646-3.617,3.617
			c-0.155,8.389-1.769,16.705-2.762,25.021c-0.533,4.465-2.212,11.619,2.349,14.474c1.667,1.043,3.294-0.071,3.859-1.638
			c12.181,1.357,25.129,2.475,37.31,1.432c2.048-0.176,3.261-1.461,3.476-3.476c1.271-11.938,1.34-23.824,1.339-35.812
			C130.833,47.462,129.246,45.887,127.346,45.88z M89.246,83.153c0.332-4.58,0.4-9.221,1.036-13.831
			c0.749-5.431,1.625-10.874,2.011-16.348c10.515-0.015,21.031-0.064,31.544-0.105c-0.036,9.69-0.256,19.386-1.043,29.044
			C111.609,82.742,100.391,82.221,89.246,83.153z"/>
	</g>
</g>
<g>
</g>
<g>
</g>
<g>
</g>
<g>
</g>
<g>
</g>
<g>
</g>
<g>
</g>
<g>
</g>
<g>
</g>
<g>
</g>
<g>
</g>
<g>
</g>
<g>
</g>
<g>
</g>
<g>
</g>
</svg>
