<?xml version="1.0" encoding="iso-8859-1"?>
<!-- Generator: Adobe Illustrator 16.0.0, SVG Export Plug-In . SVG Version: 6.00 Build 0)  -->
<!DOCTYPE svg PUBLIC "-//W3C//DTD SVG 1.1//EN" "http://www.w3.org/Graphics/SVG/1.1/DTD/svg11.dtd">
<svg version="1.1" id="Capa_1" xmlns="http://www.w3.org/2000/svg" xmlns:xlink="http://www.w3.org/1999/xlink" x="0px" y="0px"
	 width="194.529px" height="194.53px" viewBox="0 0 194.529 194.53" style="enable-background:new 0 0 194.529 194.53;"
	 xml:space="preserve">
<g>
	<path d="M193.852,84.851c-3.529-11.123-25.149-13.474-34.447-12.542c-0.82,0.082-1.481,0.382-2.065,0.759
		c0.062-1.001,0.069-1.99,0.015-2.962c-0.931-16.751-17.271-27.39-32.69-27.938c0.003-0.168,0.063-0.295,0.05-0.474
		c-0.857-10.359-4.001-27.696-13.882-33.632C99.925,1.51,86.023,16.073,79.15,22.516c-8.694,8.15-23.776,22.146-20.873,35.836
		c3.021,14.244,21.815,13.887,32.986,12.628c0.132,0.068,0.237,0.176,0.375,0.23c-0.065,0.153-0.054,0.324-0.091,0.485
		c-11.311,10.96-23.833,20.693-36.027,30.638c-3.032,2.473-18.284,11.729-19.949,18.704c-9.467-2.46-21.579-5.834-30.223-0.211
		c-7.829,5.092-5.824,16.327-1.822,23.005c10.968,18.301,34.132,33.146,52.214,43.701c1.987,1.16,5.14,0.61,6.192-1.624
		c3.461-7.343,5.885-14.41,6.316-22.56c0.048-0.904-0.176-1.609-0.5-2.224c7.871,2.042,23.781-14.697,27.58-18.061
		c10.934-9.679,22.865-20.198,31.824-31.913c1.414,9.218,4.84,20.251,13.564,22.787c10.956,3.185,21.239-6.654,28.86-13.104
		C178.705,113.113,198.423,99.265,193.852,84.851z M90.451,64.515c-6.303-0.261-22.186-0.418-22.923-8.562
		c-0.896-9.905,12.315-20.646,18.461-26.598c3.519-3.407,14.814-16.106,20.808-12.525c6.542,3.908,6.961,19.754,9.251,26.037
		c0.062,0.171,0.185,0.288,0.265,0.444C106.09,46.641,96.053,56.416,90.451,64.515z M59.389,163.349
		c-0.5,5.159-1.615,9.311-3.381,13.688c-11.722-7.244-22.876-15.67-33.086-24.836c-5.361-4.812-11.943-10.673-14.004-17.816
		c-2.603-9.026,9.896-8.78,19.163-7.945c5.316,7.219,12.611,13.083,19.375,18.848c4.357,3.713,11.192,11.673,17.467,13.231
		c0.06,0.242,0.059,0.497,0.177,0.721C62.675,158.769,59.7,160.132,59.389,163.349z M92.425,133.3
		c-5.367,5.193-10.788,10.314-16.545,15.077c-1.879,1.556-5.07,3.092-7.589,4.862c-2.975-4.481-9.882-7.794-13.741-10.685
		c-6.516-4.881-12.721-10.089-18.848-15.414c0.198,0.009,0.434,0.026,0.6,0.026c0.941,0.001,1.641-0.422,2.129-1.017
		c1.467,0.424,3.097,0.083,3.835-1.561c-1.143,2.544-0.577,1.224,1.671-0.369c1.377-0.977,2.648-2.126,3.921-3.262
		c-0.029,0.143-0.135,0.218-0.125,0.39c0.301,5.369,6.511,10.335,9.945,13.879c2.843,2.934,12.551,14.696,17.427,11.255
		c0.929-0.656,1.196-1.465,1.045-2.566c-0.346-2.512-3.36-3.627-5.19-4.916c-2.983-2.1-5.696-4.617-8.365-7.095
		c-2.551-2.367-4.994-4.853-7.426-7.342c-0.728-0.745-4.206-3.452-4.284-3.641c-0.304-0.736-1.063-1.094-1.76-1.079
		c0.037-0.031,0.073-0.066,0.109-0.097c2.827-2.388,5.712-4.708,8.578-7.05c2.77,5.838,7.49,10.705,12.154,15.067
		c3.947,3.692,9.977,10.241,15.579,10.739c2.151,0.192,3.156-2.377,2.309-4.022c-2.192-4.258-8.741-6.925-12.466-9.836
		c-5.407-4.227-9.878-9.099-14.032-14.534c-0.057-0.074-0.127-0.108-0.187-0.174c2.273-1.853,4.532-3.72,6.794-5.584
		c0.576-0.476,1.193-0.967,1.792-1.452c4.539,5.316,10.099,10,15.069,14.828c3.362,3.265,7.869,9.342,12.748,10.354
		C95.849,129.819,94.182,131.599,92.425,133.3z M100.4,123.871c-3.492-4.189-8.56-7.396-12.761-10.953
		c-4.882-4.132-9.433-8.743-14.34-12.863c2.667-2.129,5.418-4.389,8.138-6.711c3.614,4.358,7.504,8.491,11.413,12.582
		c4.16,4.354,8.191,9.761,12.818,13.876c-1.585,1.639-3.172,3.277-4.766,4.908C100.788,124.426,100.628,124.144,100.4,123.871z
		 M110.344,114.983c-3.3-4.293-8.078-7.99-11.797-11.554c-4.55-4.362-8.962-8.84-13.39-13.316c3.831-3.52,7.39-7.271,10.173-11.296
		c6.373,9.854,14.333,22.064,25.074,25.796C117.025,108.045,113.689,111.518,110.344,114.983z M125.518,96.737
		c-9.031,0.538-20.258-15.374-26.943-23.721c0.281-1.142-0.057-2.222-0.754-2.992c5.118-2.992,10.26-9.904,13.429-12.762
		c10.375-9.357,25.704-6.409,33.608,4.923C154.148,75.509,140.413,95.849,125.518,96.737z M164.758,112.545
		c-5.166,4.557-12.15,11.92-19.416,12.816c-7.249,0.896-11.029-13.647-13.146-20.225c11.453-2.838,21.058-14.406,24.148-26.062
		c0.479,0.565,1.086,1.067,1.961,1.374c7.967,2.798,19.362,0.939,26.096,6.92C189.825,92.188,168.148,109.556,164.758,112.545z"/>
</g>
<g>
</g>
<g>
</g>
<g>
</g>
<g>
</g>
<g>
</g>
<g>
</g>
<g>
</g>
<g>
</g>
<g>
</g>
<g>
</g>
<g>
</g>
<g>
</g>
<g>
</g>
<g>
</g>
<g>
</g>
</svg>
