<?xml version="1.0" encoding="iso-8859-1"?>
<!-- Generator: Adobe Illustrator 16.0.0, SVG Export Plug-In . SVG Version: 6.00 Build 0)  -->
<!DOCTYPE svg PUBLIC "-//W3C//DTD SVG 1.1//EN" "http://www.w3.org/Graphics/SVG/1.1/DTD/svg11.dtd">
<svg version="1.1" id="Capa_1" xmlns="http://www.w3.org/2000/svg" xmlns:xlink="http://www.w3.org/1999/xlink" x="0px" y="0px"
	 width="189.868px" height="189.868px" viewBox="0 0 189.868 189.868" style="enable-background:new 0 0 189.868 189.868;"
	 xml:space="preserve">
<g>
	<path d="M189.425,122.07c-1.48-1.36-3.058-2.624-4.641-3.882c2.926-12.167,3.896-25.039,2.732-37.908
		c-2.465-27.288-16.498-58.518-42.429-70.7c-14.58-6.849-43.854-13.388-60.17-3.886c-0.99-0.747-2.294-1.079-3.88-0.547
		C43.962,17.572,9.614,49.595,1.724,87.622c-0.731,0.19-1.065,1.281-0.385,1.792c-2.796,15.156-1.369,31.225,5.773,47.357
		c18.028,40.728,63.633,57.123,105.643,50.872c37.556-5.589,61.751-32.573,70.975-65.567c1.337,0.732,2.661,1.512,4.021,2.162
		C189.097,124.882,190.646,123.192,189.425,122.07z M133.147,15.06c8.447,3.225,15.954,7.446,20.985,11.853
		c6.251,5.476,11.101,12.33,14.817,19.929c-2.428-1.431-5.081-2.528-7.1-3.353c-8.045-3.289-17.535-3.949-26.191-2.877
		c0.153-3.813-2.684-7.902-5.484-10.273c-1.729-1.463-3.734-2.73-5.871-3.76c1.54-2.463,3.176-4.869,4.918-7.189
		C130.384,17.843,131.84,16.501,133.147,15.06z M167.102,54.403c-4.799-2.453-9.697-4.723-14.565-6.898
		c1.217,0.36,2.434,0.703,3.642,1.131c3.414,1.21,6.534,2.729,9.563,4.696C166.236,53.653,166.678,54.021,167.102,54.403z
		 M118.158,41.949c-6.31-1.087-9.641-5.457-8.159-10.749c2.477,0.666,6.013,0.333,7.985,0.863c3.98,1.069,8.494,3.6,10.422,7.389
		C129.803,42.198,119.535,42.186,118.158,41.949z M126.189,12.711c-0.32,0.447-0.643,0.899-0.948,1.327
		c-0.517,0.728-0.942,1.515-1.421,2.269c-1.995-1.525-4.036-2.971-5.784-4.882c-0.22-0.241-0.366-0.538-0.577-0.787
		C120.393,11.2,123.32,11.861,126.189,12.711z M112.987,9.865c2.233,3.901,5.129,7.549,8.737,9.899
		c-0.875,1.614-1.703,3.256-2.455,4.929c-2.836-2.332-6.241-4.141-9.174-6.309c-3.514-2.597-6.707-5.583-9.268-9.09
		C104.746,9.079,108.85,9.308,112.987,9.865z M98.485,9.531c2.062,3.542,4.653,6.677,7.702,9.477
		c1.807,1.659,3.844,3.487,5.993,5.143c-0.749,0.071-1.494,0.185-2.229,0.355c-0.234,0.055-0.42,0.257-0.643,0.371
		c-0.438,0.036-0.877,0.193-1.254,0.564c-0.297,0.292-0.51,0.617-0.778,0.921c-3.137-2.923-6.494-5.609-9.998-8.078
		c-2.495-1.759-5.15-3.26-7.86-4.659c-0.156-0.081-0.924-0.388-1.851-0.743c0.029-0.256-0.001-0.474-0.043-0.727
		C90.849,10.739,94.57,9.932,98.485,9.531z M78.03,16.397c2.769,2.546,8.452,3.132,11.394,4.414
		c5.541,2.414,10.424,5.863,15.408,9.193c-2.317,4.987-1.353,10.6,3.289,14.563c-2.392,1.701-4.64,3.561-6.853,5.459
		c-2.536-1.802-5.414-3.186-8.1-4.712c-2.523-1.432-5.045-2.865-7.568-4.298c5.219-0.952,10.541-1.825,16.059-2.881
		c2.748-0.525,2.378-4.445,0-5.18c-24.933-7.708-55.694,10.102-78.058,27.721C36.617,40.961,56.925,24.872,78.03,16.397z
		 M61.301,65.685c-5.372-3.842-10.843-7.623-16.753-10.595c2.68-1.463,5.36-2.925,8.112-4.283c0.402-0.198,0.798-0.346,1.199-0.536
		c5.411,3.589,10.73,7.312,16.086,10.983c4.135,2.834,8.427,6.091,13.041,8.356c-1.874,2.54-3.709,5.113-5.396,7.792
		C72.662,72.988,66.686,69.536,61.301,65.685z M76.01,79.99c-1.668,2.788-3.275,5.617-4.746,8.526
		c-5.475-5.147-12.408-9.05-18.601-13.256c-6.802-4.619-13.776-8.914-21.113-12.614c3.175-1.989,6.401-3.898,9.666-5.748
		c0.045,0.032,0.067,0.072,0.117,0.101c5.56,3.208,10.854,6.695,16.07,10.437c5.88,4.22,11.692,9.631,18.367,12.498
		C75.848,79.968,75.929,79.969,76.01,79.99z M71.702,58.249c-4.94-3.102-9.839-6.267-14.797-9.341
		c3.403-1.459,6.779-2.636,10.156-3.654c3.32,3.411,7.772,6.001,11.655,8.675c3.172,2.185,6.387,4.305,9.638,6.369
		c0.466,0.296,0.954,0.627,1.442,0.955c-1.466,1.664-2.912,3.347-4.29,5.089C81.055,63.455,76.158,61.047,71.702,58.249z
		 M81.707,51.647c-3.707-2.371-7.573-4.744-11.148-7.374c3.621-0.967,7.268-1.737,10.94-2.457c3.337,2.112,6.674,4.225,10.011,6.337
		c2.29,1.45,4.557,3.06,6.953,4.376c-2.017,1.858-4.014,3.735-5.895,5.727c-0.371-0.194-0.748-0.387-1.096-0.588
		C88.163,55.753,84.928,53.706,81.707,51.647z M29.092,64.174c6.712,3.722,13.109,7.899,19.388,12.309
		c6.929,4.866,13.66,11.242,21.408,14.72c-1.388,2.9-2.699,5.841-3.891,8.836c-6.452-4.473-13.459-8.281-19.966-12.631
		c-8.565-5.725-16.84-11.885-25.463-17.52C23.37,67.919,26.217,66.023,29.092,64.174z M19.126,139.664
		c-2.644-4.429-4.698-8.897-6.246-13.379c5.977,7.321,11.874,14.706,17.936,21.96c6.292,7.53,13.26,16.006,21.571,21.744
		C38.819,163.171,27.062,152.961,19.126,139.664z M33.58,145.483c-7.683-8.98-14.938-18.301-22.892-27.037
		c-0.848-3.982-1.303-7.958-1.405-11.909c7.501,8.262,15.065,16.467,22.708,24.597c6.147,6.539,13.884,17.554,22.642,20.663
		c0.26,0.093,0.517,0.053,0.764-0.015c-0.099,5.454,0.081,10.892,0.607,16.266C48.483,160.554,40.564,153.647,33.58,145.483z
		 M55.517,148.432c-5.724-7.312-14.254-13.505-20.751-20.073c-8.445-8.539-16.6-17.397-25.417-25.561
		c0.085-2.79,0.365-5.561,0.78-8.313c17.356,10.84,31.651,25.876,46.193,40.195c0.13,0.128,0.272,0.179,0.408,0.267
		C56.129,139.432,55.703,143.933,55.517,148.432z M10.709,91.564c0.556-2.883,1.294-5.734,2.164-8.555
		c7.975,6.148,15.308,13.332,22.951,19.748c4.998,4.196,13.712,13.763,21.102,11.871c1.994-0.51,1.309-3.076-0.448-3.307
		c-8.657-1.138-19.087-12.431-25.45-17.44c-5.683-4.473-11.323-9.227-17.357-13.311c0.952-2.766,2.03-5.501,3.302-8.177
		c0.685-0.5,1.392-0.959,2.081-1.451c7.286,5.925,14.883,11.477,22.446,17.039c7.332,5.391,14.856,11.389,23.023,15.67
		c-3.082,8.396-5.439,17.08-6.952,25.897C43.54,115.369,28.484,100.911,10.709,91.564z M118.7,176.206
		c-5.124,1.453-10.419,2.528-15.878,3.095c-13.793,1.432-27.871-0.402-40.818-5.114c-2.154-46.721,13.699-97.837,53.964-124.989
		c0.252-0.17,0.382-0.391,0.58-0.585c1.784,0.416,3.621,0.688,5.461,0.681c0.027,0.079,0.022,0.153,0.06,0.233
		c2.677,5.724,5.191,12.378,7.393,19.582c-0.763,0.193-1.193,1.25-0.312,1.699c0.341,0.173,0.651,0.386,0.988,0.564
		c2.147,7.374,3.96,15.275,5.238,23.392c-0.863,0.035-1.594,1.074-0.778,1.807c0.391,0.351,0.779,0.712,1.17,1.063
		c0.639,4.519,1.159,9.073,1.434,13.631c-0.39-0.263-0.779-0.561-1.17-0.818c-1.417-0.939-2.676,1.298-1.317,2.254
		c0.917,0.646,1.792,1.34,2.684,2.015c0.884,23.279-3.63,45.915-17.731,60.048C119.205,175.224,118.894,175.712,118.7,176.206z
		 M133.862,170.377c2.562-3.814,4.622-8.03,6.299-12.505c1.31,1.627,2.691,3.195,4.179,4.663c0.294,0.29,0.613,0.575,0.927,0.863
		C141.652,165.979,137.893,168.378,133.862,170.377z M148.146,161.305c-0.74-0.584-1.443-1.197-2.037-1.711
		c-1.754-1.513-3.33-3.216-4.876-4.944c1.012-3.143,1.776-6.437,2.422-9.791c2.116,2.259,4.241,4.509,6.513,6.618
		c1.421,1.317,3.021,2.699,4.756,3.8C152.767,157.396,150.533,159.438,148.146,161.305z M157.293,152.843
		c-2.014-1.333-4.071-2.61-5.924-4.246c-2.481-2.194-4.774-4.595-7.089-6.97c0.409-2.611,0.685-5.284,0.899-7.979
		c2.18,2.483,4.457,4.882,6.902,7.11c2.767,2.521,6.199,5.606,10.062,6.287C160.605,149.05,159.011,151.003,157.293,152.843z
		 M163.908,144.69c-4.017-0.951-7.808-4.169-10.837-6.713c-2.706-2.273-5.23-4.76-7.682-7.315c0.166-3.07,0.152-6.193,0.097-9.322
		c7.117,6.284,13.805,13.055,21.111,19.061C165.713,141.84,164.879,143.32,163.908,144.69z M168.737,136.89
		c-7.173-7.155-15.155-13.911-23.414-19.952c-0.19-3.859-0.581-7.726-1.061-11.581c9.141,8.376,18.304,16.815,27.673,24.826
		C170.958,132.48,169.909,134.729,168.737,136.89z M173.276,126.725c-8.164-9.805-19.355-17.662-29.615-25.634
		c-0.593-3.931-1.354-7.81-2.199-11.638c11.063,9.283,22.401,19.866,34.56,27.964C175.261,120.611,174.38,123.735,173.276,126.725z
		 M177.244,111.604c-0.044,0.287-0.128,0.551-0.176,0.836c-4.049-2.833-8.165-5.583-12.077-8.497
		c-8.101-6.036-16.154-12.12-24.327-18.057c-0.812-3.351-1.727-6.624-2.703-9.82c13.978,9.32,25.556,21.766,39.928,30.468
		C177.699,108.246,177.5,109.952,177.244,111.604z M178.25,102.463c-13.085-10.487-26.677-21.825-41.471-29.937
		c-2.95-8.922-6.438-17.098-10.297-23.763c2.55-0.584,4.945-1.626,6.881-3.337c0.27-0.238,0.411-0.507,0.631-0.757
		c3.493,0.035,6.914,0.366,10.292,0.923c-0.037,0.385,0.058,0.773,0.526,1.024c10.143,5.422,19.992,11.809,30.209,17.112
		c0.823,3.218,1.545,6.469,2.068,9.761c-5.637-3.804-11.816-7.105-17.443-10.545c-8.501-5.198-17.312-9.812-26.751-13.042
		c-1.819-0.622-2.538,2.187-0.785,2.846c10.178,3.821,19.366,9.422,28.437,15.343c5.68,3.708,11.242,8.293,17.305,11.55
		c0.348,3.32,0.607,6.639,0.692,9.93c-6.268-5.618-13.192-10.609-19.931-15.584c-6.462-4.77-16.045-13.868-24.676-13.736
		c-1.232,0.019-1.557,1.919-0.297,2.192c8.089,1.753,16.604,10.154,22.957,14.992c7.355,5.602,14.306,11.891,21.975,17.067
		C178.538,97.189,178.448,99.856,178.25,102.463z"/>
</g>
<g>
</g>
<g>
</g>
<g>
</g>
<g>
</g>
<g>
</g>
<g>
</g>
<g>
</g>
<g>
</g>
<g>
</g>
<g>
</g>
<g>
</g>
<g>
</g>
<g>
</g>
<g>
</g>
<g>
</g>
</svg>
