<?xml version="1.0" encoding="iso-8859-1"?>
<!-- Generator: Adobe Illustrator 16.0.0, SVG Export Plug-In . SVG Version: 6.00 Build 0)  -->
<!DOCTYPE svg PUBLIC "-//W3C//DTD SVG 1.1//EN" "http://www.w3.org/Graphics/SVG/1.1/DTD/svg11.dtd">
<svg version="1.1" id="Capa_1" xmlns="http://www.w3.org/2000/svg" xmlns:xlink="http://www.w3.org/1999/xlink" x="0px" y="0px"
	 width="189.999px" height="189.999px" viewBox="0 0 189.999 189.999" style="enable-background:new 0 0 189.999 189.999;"
	 xml:space="preserve">
<g>
	<g>
		<path d="M184.858,66.408c5.696-12.381,9.413-44.827-4.21-53.673c-16.951-11.008-51.36-6.629-70.814-6.129
			C95.905,6.964,70.629,9.409,65.742,26.055c-2.76,9.398-28.848,7.224-15.41,22.097c-10.343,2.63-19.999,10.308-24.021,22.202
			c-0.331,0.979-0.644,1.993-0.941,3.031c-5.552-2.259-11.98-3.738-17.731-1.445C3.2,73.707,0.023,77.71,0,82.586
			c-0.022,4.504,3.022,8.556,6.961,10.486c4.958,2.429,10.723,2.029,15.854,0.296c0.384,9.846,3.555,19.336,11.653,25.191
			c19.843,14.352,39.661,5.436,61.545,2.916c1.332-0.154,2.658-0.239,3.986-0.342c-0.029,0.094-0.001,0.176-0.014,0.271
			c-0.207,0.102-0.425,0.182-0.602,0.322c-2.349,1.846-1.827,6.234-1.396,8.834c0.609,3.664,2.048,6.898,4.387,9.777
			c4.417,5.436,11.116,5.278,16.616,2.385c-0.146,2.689-0.418,5.377-0.997,8.06c-1.376,6.383-5.214,12.626-5.303,19.261
			c-0.172,12.819,14.052,16.108,24.688,14.066c28.601-5.49,22.184-44.287,19.835-65.232c4.091-0.941,8.166-2.229,12.225-4.063
			c12.993-5.87,23.564-30.265,17.888-43.665C186.581,69.391,185.74,67.851,184.858,66.408z M10.727,86.356
			c0.037-0.061-1.222-0.789-1.218-0.704c-0.014-0.014-0.036-0.037-0.051-0.052c0.092-0.768,0.162-1.538,0.315-2.301
			c0.263-1.312,0.867-2.461,1.051-3.791c0.023-0.162-0.04-0.318-0.08-0.477c0.013-0.007,0.025-0.016,0.038-0.021
			c0.097-0.023,0.668-0.254,0.695-0.263c0.529-0.175,1.075-0.293,1.62-0.405c0.731-0.15,1.837-0.221,2.831-0.246
			c0.16-0.005,0.321,0.029,0.482,0.029c-0.751,2.742-0.769,5.893-0.596,8.856C14.09,87.097,12.405,86.972,10.727,86.356z
			 M23.043,85.637c-0.281,0.008-0.553-0.023-0.848,0.063c-1.547,0.447-3.021,0.793-4.469,1.039c0.075-1.104,0.113-2.211,0.23-3.313
			c0.186-1.749,0.618-3.443,0.961-5.151c1.712,0.168,3.42,0.427,5.091,0.784C23.585,81.202,23.257,83.405,23.043,85.637z
			 M142.367,30.281c-0.039-4.862,0.041-10.564-1.469-15.466c6.878,0.323,13.745,0.596,20.637,0.715
			c20.773,0.36,21.88,27.624,17.929,44.41c-9.604-8.162-23.433-6.626-37.964-4.312c-0.318,0.051-0.715,0.088-1.05,0.137
			C142.517,47.531,142.435,38.685,142.367,30.281z M136.666,39.595c-2.287,0.168-4.784,1.133-6.882,1.544
			c-3.139,0.615-6.375,0.939-9.48,1.701c-0.134-1.837-0.286-3.673-0.386-5.513c-0.021-0.386-0.052-0.814-0.078-1.22
			c5.69,0.461,12.115-0.134,16.715-2.889C136.64,35.342,136.677,37.47,136.666,39.595z M120.723,48.849
			c-0.098-1.31-0.176-2.62-0.274-3.93c3.23,0.105,6.547-0.36,9.756-0.671c1.769-0.171,4.273-0.183,6.348-0.749
			c-0.041,1.35-0.044,2.706-0.118,4.049C131.182,47.557,125.902,47.974,120.723,48.849z M136.109,51.691
			c-0.127,1.542-0.193,3.105-0.364,4.63c-4.263,0.418-9.185,0.753-14.421,1.154c-0.125-1.696-0.227-3.394-0.354-5.09
			C126.018,51.767,131.04,51.75,136.109,51.691z M121.489,14.025c0.05-0.098,0.012-0.189,0.047-0.287
			c4.76,0.224,9.172,0.549,12.911,0.786c0.435,2.232,0.771,4.495,1.064,6.768c-2.887-0.228-5.807,0.608-8.712,0.913
			c-2.433,0.255-4.875,0.325-7.317,0.358C119.698,19.443,120.243,16.459,121.489,14.025z M126.8,25.801
			c2.973-0.035,6.304,0.07,9.075-1.105c0.167,1.652,0.352,3.302,0.46,4.964c-0.084,0.012-0.138-0.044-0.226-0.02
			c-2.941,0.818-5.654,2.112-8.664,2.776c-2.551,0.563-5.185,0.653-7.809,0.549c-0.154-2.281-0.244-4.713-0.241-7.138
			C121.863,25.824,124.332,25.83,126.8,25.801z M67.488,38.928c0.043,0.005,0.074-0.021,0.116-0.018
			c-0.126,2.946,0.556,6.058,1.603,8.559c1.271,3.037,5.703,1.985,5.019-1.383c-0.34-1.674-0.551-3.316-0.552-5.025
			c-0.001-1.44,0.645-2.631,0.936-4.005c0.462-2.185-1.324-4.003-3.158-4.214c3.7-17.254,25.473-19.699,44.495-19.295
			c-3.034,4.405-2.123,12.037-1.95,16.695c0.042,1.13,0.146,2.257,0.217,3.386c-0.225,0.47-0.216,0.951,0.086,1.342
			c0.566,7.648,1.717,15.264,2.915,22.837c-12.655,1.07-26.053,2.802-33.963,7.427c-3.04-9.438-9.694-14.894-17.46-16.976
			c0.002-0.03,0.029-0.04,0.028-0.071c-0.022-2.296-0.309-5.183-1.115-7.524C65.633,40.084,66.561,39.506,67.488,38.928z
			 M59.749,43.754c-0.168,0.888-0.41,1.763-0.707,2.637c-0.111,0.326-0.037,0.603,0.063,0.86c-1.795-0.047-3.604,0.016-5.416,0.282
			C55.71,46.273,57.729,45.014,59.749,43.754z M119.214,134.007c-3.947,3.004-8.571,5.91-12.274,0.942
			c-0.907-1.217-1.528-2.551-2.044-3.937c2.174,0.071,4.347,0.189,6.522,0.121c2.444-0.076,5.895,0.129,7.762-1.653
			c0.104-0.101,0.146-0.239,0.207-0.368C119.296,130.743,119.24,132.374,119.214,134.007z M119.446,128.05
			c-0.137-0.392-0.411-0.727-0.857-0.807c-2.323-0.413-4.831,0.725-7.171,1.008c-2.411,0.293-4.838,0.404-7.264,0.529
			c-0.412-1.754-0.102-3.571-0.466-5.277c5.197,1.088,11.365,1.609,16.281-0.013C119.737,125.009,119.553,126.528,119.446,128.05z
			 M142.939,174.15c-4.929,3.688-12.114,3.026-17.724,1.921c-8.393-1.652-3.727-11.102-2.135-15.979
			c4.367-13.381,1.972-24.869,1.501-38.607c-0.007-0.194-0.068-0.357-0.121-0.528c8.539,0.222,17.002,0.337,25.398-0.761
			C150.948,136.3,157.612,163.167,142.939,174.15z M176.614,95.69c-8.965,19.464-32.786,18.824-50.804,18.633
			c-22.702-0.242-43.69,5.254-65.877,5.667c-25.146,0.469-32.172-21.349-28.488-42.668c4.262-24.658,37.656-32.682,48.693-9.192
			c-0.839,2.379,0.711,5.472,3.74,4.407c14.234-5.001,31.49-4.107,46.415-6.878c4.411-0.906,8.829-1.776,13.254-2.61
			C157.623,60.337,195.458,54.778,176.614,95.69z"/>
	</g>
</g>
<g>
</g>
<g>
</g>
<g>
</g>
<g>
</g>
<g>
</g>
<g>
</g>
<g>
</g>
<g>
</g>
<g>
</g>
<g>
</g>
<g>
</g>
<g>
</g>
<g>
</g>
<g>
</g>
<g>
</g>
</svg>
