<?xml version="1.0" encoding="iso-8859-1"?>
<!-- Generator: Adobe Illustrator 16.0.0, SVG Export Plug-In . SVG Version: 6.00 Build 0)  -->
<!DOCTYPE svg PUBLIC "-//W3C//DTD SVG 1.1//EN" "http://www.w3.org/Graphics/SVG/1.1/DTD/svg11.dtd">
<svg version="1.1" id="Capa_1" xmlns="http://www.w3.org/2000/svg" xmlns:xlink="http://www.w3.org/1999/xlink" x="0px" y="0px"
	 width="193.296px" height="193.296px" viewBox="0 0 193.296 193.296" style="enable-background:new 0 0 193.296 193.296;"
	 xml:space="preserve">
<g>
	<g>
		<path d="M158.758,103.201c-0.096,0.005-0.16,0.054-0.252,0.062c-2.1-27.158-17.629-43.307-36.616-49.404
			c0-0.005,0.003-0.008,0.003-0.012c0.102-3.667,0.479-7.502,0.19-11.178c2.494,0.685,5.563,0.418,7.93,0.373
			c2.756-0.053,5.545-0.414,8.218-1.082c4.148-1.038,7.95-3.363,10.249-7.02c4.456-7.089,0.362-16.253-4.248-22.085
			c-5.473-6.923-13.554-12.13-22.478-12.803c-8.734-0.659-15.235,4.917-19.113,12.028C94.117,0.48,74.79-1.917,64.11,8.397
			C46.854,25.064,64.89,48.139,84.884,44.125c0.231,3.181,0.438,6.401,0.846,9.558c-21.588,6.493-40.085,24.708-42.145,53.566
			c-0.024,0.344,0.046,0.641,0.129,0.93c-21.52-0.533-48.327,8.08-41.174,34.207c4.644,16.962,19.75,23.707,36.646,26.016
			c-2.002,13.64,7.147,25.262,21.347,24.164c6.015-0.464,11.571-3.325,15.759-7.595c3.759-3.832,7.473-11.523,5.199-16.896
			c0.772-0.067,1.588-0.138,2.321-0.199c9.417-0.803,21.769-0.028,34.75,0.3c-0.837,11.765,5.055,23.559,17.962,25
			c15.154,1.692,21.617-14.854,20.325-27.184c-0.01-0.093-0.06-0.154-0.075-0.242c12.404-2.677,23.127-7.942,29.575-18.179
			C201.092,124.17,184.847,101.939,158.758,103.201z M118.341,27.323c-1.479-2.153-1.544-5.325-0.98-7.929
			c0.49,0.018,0.999-0.05,1.53-0.329c2.73-1.435,5.962-1.81,8.336,0.468c1.86,1.784,1.713,4.462,0.093,6.32
			C125.376,28.085,120.496,30.458,118.341,27.323z M124.274,35.801c-0.627-0.539-1.242-1.081-1.902-1.592
			c2.369-0.232,4.755-1.201,6.771-2.531c1.305,0.962,2.616,1.917,3.911,2.878c0.51,0.378,1.066,0.81,1.639,1.196
			C131.32,36.087,127.541,35.645,124.274,35.801z M143.232,29.4c-0.113,0.577-0.297,1.134-0.562,1.659
			c-0.979,1.934-2.456,3.051-4.173,3.757c-0.058-0.196-0.033-0.417-0.19-0.567c-1.195-1.152-2.908-1.654-4.39-2.443
			c-0.944-0.503-1.897-1.076-2.871-1.603c0.106-0.098,0.24-0.181,0.342-0.28c2.843-2.748,3.56-6.492,2.613-9.941
			C137.088,23.079,140.148,26.221,143.232,29.4z M138.599,16.932c0.777,0.927,1.555,2.011,2.251,3.183
			c-4.691-4.625-10.008-8.727-15.41-12.506C130.626,9.119,135.266,12.96,138.599,16.932z M119.879,6.982
			c2.074,1.712,4.107,3.454,6.071,5.25c-2.533-0.511-5.273-0.216-7.766,0.649c-1.759-1.109-3.512-2.232-5.11-3.625
			C115.055,7.984,117.308,7.17,119.879,6.982z M111.292,10.57c1.175,1.219,2.54,2.53,4.003,3.722
			c-0.903,0.772-1.084,1.854-0.761,2.846c-1.521,2.45-2.252,5.545-1.969,8.484c-2.151-2.278-4.204-4.65-6.085-7.145
			c-0.221-0.293-0.506-0.445-0.8-0.515c-0.037-0.103-0.068-0.208-0.104-0.311C107.159,14.931,109.043,12.47,111.292,10.57z
			 M99.172,21.44c1.2,3.418,5.451,3.103,6.747,0.637c2.391,3.344,5.076,6.449,7.998,9.358c1.724,1.717,3.552,3.748,5.504,5.612
			c-0.503,0.428-0.805,0.972-0.854,1.599c-0.674,0.028-1.326,0.286-1.877,0.718c-0.113-0.161-0.204-0.326-0.384-0.473
			c-7.854-6.398-15.363-14.137-23.624-20.576c-2.234-4.092-6.59-6.643-11.292-7.351c-1.264-0.657-2.539-1.29-3.855-1.845
			C86.151,7.533,96.422,13.608,99.172,21.44z M115.337,49.496c-3.343-3.298-7.81-5.883-11.503-8.572
			c-4.324-3.149-8.784-6.19-13.585-8.566c2.214-1.677,3.599-4.259,3.886-7.141c6.334,5.556,12.403,11.491,18.959,16.887
			c0.729,0.6,1.548,0.632,2.263,0.388C115.163,44.792,115.234,47.147,115.337,49.496z M75.421,21.035
			c-0.239-0.201-0.509-0.347-0.769-0.512c0.93-1.646,2.6-3.106,4.003-4.015c0.177,0.07,0.322,0.174,0.53,0.207
			c3.553,0.569,7.112,1.808,8.495,5.468c0.952,2.522,0.246,5.267-2.489,6.091c-3.398,1.026-9.011-0.451-10.788-3.635
			c-0.323-0.578-0.418-1.163-0.422-1.746c0.32-0.012,0.642,0.022,0.959-0.035C75.721,22.716,76.025,21.542,75.421,21.035z
			 M70.586,12.644c0.854-0.829,1.791-1.469,2.763-2.015c1.336,0.666,2.686,1.312,3.963,2.055c-0.183,0.508-0.296,1.044-0.25,1.578
			c-2.719,0.633-5.088,2.194-6.567,4.358c-0.283-0.121-0.57-0.233-0.844-0.374c-0.848-0.437-1.588-1.029-2.334-1.609
			C68.153,15.307,69.221,13.97,70.586,12.644z M82.342,38.286c-0.023-0.029-0.021-0.067-0.047-0.096
			c-3.073-3.211-8.191-4.945-11.893-7.538c-1.668-1.168-3.292-2.396-4.913-3.628c-0.662-2.354-0.569-4.934,0.434-7.586
			c1.013,0.862,2.096,1.647,3.232,2.25c-0.238,1.078-0.311,2.227-0.114,3.454c1.124,7.015,10.209,9.848,16.37,9.124
			c0.829-0.097,1.592-0.313,2.321-0.58c5.15,3.828,10.298,7.628,15.344,11.596c2.567,2.019,5.137,4.378,7.923,6.272
			c-3.869-0.467-7.793-0.545-11.709-0.289c-2.756-1.866-5.511-3.714-8.325-5.51c0.065-0.865,0.157-1.731,0.221-2.59
			c0.068-0.903-0.254-1.572-0.737-2.078c0.367-1.661-0.884-3.564-3.151-3.138C85.621,38.266,83.963,38.343,82.342,38.286z
			 M94.639,51.741c-1.42,0.203-2.838,0.427-4.245,0.734c0.14-1.231,0.211-2.474,0.317-3.715
			C91.995,49.792,93.304,50.778,94.639,51.741z M11.667,139.221c-1.913-8.273,1.278-16.93,12.507-21.398
			c0.821-0.327,1.664-0.58,2.495-0.873c-0.256,1.393,0.024,2.792,0.092,4.337c0.119,2.707-0.071,5.387-0.641,8.037
			c-1.411,6.562-5.72,9.816-12.447,8.389C12.517,137.466,11.762,138.327,11.667,139.221z M43.443,168.93
			c0.714,0.067,1.435,0.072,2.151,0.125c-0.093,0.254-0.181,0.517-0.131,0.849c0.709,4.657,5.486,9.212,8.673,12.349
			c1.143,1.125,2.772,2.723,4.527,3.672C49.2,186.558,44.604,177.85,43.443,168.93z M64.213,184.65
			c-0.077-0.795-0.731-1.567-1.578-1.588c0.372,0.01-0.27-0.242-0.514-0.438c-0.55-0.441-1.149-0.78-1.749-1.147
			c-1.727-1.057-3.25-2.451-4.726-3.822c-2.75-2.558-4.872-5.475-7.118-8.429c2.558,0.129,5.112,0.177,7.649,0.181
			c1.482,3.221,3.715,5.917,6.284,8.333c1.717,1.614,4.052,3.785,6.529,4.407C67.533,183.198,65.896,184.031,64.213,184.65z
			 M72.245,178.865c-0.143,0.216-0.335,0.389-0.492,0.593c-1.827-1.739-4.37-2.666-6.426-4.155
			c-2.222-1.608-4.192-3.689-5.819-5.944c2.764-0.047,5.485-0.146,8.132-0.279c1.648,2.607,3.587,5.248,6.025,6.778
			C73.317,176.874,72.895,177.881,72.245,178.865z M74.714,171.903c-0.833-0.74-1.681-1.47-2.432-2.287
			c-0.231-0.251-0.427-0.533-0.649-0.793c1.343-0.089,2.737-0.161,4.018-0.265C75.24,169.659,74.969,170.78,74.714,171.903z
			 M140.911,185.913c-2.643-2.181-5.833-3.741-8.693-5.628c-2.418-1.596-4.765-3.3-7.119-4.989
			c-0.436-1.597-0.771-3.238-0.979-4.863c3.929,2.792,7.904,5.52,11.805,8.354c2.593,1.884,5.012,3.988,7.457,6.051
			C142.632,185.284,141.799,185.632,140.911,185.913z M147.366,180.75c-0.595-0.284-1.326,0.01-1.725,0.586
			c-6.094-4.815-13.003-9.026-19.514-13.046c3.595,0.017,7.196-0.05,10.77-0.207c2.137,2.42,4.378,4.752,6.705,6.971
			c1.159,1.105,2.716,2.913,4.431,4.252C147.806,179.786,147.632,180.302,147.366,180.75z M149.503,174.925
			c-1.346-0.996-2.68-2.008-3.965-3.081c-1.541-1.286-3.059-2.626-4.538-4.003c3.051-0.209,6.079-0.48,9.033-0.893
			C150.228,169.564,150.054,172.314,149.503,174.925z M144.132,158.838c-19.882,2.613-40.309-0.246-60.32,1.4
			c-17.521,1.44-34.824,2.69-52.107-1.445c-9.845-2.356-17.445-10.173-19.814-18.578c0.188,0.29,0.47,0.536,0.911,0.655
			c6.825,1.841,12.825-0.027,16.454-6.25c2.489-4.269,5.177-14.625,1.998-19.17c5.21-1.52,10.538-2.663,15.795-3.951
			c0.893-0.219,1.21-0.939,1.136-1.641c0.657-0.338,1.178-0.92,1.349-1.804c5.22-27.026,22.462-47.605,50.847-50.671
			c29.675-3.206,48.327,19.753,50.482,47.196c0.193,2.469,2.203,3.725,4.134,3.742c0.333,1.657,1.545,3.068,3.762,2.977
			c1.988-0.082,3.916-0.021,5.764,0.181c-0.268,6.368,1.146,12.763,4.675,18.136c2.704,4.116,8.536,8.17,13.825,7.639
			C178.827,152.629,156.991,157.148,144.132,158.838z M179.254,130.709c-2.906-0.844-5.043-3.375-6.615-5.807
			c-2.387-3.69-3.478-8.186-3.723-12.611c9.167,2.342,15.368,8.752,15.015,18.961C182.377,131.137,180.826,131.167,179.254,130.709z
			"/>
		<path d="M94.095,83.351c-0.213-4.264,0.512-11.392-1.962-15.118c-1.021-1.538-3.035-1.975-4.491-1.087
			c-6.725-0.646-14.399,7.525-18.54,11.773c-6.705,6.88-12.978,15.665-15.774,24.935c-0.193,0.64-0.107,1.209,0.108,1.709
			c-1.067,1.793-0.243,4.655,2.523,4.804c12.155,0.647,31.258,5.076,37.281-9.596C95.316,95.712,94.358,88.632,94.095,83.351z
			 M77.949,103.977c-5.815,1.421-12.444,0.451-18.602,0.205c3.846-6.733,8.014-12.967,13.328-18.745
			c2.925-3.181,6.199-6.077,9.714-8.585c1.125-0.803,2.303-1.405,3.45-2.022c0.076,0.672,0.159,1.34,0.21,1.987
			c0.397,5.029,0.673,10.066,0.692,15.112C86.767,98.483,84.901,102.28,77.949,103.977z"/>
		<path d="M135.199,80.615c-8.013-7.529-20.18-12.806-31.178-13.265c-0.152-0.007-0.273,0.049-0.414,0.068
			c-1.637-0.562-3.752,0.299-3.649,2.449c0.486,10.251,0.493,24.02,6.262,32.931c6.26,9.668,22.191,7.002,29.476,0.078
			c0.061-0.058,0.081-0.119,0.136-0.177c0.811,0.561,1.904,0.707,2.944,0.229C148.464,98.488,140.004,85.131,135.199,80.615z
			 M110.974,95.388c-2.715-7.15-3.063-14.902-4.673-22.328c7.112,1.837,13.62,5.17,19.712,9.317
			c3.454,2.351,6.519,5.353,8.606,8.979c1.341,2.329,0.72,4.378,0.308,6.582c-0.707-0.405-1.538-0.63-2.402-0.505
			C124.704,98.565,115.106,106.271,110.974,95.388z"/>
		<path d="M95.229,120.599c-0.125,0.945-0.251,1.903-0.378,2.854c-0.502,0.222-0.956,0.551-1.256,1.073
			c-1.466,2.557-1.101,5.326-1.096,8.194c0.007,4.362,0.013,8.725,0.02,13.087c-0.026,0.497-0.075,0.997-0.096,1.492
			c-0.074,1.778,1.788,2.529,3.142,2.014c1.675,0.317,3.477-0.374,3.814-2.421c1.438-8.73,2.68-17.429,2.756-26.295
			C102.173,116.008,95.793,116.335,95.229,120.599z"/>
		<path d="M124.18,121.578c0.062-1.178-0.753-2.272-1.63-2.947c-0.878-0.676-2.021-0.568-3.005-0.237
			c-0.02,0.001-0.038-0.001-0.057-0.001c-2.006-0.604-4.093-0.474-5.438,1.421c-0.759,1.069-0.55,2.544,0,3.63
			c0.721,1.424,2.177,2.063,3.769,2.139c0.176,0.076,0.334,0.146,0.393,0.173c0.739,0.345,1.462,0.638,2.242,0.858
			C123.852,127.574,125.472,124.063,124.18,121.578z"/>
		<path d="M58.629,118.854c-2.634-0.221-5.37-0.124-8.01-0.01c-2.051-0.098-3.024,1.496-2.962,3.091
			c-0.062,1.596,0.911,3.189,2.962,3.091c0.153,0.008,0.311,0.009,0.465,0.015c0.484,0.287,1.063,0.343,1.637,0.049
			c1.975,0.062,3.965,0.089,5.908-0.074C62.597,124.682,62.597,119.187,58.629,118.854z"/>
	</g>
</g>
<g>
</g>
<g>
</g>
<g>
</g>
<g>
</g>
<g>
</g>
<g>
</g>
<g>
</g>
<g>
</g>
<g>
</g>
<g>
</g>
<g>
</g>
<g>
</g>
<g>
</g>
<g>
</g>
<g>
</g>
</svg>
