<?xml version="1.0" encoding="iso-8859-1"?>
<!-- Generator: Adobe Illustrator 16.0.0, SVG Export Plug-In . SVG Version: 6.00 Build 0)  -->
<!DOCTYPE svg PUBLIC "-//W3C//DTD SVG 1.1//EN" "http://www.w3.org/Graphics/SVG/1.1/DTD/svg11.dtd">
<svg version="1.1" id="Capa_1" xmlns="http://www.w3.org/2000/svg" xmlns:xlink="http://www.w3.org/1999/xlink" x="0px" y="0px"
	 width="189.7px" height="189.7px" viewBox="0 0 189.7 189.7" style="enable-background:new 0 0 189.7 189.7;" xml:space="preserve"
	>
<g>
	<g>
		<path d="M185.927,120.566c-1.462-1.1-3.213-1.667-5.031-1.995c7.744-26.085,0.669-57.156,0.521-83.803
			c-0.012-2.129-1.746-3.822-3.856-3.857c-13.799-0.229-27.58-1.066-41.361-1.911c-0.097-0.392-0.159-0.791-0.258-1.182
			c-0.295-1.153-2.204-0.938-2.106,0.285c0.021,0.252,0.039,0.505,0.06,0.757c-20.089-1.229-40.175-2.398-60.301-1.624
			c-2.467,0.095-3.787,2.17-3.407,4.472c4.632,28.012-0.601,55.946-0.124,84.061c-2.686-1.362-5.939-2.082-9.798-1.893
			c-0.055,0.003-0.09,0.029-0.144,0.033c-0.54-0.268-1.066-0.472-1.598-0.698c0.105-0.264,0.269-0.512,0.363-0.778
			c0.461-1.301-1.328-2.201-2.233-1.3c-0.33,0.328-0.607,0.713-0.92,1.06c-11.295-3.402-20.242,2.587-24.864,11.519
			c-1.848-0.75-4.032-1.427-6.305-2.025c3.513-3.128,0.9-11.851-1.186-15.102c-2.441-3.805-6.288-5.186-10.326-5.062
			c0.384-2.994,1.154-6.002,2.705-9.137c4.047-8.181,11.179-14.923,17.557-21.285c3.894-3.884,7.85-8.318,13.182-10.154
			c6.517-2.244,15.027-0.987,21.765-0.968c5.01,0.015,5.009-7.765,0-7.77c-17.994-0.017-27.386,0.604-40.342,13.495
			C13.604,79.947-1.683,98.85,9.215,119.75c0.16,0.307,0.42,0.434,0.661,0.594c-6.34,0.978-10.943,4.747-9.661,13.811
			c0.137,0.967,1.123,1.71,1.98,1.98c7.162,2.261,17.196,4.653,25.281,3.284c0.445,8.45,4.544,16.6,13.447,20.858
			c14.876,7.117,31.188-2.248,36.726-16.741c0.065-0.17,0.091-0.347,0.153-0.517c6.376-0.045,12.909-0.986,19.138-1.243
			c11.422-0.47,22.975-0.188,34.087,2.518c3.246,6.261,9.296,11.007,18.353,11.53c12.227,0.707,20.326-7.36,23.579-17.115
			c0.917,0.333,1.928,0.513,3.12,0.655c2.052,0.248,4.253-0.142,6.16-0.909c3.57-1.436,6.386-4.389,7.227-8.194
			C190.281,126.58,188.94,122.833,185.927,120.566z M19.571,110.073c0.728,1.873,0.895,3.874,0.881,5.864
			c-0.013,1.812-0.421,3.358,0.297,4.89c-2.85-0.524-5.762-0.85-8.478-0.718c0.382-0.348,0.675-0.786,0.681-1.368
			c0.052-4.764-0.355-9.134-0.214-13.438C15.731,105.406,18.254,106.685,19.571,110.073z M27.752,133.481
			c-3.423-0.074-6.921,0.259-10.338,0.006c-4.001-0.297-7.93-1.189-11.781-2.303c0.172-9.566,17.087-6.404,23.902-4.546
			C28.688,128.824,28.091,131.132,27.752,133.481z M35.193,134.008c2.378-3.39,4.821-6.727,7.507-9.889
			c1.819-2.142,3.875-3.967,5.939-5.786c0.889-0.159,1.797-0.273,2.726-0.322c-1.363,2.108-2.666,4.264-4.067,6.276
			c-3.817,5.486-7.918,10.775-12.116,15.976C34.923,138.185,34.956,136.064,35.193,134.008z M35.904,143.682
			c4.033-4.546,7.936-9.195,11.621-14.03c2.768-3.631,5.97-7.418,8.467-11.466c0.352,0.044,0.699,0.05,1.053,0.105
			c0.385,1.3,1.451,2.437,3.22,2.649c0.126,0.015,0.234,0.047,0.358,0.063c-3.998,3.316-7.298,7.964-10.572,11.728
			c-4.128,4.745-8.428,9.229-13.314,13.12C36.422,145.147,36.129,144.43,35.904,143.682z M37.896,147.957
			c4.902-3.199,9.137-7.349,13.149-11.609c4.409-4.683,9.447-9.312,13.471-14.369c1.325,0.52,2.394,1.229,3.335,2.026
			c-4.802,3.153-8.814,8.22-12.56,12.326c-4.619,5.063-9.066,10.289-13.537,15.483C40.168,150.764,38.875,149.47,37.896,147.957z
			 M53.229,154.605c3.482-3.047,6.896-6.167,10.267-9.343c2.282-2.151,4.785-4.228,7.175-6.397
			C68.266,146.42,61.581,153.669,53.229,154.605z M61.069,142.835c-3.77,3.992-7.579,7.936-11.54,11.732
			c-1.942-0.223-3.939-0.758-5.973-1.754c4.409-4.04,8.515-8.396,12.66-12.702c4.392-4.561,9.66-8.512,14.054-13.057
			c0.849,1.594,1.257,3.409,1.344,5.315C67.696,135.307,64.345,139.367,61.069,142.835z M94.652,34.592
			c6.187,0.133,13.244,0.316,20.53,0.555c-0.983,20.277-0.218,40.359-0.339,60.66c-0.046,7.711-2.123,20.295,1.851,27.471
			c-5.227-0.191-10.476-0.227-15.608-0.512c-0.519-0.029-1.065-0.078-1.592-0.113c0.294-0.375,0.587-0.749,0.88-1.124
			c1.113-1.421,0.16-4.249-2.001-3.437c3.774-1.418,1.553-13.278,1.402-18.998c-0.254-9.598,1.045-19.153,0.052-28.733
			C98.835,60.813,92.521,44.991,94.652,34.592z M76.704,122.054c-0.656-1.114-1.447-2.126-2.329-3.058
			c0.015-0.09,0.059-0.159,0.066-0.256c1.885-28.172,6.279-56.27,3.046-84.427c3.192,0.027,7.894,0.093,13.509,0.203
			c-2.351,7.188,1.287,19.51,2.047,24.97c2.769,19.874-3.493,43.373,2.127,62.233c0.074,0.248,0.264,0.443,0.419,0.656
			C89.342,121.887,82.829,121.341,76.704,122.054z M104.482,136.413c-8.004,0.203-17.046,0.308-25.407,1.735
			c0.706-4.039,0.587-8.089-0.478-11.697c7.399,1.026,15.175,1.045,22.488,1.595c8.886,0.67,18.321,2.161,27.256,1.218
			c-0.312,2.858-0.165,5.785,0.421,8.605C120.794,136.373,112.627,136.207,104.482,136.413z M129.312,124.31
			c-2.41-0.366-4.854-0.604-7.314-0.775c0.048-0.114,0.161-0.201,0.186-0.322c0.083-0.4,0.166-0.802,0.249-1.203
			c0.184-0.884-0.245-1.771-0.898-2.343c0.123-0.437,0.081-1.032-0.302-1.957c-0.35-3.093-0.44-6.222-0.583-9.33
			c-0.226-4.919-0.282-9.848-0.343-14.771c-0.234-19.389-1.633-38.992-2.876-58.388c5.67,0.192,11.43,0.423,17.012,0.688
			c0.948,12.054,1.859,24.113,2.598,36.18c0.726,11.88-0.42,24.984,2.296,36.605c0.513,2.197,3.992,2.245,4.476,0
			c2.461-11.461-0.356-25.073-1.369-36.605c-1.059-12.048-2.311-24.149-4.694-36.02c7.599,0.387,14.708,0.847,20.586,1.387
			c-3.454,9.733-2.789,21.396-3.136,31.431c-0.271,7.826-0.323,15.664-0.519,23.492c-0.067,2.724-1.254,14.511,0.411,13.741
			c-0.525,0.243-0.852,0.631-1.011,1.075c-1.294,0.02-2.641,0.116-4.064,0.328c-1.25,0.186-1.939,1.027-2.219,2.029
			C138.001,109.945,131.765,116.368,129.312,124.31z M135.469,127.146c2.769-1.519,5.35-3.309,7.88-5.317
			c2.877-2.281,5.996-4.788,8.799-7.457c0.477-0.061,0.938-0.165,1.422-0.203c0.077-0.006,0.137-0.044,0.21-0.057
			c0.08,0.004,0.148,0.024,0.228,0.029c-2.885,2.786-5.596,5.842-8.568,8.484c-3.44,3.06-6.973,6.01-10.461,9.011
			C134.936,130.01,135.144,128.538,135.469,127.146z M135.41,135.52c4.255-3.383,8.532-6.735,12.712-10.212
			c3.663-3.047,7.76-6.333,10.704-10.229c1.563,0.531,2.931,1.303,4.116,2.268c-0.144-0.005-0.284-0.043-0.426,0.005
			c-4.501,1.52-8.512,6.579-12.042,9.625c-4.704,4.06-9.37,8.187-13.58,12.756C136.26,138.397,135.735,136.994,135.41,135.52z
			 M138.958,143c0.026-0.288,0.015-0.565-0.037-0.85c4.12-4.032,8.469-7.828,12.933-11.471c3.845-3.139,10.642-6.701,12.436-11.555
			c0.061-0.164,0.026-0.324,0.014-0.486c0.882,0.994,1.551,2.197,2.096,3.516c-5.031,2.618-9.329,7.396-13.617,11.005
			c-4.301,3.62-8.604,7.236-12.842,10.926C139.604,143.731,139.28,143.366,138.958,143z M150.904,148.325
			c-0.027,0.002-0.051-0.002-0.079,0c3.099-2.466,6.264-4.849,9.492-7.16c1.701-1.218,3.517-2.422,5.313-3.663
			C162.897,143.302,157.565,147.725,150.904,148.325z M167.538,130.282c-3.307,2.445-6.379,5.36-9.54,7.876
			c-3.934,3.131-7.741,6.392-11.394,9.83c-1.539-0.381-2.95-1.015-4.221-1.857c3.768-2.986,7.541-5.963,11.34-8.908
			c4.395-3.408,9.983-6.779,13.756-11.135c0.134,1.038,0.189,2.143,0.159,3.317C167.629,129.701,167.558,129.987,167.538,130.282z
			 M172.688,118.864c-2.338-5.636-6.904-9.976-13.839-11.262c4.728-11.885,1.458-58.933,2.518-69.846
			c7.561,0.797,12.433,1.754,12.457,2.896c0.53,26.142,3.576,51.739,1.084,77.843C174.159,118.603,173.399,118.692,172.688,118.864z
			 M184.444,129.243c-0.513,2.168-2.146,3.793-4.07,4.785c-1.304,0.673-2.852,0.818-4.292,0.873
			c-0.703,0.027-1.388-0.054-2.078-0.127c0.729-3.769,0.769-7.638,0.066-11.249C178.476,123.009,185.901,123.071,184.444,129.243z"
			/>
		<path d="M61.097,65.425c-0.025-2.063-2.259-4.258-4.427-3.373c-6.544,2.669-12.13,6.688-17.323,11.444
			c-3.809,3.487-11.471,10.255-11.253,15.92c0.063,1.631,1.483,2.889,3.009,2.816c0.146,0.15,0.287,0.301,0.522,0.439
			c1.903,1.114,4.63,1.337,6.758,1.645c5.901,0.856,11.932,0.955,17.883,1.158c1.428,0.049,2.975-1.062,3.271-2.49
			C61.405,83.973,61.208,74.582,61.097,65.425z M35.415,88.522c0.114-0.18,0.221-0.347,0.343-0.538
			c1.718-2.686,3.902-5.057,6.097-7.354c3.517-3.682,7.611-7.091,12.114-9.631c-0.122,5.936-0.378,11.854-0.868,17.777
			c-3.771,0.107-7.543,0.183-11.317,0.111C39.672,88.846,37.523,88.764,35.415,88.522z"/>
	</g>
</g>
<g>
</g>
<g>
</g>
<g>
</g>
<g>
</g>
<g>
</g>
<g>
</g>
<g>
</g>
<g>
</g>
<g>
</g>
<g>
</g>
<g>
</g>
<g>
</g>
<g>
</g>
<g>
</g>
<g>
</g>
</svg>
