<?xml version="1.0" encoding="iso-8859-1"?>
<!-- Generator: Adobe Illustrator 16.0.0, SVG Export Plug-In . SVG Version: 6.00 Build 0)  -->
<!DOCTYPE svg PUBLIC "-//W3C//DTD SVG 1.1//EN" "http://www.w3.org/Graphics/SVG/1.1/DTD/svg11.dtd">
<svg version="1.1" id="Capa_1" xmlns="http://www.w3.org/2000/svg" xmlns:xlink="http://www.w3.org/1999/xlink" x="0px" y="0px"
	 width="191.312px" height="191.312px" viewBox="0 0 191.312 191.312" style="enable-background:new 0 0 191.312 191.312;"
	 xml:space="preserve">
<g>
	<g>
		<path d="M159.361,50.15c-0.611-3.657-5.095-3.765-7.396-1.953C138.99,58.415,124.746,67.298,110.259,75.3
			c1.119-2.838,2.412-5.966,1.032-8.435c-0.528-0.945-1.37-1.445-2.28-1.735c0.164,0.008,0.327,0.019,0.491,0.026
			c2.059,0.297,4.117,0.54,6.18,0.39c2.373,0.24,4.367-2.168,4.367-4.367c0-2.612-2.006-4.06-4.367-4.367
			c-0.482-0.063-0.962-0.145-1.443-0.217c-0.752-0.896-1.886-1.5-3.416-1.495c-2.603,0.008-5.205,0.017-7.809,0.025
			c-2.764,0.009-4.191,1.96-4.406,4.065c-0.113,0.132-0.215,0.272-0.302,0.425c-0.42,0.461-0.582,1.007-0.546,1.563
			c-0.036,0.551,0.12,1.092,0.529,1.55c0.479,0.85,1.384,1.355,2.453,1.661c-0.438,0.649-0.762,1.411-0.736,2.419
			c-0.104,4.223-0.182,8.444-0.215,12.668c0,0.155,0.066,0.259,0.078,0.406c-6.526,0.449-12.948,0.882-19.459,0.958
			c0.01-0.065,0.001-0.133,0.008-0.199c0.849-3.032,0.59-6.605,0.4-9.872c1.008,0.119,2.019,0.174,3.067-0.026
			c3.364-0.643,3.977-5.037,1.914-7.252c-0.141-0.152-0.335-0.249-0.49-0.386c-0.593-1.006-1.635-1.691-3.022-1.816
			c-0.143-0.028-0.236-0.104-0.388-0.122c-0.341-0.04-0.691-0.025-1.033-0.056c-3.842-0.775-8.513-0.327-11.635-0.296
			c-1.638-0.016-2.775,0.704-3.505,1.712c-2.995,0.951-2.978,4.844,0.051,5.761c0.735,0.98,1.862,1.68,3.454,1.697
			c0.842,0.009,1.681,0.066,2.521,0.084c-0.17,3.029-0.49,6.385,0.035,9.369c0.009,0.406-0.028,0.801,0.01,1.215
			c-1.78-0.089-3.529-0.116-5.353-0.291c-4.609-0.442-10.609-1.785-16.588-2.515c0.874-2.227,0.736-5.258,0.886-7.373
			c0.176-2.487,0.318-4.985,0.408-7.482c0.866-0.002,1.732-0.005,2.598-0.007c5.796,0.686,6.083-9.227,0-9.244
			c-1.064-0.003-2.128-0.006-3.192-0.009c-4.802-0.937-10.565-0.054-15.107-0.042c-2.114-0.006-3.442,1.164-4.073,2.655
			c-0.335,0.108-0.678,0.189-1.009,0.312c-3.289,1.212-2.973,6.389,0.859,6.344c1.181-0.014,2.355-0.064,3.53-0.104
			c0.241,0.034,0.429,0.139,0.693,0.139c2.008,0.006,4.261,0.183,6.561,0.302c-0.109,1.795-0.243,3.588-0.387,5.378
			c-0.132,1.645-0.283,3.29-0.449,4.932c-0.151,1.495-0.875,3.64-0.139,2.056c-0.09,0.583-0.095,1.159-0.012,1.735
			c-3.128,0.161-6.046,0.722-8.474,2.022c-0.904-0.506-1.974-0.628-2.934,0.075c-0.183,0.134-0.314,0.308-0.477,0.458
			c-5.305-5.069-10.831-9.888-16.811-14.158c-2.422-1.729-5.631,0.139-6.445,2.622c-5.035,15.371-8.85,34.593-2.719,50.165
			c1.097,2.787,3.577,3.739,6.3,2.563c6.161-2.663,11.983-5.905,17.735-9.321c-0.911,11.83-1.819,27.003,6.451,35.49
			c10.058,10.32,27.71,10.936,41.162,10.666c18.602-0.373,57.502-13.638,50.199-34.484c6.785,4.956,13.96,9.494,20.119,15.172
			c2.051,1.892,4.57,1.207,5.988-0.394c1.522-0.521,2.727-1.832,2.688-3.941C153.293,105.917,164.119,78.669,159.361,50.15z
			 M26.633,102.407c-0.127,0.061-0.247,0.054-0.375,0.129c-5.368,3.147-10.684,6.29-16.253,9.005
			c-2.699-11.371-0.465-24.008,2.722-35.32c4.707,2.747,9.366,5.569,14.078,8.317c-0.509,2.416-0.483,5.097-0.627,7.283
			C25.941,95.411,26.087,98.928,26.633,102.407z M32.197,109.772c3.346-0.264,6.677-0.347,10.004-0.373
			c-0.643,0.202-1.281,0.397-1.911,0.551c-2.643,0.644-5.345,1.004-8.049,1.306C32.225,110.762,32.214,110.252,32.197,109.772z
			 M32.35,114.979c2.186-0.027,4.366-0.183,6.543-0.477c1.837-0.249,3.977-0.366,6.008-0.724c-0.442,1.528-0.564,2.994-0.53,4.424
			c-1.48,0.515-2.957,1.051-4.462,1.466c-2.394,0.66-4.842,1.037-7.304,1.313C32.48,118.964,32.406,116.949,32.35,114.979z
			 M32.913,124.803c4.129-0.138,8.453-0.615,12.403-1.831c0.405,1.055,1.003,2.046,1.627,3.024c-1.836,1.188-3.64,2.443-5.511,3.547
			c-2.255,1.331-4.593,2.517-6.893,3.766C33.744,130.629,33.223,127.76,32.913,124.803z M37.077,139.268
			c-0.638-1.037-1.18-2.15-1.652-3.316c2.232-0.917,4.463-1.843,6.676-2.795c2.524-1.086,5.236-2.165,7.588-3.695
			c0.699,0.725,1.472,1.406,2.267,2.073c-2.398,1.051-4.562,2.869-6.705,4.281c-2.397,1.578-4.884,3.018-7.369,4.456
			C37.626,139.92,37.309,139.646,37.077,139.268z M48.433,147.398c-3.009-0.98-5.812-2.341-8.107-4.376
			c2.367-1.151,4.698-2.372,7.029-3.606c2.608-1.379,5.915-2.695,7.825-5.018c0.085-0.104,0.078-0.236,0.14-0.35
			c0.342,0.225,0.724,0.395,1.074,0.609c-0.046,0.054-0.11,0.052-0.154,0.112c-1.996,2.81-3.161,6.15-5.049,9.056
			C50.364,145.101,49.417,146.267,48.433,147.398z M63.408,138.404c-1.599,2.044-1.787,4.65-2.296,7.15
			c-0.271,1.334-0.514,2.651-0.728,3.973c-2.565-0.199-5.179-0.496-7.728-1.008c3.435-3.418,6.333-7.494,7.172-11.914
			c1.239,0.617,2.502,1.178,3.769,1.685C63.539,138.345,63.462,138.334,63.408,138.404z M67.336,149.899
			c-1.05-0.041-2.217-0.125-3.327-0.18c0.29-0.707,0.592-1.399,0.866-2.133c0.876-2.346,2.487-5.053,2.4-7.583
			c-0.006-0.17-0.124-0.311-0.172-0.474c1.204,0.382,2.383,0.687,3.542,0.96c-0.315,1.343-0.085,2.782-0.011,4.263
			c0.085,1.707,0.153,3.421,0.286,5.126C69.725,149.878,68.523,149.946,67.336,149.899z M82.048,142.658
			c-0.415,2.214-0.599,4.441-0.61,6.68c-1.811,0.211-3.625,0.39-5.442,0.488c0.13-1.688,0.197-3.383,0.281-5.071
			c0.058-1.168,0.205-2.309,0.122-3.399c1.962,0.127,3.935,0.07,5.885-0.119C82.207,141.716,82.133,142.204,82.048,142.658z
			 M85.629,148.705c0.307-1.601,0.679-3.19,1.111-4.753c0.239-0.866,0.617-1.809,0.965-2.765c1.327,2.092,2.803,4.297,4.557,6.088
			C90.073,147.833,87.863,148.327,85.629,148.705z M74.987,133.3c-9.454-0.834-19.796-5.138-23.678-13.23
			c0.754-1.108,0.121-2.646-1.113-3.121c-0.403-1.654-0.584-3.423-0.445-5.338c0.496-0.717,0.487-1.514,0.06-2.19
			c15.698,0.395,31.275,2.361,46.955,3.184c1.131,6.53,2.867,13.041-3.55,17.564C88.086,133.786,80.965,133.828,74.987,133.3z
			 M100.285,144.735c-0.269,0.105-0.553,0.167-0.822,0.27c-0.07-0.159-0.092-0.314-0.188-0.474
			c-0.639-1.061-1.732-1.223-2.673-0.824c-0.488-0.347-0.937-0.754-1.348-1.175c-0.565-0.578-1.032-1.245-1.535-1.879
			c2.414-0.063,4.829,0.013,7.253,0.271c1.816,0.194,3.604,0.617,5.398,0.961C104.56,142.889,102.544,143.839,100.285,144.735z
			 M112.072,137.742c-3.987-1.75-8.892-2.417-13.729-2.403c2.456-1.792,4.489-3.96,5.944-6.443c1.527,2.242,4.941,3.553,7.209,4.672
			c0.844,0.416,1.775,0.922,2.736,1.354C113.642,135.905,112.957,136.855,112.072,137.742z M110.992,116.129
			c-0.709-0.047-1.414-0.138-2.133-0.109c-0.457,0.018-1.115,0.079-1.519,0.314c-0.155,0.091-0.218,0.142-0.253,0.178
			c-0.079,0.003-0.155-0.021-0.245-0.002c-0.192,0.04-0.349,0.155-0.476,0.304c-0.209-1.271-0.506-2.567-0.985-3.918
			c1.903,0.032,3.805,0.098,5.714,0.073C110.513,113.857,110.382,114.981,110.992,116.129z M113.76,128.199
			c-2.491-0.898-4.882-2.044-7.344-2.992c-0.192-0.074-0.344,0.005-0.524-0.011c0.654-2.121,0.863-4.437,0.646-6.896
			c0.144,0.096,0.3,0.167,0.455,0.234c1.043,1.295,3.152,1.652,4.672,2.043c0.699,0.179,1.422,0.366,2.14,0.551
			c1.368,2.855,2.093,5.451,2.108,7.783C115.193,128.674,114.471,128.456,113.76,128.199z M142.361,87.381
			c-1.463,11.623-3.74,23.162-5.123,34.795c-7.604-4.973-15.609-9.398-22.627-15.209c-0.607-1.007-1.621-1.787-3.151-1.864
			c-26.111-1.323-53.451-6.969-79.127-0.018c-0.117-0.368-0.236-0.73-0.437-1.061c0.173-3.616,0.663-7.255,1.04-10.82
			c0.29-2.746,1.794-6.637,1.697-9.757c9.855,4.65,26.053,4.165,36.183,5.281c11.922,1.314,30.463,3.979,40.783-3.792
			c1.604-1.208,1.813-3.77,0.519-5.007c11.263-4.109,21.639-9.274,31.601-15.544C142.059,71.332,143.158,81.052,142.361,87.381z"/>
		<path d="M172.597,126.692c-2.041-0.072-4.082-0.165-6.121-0.271c-1.043-0.054-2.386,0.2-3.03,0.146
			c0.006,0.014,0.012,0.027,0.018,0.042c-0.379-0.007-0.745,0.036-1.123,0.258c-1.346,0.79-1.502,3.034,0,3.782
			c2.461,1.227,5.818,1.463,8.816,1.889c2.858,0.406,9.525,2.502,10.658-1.616C183.181,125.958,175.275,126.787,172.597,126.692z"/>
		<path d="M186.754,106.939c-2.047-2.304-6.83-0.614-9.418-0.173c-1.694,0.287-3.395,0.548-5.055,0.994
			c-0.584,0.157-1.147,0.383-1.682,0.665c-0.309,0.163-0.436,0.241-0.488,0.281c-0.01,0.003-0.002,0-0.013,0.003
			c-1.967,0.685-1.551,3.36,0.478,3.536c0.232,0.021,0.477,0.172,0.022-0.055c0.608,0.304,1.222,0.362,1.89,0.429
			c1.651,0.165,3.346-0.033,4.998-0.108c2.455-0.11,7.508,0.714,9.267-1.374C187.845,109.843,187.9,108.227,186.754,106.939z"/>
		<path d="M187.486,88.303c-2.615-1.781-8.088,0.501-10.885,1.147c-2.211,0.511-7.304,1.056-8.205,3.549
			c-0.381,1.054,0.426,2.038,1.352,2.381c0.271,0.1,0.553,0.097,0.83,0.068c0.338-0.035,0.586-0.244,0.847-0.427
			c-0.511,0.391-0.835,0.295,0.019,0.265c0.691-0.025,1.366-0.077,2.055-0.154c1.857-0.207,3.719-0.385,5.576-0.586
			c2.916-0.316,6.617,0.058,8.981-1.812C189.578,91.53,188.836,89.222,187.486,88.303z"/>
		<g>
			<path d="M188.908,69.979c-0.401-0.008-1.047-0.021-1.188-0.009c-0.879,0.076-1.658,0.402-2.481,0.693
				c-2.105,0.743-4.268,1.308-6.401,1.959c-2.507,0.764-6.054,1.264-7.925,3.22c-0.52,0.544-0.361,1.321,0.224,1.73
				c0.246,0.172,0.562,0.183,0.851,0.185c0.113,0.001,0.16-0.081,0.256-0.106c0.084,0.022,0.199,0.052,0.391,0.114
				c0.682,0.222,1.47,0.088,2.169,0.057c2.19-0.096,4.412-0.401,6.585-0.684c2.855-0.373,9.148-0.27,9.871-4.043
				C191.562,71.505,190.578,70.058,188.908,69.979z"/>
			<path d="M188.877,69.971c0.012,0,0.019,0.007,0.031,0.008C189.257,69.986,189.422,69.99,188.877,69.971z"/>
		</g>
		<path d="M186.768,51.601c-4.529,0.723-8.727,2.594-13.375,2.907c-3.134,0.211-3.179,4.787,0,4.9
			c4.977,0.177,12.008,0.007,15.939-3.401C191.541,54.092,189.105,51.228,186.768,51.601z"/>
		<path d="M183.246,33.245c-4.041-0.026-8.727,3.821-11.67,6.39c-1.914,1.671-3.278,4.251-2.184,6.755
			c0.631,1.442,2.956,0.407,2.51-1.058c-0.31-1.02,3.567-2.92,4.375-3.356c2.782-1.5,6.564-2.068,8.807-4.295
			C186.703,36.073,185.5,33.259,183.246,33.245z"/>
	</g>
</g>
<g>
</g>
<g>
</g>
<g>
</g>
<g>
</g>
<g>
</g>
<g>
</g>
<g>
</g>
<g>
</g>
<g>
</g>
<g>
</g>
<g>
</g>
<g>
</g>
<g>
</g>
<g>
</g>
<g>
</g>
</svg>
