<?xml version='1.0' encoding='iso-8859-1'?>
<!DOCTYPE svg PUBLIC '-//W3C//DTD SVG 1.1//EN' 'http://www.w3.org/Graphics/SVG/1.1/DTD/svg11.dtd'>
<svg version="1.1" xmlns="http://www.w3.org/2000/svg" viewBox="0 0 428.339 428.339" xmlns:xlink="http://www.w3.org/1999/xlink" enable-background="new 0 0 428.339 428.339">
  <g>
    <path d="m204.162,122.124c0-3.425-0.409-6.703 0.091-9.835 0.857-5.37 4.895-8.573 10.841-9.392 5.64-0.777 9.14,1.623 10.842,7.008 1.316,4.164 2.827,8.267 4.083,11.907 15.91,1.639 31.556,1.772 46.497,5.088 34.304,7.615 65.862,21.012 89.357,48.926 11.152,13.25 22.857,25.962 29.371,42.464 5.002,12.673 6.258,25.741 5.164,39.069-0.344,4.19-2.432,8.237-3.867,12.814-3.377-0.59-5.8-1.075-8.243-1.429-16.696-2.423-32.215,0.508-46.308,10.11-6.926,4.718-9.18,4.737-13.281-2.195-3.955-6.683-9.306-8.548-16.495-8.662-14.61-0.23-28.801,0.18-40.086,11.575-2.973,3.002-6.762,2.645-9.921-0.33-2.144-2.018-4.124-4.212-6.153-6.35-6.575-6.932-14.509-9.522-25.305-7.636 1.454,13.269 2.444,26.352 4.395,39.29 4.481,29.71 4.243,59.359 0.711,89.134-2.013,16.967-11.037,27.826-26.908,32.895-15.23,4.865-28.182-0.914-39.865-10.311-6.539-5.259-10.875-12.307-12.101-20.535-2.435-16.348-4.25-32.791-6.156-49.213-0.539-4.646 1.826-8.099 6.328-9.065 6.457-1.386 13.041-2.259 19.608-3.037 4.598-0.545 6.881,1.869 6.653,6.516-0.235,4.783 0.048,9.678-0.897,14.32-1.855,9.114 0.802,17.517 3.042,26.034 1.11,4.22 3.249,7.154 8.366,7.208 5.199,0.055 7.102-3.061 8.371-7.181 4.159-13.51 5.934-27.321 4.981-41.438-1.462-21.653-2.995-43.3-4.554-65.755-6.727,4.629-13.12,3.315-19.423-1.412-11.738-8.803-45.357-3.434-56.29,7.172-9.073,8.8-10.565,8.975-20.499,0.804-12.78-10.512-26.103-12.595-41.11-6.221-2.36,1.002-4.848,1.916-7.363,2.291-4.721,0.703-7.716-1.875-8.139-6.643-0.096-1.08 0.182-2.192 0.27-3.291 2.441-30.8 10.529-59.324 32.423-82.545 16.828-17.849 35.794-32.466 57.599-44.094 17.286-9.219 34.651-15.819 54.323-16.01 3.217-0.031 6.42-1.328 9.648-2.045zm-51.76,66.815l-.208-.223c-5.23,4.936-10.432,9.902-15.702,14.795-3.39,3.148-7.183,6.052-5.67,12.378 5.5-3.912 10.352-7.364 15.204-10.816-0.877,3.461-2.841,5.655-5.259,7.073-11.825,6.932-16.613,18.078-18.791,30.8-1.637,9.563-3.066,19.162-4.588,28.744 0.857,0.458 1.713,0.917 2.57,1.375 9.229-10.461 18.518-20.849 30.37-28.102 0.887,0.931 1.775,1.862 2.662,2.792-6.096,4.895-12.193,9.79-18.289,14.685 18.599-2.895 36.19-6.017 53.552,1.949-1.471-22.21-2.992-43.343-4.236-64.492-1.286-21.856 3.944-42.773 11.227-63.967-23.658,5.872-52.67,37.725-55.224,59.709 4.274-2.313 8.328-4.507 12.382-6.7zm109.355,75.405c3.254-17.053 1.287-32.664-0.672-48.262-3.142-25.007-9.722-48.966-21.344-71.485-4.44-8.603-10.081-14.229-20.612-13.229-5.404,0.513-10.898,0.09-15.632,0.09-17.503,33.545-15.335,67.892-12.468,103.281 3.003-1.687 5.235-2.941 7.468-4.195-8.215,9.723-8.215,9.723-5.367,14.811 9.137-6.983 18.311-13.994 27.485-21.004 0.46,0.541 0.92,1.082 1.38,1.623-2.518,2.345-4.95,4.793-7.573,7.015-6.458,5.471-13.116,10.712-19.425,16.348-1.361,1.216-1.591,3.697-2.341,5.596 7.93-3.242 12.568-10.128 20.612-11.505-3.116,3.79-7.01,6.679-10.052,10.288-2.89,3.428-10.471,3.573-8.083,12.334 7.794-4.267 14.976-8.199 20.458-11.201 4.044,0.91 6.919,2.482 9.319,1.943 12.99-2.92 24.758-0.233 36.847,7.552zm71.301,.402c0.861-14.221-0.585-23.836-4.63-35.451-8.67-24.898-21.171-47.838-37.732-68.157-7.504-9.207-17.614-16.554-27.405-23.533-5.799-4.133-13.414-4.936-21.561-3.495 22.378,42.278 29.949,86.889 26.813,133.625 33.359-12.316 47.995-9.581 64.515-2.989zm-245.389-33.379c0.487,0.567 0.974,1.134 1.461,1.702-7.57,6.975-15.099,13.995-22.728,20.907-3.853,3.49-6.007,7.182-2.274,13.439 16.434-8.833 31.979-4.776 48.009,5.538 0.335-21.579 5.672-40.33 11.914-58.654 9.992-29.334 24.166-56.236 50.734-74.482 1.122-0.77 2.062-1.804 5.051-4.462-17.119,1.418-29.998,7.42-42.175,14.557-9.66,5.661-18.52,12.733-27.501,19.49-4.672,3.515-10.556,6.918-12.785,11.792-2.656,5.809-6.353,9.431-11.171,12.866-5.432,3.873-8.265,9.57-9.513,16.322 5.178-3.107 10.357-6.213 15.535-9.32-4.969,6.048-10.99,10.224-16.968,14.463-5.108,3.623-7.328,8.455-6.55,15.382 9.097-4.393 15.673-11.543 24.748-14.251-6.933,6.214-14.16,11.939-21.885,16.883-6.001,3.841-8.826,8.474-7.087,16.484 8.021-6.454 15.603-12.555 23.185-18.656zm251.471,36.76c8.638-2.836 16.125-6.139 23.957-7.634 8.158-1.556 16.65-1.368 25.631-1.986-0.469-5.359-1.164-10.06-1.238-14.772-0.201-12.931-4.24-24.735-11.315-35.247-19.525-29.006-43.521-52.759-77.885-63.758-4.775-1.528-9.461-3.334-16.236-5.739 33.738,38.084 57.7,77.874 57.086,129.136zm-179.592,76.41c-0.319,4-0.999,6.914-0.698,9.723 1.327,12.399 2.498,24.842 4.553,37.13 2.561,15.316 12.4,23.918 26.887,29.008 13.142,4.617 36.337-7.941 37.481-22.372 1.129-14.244 2.826-28.443 4.079-42.68 0.277-3.148-0.264-6.367-0.459-10.162-5.141,0.635-9.393,1.161-12.776,1.579-2.314,12.889-3.955,24.852-6.725,36.547-2.141,9.039-8.087,13.039-16.692,13.185-8.819,0.151-14.124-3.709-17.409-12.385-3.737-9.87-3.942-20.085-3.404-30.423 0.186-3.566 0.03-7.149 0.03-11.006-5.04,0.629-9.382,1.171-14.867,1.856zm72.751-6.106c-3.188-24.624-6.225-48.084-9.439-72.913-4.67,1.423-7.874,2.399-11.653,3.551 1.997,24.266 3.911,47.523 5.888,71.552 4.933-0.71 9.175-1.321 15.204-2.19zm-13.493-229.035c-7.361,0.757-7.45,5.302-6.694,9.616 0.704,4.015 3.647,3.553 7.396,1.65-0.219-3.53-0.452-7.262-0.702-11.266z"/>
    <path d="m101.123,89.776c3.108-4.771 5.299-8.968 8.288-12.489 3.042-3.584 7.446-4.789 12.035-3.265 4.781,1.587 6.467,5.572 6.901,10.265 0.841,9.093-1.332,17.884-5.758,25.39-8.934,15.153-39.191,14.829-48.468,0.085-2.5-3.974-2.215-7.642 0.987-10.98 4.969-5.181 10.785-8.78 18.217-8.992 2.886-0.084 5.777-0.014 7.798-0.014z"/>
    <path d="m346.479,94.423c4.667-8.472 7.92-14.801 11.584-20.882 2.508-4.163 6.239-4.084 10.572-2.486 4.628,1.706 8.98,2.93 9.211,9.156 0.371,10.025-1.094,19.709-4.444,29.119-1.474,4.14-4.118,6.631-8.965,6.574-7.678-0.09-15.359,0.281-23.04,0.323-2.547,0.014-5.515,0.365-7.543-0.772-2.941-1.647-6.477-4.129-7.319-6.977-0.582-1.967 2.36-6.203 4.778-7.579 5.331-3.035 11.325-4.903 15.166-6.476z"/>
    <path d="m186.628,51.832c0.24-4.215-0.423-8.494 0.958-11.958 1.179-2.956 4.477-6.56 7.258-6.962 2.763-0.399 7.405,2.062 8.873,4.619 6.335,11.024 4.258,22.724 0.543,34.067-0.646,1.973-3.614,3.787-5.883,4.524-11.052,3.589-21.848,2.991-31.606-3.855-8.22-5.767-7.49-12.478 2.076-16.215 5.672-2.216 11.945-2.89 17.781-4.22z"/>
    <path d="m261.339,70.839c1.176-3.621 1.988-7.227 3.493-10.516 2.626-5.739 7.126-8.185 12.245-6.97 5.311,1.261 8.046,4.819 8.417,10.222 0.667,9.707-0.607,19.202-4.744,27.974-1.164,2.469-4.825,5.419-7.247,5.337-8.371-0.281-16.699-1.808-25.045-2.848-4.685-0.584-8.842-2.272-9.914-7.305-1.218-5.719 2.584-9.084 7.161-11.027 4.679-1.986 9.738-3.078 15.634-4.867z"/>
    <path d="m41.606,163.402c0-3.383 0.023-5.941-0.005-8.5-0.049-4.565 1.883-7.827 6.36-9.123 3.875-1.122 11.227,1.628 11.92,5.717 1.255,7.408 1.1,15.105 0.897,22.664-0.038,1.431-2.834,3.178-4.693,4.103-8.097,4.025-16.779,5.058-25.703,4.271-4.843-0.427-8.854-2.633-9.275-7.735-0.411-4.987 3.036-8.234 7.628-9.486 3.802-1.038 7.842-1.205 12.871-1.911z"/>
    <path d="m328.126,42.02c0.437-1.801 0.719-2.835 0.938-3.883 1.448-6.916 4.619-10.213 9.43-9.783 4.854,0.434 8.339,4.658 9.008,10.916 1.926,18.023-3.947,23.6-21.509,20.405-0.716-0.13-1.387-0.54-2.104-0.634-4.519-0.593-9.274-1.407-9.863-6.911-0.67-6.265 4.457-7.671 9.125-9.049 1.398-0.414 2.859-0.618 4.975-1.061z"/>
    <path d="m407.248,148.875c-0.429,1.577-0.727,5.876-2.745,9.097-1.697,2.708-5.313,5.667-8.231,5.831-4.912,0.276-10.153-1.016-14.83-2.778-2.166-0.816-4.61-4.305-4.585-6.556 0.025-2.194 2.621-5.08 4.84-6.358 3.348-1.928 7.408-2.144 8.618-7.147 1.064-4.399 3.982-8.347 9.33-7.347 5.498,1.028 7.235,5.546 7.596,10.652 0.051,0.727 0.007,1.46 0.007,4.606z"/>
    <path d="m87.31,50.113c5.682-3.178 10.246-5.73 15.745-8.805 0.306-2.355 0.018-6.255 1.462-9.344 1.19-2.545 4.4-5.665 6.775-5.714 2.408-0.051 6.266,2.888 7.082,5.323 2.507,7.482 1.171,15.122-1.825,22.375-0.37,0.896-1.395,1.671-2.299,2.172-6.168,3.415-19.018,1.238-26.94-6.007z"/>
    <path d="m258.167,27.74c-0.264-0.014-2.017,0.397-3.125-0.267-2.623-1.57-6.508-3.355-6.933-5.609-0.414-2.197 2.261-6.329 4.598-7.409 4.692-2.168 8.481-3.946 10.286-9.591 0.776-2.426 5.904-5.288 8.471-4.812 2.683,0.499 5.846,4.422 6.747,7.457 3.837,12.924-3.335,20.353-20.044,20.231z"/>
    <path d="m129.922,232.197c5.438-4.531 10.877-9.064 16.315-13.595-0.271,4.543-3.824,6.221-6.458,8.615-2.655,2.413-5.507,4.609-8.273,6.9-0.527-0.641-1.055-1.28-1.584-1.92z"/>
    <path d="m145.322,235.112c-2.937,2.184-5.875,4.368-8.812,6.553-0.38-0.493-0.761-0.986-1.141-1.48 2.744-2.304 5.487-4.609 8.231-6.913 0.574,0.613 1.148,1.226 1.722,1.84z"/>
    <path d="m152.402,188.938c1.913-2.022 3.826-4.045 5.739-6.067 0.482,0.61 0.963,1.22 1.445,1.83-2.462,1.34-4.923,2.681-7.389,4.017-0.003-0.002 0.205,0.221 0.205,0.22z"/>
  </g>
</svg>
