<?xml version="1.0" encoding="iso-8859-1"?>
<!-- Generator: Adobe Illustrator 16.0.0, SVG Export Plug-In . SVG Version: 6.00 Build 0)  -->
<!DOCTYPE svg PUBLIC "-//W3C//DTD SVG 1.1//EN" "http://www.w3.org/Graphics/SVG/1.1/DTD/svg11.dtd">
<svg version="1.1" id="Capa_1" xmlns="http://www.w3.org/2000/svg" xmlns:xlink="http://www.w3.org/1999/xlink" x="0px" y="0px"
	 width="186.972px" height="186.972px" viewBox="0 0 186.972 186.972" style="enable-background:new 0 0 186.972 186.972;"
	 xml:space="preserve">
<g>
	<g>
		<path d="M149.792,141.73c-4.432-5.789-9.747-13.813-16.096-17.912c7.75-5.469,15.974-12.557,17.281-19.969
			c1.657-0.104,3.264-1.192,3.311-3.328c0.008-0.324-0.034-0.635-0.031-0.957c48.469-26.884-43.694-132.712-92.946-85.422
			c-4.342-4.155-10.986-7.289-15.693-9.665c-0.192-0.097-0.394-0.165-0.587-0.26c-0.59-1.451-2.205-2.546-3.688-1.629
			c-5.27-2.082-10.822-3.174-16.521-2.266c-1.681,0.268-2.922,2.533-2.328,4.1c4.344,11.472,13.54,20.135,25.62,21.985
			c-5.321,9.324-7.249,22.425-13.929,29.078c-7.542,7.512-16.289,14.421-15.021,25.932c1.057,9.594,13.497,13.183,21.192,12.832
			c3.549-0.161,8.55-3.58,11.009-5.845c7.689-7.081,14.648-13.127,24.443-15.76c-0.863,20.089-39.552,79.431,0.883,77.81
			c16.395-0.657,33.306-11.156,46.604-19.772c1.457-0.943,3.228-2.062,5.152-3.313c0.003,0.006,0.003,0.011,0.006,0.016
			c0.519,0.949,1.157,1.847,1.828,2.726c-0.216,0.13-0.427,0.274-0.548,0.521c-1.066,2.177-2.784,4.341-4.015,6.487
			c-0.735,1.283-1.479,2.587-2.179,3.914c-0.576-0.844-1.126-1.705-1.713-2.542c-0.976-1.394-3.98-2.4-4.39-3.042
			c-0.228-0.355-0.788-0.219-0.794,0.215c-0.01,0.658-1.338,2.557-0.38,4.552c3.085,6.427,6.876,12.408,10.773,18.365
			c7.385,11.283,15.312,24.912,29.451,28.052c13.31,2.956,10.24-14.125,7.584-21.044
			C160.752,156.938,155.387,149.038,149.792,141.73z M35.971,12.989c-1.856-1.988-3.575-4.125-5.005-6.559
			c2.19,0.094,4.34,0.624,6.451,1.315C36.572,9.405,36.059,11.154,35.971,12.989z M46.53,14.393
			c-0.929,1.717-1.353,3.619-1.488,5.545c-1.863-0.961-3.599-2.078-5.215-3.334c-0.32-2.392,0.172-5.263,1.64-7.296
			c1.668,0.752,3.307,1.553,4.872,2.387c0.449,0.24,0.887,0.527,1.329,0.795C47.242,13.124,46.855,13.789,46.53,14.393z
			 M157.68,62.428c4.057,11.122,3.55,21.548-4.037,28.401c-0.707-5.111-2.131-9.973-4.01-14.652
			c2.435-2.769,4.311-5.883,5.939-9.257C156.242,65.533,156.982,63.999,157.68,62.428z M154.704,55.726
			c-0.925,2.103-1.495,4.383-2.276,6.583c-1.197,3.366-2.723,6.581-4.671,9.54c-0.752-1.563-1.526-3.117-2.387-4.632
			c3.436-3.87,6.409-9.104,7.85-14.358C153.771,53.814,154.213,54.769,154.704,55.726z M146.576,43.053
			c1.083,1.383,2.095,2.785,3.069,4.193c-0.794,2.653-1.201,5.482-2.026,8.117c-0.985,3.145-2.33,6.054-4.089,8.755
			c-1.357-2.167-2.795-4.296-4.345-6.363c1.681-3.031,3.402-6.037,4.973-9.129C145.018,46.934,146.056,45.011,146.576,43.053z
			 M140.402,35.914c1.105,1.161,2.176,2.342,3.21,3.538c-1.789,2.251-2.482,5.571-3.672,8.14c-1.065,2.301-2.21,4.564-3.334,6.836
			c-1.053-1.29-2.125-2.569-3.242-3.817c1.977-2.671,3.465-5.643,4.754-8.776C138.834,40.096,139.716,38.035,140.402,35.914z
			 M132.207,28.201c1.436,1.209,2.836,2.457,4.197,3.737c-0.499,2.083-0.78,4.295-1.282,6.179c-0.92,3.451-2.146,6.94-3.943,10.068
			c-1.866-1.973-3.785-3.906-5.781-5.772c0.029-0.044,0.066-0.064,0.093-0.112c1.712-3.117,3.353-6.246,4.814-9.488
			C130.983,31.304,131.725,29.774,132.207,28.201z M124.941,22.568c1.338,0.93,2.639,1.925,3.934,2.924
			c-0.653,1.469-1.017,3.047-1.594,4.637c-1.246,3.432-2.848,6.751-4.36,10.075c-1.368-1.223-2.725-2.46-4.135-3.635
			c1.172-2.575,2.367-5.14,3.461-7.753C123.031,26.942,124.143,24.769,124.941,22.568z M117.137,17.641
			c1.314,0.726,2.596,1.544,3.884,2.345c-0.757,2.144-1.269,4.475-1.967,6.468c-0.937,2.667-1.903,5.322-2.869,7.978
			c-1.284-1.028-2.579-2.04-3.884-3.03c1.054-2.103,1.967-4.271,2.74-6.499C115.827,22.635,116.759,20.124,117.137,17.641z
			 M109.335,13.809c1.411,0.585,2.8,1.295,4.191,1.976c-0.749,2.272-1.002,4.73-1.53,7.061c-0.524,2.32-1.271,4.557-2.062,6.783
			c-1.645-1.209-3.296-2.398-4.954-3.547c0.676-2.187,1.255-4.41,1.941-6.592C107.521,17.58,108.558,15.711,109.335,13.809z
			 M97.179,14.574c0.44-1.383,1.012-2.764,1.535-4.157c2.217,0.488,4.434,1.134,6.641,1.893c-0.605,1.298-1.009,2.725-1.42,4.091
			c-0.755,2.51-1.336,5.126-1.821,7.739c-2.153-1.445-4.306-2.86-6.443-4.205C96.166,18.145,96.614,16.343,97.179,14.574z
			 M85.688,12.569c0.405-1.168,0.973-2.259,1.537-3.351c2.538-0.056,5.105,0.123,7.68,0.496c-0.935,2.698-1.517,5.662-1.952,8.539
			c-2.572-1.547-5.2-2.7-7.864-3.491C85.269,14.031,85.436,13.299,85.688,12.569z M84.359,9.426
			c-0.726,1.494-1.237,3.102-1.569,4.756c-4.308-0.947-8.69-1.04-13.06-0.398C74.364,11.242,79.296,9.889,84.359,9.426z
			 M50.09,16.474c0.331-0.581,0.78-1.071,1.216-1.557c1.502,1.091,2.994,2.223,4.515,3.263c-1.881,1.079-3.508,2.456-4.898,4.109
			c-0.808-0.236-1.499-0.619-2.267-0.906C48.812,19.626,49.2,18.035,50.09,16.474z M54.729,76.33
			c-6.6,8.919-14.386,6.025-23.359-8.68c2.353-2.814,5.88-5.4,8.933-8.22c0.824,0.516,1.769,0.886,2.632,1.347
			c2.213,1.181,4.183,2.772,6.034,4.45c1.801,1.634,3.513,3.351,4.841,5.398c0.893,1.376,1.35,3.035,2.128,4.417
			c0.032,0.058,0.088,0.079,0.124,0.132C55.63,75.571,55.15,75.915,54.729,76.33z M80.931,142.652
			c-25.645,6.281-12.469-25.1-7.389-36.912c4.667-10.854,9.06-22.277,6.725-34.047c12.015-1.958,17.389-6.407,20.462-18.429
			c0.646-2.525-3.021-3.481-3.861-1.064C91.151,68.654,73.784,64.597,61.23,71.25c-0.562-3.541-4.324-7.392-6.465-9.375
			c-1.901-1.76-6.515-5.555-10.507-6.819c0.455-0.663,0.856-1.346,1.182-2.054c2.36-5.132,4.088-10.115,5.709-15.547
			c7.644-25.603,34.216-17.344,50.205-5.778c21.188,15.327,43.554,35.915,45.696,63.325c-0.484,0.219-0.896,0.48-1.41,0.682
			c-2.696,1.065-2.945,4.209-1.601,5.92C127.68,120.831,105.917,136.531,80.931,142.652z M129.17,149.384
			c-1.128-1.702-2.286-3.381-3.422-5.077c1.298-2.203,2.841-4.314,4.201-6.404c0.983-1.508,2.289-3.185,2.687-5.004
			c1.584,1.719,3.238,3.375,4.774,5.047c-0.999,2.59-1.551,5.406-2.671,7.962c-0.963,2.198-2.193,4.383-3.742,6.269
			C130.39,151.246,129.773,150.298,129.17,149.384z M132.617,154.654c1.82-1.725,3.234-3.824,4.521-6.026
			c1.18-2.022,2.481-4.548,3.297-7.088c1.623,1.94,3.159,3.944,4.688,5.955c-1.808,2.177-2.468,5.079-3.51,7.704
			c-1.041,2.622-2.196,5.197-3.335,7.779C136.325,160.241,134.44,157.445,132.617,154.654z M140.188,165.604
			c1.449-2.602,2.896-5.201,4.28-7.838c1.106-2.109,2.528-4.334,3.28-6.668c1.3,1.838,2.555,3.707,3.748,5.621
			c-1.527,2.377-1.732,5.924-2.499,8.532c-0.745,2.541-1.776,4.947-2.931,7.298C143.999,170.362,142.032,168.049,140.188,165.604z
			 M148.967,175.372c1.495-2.414,2.73-4.972,3.849-7.627c0.632-1.501,1.454-3.267,2.061-5.076c1.791,3.506,3.321,7.13,4.368,10.951
			C161.531,181.973,153.348,178.764,148.967,175.372z"/>
		<path d="M69.657,38.676c-0.044-0.634-0.1-1.247-0.472-1.792c-0.503-0.735-1.169-1.104-1.864-1.311
			c-2.31-1.192-5.542-0.78-7.584,0.651c-0.595,0.417-0.948,0.959-1.132,1.534c-1.301,0.74-2.432,1.664-2.969,3.22
			c-1.538,4.455,5.861,6.7,8.593,7.758c2.001,0.775,3.895-1.165,3.979-3.031c0.04-0.889,0.265-1.923,0.462-2.957
			c0.124-0.648,0.263-1.294,0.407-1.938c0.104-0.464,0.473-1.113,0.392-1.061C69.597,39.407,69.683,39.052,69.657,38.676z"/>
	</g>
</g>
<g>
</g>
<g>
</g>
<g>
</g>
<g>
</g>
<g>
</g>
<g>
</g>
<g>
</g>
<g>
</g>
<g>
</g>
<g>
</g>
<g>
</g>
<g>
</g>
<g>
</g>
<g>
</g>
<g>
</g>
</svg>
