<?xml version='1.0' encoding='iso-8859-1'?>
<!DOCTYPE svg PUBLIC '-//W3C//DTD SVG 1.1//EN' 'http://www.w3.org/Graphics/SVG/1.1/DTD/svg11.dtd'>
<svg version="1.1" xmlns="http://www.w3.org/2000/svg" viewBox="0 0 427.744 427.744" xmlns:xlink="http://www.w3.org/1999/xlink" enable-background="new 0 0 427.744 427.744">
  <g>
    <path d="m245.077,76.452c6.656-8.874 13.091-17.454 19.972-26.629-3.968-3.479-7.571-6.405-10.898-9.617-3.615-3.49-7.489-6.889-10.319-10.973-3.965-5.723-2.701-9.275 4.21-11.257 11.104-3.185 22.335-6.087 33.676-8.246 18.074-3.44 36.278-6.198 54.435-9.193 10.085-1.663 12.834,0.221 13.174,10.092 0.818,23.819 1.313,47.649 1.921,71.475 0.046,1.807 0.113,3.638-0.109,5.423-1.089,8.757-5.507,11.043-13.475,6.888-2.873-1.498-5.474-3.512-8.326-5.057-2.819-1.526-5.798-2.757-9.223-4.359-6.168,9.276-12.111,18.213-18.042,27.132 12.072,12.931 20.957,27.268 28.929,42.377 11.821,22.404 11.988,45.566 7.006,69.604-7.941,38.315-31.468,65.248-62.907,86.062-7.299,4.832-16.608,6.705-25.102,9.622-4.05,1.391-8.357,2.036-13.603,3.267 0.242,5.019 0.475,9.836 0.767,15.887 4.555-1.005 7.945-1.768 11.342-2.499 6.717-1.446 9.309-0.56 10.019,5.758 1.285,11.451 1.626,23.023 1.964,34.556 0.129,4.419-3.617,5.78-7.285,6.754-5.872,1.56-11.722,3.2-18.287,4.999 0.938,7.334 1.848,14.003 2.63,20.686 0.822,7.023-0.785,10.522-7.512,12.284-8.685,2.275-17.625,3.736-26.539,4.928-6.768,0.905-13.67,0.766-20.503,1.232-7.89,0.538-10.644-1.043-11.955-8.818-1.484-8.8-2.152-17.737-3.291-27.616-5.862,0.404-11.529,0.895-17.206,1.161-6.764,0.316-9.816-1.399-10.573-8.029-1.145-10.023-1.43-20.183-1.34-30.278 0.019-2.072 2.912-4.948 5.159-5.996 4.523-2.109 9.449-3.48 14.326-4.683 13.866-3.421 15.027-4.906 13.518-19.205-0.185-1.755-0.757-3.469-1.021-4.638-9.891-2.89-19.382-5.039-28.415-8.415-34.056-12.73-52.566-38.644-62.07-72.755-5.963-21.403-4.162-41.887 1.767-62.876 11.737-41.548 37.068-71.974 73.381-94.388 26.037-16.072 53.054-16.85 81.23-7.611 2.706,0.887 5.386,1.851 8.575,2.951zm8.805-50.545c2.082,2.313 3.08,3.738 4.375,4.802 3.632,2.983 7.504,5.68 11.067,8.739 7.832,6.726 8.221,9.087 2.453,17.203-5.235,7.367-10.953,14.391-16.142,21.788-3.321,4.735-7.125,6.359-12.92,5.008-9.493-2.213-19.157-3.682-28.729-5.564-10.127-1.991-20.058-1.513-29.97,1.481-11.948,3.61-22.32,10.009-32.518,16.992-26.547,18.178-45.752,41.812-55.216,72.859-0.634,2.079-0.6,4.362-0.876,6.55 0.531,0.25 1.062,0.5 1.593,0.75 3.441-3.575 6.883-7.151 11.222-11.659-5.113,13.422-19.305,20.724-18.708,37.102 3.846-3.332 6.401-5.546 8.957-7.76-1.062,4.827-3.237,8.833-5.997,12.383-4.808,6.184-4.774,12.393-1.021,19.819 4.657-6.332 8.924-12.135 13.191-17.937 0.698,0.439 1.396,0.878 2.094,1.317-2.018,3.645-3.824,7.43-6.111,10.899-2.541,3.856-5.52,7.423-8.508,11.379 2.654,14.398 9.093,27.383 16.658,41.136 4.288-6.514 7.649-11.618 11.009-16.723 0.738,0.442 1.477,0.883 2.215,1.325-3.184,6.243-6.368,12.487-9.781,19.179 3.077,2.504 5.72,4.655 9.633,7.841 2.328-3.547 4.236-6.455 6.144-9.363 0.613,0.482 1.226,0.965 1.839,1.447-1.742,3.56-3.484,7.12-5.805,11.865 9.5,4.903 18.587,9.593 27.663,14.277 2.937-5.627 5.219-10 7.502-14.373 0.565,0.203 1.131,0.407 1.696,0.61-1.534,4.839-3.068,9.677-4.539,14.317 4.46,2.779 6.968,2.015 9.306-2.082 2.01-3.522 3.245-8.452 9.849-9.66-3.039,6.054-5.378,10.714-8.036,16.011 3.309,1.152 5.51,1.918 7.474,2.602 3.764-4.335 4.399-10.421 11.634-12.648-3.093,5.899-5.426,10.347-6.99,13.329 1.645,7.88 3.745,14.419 4.236,21.076 0.845,11.453 0.207,11.81-10.79,14.691-4.893,1.282-9.867,2.274-14.714,3.702-3.626,1.068-7.109,2.624-10.708,3.983 1.102,7.016 1.998,12.722 2.978,18.959 5.383-4.611 5.023-12.413 12.765-14.108-3.596,7.327-7.192,14.653-10.822,22.05 5.536,2.007 8.132-0.503 10.43-4.954 3.21-6.216 6.747-12.376 14.287-15.619-3.599,6.217-7.198,12.434-11.339,19.589 12.069,0.724 11.418-12.918 21.688-15.044-3.804,6.244-6.895,11.317-9.831,16.138 1.244,3.192 2.321,5.957 3.577,9.18 3.8-4.14 6.979-7.603 10.157-11.066 0.574,0.43 1.148,0.86 1.722,1.289-2.775,4.501-5.182,9.288-8.408,13.439-5.552,7.144-5.867,14.394-1.452,23.181 10.802-0.843 22.044-0.994 33.02-2.779 11.38-1.851 11.417-2.8 9.873-14.251-0.386-2.865-0.62-5.757-0.771-8.645-0.428-8.194-0.096-8.86 7.9-11.814 5.694-2.103 11.547-3.775 17.773-5.783-0.28-9.983 1.686-19.524-1.353-28.755-21.814,2.3-22.063,2.116-23.663-16.405-0.904-10.466-0.364-11.597 10.393-13.599 8.343-1.553 16.091-4.206 22.855-9.277 9.816-7.358 19.911-14.434 29.083-22.541 18.063-15.966 29.958-35.666 35.673-59.432 5.891-24.499 5.266-47.976-6.815-70.443-5.976-11.115-12.299-22.066-18.987-32.765-3.2-5.119-4.219-9.197-0.771-14.819 4.885-7.964 8.715-16.583 12.871-24.984 3.031-6.125 5.483-7.398 12.056-5.039 5.27,1.89 10.358,4.285 16.275,6.77 0-21.595 0.026-42.123-0.028-62.651-0.008-3.155-0.384-6.31-0.609-9.759-28.227,3.391-55.796,6.722-84.258,15.244z"/>
    <path d="m272.926,125.269c-2.449,3.826-4.899,7.652-7.642,11.937 1.915,1.722 3.702,3.327 6.431,5.78 2.675-3.808 5.127-7.298 7.579-10.787 0.948,0.687 1.895,1.374 2.843,2.062-1.528,2.804-2.685,5.912-4.67,8.344-3.129,3.834-1.463,6.585 1.751,10.014 1.952-1.332 4.019-2.741 8.284-5.65-4.816,8.562-6.181,14.375-2.096,21.896 2.671,4.917-0.31,12.631 0.285,18.995 2.374,25.387-4.11,47.85-20.317,67.708-5.992,7.341-13.019,12.025-22.094,14.614-16.995,4.847-34.414,5.8-51.626,4.006-27.806-2.899-51.497-14.786-67.014-38.921-9.045-14.067-10.389-29.989-4.46-45.842 6.404-17.123 16.211-32.384 28.508-45.806 8.545-9.327 20.238-13.64 32.265-16.796 5.927-1.555 11.824-3.356 17.847-4.373 4.936-0.834 7.322-3.763 9.478-7.81 2.514-4.72 5.652-9.107 9.221-13.265 0.516,7.152-6.173,11.153-7.572,18.449 12.572,1.955 13.355-12.566 23.946-16.091-3.692,5.665-6.507,9.983-9.403,14.428 5.074,3.766 7.478-1.819 11.055-2.981 0.715,10.647 9.319,8.886 15.843,10.452 2.72-2.953 5.466-5.933 8.211-8.914 0.485,0.369 0.97,0.739 1.455,1.108-2.145,3.991-4.289,7.981-6.796,12.646 2.038,1.581 4.174,3.238 6.577,5.104 3.654-4.153 6.914-7.858 10.174-11.563 0.645,0.418 1.291,0.837 1.937,1.256zm3.223,66.799c-0.297-0.007-0.593-0.015-0.89-0.022 0-5.418 0.182-10.844-0.037-16.254-0.519-12.821-6.041-23.586-16.286-30.798-25.837-18.188-27.052-18.472-58.104-14.547-15.833,2.001-31.914,5.369-43.638,17.164-13.867,13.952-24.446,30.42-29.889,49.616-3.312,11.68-1.389,23.054 4.767,33.341 8.28,13.836 20.943,23.125 35.552,28.883 25.565,10.075 51.715,7.975 77.595,0.644 3.626-1.027 7.435-3.471 9.848-6.355 9.323-11.145 17.689-23.082 19.837-37.902 1.135-7.82 0.875-15.841 1.245-23.77z"/>
    <path d="m97.809,241.881c3.539-5.821 7.078-11.642 10.617-17.463 1.113,8.389-4.096,13.39-7.57,19.298-1.016-0.612-2.032-1.223-3.047-1.835z"/>
    <path d="m114.608,242.089c-0.464,8.081-4.37,13.663-8.425,20.913-1.261-8.095 0.162-11.316 8.425-20.913z"/>
    <path d="m186.667,409.128c1.902-3.589 3.803-7.178 5.705-10.767 0.623,0.308 1.247,0.615 1.87,0.923-1.538,3.661-3.077,7.321-4.615,10.982-0.987-0.38-1.974-0.759-2.96-1.138z"/>
    <path d="m133.715,290.624c1.423-3.462 2.846-6.924 4.269-10.386 0.83,0.333 1.661,0.667 2.491,1-1.403,3.473-2.806,6.945-4.209,10.418-0.85-0.344-1.701-0.689-2.551-1.032z"/>
  </g>
</svg>
