<?xml version='1.0' encoding='iso-8859-1'?>
<!DOCTYPE svg PUBLIC '-//W3C//DTD SVG 1.1//EN' 'http://www.w3.org/Graphics/SVG/1.1/DTD/svg11.dtd'>
<svg version="1.1" xmlns="http://www.w3.org/2000/svg" viewBox="0 0 418.844 418.844" xmlns:xlink="http://www.w3.org/1999/xlink" enable-background="new 0 0 418.844 418.844">
  <g>
    <path d="m73.123,82.96c1.101-8.975 1.874-15.736 2.772-22.48 1.318-9.895 7.454-16.291 15.839-20.657 16.217-8.444 33.135-9.278 50.493-3.953 10.311,3.163 15.715,11.061 19.584,20.357 1.087,2.611 1.616,5.454 2.703,9.241 11.226-2.681 22.257-5.315 33.318-7.957 5.88-36.69 12.979-44.045 40.94-48.343 21.584-3.317 39.751,2.533 50.572,34.39 8.703-1.676 17.515-3.336 26.31-5.077 10.579-2.094 11.78-1.871 16.014,7.528 12.921,28.683 24.617,57.758 31.283,88.732 4.934,22.926 10.676,45.728 17.304,68.219 3.752,12.729 9.859,24.788 15.272,36.986 1.248,2.813 3.997,4.96 6.261,7.659 0.046,0.34 0.456,1.208 0.189,1.731-5.858,11.487-2.167,21.583 4.254,31.44 3.737,5.737 6.955,11.812 10.684,17.555 2.208,3.401 2.881,6.258 0.093,9.775-11.723,14.789-24.193,28.79-39.979,39.439-1.153,0.778-2.718,1.889-3.823,1.642-7.462-1.666-13.292,2.853-19.61,5.088-41.309,14.615-84.103,23.706-126.506,34.227-20.667,5.128-41.413,10.078-62.33,14.011-18.08,3.4-36.458,5.205-54.692,7.801-7.061,1.005-12.097-2.278-15.378-7.885-4.371-7.468-8.598-15.121-11.884-23.107-17.186-41.761-34.33-83.543-50.931-125.538-10.094-25.535-18.575-51.717-29.019-77.1-4.142-10.066-4.232-16.643 2.768-26.027 11.34-15.202 22.626-31.001 28.171-49.73 1.427-4.82 5.194-6.361 9.543-7.752 10.29-3.291 20.45-6.987 29.785-10.215zm21.911,292.256c4.015-12.282 7.231-24.909 12.326-36.726 3.396-7.876 3.3-14.099-2.546-21.838-3.043,8.251-5.201,15.829-8.561,22.829-5.702,11.878-8.24,23.542-1.234,35.709 2.492,4.644 4.984,9.288 8.073,15.046 4.08-10.127 6.73-19.195 11.225-27.229 5.552-9.922 3.978-18.362-2.522-27.76-3.761,10.442-7.111,20.319-10.919,30.016-1.399,3.566-3.881,6.707-5.842,9.953zm-3.292-82.216c0.423-7.703-2.022-14.29-7.736-20.807-4.327,10.946-8.029,21.022-12.28,30.86-3.989,9.23 0.527,15.896 4.686,22.654 5.387-11.375 10.527-22.23 15.668-33.085-3.133,9.572-5.384,19.558-9.624,28.612-5.283,11.281-1.379,20.13 4.605,30.801 3.3-8.107 6.048-14.711 8.676-21.363 2.118-5.36 4.293-10.711 6.073-16.187 2.041-6.283-3.173-17.068-10.068-21.485zm-46.844-162.081c-1.775,4.305-3.335,8.715-5.365,12.896-5.982,12.326-12.001,24.639-18.309,36.8-3.01,5.802-2.916,10.814 1.946,15.904 7.389-14.252 14.291-28.421 22.039-42.111 3.355-5.928 4.316-11.2 1.466-17.318-0.891-1.912-1.198-4.096-1.773-6.155-1.718-4.112-3.436-8.225-5.571-13.334-10.461,16.597-20.029,31.778-29.802,47.285 2.164,5.07 4.398,10.305 7.141,16.735 5.097-10.065 9.374-19.161 14.243-27.929 4.32-7.782 9.296-15.198 13.985-22.773zm17.611,40.559c3.094,12.275 5.5,23.521 8.802,34.498 4.146,13.785 8.346,27.623 13.718,40.956 14.84,36.833 30.349,73.396 45.481,110.113 3.133,7.603 4.525,8.6 12.657,6.919 11.316-2.339 22.627-4.704 33.939-7.063 27.93-5.824 55.724-12.445 83.826-17.268 32.243-5.535 63.156-14.985 93.261-27.457 2.31-0.957 4.902-1.979 6.512-3.746 6.319-6.935 12.968-13.723 18.24-21.423 7.38-10.778 10.265-23.394 13.03-35.115-13.954-6.622-26.364-12.511-39.702-18.84 0.972,4.948 1.975,8.773 2.44,12.662 1.368,11.449 3.278,22.904 3.581,34.393 0.442,16.764-15.056,31.83-32.367,32.614-0.273,0.012-0.589-0.941-1.175-1.936 2.398-1.457 4.644-3.312 7.222-4.308 14.387-5.56 19.167-16.518 17.91-31.037-0.342-3.955-0.327-7.967-1.008-11.86-1.927-11.018-4.344-21.953-6.073-32.999-0.436-2.788 0.046-7.303 1.789-8.436 2.054-1.336 6.066-0.304 8.987,0.539 2.33,0.673 4.237,2.708 6.435,3.955 7.037,3.994 14.123,7.903 22.151,12.381-5.163-13.21-10.784-24.576-14.05-36.582-6.73-24.737-12.133-49.833-18.235-74.744-1.931-7.886-4.348-15.653-6.361-22.83-17.314,4.925-33.093,10.232-49.253,13.837-31.37,6.999-63.018,12.739-94.43,19.559-37.071,8.048-74.042,16.563-110.99,25.163-8.695,2.022-17.124,5.202-26.337,8.055zm101.975-97.48c-2.736,10.642-5.144,20.004-7.776,30.241 3.789,7.178 3.684,11.932-2.931,16.818-4.124,3.046-9.615,5.366-14.664,5.747-6.332,0.478-12.938-0.915-19.247-2.312-8.582-1.9-12.543-6.346-13.263-13.643-0.775-7.85 1.147-14.695 9.106-17.784 7.27-2.821 7.744-8.133 7.443-16.279-25.644,8.874-50.132,17.258-74.543,25.864-5.434,1.916-6.253,4.833-3.989,11.412 3.407,9.897 7.103,19.699 10.314,29.658 2.186,6.781 3.753,13.762 5.781,21.343 7.05-2.255 13.392-4.754 19.959-6.296 18.978-4.457 38.046-8.526 57.078-12.753 50.737-11.268 101.464-22.584 152.217-33.782 17.279-3.812 34.199-8.663 51.315-16.022-6.67-16.642-13.189-32.91-19.9-49.654-11.496,2.161-21.687,4.076-29.664,5.576-4.639,10.501-8.518,19.317-12.433,28.118-1.014,2.28-2.62,4.404-3.139,6.778-3.769,17.254-16.006,25.179-32.248,20.669-14.796-4.108-19.161-17.257-9.483-29.132 4.066-4.989 6.948-10.35 8.612-16.543-26.712,4.073-52.551,8.012-78.545,11.976zm45.203-17.493c1.256,0 2.665,0.261 3.938-0.044 6.972-1.67 13.97-3.278 20.845-5.296 7.173-2.105 12.952-1.367 15.769,2.998 3.308,5.125 2.626,10.118-0.802,15.147-2.208,3.239-3.917,6.88-5.422,10.518-1.284,3.102-0.409,6.23 3.237,6.581 7.086,0.682 14.295,1.92 20.52-3.711 11.742-10.621 16.672-30.382 10.748-44.724-6.468-15.66-18.434-22.593-37.296-21.61-22.171,1.154-34.87,17.027-31.537,40.141zm-118.363,21.172c4.356-6.234 7.003-11.504 11.007-15.367 4.736-4.569 10.817-7.452 17.845-4.833 6.864,2.558 9.838,8.076 10.902,14.941 1.492,9.623 1.044,18.626-6.43,26.206-1.633,1.657-2.902,5.615-2.021,7.306 1.048,2.012 4.488,3.37 7.093,3.804 2.294,0.382 4.981-0.598 7.296-1.492 14.552-5.617 29.907-34.059 17.378-52.48-4.358-6.407-8.823-12.498-17.004-14.14-10.387-2.084-20.854-2.58-31.218-0.114-18.767,4.466-28.202,18.769-24.362,37.233 3.451-0.386 6.96-0.778 9.514-1.064zm79.842,312.532c10.175-0.023 17.574-2.7 20.592-12.645 0.513-1.691 1.888-3.121 2.865-4.671 0.454,0.239 0.908,0.479 1.362,0.718-1.322,3.505-2.643,7.011-4.379,11.614 6.709-1.068 13.162-0.559 16.557-5.792 5.061-7.8 8.982-16.341 13.568-24.904-1.843-0.225-2.965-0.646-3.958-0.441-21.887,4.522-43.767,9.076-65.62,13.755-2.028,0.434-4.933,1.265-5.615,2.748-3.927,8.533-9.409,16.486-11.528,25.95 9.997,0.781 15.897-2.987 18.791-11.784 1.035-3.147 3.337-5.878 5.061-8.798 0.336,0.188 0.673,0.376 1.009,0.564-2.16,5.327-4.321,10.654-6.566,16.19 9.279,1.609 14.532-0.809 17.033-9.023 1.195-3.924 4.127-7.318 6.272-10.953 0.508,0.231 1.017,0.463 1.525,0.694-2.245,5.407-4.49,10.81-6.969,16.778zm233.821-86.018c-2.102,0.212-3.826,0.34-5.538,0.566-21.884,2.891-40.798,14.049-60.866,21.98-1.892,0.748-3.949,2.24-4.918,3.958-3.618,6.411-6.815,13.06-11.077,21.395 13.21-3.156 14.425-15.424 24.247-22.153-3.381,6.821-5.74,11.578-8.671,17.491 13.194-2.811 13.59-15.981 24.309-22.517-3.696,6.822-6.305,11.637-9.063,16.728 7.279-1.3 7.132-1.409 9.8-4.996 3.744-5.032 7.732-9.883 11.615-14.812 0.613,0.434 1.226,0.867 1.839,1.301-3.112,4.883-6.224,9.766-9.676,15.18 9.843-0.539 30.1-19.094 37.999-34.121zm-338.49-80.71c-0.68-0.077-1.361-0.154-2.041-0.232-3.836,9.587-7.035,19.496-11.669,28.681-5.806,11.508-1.032,20.395 4.958,29.99 4.864-11.435 9.624-22.193 13.946-33.124 0.952-2.408 0.991-5.591 0.343-8.136-1.482-5.819-3.649-11.464-5.537-17.179zm209.486,121.419c-10.44,1.585-18.575,2.649-26.624,4.169-1.857,0.351-4.092,1.885-5.002,3.517-3.965,7.104-7.505,14.446-11.282,21.865 12.72,3.459 13.506-9.512 21.508-15.182-1.931,4.86-3.154,7.939-5.173,13.021 5.21-2.162 9.827-2.662 11.913-5.223 5.126-6.294 9.087-13.536 14.66-22.167zm-226.498-193.647c-8.173,17.153-15.773,32.96-23.225,48.837-2.124,4.525 0.018,7.851 3.756,11.238 7.006-12.987 13.192-25.62 20.495-37.572 4.671-7.644 2.806-14.008-1.026-22.503zm25.406,98.259c-4.013,10.677-7.447,20.478-11.381,30.074-3.426,8.357-2.609,15.748 3.885,23.247 3.859-9.046 6.598-18.134 11.368-25.99 6.234-10.265 2.567-18.084-3.872-27.331zm-36.04-13.407c6.47-12.753 11.902-24.971 18.718-36.361 4.518-7.548 2.552-13.264-1.327-19.844-6.14,11.204-11.551,22.213-18.036,32.548-5.012,7.986-5.395,15.172 0.645,23.657zm22.438-37.984c-6.786,14.979-12.405,27.737-18.347,40.342-2.905,6.163-0.385,10.722 3.325,16.723 5.154-11.659 9.22-22.305 14.494-32.313 3.967-7.53 4.375-14.57 0.528-24.752zm165.246,154.204c-4.307,8.935-8.549,17.737-13.854,28.743 6.432-2.157 12.39-2.304 14.59-5.254 5.585-7.491 9.485-16.238 14.756-25.736-6.175,0.895-10.711,1.553-15.492,2.247zm168.364-74.436c-6.682,9.666-12.43,17.983-18.766,27.149 9.955-2.156 19.078-4.132 29.034-6.289-3.596-7.303-6.725-13.661-10.268-20.86zm-77.477,57.175c-17.668,1.278-21.62,15.76-31.747,25.821 12.855,0.166 20.79-3.67 24.752-14.334 1.354-3.645 4.071-6.783 6.995-11.487zm-20.599,6.51c-15.715-0.023-22.428,5.824-29.156,25.692 4.927-1.899 10.216-2.445 13.111-5.365 5.943-5.993 10.603-13.257 16.045-20.327zm-180.13,57.68c5.226,0.435 10.019,1.365 12.525-3.037 4.485-7.878 8.262-16.159 12.5-24.601-9.247-0.986-9.368-1.054-11.728,3.177-4.327,7.758-8.495,15.604-13.297,24.461zm-10.475-6.397c0.778,0.302 1.555,0.603 2.332,0.905 4.695-8.042 9.561-15.99 14.027-24.156 3.136-5.733 2.893-5.866-2.802-13.154-4.631,12.44-9.094,24.423-13.557,36.405zm225.105-63.344c-15.578,3.757-14.978,17.121-20.706,25.907 3.686-0.925 7.188-2.313 8.91-4.891 3.987-5.967 7.112-12.51 11.796-21.016zm-208.596-258.602c-7.688-9.633-14.566-7.709-22.348,5.521 7.622-1.883 14.466-3.574 22.348-5.521z"/>
    <path d="m200.138,256.404c6.161-1.688 10.599-2.905 15.173-4.158 0.735-6.728 1.443-12.778 2.046-18.839 0.753-7.557 2.808-10.772 7.083-10.114 6.222,0.958 6.225,6.037 6.589,10.79 0.269,3.507 0.677,7.002 1.086,11.132 3.561-0.623 6.299-1.579 8.988-1.458 3.824,0.173 7.014,2.051 7.864,6.182 0.784,3.809-1.471,6.136-4.644,7.607-4.218,1.955-8.516,3.737-13.32,5.83 0.487,8.076 1.039,15.96 1.403,23.852 0.149,3.238 0.239,6.549-0.259,9.73-0.819,5.232-4.19,8.123-8.753,7.81-5.135-0.352-7.816-3.477-8.148-8.43-0.577-8.62-0.923-17.255-1.417-26.869-2.672,0.16-5.421,0.016-8.024,0.563-2.797,0.588-5.446,1.858-8.179,2.771-10.595,3.54-15.499,0.295-14.967-10.716 0.608-12.588 1.396-25.223 3.171-37.686 2.232-15.671 5.526-31.192 8.412-46.769 0.326-1.762 0.558-3.783 1.579-5.11 1.18-1.533 3.444-3.615 4.775-3.326 2.015,0.437 4.854,2.496 5.172,4.256 0.753,4.178 0.567,8.617 0.165,12.895-1.819,19.366-3.897,38.708-5.747,58.072-0.337,3.528-0.048,7.114-0.048,11.985z"/>
    <path d="m139.029,203.473c-3.057,7.106-5.398,12.748-7.919,18.308-1.034,2.279-1.953,5.222-3.833,6.354-2.426,1.46-6.1,2.449-8.59,1.643-1.679-0.544-2.658-4.46-3.146-7.021-0.295-1.55 0.884-3.415 1.505-5.1 4.732-12.856 9.371-25.749 14.285-38.535 2.917-7.591 9.013-10.812 13.956-6.954 2.8,2.185 4.847,6.249 5.725,9.835 5.738,23.445 11.438,46.912 16.396,70.53 3.473,16.543 5.768,33.333 8.534,50.022 0.412,2.484 0.702,5.016 0.734,7.529 0.079,6.18-1.925,9.058-6.532,9.267-5.087,0.231-8.231-2.375-9.085-7.356-1.461-8.513-2.479-17.107-4.128-25.581-5.09-26.157-10.383-52.274-15.644-78.397-0.192-0.956-0.878-1.812-2.258-4.544z"/>
    <path d="m320.288,168.719c3.082,1.019 5.52,1.629 7.794,2.614 7.285,3.156 9.261,8.808 5.637,15.71-4.799,9.14-21.221,14.946-30.133,10.292-1.985-1.036-3.744-3.499-4.518-5.69-3.552-10.056-4.277-20.403-1.483-30.77 1.952-7.245 6.899-11.737 14.255-13.124 8.746-1.648 13.276,3.013 11.452,11.638-0.591,2.799-1.743,5.48-3.004,9.33zm5.486,10.985c-5.229-2.266-9.746-2.749-13.784,0.399-1.36,1.06-2.526,3.789-2.114,5.301 0.403,1.481 2.838,3.203 4.539,3.392 5.827,0.649 9.451-2.385 11.359-9.092zm-10.401-23.275c-5.606-1.34-8.894,0.555-10.619,4.399-1.556,3.467-0.462,6.752 3.827,9.836 2.368-4.964 4.432-9.289 6.792-14.235z"/>
    <path d="m263.655,161.875c-2.843,7.767-10.418,6.047-15.35,10.922 0.425,2.824 0.994,6.608 1.548,10.294 4.093,1.559 7.897,3.008 11.514,4.386-0.502,7.22-6.928,5.333-10.398,9.287 0.43,2.921 1.486,6.743 1.348,10.521-0.074,2.015-1.874,5.15-3.506,5.609-1.799,0.507-4.921-0.925-6.325-2.518-1.526-1.732-2.328-4.598-2.424-7.01-0.429-10.8-0.589-21.614-0.585-32.423 0.001-1.546 1.026-3.644 2.262-4.543 6.209-4.518 12.82-7.904 21.916-4.525z"/>
    <path d="m267.406,169.616c5.068-3.068 9.792-6.381 14.942-8.778 1.611-0.75 4.373,0.972 6.608,1.563-0.912,2.099-1.31,4.761-2.853,6.171-2.601,2.377-5.927,3.959-9.536,6.249 2.768,1.417 5.231,2.679 7.402,3.79 0.054,6.164-10.698,6.213-6.25,13.82 4.551,3.075 11.358-4.741 15.671,3.461-4.414,6.209-11.074,7.284-17.861,6.868-5.229-0.321-7.96-4.562-8.092-11.028-0.139-6.819-0.031-13.641-0.031-22.116z"/>
  </g>
</svg>
