<?xml version='1.0' encoding='iso-8859-1'?>
<!DOCTYPE svg PUBLIC '-//W3C//DTD SVG 1.1//EN' 'http://www.w3.org/Graphics/SVG/1.1/DTD/svg11.dtd'>
<svg version="1.1" xmlns="http://www.w3.org/2000/svg" viewBox="0 0 390.675 390.675" xmlns:xlink="http://www.w3.org/1999/xlink" enable-background="new 0 0 390.675 390.675">
  <g>
    <path d="m77.438,224.861c-17.442-14.747-34.476-28.22-50.43-42.869-20.968-19.253-31.298-42.37-25.335-71.917 4.534-22.465 12.923-42.018 34.185-52.312 13.503-6.538 28.247-11.943 42.992-14.182 28.218-4.284 56.922-5.37 85.438-2.75 36.331,3.337 68.198,18.155 96.518,40.764 3.499,2.793 5.839,7.038 8.36,10.169 12.286-0.362 24.493-1.234 36.676-0.981 33.53,0.696 57.492,16.998 72.906,46.31 6.981,13.275 10.71,27.681 11.794,42.537 1.003,13.744-3.799,26.292-10.438,38.174-12.871,23.037-29.403,42.991-50.423,58.986-16.634,12.657-32.659,25.964-50.888,36.688-34.057,20.036-70.688,31.043-109.504,35.472-15.044,1.717-30.286,2.02-45.45,2.294-21.317,0.386-38.11-7.935-47.65-27.746-5.623-11.677-11.516-23.433-15.234-35.772-5.978-19.841-2.412-38.661 10.558-55.286 1.995-2.557 3.993-5.108 5.925-7.579zm261.656-88.559c-0.052,3.579-1.809,7.775 4.65,10.145-0.282-4.256-0.511-7.723-0.78-11.785-2.262,1.059-3.195,1.496-4.128,1.933 0.489-3.929 2.5-8.324-3.072-10.685-3.554,11.163-3.554,11.163-0.444,16.591 1.34-2.199 2.555-4.195 3.774-6.199zm-50.104-8.945c-0.105-1.995-0.211-3.989-0.427-8.075-3.703,2.834-6.028,4.613-8.353,6.392-1.895-4.336-0.129-6.81 4.08-8.074 15.895-4.775 32.09-5.695 48.044-1.36 16.554,4.498 22.148,13.191 21.477,30.401-0.111,2.854-0.521,5.756-1.248,8.516-2.758,10.465-5.842,20.845-8.54,31.324-2.815,10.935-8.864,19.825-17.335,26.913-8.85,7.405-18.022,14.47-27.42,21.168-27.488,19.587-58.171,33.554-88.1,48.713-24.67,12.495-51.206,19.879-79.035,21.066-13.004,0.555-25.984-0.555-38.054-6.426-14.746-7.172-19.797-19.199-14.212-35.339 2.862,7.707 5.538,14.916 8.214,22.124 0.546-0.142 1.092-0.283 1.637-0.425-1.527-9.942-3.053-19.884-4.58-29.827 6.637,11.263 5.893,24.755 12.986,35.954 1.178-2.682 1.78-5.369 1.363-7.889-0.765-4.617-2.381-9.09-3.191-13.702-1.249-7.11-2.117-14.287-3.146-21.435 0.765-0.136 1.53-0.272 2.295-0.408 2.263,9.139 4.526,18.279 7.224,29.176 7.629-12.789 1.091-23.804 2.25-34.57-6.802-4.218-13.167-8.165-19.945-12.368-10.448,11.096-17.338,22.879-18.077,38.388-0.907,19.039 8.408,33.966 17.267,49.268 1.649,2.847 4.011,5.281 6.359,8.313 0.974-2.374 1.465-3.569 2.171-5.29 3.955,8.276 5.879,18.038 18.257,17.058-2.375-6.392-4.549-12.244-6.723-18.096 12.144,20.07 12.144,20.07 18.948,19.091-0.438-2.781-0.875-5.561-1.313-8.342l-.243,.211c1.433,1.954 3.159,3.761 4.233,5.895 1.796,3.572 4.81,4.329 8.179,3.835 8.555-1.254 17.228-0.883 26.164-1.722-2.025-5.253-3.885-10.078-5.745-14.903 2.758,1.878 4.131,4.289 5.27,6.807 2.461,5.44 5.363,8.559 12.46,6.746 18.51-4.729 37.969-6.633 55.733-13.215 40.024-14.83 75.908-37.037 106.52-67.233 13.773-13.586 25.31-28.885 34.306-45.904 3.637-6.88 6.68-14.802 7.229-22.448 1.576-21.961-4.679-42.035-17.357-60.238-8.48-12.176-19.976-19.873-33.734-24.147-18.376-5.71-37-5.201-55.667-0.762-19.554,4.65-36.906,14.537-55.171,22.312-32.219,13.716-60.93,32.997-88.774,53.807-1.868,1.397-3.492,3.12-6.392,5.743 7.022,3.415 12.645,6.151 19.142,9.311 0.633-3.856 1.025-6.244 1.498-9.121-2.753,0.245-4.923,0.438-7.611,0.677 7.969-12.728 35.933-29.497 51.624-31.422 5.303,12.005-0.138,24.448 0.682,37.054 6.255-1.872 6.078-6.647 6.83-10.742 1.734-9.442 3.308-18.913 4.946-28.372 0.581,0.093 1.161,0.186 1.742,0.279-0.878,10.209-1.756,20.417-2.785,32.383 4.259-2.865 6.814-4.584 9.033-6.076 0.277-10.276 1.448-19.574 6.498-28.06-0.815,8.031-1.63,16.062-2.681,26.42 18.727-12.472 37.721-18.035 56.684-23.778 2.75-0.833 4.826-3.889 7.215-5.917 6.528,2.419 8.392,1.959 10.737-3.302 2.459-5.519 4.601-11.178 6.881-16.777-1.144,5.845-2.287,11.69-3.924,20.054 4.474-2.959 7.083-4.684 9.08-6.005 1.501,0.717 2.817,1.346 4.605,2.201 2.594-8.262 4.92-15.666 7.409-23.593-7.909-0.476-14.506-0.394-17.489,7.763zm-118.367,77.497c5.698-4.028 8.066-9.578 8.742-16.497 1.033-10.571 2.853-21.065 4.34-31.591-0.726-0.385-1.452-0.77-2.178-1.155-9.699,5.961-19.399,11.922-29.349,18.037-0.836,7.283-1.785,14.407-2.422,21.558-0.354,3.975 1.708,5.785 5.815,5.301 1.545-8.951 3.042-17.63 4.54-26.308 0.673,0.098 1.347,0.195 2.02,0.293-0.739,9.458-1.478,18.917-2.218,28.389 3.215,1.089 5.553,2.045 7.982,2.615 0.858,0.202 1.938-0.541 2.917-0.853l-.189,.211zm142.077-31.192c-0.205-3.987-0.41-7.974-0.632-12.285 8.192,5.248 12.955,15.99 10.775,23.97-2.564,9.384-7.499,16.994-15.956,22.392-17.575,11.216-35.777,18.821-57.311,20.445-38.663,2.916-74.612-5.452-109.669-20.287-23.861-10.098-44.917-24.903-65.321-40.436-14.056-10.701-27.106-22.898-35.969-38.714-8.036-14.339-6.367-29.011 0.833-42.475 5.317-9.945 15.636-15.113 25.95-18.992 0.764,0.536 1.528,1.072 2.292,1.608-3.48,11.055-6.96,22.111-10.44,33.166 11.378-4.768 9.595-18.292 19.088-25.947-3.082,9.072-5.678,16.716-8.256,24.306 5.455,2.474 7.021-0.31 8.52-4.151 2.594-6.645 5.624-13.12 8.471-19.666 0.774,0.28 1.548,0.559 2.322,0.839-2.482,7.588-4.964,15.175-7.47,22.838 5.279,2.034 6.429-0.865 7.902-3.973 3.879-8.184 8.034-16.238 12.079-24.344 0.637,0.307 1.274,0.613 1.911,0.92-3.512,9.175-7.024,18.35-10.751,28.087 8.909,1.524 8.122-5.701 10.559-9.264 2.858-4.179 5.019-8.835 7.482-13.284 0.599,0.3 1.197,0.6 1.796,0.899-2.857,7.353-5.715,14.706-8.572,22.059 0.89,0.459 1.781,0.918 2.671,1.378 6.331-10.165 12.663-20.33 18.994-30.496 0.712,0.419 1.425,0.838 2.137,1.256-4.693,9.107-9.385,18.214-14.048,27.263 0.978,0.888 1.434,1.641 2.028,1.773 1.384,0.307 2.834,0.315 4.206,0.439 3.855-12.369 10.371-22.615 18.867-28.728-4.954,10.199-9.329,19.205-13.979,28.778 25.842,5.211 51.553,9.093 75.67,19.88 14.731-7.096 29.615-14.267 45.289-21.817-11.482-9.279-23.839-14.471-36.254-19.199-12.54-4.776-25.534-8.36-38.398-12.488 15.837-4.563 64.323,14.577 77.559,30.642 1.667-0.513 3.446-0.912 5.099-1.612 1.483-0.628 2.828-1.585 4.411-2.5-1.089-1.451-1.666-2.369-2.391-3.151-0.981-1.06-1.998-2.113-3.132-3.001-32.07-25.117-68.112-38.989-109.21-38.55-7.597,0.081-15.205-0.193-22.789,0.134-14.036,0.605-28.231,0.439-42.038,2.625-14.929,2.364-29.533,6.876-42.811,14.724-5.508,3.255-9.877,7.401-11.522,13.685-2.739,10.458-5.402,20.946-7.713,31.504-5.179,23.653 4.019,42.778 20.512,58.535 13.565,12.961 28.465,24.523 42.749,36.733 27.664,23.646 61.054,34.798 95.336,43.862 2.964-2.488 5.833-4.896 8.702-7.304 0.312,0.352 0.624,0.703 0.936,1.055-2.046,2.241-4.093,4.482-6.248,6.842 7.41,3.203 7.405,3.196 11.397-0.161 3.528-2.966 6.3-7.11 13.515-9.165-5.205,5.844-8.688,9.755-12.813,14.387 9.498,3.376 12.922-5.073 20.463-7.543-2.453,3.559-4.079,5.917-5.802,8.417 4.891,3.655 8.673,3.25 12.521-1.085 4.558-5.134 9.516-9.92 14.419-14.736 1.724-1.693 3.798-3.03 5.712-4.529 0.35,0.464 0.7,0.928 1.05,1.392-6.02,6.858-12.04,13.715-18.073,20.589 4.576,3.426 7.025,0.953 9.311-1.371 6.34-6.445 12.539-13.03 18.864-19.49 2.307-2.357 4.81-4.521 7.224-6.773 0.449,0.496 0.897,0.991 1.346,1.487-3.7,5.01-7.4,10.02-11.1,15.029 31.452-13.267 59.47-30.988 82.596-54.986-2.834-14.774 1.355-30.282-10.744-41.835-14.569,0.693-28.888,3.033-43.672,10.446 7.22,2.905 10.31,12.074 19.254,6.821-3.833,8.331 4.511,12.536 5.566,20.079 2.926-2.636 4.996-4.501 7.067-6.367-1.872,4.963-3.744,9.926-5.616,14.889 5.211-4.091 8.665-9.081 12.986-13.151 4.673-4.402 4.822-8.106 0.263-12.317zm-202.125,4.372c21.133-20.301 47.3-32.556 72.918-47.89-2.676-1.32-3.853-2.097-5.146-2.508-33.963-10.793-68.958-15.616-104.402-17.103-10.346-0.434-20.608,2.247-30.248,6.606 7.621,17.523 34.455,42.009 66.878,60.895zm69.422,30.959c35.446,9.224 70.745,12.073 105.937,0.561 2.513-19.305-8.169-29.978-21.244-39.424-3.509-2.535-6.675-2.894-10.979-1.681-27.527,7.757-51.262,22.354-73.714,40.544zm-68.709,85.835c33.973,0.541 64.497-7.593 95.457-22.987-4.127-1.538-6.038-2.521-8.068-2.957-7.02-1.508-14.168-2.488-21.106-4.289-12.529-3.252-24.927-7.002-37.41-10.434-3.846-1.058-7.668-1.903-10.85,1.98-8.991,10.97-16.824,22.435-18.023,38.687zm-70.553-187.253c3.754-8.257 6.718-14.775 9.682-21.294 0.509,0.257 1.019,0.514 1.528,0.772-2.15,6.296-4.299,12.592-7.193,21.066 3.861-1.99 6.607-2.474 7.137-3.827 3.873-9.882 7.301-19.937 11.171-30.782-19.059,9.105-24.422,16.909-22.325,34.065zm285.103,19.642c-0.801,4.652-1.492,8.666-2.183,12.68 0.797,0.262 1.594,0.524 2.392,0.786 5.03-4.229 4.277-11.103 7.124-17.237-5.066-1.284-9.116-2.311-13.967-3.54-1.994,7.076-3.781,13.415-5.799,20.575 9.987,0.125 6.643-9.533 12.433-13.264zm-22.411,14.582c0.814,0.272 1.627,0.543 2.441,0.815 7.578-5.447 7.367-14.376 10.047-24.848-3.903,1.871-7.006,2.379-7.426,3.726-2.078,6.646-3.445,13.515-5.062,20.307zm-195.758,100.581c1.143,7.403 1.976,12.797 3.11,20.138 4.775-5.554 8.056-9.371 11.903-13.845-5.349-2.241-9.247-3.876-15.013-6.293zm230.751-69.521c1.305-5.484 2.267-9.523 3.26-13.693-4.9-2.163-8.961-3.955-14.405-6.358 4.052,7.29 7.229,13.005 11.145,20.051zm-192.94,23.695c0.972-6.03 1.943-12.059 3.074-19.075-8.637,4.939-9.439,8.653-3.074,19.075z"/>
    <path d="m143.178,317.214c1.588,4.043 3.175,8.086 4.763,12.129-0.611,0.221-1.222,0.443-1.834,0.664-1.455-4.082-2.911-8.165-4.366-12.247 0.478-0.182 0.957-0.363 1.437-0.546z"/>
    <path d="m131.979,320.633c0.947,1.985 1.893,3.97 2.839,5.955-0.429,0.199-0.858,0.398-1.287,0.598-0.914-2-1.827-4.001-2.741-6.001 0.397-0.184 0.793-0.368 1.189-0.552z"/>
    <path d="m121.862,329.597c-1.577-2.391-3.154-4.781-4.73-7.172 0.72-0.321 1.44-0.641 2.16-0.962 0.777,2.78 1.555,5.559 2.33,8.342-0.002,0.003 0.24-0.208 0.24-0.208z"/>
    <path d="m276.161,136.008c-1.543,3.78-3.086,7.561-4.63,11.341 1.543-3.78 3.086-7.56 4.63-11.341z"/>
    <path d="m280.498,125.172c-1.54,3.778-3.08,7.557-4.62,11.335 1.54-3.779 3.08-7.557 4.62-11.335z"/>
    <path d="m170.81,204.644c-2.223-9.894-1.091-21.024 4.575-33.548-0.569,5.572-0.977,11.166-1.75,16.709-0.792,5.679-1.942,11.309-2.974,17.004-0.038,0.045 0.149-0.165 0.149-0.165z"/>
  </g>
</svg>
