<?xml version='1.0' encoding='iso-8859-1'?>
<!DOCTYPE svg PUBLIC '-//W3C//DTD SVG 1.1//EN' 'http://www.w3.org/Graphics/SVG/1.1/DTD/svg11.dtd'>
<svg version="1.1" xmlns="http://www.w3.org/2000/svg" viewBox="0 0 414.956 414.956" xmlns:xlink="http://www.w3.org/1999/xlink" enable-background="new 0 0 414.956 414.956">
  <g>
    <path d="m206.317,76.203c-1.989,7.955-3.783,15.965-6.001,23.856-8.297,29.512-12.383,60.147-23.637,88.866-3.159,8.062-6.247,16.171-9.865,24.031-3.837,8.336-10.314,14.3-19.511,15.723-11.665,1.805-16.872,8.461-19.793,19.555-3.847,14.61-8.274,29.366-14.891,42.864-6.73,13.728-8.616,28.05-10.538,42.602-1.32,10 1.31,19.084 6.753,27.752 6.326,10.074 11.895,20.643 17.452,31.176 4.154,7.874 2.061,13.848-6.356,17.539-9.032,3.96-18.49,5.371-28.551,4.579-26.139-2.056-49.559-12.453-73.007-22.824-3.868-1.711-7.579-4.362-10.553-7.377-4.809-4.876-4.261-9.504 1.198-13.817 2.522-1.993 5.605-3.267 8.391-4.936 9.293-5.569 18.631-11.069 27.829-16.792 7.348-4.572 12.324-11.077 14.533-19.529 3.281-12.555 6.814-25.055 9.676-37.706 3.748-16.566 6.989-33.249 10.347-49.901 0.784-3.89 1.485-7.849 1.654-11.8 0.297-6.947-2.472-12.459-8.129-16.811-18.797-14.459-25.688-34.907-19.238-57.499 3.071-10.756 6.888-21.296 10.272-31.965 6.76-21.314 13.836-42.538 20-64.024 2.765-9.637 4.037-19.765 5.311-29.756 3.183-24.967 20.176-34.329 43.658-28.183 20.557,5.381 40.765,12.13 61.007,18.647 4.707,1.516 8.926,4.545 12.145,6.235 8.696-3.268 16.588-6.567 24.694-9.209 14.724-4.799 29.523-9.391 44.4-13.69 5.825-1.683 11.908-3.004 17.939-3.346 16.397-0.932 27.303,7.912 30.874,24.182 4.325,19.705 7.999,39.589 13.261,59.042 4.614,17.057 11.337,33.532 16.547,50.444 3.488,11.324 7.517,22.827 8.523,34.489 1.574,18.264-4.443,34.097-20.876,44.743-7.417,4.805-9.734,12.292-7.942,20.918 2.423,11.666 5.056,23.289 7.384,34.974 1.835,9.21 2.787,18.629 5.129,27.698 3.417,13.23 6.921,26.555 12.03,39.175 2.236,5.523 7.943,10.246 13.11,13.844 8.865,6.174 18.515,11.23 27.892,16.657 4.683,2.711 10.711,4.751 10.969,10.941 0.273,6.558-5.196,10.193-10.424,12.673-25.18,11.946-50.732,23.279-79.074,24.562-8.377,0.379-17.228-1.898-25.297-4.626-8.976-3.034-10.932-9.892-6.427-18.252 5.824-10.806 11.641-21.643 18.106-32.067 6.994-11.276 6.973-23.246 5.028-35.582-0.898-5.694-2.201-11.327-3.391-16.972-0.521-2.471-0.679-5.228-1.921-7.305-10.361-17.323-14.565-36.955-20.731-55.793-2.558-7.813-6.36-13.035-14.257-14.262-15.237-2.367-22.761-12.609-28.006-25.726-9.694-24.24-16.569-49.272-22.103-74.757-3.897-17.946-8.674-35.701-13.059-53.541-0.845,0.093-1.69,0.187-2.534,0.281zm-90.523,322.703c-0.799-1.97-1.449-4.006-2.414-5.879-5.787-11.226-11.874-22.304-17.369-33.669-2.151-4.449-3.448-9.431-4.401-14.314-1.993-10.204 0.12-20.14 3.289-29.805 4.381-13.363 9.098-26.616 13.641-39.926 4.435-12.993 8.843-25.995 13.24-39 2.475-7.322 6.898-13.032 14.715-14.504 13.06-2.458 19.548-11.307 23.833-22.72 1.776-4.731 3.919-9.351 5.348-14.183 7.467-25.243 15.154-50.431 21.987-75.847 5.61-20.866 12.53-41.484 14.195-63.267 0.775-10.132-1.581-13.829-11.21-16.532-7.977-2.239-16.036-4.217-23.931-6.713-11.359-3.591-22.567-7.658-33.906-11.318-13.578-4.383-26.471-0.113-30.366,10.963-4.301,12.229-7.776,24.794-10.845,37.398-5.969,24.514-9.603,49.587-18.673,73.351-3.459,9.062-6.343,18.495-8.122,28.015-3.263,17.46-0.277,33.035 16.038,43.719 8.794,5.759 11.382,14.612 9.74,24.61-1.52,9.253-3.535,18.428-5.466,27.609-5.047,24-10.226,47.972-15.237,71.98-2.854,13.673-10.686,23.451-22.765,30.096-3.161,1.739-6.287,3.548-9.382,5.403-7.61,4.56-15.192,9.166-24.806,14.973 6.113,3.261 10.208,5.913 14.649,7.712 8.007,3.244 16.268,5.856 24.339,8.952 15.378,5.899 31.438,7.97 47.731,8.541 5.775,0.201 11.538-0.549 16.148-5.645zm286.212-19.896c-12.862-7.566-23.716-13.961-34.579-20.339-9.308-5.466-16.962-12.483-20.12-23.156-2.661-8.992-5.074-18.081-7.058-27.244-2.976-13.748-5.436-27.608-8.2-41.403-2.483-12.395-5.394-24.713-7.53-37.165-1.866-10.88 1.391-20.056 11.245-26.095 9.028-5.533 13.086-14.091 14.846-24.073 1.533-8.691 0.779-17.171-1.962-25.585-8.275-25.405-16.55-50.833-21.537-77.141-3.368-17.763-7.221-35.354-13.553-52.339-3.564-9.56-10.118-14.671-20.312-14.604-4.246,0.028-8.621,0.813-12.7,2.041-18.643,5.614-37.172,11.606-55.804,17.261-9.373,2.845-12.17,5.828-11.333,15.355 0.721,8.216 1.933,16.468 3.843,24.486 5.099,21.404 10.833,42.655 16.047,64.033 5.742,23.545 13.56,46.379 22.681,68.798 3.865,9.5 9.537,16.814 20.363,19.06 9.336,1.936 14.737,8.186 17.733,17.148 8.799,26.324 18.149,52.467 26.727,78.862 5.466,16.819 5.004,33.278-4.795,49.006-5.705,9.157-10.179,19.088-15.071,28.739-0.75,1.48-0.773,3.329-1.161,5.138 9.473,7.021 19.678,4.676 29.61,3.916 22.33-1.707 42.397-11.197 63.028-18.68 2.864-1.041 5.297-3.276 9.592-6.019z"/>
    <path d="m76.627,135.862c8.904-12.043 11.143-29.208 17.327-44.784 4.964-12.503 6.525-14.255 19.958-11.79 14.861,2.727 29.578,6.286 44.28,9.808 3.429,0.821 6.659,2.751 9.774,4.532 4.532,2.592 6.453,6.341 5.143,11.813-6.29,26.285-12.08,52.696-18.789,78.872-1.749,6.823-5.798,13.181-9.46,19.355-3.627,6.115-9.055,8.606-16.584,6.934-10.164-2.257-20.554-3.475-30.769-5.529-3.472-0.698-6.905-2.226-10.014-3.981-9.293-5.246-16.453-12.199-15.009-24.028 1.3-10.652 3.318-21.214 4.781-31.849 0.334-2.435-0.306-5.003-0.638-9.353zm24.837-24.253c-11.17,17.121-11.17,17.121-10.797,23.013 2.214-0.89 4.433-1.782 8.105-3.258-5.405,9.614-17.439,13.535-14.647,26.46 3.36-2.643 5.997-4.717 8.788-6.912 0.363,1.053 0.669,1.518 0.555,1.671-3.641,4.914-7.412,9.734-10.979,14.7-5.884,8.191-4.85,18.716 2.889,25.045 3.264,2.67 7.216,5.164 11.238,6.107 9.414,2.207 19.042,3.536 28.615,5.02 10.511,1.629 10.584,1.563 15.645-7.686 11.252-20.562 15.631-43.277 20.332-65.859 1.359-6.528 1.962-13.213 3.03-20.652-11.907-0.26-22.583,1.111-33.097-3.098-10.355-4.145-21.105-7.087-30.105-16.963-3.43,10.038-6.385,18.682-9.996,29.249 4.72-3.095 7.572-4.966 10.424-6.837zm61.543-11.354c-8.146-5.884-46.998-15.072-55.507-13.126 9.887,13.224 39.753,20.287 55.507,13.126z"/>
    <path d="m183.801,44.361c-3.587-9.274-11.734-8.95-17.836-13.066 3.332-3.339 7.178-3.26 9.96-1.701 4.948,2.774 9.988,6.004 13.714,10.182 4.831,5.417 1.312,12.805-6.031,13.086-4.599,0.176-9.236-1.482-13.89-1.777-19.16-1.213-36.243-8.98-53.366-16.633-1.934-0.864-3.862-2.08-5.328-3.586-4.213-4.326-3.199-10.339 2.54-12.073 7.176-2.168 14.609-2.62 22.843,3.005-8.14,1.954-15.699-2.21-22.389,3.404 1.621,1.822 2.639,4.005 4.257,4.628 20.8,8.012 42.047,14.082 65.526,14.531z"/>
    <path d="m120.543,44.342c-8.088,5.916-16.176,11.831-24.265,17.747-0.531-0.753-1.063-1.507-1.595-2.26 7.072-7.433 15.498-13.013 24.312-18.059 0.516,0.857 1.032,1.715 1.548,2.572z"/>
    <path d="m127.513,58.037c-8.554,5.182-15.442,9.354-23.994,14.535 5.417-8.563 12.668-12.896 23.994-14.535z"/>
    <path d="m111.273,228.268c-5.311,4.801-10.622,9.602-16.891,15.269 3.952-7.851 8.348-13.54 16.891-15.269z"/>
    <path d="m88.513,273.472c2.656-2.857 5.312-5.713 7.968-8.57 0.644,0.542 1.289,1.084 1.933,1.626-2.34,3.051-4.679,6.102-7.019,9.153-0.96-0.736-1.921-1.473-2.882-2.209z"/>
    <path d="m68.655,355.562c-2.89,2.665-5.781,5.33-8.671,7.994 0.62-5.433 3.529-8.103 8.671-7.994z"/>
    <path d="m89.637,257.185c3.78-3.115 7.559-6.23 11.339-9.344 0.582,0.688 1.165,1.377 1.747,2.065-3.534,3.33-7.069,6.661-10.603,9.991-0.828-0.904-1.655-1.808-2.483-2.712z"/>
    <path d="m63.935,369.948c-2.322,2.92-4.644,5.84-6.966,8.76-0.738-0.572-1.476-1.145-2.215-1.717 2.394-2.988 4.787-5.976 7.181-8.964 0.667,0.641 1.334,1.281 2,1.921z"/>
    <path d="m241.852,95.287c17.632-7.657 36.176-12.048 55.024-15.339 2.136-0.373 4.28-0.734 6.434-0.971 11.667-1.284 13.698-0.315 17.289,11.137 6.699,21.369 13.24,42.8 19.184,64.388 1.986,7.211 2.205,14.96 2.782,22.497 0.928,12.124-5.648,20.296-16.023,24.441-9.255,3.698-19.373,5.243-29.124,7.684-1.034,0.259-2.219-0.052-3.236,0.24-11.615,3.343-21.384,2.073-27.313-10.151-0.572-1.179-3.094-1.411-3.539-1.595-0.962-4.951-1.293-9.216-2.636-13.133-6.805-19.842-10.865-40.315-14.434-60.908-1.651-9.529-6.398-18.622-4.114-28.713 0.002,0.002-0.294,0.423-0.294,0.423zm31.791,79.224c-0.875,6.282-2.954,11.483-1.853,15.89 1.236,4.945 4.588,10.082 8.508,13.346 2.137,1.779 7.358-0.166 11.191-0.396 1.801-0.108 3.669,0.141 5.402-0.243 8.412-1.866 17.036-3.192 25.112-6.045 9.202-3.251 15.197-9.675 13.608-20.582-0.724-4.972-1.125-10.012-2.192-14.909-3.217-14.765-6.311-29.575-10.199-44.169-2.447-9.185-4.177-18.855-10.518-27.853-7.53,10.309-18.522,12.156-28.41,16.461-10.815,4.708-21.976,2.453-33.726,3.712 1.15,6.723 2.208,12.911 3.384,19.784 2.364-1.754 3.855-2.86 5.686-4.22 1.676,8.218-6.616,15.8 0.158,24.274 3.073-5.844 5.683-10.809 8.293-15.773 2.178,12.156-11.486,21.808-3.558,35.217 2.898-5.363 5.424-10.039 7.951-14.715 0.654,8.928-5.772,15.737-5.435,25.335 2.632-2.039 4.258-3.3 6.598-5.114zm35.27-89.777c-7.843,1.7-14.258,3.073-20.663,4.484-6.286,1.384-12.554,2.85-18.847,4.201-6.249,1.342-12.916,1.719-18.489,7.406 22.58,5.686 48.272-1.125 57.999-16.091z"/>
    <path d="m300.323,24.755c-6.029-4.957-13.175-1.352-19.781-2.39 6.05-5.749 17.783-6.838 23.254-2.255 3.218,2.695 4.219,5.99 1.342,9.408-1.574,1.87-3.615,3.66-5.822,4.632-16.465,7.252-32.697,15.238-51.109,16.616-5.013,0.375-10.001,2.195-14.944,1.988-3.042-0.128-7.438-2.166-8.551-4.58-1.144-2.481-0.003-7.179 1.831-9.653 5.721-7.72 12.43-9.947 22.682-8.126-6.553,3.972-12.269,7.436-17.986,10.901 0.281,0.934 0.562,1.869 0.843,2.803 14.009,0.478 27.864-2.169 41.184-6.177 23.552-7.087 23.399-7.596 27.057-13.167z"/>
    <path d="m234.897,90.73c-2.371-9.833 2.773-16.11 7.475-22.6 0.727,0.338 1.454,0.676 2.181,1.014-3.219,7.195-6.438,14.391-9.656,21.586z"/>
    <path d="m315.569,251.55c1.219,5.786 0.26,10.856-4.882,15.955-1.952-7.37 1.215-11.742 4.882-15.955z"/>
    <path d="m300.723,231.765c-2.359-7.645 1.872-12.119 5.136-17.059 0.817,0.392 1.633,0.784 2.45,1.175-2.529,5.295-5.058,10.589-7.586,15.884z"/>
    <path d="m241.852,95.287c0,0 0.296-0.421 0.295-0.423-0.878,0.942-1.755,1.887-2.632,2.831 0.543-7.297 4.08-12.772 8.189-17.926 0.692,0.359 1.385,0.717 2.077,1.076-2.643,4.814-5.286,9.628-7.929,14.442z"/>
    <path d="m301.176,244.605c0.791-6.536 5.495-10.724 9.276-15.466 0.726,0.407 1.451,0.814 2.177,1.221-2.995,5.119-5.99,10.239-8.985,15.358-0.823-0.372-1.646-0.742-2.468-1.113z"/>
    <path d="m339.69,356.887c-3.722,3.001-7.445,6.002-12.729,10.263 4.366-8.926 4.366-8.926 12.729-10.263z"/>
    <path d="m324.211,376.699c2.499-2.706 4.998-5.412 7.497-8.119 0.457,0.367 0.914,0.733 1.371,1.1-2.497,2.722-4.994,5.445-7.491,8.167-0.459-0.382-0.918-0.765-1.377-1.148z"/>
    <path d="m325.901,391.562c1.46-2.165 2.919-4.329 4.378-6.494 0.592,0.386 1.185,0.771 1.777,1.157-1.419,2.191-2.838,4.383-4.257,6.574-0.632-0.413-1.265-0.825-1.898-1.237z"/>
    <path d="m235.151,70.502c-1.07,2.733-2.14,5.465-3.21,8.198-0.545-0.206-1.09-0.413-1.635-0.619 1.028-2.678 2.056-5.356 3.084-8.034 0.587,0.151 1.174,0.303 1.761,0.455z"/>
  </g>
</svg>
