<?xml version="1.0" encoding="iso-8859-1"?>
<!-- Generator: Adobe Illustrator 16.0.0, SVG Export Plug-In . SVG Version: 6.00 Build 0)  -->
<!DOCTYPE svg PUBLIC "-//W3C//DTD SVG 1.1//EN" "http://www.w3.org/Graphics/SVG/1.1/DTD/svg11.dtd">
<svg version="1.1" id="Capa_1" xmlns="http://www.w3.org/2000/svg" xmlns:xlink="http://www.w3.org/1999/xlink" x="0px" y="0px"
	 width="194.661px" height="194.661px" viewBox="0 0 194.661 194.661" style="enable-background:new 0 0 194.661 194.661;"
	 xml:space="preserve">
<g>
	<g>
		<path d="M160.34,140.083c8.085-11.193,3.441-23.742-7.745-29.286c1.5-2.019,2.858-4.291,4.004-6.936
			c5.824-13.431-1.91-25.298-13.885-29.087c13.878-16.458,6.511-41.016-7.93-56.43c-0.331-0.353-0.682-0.644-1.017-0.981
			c4.682-1.35,8.769-3.185,13.438-5.382c3.312-1.557,6.819-2.891,10.482-3.27c3.936-0.407,6.585,2.266,10.002,3.6
			c2.516,0.981,5.508-2.029,4.537-4.538c-3.027-7.835-11.929-8.595-19.224-7.017c-9.066,1.96-15.907,7.999-23.048,13.212
			c-16.605-13.109-38.113-9.374-54.455,2.461c-2.164-5.358-7.598-9.053-12.738-11.541C58.128,2.645,48.949-2.01,43.961,0.962
			c-2.058,1.227-2.769,4.514-0.799,6.202c3.37,2.888,8.91,2.735,13.082,4.102c5.622,1.842,10.52,4.746,13.805,9.62
			c-17.146,15.531-26.001,40.21-11.404,60.876c-14.548-1.47-21.834,13.857-14.916,27.732c0.484,0.971,1.067,1.845,1.684,2.685
			c-10.822,0.86-18.404,15.213-10.912,25.624c1.133,1.575,2.389,2.963,3.701,4.264c-13.791,1.317-25.546,14.4-16.946,29.231
			c12.594,21.72,44.811,20.371,66.828,21.871c27.572,1.879,62.712,5.947,82.165-17.938
			C181.809,161.036,176.005,145.243,160.34,140.083z M130.712,26.937c17.022,18.344,12.67,42.405-9.895,51.803
			c-17.545,7.307-38.708,6.438-56.342,0.162c-0.36-0.128-0.659-0.099-0.989-0.148C42.556,40.625,99.039-7.193,130.712,26.937z
			 M62.083,88.029c22.246,9.33,52.252,7.199,72.524-6.286c13.691,3.733,19.136,13.719,9.185,25.862
			c-8.585,10.476-25.841,8.01-37.743,7.336c-8.432-0.477-16.778-0.623-25.217-0.675c-5.287-0.032-10.425-0.568-15.64-1.494
			c-1.356-0.354-2.712-0.708-4.068-1.062C47.787,108.037,48.135,100.136,62.083,88.029z M49.837,116.466
			c12.983,9.329,37.863,6.147,50.889,6.918c15.781,0.933,33.353,2.438,45.477-6.263c17.232,11.232,2.322,24.93-11.772,29.42
			c-11.066,3.525-24.701,1.896-36.128,1.485c-7.822-0.281-15.458-0.633-23.239-1.478C64.01,145.348,24.885,132.808,49.837,116.466z
			 M143.431,182.278c-13.244,4.729-30.217,2.468-44.014,2.077c-9.411-0.266-18.773-0.85-28.167-1.546
			c-5.919-0.451-11.802-1.197-17.65-2.238c-2-0.44-4-0.882-6-1.323c-13.259-2-14.886-12.451-4.882-31.354
			c0.826-0.047,1.434-0.359,1.898-0.778c12.06,7.424,28.101,8.249,42.04,9.706c21.517,2.248,49.788,4.297,67.517-10.371
			c0.437,0.456,0.965,0.859,1.652,1.141C183.301,158.861,154.77,178.23,143.431,182.278z"/>
		<path d="M116.289,59.279c-1.339-1.873-4.178-2.08-5.9-0.864c-8.837-0.805-17.811-0.555-26.663-0.932
			c-2.44-0.104-3.22,3.146-1.645,4.476c-0.114,0.157-0.289,0.233-0.367,0.429c-8.957,22.591,33.875,24.489,35.789,4.386
			c0.362-0.889,0.709-1.788,0.96-2.734C118.922,62.303,118.024,60.049,116.289,59.279z"/>
		<path d="M89.111,33.651c0.136-5.116-7.422-4.962-7.841,0c-0.228,2.994-1.559,5.743-1.639,8.787
			c-0.063,2.406,1.529,3.64,3.319,3.857c0.751,2.517,4.408,1.483,4.674-0.928c0.089-0.807,0.097-1.661,0.087-2.532
			c0.024-0.142,0.098-0.246,0.11-0.397C88.047,39.471,89.032,36.645,89.111,33.651z"/>
		<path d="M117.271,39.747c-0.015-2.034-0.026-4.072-0.178-6.096c0.206-2.749-1.933-4.009-4.074-3.871
			c-2.141-0.138-4.279,1.122-4.074,3.871c-0.151,2.024-0.162,4.062-0.178,6.096c-0.031,0.644-0.033,1.314-0.021,2.046
			c-0.03,1.725,0.825,2.845,1.964,3.49c1.09,1.743,3.529,1.743,4.619,0c1.139-0.645,1.994-1.765,1.964-3.49
			C117.304,41.06,117.301,40.391,117.271,39.747z"/>
	</g>
</g>
<g>
</g>
<g>
</g>
<g>
</g>
<g>
</g>
<g>
</g>
<g>
</g>
<g>
</g>
<g>
</g>
<g>
</g>
<g>
</g>
<g>
</g>
<g>
</g>
<g>
</g>
<g>
</g>
<g>
</g>
</svg>
