<?xml version="1.0" encoding="iso-8859-1"?>
<!-- Generator: Adobe Illustrator 16.0.0, SVG Export Plug-In . SVG Version: 6.00 Build 0)  -->
<!DOCTYPE svg PUBLIC "-//W3C//DTD SVG 1.1//EN" "http://www.w3.org/Graphics/SVG/1.1/DTD/svg11.dtd">
<svg version="1.1" id="Capa_1" xmlns="http://www.w3.org/2000/svg" xmlns:xlink="http://www.w3.org/1999/xlink" x="0px" y="0px"
	 width="192.968px" height="192.968px" viewBox="0 0 192.968 192.968" style="enable-background:new 0 0 192.968 192.968;"
	 xml:space="preserve">
<g>
	<g>
		<path d="M190.632,79.834c-3.789-8.544-11.354-14.003-20.083-16.801c-18.436-5.909-39.022,5.763-37.453,26.146
			c-8.485,7.13-7.657,19.077-3.738,28.45c0.104,0.246,0.254,0.426,0.397,0.617c-2.403,4.331-3.858,9.216-3.736,13.854
			c-1.291,0.449-2.566,0.991-3.794,1.721c-3.953-5.637-10.592-9.789-17.081-10.113c-1.609-3.238-3.945-6.031-6.927-7.5
			c11.565-24.394,7.268-57.317-14.457-66.616c0.788-4.877,2.417-9.411,5.619-13.433c3.116-3.914,8.002-5.109,11.332-8.227
			c0.426,0.819,0.962,1.565,1.64,2.161c3.684,3.233,9.219,2.394,13.491,1.008c3.533-1.146,7.105-3.491,8.653-6.987
			c2.763-6.242-0.999-13.299-6.877-16.113c-6.664-3.189-17.326-0.042-18.013,8.298c-0.091,1.101,0.692,1.846,1.632,2.148
			c-0.394,0.693-0.715,1.43-0.973,2.055c-0.14,0.341-0.16,0.728-0.251,1.091c-6.083-2.284-13.785,5.101-16.941,9.697
			c-3.355,4.884-5.419,10.533-5.513,16.347c-4.429-0.858-9.407-0.887-14.96,0.123c-0.687,0.125-1.206,0.443-1.646,0.835
			c-5.831-1.403-11.59-0.515-17,1.951c-1.106-5.217-4.273-9.973-7.76-13.943c-3.282-3.735-8.339-7.848-13.522-9.402
			c0.25-0.36,0.549-0.692,0.75-1.075c0.441-0.844,0.405-1.666,0.094-2.341c1.393-4.025,1.181-8.4-2.053-11.848
			c-5.206-5.55-15.999-3.326-19.779,2.692c-3.088,4.916-1.725,12.124,2.439,15.959c3.048,2.807,7.491,3.06,11.461,1.737
			c1.614,2.844,7.112,4.204,9.578,5.727c6.239,3.849,10.295,9.621,12.045,16.525C11.541,73.747-1.32,128.706,38.569,141.45
			c-0.068,10.427,3.867,21.239,14.564,24.974c3.375,1.178,6.851,1.585,10.332,1.52c0.1,8.647,4.971,15.343,14.312,16.453
			c4.983,0.594,10.109-0.511,15.002-2.453c0.192,0.341,0.463,0.652,0.922,0.86c18.573,8.458,42.919,0.593,51.562-18.266
			c0.568-1.239,1.038-2.577,1.455-3.954c13.43,3.348,21.167-17.531,22.007-31.821c0.256-0.011,0.512-0.046,0.764-0.135
			c7.135-2.533,11.474-11.399,11.772-19.399c1.26,1.512,4.037,1.814,5.493,0.351C193.757,102.542,194.527,88.619,190.632,79.834z
			 M105.305,21.579c0.023-0.889,0.3-1.828,0.556-2.673c0.155-0.512,0.314-1.046,0.166-1.585c-0.039-0.144-0.072-0.234-0.105-0.325
			c0.142,0.116,0.369,0.187,0.729,0.015c0.623-0.297,0.457-1.103-0.018-1.41c0.842-0.75,1.708-1.47,2.769-1.976
			c1.625-0.775,3.207-0.463,4.96,0.194c1.029,0.386,2.662,1.809,3.328,2.774c0.639,0.925,0.694,1.094,0.969,2.049
			c0.181,0.625,0.179,1.461,0.081,1.92c-0.322,1.512-1.657,2.695-3.412,3.645c-2.156,1.166-6.162,2.629-8.563,1.507
			C105.124,24.948,105.265,23.148,105.305,21.579z M18.6,23.268c-3.096,2.019-6.272,5.516-10.07,3.184
			c-2.616-1.606-2.89-5.573-2.015-8.161c1.306-3.867,7.405-4.123,10.352-2.482C19.435,17.239,19.451,20.314,18.6,23.268z
			 M22.225,92.026c4.695-21.473,19.428-33.807,39.386-36.622c0.587,0.352,1.257,0.584,2.088,0.475
			c22.221-2.884,32.738,14.81,32.959,34.959c0.252,22.967-15.387,42.376-38.489,44.534C30.823,137.928,16.782,116.912,22.225,92.026
			z M57.735,159.55c-8.546-1.605-11.998-8.988-13.589-16.637c3.21,0.637,6.69,1.046,10.479,1.182
			c17.576,0.626,30.631-7.798,38.976-19.888c3.445,3.787,7.022,6.167,4.582,13.332c-2.527,7.417-10.336,13.014-16.783,16.729
			C74.472,158.261,65.765,161.06,57.735,159.55z M67.455,167.652c6.36-0.828,12.616-3.192,18.165-6.166
			c9.409-5.043,18.507-13.446,21.409-24.01c0.376-1.369,0.48-2.896,0.449-4.462c5.095,2.745,10.025,5.565,9.958,12.369
			c-0.079,8.007-7.364,15.28-12.957,20.11C94.184,174.387,73.209,184.359,67.455,167.652z M132.797,169.029
			c-8.291,9.4-22.038,12.012-33.989,10.072c3.521-1.945,6.817-4.199,9.678-6.457c8.519-6.72,16.526-15.981,17.315-27.259
			c0.097-1.385-0.021-2.764-0.291-4.122c1.57-0.615,3.042-0.957,4.436-1.111c0.649,0.139,1.295,0.14,1.886-0.041
			c4.273,0.269,7.311,3.304,8.015,10.311C140.528,157.224,137.158,164.082,132.797,169.029z M147.894,154.951
			c0.784-6.475-0.303-13.299-4.405-18.135c-2.599-3.063-5.679-4.748-8.897-5.396c0.862-5.711,2.272-10.732,7.263-15.303
			c7.424-6.799,17.977,0.598,19.083,9.178C161.954,133.169,158.065,153.566,147.894,154.951z M168.032,119.904
			c-2.983-10.827-15.775-17.45-26.067-13.322c-3.142,1.26-6.028,3.527-8.486,6.329c-1.198-6.772-1.35-14.472,4.84-18.709
			c5.46-3.736,13.145-3.104,19.188-1.454c5.952,1.624,12.733,5.436,15.195,11.425C175.444,110.849,171.306,115.103,168.032,119.904z
			 M180.998,105.07c-0.167-1.035-0.37-2.057-0.706-2.989c-3.191-8.858-12.122-14.242-20.735-16.764
			c-6.233-1.825-13.527-2.111-19.804,0.117c3.293-12.906,14.852-18.414,28.599-14.429c6.254,1.812,11.363,6.104,14.333,11.841
			C186.66,90.523,182.524,97.628,180.998,105.07z"/>
		<path d="M80.19,103.179c-0.984-2.902-5.516-4.168-7.073-0.924c-2.242,4.67-1.473,9.91-5.321,13.923
			c-2.337,2.438-6.103,3.066-9.327,2.618c-4.164-0.579-15.229-4.789-11.685-10.865c0.843-1.445-0.912-3.453-2.405-2.404
			c-10.886,7.654,1.898,18.58,10.157,21.092c5.7,1.732,12.296,0.978,17.265-2.327C77.781,120.314,82.567,110.193,80.19,103.179z"/>
		<path d="M54.938,80.012c-1.374-1.912-3.792-1.912-5.166,0c-1.025,1.426-1.203,2.64-0.538,4.276
			c0.584,1.433,0.342,3.458,0.687,4.994c0.543,2.416,4.325,2.416,4.868,0c0.313-1.395,0.44-2.794,0.568-4.215
			C55.544,82.983,56.332,81.952,54.938,80.012z"/>
		<path d="M68.18,77.19c-0.819-0.623-2.472-0.623-3.291,0c-3.206,2.438-1.383,7.964-1.028,11.422c0.353,3.441,4.994,3.441,5.348,0
			C69.562,85.154,71.384,79.628,68.18,77.19z"/>
	</g>
</g>
<g>
</g>
<g>
</g>
<g>
</g>
<g>
</g>
<g>
</g>
<g>
</g>
<g>
</g>
<g>
</g>
<g>
</g>
<g>
</g>
<g>
</g>
<g>
</g>
<g>
</g>
<g>
</g>
<g>
</g>
</svg>
