<?xml version="1.0" encoding="iso-8859-1"?>
<!-- Generator: Adobe Illustrator 16.0.0, SVG Export Plug-In . SVG Version: 6.00 Build 0)  -->
<!DOCTYPE svg PUBLIC "-//W3C//DTD SVG 1.1//EN" "http://www.w3.org/Graphics/SVG/1.1/DTD/svg11.dtd">
<svg version="1.1" id="Capa_1" xmlns="http://www.w3.org/2000/svg" xmlns:xlink="http://www.w3.org/1999/xlink" x="0px" y="0px"
	 width="191.885px" height="191.885px" viewBox="0 0 191.885 191.885" style="enable-background:new 0 0 191.885 191.885;"
	 xml:space="preserve">
<g>
	<g>
		<path d="M190.667,75.89c-1.805-22.154-6.946-43.829-10.235-65.765c-0.305-2.035-2.916-3.262-4.743-2.693
			C117.281,25.622,57.545,39.665,1.838,65.51c-1.616,0.75-2.049,2.733-1.751,4.302c4.212,22.167,8.18,45.328,21.737,63.903
			c-0.118,1.817,1.739,3.954,3.713,3.351c-0.011,0.025-0.021,0.053-0.032,0.079c9.204-1.279,18.466-3.207,27.639-4.792
			c0.55-0.096,0.972-0.338,1.33-0.642c2.377,1.238,5.13,1.848,7.909,1.655c0.425,1.618,1.28,2.817,2.224,4.615
			c2.422,4.615,3.624,10.027,4.944,15.036c2.111,8.007,4.261,15.971,8.943,22.906c1.99,2.948,11.629,13.62,14.734,5.941
			c2.653-6.562-3.575-17.926-5.84-23.812c-3.412-8.867-7.721-17.563-10.693-26.608c3.714-2.084,6.395-5.552,6.592-10.549
			c0.004-0.108-0.013-0.206-0.011-0.312c0.662,1.385,1.411,2.708,2.231,3.979c-2.581,0.921-4.199,2.181-3.045,3.914
			c0.122,0.183,0.244,0.364,0.365,0.548c0.55,0.825,1.488,1.543,2.545,1.46c11.484-0.899,22.796-3.032,34.206-4.531
			c0.215,0.212,0.381,0.488,0.603,0.691c1.332,1.215,3.178,0.367,3.472-1.171c3.427-0.395,6.857-0.761,10.314-0.942
			c2.368,4.422,6.28,7.816,11.629,8.404c4.521,16.701,6.314,35.844,19.92,47.95c1.257,1.118,3.692,1.198,4.499-0.578
			c7.783-17.128-7.375-33.819-13.872-49.459c3.94-2.072,7.136-5.442,8.938-9.414c2.513,0.439,5.028,0.567,7.764,0.381
			c1.9-0.13,4.751-0.245,6.762-1.257c0.88,0.361,1.863,0.381,2.781-0.295C195.092,110.901,191.762,89.331,190.667,75.89z
			 M36.839,127.909c0.745-0.373,1.34-0.988,1.483-1.911c0.056-0.358,0.169-0.692,0.244-1.038l0.379-0.49
			c0.01-0.021,0.013-0.029,0.022-0.051c3.208-2.353,1.015-7.851-3.534-7.142c-2.121,0.33-3.339,2.159-3.926,4.058
			c-0.31,1.004-0.127,2.042,0.344,2.939c0.008,0.1,0.016,0.201,0.054,0.386c0.056,0.447,0.118,0.893,0.186,1.338
			c0.222,1.503,1.576,2.258,2.968,2.305c-2.869,0.623-5.709,1.339-8.444,2.281c-7.592-13.369-11.725-27.744-15.188-42.646
			c-1.446-6.221-6.244-15.619,2.156-19.501c5.995-2.771,12.109-5.262,18.256-7.669c0.877,6.634,4.056,13.93,5.623,19.63
			c3.073,11.178,5.26,25.206,10.715,35.647c-0.461,1.399-0.78,2.874-0.766,4.492c0.019,2.046,0.514,3.908,1.356,5.547
			C44.812,126.553,40.797,127.126,36.839,127.909z M87.065,174.858c0.228,0.828,0.354,1.682,0.51,2.53
			c-5.143-3.898-7.911-10.506-9.898-16.361c-2.047-6.036-4.054-20.976-10.022-27.212c1.164-0.042,2.319-0.183,3.456-0.403
			C75.773,147.448,83.107,160.53,87.065,174.858z M64.033,127.081c-1.697-0.168-2.669,0.77-3.001,1.979
			c-3.547-1.406-6.708-3.674-7.219-7.877c-0.637-5.242,3.889-8.287,8.598-8.72c5.026-0.461,13.979,1.498,14.585,7.781
			C77.651,127.049,68.609,127.535,64.033,127.081z M63.41,106.027c-4.193-0.07-8.172,1.336-11.116,3.836
			c-2.029-8.71-5.709-17.54-8.125-25.886c-1.79-6.187-3.6-12.368-5.344-18.567c-0.615-2.185-1.206-4.377-1.779-6.574
			c-0.006-0.024-0.009-0.035-0.014-0.059c2.617-1,5.224-2.026,7.845-3.01c4.865-1.828,9.764-3.563,14.678-5.257
			c9.172,13.021,12.806,28.983,16.473,44.292c1.352,5.643,2.475,11.923,4.262,17.891C76.274,108.211,69.02,106.121,63.41,106.027z
			 M98.434,122.226c-0.622,0.107-3.946,0.384-7.434,0.991c-4.18-14.073-8.614-28.04-12.555-42.243
			c-3.149-11.349-7.32-22.751-14.886-31.817c10.251-3.459,20.602-6.639,30.979-9.735c-0.102,0.16-0.172,0.342-0.148,0.553
			c1.655,14.527,7.177,29.515,10.385,43.853c2.287,10.219,4.224,25.225,10.077,35.708
			C109.329,120.312,103.834,121.287,98.434,122.226z M135.819,101.972c-0.144-0.615-0.408-1.225-0.979-1.781
			c-0.576-0.562-1.184-1.215-1.918-1.566c-1.573-0.752-3.27-0.661-4.573,0.59c-1.04,0.999-1.256,2.279-1.262,3.651
			c-0.011,2.531,2.004,3.711,3.953,3.604c0.588,0.182,1.17,0.163,1.735,0.032c-1.42,3.428-1.791,7.545-1.056,11.547
			c-3.163,0.066-6.337,0.305-9.512,0.618c-3.809-13.61-9.475-27.08-12.907-40.894c-3.015-12.133-4.72-28.713-13.056-38.57
			c-0.092-0.109-0.225-0.139-0.349-0.191c10.872-3.232,21.771-6.358,32.665-9.482c1.915,2.318,3.194,12.284,3.587,14.049
			c1.654,7.416,3.163,14.864,4.705,22.304c1.752,8.46,2.409,24.793,8.585,31.765c-0.551,0.322-1.099,0.688-1.64,1.129l-0.001,0.001
			C140.413,98.848,137.804,100.088,135.819,101.972z M166.247,173.338c-9.578-11.014-12.124-26.755-17.008-40.355
			c0.455-0.049,0.91-0.11,1.359-0.193C156.167,145.184,168.539,160.227,166.247,173.338z M159.842,117.246
			c-0.396,0.357-0.514,0.878-0.473,1.417c-1.188,2.765-3.56,5.017-6.405,6.438c-1.426-0.533-3.188,0.059-3.865,1.381
			c-1.084,0.224-2.178,0.36-3.262,0.335c-11.274-0.274-11.676-21.582-1.453-24.755c0.273,0.141,0.552,0.282,0.885,0.255
			c7.403-0.619,12.706,2.474,14.607,9.982C160.319,114.061,160.242,115.711,159.842,117.246z M178.625,114.403
			c-1.821-0.086-3.755,0.738-5.532,1.098c-2.145,0.436-4.372,0.775-6.608,1.016c0.204-1.626,0.222-3.292-0.1-4.986
			c-1.386-7.337-8.331-15.367-15.734-15.335c-0.361-5.82-3.339-12.214-4.718-17.909c-2.28-9.42-4.494-18.862-6.943-28.239
			c-0.786-3.008-3.094-16.878-7.589-21.333c4.392-1.26,8.786-2.516,13.168-3.789c8.328-2.418,16.627-4.925,24.921-7.457
			c6.061-1.851,3.754-3.495,5.091,3.674c1.75,9.39,3.496,18.775,5.074,28.196C181.962,63.089,191.84,102.987,178.625,114.403z"/>
		<path d="M24.565,73.381c-0.619-0.342-1.238-0.684-1.857-1.026c-1.182-0.799-2.159-0.88-2.927-0.553
			c-1.32,0.398-1.927,1.879-1.909,3.417c-0.003,0.044-0.003,0.087-0.004,0.131c0.002,0.044,0.002,0.087,0.004,0.131
			c-0.018,1.538,0.589,3.019,1.909,3.417c0.767,0.327,1.744,0.245,2.927-0.553c0.619-0.342,1.238-0.684,1.857-1.026
			C26.048,76.501,26.048,74.201,24.565,73.381z"/>
		<path d="M58.275,60.973c-1.718-3.149-6.968-1.454-9.537-0.613c-4.039,1.322-2.359,7.631,1.764,6.397
			c0.271-0.081,0.551-0.123,0.823-0.195c0.188,0.07,0.372,0.136,0.579,0.173c0.193,0.677,0.732,1.24,1.646,1.24
			c1.073,0,1.626-0.774,1.706-1.601c0.934-0.254,1.832-0.631,2.488-1.291C58.844,63.979,59.011,62.32,58.275,60.973z"/>
		<path d="M89.021,52.3c-1.935-2.722-4.902-1.686-7.546-1.179c-3.38,0.648-2.977,5.947-0.045,6.566
			c0.378,0.306,0.812,0.55,1.362,0.624c2.055,0.276,5.197-0.216,6.229-2.385C89.546,54.821,89.793,53.385,89.021,52.3z"/>
		<path d="M111.768,43.064c-3.666,1.064-3.666,5.858,0,6.922c2.39,1.623,6.028-0.572,6.028-3.461
			C117.796,43.637,114.157,41.442,111.768,43.064z"/>
		<path d="M161.42,35.203c-0.031-0.12-0.065-0.237-0.096-0.357c0.141-0.92-0.002-1.885-0.487-2.653
			c-2.003-3.171-6.581-3.438-7.956,0.489c-0.686,1.958,0.188,5.409,2.188,6.257c0.94,0.398,1.941,0.54,2.875,0.333
			C159.909,39.451,161.987,37.368,161.42,35.203z"/>
		<path d="M174.283,100.057c-0.089-0.096-0.177-0.189-0.265-0.284c-0.329-0.658-0.817-1.104-1.411-1.359
			c-1.836-1.381-3.617-0.631-4.735,0.854c-1.484,1.117-2.233,2.897-0.854,4.733c0.255,0.594,0.7,1.083,1.359,1.412
			c0.095,0.088,0.189,0.176,0.285,0.264C172.424,109.166,177.772,103.816,174.283,100.057z"/>
		<path d="M104.427,108.808c-2.018-1.351-5.072-1.479-6.551,0.749c-1.547,2.329,0.444,4.405,2.149,5.795
			c1.581,1.287,4.032,0.473,4.757-1.057C106.35,112.961,106.609,110.27,104.427,108.808z"/>
	</g>
</g>
<g>
</g>
<g>
</g>
<g>
</g>
<g>
</g>
<g>
</g>
<g>
</g>
<g>
</g>
<g>
</g>
<g>
</g>
<g>
</g>
<g>
</g>
<g>
</g>
<g>
</g>
<g>
</g>
<g>
</g>
</svg>
