<?xml version='1.0' encoding='iso-8859-1'?>
<!DOCTYPE svg PUBLIC '-//W3C//DTD SVG 1.1//EN' 'http://www.w3.org/Graphics/SVG/1.1/DTD/svg11.dtd'>
<svg version="1.1" xmlns="http://www.w3.org/2000/svg" viewBox="0 0 380.283 380.283" xmlns:xlink="http://www.w3.org/1999/xlink" enable-background="new 0 0 380.283 380.283">
  <g>
    <path d="m5.409,191.028c-1.427-25.387 4.701-53.578 15.402-80.98 15.036-38.498 40.541-68.023 76.273-88.555 32.737-18.811 68.059-24.396 105.407-20.15 14.582,1.658 29.192,2.152 43.592,5.836 30.664,7.846 55.404,24.251 76.531,47.652 32.044,35.492 45.626,78.039 51.087,124.298 3.278,27.763 0.384,55.164-5.256,82.112-8.52,40.713-34.019,69.423-68.961,90.334-19.081,11.419-39.913,18.74-61.269,24.627-20.613,5.681-41.532,4.489-62.349,2.064-26.011-3.03-52.027-7.49-75.212-20.149-33.522-18.302-61.877-42.54-78.441-78.125-12.497-26.846-17.165-55.338-16.804-88.964zm71.689,135.868l-.029,.05c25.341,24.368 57.529,32.022 90.993,37.818-0.383-0.989-0.415-1.466-0.665-1.655-2.334-1.764-4.716-3.467-7.066-5.21-22.709-16.85-35.593-39.057-35.202-67.674 0.433-31.631 10.538-60.113 31.777-83.793 12.505-13.942 26.208-26.833 39.69-39.868 19.342-18.703 33.944-40.671 44.764-65.091 3.049-6.883 5.368-14.951 5.006-22.327-1.268-25.818-12.681-46.491-34.855-60.543-3.052-1.935-6.56-3.612-10.072-4.286-21.907-4.198-43.75-5.331-65.438,1.731-28.599,9.311-53.487,24.171-73.159,47.292-3.913,4.599-7.487,9.188-8.774,15.205-14.433,8.698-15.236,25.754-23.376,38.317-0.691,1.067-0.092,2.971-0.092,5.582 6.268-4.776 11.395-8.683 16.523-12.591-1.403,3.557-3.616,6.452-6.506,8.27-13.359,8.406-18.797,20.957-19.759,36.077-0.092,1.443-0.861,2.838-0.991,4.284-1.102,12.264-3.875,24.47-1.829,38.254 9.304-6.383 14.977-15.629 24.561-19.846-5.152,6.782-10.601,13.253-16.992,18.6-7.838,6.558-8.98,13.865-5.381,23.381 10.232-6.431 15.45-17.505 25.817-22.688-6.676,8.885-14.131,16.994-21.294,25.353-5.269,6.149-5.088,10.401 0.067,18.142 6.478-4.707 9.544-13.236 17.775-16.034-3.607,5.622-7.684,10.789-11.818,15.91-7.201,8.922-7.261,9.768-0.776,21.576 6.763-6.585 13.431-13.077 20.098-19.569 0.468,0.464 0.936,0.929 1.404,1.393-6.763,7.998-13.526,15.996-20.599,24.361 2.05,4.482 4.067,8.891 6.266,13.698 7.806-6.695 11.971-15.069 20.19-19.12-3.631,6.138-7.934,11.625-12.178,17.158-5.615,7.32-5.619,7.454-0.226,15.315 1.02,1.487 2.301,2.795 3.857,4.66 6.445-6.74 12.595-13.171 18.745-19.603 0.548,0.477 1.096,0.955 1.645,1.432-5.645,7.383-11.291,14.766-17.404,22.761 3.67,3.124 6.939,5.907 10.536,8.969 6.909-5.983 11.652-14.813 20.912-18.903-5.893,7.746-11.787,15.492-18.161,23.868 4.566,3.551 8.291,6.447 12.016,9.344zm197.589-84.657c-2.777-0.993-4.463-2.026-6.218-2.159-26.452-2.017-52.829-0.564-79.165,2.044-1.378,0.136-2.756,0.965-3.995,1.705-12.211,7.297-17.162,18.573-17.475,32.299-0.113,4.968 2.055,8.75 7.031,9.897 4.963,1.144 10.066,1.95 15.146,2.238 4.745,0.269 9.584-0.812 14.293-0.363 2.52,0.24 5.769,1.874 7.054,3.91 1.912,3.028-0.794,5.306-3.43,6.996-2.165,1.388-4.738,2.529-6.255,4.465-4.013,5.122-8.422,10.231-11.014,16.08-2.262,5.105-1.26,10.868 3.939,14.858 8.933,6.856 24.24,6.759 32.819-0.782 6.899-6.064 13.206-12.583 16.888-21.453 2.798-6.74 6.515-13.231 10.67-19.248 10.478-15.174 15.318-32.406 19.712-50.487z"/>
    <path d="m185.606,75.637c13.145-1.161 22.157,5.06 30.725,12.144 6.924,5.724 8.172,10.5 3.476,18.319-9.218,15.349-22.449,26.128-39.613,31.586-22.058,7.015-44.75,7.748-67.61,6.042-5.964-0.445-7.545-2.173-6.654-7.478 3.76-22.388 6.007-45.221 17.36-65.568 4.463-7.998 8.906-16.105 14.321-23.453 9.801-13.299 27.604-18.763 43.317-14.2 12.048,3.499 16.673,11.639 12.741,23.452-2.048,6.153-5.014,12.002-8.063,19.156z"/>
    <path d="m21.385,178.727c10.053-9.43 20.106-18.86 30.537-28.644-8.675,11.344-18.618,20.907-28.747,30.299-0.596-0.552-1.193-1.104-1.79-1.655z"/>
    <path d="m77.099,326.896c1.828-1.435 3.903-2.647 5.438-4.347 4.079-4.521 7.925-9.252 12.81-13.181-2.464,6.415-6.681,11.655-11.321,16.406-1.323,1.355-4.574,0.827-6.948,1.167-0.008,0.004 0.02-0.045 0.021-0.045z"/>
    <path d="m26.62,148.869c4.136-3.959 8.273-7.919 12.409-11.878 0.106,0.101 0.212,0.202 0.318,0.304-4.216,3.879-8.432,7.759-12.648,11.638-0.027-0.021-0.053-0.043-0.079-0.064z"/>
    <path d="m110.248,326.852c-1.253,2.127-2.505,4.254-3.758,6.381-0.484-0.25-0.968-0.5-1.451-0.751 1.067-2.253 2.133-4.506 3.2-6.759 0.669,0.377 1.339,0.753 2.009,1.129z"/>
  </g>
</svg>
