<?xml version="1.0" encoding="iso-8859-1"?>
<!-- Generator: Adobe Illustrator 16.0.0, SVG Export Plug-In . SVG Version: 6.00 Build 0)  -->
<!DOCTYPE svg PUBLIC "-//W3C//DTD SVG 1.1//EN" "http://www.w3.org/Graphics/SVG/1.1/DTD/svg11.dtd">
<svg version="1.1" id="Capa_1" xmlns="http://www.w3.org/2000/svg" xmlns:xlink="http://www.w3.org/1999/xlink" x="0px" y="0px"
	 width="187.004px" height="187.004px" viewBox="0 0 187.004 187.004" style="enable-background:new 0 0 187.004 187.004;"
	 xml:space="preserve">
<g>
	<g>
		<path d="M98.355,61.776c0.072,0,0.072-0.112,0-0.112"/>
		<path d="M101.952,63.546c-0.245,0.098-0.42,0.244-0.611,0.379c-0.059-0.027-0.116-0.043-0.175-0.07
			c-2.781-9.773-9.917-15.367-20.158-19.04c-6.251-2.243-12.887-3.266-18.821-6.349c-8.626-4.481-5.863-15.916-0.47-21.624
			c9.414-9.964,27.584-9.9,39.854-7.22c2.832,0.618,5.561,1.577,8.145,2.817c-1.598,1.472-2.938,3.202-3.783,4.723
			c-2.469,4.438-2.269,9.885-0.303,14.445c2.43,5.634,9.502,10.31,15.352,9.353c0.618,2.573,3.927,3.674,5.753,1.018
			c9.228-13.424,0.819-28.916-11.88-35.906c-13.737-7.56-33.507-7.952-47.791-1.78C53.549,10.131,44.28,23.879,51.195,38.457
			c7.888,16.628,31.608,9.147,42.223,22.646c-51.092-13.662-94.269,70.419-52.962,110.9c23.955,23.475,59.866,18.658,76.558-9.273
			c0.356-0.597,0.621-1.274,0.956-1.893c24.062,29.946,40.088-16.11,43.957-37.366C168.809,85.686,143.627,46.901,101.952,63.546z
			 M121.684,34.66c-1.211,0.158-2.443,0.17-3.836-0.204c-2.539-0.682-4.615-3.325-5.544-5.663c-0.99-2.496-1.093-5.413,0.063-7.869
			c0.876-1.862,2.555-2.936,4.189-4.007c0.493,0.421,1.025,0.786,1.494,1.241C123.005,22.976,122.617,28.737,121.684,34.66z
			 M45.739,166.721c-21.227-17.716-16.823-49.636-5.045-71.143c12.45-22.735,34.598-32.643,57.086-25.462
			c0.54,0.813,1.542,1.144,2.475,1.011c0.96,1.605,2.102,2.984,3.411,4.185c-0.234,0.987-0.065,2.092,0.775,3.098
			C139.338,120.159,103.651,215.053,45.739,166.721z M155.236,116.322c-1.696,15.452-11.755,62.736-31.738,39.516
			c11.301,0.048,14.817-16.135,15.481-28.331c4.634-24.931-2.908-57.275-20.037-60.829c12.34,0.004,22.755,4.306,30.686,17.328
			C155.877,94.269,156.489,104.903,155.236,116.322z"/>
		<path d="M76.329,109.438c-0.407-0.729-1.121-1.218-1.907-1.574c-0.449-0.97-1.551-1.611-2.682-0.873
			c-8.587,5.6-11.583,14.259-6.65,23.603c0.983,1.862,3.584,2.469,5.347,1.402C79.199,126.692,81.308,118.366,76.329,109.438z"/>
	</g>
</g>
<g>
</g>
<g>
</g>
<g>
</g>
<g>
</g>
<g>
</g>
<g>
</g>
<g>
</g>
<g>
</g>
<g>
</g>
<g>
</g>
<g>
</g>
<g>
</g>
<g>
</g>
<g>
</g>
<g>
</g>
</svg>
