<?xml version="1.0" encoding="iso-8859-1"?>
<!-- Generator: Adobe Illustrator 16.0.0, SVG Export Plug-In . SVG Version: 6.00 Build 0)  -->
<!DOCTYPE svg PUBLIC "-//W3C//DTD SVG 1.1//EN" "http://www.w3.org/Graphics/SVG/1.1/DTD/svg11.dtd">
<svg version="1.1" id="Capa_1" xmlns="http://www.w3.org/2000/svg" xmlns:xlink="http://www.w3.org/1999/xlink" x="0px" y="0px"
	 width="401.414px" height="401.414px" viewBox="0 0 401.414 401.414" style="enable-background:new 0 0 401.414 401.414;"
	 xml:space="preserve">
<g>
	<g>
		<path d="M153.929,273.466l93.595,0.073c3.543-2.672,6.925-5.264,10.085-8.55c15.203-15.81,32.871-46.117,30.738-100.73
			c-1.693-43.357-24.646-68.011-44.896-89.763c-19.357-20.791-34.648-37.214-29.578-65.456c0.498-2.775-0.564-5.595-2.771-7.358
			c-1.384-1.108-3.081-1.683-4.793-1.682c-1.015,0-2.033,0.199-2.995,0.605c-43.55,18.445-90.422,77.612-90.422,163.949
			c0,39.219,9.052,71.672,26.182,93.862C143.541,264.202,148.534,269.212,153.929,273.466z M222.473,217.877
			c17.394-24.345,10.795-45.454,10.501-46.346c-1.911-5.451-0.484-11.711,3.672-15.864c0.364-0.362,0.753-0.718,1.159-1.046
			c1.375-1.116,2.93-1.989,4.616-2.585c7.998-2.8,16.785,1.423,19.59,9.415c0.518,1.485,12.379,36.62-14.53,74.295
			c-0.493,0.691-1.046,1.341-1.64,1.938c-5.332,5.336-13.659,6.021-19.795,1.635c-3.34-2.387-5.553-5.924-6.226-9.973
			C219.145,225.291,220.087,221.223,222.473,217.877z"/>
		<path d="M154.475,293.576l-24.436,107.838H272.46l-24.391-107.631L154.475,293.576z M191.077,372.598
			c0,5.655-4.588,10.238-10.245,10.238c-5.656,0-10.244-4.583-10.244-10.238v-50.201c0-5.66,4.588-10.248,10.244-10.248
			c5.657,0,10.245,4.588,10.245,10.248V372.598z"/>
	</g>
</g>
<g>
</g>
<g>
</g>
<g>
</g>
<g>
</g>
<g>
</g>
<g>
</g>
<g>
</g>
<g>
</g>
<g>
</g>
<g>
</g>
<g>
</g>
<g>
</g>
<g>
</g>
<g>
</g>
<g>
</g>
</svg>
