<?xml version="1.0" encoding="iso-8859-1"?>
<!-- Generator: Adobe Illustrator 16.0.0, SVG Export Plug-In . SVG Version: 6.00 Build 0)  -->
<!DOCTYPE svg PUBLIC "-//W3C//DTD SVG 1.1//EN" "http://www.w3.org/Graphics/SVG/1.1/DTD/svg11.dtd">
<svg version="1.1" id="Capa_1" xmlns="http://www.w3.org/2000/svg" xmlns:xlink="http://www.w3.org/1999/xlink" x="0px" y="0px"
	 width="410.001px" height="410.001px" viewBox="0 0 410.001 410.001" style="enable-background:new 0 0 410.001 410.001;"
	 xml:space="preserve">
<g>
	<path d="M255.236,22.929c2.758-1.801,5.657-3.401,8.688-4.738c4.801-2.113,6.979-7.719,4.865-12.519
		c-2.117-4.801-7.721-6.979-12.521-4.863c-8.419,3.708-15.915,8.884-22.526,14.781C155.886-8.023,84.396,2.07,72.272,39.136
		c-5.827,17.825-10.429,34.304,0.859,51.556c-14.962,26.468-11.351,52.762-7.015,84.293c0.336,2.459,0.682,4.953,1.018,7.483
		c0.912,6.794-5.032,17.276-10.782,27.412c-8.646,15.229-17.578,30.979-6.664,38.417c18.653,12.714,21.896,37.736,25.033,61.948
		c0.743,5.75,1.516,11.695,2.479,17.476c1.662,9.972,10.074,14.82,25.721,14.82c6.961,0,14.39-0.859,21.581-1.691
		c6.163-0.711,11.981-1.385,16.643-1.385c2.604,0,4.639,0.209,6.22,0.637c18.798,5.094,35.222,43.106,41.161,65.869
		c0.479,1.849,1.901,3.302,3.738,3.824c0.485,0.138,0.981,0.206,1.471,0.206c1.369,0,2.707-0.521,3.721-1.491l96.356-91.958
		c1.494-1.423,2.041-3.574,1.416-5.538c-8.51-26.619,9.171-52.599,24.773-75.529c6.807-10.005,13.238-19.455,17.635-28.763
		c6.021-12.739,8.966-26.551,9.506-40.466c8.375-8.274,12.464-19.629,16.453-31.835C375.295,98.656,327.564,50.484,255.236,22.929z"
		/>
</g>
<g>
</g>
<g>
</g>
<g>
</g>
<g>
</g>
<g>
</g>
<g>
</g>
<g>
</g>
<g>
</g>
<g>
</g>
<g>
</g>
<g>
</g>
<g>
</g>
<g>
</g>
<g>
</g>
<g>
</g>
</svg>
