<?xml version="1.0" encoding="iso-8859-1"?>
<!-- Generator: Adobe Illustrator 16.0.0, SVG Export Plug-In . SVG Version: 6.00 Build 0)  -->
<!DOCTYPE svg PUBLIC "-//W3C//DTD SVG 1.1//EN" "http://www.w3.org/Graphics/SVG/1.1/DTD/svg11.dtd">
<svg version="1.1" id="Capa_1" xmlns="http://www.w3.org/2000/svg" xmlns:xlink="http://www.w3.org/1999/xlink" x="0px" y="0px"
	 width="434.236px" height="434.236px" viewBox="0 0 434.236 434.236" style="enable-background:new 0 0 434.236 434.236;"
	 xml:space="preserve">
<g>
	<g>
		<path d="M325.239,229.537c0.897-0.897,0.897-2.354,0-3.25l-23.889-23.891c-0.898-0.897-2.354-0.897-3.252,0l-13.686,13.686
			l27.14,27.141L325.239,229.537z"/>
		<path d="M279.797,220.699l-41.722,41.724c-1.185,1.182-2.052,2.681-2.322,4.214l-4.432,25.109
			c-0.54,3.063,1.505,5.109,4.569,4.568l25.108-4.432c1.532-0.271,3.03-1.137,4.211-2.318l41.728-41.725L279.797,220.699z"/>
		<path d="M418.041,101.151H309.118v-0.889c0-8.284-6.716-15-15-15h-26.097c-1.559-26.729-23.791-48-50.903-48
			c-27.113,0-49.346,21.271-50.904,48h-26.096c-8.284,0-15,6.716-15,15v0.889H16.195C7.251,101.151,0,108.402,0,117.346v263.434
			c0,8.945,7.251,16.195,16.195,16.195h401.846c8.944,0,16.195-7.25,16.195-16.195V117.346
			C434.236,108.402,426.985,101.151,418.041,101.151z M127.198,135.857c2.608,4.426,7.411,7.405,12.92,7.405h154
			c5.509,0,10.312-2.979,12.92-7.405h91.073v226.491H36.125V135.857H127.198z"/>
	</g>
</g>
<g>
</g>
<g>
</g>
<g>
</g>
<g>
</g>
<g>
</g>
<g>
</g>
<g>
</g>
<g>
</g>
<g>
</g>
<g>
</g>
<g>
</g>
<g>
</g>
<g>
</g>
<g>
</g>
<g>
</g>
</svg>
