<?xml version="1.0" encoding="iso-8859-1"?>
<!-- Generator: Adobe Illustrator 16.0.0, SVG Export Plug-In . SVG Version: 6.00 Build 0)  -->
<!DOCTYPE svg PUBLIC "-//W3C//DTD SVG 1.1//EN" "http://www.w3.org/Graphics/SVG/1.1/DTD/svg11.dtd">
<svg version="1.1" id="Capa_1" xmlns="http://www.w3.org/2000/svg" xmlns:xlink="http://www.w3.org/1999/xlink" x="0px" y="0px"
	 width="406.111px" height="406.111px" viewBox="0 0 406.111 406.111" style="enable-background:new 0 0 406.111 406.111;"
	 xml:space="preserve">
<g>
	<g>
		<path d="M80.246,68.551c0.003-2.471-0.656-4.941-1.976-6.827L56.68,30.88c-2.636-3.764-6.906-3.764-9.542,0L25.547,61.725
			c-1.317,1.884-1.977,4.35-1.977,6.818v0.427h56.675L80.246,68.551L80.246,68.551z"/>
		<path d="M155.82,68.551c0.003-2.471-0.656-4.941-1.976-6.827L132.253,30.88c-2.636-3.764-6.905-3.764-9.541,0l-21.591,30.845
			c-1.318,1.884-1.978,4.35-1.978,6.818v0.427h56.676L155.82,68.551L155.82,68.551z"/>
		<path d="M231.393,68.551c0.002-2.471-0.656-4.941-1.977-6.827L207.825,30.88c-2.636-3.764-6.906-3.764-9.541,0l-21.591,30.845
			c-1.317,1.884-1.977,4.35-1.977,6.818v0.427h56.674v-0.419H231.393z"/>
		<path d="M306.965,68.551c0.002-2.471-0.658-4.941-1.977-6.827L283.396,30.88c-2.635-3.764-6.904-3.764-9.541,0l-21.59,30.845
			c-1.317,1.884-1.978,4.35-1.978,6.818v0.427h56.677V68.551L306.965,68.551z"/>
		<path d="M382.537,68.551c0.004-2.471-0.656-4.941-1.977-6.827l-21.59-30.844c-2.637-3.764-6.906-3.764-9.541,0l-21.592,30.845
			c-1.316,1.884-1.977,4.35-1.977,6.818v0.427h56.674v-0.419H382.537z"/>
		<path d="M384.166,154.519h-1.629V77.786h-56.676v76.733h-18.896V77.786h-56.676v76.733h-18.896l-0.002-76.733h-56.674v76.733
			H155.82l-0.001-76.733H99.143v76.733H80.247l-0.001-76.733H23.572v76.733h-1.628C9.824,154.519,0,164.344,0,176.463V356.11
			c0,12.119,9.824,21.944,21.944,21.944h362.224c12.121,0,21.943-9.825,21.943-21.944V176.464
			C406.111,164.344,396.287,154.519,384.166,154.519z M277.922,219.566c-1.025,0.891-2.062,1.786-3.105,2.687
			c-7.799,6.827-12.576,11.663-16.789,15.93c-2.873,2.907-5.51,5.577-8.605,8.384l14.104-7.465c3.66-1.938,8.184-0.962,10.723,2.312
			c2.535,3.275,2.348,7.899-0.445,10.959c-0.195,0.215-11.125,12.213-22.884,26.314c3.179-2.083,7.38-1.814,10.271,0.711
			c3.018,2.635,3.791,7.012,1.861,10.521l-10.267,18.664c3.327-0.641,6.558-1.338,9.079-2.025c4.539-1.238,9.223,1.438,10.459,5.979
			c1.238,4.537-1.438,9.221-5.979,10.459c-9.771,2.666-27.545,5.219-28.295,5.326c-0.404,0.058-0.806,0.086-1.205,0.086
			c-2.771,0-5.402-1.354-7.009-3.676c-1.835-2.654-2.014-6.121-0.456-8.949l2.801-5.094c-3.736,1.909-7.4,3.526-10.685,4.551
			c-3.375,1.056-7.05-0.084-9.235-2.863c-2.187-2.777-2.429-6.618-0.608-9.649c4.702-7.841,12.254-17.843,20.062-27.508
			l-90.55,47.938c-3.971,2.103-8.893,0.758-11.245-3.07c-2.352-3.829-1.324-8.827,2.347-11.418
			c0.261-0.186,12.222-8.625,27.896-19.609c-8.433,1.982-16.966,3.352-25.648,4.115c-0.251,0.021-0.505,0.033-0.755,0.033
			c-4.367,0-8.086-3.342-8.476-7.774c-0.412-4.687,3.054-8.819,7.74-9.231c54.695-4.805,94.521-35.641,130.621-66.812
			c0,0,0.002,0,0.002-0.001c1.053-0.919,2.107-1.835,3.176-2.746c3.57-3.042,8.93-2.624,11.986,0.935
			C281.861,211.136,281.467,216.494,277.922,219.566z"/>
	</g>
</g>
<g>
</g>
<g>
</g>
<g>
</g>
<g>
</g>
<g>
</g>
<g>
</g>
<g>
</g>
<g>
</g>
<g>
</g>
<g>
</g>
<g>
</g>
<g>
</g>
<g>
</g>
<g>
</g>
<g>
</g>
</svg>
