<?xml version="1.0" encoding="iso-8859-1"?>
<!-- Generator: Adobe Illustrator 16.0.0, SVG Export Plug-In . SVG Version: 6.00 Build 0)  -->
<!DOCTYPE svg PUBLIC "-//W3C//DTD SVG 1.1//EN" "http://www.w3.org/Graphics/SVG/1.1/DTD/svg11.dtd">
<svg version="1.1" id="Capa_1" xmlns="http://www.w3.org/2000/svg" xmlns:xlink="http://www.w3.org/1999/xlink" x="0px" y="0px"
	 width="612px" height="612px" viewBox="0 0 612 612" style="enable-background:new 0 0 612 612;" xml:space="preserve">
<g>
	<path d="M598.146,429.124L475.067,306l123.079-123.034c8.817-8.872,13.433-20.163,13.433-33.156
		c0-13.083-4.598-24.464-13.433-33.246L495.65,14.499c-9.257-9.23-20.162-13.89-32.762-13.89c-13.02,0-24.392,4.66-33.604,13.89
		l-123.07,123.93L182.724,14.499c-9.23-9.23-20.583-13.89-33.604-13.89c-12.6,0-23.505,4.66-32.762,13.89L13.863,116.564
		c-8.835,8.782-13.441,20.162-13.441,33.246c0,12.993,4.624,24.284,13.441,33.156L136.933,306L13.863,429.124
		C4.624,438.354,0,449.286,0,461.832c0,11.828,3.952,23.746,13.863,33.604l102.496,102.065c9.911,9.857,21.417,13.89,32.762,13.89
		c11.757,0,23.729-3.942,33.604-13.89L306.215,473.66l123.07,123.841c9.857,9.947,21.838,13.89,33.604,13.89
		c11.345,0,22.851-4.032,32.762-13.89l102.496-102.065C608.058,485.578,612,473.66,612,461.832
		C612,449.286,607.385,438.354,598.146,429.124z M462.889,564.793L306.215,408.514v0.807l-0.842-0.807L149.12,564.793
		L46.624,461.832L202.465,306L46.624,150.168L149.12,47.296l156.252,156.19l0.842-0.807v0.807l156.674-156.19l102.487,102.873
		L409.544,306l155.832,155.832L462.889,564.793z"/>
</g>
<g>
</g>
<g>
</g>
<g>
</g>
<g>
</g>
<g>
</g>
<g>
</g>
<g>
</g>
<g>
</g>
<g>
</g>
<g>
</g>
<g>
</g>
<g>
</g>
<g>
</g>
<g>
</g>
<g>
</g>
</svg>
