<?xml version="1.0" encoding="iso-8859-1"?>
<!-- Generator: Adobe Illustrator 16.0.0, SVG Export Plug-In . SVG Version: 6.00 Build 0)  -->
<!DOCTYPE svg PUBLIC "-//W3C//DTD SVG 1.1//EN" "http://www.w3.org/Graphics/SVG/1.1/DTD/svg11.dtd">
<svg version="1.1" id="Capa_1" xmlns="http://www.w3.org/2000/svg" xmlns:xlink="http://www.w3.org/1999/xlink" x="0px" y="0px"
	 width="453.95px" height="453.949px" viewBox="0 0 453.95 453.949" style="enable-background:new 0 0 453.95 453.949;"
	 xml:space="preserve">
<g>
	<g>
		<path d="M69.289,297.898c-0.067-1.006-0.114-2.018-0.114-3.041c0-17.941,10.56-33.459,25.787-40.682
			c-3.004-2.688-5.87-5.471-8.549-8.369c-1.8-1.949-4.3-3.102-6.95-3.205c-2.653-0.11-5.233,0.848-7.181,2.647l-22.031,20.362
			c-4.056,3.748-4.305,10.074-0.556,14.131C55.658,286.197,62.221,292.252,69.289,297.898z"/>
		<path d="M440.749,442.098l-19.668-46.439l1.819-1.115c4.708-2.891,6.183-9.047,3.293-13.754l-47.877-78.023
			c9.521-6.986,18.228-14.674,25.94-23.021c3.749-4.056,3.5-10.383-0.557-14.131l-22.03-20.362c-1.948-1.8-4.541-2.754-7.182-2.648
			c-2.649,0.104-5.149,1.258-6.95,3.205c-4.665,5.049-9.845,9.783-15.465,14.188l-59.22-96.51
			c7.663-12.071,12.122-26.364,12.122-41.687c0-29.627-16.605-55.445-40.996-68.646c5.846-5.626,9.495-13.52,9.495-22.254
			c0-17.038-13.861-30.9-30.899-30.9h-31.2c-17.038,0-30.899,13.862-30.899,30.9c0,8.734,3.649,16.628,9.495,22.254
			c-24.391,13.201-40.996,39.019-40.996,68.646c0,15.323,4.459,29.617,12.123,41.685l-53.28,86.832
			c2.078-0.295,4.199-0.459,6.357-0.459c20.942,0,38.59,14.383,43.585,33.789l52.559-85.654c5.37,1.173,10.939,1.809,16.656,1.809
			s11.286-0.636,16.656-1.809l55.065,89.74c-21.988,7.173-46.383,11.043-71.722,11.043c-24.001,0-47.152-3.477-68.215-9.939
			c0.265,1.973,0.415,3.979,0.415,6.023c0,16.746-9.203,31.375-22.81,39.123c27.961,9.595,58.797,14.793,90.61,14.793
			c34.789,0,68.42-6.199,98.388-17.586l49.69,80.98c1.387,2.26,3.616,3.877,6.194,4.494c0.77,0.186,1.551,0.275,2.328,0.275
			c1.832,0,3.645-0.504,5.23-1.477l2.841-1.744l32.747,38.471c0.98,1.152,2.386,1.76,3.811,1.76c0.9,0,1.81-0.242,2.624-0.744
			l7.94-4.9C440.872,447.006,441.711,444.371,440.749,442.098z M226.975,169.8c-26.467,0-48-21.532-48-48
			c0-21.229,13.859-39.272,33-45.587V104.8c0,8.284,6.716,15,15,15s15-6.716,15-15V76.213c19.141,6.314,33,24.357,33,45.587
			C274.975,148.268,253.442,169.8,226.975,169.8z"/>
		<path d="M71.586,309.359l-43.83,71.43c-2.888,4.705-1.414,10.863,3.293,13.752l1.82,1.117l-19.668,46.439
			c-0.963,2.271-0.123,4.908,1.978,6.205l7.941,4.9c0.814,0.502,1.722,0.744,2.624,0.744c1.424,0,2.83-0.605,3.81-1.76
			l32.747-38.471l2.842,1.744c1.586,0.973,3.399,1.477,5.23,1.477c0.778,0,1.559-0.092,2.328-0.275
			c2.579-0.617,4.808-2.234,6.195-4.494l45.031-73.388c-3.143,0.696-6.403,1.077-9.753,1.077
			C94.436,339.857,77.637,327.077,71.586,309.359z"/>
		<circle cx="113.824" cy="294.857" r="24"/>
	</g>
</g>
<g>
</g>
<g>
</g>
<g>
</g>
<g>
</g>
<g>
</g>
<g>
</g>
<g>
</g>
<g>
</g>
<g>
</g>
<g>
</g>
<g>
</g>
<g>
</g>
<g>
</g>
<g>
</g>
<g>
</g>
</svg>
