<?xml version="1.0" encoding="iso-8859-1"?>
<!-- Generator: Adobe Illustrator 16.0.0, SVG Export Plug-In . SVG Version: 6.00 Build 0)  -->
<!DOCTYPE svg PUBLIC "-//W3C//DTD SVG 1.1//EN" "http://www.w3.org/Graphics/SVG/1.1/DTD/svg11.dtd">
<svg version="1.1" id="Capa_1" xmlns="http://www.w3.org/2000/svg" xmlns:xlink="http://www.w3.org/1999/xlink" x="0px" y="0px"
	 width="430px" height="430px" viewBox="0 0 430 430" style="enable-background:new 0 0 430 430;" xml:space="preserve">
<g>
	<g>
		<path d="M276.178,126.265c-2.47-2.874-6.797-3.21-9.682-0.754c-0.862,0.735-1.714,1.475-2.563,2.219v0.001
			c-8.66,7.477-17.593,14.927-27.019,21.813c-1.642-2.931-5.42-5.049-9.308-1.857c-3.887,3.19-7.566,4.275-7.729,4.352
			c2.983-3.204,5.972-6.407,8.953-9.613c4.351-4.667-1.237-12.468-6.935-8.986c-4.568,2.795-9.28,5.367-14.038,7.823
			c-7.077,3.655-16.028,8.302-23.509,8.945c-7.296,0.625-7.355,12.073,0,11.443c4.891-0.421,9.643-1.772,14.254-3.552
			c-1.269,1.361-2.536,2.722-3.804,4.081c-3.154,3.389-1.056,9.215,3.112,9.805c-12.102,4.971-25.153,8.448-39.476,9.707
			c-3.785,0.331-6.584,3.669-6.251,7.453c0.314,3.581,3.318,6.28,6.846,6.28c0.2,0,0.406-0.009,0.61-0.026
			c7.012-0.617,13.902-1.722,20.713-3.324c-12.658,8.873-22.318,15.688-22.532,15.837c-2.963,2.092-3.793,6.129-1.895,9.224
			c1.901,3.091,5.875,4.177,9.084,2.479l73.13-38.716c-6.306,7.803-12.402,15.881-16.203,22.215
			c-1.469,2.448-1.271,5.551,0.494,7.795c1.766,2.243,4.731,3.165,7.459,2.312c2.651-0.827,5.61-2.136,8.629-3.675l-2.264,4.111
			c-1.255,2.284-1.111,5.084,0.37,7.229c1.297,1.874,3.42,2.968,5.66,2.968c0.321,0,0.645-0.021,0.972-0.068
			c0.605-0.087,14.963-2.149,22.854-4.3c3.665-1.003,5.826-4.783,4.826-8.448c-1-3.668-4.782-5.83-8.448-4.828
			c-2.035,0.555-4.646,1.116-7.332,1.636l8.294-15.073c1.558-2.835,0.933-6.371-1.505-8.497c-2.336-2.039-5.728-2.257-8.295-0.575
			c9.498-11.389,18.322-21.079,18.481-21.252c2.255-2.472,2.408-6.206,0.358-8.853c-2.049-2.646-5.704-3.433-8.658-1.869
			l-11.389,6.03c2.498-2.266,4.629-4.424,6.949-6.771c3.402-3.445,7.26-7.351,13.56-12.865c0.841-0.726,1.679-1.45,2.51-2.169
			C278.326,133.468,278.648,129.14,276.178,126.265z"/>
		<path d="M326.294,324.683V56.888c0-8.804-7.136-15.938-15.938-15.938h-46.494L258.08,4.481c-0.222-1.393-0.987-2.639-2.126-3.466
			c-1.141-0.83-2.562-1.169-3.955-0.95l-31.482,4.992c-2.897,0.46-4.875,3.182-4.416,6.08l4.729,29.813h-11.66l4.728-29.813
			c0.46-2.898-1.517-5.62-4.415-6.08L178,0.065c-1.392-0.218-2.814,0.12-3.954,0.95c-1.139,0.827-1.905,2.073-2.126,3.466
			l-5.783,36.469h-46.493c-8.802,0-15.938,7.135-15.938,15.938v267.794c0,8.459,6.597,15.363,14.925,15.887l-12.414,78.295
			c-0.22,1.391,0.12,2.812,0.948,3.954c0.829,1.14,2.077,1.902,3.468,2.124l31.481,4.99c0.283,0.044,0.563,0.067,0.838,0.067
			c2.566,0,4.827-1.867,5.242-4.482l13.462-84.896h106.688l13.463,84.896c0.415,2.615,2.675,4.482,5.241,4.482
			c0.275,0,0.557-0.023,0.839-0.067l31.48-4.99c1.393-0.222,2.64-0.984,3.469-2.124c0.828-1.142,1.168-2.563,0.947-3.954
			l-12.414-78.295C319.697,340.046,326.294,333.142,326.294,324.683z M135.581,72.827h158.836v235.917H135.581V72.827z"/>
	</g>
</g>
<g>
</g>
<g>
</g>
<g>
</g>
<g>
</g>
<g>
</g>
<g>
</g>
<g>
</g>
<g>
</g>
<g>
</g>
<g>
</g>
<g>
</g>
<g>
</g>
<g>
</g>
<g>
</g>
<g>
</g>
</svg>
