<?xml version="1.0" encoding="iso-8859-1"?>
<!-- Generator: Adobe Illustrator 16.0.0, SVG Export Plug-In . SVG Version: 6.00 Build 0)  -->
<!DOCTYPE svg PUBLIC "-//W3C//DTD SVG 1.1//EN" "http://www.w3.org/Graphics/SVG/1.1/DTD/svg11.dtd">
<svg version="1.1" id="Capa_1" xmlns="http://www.w3.org/2000/svg" xmlns:xlink="http://www.w3.org/1999/xlink" x="0px" y="0px"
	 width="467.117px" height="467.117px" viewBox="0 0 467.117 467.117" style="enable-background:new 0 0 467.117 467.117;"
	 xml:space="preserve">
<g>
	<g>
		<path d="M397.972,30.17H253.808v-9.921C253.808,9.066,244.742,0,233.559,0c-11.183,0-20.249,9.066-20.249,20.249v9.921H69.146
			c-8.284,0-15,6.716-15,15v224.026c0,8.284,6.716,15,15,15H196.5L87.49,436.465c-4.822,6.734-3.271,16.105,3.465,20.928
			c2.646,1.895,5.697,2.805,8.719,2.805c4.675,0,9.281-2.18,12.209-6.27l106.676-149.004v147.193c0,8.285,6.716,15,15,15
			s15-6.715,15-15V304.924L355.234,453.93c2.929,4.09,7.535,6.268,12.209,6.268c3.022,0,6.074-0.91,8.719-2.803
			c6.736-4.824,8.287-14.193,3.466-20.93L270.617,284.197h127.354c8.284,0,15-6.717,15-15V45.17
			C412.972,36.886,406.256,30.17,397.972,30.17z M382.972,254.197H84.146V60.17h298.825L382.972,254.197L382.972,254.197z"/>
		<path d="M150.202,178.82c0.264,0,0.531-0.012,0.799-0.035c9.19-0.807,18.223-2.256,27.149-4.356
			c-16.594,11.629-29.254,20.563-29.531,20.759c-3.886,2.743-4.974,8.033-2.484,12.087c2.49,4.054,7.701,5.477,11.904,3.25
			l95.854-50.746c-8.265,10.231-16.257,20.818-21.237,29.119c-1.926,3.209-1.668,7.275,0.646,10.216
			c2.314,2.941,6.204,4.147,9.777,3.031c3.477-1.086,7.355-2.797,11.311-4.818l-2.965,5.391c-1.647,2.995-1.46,6.663,0.484,9.474
			c1.697,2.457,4.482,3.89,7.416,3.89c0.424,0,0.85-0.03,1.276-0.091c0.796-0.113,19.612-2.817,29.954-5.638
			c4.805-1.311,7.638-6.268,6.327-11.073c-1.311-4.806-6.269-7.639-11.073-6.328c-2.668,0.728-6.089,1.464-9.609,2.145
			l10.866-19.758c2.042-3.714,1.225-8.349-1.969-11.138c-3.06-2.674-7.509-2.958-10.873-0.753
			c12.446-14.928,24.017-27.629,24.224-27.856c2.957-3.238,3.155-8.134,0.471-11.602c-2.686-3.467-7.475-4.5-11.35-2.449
			l-14.929,7.903c3.278-2.972,6.069-5.798,9.108-8.875c4.462-4.516,9.518-9.635,17.775-16.863c1.104-0.952,2.2-1.901,3.287-2.843
			c3.752-3.252,4.17-8.925,0.935-12.692c-3.236-3.767-8.908-4.208-12.688-0.988c-1.13,0.963-2.248,1.934-3.36,2.907
			c0,0-0.001,0-0.001,0.001c-38.217,32.998-80.375,65.641-138.272,70.726c-4.961,0.436-8.63,4.812-8.194,9.772
			C141.641,175.284,145.578,178.82,150.202,178.82z"/>
	</g>
</g>
<g>
</g>
<g>
</g>
<g>
</g>
<g>
</g>
<g>
</g>
<g>
</g>
<g>
</g>
<g>
</g>
<g>
</g>
<g>
</g>
<g>
</g>
<g>
</g>
<g>
</g>
<g>
</g>
<g>
</g>
</svg>
