<?xml version="1.0" encoding="iso-8859-1"?>
<!-- Generator: Adobe Illustrator 16.0.0, SVG Export Plug-In . SVG Version: 6.00 Build 0)  -->
<!DOCTYPE svg PUBLIC "-//W3C//DTD SVG 1.1//EN" "http://www.w3.org/Graphics/SVG/1.1/DTD/svg11.dtd">
<svg version="1.1" id="Capa_1" xmlns="http://www.w3.org/2000/svg" xmlns:xlink="http://www.w3.org/1999/xlink" x="0px" y="0px"
	 width="395.854px" height="395.854px" viewBox="0 0 395.854 395.854" style="enable-background:new 0 0 395.854 395.854;"
	 xml:space="preserve">
<g>
	<g>
		<path d="M244.75,287.978l-93.598,0.037l-24.437,107.839h142.424L244.75,287.978z M187.757,367.035
			c0,5.66-4.588,10.242-10.245,10.242c-5.656,0-10.244-4.582-10.244-10.242v-50.201c0-5.653,4.588-10.243,10.244-10.243
			c5.657,0,10.245,4.59,10.245,10.243V367.035z"/>
		<path d="M266.24,110.471l-47.238-62.622V30.731c3.117-3.164,4.949-8.179,4.949-13.683c0-9.56-5.498-17.048-12.521-17.048
			c-0.579,0-1.187,0.065-1.854,0.199c-4.004,0.594-7.013,4.06-7.013,8.103l0.037,123.043c3.865,1.921,6.524,5.899,6.524,10.508
			c0,6.484-5.254,11.744-11.738,11.744c-6.485,0-11.739-5.26-11.739-11.744c0-4.608,2.66-8.587,6.525-10.508L192.142,8.302
			c0-4.043-3.008-7.509-7.012-8.103C184.461,0.065,183.854,0,183.275,0c-7.021,0-12.521,7.488-12.521,17.048
			c0,5.504,1.833,10.519,4.95,13.683v17.21l-47.171,62.53c-0.381,0.502-0.542,1.141-0.448,1.763l23.481,154.974h91.639
			l23.482-154.974C266.781,111.612,266.622,110.973,266.24,110.471z"/>
	</g>
</g>
<g>
</g>
<g>
</g>
<g>
</g>
<g>
</g>
<g>
</g>
<g>
</g>
<g>
</g>
<g>
</g>
<g>
</g>
<g>
</g>
<g>
</g>
<g>
</g>
<g>
</g>
<g>
</g>
<g>
</g>
</svg>
