<?xml version="1.0" encoding="iso-8859-1"?>
<!-- Generator: Adobe Illustrator 16.0.0, SVG Export Plug-In . SVG Version: 6.00 Build 0)  -->
<!DOCTYPE svg PUBLIC "-//W3C//DTD SVG 1.1//EN" "http://www.w3.org/Graphics/SVG/1.1/DTD/svg11.dtd">
<svg version="1.1" id="Capa_1" xmlns="http://www.w3.org/2000/svg" xmlns:xlink="http://www.w3.org/1999/xlink" x="0px" y="0px"
	 width="393.625px" height="393.625px" viewBox="0 0 393.625 393.625" style="enable-background:new 0 0 393.625 393.625;"
	 xml:space="preserve">
<g>
	<g>
		<polygon points="95.038,349.909 19.597,349.909 0,349.909 0,379.909 393.625,379.909 393.625,349.909 		"/>
		<path d="M107.2,328.104c4.84,4.84,12.455,5.516,18.07,1.602l87.919-61.277c0.838-0.585,1.613-1.26,2.308-2.012l158.39-171.71
			c5.141-5.573,4.965-14.21-0.396-19.571l-57.279-57.28c-5.361-5.361-13.998-5.536-19.572-0.396L124.929,175.848
			c-0.752,0.694-1.427,1.468-2.012,2.307L61.64,266.077c-3.914,5.613-3.239,13.229,1.601,18.068L107.2,328.104z M276.58,87.521
			l27.242,27.242L184.096,234.491l-27.242-27.242L276.58,87.521z"/>
		<path d="M95.405,334.284c0.857-3.078-0.009-6.38-2.27-8.641L65.7,298.208c-3.459-3.46-9.069-3.46-12.529,0L18.578,332.8
			c-1.834,1.835-2.686,4.274-2.574,6.677h75.44C93.35,338.326,94.791,336.491,95.405,334.284z"/>
	</g>
</g>
<g>
</g>
<g>
</g>
<g>
</g>
<g>
</g>
<g>
</g>
<g>
</g>
<g>
</g>
<g>
</g>
<g>
</g>
<g>
</g>
<g>
</g>
<g>
</g>
<g>
</g>
<g>
</g>
<g>
</g>
</svg>
