<?xml version="1.0" encoding="iso-8859-1"?>
<!-- Generator: Adobe Illustrator 16.0.0, SVG Export Plug-In . SVG Version: 6.00 Build 0)  -->
<!DOCTYPE svg PUBLIC "-//W3C//DTD SVG 1.1//EN" "http://www.w3.org/Graphics/SVG/1.1/DTD/svg11.dtd">
<svg version="1.1" id="Capa_1" xmlns="http://www.w3.org/2000/svg" xmlns:xlink="http://www.w3.org/1999/xlink" x="0px" y="0px"
	 width="386.729px" height="386.729px" viewBox="0 0 386.729 386.729" style="enable-background:new 0 0 386.729 386.729;"
	 xml:space="preserve">
<g>
	<g>
		<path d="M354.091,0H71.557c-8.285,0-15,6.716-15,15v46.809c-11.641,2.554-19.545,7.684-24.523,12.207
			c-9.148,8.311-14.396,19.951-14.396,31.937c0,10.853,4.355,21.771,12.842,29.55c-8.184,8.183-12.842,19.162-12.842,30.45
			c0,10.853,4.355,21.771,12.842,29.55c-8.184,8.183-12.842,19.161-12.842,30.45c0,10.853,4.355,21.771,12.842,29.55
			c-8.184,8.183-12.842,19.161-12.842,30.45c0,19.013,13.348,38.236,38.92,40.39v45.386c0,8.283,6.715,15,15,15h282.533
			c8.283,0,15-6.717,15-15V15C369.091,6.716,362.374,0,354.091,0z M56.557,301.57c-10.465-1.732-14.318-9.15-14.318-15.619
			c0-5.139,2.25-10.016,6.336-13.728c2.205-2.004,4.891-3.61,7.982-4.817V301.57z M56.557,241.57
			c-10.465-1.732-14.318-9.15-14.318-15.619c0-5.139,2.25-10.016,6.336-13.728c2.205-2.004,4.891-3.61,7.982-4.817V241.57z
			 M56.557,181.57c-10.465-1.732-14.318-9.15-14.318-15.618c0-5.14,2.25-10.016,6.336-13.728c2.205-2.004,4.891-3.611,7.982-4.818
			V181.57z M56.557,121.57c-10.465-1.732-14.318-9.15-14.318-15.618c0-5.14,2.25-10.016,6.336-13.728
			c2.205-2.004,4.891-3.611,7.982-4.818V121.57z M339.091,356.727H86.557v-88.121c8.551,4.903,14.316,14.033,14.316,24.473
			c0,6.793,5.508,12.3,12.301,12.3s12.301-5.507,12.301-12.3c0-24.223-16.496-44.68-38.918-50.928v-33.545
			c8.551,4.903,14.316,14.033,14.316,24.473c0,6.793,5.508,12.3,12.301,12.3s12.301-5.507,12.301-12.3
			c0-24.223-16.496-44.68-38.918-50.927v-33.546c8.551,4.904,14.316,14.034,14.316,24.473c0,6.793,5.508,12.3,12.301,12.3
			s12.301-5.507,12.301-12.3c0-24.223-16.496-44.68-38.918-50.927V88.605c8.551,4.904,14.316,14.034,14.316,24.473
			c0,6.793,5.508,12.3,12.301,12.3s12.301-5.507,12.301-12.3c0-24.223-16.496-44.68-38.918-50.927V30h252.532v326.727H339.091z"/>
		<path d="M276.235,306.359c0.744,1.285,2.385,1.724,3.67,0.979l34.18-19.771c1.287-0.742,1.725-2.385,0.98-3.672l-11.328-19.578
			l-38.828,22.463L276.235,306.359z"/>
		<path d="M261.087,280.174l38.832-22.463L226.7,131.141c-0.979-1.695-2.408-3.125-4.062-3.894l-27.016-12.575
			c-3.297-1.535-6.224,0.157-6.536,3.78l-2.567,29.688c-0.156,1.813,0.368,3.765,1.347,5.455L261.087,280.174z M197.452,136.551
			l9.688-5.604l7.834,3.646l-18.269,10.567L197.452,136.551z"/>
	</g>
</g>
<g>
</g>
<g>
</g>
<g>
</g>
<g>
</g>
<g>
</g>
<g>
</g>
<g>
</g>
<g>
</g>
<g>
</g>
<g>
</g>
<g>
</g>
<g>
</g>
<g>
</g>
<g>
</g>
<g>
</g>
</svg>
