<?xml version="1.0" encoding="iso-8859-1"?>
<!-- Generator: Adobe Illustrator 16.0.0, SVG Export Plug-In . SVG Version: 6.00 Build 0)  -->
<!DOCTYPE svg PUBLIC "-//W3C//DTD SVG 1.1//EN" "http://www.w3.org/Graphics/SVG/1.1/DTD/svg11.dtd">
<svg version="1.1" id="Capa_1" xmlns="http://www.w3.org/2000/svg" xmlns:xlink="http://www.w3.org/1999/xlink" x="0px" y="0px"
	 width="420.529px" height="420.529px" viewBox="0 0 420.529 420.529" style="enable-background:new 0 0 420.529 420.529;"
	 xml:space="preserve">
<g>
	<g>
		<path d="M177.142,65.358h46.29c1.453,0,2.629-1.177,2.629-2.63v-12.22c-0.465,0.073-0.939,0.123-1.426,0.123h-3.681
			c-5.084,0-9.207-4.123-9.207-9.208v-3.678c0-5.085,4.123-9.207,9.207-9.207h3.681c0.485,0,0.961,0.049,1.426,0.122V16.439
			c0-1.454-1.176-2.631-2.629-2.631h-46.29c-1.455,0-2.631,1.177-2.631,2.631v46.288C174.511,64.181,175.687,65.358,177.142,65.358z
			"/>
		<path d="M267.3,90.614h-12.578c-3.566-6.158-10.211-10.31-17.838-10.31H163.69c-7.629,0-14.273,4.152-17.84,10.31h-12.578
			c-11.389,0-20.621,9.231-20.621,20.62v4.124c0,5.221,1.955,9.975,5.156,13.607V382.18c-3.201,3.633-5.156,8.385-5.156,13.607
			v4.123c0,11.389,9.232,20.619,20.621,20.619H267.3c11.389,0,20.619-9.23,20.619-20.619v-4.123c0-5.223-1.955-9.977-5.154-13.607
			V128.965c3.199-3.632,5.154-8.386,5.154-13.607v-4.124C287.919,99.846,278.689,90.614,267.3,90.614z M260.654,279.115
			c0,6.549-5.307,11.857-11.855,11.857c-6.548,0-11.857-5.31-11.857-11.857v-20.963c0-6.549,5.31-11.855,11.857-11.855
			c6.549,0,11.855,5.309,11.855,11.855V279.115z M260.654,218.975c0,6.547-5.307,11.855-11.855,11.855
			c-6.548,0-11.857-5.309-11.857-11.855v-70.452c0-6.548,5.31-11.856,11.857-11.856c6.549,0,11.855,5.308,11.855,11.856V218.975z"/>
		<path d="M304.839,9.618c1.229-0.527,2.18-1.502,2.678-2.745c0.496-1.242,0.48-2.604-0.047-3.832
			C306.679,1.192,304.871,0,302.861,0c-0.678,0-1.342,0.137-1.969,0.406l-69.34,29.716l72.695-20.293
			C304.339,9.802,304.587,9.725,304.839,9.618z"/>
		<path d="M304.835,69.552c-0.189-0.08-0.412-0.158-0.66-0.229L231.55,49.05l69.34,29.716c0.629,0.27,1.293,0.406,1.971,0.406
			c2.01,0,3.818-1.192,4.609-3.037c0.527-1.231,0.543-2.593,0.047-3.837C307.013,71.038,306.085,70.088,304.835,69.552z"/>
	</g>
</g>
<g>
</g>
<g>
</g>
<g>
</g>
<g>
</g>
<g>
</g>
<g>
</g>
<g>
</g>
<g>
</g>
<g>
</g>
<g>
</g>
<g>
</g>
<g>
</g>
<g>
</g>
<g>
</g>
<g>
</g>
</svg>
