<?xml version="1.0" encoding="iso-8859-1"?>
<!-- Generator: Adobe Illustrator 16.0.0, SVG Export Plug-In . SVG Version: 6.00 Build 0)  -->
<!DOCTYPE svg PUBLIC "-//W3C//DTD SVG 1.1//EN" "http://www.w3.org/Graphics/SVG/1.1/DTD/svg11.dtd">
<svg version="1.1" id="Capa_1" xmlns="http://www.w3.org/2000/svg" xmlns:xlink="http://www.w3.org/1999/xlink" x="0px" y="0px"
	 width="340px" height="340px" viewBox="0 0 340 340" style="enable-background:new 0 0 340 340;" xml:space="preserve">
<g>
	<g>
		<path d="M4.272,279.049c-5.696,5.696-5.697,14.932,0.002,20.628l10.067,10.069l16.619-12.327l-11.328,17.616l20.689,20.688
			c5.697,5.7,14.932,5.7,20.629,0.003l67.56-67.561l-56.679-56.68L4.272,279.049z"/>
		<path d="M330.415,9.583c-7.641-7.641-22.423-12.221-37.469-7.936c-30.412,8.665-63.258,45.337-93.331,95.925
			c-17.809,29.955-43.374,16.711-65.256,38.593c-6.28,6.281-17.586,17.586-28.249,28.251l10.214,10.213
			c3.612,3.612,3.612,9.472,0,13.086c-3.615,3.615-9.474,3.615-13.088,0l-10.214-10.213c-7.469,7.469-12.809,12.812-12.809,12.812
			l69.474,69.476c0,0,39.938-39.936,54.149-54.146c21.882-21.882,8.638-47.447,38.593-65.255
			c50.588-30.073,87.261-62.919,95.925-93.332C342.639,32.009,338.056,17.227,330.415,9.583z M311.918,46.778
			c-5.164,5.163-13.533,5.163-18.696,0c-5.163-5.163-5.163-13.533,0-18.696s13.533-5.163,18.696,0S317.081,41.616,311.918,46.778z"
			/>
	</g>
</g>
<g>
</g>
<g>
</g>
<g>
</g>
<g>
</g>
<g>
</g>
<g>
</g>
<g>
</g>
<g>
</g>
<g>
</g>
<g>
</g>
<g>
</g>
<g>
</g>
<g>
</g>
<g>
</g>
<g>
</g>
</svg>
