<?xml version="1.0" encoding="iso-8859-1"?>
<!-- Generator: Adobe Illustrator 16.0.0, SVG Export Plug-In . SVG Version: 6.00 Build 0)  -->
<!DOCTYPE svg PUBLIC "-//W3C//DTD SVG 1.1//EN" "http://www.w3.org/Graphics/SVG/1.1/DTD/svg11.dtd">
<svg version="1.1" id="Capa_1" xmlns="http://www.w3.org/2000/svg" xmlns:xlink="http://www.w3.org/1999/xlink" x="0px" y="0px"
	 width="392.264px" height="392.264px" viewBox="0 0 392.264 392.264" style="enable-background:new 0 0 392.264 392.264;"
	 xml:space="preserve">
<g>
	<path d="M299.775,0H129.684C104.99,0,84.367,17.394,79.376,40.596C57.093,48.2,41.02,69.325,41.02,94.147
		c0,31.198,25.381,56.579,56.578,56.579h105.489v60.371c-15.193,3.745-26.468,17.458-26.468,33.808v112.534
		c0,19.233,15.594,34.825,34.826,34.825h6.565c19.234,0,34.826-15.592,34.826-34.825V244.904c0-16.225-11.096-29.857-26.113-33.726
		v-72.272c0-6.528-5.29-11.819-11.817-11.819H97.597c-18.162,0-32.939-14.777-32.939-32.94c0-11.839,6.279-22.235,15.682-28.042
		c6.307,21.293,26.006,36.832,49.344,36.832h170.093c28.424,0,51.467-23.043,51.467-51.468C351.242,23.043,328.199,0,299.775,0z"/>
</g>
<g>
</g>
<g>
</g>
<g>
</g>
<g>
</g>
<g>
</g>
<g>
</g>
<g>
</g>
<g>
</g>
<g>
</g>
<g>
</g>
<g>
</g>
<g>
</g>
<g>
</g>
<g>
</g>
<g>
</g>
</svg>
