<?xml version="1.0" encoding="iso-8859-1"?>
<!-- Generator: Adobe Illustrator 16.0.0, SVG Export Plug-In . SVG Version: 6.00 Build 0)  -->
<!DOCTYPE svg PUBLIC "-//W3C//DTD SVG 1.1//EN" "http://www.w3.org/Graphics/SVG/1.1/DTD/svg11.dtd">
<svg version="1.1" id="Capa_1" xmlns="http://www.w3.org/2000/svg" xmlns:xlink="http://www.w3.org/1999/xlink" x="0px" y="0px"
	 width="380.381px" height="380.381px" viewBox="0 0 380.381 380.381" style="enable-background:new 0 0 380.381 380.381;"
	 xml:space="preserve">
<g>
	<g>
		<path d="M1.969,236.068l68.861,68.86l4.624,4.624l68.861,68.86c2.624,2.624,6.878,2.624,9.5,0.001l22.084-22.084
			c2.623-2.623,2.624-6.877,0-9.501l-49.806-49.83c-3.906-3.905-3.905-10.237,0-14.143c3.905-3.906,10.236-3.905,14.142,0
			l42.82,42.82c37.129-70.888,185.618-196.548,175.561-226.29c-1.83-5.418-5.232-12.487-16.562-25.734c0,0-4.35-5.623-17.023-18.298
			c-12.676-12.675-18.299-17.024-18.299-17.024c-13.248-11.33-20.316-14.733-25.734-16.563
			C248.093,10.641,97.801,193.555,34.143,205.073l-0.589-0.588c-2.624-2.624-6.878-2.623-9.501,0L1.968,226.569
			C-0.654,229.19-0.655,233.444,1.969,236.068z"/>
		<path d="M378.816,34.212c2.219-2.616,2.059-6.5-0.365-8.923l-23.359-23.36c-2.426-2.425-6.309-2.583-8.92-0.363
			c0,0-33.484,27.24-33.627,27.385l38.891,38.891C351.451,67.824,378.816,34.212,378.816,34.212z"/>
	</g>
</g>
<g>
</g>
<g>
</g>
<g>
</g>
<g>
</g>
<g>
</g>
<g>
</g>
<g>
</g>
<g>
</g>
<g>
</g>
<g>
</g>
<g>
</g>
<g>
</g>
<g>
</g>
<g>
</g>
<g>
</g>
</svg>
