<?xml version="1.0" encoding="iso-8859-1"?>
<!-- Generator: Adobe Illustrator 16.0.0, SVG Export Plug-In . SVG Version: 6.00 Build 0)  -->
<!DOCTYPE svg PUBLIC "-//W3C//DTD SVG 1.1//EN" "http://www.w3.org/Graphics/SVG/1.1/DTD/svg11.dtd">
<svg version="1.1" id="Capa_1" xmlns="http://www.w3.org/2000/svg" xmlns:xlink="http://www.w3.org/1999/xlink" x="0px" y="0px"
	 width="412.006px" height="412.006px" viewBox="0 0 412.006 412.006" style="enable-background:new 0 0 412.006 412.006;"
	 xml:space="preserve">
<g>
	<path d="M407.815,143.585c1.014,2.442,1.67,4.021-0.018-0.045c-3.918-9.431-1.584-3.816-0.023-0.056
		c-10.997-26.363-48.628-37.172-68.848-14.164c-8.439,9.601-11.404,22.072-16.771,33.356c-6.332,13.304-26.441,26.148-41.223,18.708
		c9.729-6.953,19.18-11.577,26.546-21.466c7.213-9.686,13.029-24.386,6.04-35.714c-5.904-9.569-19.209-14.472-29.997-12.062
		c-12.45,2.775-16.928,13.125-20.288,24.167c-4.023,13.202-8.494,19.742-23.24,17.561c-9.912-1.465-27.42-7.434-26.608-20.02
		c0.83-13.045,10.108-25.608,16.838-36.339c8.066-12.862,17.288-24.815,20.276-40.057c5.365-27.404-8.055-53.273-37.31-57.073
		c-28.688-3.727-45.183,20.321-42.063,47.038c1.528,13.122,8.556,23.803,11.674,36.35c3.87,15.596,1.399,31.905-2.147,47.292
		c-2.634,11.39-10.35,23.667-22.334,27.229c-13.153,3.909-19.626-7.64-21.247-18.448c-2.565-17.124-10.51-33.542-30.684-28.787
		c-12.176,2.876-21.252,12.188-24.485,24.255c-3.616,13.511,2.958,24.47,11.247,34.598c4.22,5.158,15.477,15.451,14.297,23.063
		c-1.987,12.833-27.42-2.348-31.526-5.447c-11.25-8.491-22.6-16.04-37.468-14.259c-13.746,1.646-26.795,11.72-33.048,23.926
		c-13.51,26.354,6.15,54.958,30.726,65.241c27.521,11.515,51.968-7.127,79.862-7.127c5.478,0,22.625,0.451,19.744,10.051
		c-3.793,12.64-18.005,18.967-29.241,23.187c-11.676,4.385-22.833,9.721-28.207,21.826c-5.398,12.163-1.514,26.042,7.31,35.451
		c17.025,18.161,47.175,24.152,65.327,4.296c8.116-8.883,11.417-20.216,15.07-31.379c0.941-2.883,3.067-12.609,7.934-10.555
		c7.431,3.142,1.298,12.417-1.455,16.498c-14.443,21.457-2.709,51.576,26.164,44.776c10.068-2.374,17.417-9.874,18.838-20.221
		c1.716-12.473-5.444-28.802,9-36.16c11.739-5.97,10.016,18.373,9.568,23.967c-1.159,14.447-0.556,29.097,3.963,42.973
		c8.551,26.271,38.27,43.927,61.63,22.261c20.595-19.098,18.872-51.182-2.939-68.292c-9.5-7.459-51.179-24.724-28.577-39.938
		c23.067-15.533,69.354,21.078,79.92-16.496c3.029-10.785-2.281-22.305-12.341-27.079c-7.062-3.348-15.163-3.227-22.731-2.122
		c-4.186,0.615-14.518,4.784-16.612-0.801c-8.955-23.929,33.782-45.604,51.788-46.906c16.711-1.206,33.098,1.613,46.938-10.318
		C410.503,178.757,414.522,159.803,407.815,143.585z M38.298,201.563c-8.995,0.559-16.135,3.457-16.552-3.269
		c-0.416-6.727,6.54-12.628,15.533-13.186c8.996-0.553,16.625,4.442,17.039,11.169C54.735,203.004,47.293,201.005,38.298,201.563z
		 M113.756,127.465c-5.393,0.331-9.676,2.069-9.929-1.962c-0.247-4.038,3.923-7.578,9.322-7.908
		c5.393-0.336,9.972,2.664,10.218,6.697C123.621,128.328,119.156,127.129,113.756,127.465z M111.829,344.458
		c-7.26,2.267-15.594-3.765-18.623-13.47c-3.033-9.706,0.392-19.404,7.651-21.672c7.252-2.267,7.07,6.422,10.098,16.128
		C113.987,335.15,119.081,342.194,111.829,344.458z M208.269,29.623c-10.167,0-18.405,2.766-18.405-4.835
		c0-7.603,8.238-13.762,18.405-13.762s18.41,6.159,18.41,13.762C226.678,32.389,218.436,29.623,208.269,29.623z M272.692,370.152
		c3.033,9.703,8.126,16.748,0.873,19.012c-7.26,2.265-15.594-3.766-18.62-13.47c-3.035-9.703,0.39-19.405,7.648-21.672
		C269.846,351.758,269.664,360.447,272.692,370.152z M367.556,144.464c-10.146,0.625-18.204,3.898-18.673-3.688
		c-0.467-7.587,7.379-14.248,17.523-14.873c10.147-0.631,18.753,5.011,19.222,12.598
		C386.098,146.087,377.703,143.839,367.556,144.464z"/>
</g>
<g>
</g>
<g>
</g>
<g>
</g>
<g>
</g>
<g>
</g>
<g>
</g>
<g>
</g>
<g>
</g>
<g>
</g>
<g>
</g>
<g>
</g>
<g>
</g>
<g>
</g>
<g>
</g>
<g>
</g>
</svg>
