<?xml version="1.0" encoding="iso-8859-1"?>
<!-- Generator: Adobe Illustrator 16.0.0, SVG Export Plug-In . SVG Version: 6.00 Build 0)  -->
<!DOCTYPE svg PUBLIC "-//W3C//DTD SVG 1.1//EN" "http://www.w3.org/Graphics/SVG/1.1/DTD/svg11.dtd">
<svg version="1.1" id="Capa_1" xmlns="http://www.w3.org/2000/svg" xmlns:xlink="http://www.w3.org/1999/xlink" x="0px" y="0px"
	 width="392.223px" height="392.223px" viewBox="0 0 392.223 392.223" style="enable-background:new 0 0 392.223 392.223;"
	 xml:space="preserve">
<g>
	<path d="M352.25,50.904c-17.052-25.867-44.2-42.01-80.69-47.98C259.703,0.984,247.89,0,236.451,0
		C176.388,0,123.545,26.518,83.637,76.686c-25.912,32.573-44.91,73.505-54.938,118.371c-9.581,42.862-10.104,87.062-1.475,124.458
		l0.068,0.285c7.519,30.071,34.704,72.423,71.604,72.423c11.281,0,28.048-4.225,43.875-24.332
		c6.559-8.203,11.931-16.471,16.672-23.766c12.632-19.436,18.416-26.78,29.127-26.78c3.423,0,7.486,0.708,12.078,2.106
		c6.941,2.115,14.185,3.188,21.521,3.189c0.007,0,0.012,0,0.019,0c33.559,0,69.808-22.945,99.451-62.959
		c27.22-36.74,45.494-83.537,48.884-125.179C373.169,101.959,366.852,73.051,352.25,50.904z M272.818,258.943
		c-15.117,17.15-36.979,22.586-48.827,12.142s-9.198-32.813,5.919-49.964c15.118-17.148,36.978-22.586,48.825-12.141
		C290.584,219.427,287.935,241.796,272.818,258.943z"/>
</g>
<g>
</g>
<g>
</g>
<g>
</g>
<g>
</g>
<g>
</g>
<g>
</g>
<g>
</g>
<g>
</g>
<g>
</g>
<g>
</g>
<g>
</g>
<g>
</g>
<g>
</g>
<g>
</g>
<g>
</g>
</svg>
