<?xml version="1.0" encoding="iso-8859-1"?>
<!-- Generator: Adobe Illustrator 16.0.0, SVG Export Plug-In . SVG Version: 6.00 Build 0)  -->
<!DOCTYPE svg PUBLIC "-//W3C//DTD SVG 1.1//EN" "http://www.w3.org/Graphics/SVG/1.1/DTD/svg11.dtd">
<svg version="1.1" id="Capa_1" xmlns="http://www.w3.org/2000/svg" xmlns:xlink="http://www.w3.org/1999/xlink" x="0px" y="0px"
	 width="432.932px" height="432.932px" viewBox="0 0 432.932 432.932" style="enable-background:new 0 0 432.932 432.932;"
	 xml:space="preserve">
<g>
	<g>
		<path d="M123.572,43.994c-11.433-12.278-20.463-21.978-17.47-38.655c0.293-1.64-0.334-3.307-1.635-4.347
			C103.648,0.338,102.647,0,101.636,0c-0.598,0-1.201,0.118-1.771,0.358c-25.717,10.891-53.398,45.836-53.4,96.826
			c0.002,23.159,5.347,42.327,15.462,55.431c2.642,3.418,5.588,6.38,8.776,8.891l55.275,0.261c2.092-1.575,4.09-3.329,5.955-5.271
			c8.979-9.334,19.412-27.232,18.151-59.489C149.088,71.399,135.531,56.839,123.572,43.994z"/>
		<path d="M71.024,173.377c-2.805,15.869-5.354,33.595-5.354,45.538c0,23.823,11.479,186.684,11.969,193.604
			c0.78,11.03,9.953,19.579,21.012,19.579c11.056,0,20.229-8.552,21.008-19.581c0.488-6.933,11.972-170.055,11.972-193.604
			c0-11.776-2.536-29.42-5.329-45.275L71.024,173.377z"/>
		<path d="M247.995,55.539h-72.695c-1.037,0-2.025,0.536-2.727,1.476c-0.697,0.94-1.045,2.2-0.95,3.469l16.458,100.735h47.136
			l16.459-100.735c0.092-1.27-0.254-2.529-0.951-3.469C250.024,56.075,249.034,55.539,247.995,55.539z"/>
		<path d="M184.022,173.377c-2.802,15.869-5.354,33.595-5.354,45.538c0,23.823,11.48,186.684,11.971,193.604
			c0.777,11.03,9.953,19.579,21.009,19.579c11.057,0,20.23-8.552,21.01-19.581c0.488-6.933,11.97-170.055,11.97-193.604
			c0-11.776-2.537-29.42-5.327-45.275L184.022,173.377z"/>
		<path d="M382.051,43.713c-17.746-10.731-35.936-16.199-54.089-16.199s-36.353,5.451-54.088,16.199
			c-1.52,0.92-6.378,4.653-3.698,13.663c6.594,22.157,30.142,104.028,30.142,104.028h55.289c0,0,24.204-81.686,30.143-104.028
			C387.931,49.159,384.678,45.302,382.051,43.713z"/>
		<path d="M300.217,174.211c-2.805,15.868-5.354,33.596-5.354,45.538c0,23.825,11.479,186.684,11.97,193.604
			c0.778,11.03,9.953,19.579,21.009,19.579c11.059,0,20.23-8.552,21.011-19.581c0.488-6.932,11.972-170.053,11.972-193.604
			c0-11.774-2.536-29.42-5.328-45.275L300.217,174.211z"/>
	</g>
</g>
<g>
</g>
<g>
</g>
<g>
</g>
<g>
</g>
<g>
</g>
<g>
</g>
<g>
</g>
<g>
</g>
<g>
</g>
<g>
</g>
<g>
</g>
<g>
</g>
<g>
</g>
<g>
</g>
<g>
</g>
</svg>
