<?xml version="1.0" encoding="iso-8859-1"?>
<!-- Generator: Adobe Illustrator 16.0.0, SVG Export Plug-In . SVG Version: 6.00 Build 0)  -->
<!DOCTYPE svg PUBLIC "-//W3C//DTD SVG 1.1//EN" "http://www.w3.org/Graphics/SVG/1.1/DTD/svg11.dtd">
<svg version="1.1" id="Capa_1" xmlns="http://www.w3.org/2000/svg" xmlns:xlink="http://www.w3.org/1999/xlink" x="0px" y="0px"
	 width="360px" height="360px" viewBox="0 0 360 360" style="enable-background:new 0 0 360 360;" xml:space="preserve">
<g>
	<path d="M356.716,98.085L261.914,3.283c-4.378-4.377-11.475-4.377-15.854,0l-36.971,36.972c-0.116,0.116-0.217,0.243-0.328,0.363
		c-0.094,0.103-0.195,0.198-0.286,0.304L28.771,252.33c-3.782,4.449-3.515,11.06,0.614,15.188l2.338,2.338L2.25,299.328
		c-2.999,3.002-2.999,7.863-0.001,10.863l47.56,47.559c3,3,7.862,3,10.862,0l29.474-29.475l2.337,2.338
		c4.129,4.131,10.738,4.396,15.187,0.613L319.08,151.524c0.105-0.09,0.201-0.193,0.304-0.287c0.12-0.11,0.247-0.211,0.362-0.328
		l36.972-36.971C361.094,109.561,361.094,102.463,356.716,98.085z M101.023,307.449l-48.476-48.475l64.372-75.73l59.833,59.834
		L101.023,307.449z M262.125,170.511l-72.637-72.637l28.197-33.172l77.61,77.612L262.125,170.511z"/>
</g>
<g>
</g>
<g>
</g>
<g>
</g>
<g>
</g>
<g>
</g>
<g>
</g>
<g>
</g>
<g>
</g>
<g>
</g>
<g>
</g>
<g>
</g>
<g>
</g>
<g>
</g>
<g>
</g>
<g>
</g>
</svg>
