<?xml version="1.0" encoding="iso-8859-1"?>
<!-- Generator: Adobe Illustrator 16.0.0, SVG Export Plug-In . SVG Version: 6.00 Build 0)  -->
<!DOCTYPE svg PUBLIC "-//W3C//DTD SVG 1.1//EN" "http://www.w3.org/Graphics/SVG/1.1/DTD/svg11.dtd">
<svg version="1.1" id="Capa_1" xmlns="http://www.w3.org/2000/svg" xmlns:xlink="http://www.w3.org/1999/xlink" x="0px" y="0px"
	 width="413.844px" height="413.844px" viewBox="0 0 413.844 413.844" style="enable-background:new 0 0 413.844 413.844;"
	 xml:space="preserve">
<g>
	<g>
		<path d="M363.061,50.904c-17.052-25.867-44.2-42.01-80.69-47.98C270.513,0.985,258.701,0,247.261,0
			C187.198,0,134.355,26.518,94.447,76.686c-25.912,32.574-44.91,73.506-54.938,118.371c-9.581,42.863-10.104,87.063-1.475,124.459
			l0.068,0.285c7.519,30.072,34.704,72.422,71.603,72.422c11.282,0,28.049-4.225,43.876-24.332
			c6.559-8.203,11.931-16.471,16.672-23.766c12.632-19.436,18.416-26.779,29.127-26.779c2.522,0,5.394,0.387,8.565,1.148
			c8.888-26.43,17.542-51.732,20.466-58.869c2.947-7.197,8.42-17.166,16.255-29.627c-0.605-1.576-1.156-3.18-1.608-4.822
			c-3.976-14.438-2.146-31.67,5.291-49.83c7.28-17.773,18.703-32.693,33.033-43.152c12.951-9.451,27.58-14.744,41.19-14.906h0.208
			c2.38,0,4.7,0.455,6.899,1.357c3.811,1.559,7.007,4.4,9.006,7.998c3.247,5.824,3.037,12.961-0.557,18.604
			c-2.049,3.223-1.73,5.375,2.444,16.436c4.753,12.588,11.261,29.826,3.183,51.977c-9.528,26.123-24.521,37.445-35.494,42.348
			c-3.169,14.441-6.261,25.398-9.192,32.559c-0.872,2.129-2.524,5.787-4.733,10.529c13.363-10.164,26.267-23.42,38.113-39.41
			c27.22-36.742,45.494-83.537,48.884-125.18C383.98,101.959,377.663,73.051,363.061,50.904z M102.218,244.771
			c-16.567,0-29.998-13.432-29.998-29.998c0-16.567,13.431-30,29.998-30c16.568,0,29.999,13.432,29.999,30
			C132.217,231.34,118.787,244.771,102.218,244.771z M135.55,164.774c-16.567,0-29.998-13.43-29.998-29.998
			s13.431-29.998,29.998-29.998c16.568,0,29.999,13.43,29.999,29.998S152.119,164.774,135.55,164.774z M195.547,104.777
			c-16.567,0-29.998-13.432-29.998-29.998c0-16.568,13.431-30,29.998-30c16.567,0,29.999,13.432,29.999,30
			C225.546,91.346,212.115,104.777,195.547,104.777z M288.252,98.274c-16.566,0-29.997-13.43-29.997-29.998
			s13.431-29.998,29.997-29.998c16.569,0,30,13.43,30,29.998S304.822,98.274,288.252,98.274z"/>
		<path d="M324.867,133.924c-0.357-0.643-0.919-1.129-1.577-1.398c-0.389-0.16-0.812-0.242-1.245-0.238
			c-19.627,0.232-46.938,15.584-60.522,48.744c-6.168,15.061-7.797,28.951-4.708,40.166c0.806,2.927,1.934,5.64,3.338,8.119
			l35.878,14.896c1.779-0.468,3.544-1.076,5.276-1.84c8.324-3.681,19.879-12.541,27.652-33.854
			c6.171-16.92,1.233-29.998-3.123-41.539c-4.164-11.029-7.453-19.742-1.063-29.791
			C325.401,136.199,325.437,134.947,324.867,133.924z M319.285,203.299c-0.033,0.648-1.007,16.012-17.269,26.248
			c-0.3,0.188-0.613,0.352-0.936,0.486c-2.887,1.209-6.193,0.164-7.861-2.486c-0.906-1.441-1.198-3.15-0.82-4.812
			c0.378-1.66,1.381-3.076,2.821-3.984c10.514-6.615,11.297-15.762,11.326-16.148c0.121-2.393,1.656-4.574,3.904-5.516
			c0.197-0.084,0.401-0.156,0.609-0.221c0.705-0.213,1.438-0.303,2.181-0.266C316.754,196.781,319.465,199.787,319.285,203.299z"/>
		<path d="M241.585,265.311c-6.348,15.496-42.263,124.465-43.788,129.099c-2.431,7.379,1.259,15.383,8.449,18.328
			c7.189,2.944,15.435-0.173,18.878-7.138c2.165-4.379,53.083-107.402,59.355-122.719c3.137-7.658,6.188-19.807,8.596-30.863
			l-35.88-14.895C251.148,246.697,244.766,257.545,241.585,265.311z"/>
	</g>
</g>
<g>
</g>
<g>
</g>
<g>
</g>
<g>
</g>
<g>
</g>
<g>
</g>
<g>
</g>
<g>
</g>
<g>
</g>
<g>
</g>
<g>
</g>
<g>
</g>
<g>
</g>
<g>
</g>
<g>
</g>
</svg>
