<?xml version="1.0" encoding="iso-8859-1"?>
<!-- Generator: Adobe Illustrator 16.0.0, SVG Export Plug-In . SVG Version: 6.00 Build 0)  -->
<!DOCTYPE svg PUBLIC "-//W3C//DTD SVG 1.1//EN" "http://www.w3.org/Graphics/SVG/1.1/DTD/svg11.dtd">
<svg version="1.1" id="Capa_1" xmlns="http://www.w3.org/2000/svg" xmlns:xlink="http://www.w3.org/1999/xlink" x="0px" y="0px"
	 width="368.424px" height="368.425px" viewBox="0 0 368.424 368.425" style="enable-background:new 0 0 368.424 368.425;"
	 xml:space="preserve">
<g>
	<g>
		<path d="M334.913,339.474L305.037,81.468c-1.46-12.61-12.141-22.125-24.834-22.125h-37.269v-45.02
			c0-7.91-6.412-14.323-14.321-14.323h-88.8c-7.91,0-14.322,6.413-14.322,14.323v45.021H88.203
			c-12.694,0-23.374,9.515-24.834,22.125l-30,259.081c-0.82,7.084,1.424,14.181,6.167,19.505c4.744,5.325,11.536,8.37,18.667,8.37
			h252c0.006,0,0.014,0,0.02,0c13.809,0,25-11.191,25-25C335.222,342.081,335.117,340.761,334.913,339.474z M86.266,318.424
			l24.21-209.081H257.93l24.211,209.081H86.266z"/>
		<polygon points="128.312,214.63 119.948,286.857 248.476,286.857 240.112,214.63 		"/>
	</g>
</g>
<g>
</g>
<g>
</g>
<g>
</g>
<g>
</g>
<g>
</g>
<g>
</g>
<g>
</g>
<g>
</g>
<g>
</g>
<g>
</g>
<g>
</g>
<g>
</g>
<g>
</g>
<g>
</g>
<g>
</g>
</svg>
