<?xml version="1.0" encoding="iso-8859-1"?>
<!-- Generator: Adobe Illustrator 16.0.0, SVG Export Plug-In . SVG Version: 6.00 Build 0)  -->
<!DOCTYPE svg PUBLIC "-//W3C//DTD SVG 1.1//EN" "http://www.w3.org/Graphics/SVG/1.1/DTD/svg11.dtd">
<svg version="1.1" id="Capa_1" xmlns="http://www.w3.org/2000/svg" xmlns:xlink="http://www.w3.org/1999/xlink" x="0px" y="0px"
	 width="380.623px" height="380.623px" viewBox="0 0 380.623 380.623" style="enable-background:new 0 0 380.623 380.623;"
	 xml:space="preserve">
<g>
	<path d="M348.27,240.857L213.467,95.752v-4.696c0-1.621-0.206-3.242-0.622-4.813l-18.94-72.11C191.718,5.804,184.182,0,175.574,0
		H67.214c-8.611,0-16.139,5.805-18.327,14.133l-18.954,72.11c-0.415,1.572-0.621,3.192-0.621,4.813v270.62
		c0,10.463,8.484,18.947,18.952,18.947h146.263c10.458,0,18.941-8.484,18.941-18.947v-3.703l69.466-24.457
		c5.935-2.088,9.054-8.586,6.956-14.52l-2.224-6.311l60.007-55.742C352.283,252.665,352.545,245.464,348.27,240.857z
		 M121.387,80.783c-12.979,0-23.503-10.523-23.503-23.511c0-12.979,10.523-23.504,23.503-23.504
		c12.989,0,23.506,10.525,23.506,23.504C144.893,70.259,134.376,80.783,121.387,80.783z M233.972,151.273l37.19,40.034
		l-19.765,18.359l-19.785-56.196L233.972,151.273z M213.467,193.854l7.317-2.572l18.146,51.533l-25.464,8.965L213.467,193.854
		L213.467,193.854z M213.467,333.84v-57.926l33.021-11.627l18.155,51.536L213.467,333.84z M279.429,289.27l-15.243-43.276
		l-4.547-12.914l27.02-25.093l37.18,40.027L279.429,289.27z"/>
</g>
<g>
</g>
<g>
</g>
<g>
</g>
<g>
</g>
<g>
</g>
<g>
</g>
<g>
</g>
<g>
</g>
<g>
</g>
<g>
</g>
<g>
</g>
<g>
</g>
<g>
</g>
<g>
</g>
<g>
</g>
</svg>
