<?xml version="1.0" encoding="iso-8859-1"?>
<!-- Generator: Adobe Illustrator 16.0.0, SVG Export Plug-In . SVG Version: 6.00 Build 0)  -->
<!DOCTYPE svg PUBLIC "-//W3C//DTD SVG 1.1//EN" "http://www.w3.org/Graphics/SVG/1.1/DTD/svg11.dtd">
<svg version="1.1" id="Capa_1" xmlns="http://www.w3.org/2000/svg" xmlns:xlink="http://www.w3.org/1999/xlink" x="0px" y="0px"
	 width="379.479px" height="379.479px" viewBox="0 0 379.479 379.479" style="enable-background:new 0 0 379.479 379.479;"
	 xml:space="preserve">
<g>
	<path d="M336.481,94.091c4.936-1.684,8.258-6.32,8.258-11.535V12.18c0-6.729-5.455-12.18-12.18-12.18h-22.555
		c-4.874,0-9.278,2.906-11.197,7.387c-2.715,6.336-11.914,15.705-28.911,21.24c-7.109,2.313-14.513,3.539-21.407,3.539
		c-13.633,0-21.717-4.582-23.464-8.836c-0.267-0.654-1.079-2.627,0.519-6.357c1.607-3.764,1.223-8.082-1.031-11.5
		C222.259,2.059,218.437,0,214.345,0h-49.208c-4.093,0-7.915,2.059-10.168,5.475s-2.639,7.736-1.03,11.5
		c1.597,3.727,0.785,5.703,0.517,6.357c-1.746,4.25-9.83,8.834-23.462,8.834c-6.893,0-14.296-1.227-21.408-3.541
		C92.587,23.092,83.387,13.723,80.674,7.387C78.752,2.907,74.348,0,69.474,0H46.919c-6.726,0-12.18,5.451-12.18,12.18v70.375
		c0,5.215,3.322,9.852,8.257,11.535c9.642,3.273,19.102,13.275,24.103,25.471c4.4,10.727,4.929,22.148,1.384,29.809
		c-1.769,3.826-4.341,6.309-7.641,7.387c-2.897,0.938-6.327,0.771-10.002-0.479c-3.717-1.262-7.818-0.656-11.013,1.629
		c-3.193,2.291-5.088,5.977-5.088,9.902v43.861c0,3.926,1.896,7.613,5.089,9.9c3.193,2.287,7.295,2.896,11.014,1.631
		c3.672-1.248,7.104-1.42,10-0.48c3.3,1.078,5.872,3.563,7.641,7.388c3.545,7.659,3.016,19.084-1.384,29.813
		c-5,12.192-14.46,22.192-24.103,25.469c-4.935,1.684-8.257,6.32-8.257,11.533V367.3c0,6.729,5.455,12.179,12.18,12.179h22.554
		c4.874,0,9.279-2.906,11.198-7.388c2.714-6.334,11.914-15.702,28.911-21.239c7.109-2.313,14.512-3.539,21.407-3.539
		c13.633,0,21.717,4.584,23.464,8.838c0.267,0.652,1.079,2.627-0.518,6.354c-1.608,3.767-1.223,8.084,1.031,11.5
		s6.075,5.474,10.167,5.474h49.209c0.004,0,0.011,0,0.016,0c6.729,0,12.182-5.449,12.182-12.179c0-1.879-0.426-3.657-1.186-5.25
		c-1.342-3.432-0.585-5.276-0.33-5.901c1.746-4.252,9.83-8.836,23.461-8.836c6.895,0,14.299,1.227,21.409,3.541
		c16.998,5.535,26.198,14.903,28.911,21.239c1.922,4.479,6.325,7.386,11.199,7.386h22.554c6.726,0,12.18-5.449,12.18-12.179v-70.376
		c0-5.214-3.322-9.851-8.257-11.533c-9.644-3.275-19.104-13.275-24.104-25.469c-4.399-10.729-4.93-22.152-1.385-29.813
		c1.77-3.824,4.341-6.31,7.641-7.388c2.899-0.938,6.329-0.768,10.001,0.48c3.718,1.264,7.818,0.658,11.014-1.631
		c3.194-2.287,5.089-5.975,5.089-9.9v-43.861c0-3.926-1.895-7.611-5.088-9.902c-3.194-2.285-7.294-2.891-11.013-1.629
		c-3.675,1.25-7.103,1.42-10.003,0.479c-3.3-1.078-5.872-3.561-7.641-7.387c-3.545-7.66-3.016-19.082,1.384-29.809
		C317.38,107.366,326.84,97.364,336.481,94.091z M257.511,80.391V299.09H121.968V80.391H257.511z"/>
</g>
<g>
</g>
<g>
</g>
<g>
</g>
<g>
</g>
<g>
</g>
<g>
</g>
<g>
</g>
<g>
</g>
<g>
</g>
<g>
</g>
<g>
</g>
<g>
</g>
<g>
</g>
<g>
</g>
<g>
</g>
</svg>
