<?xml version="1.0" encoding="iso-8859-1"?>
<!-- Generator: Adobe Illustrator 16.0.0, SVG Export Plug-In . SVG Version: 6.00 Build 0)  -->
<!DOCTYPE svg PUBLIC "-//W3C//DTD SVG 1.1//EN" "http://www.w3.org/Graphics/SVG/1.1/DTD/svg11.dtd">
<svg version="1.1" id="Capa_1" xmlns="http://www.w3.org/2000/svg" xmlns:xlink="http://www.w3.org/1999/xlink" x="0px" y="0px"
	 width="340.001px" height="340.001px" viewBox="0 0 340.001 340.001" style="enable-background:new 0 0 340.001 340.001;"
	 xml:space="preserve">
<g>
	<g>
		<path d="M2.69,320.439c-3.768,4.305-3.553,10.796,0.494,14.842l1.535,1.536c4.047,4.046,10.537,4.262,14.842,0.493l105.377-92.199
			l-30.049-30.049L2.69,320.439z"/>
		<path d="M339.481,119.739c-0.359-1.118-9.269-27.873-50.31-68.912C248.133,9.788,221.377,0.878,220.262,0.52
			c-3.879-1.244-8.127-0.217-11.008,2.664l-40.963,40.963c-4.242,4.243-4.242,11.125,0,15.369l4.533,4.534L65.086,147.171
			c-2.473,1.909-4.006,4.79-4.207,7.908c-0.199,3.118,0.953,6.172,3.162,8.381l41.225,41.226l30.051,30.051l41.225,41.226
			c2.211,2.209,5.266,3.361,8.381,3.161c3.119-0.201,6-1.732,7.91-4.207l83.119-107.738l4.535,4.533
			c4.239,4.244,11.123,4.244,15.367,0l40.963-40.962C339.698,127.866,340.726,123.618,339.481,119.739z M187.751,109.478
			l-66.539,56.51c-4.346,3.691-10.75,3.372-14.713-0.589c-0.209-0.209-0.412-0.429-0.607-0.659
			c-3.883-4.574-3.324-11.434,1.25-15.318l66.537-56.509c4.574-3.886,11.428-3.333,15.318,1.249
			C192.882,98.735,192.322,105.595,187.751,109.478z"/>
	</g>
</g>
<g>
</g>
<g>
</g>
<g>
</g>
<g>
</g>
<g>
</g>
<g>
</g>
<g>
</g>
<g>
</g>
<g>
</g>
<g>
</g>
<g>
</g>
<g>
</g>
<g>
</g>
<g>
</g>
<g>
</g>
</svg>
