<?xml version="1.0" encoding="iso-8859-1"?>
<!-- Generator: Adobe Illustrator 16.0.0, SVG Export Plug-In . SVG Version: 6.00 Build 0)  -->
<!DOCTYPE svg PUBLIC "-//W3C//DTD SVG 1.1//EN" "http://www.w3.org/Graphics/SVG/1.1/DTD/svg11.dtd">
<svg version="1.1" id="Capa_1" xmlns="http://www.w3.org/2000/svg" xmlns:xlink="http://www.w3.org/1999/xlink" x="0px" y="0px"
	 width="453.088px" height="453.087px" viewBox="0 0 453.088 453.087" style="enable-background:new 0 0 453.088 453.087;"
	 xml:space="preserve">
<g>
	<g>
		<path d="M451.396,71.67c-1.366-1.472-3.352-2.207-5.344-1.984c-19.591,2.194-38.195,6.609-55.299,13.12
			c-2.261,0.861-3.834,2.936-4.053,5.345c-0.349,3.822-0.816,18.143-0.816,18.143s-1.688-10.207-2.144-12.318
			c-0.406-1.88-1.646-3.473-3.365-4.331c-1.721-0.858-3.739-0.887-5.482-0.079c-16.346,7.561-27.444,15.714-37.006,23.398
			c-0.908,0.73-1.597,1.698-1.992,2.795c-5.832,16.237-5.766,27.106-4.826,36.433l0,0c0,0-3.398-9.997-5.104-13.683
			c-1.312-2.844-1.867-4.557-4.221-5.497c-2.355-0.941-5.043-0.387-6.834,1.406c-28.238,28.295-41.062,57.879-48.808,79.972
			c-5.756,16.42-8.539,29.961-9.861,38.428v0.002c-14.618,16.445-22.645,28.103-22.975,28.586c-1.027,1.496-1.41,3.304-1.078,5.089
			c0.334,1.782,1.342,3.332,2.82,4.346c1.141,0.789,2.473,1.203,3.852,1.203c2.244,0,4.343-1.104,5.607-2.947
			c0.072-0.106,7.49-10.84,20.871-26.029c44.602-3.93,83.006-20.207,114.143-48.384c1.813-1.641,2.52-4.178,1.814-6.52
			c-0.703-2.341-2.691-4.067-5.11-4.436c-5.118-0.781-9.998-1.749-14.503-2.879c10.943-1.537,24.275-5.186,39.623-10.843
			c1.115-0.412,2.094-1.13,2.822-2.072c34.408-44.58,46.091-96.068,48.852-110.787C453.349,75.173,452.763,73.141,451.396,71.67z"/>
		<path d="M396.089,223.976c-1.264,2.025-2.807,3.898-4.622,5.539c-5.853,5.297-11.937,10.207-18.242,14.74l32.227,111.594H32.14
			l46.554-161.208h172.035c3.397-8.426,7.667-17.768,13.19-27.592H68.317c-6.145,0-11.549,4.064-13.254,9.968l-54.521,188.8
			c-1.203,4.165-0.378,8.654,2.229,12.119c2.605,3.466,6.689,5.505,11.025,5.505h410c0.009,0,0.014,0,0.021,0
			c7.618,0,13.797-6.179,13.797-13.798c0-1.606-0.275-3.149-0.781-4.586L396.089,223.976z"/>
	</g>
</g>
<g>
</g>
<g>
</g>
<g>
</g>
<g>
</g>
<g>
</g>
<g>
</g>
<g>
</g>
<g>
</g>
<g>
</g>
<g>
</g>
<g>
</g>
<g>
</g>
<g>
</g>
<g>
</g>
<g>
</g>
</svg>
