<?xml version="1.0" encoding="iso-8859-1"?>
<!-- Generator: Adobe Illustrator 16.0.0, SVG Export Plug-In . SVG Version: 6.00 Build 0)  -->
<!DOCTYPE svg PUBLIC "-//W3C//DTD SVG 1.1//EN" "http://www.w3.org/Graphics/SVG/1.1/DTD/svg11.dtd">
<svg version="1.1" id="Capa_1" xmlns="http://www.w3.org/2000/svg" xmlns:xlink="http://www.w3.org/1999/xlink" x="0px" y="0px"
	 width="375.366px" height="375.366px" viewBox="0 0 375.366 375.366" style="enable-background:new 0 0 375.366 375.366;"
	 xml:space="preserve">
<g>
	<path d="M315.669,261.375c-13.154-25.224-34.079-45.065-55.94-54.577c11.344-15.911,23.271-36.734,36.358-61.481
		c14.674-27.743,20.684-58.924,16.922-87.798c-3.516-26.972-15.411-48.258-31.824-56.938c-2.312-1.224-5.178-0.456-6.57,1.758
		c-0.284,0.454-28.896,46.051-59.362,103.646c-13.134,24.832-22.356,46.785-27.569,65.531c-5.213-18.746-14.437-40.699-27.57-65.531
		C129.647,48.389,101.036,2.793,100.75,2.339c-1.394-2.214-4.258-2.981-6.57-1.758c-16.413,8.681-28.31,29.967-31.824,56.938
		c-3.762,28.874,2.248,60.055,16.922,87.798c13.089,24.748,25.015,45.57,36.358,61.481c-21.861,9.512-42.786,29.354-55.94,54.576
		c-10.858,20.818-14.581,42.054-10.767,61.409c3.977,20.169,15.798,36.301,33.289,45.424c9.109,4.75,18.907,7.159,29.12,7.159
		c0.002,0,0.003,0,0.005,0c28.415,0,55.096-18.631,71.37-49.837c1.819-3.488,3.476-7.089,4.97-10.763
		c1.494,3.674,3.149,7.273,4.97,10.763c16.274,31.206,42.956,49.837,71.373,49.837c10.213,0,20.011-2.407,29.122-7.159
		c17.491-9.123,29.313-25.255,33.289-45.424C330.25,303.428,326.527,282.192,315.669,261.375z M147.245,307.033
		c-9.114,17.479-22.873,28.335-35.905,28.333c-3.709,0-7.284-0.885-10.627-2.627c-8.339-4.35-11.422-12.022-12.54-17.692
		c-2.009-10.191,0.473-22.684,6.988-35.176c12.637-24.23,34.68-39.229,47.856-39.229c2.033,0,3.718,0.363,5.148,1.109
		C158.411,247.095,162.63,277.534,147.245,307.033z M187.682,224.383c-6.353,0-11.5-5.148-11.5-11.5s5.147-11.5,11.5-11.5
		c6.353,0,11.5,5.148,11.5,11.5S194.034,224.383,187.682,224.383z M287.19,315.047c-1.118,5.67-4.201,13.344-12.54,17.692
		c-3.344,1.744-6.918,2.627-10.626,2.627c-13.033,0-26.792-10.856-35.906-28.333c-15.385-29.499-11.165-59.938-0.921-65.281
		c1.431-0.746,3.115-1.109,5.148-1.109c13.177,0,35.22,14.998,47.855,39.229C286.718,292.363,289.199,304.854,287.19,315.047z"/>
</g>
<g>
</g>
<g>
</g>
<g>
</g>
<g>
</g>
<g>
</g>
<g>
</g>
<g>
</g>
<g>
</g>
<g>
</g>
<g>
</g>
<g>
</g>
<g>
</g>
<g>
</g>
<g>
</g>
<g>
</g>
</svg>
