<?xml version="1.0" encoding="iso-8859-1"?>
<!-- Generator: Adobe Illustrator 16.0.0, SVG Export Plug-In . SVG Version: 6.00 Build 0)  -->
<!DOCTYPE svg PUBLIC "-//W3C//DTD SVG 1.1//EN" "http://www.w3.org/Graphics/SVG/1.1/DTD/svg11.dtd">
<svg version="1.1" id="Capa_1" xmlns="http://www.w3.org/2000/svg" xmlns:xlink="http://www.w3.org/1999/xlink" x="0px" y="0px"
	 width="390px" height="390px" viewBox="0 0 390 390" style="enable-background:new 0 0 390 390;" xml:space="preserve">
<g>
	<path d="M382.192,21.979l-14.171-14.17c-10.41-10.41-27.284-10.41-37.691,0L199.538,138.595
		c-7.408,7.409-9.513,18.087-6.374,27.384l-64.811,64.808l-25.531-25.533c-2.874-2.871-6.956-4.189-10.965-3.533
		c-4.012,0.654-7.463,3.198-9.272,6.836L1.325,371.738c-2.42,4.858-1.463,10.724,2.375,14.562c3.84,3.839,9.703,4.795,14.563,2.374
		l163.182-81.26c3.638-1.811,6.183-5.262,6.837-9.273c0.655-4.009-0.663-8.09-3.534-10.965l-25.532-25.531l64.807-64.81
		c9.297,3.139,19.975,1.034,27.384-6.375L382.194,59.669C392.602,49.263,392.602,32.388,382.192,21.979z"/>
</g>
<g>
</g>
<g>
</g>
<g>
</g>
<g>
</g>
<g>
</g>
<g>
</g>
<g>
</g>
<g>
</g>
<g>
</g>
<g>
</g>
<g>
</g>
<g>
</g>
<g>
</g>
<g>
</g>
<g>
</g>
</svg>
