<?xml version="1.0" encoding="iso-8859-1"?>
<!-- Generator: Adobe Illustrator 16.0.0, SVG Export Plug-In . SVG Version: 6.00 Build 0)  -->
<!DOCTYPE svg PUBLIC "-//W3C//DTD SVG 1.1//EN" "http://www.w3.org/Graphics/SVG/1.1/DTD/svg11.dtd">
<svg version="1.1" id="Capa_1" xmlns="http://www.w3.org/2000/svg" xmlns:xlink="http://www.w3.org/1999/xlink" x="0px" y="0px"
	 width="353.844px" height="353.845px" viewBox="0 0 353.844 353.845" style="enable-background:new 0 0 353.844 353.845;"
	 xml:space="preserve">
<g>
	<g>
		<path d="M41.922,104.297c0,5.719,1.986,10.971,5.3,15.114v209.734c0,13.643,11.059,24.7,24.7,24.7h210
			c13.642,0,24.699-11.059,24.699-24.7V119.411c3.313-4.145,5.301-9.396,5.301-15.114V82.983h-270V104.297z M96.622,134.834h160.601
			v169.611H96.622V134.834z"/>
		<path d="M287.7,0H66.146c-13.38,0-24.223,10.845-24.223,24.223v41.314h36.801V46.491c0-9.665,7.835-17.5,17.5-17.5
			c9.665,0,17.5,7.835,17.5,17.5v19.046h198.199V24.223C311.922,10.845,301.08,0,287.7,0z"/>
		<rect x="121.922" y="200.439" width="110" height="77.287"/>
	</g>
</g>
<g>
</g>
<g>
</g>
<g>
</g>
<g>
</g>
<g>
</g>
<g>
</g>
<g>
</g>
<g>
</g>
<g>
</g>
<g>
</g>
<g>
</g>
<g>
</g>
<g>
</g>
<g>
</g>
<g>
</g>
</svg>
