<?xml version="1.0" encoding="iso-8859-1"?>
<!-- Generator: Adobe Illustrator 19.0.0, SVG Export Plug-In . SVG Version: 6.00 Build 0)  -->
<svg version="1.1" id="Layer_1" xmlns="http://www.w3.org/2000/svg" xmlns:xlink="http://www.w3.org/1999/xlink" x="0px" y="0px"
	 viewBox="0 0 496 496" style="enable-background:new 0 0 496 496;" xml:space="preserve">
<path style="fill:#516266;" d="M24,480c-4.8,0-8-3.2-8-8V24c0-4.8,3.2-8,8-8h448c4.8,0,8,3.2,8,8v448c0,4.8-3.2,8-8,8H24z"/>
<path style="fill:#324144;" d="M472,0c12.8,0,24,10.4,24,24v448c0,12.8-10.4,24-24,24H24c-12.8,0-24-10.4-24-24"/>
<g>
	<path style="fill:#7E8687;" d="M196.8,216c-8.8,0-16.8,3.2-22.4,8.8c-3.2-4-8.8-7.2-14.4-7.2c-4.8,0-9.6,2.4-12.8,5.6
		c-3.2-2.4-7.2-4-11.2-5.6c-2.4-10.4-12-18.4-23.2-18.4c-4,0-8,0.8-11.2,2.4c-0.8-6.4-6.4-11.2-12.8-12c0-1.6,0.8-3.2,0.8-4
		c0-8-2.4-15.2-6.4-21.6c4.8-2.4,8.8-7.2,8.8-12.8c0-8-6.4-13.6-13.6-13.6c0,0,0,0-0.8,0c0-0.8,0-1.6,0-2.4c0-20-16-36-36-36
		s-36,16-36,36c0,11.2,5.6,20.8,13.6,28c-4.8,6.4-7.2,14.4-7.2,22.4c0,14.4,8,26.4,19.2,33.6c-5.6,8-9.6,18.4-9.6,28.8
		c0,27.2,22.4,49.6,49.6,49.6c17.6,0,32.8-8.8,41.6-22.4c4.8,2.4,9.6,4,15.2,4c14.4,0,26.4-9.6,30.4-23.2c0.8,0,1.6,0,2.4,0
		c1.6,0,3.2,0,4-0.8c3.2,15.2,16.8,27.2,32.8,27.2c18.4,0,33.6-15.2,33.6-33.6C230.4,231.2,215.2,216,196.8,216z"/>
	<path style="fill:#7E8687;" d="M496,251.2V192c-5.6-6.4-12-11.2-20-14.4c9.6-8.8,16-21.6,16-35.2c0-26.4-21.6-48-48-48
		s-48,21.6-48,48v0.8c-20,1.6-36,17.6-38.4,37.6c-2.4-0.8-4.8-1.6-7.2-1.6c-8,0-14.4,5.6-16.8,12.8c-20,3.2-35.2,20-35.2,40
		s14.4,36.8,32.8,40c0.8,18.4,16,33.6,34.4,33.6c12,0,23.2-6.4,28.8-16c6.4,3.2,14.4,5.6,22.4,5.6c10.4,0,20-3.2,28-8.8
		c4,9.6,13.6,16,24.8,16c11.2,0,20-6.4,24.8-16v-21.6c-1.6-3.2-4-6.4-6.4-8.8C492,255.2,494.4,252.8,496,251.2z"/>
</g>
<g>
	<path style="fill:#657375;" d="M196.8,227.2c-8.8,0-16.8,3.2-22.4,8.8c-3.2-4-8.8-7.2-14.4-7.2c-4.8,0-9.6,2.4-12.8,5.6
		c-3.2-2.4-7.2-4-11.2-4.8c-2.4-10.4-12-18.4-23.2-18.4c-4,0-8,0.8-11.2,2.4c-0.8-6.4-6.4-11.2-12.8-12c0-1.6,0.8-3.2,0.8-4
		c0-8-2.4-15.2-6.4-21.6c4.8-2.4,8.8-7.2,8.8-12.8c0-8-6.4-13.6-13.6-13.6c0,0,0,0-0.8,0c0-0.8,0-1.6,0-2.4c0-20-16-36-36-36
		s-36,16-36,36c0,11.2,5.6,20.8,13.6,28c-4.8,6.4-7.2,14.4-7.2,22.4c0,14.4,8,26.4,19.2,33.6c-5.6,8-9.6,18.4-9.6,28.8
		c0,27.2,22.4,49.6,49.6,49.6c17.6,0,32.8-8.8,41.6-22.4c4.8,2.4,9.6,4,15.2,4c14.4,0,26.4-9.6,30.4-23.2c0.8,0,1.6,0,2.4,0
		c1.6,0,3.2,0,4-0.8c3.2,15.2,16.8,27.2,32.8,27.2c18.4,0,33.6-15.2,33.6-33.6C230.4,242.4,215.2,227.2,196.8,227.2z"/>
	<path style="fill:#657375;" d="M496,261.6v-58.4c-5.6-6.4-12-11.2-20-14.4c9.6-8.8,16-21.6,16-35.2c0-26.4-21.6-48-48-48
		s-48,21.6-48,48v0.8c-20,1.6-36,17.6-38.4,37.6c-2.4-0.8-4.8-1.6-7.2-1.6c-8,0-14.4,5.6-16.8,12.8c-20,3.2-35.2,20-35.2,40
		s14.4,36.8,32.8,40c0.8,18.4,16,33.6,34.4,33.6c12,0,23.2-6.4,28.8-16c6.4,3.2,14.4,5.6,22.4,5.6c10.4,0,20-3.2,28-8.8
		c4,9.6,13.6,16,24.8,16c11.2,0,20-6.4,24.8-16V276c-1.6-3.2-4-6.4-6.4-8.8C492,266.4,494.4,264,496,261.6z"/>
</g>
<rect x="24" y="264" style="fill:#00ADDB;" width="456" height="104"/>
<path style="fill:#E8E8E8;" d="M472,0H24C10.4,0,0,10.4,0,24v448c0,12.8,10.4,24,24,24h448c12.8,0,24-10.4,24-24V24
	C496,10.4,485.6,0,472,0z M464,32v288H32V32H464z"/>
<path style="fill:#F2F2F2;" d="M24,496h27.2l173.6-176H32V32h432v49.6l32-31.2V24c0-12.8-10.4-24-24-24H24C10.4,0,0,10.4,0,24v448
	C0,485.6,10.4,496,24,496z"/>
<path style="fill:#EAE4BE;" d="M169.6,179.2c-11.2,0-22.4-4.8-30.4-12.8S126.4,148,126.4,136s4.8-22.4,12.8-30.4
	c4.8-4.8,12-4.8,16.8,0s4.8,12,0,16.8c-4,4-5.6,8.8-5.6,13.6s2.4,10.4,5.6,13.6c7.2,7.2,20,7.2,27.2,0c4.8-4.8,12-4.8,16.8,0
	s4.8,12,0,16.8C192,174.4,181.6,179.2,169.6,179.2z"/>
<path style="fill:#FCF8E6;" d="M184,149.6c-7.2,7.2-20,7.2-27.2,0c-4-4-5.6-8.8-5.6-13.6s2.4-10.4,5.6-13.6c4.8-4.8,4.8-12,0-16.8
	c-3.2-3.2-7.2-4-11.2-3.2c-6.4,8.8-9.6,17.6-9.6,27.2c0,11.2,4.8,22.4,12.8,30.4s18.4,12.8,30.4,12.8c8,0,15.2-2.4,21.6-6.4
	c4.8-4.8,4-12,0-16C195.2,145.6,188,145.6,184,149.6z"/>
<path style="fill:#19CBF4;" d="M382.4,264h-12l-93.6-124.8c-4-5.6-14.4-5.6-18.4,0.8l-68.8,92.8L172,209.6c-4-5.6-14.4-7.2-18.4-1.6
	l-42.4,56H98.4c-6.4,0-12,5.6-12,12s5.6,12,12,12h15.2c1.6,0,4,0,5.6,0h48c0.8,0,1.6,0.8,2.4,0.8c0.8,0,1.6-0.8,3.2-0.8h32.8
	c0.8,0,1.6,0.8,3.2,0.8c0.8,0,1.6-0.8,2.4-0.8h151.2c1.6,0,4,0,5.6,0h14.4c6.4,0,12-5.6,12-12C394.4,269.6,388.8,264,382.4,264z"/>
<path style="fill:#00ADDB;" d="M382.4,264h-12l-93.6-124.8c-4-5.6-14.4-5.6-18.4,0.8l-52,115.2L172,209.6c-4-5.6-14.4-7.2-18.4-1.6
	l-24,56H98.4c-6.4,0-12,5.6-12,12s5.6,12,12,12h15.2c1.6,0,4,0,5.6,0h48c0.8,0,1.6,0.8,2.4,0.8c0.8,0,1.6-0.8,3.2-0.8h32.8
	c0.8,0,1.6,0.8,3.2,0.8c0.8,0,1.6-0.8,2.4-0.8h151.2c1.6,0,4,0,5.6,0h14.4c6.4,0,12-5.6,12-12S388.8,264,382.4,264z"/>
<g>
	<path style="fill:#EAE4BE;" d="M201.6,50.4c0,1.6-0.8,2.4-2.4,2.4s-2.4-0.8-2.4-2.4c0-1.6,0.8-2.4,2.4-2.4S201.6,49.6,201.6,50.4z"
		/>
	<circle style="fill:#EAE4BE;" cx="228.8" cy="64" r="4.8"/>
	<circle style="fill:#EAE4BE;" cx="261.6" cy="42.4" r="1.6"/>
	<circle style="fill:#EAE4BE;" cx="280" cy="94.4" r="5.6"/>
	<circle style="fill:#EAE4BE;" cx="194.4" cy="81.6" r="1.6"/>
	<circle style="fill:#EAE4BE;" cx="228.8" cy="93.6" r="4"/>
	<circle style="fill:#EAE4BE;" cx="152.8" cy="54.4" r="3.2"/>
</g>
<path style="fill:#FCF8E6;" d="M276.8,140.8c-4-5.6-14.4-6.4-18.4-0.8l-32.8,44.8l20,20l12-12l12,12l12-12l12,12l19.2-19.2
	L276.8,140.8z"/>
<path style="fill:#EAE4BE;" d="M244.8,204.8l12-12l12,12l12-12l12,12l20-20l-34.4-45.6c-4-5.6-14.4-5.6-18.4,0.8l-24,54.4
	L244.8,204.8z"/>
<rect x="32" y="320" style="fill:#E8E8E8;" width="448" height="24"/>
<circle style="opacity:0.3;fill:#9AA5A4;enable-background:new    ;" cx="379.2" cy="379.2" r="116.8"/>
<circle style="fill:#5AC117;" cx="364.8" cy="379.2" r="116.8"/>
<path style="fill:#44A307;" d="M364.8,262.4c64.8,0,116.8,52,116.8,116.8S429.6,496,364.8,496"/>
<path style="fill:#4DB20D;" d="M281.6,296.8c45.6-45.6,120-45.6,165.6,0s45.6,120,0,165.6"/>
<path style="fill:#FFFFFF;" d="M423.2,368H376v-48c0-6.4-5.6-12-12-12s-12,5.6-12,12v48h-46.4c-6.4,0-12,5.6-12,12s5.6,12,12,12H352
	v45.6c0,6.4,5.6,12,12,12s12-5.6,12-12V392h47.2c6.4,0,12-5.6,12-12S429.6,368,423.2,368z"/>
<g>
</g>
<g>
</g>
<g>
</g>
<g>
</g>
<g>
</g>
<g>
</g>
<g>
</g>
<g>
</g>
<g>
</g>
<g>
</g>
<g>
</g>
<g>
</g>
<g>
</g>
<g>
</g>
<g>
</g>
</svg>
