<?xml version="1.0" encoding="iso-8859-1"?>
<!-- Generator: Adobe Illustrator 19.0.0, SVG Export Plug-In . SVG Version: 6.00 Build 0)  -->
<svg version="1.1" id="Layer_1" xmlns="http://www.w3.org/2000/svg" xmlns:xlink="http://www.w3.org/1999/xlink" x="0px" y="0px"
	 viewBox="0 0 496 496" style="enable-background:new 0 0 496 496;" xml:space="preserve">
<path style="fill:#0EE0B8;" d="M404,0H92C78.4,0,64,12.8,64,26.4v320L222.4,496H404c13.6,0,28-12.8,28-26.4V26.4
	C432,12.8,417.6,0,404,0z"/>
<path style="fill:#FFD400;" d="M404,0H92C78.4,0,64,12.8,64,26.4v320L222.4,496H404c13.6,0,28-12.8,28-26.4V26.4
	C432,12.8,417.6,0,404,0z"/>
<path style="fill:#FFC200;" d="M432,384V26.4C432,12.8,417.6,0,404,0H92C78.4,0,66.4,11.2,66.4,24"/>
<path style="fill:#FFB000;" d="M432,384V26.4C432,12.8,417.6,0,404,0H208"/>
<path style="fill:#FFC200;" d="M200,352v119.2c0,1.6,1.6,3.2,1.6,4.8l19.2,18.4c1.6,0,3.2,1.6,4.8,1.6h125.6l-148-144H200z"/>
<path style="fill:#FFB000;" d="M200,351.2v120c0,1.6,1.6,3.2,1.6,4.8l19.2,18.4c1.6,0,3.2,1.6,4.8,1.6h64l-72.8-120.8L200,351.2z"/>
<path style="fill:#FFFFFF;" d="M222.4,496h1.6V370.4c0-13.6-12-26.4-25.6-26.4L64,345.6L222.4,496z"/>
<polyline style="fill:#FFF7D7;" points="64,345.6 222.4,496 224,496 224,368 "/>
<path style="fill:#F9E385;" d="M80,345.6L80,345.6V26.4C80,12.8,89.6,0,102.4,0H92C78.4,0,64,12.8,64,26.4v320L80,345.6L80,345.6z"
	/>
<path style="fill:#FFB000;" d="M342.4,204.8c-1.6-4-4.8-7.2-9.6-8l-44.8-6.4l-20-40.8c-1.6-4-5.6-6.4-10.4-6.4
	c-4,0-8.8,2.4-10.4,6.4l-20,40.8l-44.8,6.4c-4,0.8-8,4-9.6,8s0,8.8,3.2,12l32.8,32l-8,44.8c-0.8,4,0.8,8.8,4.8,11.2
	c3.2,2.4,8,3.2,12,0.8l40-20.8l40,20.8c1.6,0.8,3.2,1.6,5.6,1.6s4.8-0.8,6.4-2.4c3.2-2.4,5.6-7.2,4.8-11.2l-8-44.8l32.8-32
	C342.4,213.6,344,208.8,342.4,204.8z"/>
<path style="fill:#FFFFFF;" d="M332.8,189.6c-1.6-4-4.8-7.2-9.6-8l-44.8-6.4l-20-40.8c-2.4-4-6.4-6.4-10.4-6.4s-8,2.4-10.4,6.4
	l-20,40.8l-44.8,6.4c-4,0.8-8,4-9.6,8s0,8.8,3.2,12l32.8,32l-8,44.8c-0.8,4,0.8,8.8,4.8,11.2c3.2,2.4,8,3.2,12,0.8l40-20.8l40,20.8
	c1.6,0.8,3.2,1.6,5.6,1.6s4.8-0.8,6.4-2.4c3.2-2.4,5.6-7.2,4.8-11.2l-8-44.8l32.8-32C332.8,198.4,334.4,193.6,332.8,189.6z"/>
<g>
</g>
<g>
</g>
<g>
</g>
<g>
</g>
<g>
</g>
<g>
</g>
<g>
</g>
<g>
</g>
<g>
</g>
<g>
</g>
<g>
</g>
<g>
</g>
<g>
</g>
<g>
</g>
<g>
</g>
</svg>
