<?xml version="1.0" encoding="iso-8859-1"?>
<!-- Generator: Adobe Illustrator 19.0.0, SVG Export Plug-In . SVG Version: 6.00 Build 0)  -->
<svg version="1.1" id="Layer_1" xmlns="http://www.w3.org/2000/svg" xmlns:xlink="http://www.w3.org/1999/xlink" x="0px" y="0px"
	 viewBox="0 0 496 496" style="enable-background:new 0 0 496 496;" xml:space="preserve">
<path style="fill:#0EE0B8;" d="M404,0H92C78.4,0,64,12.8,64,26.4v320L222.4,496H404c13.6,0,28-12.8,28-26.4V26.4
	C432,12.8,417.6,0,404,0z"/>
<path style="fill:#A3ED54;" d="M404,0H92C78.4,0,64,12.8,64,26.4v320L222.4,496H404c13.6,0,28-12.8,28-26.4V26.4
	C432,12.8,417.6,0,404,0z"/>
<path style="fill:#94E239;" d="M432,384V26.4C432,12.8,417.6,0,404,0H92C78.4,0,66.4,11.2,66.4,24"/>
<path style="fill:#8DD819;" d="M432,384V26.4C432,12.8,417.6,0,404,0H208"/>
<path style="fill:#94E239;" d="M200,352v119.2c0,1.6,1.6,3.2,1.6,4.8l19.2,18.4c1.6,0,3.2,1.6,4.8,1.6h125.6l-148-144H200z"/>
<path style="fill:#8DD819;" d="M200,351.2v120c0,1.6,1.6,3.2,1.6,4.8l19.2,18.4c1.6,0,3.2,1.6,4.8,1.6h64l-72.8-120.8L200,351.2z"/>
<path style="fill:#FFFFFF;" d="M222.4,496h1.6V370.4c0-13.6-12-26.4-25.6-26.4L64,345.6L222.4,496z"/>
<polyline style="fill:#EEFCDE;" points="64,345.6 222.4,496 224,496 224,368 "/>
<path style="fill:#C9FC8D;" d="M80,345.6L80,345.6V26.4C80,12.8,89.6,0,102.4,0H92C78.4,0,64,12.8,64,26.4v320L80,345.6L80,345.6z"
	/>
<g>
	<path style="fill:#8DD819;" d="M241.6,168H134.4c-6.4,0-11.2,5.6-11.2,12s4.8,12,11.2,12h107.2c6.4,0,11.2-5.6,11.2-12
		S248,168,241.6,168z"/>
	<path style="fill:#8DD819;" d="M307.2,200.8c2.4,2.4,4.8,3.2,8,3.2s5.6-1.6,8-3.2l55.2-55.2c4.8-4.8,4.8-12,0-16
		c-4.8-4.8-12-4.8-16,0l-47.2,47.2l-24-24c-4.8-4.8-12-4.8-16,0c-4.8,4.8-4.8,12,0,16L307.2,200.8z"/>
	<path style="fill:#8DD819;" d="M241.6,256H134.4c-6.4,0-11.2,5.6-11.2,12s4.8,12,11.2,12h107.2c6.4,0,11.2-5.6,11.2-12
		S248,256,241.6,256z"/>
	<path style="fill:#8DD819;" d="M363.2,216.8l-48,47.2l-24-24c-4.8-4.8-12-4.8-16,0c-4.8,4.8-4.8,12,0,16l32,32
		c2.4,2.4,4.8,3.2,8,3.2s5.6-1.6,8-3.2l55.2-55.2c4.8-4.8,4.8-12,0-16C374.4,212,367.2,212,363.2,216.8z"/>
</g>
<g>
	<path style="fill:#FFFFFF;" d="M236.8,160H129.6c-6.4,0-11.2,5.6-11.2,12s4.8,12,11.2,12h107.2c6.4,0,11.2-5.6,11.2-12
		C248.8,165.6,243.2,160,236.8,160z"/>
	<path style="fill:#FFFFFF;" d="M302.4,192c2.4,2.4,4.8,3.2,8,3.2s5.6-1.6,8-3.2l55.2-55.2c4.8-4.8,4.8-12,0-16
		c-4.8-4.8-12-4.8-16,0L310.4,168l-24-24c-4.8-4.8-12-4.8-16,0c-4.8,4.8-4.8,12,0,16L302.4,192z"/>
	<path style="fill:#FFFFFF;" d="M236.8,248H129.6c-6.4,0-11.2,5.6-11.2,12s4.8,12,11.2,12h107.2c6.4,0,11.2-5.6,11.2-12
		S243.2,248,236.8,248z"/>
	<path style="fill:#FFFFFF;" d="M358.4,208l-47.2,47.2l-24-24c-4.8-4.8-12-4.8-16,0c-4.8,4.8-4.8,12,0,16l32,32
		c2.4,2.4,4.8,3.2,8,3.2s5.6-1.6,8-3.2l55.2-55.2c4.8-4.8,4.8-12,0-16C369.6,203.2,362.4,203.2,358.4,208z"/>
</g>
<g>
</g>
<g>
</g>
<g>
</g>
<g>
</g>
<g>
</g>
<g>
</g>
<g>
</g>
<g>
</g>
<g>
</g>
<g>
</g>
<g>
</g>
<g>
</g>
<g>
</g>
<g>
</g>
<g>
</g>
</svg>
