<?xml version="1.0" encoding="iso-8859-1"?>
<!-- Generator: Adobe Illustrator 19.0.0, SVG Export Plug-In . SVG Version: 6.00 Build 0)  -->
<svg version="1.1" id="Layer_1" xmlns="http://www.w3.org/2000/svg" xmlns:xlink="http://www.w3.org/1999/xlink" x="0px" y="0px"
	 viewBox="0 0 496 496" style="enable-background:new 0 0 496 496;" xml:space="preserve">
<path style="fill:#0EE0B8;" d="M404,0H92C78.4,0,64,12.8,64,26.4v320L222.4,496H404c13.6,0,28-12.8,28-26.4V26.4
	C432,12.8,417.6,0,404,0z"/>
<path style="fill:#00ADDB;" d="M404,0H92C78.4,0,64,12.8,64,26.4v320L222.4,496H404c13.6,0,28-12.8,28-26.4V26.4
	C432,12.8,417.6,0,404,0z"/>
<path style="fill:#009CCC;" d="M432,384V26.4C432,12.8,417.6,0,404,0H92C78.4,0,66.4,11.2,66.4,24"/>
<path style="fill:#0491BC;" d="M432,384V26.4C432,12.8,417.6,0,404,0H208"/>
<path style="fill:#009CCC;" d="M200,352v119.2c0,1.6,1.6,3.2,1.6,4.8l19.2,18.4c1.6,0,3.2,1.6,4.8,1.6h125.6l-148-144H200z"/>
<path style="fill:#0491BC;" d="M200,351.2v120c0,1.6,1.6,3.2,1.6,4.8l19.2,18.4c1.6,0,3.2,1.6,4.8,1.6h64l-72.8-120.8L200,351.2z"/>
<path style="fill:#FFFFFF;" d="M222.4,496h1.6V370.4c0-13.6-12-26.4-25.6-26.4L64,345.6L222.4,496z"/>
<polyline style="fill:#D2F3FF;" points="64,345.6 222.4,496 224,496 224,368 "/>
<path style="fill:#40DBFF;" d="M80,345.6L80,345.6V26.4C80,12.8,89.6,0,102.4,0H92C78.4,0,64,12.8,64,26.4v320L80,345.6L80,345.6z"
	/>
<path style="fill:#0491BC;" d="M352.8,239.2c3.2-4,5.6-8.8,5.6-14.4c0-13.6-14.4-24-22.4-24.8v-1.6c0-13.6-12-25.6-26.4-25.6
	c-10.4,0-18.4,6.4-22.4,15.2c-8-4-16-2.4-24,2.4V184c0-13.6-14.4-25.6-28-25.6s-28,11.2-28,25.6v18.4c-8-4.8-20-2.4-27.2,5.6
	c-8.8,8.8-8,24.8-1.6,32.8h-16c-13.6,0-25.6,10.4-25.6,24c0,13.6,11.2,24,25.6,24H348c13.6,0,25.6-11.2,25.6-24.8
	C373.6,250.4,364.8,240.8,352.8,239.2z"/>
<path style="fill:#FFFFFF;" d="M345.6,213.6c3.2-4,5.6-8.8,5.6-14.4c0-13.6-14.4-24-22.4-24.8v-1.6c0-13.6-12-25.6-25.6-25.6
	c-10.4,0-18.4,6.4-22.4,15.2c-8-4-16-2.4-24,2.4v-5.6c0-13.6-14.4-25.6-28-25.6s-28,11.2-28,25.6v18.4c-8-4.8-19.2-1.6-27.2,6.4
	c-8.8,8.8-8,17.6-1.6,33.6h-16c-13.6,0-25.6,10.4-25.6,24s11.2,24,25.6,24h185.6c13.6,0,25.6-12,25.6-25.6
	C366.4,225.6,356.8,215.2,345.6,213.6z"/>
<g>
</g>
<g>
</g>
<g>
</g>
<g>
</g>
<g>
</g>
<g>
</g>
<g>
</g>
<g>
</g>
<g>
</g>
<g>
</g>
<g>
</g>
<g>
</g>
<g>
</g>
<g>
</g>
<g>
</g>
</svg>
