<?xml version="1.0" encoding="iso-8859-1"?>
<!-- Generator: Adobe Illustrator 19.0.0, SVG Export Plug-In . SVG Version: 6.00 Build 0)  -->
<svg version="1.1" id="Layer_1" xmlns="http://www.w3.org/2000/svg" xmlns:xlink="http://www.w3.org/1999/xlink" x="0px" y="0px"
	 viewBox="0 0 497.6 497.6" style="enable-background:new 0 0 497.6 497.6;" xml:space="preserve">
<path style="fill:#E8EFEE;" d="M52.4,448c-5.6,0-5.6-7.2-5.6-12V23.2c0-4.8,0-7.2,5.6-7.2h344.8c4.8,0,9.6,2.4,9.6,7.2V436
	c0,4.8-4.8,12-9.6,12H52.4z"/>
<path style="fill:#9AA5A4;" d="M390.8,32v400h-328V32H390.8 M397.2,0H52.4C38,0,30.8,9.6,30.8,23.2V436c0,13.6,7.2,28,21.6,28h344.8
	c13.6,0,25.6-14.4,25.6-28V23.2C422.8,9.6,410.8,0,397.2,0L397.2,0z"/>
<path style="fill:#FFFFFF;" d="M397.2,16H52.4c-5.6,0-5.6,2.4-5.6,7.2V436c0,3.2,0,5.6,1.6,7.2L403.6,17.6
	C402,15.2,399.6,16,397.2,16z"/>
<path style="fill:#B3BCBB;" d="M414.8,5.6C410,1.6,403.6,0,397.2,0H52.4C38,0,30.8,9.6,30.8,23.2V436c0,8,1.6,13.6,5.6,20l26.4-26.4
	V32h328v3.2L414.8,5.6z"/>
<g>
	<path style="fill:#E8EFEE;" d="M134,120h188.8c6.4,0,12-5.6,12-12s-5.6-12-12-12H134c-6.4,0-12,5.6-12,12S127.6,120,134,120z"/>
	<path style="fill:#E8EFEE;" d="M134,184h108.8c6.4,0,12-5.6,12-12s-4.8-12-11.2-12H134c-6.4,0-12,5.6-12,12S127.6,184,134,184z"/>
	<path style="fill:#E8EFEE;" d="M322.8,224H134c-6.4,0-12,9.6-12,16s5.6,16,12,16h188.8c6.4,0,12-9.6,12-16S330,224,322.8,224z"/>
	<path style="fill:#E8EFEE;" d="M243.6,296H134c-6.4,0-12,5.6-12,12s5.6,12,12,12h108.8c6.4,0,12-5.6,12-12
		C255.6,301.6,250,296,243.6,296z"/>
</g>
<g>
	<path style="fill:#B1BAB9;" d="M130,112h188.8c6.4,0,12-5.6,12-12s-5.6-12-12-12H130c-6.4,0-12,5.6-12,12S123.6,112,130,112z"/>
	<path style="fill:#B1BAB9;" d="M318.8,224H130c-6.4,0-12,5.6-12,12s5.6,12,12,12h188.8c6.4,0,12-5.6,12-12S326,224,318.8,224z"/>
</g>
<g>
	<path style="fill:#9AA5A4;" d="M239.6,288H130c-6.4,0-12,5.6-12,12s5.6,12,12,12h108.8c6.4,0,12-5.6,12-12
		C251.6,293.6,246,288,239.6,288z"/>
	<path style="fill:#9AA5A4;" d="M239.6,152H130c-6.4,0-12,5.6-12,12s5.6,12,12,12h108.8c6.4,0,12-5.6,12-12
		C251.6,157.6,246,152,239.6,152z"/>
	<circle style="opacity:0.3;fill:#9AA5A4;enable-background:new    ;" cx="358.8" cy="389.6" r="108"/>
</g>
<circle style="fill:#1080DD;" cx="345.2" cy="389.6" r="108"/>
<path style="fill:#0667B7;" d="M345.2,281.6c60,0,108,48,108,108s-48,108-108,108"/>
<path style="fill:#0070CC;" d="M269.2,313.6c42.4-42.4,110.4-42.4,152.8,0s42.4,110.4,0,152.8"/>
<path style="fill:#0667B7;" d="M405.2,393.6l-42.4-42.4c-4.8-4.8-12-4.8-16.8,0l-42.4,42.4c-4.8,4.8-4.8,12,0,16.8s12,4.8,16.8,0
	l22.4-22.4v85.6c0,6.4,5.6,12,12,12c6.4,0,12-5.6,12-12v-86.4l22.4,22.4c2.4,2.4,4.8,3.2,8,3.2s5.6-0.8,8-3.2
	C410,405.6,410,398.4,405.2,393.6z"/>
<path style="fill:#FFFFFF;" d="M396.4,376.8L354,334.4c-4.8-4.8-12-4.8-16.8,0l-42.4,42.4c-4.8,4.8-4.8,12,0,16.8s12.8,4.8,16.8,0
	l23.2-22.4v85.6c0,6.4,5.6,12,12,12c6.4,0,12-5.6,12-12v-85.6l21.6,22.4c2.4,2.4,4.8,3.2,8,3.2s5.6-0.8,8-3.2
	C401.2,388.8,401.2,381.6,396.4,376.8z"/>
<g>
</g>
<g>
</g>
<g>
</g>
<g>
</g>
<g>
</g>
<g>
</g>
<g>
</g>
<g>
</g>
<g>
</g>
<g>
</g>
<g>
</g>
<g>
</g>
<g>
</g>
<g>
</g>
<g>
</g>
</svg>
