<?xml version="1.0" encoding="iso-8859-1"?>
<!-- Generator: Adobe Illustrator 19.0.0, SVG Export Plug-In . SVG Version: 6.00 Build 0)  -->
<svg version="1.1" id="Layer_1" xmlns="http://www.w3.org/2000/svg" xmlns:xlink="http://www.w3.org/1999/xlink" x="0px" y="0px"
	 viewBox="0 0 496 496" style="enable-background:new 0 0 496 496;" xml:space="preserve">
<path style="fill:#0EE0B8;" d="M404,0H92C78.4,0,64,12.8,64,26.4v320L222.4,496H404c13.6,0,28-12.8,28-26.4V26.4
	C432,12.8,417.6,0,404,0z"/>
<path style="fill:#FF1010;" d="M404,0H92C78.4,0,64,12.8,64,26.4v320L222.4,496H404c13.6,0,28-12.8,28-26.4V26.4
	C432,12.8,417.6,0,404,0z"/>
<path style="fill:#EA0606;" d="M432,384V26.4C432,12.8,417.6,0,404,0H92C78.4,0,66.4,11.2,66.4,24"/>
<path style="fill:#DD0707;" d="M432,384V26.4C432,12.8,417.6,0,404,0H208"/>
<path style="fill:#EA0606;" d="M200,352v119.2c0,1.6,1.6,3.2,1.6,4.8l19.2,18.4c1.6,0,3.2,1.6,4.8,1.6h125.6l-148-144H200z"/>
<path style="fill:#DD0707;" d="M200,351.2v120c0,1.6,1.6,3.2,1.6,4.8l19.2,18.4c1.6,0,3.2,1.6,4.8,1.6h64l-72.8-120.8L200,351.2z"/>
<path style="fill:#FFFFFF;" d="M222.4,496h1.6V370.4c0-13.6-12-26.4-25.6-26.4L64,345.6L222.4,496z"/>
<polyline style="fill:#F9DFD9;" points="64,345.6 222.4,496 224,496 224,368 "/>
<path style="fill:#FF9578;" d="M80,345.6L80,345.6V26.4C80,12.8,89.6,0,102.4,0H92C78.4,0,64,12.8,64,26.4v320L80,345.6L80,345.6z"
	/>
<path style="fill:#DD0707;" d="M392,123.2c0-6.4-4.8-11.2-11.2-11.2H131.2c-6.4,0-11.2,4.8-11.2,11.2V284c0,6.4,4.8,11.2,11.2,11.2
	H380c6.4,0,11.2-4.8,11.2-11.2V123.2H392z M368,200H208v-64h160V200z M184,136v64h-48v-64H184z M136,224h48v48h-48V224z M208,272
	v-48h160v48H208z"/>
<path style="fill:#FFFFFF;" d="M384,107.2c0-6.4-4.8-11.2-11.2-11.2H123.2c-6.4,0-11.2,4.8-11.2,11.2V268c0,6.4,4.8,11.2,11.2,11.2
	H372c6.4,0,11.2-4.8,11.2-11.2V107.2H384z M360,184H200v-64h160V184z M176,120v64h-40v-64H176z M136,208h40v48h-40V208z M200,256
	v-48h160v48H200z"/>
<g>
</g>
<g>
</g>
<g>
</g>
<g>
</g>
<g>
</g>
<g>
</g>
<g>
</g>
<g>
</g>
<g>
</g>
<g>
</g>
<g>
</g>
<g>
</g>
<g>
</g>
<g>
</g>
<g>
</g>
</svg>
