<?xml version="1.0" encoding="iso-8859-1"?>
<!-- Generator: Adobe Illustrator 19.0.0, SVG Export Plug-In . SVG Version: 6.00 Build 0)  -->
<svg version="1.1" id="Layer_1" xmlns="http://www.w3.org/2000/svg" xmlns:xlink="http://www.w3.org/1999/xlink" x="0px" y="0px"
	 viewBox="0 0 497.6 497.6" style="enable-background:new 0 0 497.6 497.6;" xml:space="preserve">
<path style="fill:#E8EFEE;" d="M52.4,448c-5.6,0-5.6-7.2-5.6-12V23.2c0-4.8,0-7.2,5.6-7.2h344.8c4.8,0,9.6,2.4,9.6,7.2V436
	c0,4.8-4.8,12-9.6,12H52.4z"/>
<path style="fill:#9AA5A4;" d="M390.8,32v400h-328V32H390.8 M397.2,0H52.4C38,0,30.8,9.6,30.8,23.2V436c0,13.6,7.2,28,21.6,28h344.8
	c13.6,0,25.6-14.4,25.6-28V23.2C422.8,9.6,410.8,0,397.2,0L397.2,0z"/>
<path style="fill:#FFFFFF;" d="M397.2,16H52.4c-5.6,0-5.6,2.4-5.6,7.2V436c0,3.2,0,5.6,1.6,7.2l356-425.6
	C402.8,16,399.6,16,397.2,16z"/>
<path style="fill:#B3BCBB;" d="M414.8,5.6C410,1.6,403.6,0,397.2,0H52.4C38,0,30.8,9.6,30.8,23.2V436c0,8,0.8,12.8,5.6,20l26.4-26.4
	V32h328v3.2L414.8,5.6z"/>
<g>
	<path style="fill:#E8EFEE;" d="M134,120h188.8c6.4,0,12-5.6,12-12s-5.6-12-12-12H134c-6.4,0-12,5.6-12,12S127.6,120,134,120z"/>
	<path style="fill:#E8EFEE;" d="M134,184h108.8c6.4,0,12-5.6,12-12s-4.8-12-11.2-12H134c-6.4,0-12,5.6-12,12S127.6,184,134,184z"/>
	<path style="fill:#E8EFEE;" d="M322.8,224H134c-6.4,0-12,9.6-12,16s5.6,16,12,16h188.8c6.4,0,12-9.6,12-16S330,224,322.8,224z"/>
	<path style="fill:#E8EFEE;" d="M243.6,296H134c-6.4,0-12,5.6-12,12s5.6,12,12,12h108.8c6.4,0,12-5.6,12-12
		C255.6,301.6,250,296,243.6,296z"/>
</g>
<g>
	<path style="fill:#B1BAB9;" d="M130,112h188.8c6.4,0,12-5.6,12-12s-4.8-12-12-12H130c-6.4,0-12,5.6-12,12S123.6,112,130,112z"/>
	<path style="fill:#B1BAB9;" d="M318.8,224H130c-6.4,0-12,5.6-12,12s5.6,12,12,12h188.8c6.4,0,12-5.6,12-12S326,224,318.8,224z"/>
</g>
<g>
	<path style="fill:#9AA5A4;" d="M239.6,288H130c-6.4,0-12,5.6-12,12s5.6,12,12,12h108.8c6.4,0,12-5.6,12-12
		C251.6,293.6,246,288,239.6,288z"/>
	<path style="fill:#9AA5A4;" d="M239.6,152H130c-6.4,0-12,5.6-12,12s5.6,12,12,12h108.8c6.4,0,12-5.6,12-12
		C251.6,157.6,246,152,239.6,152z"/>
	<circle style="opacity:0.3;fill:#9AA5A4;enable-background:new    ;" cx="358.8" cy="389.6" r="108"/>
</g>
<circle style="fill:#5AC117;" cx="345.2" cy="389.6" r="108"/>
<path style="fill:#44A307;" d="M345.2,281.6c60,0,108,48,108,108s-48,108-108,108"/>
<path style="fill:#4DB20D;" d="M269.2,313.6c42.4-42.4,110.4-42.4,152.8,0s42.4,110.4,0,152.8"/>
<g>
	<path style="fill:#44A307;" d="M389.2,395.2c-4,0-6.4-3.2-6.4-6.4c0-24.8-20-45.6-45.6-45.6c-4,0-6.4-3.2-6.4-6.4s3.2-6.4,6.4-6.4
		c32,0,58.4,26.4,58.4,58.4C395.6,392.8,392.4,395.2,389.2,395.2z"/>
	<path style="fill:#44A307;" d="M389.2,409.6c-1.6,0-3.2-0.8-4.8-1.6l-16.8-16.8c-2.4-2.4-2.4-6.4,0-9.6c2.4-2.4,6.4-2.4,9.6,0
		l12,12l12-12c2.4-2.4,6.4-2.4,9.6,0c2.4,2.4,2.4,6.4,0,9.6L393.2,408C392.4,408.8,390.8,409.6,389.2,409.6z"/>
	<path style="fill:#44A307;" d="M305.2,392.8c4,0,6.4,3.2,6.4,6.4c0,24.8,20,45.6,45.6,45.6c4,0,6.4,3.2,6.4,6.4
		c0,4-3.2,6.4-6.4,6.4c-32,0-58.4-26.4-58.4-58.4C298.8,396,302,392.8,305.2,392.8z"/>
	<path style="fill:#44A307;" d="M305.2,378.4c1.6,0,3.2,0.8,4.8,1.6l16.8,16.8c2.4,2.4,2.4,6.4,0,9.6c-2.4,2.4-6.4,2.4-9.6,0l-12-12
		l-12,12c-2.4,2.4-6.4,2.4-9.6,0c-2.4-2.4-2.4-6.4,0-9.6l16.8-16.8C302,379.2,303.6,378.4,305.2,378.4z"/>
</g>
<g>
	<path style="fill:#FFFFFF;" d="M385.2,386.4c-4,0-6.4-3.2-6.4-6.4c0-24.8-20-45.6-45.6-45.6c-4,0-6.4-3.2-6.4-6.4
		c0-4,3.2-6.4,6.4-6.4c32,0,58.4,26.4,58.4,58.4C391.6,384,389.2,386.4,385.2,386.4z"/>
	<path style="fill:#FFFFFF;" d="M385.2,400.8c-1.6,0-3.2-0.8-4.8-1.6l-16.8-16.8c-2.4-2.4-2.4-6.4,0-9.6c2.4-2.4,6.4-2.4,9.6,0
		l12,12l12-12c2.4-2.4,6.4-2.4,9.6,0c2.4,2.4,2.4,6.4,0,9.6L390,399.2C388.4,400,386.8,400.8,385.2,400.8z"/>
	<path style="fill:#FFFFFF;" d="M302,384c4,0,6.4,3.2,6.4,6.4c0,24.8,20,45.6,45.6,45.6c4,0,6.4,3.2,6.4,6.4c0,4-3.2,6.4-6.4,6.4
		c-32,0-58.4-26.4-58.4-58.4C294.8,387.2,298,384,302,384z"/>
	<path style="fill:#FFFFFF;" d="M302,369.6c1.6,0,3.2,0.8,4.8,1.6l16.8,16.8c2.4,2.4,2.4,6.4,0,9.6c-2.4,2.4-6.4,2.4-9.6,0l-12-12
		l-12,12c-2.4,2.4-6.4,2.4-9.6,0c-2.4-2.4-2.4-6.4,0-9.6l16.8-16.8C298,370.4,300.4,369.6,302,369.6z"/>
</g>
<g>
</g>
<g>
</g>
<g>
</g>
<g>
</g>
<g>
</g>
<g>
</g>
<g>
</g>
<g>
</g>
<g>
</g>
<g>
</g>
<g>
</g>
<g>
</g>
<g>
</g>
<g>
</g>
<g>
</g>
</svg>
