<?xml version="1.0" encoding="iso-8859-1"?>
<!-- Generator: Adobe Illustrator 19.0.0, SVG Export Plug-In . SVG Version: 6.00 Build 0)  -->
<svg version="1.1" id="Layer_1" xmlns="http://www.w3.org/2000/svg" xmlns:xlink="http://www.w3.org/1999/xlink" x="0px" y="0px"
	 viewBox="0 0 496 496" style="enable-background:new 0 0 496 496;" xml:space="preserve">
<path style="fill:#0EE0B8;" d="M404,0H92C78.4,0,64,12.8,64,26.4v320L222.4,496H404c13.6,0,28-12.8,28-26.4V26.4
	C432,12.8,417.6,0,404,0z"/>
<path style="fill:#EA0A0A;" d="M404,0H92C78.4,0,64,12.8,64,26.4v320L222.4,496H404c13.6,0,28-12.8,28-26.4V26.4
	C432,12.8,417.6,0,404,0z"/>
<path style="fill:#D10909;" d="M432,384V26.4C432,12.8,417.6,0,404,0H92C78.4,0,66.4,11.2,66.4,24"/>
<path style="fill:#BA0404;" d="M432,384V26.4C432,12.8,417.6,0,404,0H208"/>
<path style="fill:#D10909;" d="M200,352v119.2c0,1.6,1.6,3.2,1.6,4.8l19.2,18.4c1.6,0,3.2,1.6,4.8,1.6h125.6l-148-144H200z"/>
<path style="fill:#BA0404;" d="M200,351.2v120c0,1.6,1.6,3.2,1.6,4.8l19.2,18.4c1.6,0,3.2,1.6,4.8,1.6h64l-72.8-120.8L200,351.2z"/>
<path style="fill:#FFFFFF;" d="M222.4,496h1.6V370.4c0-13.6-12-26.4-25.6-26.4L64,345.6L222.4,496z"/>
<polyline style="fill:#FCDEDE;" points="64,345.6 222.4,496 224,496 224,368 "/>
<path style="fill:#FF5A5A;" d="M80,345.6L80,345.6V26.4C80,12.8,89.6,0,102.4,0H92C78.4,0,64,12.8,64,26.4v320L80,345.6L80,345.6z"
	/>
<path style="fill:#BA0404;" d="M271.2,235.2l51.2-51.2c4.8-4.8,4.8-12,0-16c-4.8-4.8-12-4.8-16,0l-51.2,51.2L204,168
	c-4.8-4.8-12-4.8-16,0c-4.8,4.8-4.8,12,0,16l51.2,51.2L188,286.4c-4.8,4.8-4.8,12,0,16c2.4,2.4,4.8,3.2,8,3.2s5.6-0.8,8-3.2
	l51.2-51.2l51.2,51.2c2.4,2.4,5.6,3.2,8,3.2s5.6-0.8,8-3.2c4.8-4.8,4.8-12,0-16L271.2,235.2z"/>
<path style="fill:#FFFFFF;" d="M264,218.4l51.2-51.2c4.8-4.8,4.8-12,0-16c-4.8-4.8-12-4.8-16,0L248,202.4l-51.2-51.2
	c-4.8-4.8-12-4.8-16,0c-4.8,4.8-4.8,12,0,16l51.2,51.2l-51.2,51.2c-4.8,4.8-4.8,12,0,16c2.4,2.4,4.8,3.2,8,3.2s5.6-0.8,8-3.2
	l51.2-51.2l51.2,51.2c2.4,2.4,5.6,3.2,8,3.2s5.6-0.8,8-3.2c4.8-4.8,4.8-12,0-16L264,218.4z"/>
<g>
</g>
<g>
</g>
<g>
</g>
<g>
</g>
<g>
</g>
<g>
</g>
<g>
</g>
<g>
</g>
<g>
</g>
<g>
</g>
<g>
</g>
<g>
</g>
<g>
</g>
<g>
</g>
<g>
</g>
</svg>
