<?xml version="1.0" encoding="iso-8859-1"?>
<!-- Generator: Adobe Illustrator 19.0.0, SVG Export Plug-In . SVG Version: 6.00 Build 0)  -->
<svg version="1.1" id="Layer_1" xmlns="http://www.w3.org/2000/svg" xmlns:xlink="http://www.w3.org/1999/xlink" x="0px" y="0px"
	 viewBox="0 0 496 496" style="enable-background:new 0 0 496 496;" xml:space="preserve">
<path style="fill:#0EE0B8;" d="M404,0H92C78.4,0,64,12.8,64,26.4v320L222.4,496H404c13.6,0,28-12.8,28-26.4V26.4
	C432,12.8,417.6,0,404,0z"/>
<path style="fill:#1080DD;" d="M404,0H92C78.4,0,64,12.8,64,26.4v320L222.4,496H404c13.6,0,28-12.8,28-26.4V26.4
	C432,12.8,417.6,0,404,0z"/>
<path style="fill:#0070CC;" d="M432,384V26.4C432,12.8,417.6,0,404,0H92C78.4,0,66.4,11.2,66.4,24"/>
<path style="fill:#0667B7;" d="M432,384V26.4C432,12.8,417.6,0,404,0H208"/>
<path style="fill:#0070CC;" d="M200,352v119.2c0,1.6,1.6,3.2,1.6,4.8l19.2,18.4c1.6,0,3.2,1.6,4.8,1.6h125.6l-148-144H200z"/>
<path style="fill:#0667B7;" d="M200,351.2v120c0,1.6,1.6,3.2,1.6,4.8l19.2,18.4c1.6,0,3.2,1.6,4.8,1.6h64l-72.8-120.8L200,351.2z"/>
<path style="fill:#FFFFFF;" d="M222.4,496h1.6V370.4c0-13.6-12-26.4-25.6-26.4L64,345.6L222.4,496z"/>
<polyline style="fill:#D2F3FF;" points="64,345.6 222.4,496 224,496 224,368 "/>
<path style="fill:#3DB8FC;" d="M80,345.6L80,345.6V26.4C80,12.8,89.6,0,102.4,0H92C78.4,0,64,12.8,64,26.4v320L80,345.6L80,345.6z"
	/>
<g>
	<path style="fill:#0667B7;" d="M332.8,168l5.6-5.6c4.8-4.8,4.8-12,0-16c-4.8-4.8-12-4.8-16,0l-5.6,5.6L332.8,168z"/>
	
		<rect x="179.048" y="212.557" transform="matrix(0.7071 -0.7071 0.7071 0.7071 -82.161 249.9594)" style="fill:#0667B7;" width="163.198" height="23.2"/>
	<polygon style="fill:#0667B7;" points="184.8,286.4 177.6,307.2 198.4,300 	"/>
</g>
<g>
	<path style="fill:#FFFFFF;" d="M320.8,156l5.6-5.6c4.8-4.8,4.8-12,0-16s-12-4.8-16,0l-5.6,5.6L320.8,156z"/>
	
		<rect x="166.658" y="200.381" transform="matrix(0.7071 -0.7071 0.7071 0.7071 -77.1801 237.6323)" style="fill:#FFFFFF;" width="163.198" height="23.2"/>
	<polygon style="fill:#FFFFFF;" points="172,273.6 165.6,294.4 186.4,288 	"/>
</g>
<g>
</g>
<g>
</g>
<g>
</g>
<g>
</g>
<g>
</g>
<g>
</g>
<g>
</g>
<g>
</g>
<g>
</g>
<g>
</g>
<g>
</g>
<g>
</g>
<g>
</g>
<g>
</g>
<g>
</g>
</svg>
