<?xml version="1.0" encoding="iso-8859-1"?>
<!-- Generator: Adobe Illustrator 19.0.0, SVG Export Plug-In . SVG Version: 6.00 Build 0)  -->
<svg version="1.1" id="Layer_1" xmlns="http://www.w3.org/2000/svg" xmlns:xlink="http://www.w3.org/1999/xlink" x="0px" y="0px"
	 viewBox="0 0 496 496" style="enable-background:new 0 0 496 496;" xml:space="preserve">
<path style="fill:#0EE0B8;" d="M404,0H92C78.4,0,64,12.8,64,26.4v320L222.4,496H404c13.6,0,28-12.8,28-26.4V26.4
	C432,12.8,417.6,0,404,0z"/>
<path style="fill:#A55AE0;" d="M404,0H92C78.4,0,64,12.8,64,26.4v320L222.4,496H404c13.6,0,28-12.8,28-26.4V26.4
	C432,12.8,417.6,0,404,0z"/>
<path style="fill:#964FDB;" d="M432,384V26.4C432,12.8,417.6,0,404,0H92C78.4,0,66.4,11.2,66.4,24"/>
<path style="fill:#8543D1;" d="M432,384V26.4C432,12.8,417.6,0,404,0H208"/>
<path style="fill:#964FDB;" d="M200,352v119.2c0,1.6,1.6,3.2,1.6,4.8l19.2,18.4c1.6,0,3.2,1.6,4.8,1.6h125.6l-148-144H200z"/>
<path style="fill:#8543D1;" d="M200,351.2v120c0,1.6,1.6,3.2,1.6,4.8l19.2,18.4c1.6,0,3.2,1.6,4.8,1.6h64l-72.8-120.8L200,351.2z"/>
<path style="fill:#FFFFFF;" d="M222.4,496h1.6V370.4c0-13.6-12-26.4-25.6-26.4L64,345.6L222.4,496z"/>
<polyline style="fill:#ECE4F9;" points="64,345.6 222.4,496 224,496 224,368 "/>
<path style="fill:#C588FF;" d="M80,345.6L80,345.6V26.4C80,12.8,89.6,0,102.4,0H92C78.4,0,64,12.8,64,26.4v320L80,345.6L80,345.6z"
	/>
<g>
	<path style="fill:#8543D1;" d="M210.4,296c-4.8,4.8-4.8,12,0,16c4.8,4.8,12,4.8,16,0c16-16,42.4-16,58.4,0c2.4,2.4,5.6,3.2,8,3.2
		c3.2,0,5.6-0.8,8-3.2c4.8-4.8,4.8-12,0-16C276,271.2,235.2,271.2,210.4,296z"/>
	<path style="fill:#8543D1;" d="M256,223.2c-32.8,0-64,12.8-87.2,36c-4.8,4.8-4.8,12,0,16c4.8,4.8,12,4.8,16,0
		c19.2-19.2,44-29.6,71.2-29.6s52,10.4,71.2,29.6c2.4,2.4,5.6,3.2,8,3.2s5.6-0.8,8-3.2c4.8-4.8,4.8-12,0-16
		C320,236,288.8,223.2,256,223.2z"/>
	<path style="fill:#8543D1;" d="M386.4,224.8c-35.2-35.2-81.6-54.4-130.4-54.4c-49.6,0-96,19.2-130.4,54.4c-4.8,4.8-4.8,12,0,16
		c4.8,4.8,12,4.8,16,0c30.4-30.4,71.2-47.2,114.4-47.2s84,16.8,114.4,47.2c2.4,2.4,5.6,3.2,8,3.2s5.6-0.8,8-3.2
		C390.4,236.8,390.4,229.6,386.4,224.8z"/>
</g>
<g>
	<path style="fill:#FFFFFF;" d="M202.4,276.8c-4.8,4.8-4.8,12,0,16c4.8,4.8,12,4.8,16,0c16-16,42.4-16,58.4,0c2.4,2.4,5.6,3.2,8,3.2
		c3.2,0,5.6-0.8,8-3.2c4.8-4.8,4.8-12,0-16C268.8,252,227.2,252,202.4,276.8z"/>
	<path style="fill:#FFFFFF;" d="M248,204c-32.8,0-64,12.8-87.2,36c-4.8,4.8-4.8,12,0,16c4.8,4.8,12,4.8,16,0
		c19.2-19.2,44-29.6,71.2-29.6s52,10.4,71.2,29.6c2.4,2.4,5.6,3.2,8,3.2c3.2,0,5.6-0.8,8-3.2c4.8-4.8,4.8-12,0-16
		C312,216.8,280.8,204,248,204z"/>
	<path style="fill:#FFFFFF;" d="M378.4,205.6C344,171.2,297.6,152,248,152s-96,19.2-130.4,54.4c-4.8,4.8-4.8,12,0,16
		c4.8,4.8,12,4.8,16,0C164,192,204.8,175.2,248,175.2s84,16.8,114.4,47.2c2.4,2.4,5.6,3.2,8,3.2c3.2,0,5.6-0.8,8-3.2
		C383.2,217.6,383.2,210.4,378.4,205.6z"/>
</g>
<g>
</g>
<g>
</g>
<g>
</g>
<g>
</g>
<g>
</g>
<g>
</g>
<g>
</g>
<g>
</g>
<g>
</g>
<g>
</g>
<g>
</g>
<g>
</g>
<g>
</g>
<g>
</g>
<g>
</g>
</svg>
