<?xml version="1.0" encoding="iso-8859-1"?>
<!-- Generator: Adobe Illustrator 19.0.0, SVG Export Plug-In . SVG Version: 6.00 Build 0)  -->
<svg version="1.1" id="Layer_1" xmlns="http://www.w3.org/2000/svg" xmlns:xlink="http://www.w3.org/1999/xlink" x="0px" y="0px"
	 viewBox="0 0 496 496" style="enable-background:new 0 0 496 496;" xml:space="preserve">
<path style="fill:#0EE0B8;" d="M404,0H92C78.4,0,64,12.8,64,26.4v320L222.4,496H404c13.6,0,28-12.8,28-26.4V26.4
	C432,12.8,417.6,0,404,0z"/>
<path style="fill:#F73974;" d="M404,0H92C78.4,0,64,12.8,64,26.4v320L222.4,496H404c13.6,0,28-12.8,28-26.4V26.4
	C432,12.8,417.6,0,404,0z"/>
<path style="fill:#ED266E;" d="M432,384V26.4C432,12.8,417.6,0,404,0H92C78.4,0,66.4,11.2,66.4,24"/>
<path style="fill:#DD0772;" d="M432,384V26.4C432,12.8,417.6,0,404,0H208"/>
<path style="fill:#ED266E;" d="M200,352v119.2c0,1.6,1.6,3.2,1.6,4.8l19.2,18.4c1.6,0,3.2,1.6,4.8,1.6h125.6l-148-144H200z"/>
<path style="fill:#DD0772;" d="M200,351.2v120c0,1.6,1.6,3.2,1.6,4.8l19.2,18.4c1.6,0,3.2,1.6,4.8,1.6h64l-72.8-120.8L200,351.2z"/>
<path style="fill:#FFFFFF;" d="M222.4,496h1.6V370.4c0-13.6-12-26.4-25.6-26.4L64,345.6L222.4,496z"/>
<polyline style="fill:#FFE9F5;" points="64,345.6 222.4,496 224,496 224,368 "/>
<path style="fill:#FF97C1;" d="M80,345.6L80,345.6V26.4C80,12.8,89.6,0,102.4,0H92C78.4,0,64,12.8,64,26.4v320L80,345.6L80,345.6z"
	/>
<path style="fill:#DD0772;" d="M290.4,160.8c-12,0-23.2,5.6-33.6,15.2c-10.4-10.4-21.6-15.2-33.6-15.2c-32.8,0-59.2,24.8-60,56
	c-0.8,39.2,22.4,74.4,44.8,93.6c15.2,13.6,32,21.6,44.8,21.6c0.8,0,2.4,0,3.2,0c0.8,0,2.4,0,3.2,0c12.8,0,29.6-8,44.8-21.6
	c22.4-20,45.6-54.4,44.8-93.6C349.6,185.6,323.2,160.8,290.4,160.8z"/>
<path style="fill:#FFFFFF;" d="M281.6,139.2c-12,0-23.2,5.6-33.6,15.2c-10.4-10.4-21.6-15.2-33.6-15.2c-32.8,0-59.2,24.8-60,56
	c-0.8,39.2,22.4,74.4,44.8,93.6c15.2,13.6,32,21.6,44.8,21.6c0.8,0,2.4,0,3.2,0s2.4,0,3.2,0c12.8,0,29.6-8,44.8-21.6
	c22.4-20,45.6-54.4,44.8-93.6C340.8,164,314.4,139.2,281.6,139.2z"/>
<g>
</g>
<g>
</g>
<g>
</g>
<g>
</g>
<g>
</g>
<g>
</g>
<g>
</g>
<g>
</g>
<g>
</g>
<g>
</g>
<g>
</g>
<g>
</g>
<g>
</g>
<g>
</g>
<g>
</g>
</svg>
