<?xml version="1.0" encoding="iso-8859-1"?>
<!-- Generator: Adobe Illustrator 19.0.0, SVG Export Plug-In . SVG Version: 6.00 Build 0)  -->
<svg version="1.1" id="Layer_1" xmlns="http://www.w3.org/2000/svg" xmlns:xlink="http://www.w3.org/1999/xlink" x="0px" y="0px"
	 viewBox="0 0 496 496" style="enable-background:new 0 0 496 496;" xml:space="preserve">
<path style="fill:#0EE0B8;" d="M404,0H92C78.4,0,64,12.8,64,26.4v320L222.4,496H404c13.6,0,28-12.8,28-26.4V26.4
	C432,12.8,417.6,0,404,0z"/>
<path style="fill:#A3ED54;" d="M404,0H92C78.4,0,64,12.8,64,26.4v320L222.4,496H404c13.6,0,28-12.8,28-26.4V26.4
	C432,12.8,417.6,0,404,0z"/>
<path style="fill:#94E239;" d="M432,384V26.4C432,12.8,417.6,0,404,0H92C78.4,0,66.4,11.2,66.4,24"/>
<path style="fill:#8DD819;" d="M432,384V26.4C432,12.8,417.6,0,404,0H208"/>
<path style="fill:#94E239;" d="M200,352v119.2c0,1.6,1.6,3.2,1.6,4.8l19.2,18.4c1.6,0,3.2,1.6,4.8,1.6h125.6l-148-144H200z"/>
<path style="fill:#8DD819;" d="M200,351.2v120c0,1.6,1.6,3.2,1.6,4.8l19.2,18.4c1.6,0,3.2,1.6,4.8,1.6h64l-72.8-120.8L200,351.2z"/>
<path style="fill:#FFFFFF;" d="M222.4,496h1.6V370.4c0-13.6-12-26.4-25.6-26.4L64,345.6L222.4,496z"/>
<polyline style="fill:#EEFCDE;" points="64,345.6 222.4,496 224,496 224,368 "/>
<path style="fill:#C9FC8D;" d="M80,345.6L80,345.6V27.2C80,12.8,89.6,0,102.4,0H92C78.4,0,64,12.8,64,26.4v320L80,345.6L80,345.6z"
	/>
<path style="fill:#8DD819;" d="M119.2,304.8c-3.2,0-5.6-0.8-8-3.2c-4.8-4.8-4.8-12,0-16l56-56c4.8-4.8,12-4.8,16,0l25.6,25.6
	L264,200c4.8-4.8,12-4.8,16,0l20.8,20.8l72-72c4.8-4.8,12-4.8,16,0c4.8,4.8,4.8,12,0,16l-80,80c-4.8,4.8-12,4.8-16,0L272,224
	l-55.2,55.2c-4.8,4.8-12,4.8-16,0l-25.6-25.6L128,300.8C124.8,304,122.4,304.8,119.2,304.8z"/>
<path style="fill:#FFFFFF;" d="M117.6,276c-3.2,0-5.6-0.8-8-3.2c-4.8-4.8-4.8-12,0-16l56-56c4.8-4.8,12-4.8,16,0l25.6,25.6
	l55.2-55.2c4.8-4.8,12-4.8,16,0l20.8,20.8l72-72c4.8-4.8,12-4.8,16,0c4.8,4.8,4.8,12,0,16l-80,80c-4.8,4.8-12,4.8-16,0l-20.8-20.8
	l-55.2,55.2c-4.8,4.8-12,4.8-16,0l-25.6-25.6L126.4,272C123.2,275.2,120,276,117.6,276z"/>
<g>
</g>
<g>
</g>
<g>
</g>
<g>
</g>
<g>
</g>
<g>
</g>
<g>
</g>
<g>
</g>
<g>
</g>
<g>
</g>
<g>
</g>
<g>
</g>
<g>
</g>
<g>
</g>
<g>
</g>
</svg>
