<?xml version="1.0" encoding="iso-8859-1"?>
<!-- Generator: Adobe Illustrator 19.0.0, SVG Export Plug-In . SVG Version: 6.00 Build 0)  -->
<svg version="1.1" id="Layer_1" xmlns="http://www.w3.org/2000/svg" xmlns:xlink="http://www.w3.org/1999/xlink" x="0px" y="0px"
	 viewBox="0 0 492 492" style="enable-background:new 0 0 492 492;" xml:space="preserve">
<path style="fill:#0EE0B8;" d="M402,0H90C76.4,0,66,10.4,66,24v320l154.4,148H402c13.6,0,24-10.4,24-24V24C426,10.4,415.6,0,402,0z"
	/>
<path style="fill:#00ADDB;" d="M402,0H90C76.4,0,66,10.4,66,24v320l154.4,148H402c13.6,0,24-10.4,24-24V24C426,10.4,415.6,0,402,0z"
	/>
<path style="fill:#009CCC;" d="M426,383.2V24c0-13.6-10.4-24-24-24H90C76.4,0,66,10.4,66,24"/>
<path style="fill:#0491BC;" d="M426,383.2V24c0-13.6-10.4-24-24-24H205.2"/>
<path style="fill:#009CCC;" d="M200.4,348.8v120c0,1.6,0,3.2,0.8,4.8l18.4,17.6c1.6,0,2.4,0.8,4,0.8h125.6L200.4,348.8L200.4,348.8z
	"/>
<path style="fill:#0491BC;" d="M200.4,348.8v120c0,1.6,0,3.2,0.8,4.8l18.4,17.6c1.6,0,2.4,0.8,4,0.8h64l-72-120L200.4,348.8z"/>
<path style="fill:#FFFFFF;" d="M220.4,491.2L220.4,491.2v-124c0-13.6-10.4-24-24-24H66L220.4,491.2z"/>
<polyline style="fill:#D2F3FF;" points="66,344 220.4,491.2 220.4,491.2 220.4,368 "/>
<path style="fill:#40DBFF;" d="M77.2,344L77.2,344V24c0-13.6,10.4-24,24-24H90.8c-13.6,0-24,10.4-24,24v320l0,0H77.2z"/>
<path id="SVGCleanerId_0" style="fill:#FFFFFF;" d="M317.2,193.6h-8.8c-1.6-4.8-3.2-9.6-5.6-14.4l5.6-5.6c7.2-7.2,7.2-18.4,0-24.8
	c-7.2-7.2-18.4-7.2-24.8,0l-5.6,5.6c-4.8-2.4-9.6-4.8-14.4-5.6V140c0-9.6-8-17.6-17.6-17.6s-17.6,8-17.6,17.6v8.8
	c-4.8,1.6-9.6,3.2-14.4,5.6l-5.6-5.6c-7.2-7.2-18.4-7.2-24.8,0c-7.2,7.2-7.2,18.4,0,24.8l5.6,5.6c-2.4,4.8-4.8,9.6-5.6,14.4h-8.8
	c-9.6,0-17.6,8-17.6,17.6s8,17.6,17.6,17.6h8.8c1.6,4.8,3.2,9.6,5.6,14.4l-5.6,5.6c-7.2,7.2-7.2,18.4,0,24.8c3.2,3.2,8,4.8,12.8,4.8
	s8.8-1.6,12.8-4.8l5.6-5.6c4.8,2.4,9.6,4.8,14.4,5.6v8.8c0,9.6,8,17.6,17.6,17.6c9.6,0,17.6-8,17.6-17.6v-8.8
	c4.8-1.6,9.6-3.2,14.4-5.6l5.6,5.6c3.2,3.2,8,4.8,12.8,4.8s8.8-1.6,12.8-4.8c7.2-7.2,7.2-18.4,0-24.8l-5.6-5.6
	c2.4-4.8,4.8-9.6,5.6-14.4h8.8c9.6,0,17.6-8,17.6-17.6S326.8,193.6,317.2,193.6z M276.4,211.2c0,16.8-13.6,30.4-30.4,30.4
	s-30.4-13.6-30.4-30.4s13.6-29.6,30.4-29.6S276.4,194.4,276.4,211.2z"/>
<path style="fill:#0491BC;" d="M322,208.8h-8.8c-1.6-4.8-3.2-9.6-5.6-14.4l5.6-5.6c7.2-7.2,7.2-18.4,0-24.8
	c-7.2-7.2-18.4-7.2-24.8,0l-5.6,5.6c-4.8-2.4-9.6-4.8-14.4-5.6v-8.8c0-9.6-8-17.6-17.6-17.6s-17.6,8-17.6,17.6v8.8
	c-4.8,1.6-9.6,3.2-14.4,5.6l-5.6-5.6c-7.2-7.2-18.4-7.2-24.8,0c-7.2,7.2-7.2,18.4,0,24.8l5.6,5.6c-2.4,4.8-4.8,9.6-5.6,14.4h-8.8
	c-9.6,0-17.6,8-17.6,17.6s8,17.6,17.6,17.6h8.8c1.6,4.8,3.2,9.6,5.6,14.4l-5.6,5.6c-7.2,7.2-7.2,18.4,0,24.8c3.2,3.2,8,4.8,12.8,4.8
	s8.8-1.6,12.8-4.8l5.6-5.6c4.8,2.4,9.6,4.8,14.4,5.6v8.8c0,9.6,8,17.6,17.6,17.6c9.6,0,17.6-8,17.6-17.6v-8.8
	c4.8-1.6,9.6-3.2,14.4-5.6l5.6,5.6c3.2,3.2,8,4.8,12.8,4.8s8.8-1.6,12.8-4.8c7.2-7.2,7.2-18.4,0-24.8l-5.6-5.6
	c2.4-4.8,4.8-9.6,5.6-14.4h8.8c9.6,0,17.6-8,17.6-17.6C340.4,216.8,332.4,208.8,322,208.8z M281.2,226.4c0,16.8-13.6,30.4-30.4,30.4
	s-30.4-13.6-30.4-30.4S234,196,250.8,196S281.2,210.4,281.2,226.4z"/>
<g>
	<path id="SVGCleanerId_0_1_" style="fill:#FFFFFF;" d="M317.2,193.6h-8.8c-1.6-4.8-3.2-9.6-5.6-14.4l5.6-5.6
		c7.2-7.2,7.2-18.4,0-24.8c-7.2-7.2-18.4-7.2-24.8,0l-5.6,5.6c-4.8-2.4-9.6-4.8-14.4-5.6V140c0-9.6-8-17.6-17.6-17.6
		s-17.6,8-17.6,17.6v8.8c-4.8,1.6-9.6,3.2-14.4,5.6l-5.6-5.6c-7.2-7.2-18.4-7.2-24.8,0c-7.2,7.2-7.2,18.4,0,24.8l5.6,5.6
		c-2.4,4.8-4.8,9.6-5.6,14.4h-8.8c-9.6,0-17.6,8-17.6,17.6s8,17.6,17.6,17.6h8.8c1.6,4.8,3.2,9.6,5.6,14.4l-5.6,5.6
		c-7.2,7.2-7.2,18.4,0,24.8c3.2,3.2,8,4.8,12.8,4.8s8.8-1.6,12.8-4.8l5.6-5.6c4.8,2.4,9.6,4.8,14.4,5.6v8.8c0,9.6,8,17.6,17.6,17.6
		c9.6,0,17.6-8,17.6-17.6v-8.8c4.8-1.6,9.6-3.2,14.4-5.6l5.6,5.6c3.2,3.2,8,4.8,12.8,4.8s8.8-1.6,12.8-4.8c7.2-7.2,7.2-18.4,0-24.8
		l-5.6-5.6c2.4-4.8,4.8-9.6,5.6-14.4h8.8c9.6,0,17.6-8,17.6-17.6S326.8,193.6,317.2,193.6z M276.4,211.2c0,16.8-13.6,30.4-30.4,30.4
		s-30.4-13.6-30.4-30.4s13.6-29.6,30.4-29.6S276.4,194.4,276.4,211.2z"/>
</g>
<g>
</g>
<g>
</g>
<g>
</g>
<g>
</g>
<g>
</g>
<g>
</g>
<g>
</g>
<g>
</g>
<g>
</g>
<g>
</g>
<g>
</g>
<g>
</g>
<g>
</g>
<g>
</g>
<g>
</g>
</svg>
