<?xml version="1.0" encoding="iso-8859-1"?>
<!-- Generator: Adobe Illustrator 19.0.0, SVG Export Plug-In . SVG Version: 6.00 Build 0)  -->
<svg version="1.1" id="Layer_1" xmlns="http://www.w3.org/2000/svg" xmlns:xlink="http://www.w3.org/1999/xlink" x="0px" y="0px"
	 viewBox="0 0 492 492" style="enable-background:new 0 0 492 492;" xml:space="preserve">
<path style="fill:#0EE0B8;" d="M402,0H90C76.4,0,66,10.4,66,24v320l154.4,148H402c13.6,0,24-10.4,24-24V24C426,10.4,415.6,0,402,0z"
	/>
<path style="fill:#FF7900;" d="M402,0H90C76.4,0,66,10.4,66,24v320l154.4,148H402c13.6,0,24-10.4,24-24V24C426,10.4,415.6,0,402,0z"
	/>
<path style="fill:#FF6700;" d="M426,383.2V24c0-13.6-10.4-24-24-24H90C76.4,0,66,10.4,66,24"/>
<path style="fill:#FF4E00;" d="M426,383.2V24c0-13.6-10.4-24-24-24H205.2"/>
<path style="fill:#FF6700;" d="M200.4,348.8v120c0,1.6,0,3.2,0.8,4.8l18.4,17.6c1.6,0,2.4,0.8,4,0.8h125.6L200.4,348.8L200.4,348.8z
	"/>
<path style="fill:#FF4E00;" d="M200.4,348.8v120c0,1.6,0,3.2,0.8,4.8l18.4,17.6c1.6,0,2.4,0.8,4,0.8h64l-72-120L200.4,348.8z"/>
<path style="fill:#FFFFFF;" d="M220.4,491.2L220.4,491.2v-124c0-13.6-10.4-24-24-24H66L220.4,491.2z"/>
<polyline style="fill:#FFEDCF;" points="66,344 220.4,491.2 220.4,491.2 220.4,368 "/>
<path style="fill:#FCC054;" d="M77.2,344L77.2,344V24c0-13.6,10.4-24,24-24H90.8c-13.6,0-24,10.4-24,24v320l0,0H77.2z"/>
<g>
	<path style="fill:#FF4E00;" d="M171.6,166.4H198c16,0,29.6-12.8,29.6-29.6v-25.6c0-16-12.8-29.6-29.6-29.6h-25.6
		c-16,0-29.6,12.8-29.6,29.6v25.6C142.8,152.8,155.6,166.4,171.6,166.4z"/>
	<path style="fill:#FF4E00;" d="M274.8,104.8h97.6c6.4,0,11.2-4.8,11.2-11.2c0-6.4-4.8-11.2-11.2-11.2h-97.6
		c-6.4,0-11.2,4.8-11.2,11.2C262.8,99.2,268.4,104.8,274.8,104.8z"/>
	<path style="fill:#FF4E00;" d="M371.6,143.2h-96.8c-6.4,0-11.2,4.8-11.2,11.2s4.8,11.2,11.2,11.2h97.6c6.4,0,11.2-4.8,11.2-11.2
		C383.6,148,378,143.2,371.6,143.2z"/>
	<path style="fill:#FF4E00;" d="M371.6,204.8H146.8c-6.4,0-11.2,4.8-11.2,11.2s4.8,11.2,11.2,11.2h225.6c6.4,0,11.2-4.8,11.2-11.2
		C383.6,209.6,378,204.8,371.6,204.8z"/>
	<path style="fill:#FF4E00;" d="M371.6,266.4H146.8c-6.4,0-11.2,4.8-11.2,11.2s4.8,11.2,11.2,11.2h225.6c6.4,0,11.2-4.8,11.2-11.2
		S378,266.4,371.6,266.4z"/>
	<path style="fill:#FF4E00;" d="M371.6,327.2h-96.8c-6.4,0-11.2,4.8-11.2,11.2s4.8,11.2,11.2,11.2h97.6c6.4,0,11.2-4.8,11.2-11.2
		S378,327.2,371.6,327.2z"/>
</g>
<g>
	<path style="fill:#FFFFFF;" d="M164.4,154.4H190c16,0,29.6-12.8,29.6-29.6V99.2c0-16-12.8-29.6-29.6-29.6h-25.6
		c-16,0-29.6,12.8-29.6,29.6v26.4C134.8,141.6,148.4,154.4,164.4,154.4z"/>
	<path style="fill:#FFFFFF;" d="M266.8,92.8h97.6c6.4,0,11.2-4.8,11.2-11.2c0-6.4-4.8-11.2-11.2-11.2h-97.6
		c-6.4,0-11.2,4.8-11.2,11.2C255.6,88,260.4,92.8,266.8,92.8z"/>
	<path style="fill:#FFFFFF;" d="M364.4,131.2h-97.6c-6.4,0-11.2,4.8-11.2,11.2s4.8,11.2,11.2,11.2h97.6c6.4,0,11.2-4.8,11.2-11.2
		S370.8,131.2,364.4,131.2z"/>
	<path style="fill:#FFFFFF;" d="M364.4,192.8H138.8c-6.4,0-11.2,4.8-11.2,11.2s4.8,11.2,11.2,11.2h225.6c6.4,0,11.2-4.8,11.2-11.2
		S370.8,192.8,364.4,192.8z"/>
	<path style="fill:#FFFFFF;" d="M364.4,254.4H138.8c-6.4,0-11.2,4.8-11.2,11.2c0,6.4,4.8,11.2,11.2,11.2h225.6
		c6.4,0,11.2-4.8,11.2-11.2C375.6,260,370.8,254.4,364.4,254.4z"/>
	<path style="fill:#FFFFFF;" d="M364.4,316h-97.6c-6.4,0-11.2,4.8-11.2,11.2c0,6.4,4.8,11.2,11.2,11.2h97.6
		c6.4,0,11.2-4.8,11.2-11.2C375.6,321.6,370.8,316,364.4,316z"/>
</g>
<g>
</g>
<g>
</g>
<g>
</g>
<g>
</g>
<g>
</g>
<g>
</g>
<g>
</g>
<g>
</g>
<g>
</g>
<g>
</g>
<g>
</g>
<g>
</g>
<g>
</g>
<g>
</g>
<g>
</g>
</svg>
