<?xml version="1.0" encoding="iso-8859-1"?>
<!-- Generator: Adobe Illustrator 19.0.0, SVG Export Plug-In . SVG Version: 6.00 Build 0)  -->
<svg version="1.1" id="Layer_1" xmlns="http://www.w3.org/2000/svg" xmlns:xlink="http://www.w3.org/1999/xlink" x="0px" y="0px"
	 viewBox="0 0 496 496" style="enable-background:new 0 0 496 496;" xml:space="preserve">
<path style="fill:#0EE0B8;" d="M404,0H92C78.4,0,64,12.8,64,26.4v320L222.4,496H404c13.6,0,28-12.8,28-26.4V26.4
	C432,12.8,417.6,0,404,0z"/>
<path style="fill:#FF1010;" d="M404,0H92C78.4,0,64,12.8,64,26.4v320L222.4,496H404c13.6,0,28-12.8,28-26.4V26.4
	C432,12.8,417.6,0,404,0z"/>
<path style="fill:#EA0606;" d="M432,384V26.4C432,12.8,417.6,0,404,0H92C78.4,0,66.4,11.2,66.4,24"/>
<path style="fill:#DD0707;" d="M432,384V26.4C432,12.8,417.6,0,404,0H208"/>
<path style="fill:#EA0606;" d="M200,352v119.2c0,1.6,1.6,3.2,1.6,4.8l19.2,18.4c1.6,0,3.2,1.6,4.8,1.6h125.6l-148-144H200z"/>
<path style="fill:#DD0707;" d="M200,351.2v120c0,1.6,1.6,3.2,1.6,4.8l19.2,18.4c1.6,0,3.2,1.6,4.8,1.6h64l-72.8-120.8L200,351.2z"/>
<path style="fill:#FFFFFF;" d="M222.4,496h1.6V370.4c0-13.6-12-26.4-25.6-26.4L64,345.6L222.4,496z"/>
<polyline style="fill:#F9DFD9;" points="64,345.6 222.4,496 224,496 224,368 "/>
<path style="fill:#FF9578;" d="M80,345.6L80,345.6V26.4C80,12.8,89.6,0,102.4,0H92C78.4,0,64,12.8,64,26.4v320L80,345.6L80,345.6z"
	/>
<path style="fill:#DD0707;" d="M316.8,327.2c-8.8,0-16.8,3.2-22.4,8.8l-80.8-80c4-5.6,7.2-12,7.2-20c0-7.2-2.4-14.4-7.2-20
	l80.8-80.8c5.6,5.6,13.6,8.8,22.4,8.8c18.4,0,32.8-14.4,32.8-32.8s-14.4-32.8-32.8-32.8S284,92.8,284,111.2c0,6.4,1.6,12.8,5.6,17.6
	l-80.8,81.6c-5.6-4.8-12.8-7.2-20-7.2c-18.4,0-32.8,14.4-32.8,32.8s14.4,32.8,32.8,32.8c8,0,14.4-3.2,20-7.2l80.8,80.8
	c-3.2,4.8-5.6,11.2-5.6,17.6c0,18.4,14.4,32.8,32.8,32.8s32.8-14.4,32.8-32.8S335.2,327.2,316.8,327.2z"/>
<path style="fill:#FFFFFF;" d="M306.4,316.8c-8.8,0-16.8,3.2-22.4,8.8l-80-80c4-5.6,7.2-12,7.2-20c0-7.2-2.4-14.4-7.2-20l80.8-80.8
	c5.6,5.6,13.6,8.8,22.4,8.8c18.4,0,32.8-14.4,32.8-32.8S325.6,68,307.2,68s-32.8,14.4-32.8,32.8c0,6.4,1.6,12.8,5.6,17.6L198.4,200
	c-5.6-4.8-12.8-7.2-20-7.2c-18.4,0-32.8,14.4-32.8,32.8s14.4,32.8,32.8,32.8c8,0,14.4-3.2,20-7.2l80.8,80.8
	c-3.2,4.8-5.6,11.2-5.6,17.6c0,18.4,14.4,32.8,32.8,32.8s32.8-14.4,32.8-32.8S324.8,316.8,306.4,316.8z"/>
<g>
</g>
<g>
</g>
<g>
</g>
<g>
</g>
<g>
</g>
<g>
</g>
<g>
</g>
<g>
</g>
<g>
</g>
<g>
</g>
<g>
</g>
<g>
</g>
<g>
</g>
<g>
</g>
<g>
</g>
</svg>
