<?xml version="1.0" encoding="iso-8859-1"?>
<!-- Generator: Adobe Illustrator 19.0.0, SVG Export Plug-In . SVG Version: 6.00 Build 0)  -->
<svg version="1.1" id="Layer_1" xmlns="http://www.w3.org/2000/svg" xmlns:xlink="http://www.w3.org/1999/xlink" x="0px" y="0px"
	 viewBox="0 0 496 496" style="enable-background:new 0 0 496 496;" xml:space="preserve">
<path style="fill:#0EE0B8;" d="M404,0H92C78.4,0,64,12.8,64,26.4v320L222.4,496H404c13.6,0,28-12.8,28-26.4V26.4
	C432,12.8,417.6,0,404,0z"/>
<path style="fill:#5AC117;" d="M404,0H92C78.4,0,64,12.8,64,26.4v320L222.4,496H404c13.6,0,28-12.8,28-26.4V26.4
	C432,12.8,417.6,0,404,0z"/>
<path style="fill:#4DB20D;" d="M432,384V26.4C432,12.8,417.6,0,404,0H92C78.4,0,66.4,11.2,66.4,24"/>
<path style="fill:#44A307;" d="M432,384V26.4C432,12.8,417.6,0,404,0H208"/>
<path style="fill:#4DB20D;" d="M200,352v119.2c0,1.6,1.6,3.2,1.6,4.8l19.2,18.4c1.6,0,3.2,1.6,4.8,1.6h125.6l-148-144H200z"/>
<path style="fill:#44A307;" d="M200,351.2v120c0,1.6,1.6,3.2,1.6,4.8l19.2,18.4c1.6,0,3.2,1.6,4.8,1.6h64l-72.8-120.8L200,351.2z"/>
<path style="fill:#FFFFFF;" d="M222.4,496h1.6V370.4c0-13.6-12-26.4-25.6-26.4L64,345.6L222.4,496z"/>
<polyline style="fill:#D4F4E2;" points="64,345.6 222.4,496 224,496 224,368 "/>
<path style="fill:#6DE51F;" d="M80,345.6L80,345.6V26.4C80,12.8,89.6,0,102.4,0H92C78.4,0,64,12.8,64,26.4v320L80,345.6L80,345.6z"
	/>
<g>
	<path style="fill:#44A307;" d="M328,228c-6.4,0-11.2-4.8-11.2-11.2c0-44-36-80-80-80c-6.4,0-11.2-4.8-11.2-11.2
		c0-6.4,4.8-11.2,11.2-11.2c56.8,0,103.2,46.4,103.2,103.2C339.2,222.4,334.4,228,328,228z"/>
	<path style="fill:#44A307;" d="M328,252.8c-3.2,0-5.6-1.6-8-3.2l-28.8-28.8c-4.8-4.8-4.8-12,0-16c4.8-4.8,12-4.8,16,0l20.8,20.8
		l20.8-20.8c4.8-4.8,12-4.8,16,0c4.8,4.8,4.8,12,0,16L336,249.6C333.6,252,330.4,252.8,328,252.8z"/>
	<path style="fill:#44A307;" d="M180.8,223.2c6.4,0,11.2,4.8,11.2,11.2c0,44,36,80,80,80c6.4,0,11.2,4.8,11.2,11.2
		s-4.8,11.2-11.2,11.2c-56.8,0-103.2-46.4-103.2-103.2C169.6,228,174.4,223.2,180.8,223.2z"/>
	<path style="fill:#44A307;" d="M180.8,198.4c3.2,0,5.6,1.6,8,3.2l28.8,28.8c4.8,4.8,4.8,12,0,16c-4.8,4.8-12,4.8-16,0l-20.8-20.8
		L160,246.4c-4.8,4.8-12,4.8-16,0c-4.8-4.8-4.8-12,0-16l28.8-28.8C175.2,199.2,178.4,198.4,180.8,198.4z"/>
</g>
<g>
	<path style="fill:#FFFFFF;" d="M321.6,212.8c-6.4,0-11.2-4.8-11.2-11.2c0-44-36-80-80-80c-6.4,0-11.2-4.8-11.2-11.2
		s4.8-11.2,11.2-11.2c56.8,0,103.2,46.4,103.2,103.2C332.8,207.2,328,212.8,321.6,212.8z"/>
	<path style="fill:#FFFFFF;" d="M321.6,237.6c-3.2,0-5.6-1.6-8-3.2l-28.8-28.8c-4.8-4.8-4.8-12,0-16c4.8-4.8,12-4.8,16,0l20.8,20.8
		l20.8-20.8c4.8-4.8,12-4.8,16,0c4.8,4.8,4.8,12,0,16l-28.8,28.8C327.2,236,324,237.6,321.6,237.6z"/>
	<path style="fill:#FFFFFF;" d="M174.4,208c6.4,0,11.2,4.8,11.2,11.2c0,44,36,80,80,80c6.4,0,11.2,4.8,11.2,11.2
		c0,6.4-4.8,11.2-11.2,11.2c-56.8,0-103.2-46.4-103.2-103.2C163.2,212.8,168,208,174.4,208z"/>
	<path style="fill:#FFFFFF;" d="M174.4,182.4c3.2,0,5.6,1.6,8,3.2l28.8,28.8c4.8,4.8,4.8,12,0,16c-4.8,4.8-12,4.8-16,0l-20.8-20.8
		l-20.8,20.8c-4.8,4.8-12,4.8-16,0c-4.8-4.8-4.8-12,0-16l28.8-28.8C168.8,184,172,182.4,174.4,182.4z"/>
</g>
<g>
</g>
<g>
</g>
<g>
</g>
<g>
</g>
<g>
</g>
<g>
</g>
<g>
</g>
<g>
</g>
<g>
</g>
<g>
</g>
<g>
</g>
<g>
</g>
<g>
</g>
<g>
</g>
<g>
</g>
</svg>
