<?xml version="1.0" encoding="iso-8859-1"?>
<!-- Generator: Adobe Illustrator 19.0.0, SVG Export Plug-In . SVG Version: 6.00 Build 0)  -->
<svg version="1.1" id="Layer_1" xmlns="http://www.w3.org/2000/svg" xmlns:xlink="http://www.w3.org/1999/xlink" x="0px" y="0px"
	 viewBox="0 0 496 496" style="enable-background:new 0 0 496 496;" xml:space="preserve">
<path style="fill:#0EE0B8;" d="M404,0H92C78.4,0,64,12.8,64,26.4v320L222.4,496H404c13.6,0,28-12.8,28-26.4V26.4
	C432,12.8,417.6,0,404,0z"/>
<path style="fill:#757575;" d="M404,0H92C78.4,0,64,12.8,64,26.4v320L222.4,496H404c13.6,0,28-12.8,28-26.4V26.4
	C432,12.8,417.6,0,404,0z"/>
<path style="fill:#636666;" d="M432,384V26.4C432,12.8,417.6,0,404,0H92C78.4,0,66.4,11.2,66.4,24"/>
<path style="fill:#595B5B;" d="M432,384V26.4C432,12.8,417.6,0,404,0H208"/>
<path style="fill:#636666;" d="M200,352v119.2c0,1.6,1.6,3.2,1.6,4.8l19.2,18.4c1.6,0,3.2,1.6,4.8,1.6h125.6l-148-144H200z"/>
<path style="fill:#595B5B;" d="M200,351.2v120c0,1.6,1.6,3.2,1.6,4.8l19.2,18.4c1.6,0,3.2,1.6,4.8,1.6h64l-72.8-120.8L200,351.2z"/>
<path style="fill:#FFFFFF;" d="M222.4,496h1.6V370.4c0-13.6-12-26.4-25.6-26.4L64,345.6L222.4,496z"/>
<polyline style="fill:#EFEEED;" points="64,345.6 222.4,496 224,496 224,368 "/>
<path style="fill:#9E9E9E;" d="M80,345.6L80,345.6V26.4C80,12.8,89.6,0,102.4,0H92C78.4,0,64,12.8,64,26.4v320L80,345.6L80,345.6z"
	/>
<g>
	<path style="fill:#595B5B;" d="M384.8,200.8L284,100c-4.8-4.8-12-4.8-16,0c-4.8,4.8-4.8,12,0,16l100.8,100.8c2.4,2.4,5.6,3.2,8,3.2
		c3.2,0,5.6-0.8,8-3.2C389.6,212.8,389.6,205.6,384.8,200.8z"/>
	<path style="fill:#595B5B;" d="M272,163.2c-3.2-3.2-8.8-4-13.6-2.4l-63.2,32c-2.4,1.6-4.8,4-5.6,6.4l-44.8,125.6
		c-0.8,1.6-0.8,3.2-0.8,4.8l72-72c-0.8-2.4-1.6-4.8-1.6-8c0-11.2,8.8-20,20-20s20,8.8,20,20c0,11.2-8.8,20-20,20
		c-2.4,0-5.6-0.8-8-1.6l-72,72c0,0,0,0,0.8,0c1.6,0,2.4,0,4-0.8l125.6-44.8c2.4-0.8,4.8-3.2,6.4-5.6l32-63.2
		c2.4-4.8,1.6-9.6-2.4-13.6L272,163.2z"/>
</g>
<g>
	<path style="fill:#FFFFFF;" d="M366.4,182.4L265.6,81.6c-4.8-4.8-12-4.8-16,0s-4.8,12,0,16l100.8,100.8c2.4,2.4,5.6,3.2,8,3.2
		c3.2,0,5.6-0.8,8-3.2C371.2,194.4,371.2,187.2,366.4,182.4z"/>
	<path style="fill:#FFFFFF;" d="M253.6,144.8c-3.2-3.2-8.8-4-13.6-2.4l-63.2,32c-2.4,1.6-4.8,4-5.6,6.4l-44.8,125.6
		c-0.8,1.6-0.8,3.2-0.8,4.8l72-72c-0.8-2.4-1.6-4.8-1.6-8c0-11.2,8.8-20,20-20s20,8.8,20,20s-8.8,20-20,20c-2.4,0-5.6-0.8-8-1.6
		l-72,72c0,0,0,0,0.8,0c1.6,0,2.4,0,4-0.8L266.4,276c2.4-0.8,4.8-3.2,6.4-5.6l32-63.2c2.4-4.8,1.6-9.6-2.4-13.6L253.6,144.8z"/>
</g>
<g>
</g>
<g>
</g>
<g>
</g>
<g>
</g>
<g>
</g>
<g>
</g>
<g>
</g>
<g>
</g>
<g>
</g>
<g>
</g>
<g>
</g>
<g>
</g>
<g>
</g>
<g>
</g>
<g>
</g>
</svg>
