<?xml version="1.0" encoding="iso-8859-1"?>
<!-- Generator: Adobe Illustrator 19.0.0, SVG Export Plug-In . SVG Version: 6.00 Build 0)  -->
<svg version="1.1" id="Layer_1" xmlns="http://www.w3.org/2000/svg" xmlns:xlink="http://www.w3.org/1999/xlink" x="0px" y="0px"
	 viewBox="0 0 497.6 497.6" style="enable-background:new 0 0 497.6 497.6;" xml:space="preserve">
<path style="fill:#E8EFEE;" d="M51.8,448c-5.6,0-5.6-7.2-5.6-12V23.2c0-4.8,0-7.2,5.6-7.2h344.8c4.8,0,9.6,2.4,9.6,7.2V436
	c0,4.8-4.8,12-9.6,12H51.8z"/>
<path style="fill:#9AA5A4;" d="M390.2,32v400h-328V32H390.2 M396.6,0H51.8C37.4,0,30.2,9.6,30.2,23.2V436c0,13.6,7.2,28,21.6,28
	h344.8c13.6,0,25.6-14.4,25.6-28V23.2C422.2,9.6,410.2,0,396.6,0L396.6,0z"/>
<path style="fill:#FFFFFF;" d="M396.6,16H51.8c-5.6,0-5.6,2.4-5.6,7.2V436c0,3.2,0,5.6,1.6,7.2l356-425.6C401.4,16,399,16,396.6,16z
	"/>
<path style="fill:#B3BCBB;" d="M414.2,5.6C409.4,1.6,403,0,396.6,0H51.8C37.4,0,30.2,9.6,30.2,23.2V436c0,8,1.6,13.6,5.6,20
	l26.4-26.4V32h328v3.2L414.2,5.6z"/>
<g>
	<path style="fill:#E8EFEE;" d="M133.4,120h188.8c6.4,0,12-5.6,12-12s-5.6-12-12-12H133.4c-6.4,0-12,5.6-12,12S127,120,133.4,120z"
		/>
	<path style="fill:#E8EFEE;" d="M133.4,184h108.8c6.4,0,12-5.6,12-12s-4.8-12-11.2-12H133.4c-6.4,0-12,5.6-12,12S127,184,133.4,184z
		"/>
	<path style="fill:#E8EFEE;" d="M322.2,224H133.4c-6.4,0-12,9.6-12,16s5.6,16,12,16h188.8c6.4,0,12-9.6,12-16S329.4,224,322.2,224z"
		/>
	<path style="fill:#E8EFEE;" d="M243,296H133.4c-6.4,0-12,5.6-12,12s5.6,12,12,12h108.8c6.4,0,12-5.6,12-12
		C255,301.6,249.4,296,243,296z"/>
</g>
<g>
	<path style="fill:#B1BAB9;" d="M129.4,112h188.8c6.4,0,12-5.6,12-12s-4.8-12-12-12H129.4c-6.4,0-12,5.6-12,12S123,112,129.4,112z"
		/>
	<path style="fill:#B1BAB9;" d="M318.2,224H129.4c-6.4,0-12,5.6-12,12s5.6,12,12,12h188.8c6.4,0,12-5.6,12-12S325.4,224,318.2,224z"
		/>
</g>
<g>
	<path style="fill:#9AA5A4;" d="M239,288H129.4c-6.4,0-12,5.6-12,12s5.6,12,12,12h108.8c6.4,0,12-5.6,12-12
		C251,293.6,245.4,288,239,288z"/>
	<path style="fill:#9AA5A4;" d="M239,152H129.4c-6.4,0-12,5.6-12,12s5.6,12,12,12h108.8c6.4,0,12-5.6,12-12
		C251,157.6,245.4,152,239,152z"/>
	<circle style="opacity:0.3;fill:#9AA5A4;enable-background:new    ;" cx="358.2" cy="389.6" r="108"/>
</g>
<circle style="fill:#5AC117;" cx="344.6" cy="389.6" r="108"/>
<path style="fill:#44A307;" d="M344.6,281.6c60,0,108,48,108,108s-48,108-108,108"/>
<path style="fill:#4DB20D;" d="M268.6,313.6c42.4-42.4,110.4-42.4,152.8,0s42.4,110.4,0,152.8"/>
<path style="fill:#44A307;" d="M350.2,441.6c-3.2,0-5.6-0.8-8-3.2l-49.6-49.6c-4.8-4.8-4.8-12,0-16.8s12-4.8,16.8,0l41.6,41.6l96-96
	c4.8-4.8,12-4.8,16.8,0s4.8,12,0,16.8l-104,104C355.8,440.8,352.6,441.6,350.2,441.6z"/>
<path style="fill:#FFFFFF;" d="M345.4,428.8c-3.2,0-5.6-0.8-8-3.2L287,376c-4.8-4.8-4.8-12,0-16.8s12-4.8,16.8,0l41.6,41.6l96-96
	c4.8-4.8,12-4.8,16.8,0s4.8,12,0,16.8l-104,104C351,428,347.8,428.8,345.4,428.8z"/>
<g>
</g>
<g>
</g>
<g>
</g>
<g>
</g>
<g>
</g>
<g>
</g>
<g>
</g>
<g>
</g>
<g>
</g>
<g>
</g>
<g>
</g>
<g>
</g>
<g>
</g>
<g>
</g>
<g>
</g>
</svg>
