<?xml version="1.0" encoding="iso-8859-1"?>
<!-- Generator: Adobe Illustrator 19.0.0, SVG Export Plug-In . SVG Version: 6.00 Build 0)  -->
<svg version="1.1" id="Layer_1" xmlns="http://www.w3.org/2000/svg" xmlns:xlink="http://www.w3.org/1999/xlink" x="0px" y="0px"
	 viewBox="0 0 496 496" style="enable-background:new 0 0 496 496;" xml:space="preserve">
<path style="fill:#0EE0B8;" d="M404,0H92C78.4,0,64,12.8,64,26.4v320L222.4,496H404c13.6,0,28-12.8,28-26.4V26.4
	C432,12.8,417.6,0,404,0z"/>
<path style="fill:#A55AE0;" d="M404,0H92C78.4,0,64,12.8,64,26.4v320L222.4,496H404c13.6,0,28-12.8,28-26.4V26.4
	C432,12.8,417.6,0,404,0z"/>
<path style="fill:#964FDB;" d="M432,384V26.4C432,12.8,417.6,0,404,0H92C78.4,0,66.4,11.2,66.4,24"/>
<path style="fill:#8543D1;" d="M432,384V26.4C432,12.8,417.6,0,404,0H208"/>
<path style="fill:#964FDB;" d="M200,352v119.2c0,1.6,1.6,3.2,1.6,4.8l19.2,18.4c1.6,0,3.2,1.6,4.8,1.6h125.6l-148-144H200z"/>
<path style="fill:#8543D1;" d="M200,351.2v120c0,1.6,1.6,3.2,1.6,4.8l19.2,18.4c1.6,0,3.2,1.6,4.8,1.6h64l-72.8-120.8L200,351.2z"/>
<path style="fill:#FFFFFF;" d="M222.4,496h1.6V370.4c0-13.6-12-26.4-25.6-26.4L64,345.6L222.4,496z"/>
<polyline style="fill:#ECE4F9;" points="64,345.6 222.4,496 224,496 224,368 "/>
<path style="fill:#C588FF;" d="M80,345.6L80,345.6V26.4C80,12.8,89.6,0,102.4,0H92C78.4,0,64,12.8,64,26.4v320L80,345.6L80,345.6z"
	/>
<g>
	<path style="fill:#8543D1;" d="M199.2,301.6c-0.8,0-1.6,0-2.4-0.8c-33.6-33.6-33.6-88.8,0-122.4s88.8-33.6,122.4,0
		c1.6,1.6,1.6,4,0,5.6s-4,1.6-5.6,0c-30.4-30.4-80.8-30.4-111.2,0s-30.4,80.8,0,111.2c1.6,1.6,1.6,4,0,5.6
		C201.6,300.8,200.8,301.6,199.2,301.6z"/>
	<path style="fill:#8543D1;" d="M232,316.8c0,6.4-4.8,11.2-11.2,11.2H204c-6.4,0-11.2-4.8-11.2-11.2V300c0-6.4,4.8-11.2,11.2-11.2
		h16.8c6.4,0,11.2,4.8,11.2,11.2V316.8z"/>
	<path style="fill:#8543D1;" d="M344,204.8c0,6.4-4.8,11.2-11.2,11.2H316c-6.4,0-11.2-4.8-11.2-11.2V188c0-6.4,4.8-11.2,11.2-11.2
		h16.8c6.4,0,11.2,4.8,11.2,11.2V204.8z"/>
	<path style="fill:#8543D1;" d="M216,188.8c0,6.4-4.8,11.2-11.2,11.2H188c-6.4,0-11.2-4.8-11.2-11.2V172c0-6.4,4.8-11.2,11.2-11.2
		h16.8c6.4,0,11.2,4.8,11.2,11.2V188.8z"/>
</g>
<g>
	<path style="fill:#FFFFFF;" d="M189.6,292c-0.8,0-1.6,0-2.4-0.8c-33.6-33.6-33.6-88.8,0-122.4s88.8-33.6,122.4,0
		c1.6,1.6,1.6,4,0,5.6s-4,1.6-5.6,0c-30.4-30.4-80.8-30.4-111.2,0s-30.4,80.8,0,111.2c1.6,1.6,1.6,4,0,5.6
		C192,291.2,190.4,292,189.6,292z"/>
	<path style="fill:#FFFFFF;" d="M224,308.8c0,6.4-4.8,11.2-11.2,11.2H196c-6.4,0-11.2-4.8-11.2-11.2V292c0-6.4,4.8-11.2,11.2-11.2
		h16.8c6.4,0,11.2,4.8,11.2,11.2V308.8z"/>
	<path style="fill:#FFFFFF;" d="M336,188.8c0,6.4-4.8,11.2-11.2,11.2H308c-6.4,0-11.2-4.8-11.2-11.2V172c0-6.4,4.8-11.2,11.2-11.2
		h16.8c6.4,0,11.2,4.8,11.2,11.2V188.8z"/>
	<path style="fill:#FFFFFF;" d="M208,180.8c0,6.4-4.8,11.2-11.2,11.2H180c-6.4,0-11.2-4.8-11.2-11.2V164c0-6.4,4.8-11.2,11.2-11.2
		h16.8c6.4,0,11.2,4.8,11.2,11.2V180.8z"/>
</g>
<g>
</g>
<g>
</g>
<g>
</g>
<g>
</g>
<g>
</g>
<g>
</g>
<g>
</g>
<g>
</g>
<g>
</g>
<g>
</g>
<g>
</g>
<g>
</g>
<g>
</g>
<g>
</g>
<g>
</g>
</svg>
