<?xml version="1.0" encoding="iso-8859-1"?>
<!-- Generator: Adobe Illustrator 19.0.0, SVG Export Plug-In . SVG Version: 6.00 Build 0)  -->
<svg version="1.1" id="Layer_1" xmlns="http://www.w3.org/2000/svg" xmlns:xlink="http://www.w3.org/1999/xlink" x="0px" y="0px"
	 viewBox="0 0 496 496" style="enable-background:new 0 0 496 496;" xml:space="preserve">
<path style="fill:#0EE0B8;" d="M404,0H92C78.4,0,64,12.8,64,26.4v320L222.4,496H404c13.6,0,28-12.8,28-26.4V26.4
	C432,12.8,417.6,0,404,0z"/>
<path style="fill:#F73974;" d="M404,0H92C78.4,0,64,12.8,64,26.4v320L222.4,496H404c13.6,0,28-12.8,28-26.4V26.4
	C432,12.8,417.6,0,404,0z"/>
<path style="fill:#ED266E;" d="M432,384V26.4C432,12.8,417.6,0,404,0H92C78.4,0,66.4,11.2,66.4,24"/>
<path style="fill:#DD0772;" d="M432,384V26.4C432,12.8,417.6,0,404,0H208"/>
<path style="fill:#ED266E;" d="M200,352v119.2c0,1.6,1.6,3.2,1.6,4.8l19.2,18.4c1.6,0,3.2,1.6,4.8,1.6h125.6l-148-144H200z"/>
<path style="fill:#DD0772;" d="M200,351.2v120c0,1.6,1.6,3.2,1.6,4.8l19.2,18.4c1.6,0,3.2,1.6,4.8,1.6h64l-72.8-120.8L200,351.2z"/>
<path style="fill:#FFFFFF;" d="M222.4,496h1.6V370.4c0-13.6-12-26.4-25.6-26.4L64,345.6L222.4,496z"/>
<polyline style="fill:#FFE9F5;" points="64,345.6 222.4,496 224,496 224,368 "/>
<path style="fill:#FF97C1;" d="M80,345.6L80,345.6V26.4C80,12.8,89.6,0,102.4,0H92C78.4,0,64,12.8,64,26.4v320L80,345.6L80,345.6z"
	/>
<g>
	<path style="fill:#DD0772;" d="M213.6,301.6c-3.2,0-5.6-0.8-8-3.2l-60.8-60.8c-4.8-4.8-4.8-12,0-16l60.8-60.8c4.8-4.8,12-4.8,16,0
		c4.8,4.8,4.8,12,0,16l-52.8,52.8l52.8,52.8c4.8,4.8,4.8,12,0,16C220,300.8,216.8,301.6,213.6,301.6z"/>
	<path style="fill:#DD0772;" d="M304,157.6c3.2,0,5.6,0.8,8,3.2l60.8,60.8c4.8,4.8,4.8,12,0,16L312,298.4c-4.8,4.8-12,4.8-16,0
		s-4.8-12,0-16l52.8-52.8L296,176.8c-4.8-4.8-4.8-12,0-16C298.4,158.4,301.6,157.6,304,157.6z"/>
	<path style="fill:#DD0772;" d="M235.2,333.6h-0.8c-2.4-0.8-3.2-2.4-3.2-4.8l47.2-200c0.8-2.4,2.4-3.2,4.8-3.2
		c2.4,0.8,3.2,2.4,3.2,4.8l-47.2,200C238.4,332,236.8,333.6,235.2,333.6z"/>
</g>
<g>
	<path style="fill:#FFFFFF;" d="M202.4,290.4c-3.2,0-5.6-0.8-8-3.2l-60.8-60.8c-4.8-4.8-4.8-12,0-16l60.8-60.8c4.8-4.8,12-4.8,16,0
		c4.8,4.8,4.8,12,0,16l-52.8,52.8l52.8,52.8c4.8,4.8,4.8,12,0,16C208.8,289.6,205.6,290.4,202.4,290.4z"/>
	<path style="fill:#FFFFFF;" d="M293.6,146.4c3.2,0,5.6,0.8,8,3.2l60.8,60.8c4.8,4.8,4.8,12,0,16l-60.8,60.8c-4.8,4.8-12,4.8-16,0
		s-4.8-12,0-16l52.8-52.8l-52.8-52.8c-4.8-4.8-4.8-12,0-16C287.2,147.2,290.4,146.4,293.6,146.4z"/>
	<path style="fill:#FFFFFF;" d="M224,322.4h-0.8c-2.4-0.8-3.2-2.4-3.2-4.8l47.2-200c0.8-2.4,2.4-3.2,4.8-3.2
		c2.4,0.8,3.2,2.4,3.2,4.8l-47.2,200C228,320.8,226.4,322.4,224,322.4z"/>
</g>
<g>
</g>
<g>
</g>
<g>
</g>
<g>
</g>
<g>
</g>
<g>
</g>
<g>
</g>
<g>
</g>
<g>
</g>
<g>
</g>
<g>
</g>
<g>
</g>
<g>
</g>
<g>
</g>
<g>
</g>
</svg>
