<?xml version="1.0" encoding="iso-8859-1"?>
<!-- Generator: Adobe Illustrator 19.0.0, SVG Export Plug-In . SVG Version: 6.00 Build 0)  -->
<svg version="1.1" id="Layer_1" xmlns="http://www.w3.org/2000/svg" xmlns:xlink="http://www.w3.org/1999/xlink" x="0px" y="0px"
	 viewBox="0 0 492 492" style="enable-background:new 0 0 492 492;" xml:space="preserve">
<path style="fill:#0EE0B8;" d="M402,0H90C76.4,0,66,10.4,66,24v320l154.4,148H402c13.6,0,24-10.4,24-24V24C426,10.4,415.6,0,402,0z"
	/>
<path style="fill:#1080DD;" d="M402,0H90C76.4,0,66,10.4,66,24v320l154.4,148H402c13.6,0,24-10.4,24-24V24C426,10.4,415.6,0,402,0z"
	/>
<path style="fill:#0070CC;" d="M426,383.2V24c0-13.6-10.4-24-24-24H90C76.4,0,66,10.4,66,24"/>
<path style="fill:#0667B7;" d="M426,383.2V24c0-13.6-10.4-24-24-24H205.2"/>
<path style="fill:#0070CC;" d="M200.4,348.8v120c0,1.6,0,3.2,0.8,4.8l18.4,17.6c1.6,0,2.4,0.8,4,0.8h125.6L200.4,348.8L200.4,348.8z
	"/>
<path style="fill:#0667B7;" d="M200.4,348.8v120c0,1.6,0,3.2,0.8,4.8l18.4,17.6c1.6,0,2.4,0.8,4,0.8h64l-72-120L200.4,348.8z"/>
<path style="fill:#FFFFFF;" d="M220.4,491.2L220.4,491.2v-124c0-13.6-10.4-24-24-24H66L220.4,491.2z"/>
<polyline style="fill:#D2F3FF;" points="66,344 220.4,491.2 220.4,491.2 220.4,368 "/>
<path style="fill:#3DB8FC;" d="M77.2,344L77.2,344V24c0-13.6,10.4-24,24-24H90.8c-13.6,0-24,10.4-24,24v320l0,0H77.2z"/>
<path style="fill:#0667B7;" d="M305.2,205.6l-42.4-42.4c-4.8-4.8-12-4.8-16,0l-42.4,42.4c-4.8,4.8-4.8,12,0,16c4.8,4.8,12,4.8,16,0
	l22.4-22.4v84c0,6.4,4.8,11.2,11.2,11.2s11.2-4.8,11.2-11.2v-84l22.4,22.4c2.4,2.4,5.6,3.2,8,3.2s5.6-0.8,8-3.2
	C309.2,217.6,309.2,209.6,305.2,205.6z"/>
<path style="fill:#FFFFFF;" d="M296.4,188.8L254,147.2c-4.8-4.8-12-4.8-16,0l-42.4,42.4c-4.8,4.8-4.8,12,0,16c4.8,4.8,12,4.8,16,0
	l22.4-22.4v84c0,6.4,4.8,11.2,11.2,11.2c6.4,0,11.2-4.8,11.2-11.2v-84l22.4,22.4c2.4,2.4,5.6,3.2,8,3.2c3.2,0,5.6-0.8,8-3.2
	C300.4,200.8,300.4,193.6,296.4,188.8z"/>
<g>
</g>
<g>
</g>
<g>
</g>
<g>
</g>
<g>
</g>
<g>
</g>
<g>
</g>
<g>
</g>
<g>
</g>
<g>
</g>
<g>
</g>
<g>
</g>
<g>
</g>
<g>
</g>
<g>
</g>
</svg>
