<?xml version="1.0" encoding="iso-8859-1"?>
<!-- Generator: Adobe Illustrator 19.0.0, SVG Export Plug-In . SVG Version: 6.00 Build 0)  -->
<svg version="1.1" id="Layer_1" xmlns="http://www.w3.org/2000/svg" xmlns:xlink="http://www.w3.org/1999/xlink" x="0px" y="0px"
	 viewBox="0 0 496 496" style="enable-background:new 0 0 496 496;" xml:space="preserve">
<path style="fill:#0EE0B8;" d="M404,0H92C78.4,0,64,12.8,64,26.4v320L222.4,496H404c13.6,0,28-12.8,28-26.4V26.4
	C432,12.8,417.6,0,404,0z"/>
<path style="fill:#A3ED54;" d="M404,0H92C78.4,0,64,12.8,64,26.4v320L222.4,496H404c13.6,0,28-12.8,28-26.4V26.4
	C432,12.8,417.6,0,404,0z"/>
<path style="fill:#94E239;" d="M432,384V26.4C432,12.8,417.6,0,404,0H92C78.4,0,66.4,11.2,66.4,24"/>
<path style="fill:#8DD819;" d="M432,384V26.4C432,12.8,417.6,0,404,0H208"/>
<path style="fill:#94E239;" d="M200,352v119.2c0,1.6,1.6,3.2,1.6,4.8l19.2,18.4c1.6,0,3.2,1.6,4.8,1.6h125.6l-148-144H200z"/>
<path style="fill:#8DD819;" d="M200,351.2v120c0,1.6,1.6,3.2,1.6,4.8l19.2,18.4c1.6,0,3.2,1.6,4.8,1.6h64l-72.8-120.8L200,351.2z"/>
<path style="fill:#FFFFFF;" d="M222.4,496h1.6V370.4c0-13.6-12-26.4-25.6-26.4L64,345.6L222.4,496z"/>
<polyline style="fill:#EEFCDE;" points="64,345.6 222.4,496 224,496 224,368 "/>
<path style="fill:#C9FC8D;" d="M80,345.6L80,345.6V26.4C80,12.8,89.6,0,102.4,0H92C78.4,0,64,12.8,64,26.4v320L80,345.6L80,345.6z"
	/>
<g>
	<path style="fill:#8DD819;" d="M190.4,211.2c-11.2,0-21.6-4-29.6-12s-12-18.4-12-29.6s4-21.6,12-29.6c4.8-4.8,12-4.8,16,0
		c4.8,4.8,4.8,12,0,16c-4,4-5.6,8.8-5.6,13.6s1.6,9.6,5.6,13.6c7.2,7.2,20,7.2,27.2,0c4.8-4.8,12-4.8,16,0c4.8,4.8,4.8,12,0,16
		C212,206.4,201.6,211.2,190.4,211.2z"/>
	<path style="fill:#8DD819;" d="M401.6,296h-12L296,172c-4-5.6-14.4-5.6-18.4,0.8l-68,92L192,241.6c-4-5.6-14.4-6.4-18.4-0.8
		l-42.4,56h-12.8c-6.4,0-11.2,5.6-11.2,12s4.8,12,11.2,12h15.2c1.6,0,4,0,5.6,0h48c0.8,0,1.6,0.8,2.4,0.8c0.8,0,1.6-0.8,3.2-0.8h32
		c0.8,0,1.6,0.8,3.2,0.8c0.8,0,1.6-0.8,2.4-0.8H380c1.6,0,4,0,5.6,0H400c6.4,0,11.2-5.6,11.2-12S408,296,401.6,296z"/>
</g>
<g>
	<path style="fill:#FFFFFF;" d="M178.4,198.4c-11.2,0-21.6-4-29.6-12s-12-18.4-12-29.6c0-11.2,4-21.6,12-29.6c4.8-4.8,12-4.8,16,0
		c4.8,4.8,4.8,12,0,16c-4,4-5.6,8.8-5.6,13.6s1.6,9.6,5.6,13.6c7.2,7.2,20,7.2,27.2,0c4.8-4.8,12-4.8,16,0c4.8,4.8,4.8,12,0,16
		C200,194.4,189.6,198.4,178.4,198.4z"/>
	<path style="fill:#FFFFFF;" d="M388.8,288h-12L284,161.6c-4-5.6-14.4-6.4-18.4-0.8l-68,91.2L180,228c-4-5.6-14.4-4.8-18.4,0.8
		L119.2,288h-12.8c-6.4,0-11.2,5.6-11.2,12s4.8,12,11.2,12h15.2c1.6,0,4,0,5.6,0h48c0.8,0,1.6,0.8,2.4,0.8c0.8,0,1.6-0.8,3.2-0.8
		h32.8c0.8,0,1.6,0.8,3.2,0.8c0.8,0,1.6-0.8,2.4-0.8h149.6c1.6,0,4,0,5.6,0h14.4c6.4,0,11.2-5.6,11.2-12
		C400.8,293.6,395.2,288,388.8,288z"/>
</g>
<g>
</g>
<g>
</g>
<g>
</g>
<g>
</g>
<g>
</g>
<g>
</g>
<g>
</g>
<g>
</g>
<g>
</g>
<g>
</g>
<g>
</g>
<g>
</g>
<g>
</g>
<g>
</g>
<g>
</g>
</svg>
