<?xml version="1.0" encoding="iso-8859-1"?>
<!-- Generator: Adobe Illustrator 19.0.0, SVG Export Plug-In . SVG Version: 6.00 Build 0)  -->
<svg version="1.1" id="Layer_1" xmlns="http://www.w3.org/2000/svg" xmlns:xlink="http://www.w3.org/1999/xlink" x="0px" y="0px"
	 viewBox="0 0 492 492" style="enable-background:new 0 0 492 492;" xml:space="preserve">
<path id="SVGCleanerId_0" style="fill:#0EE0B8;" d="M402,0H90C76.4,0,66,10.4,66,24v320l154.4,148H402c13.6,0,24-10.4,24-24V24
	C426,10.4,415.6,0,402,0z"/>
<g>
	<path id="SVGCleanerId_0_1_" style="fill:#0EE0B8;" d="M402,0H90C76.4,0,66,10.4,66,24v320l154.4,148H402c13.6,0,24-10.4,24-24V24
		C426,10.4,415.6,0,402,0z"/>
</g>
<path style="fill:#09D6B9;" d="M426,383.2V24c0-13.6-10.4-24-24-24H90C76.4,0,66,10.4,66,24"/>
<path style="fill:#09CEBB;" d="M426,383.2V24c0-13.6-10.4-24-24-24H205.2"/>
<path style="fill:#09D6B9;" d="M200.4,348.8v120c0,1.6,0,3.2,0.8,4.8l18.4,17.6c1.6,0,2.4,0.8,4,0.8h125.6L200.4,348.8L200.4,348.8z
	"/>
<path style="fill:#09CEBB;" d="M200.4,348.8v120c0,1.6,0,3.2,0.8,4.8l18.4,17.6c1.6,0,2.4,0.8,4,0.8h64l-72-120L200.4,348.8z"/>
<path style="fill:#FFFFFF;" d="M220.4,491.2L220.4,491.2v-124c0-13.6-10.4-24-24-24H66L220.4,491.2z"/>
<polyline style="fill:#DCF7F2;" points="66,344 220.4,491.2 220.4,491.2 220.4,368 "/>
<path style="fill:#1CF2C9;" d="M77.2,344L77.2,344V24c0-13.6,10.4-24,24-24H90.8c-13.6,0-24,10.4-24,24v320l0,0H77.2z"/>
<path style="fill:#09CEBB;" d="M339.6,170.4H237.2v-9.6c0-5.6-4-9.6-9.6-9.6h-51.2c-5.6,0-9.6,4-9.6,9.6v10.4
	c-13.6,4-24,15.2-24,29.6v88.8c0,16.8,15.2,31.2,32.8,31.2h163.2c18.4,0,32.8-13.6,32.8-31.2v-88
	C372.4,184.8,357.2,170.4,339.6,170.4z M257.2,284.8c-21.6,0-38.4-17.6-38.4-38.4c0-21.6,17.6-38.4,38.4-38.4
	c21.6,0,38.4,17.6,38.4,38.4C296.4,267.2,278.8,284.8,257.2,284.8z"/>
<path style="fill:#FFFFFF;" d="M327.6,156.8H225.2v-9.6c0-5.6-4-9.6-9.6-9.6h-51.2c-5.6,0-9.6,4-9.6,9.6v10.4
	c-13.6,4-24,15.2-24,29.6V276c0,16.8,15.2,31.2,32.8,31.2h163.2c18.4,0,32.8-13.6,32.8-31.2v-88.8
	C361.2,170.4,346,156.8,327.6,156.8z M246,270.4c-21.6,0-38.4-17.6-38.4-38.4c0-21.6,17.6-38.4,38.4-38.4s38.4,17.6,38.4,38.4
	C284.4,253.6,267.6,270.4,246,270.4z"/>
<g>
</g>
<g>
</g>
<g>
</g>
<g>
</g>
<g>
</g>
<g>
</g>
<g>
</g>
<g>
</g>
<g>
</g>
<g>
</g>
<g>
</g>
<g>
</g>
<g>
</g>
<g>
</g>
<g>
</g>
</svg>
