<?xml version="1.0" encoding="iso-8859-1"?>
<!-- Generator: Adobe Illustrator 19.0.0, SVG Export Plug-In . SVG Version: 6.00 Build 0)  -->
<svg version="1.1" id="Layer_1" xmlns="http://www.w3.org/2000/svg" xmlns:xlink="http://www.w3.org/1999/xlink" x="0px" y="0px"
	 viewBox="0 0 497.003 497.003" style="enable-background:new 0 0 497.003 497.003;" xml:space="preserve">
<path style="fill:#516266;" d="M23.682,414.902c-4-0.8-7.2-4.8-6.4-8.8l63.2-396c0.8-4,4.8-6.4,8.8-6.4l396,63.2
	c4,0.8,7.2,4.8,6.4,8.8l-63.2,396c-0.8,4-4.8,7.2-8.8,6.4L23.682,414.902z"/>
<path style="fill:#FFD629;" d="M109.282,482.902c-4,0.8-7.2-1.6-8.8-5.6l-86.4-368c-0.8-4,1.6-7.2,5.6-8.8l368-86.4
	c4-0.8,7.2,1.6,8.8,5.6l87.2,368.8c0.8,4-1.6,7.2-5.6,8.8L109.282,482.902z"/>
<path style="fill:#FFC200;" d="M384.482,1.302c11.2-2.4,21.6,4,24,15.2l87.2,368c2.4,11.2-4,21.6-15.2,24l-368,87.2
	c-11.2,2.4-21.6-4-24-15.2"/>
<g>
	<path style="fill:#FFFFFF;" d="M200.482,232.502c-7.2,1.6-12.8,5.6-16.8,11.2c-4-2.4-8.8-4-13.6-2.4c-4,0.8-8,3.2-9.6,7.2
		c-3.2-1.6-6.4-2.4-9.6-2.4c-4-8-13.6-12.8-22.4-11.2c-3.2,0.8-6.4,2.4-8,4c-2.4-4.8-7.2-8-12.8-8c0-1.6,0-2.4-0.8-4
		c-1.6-6.4-4.8-12-9.6-16c4-2.4,5.6-7.2,4.8-12c-1.6-6.4-8-10.4-14.4-8.8c0,0,0,0-0.8,0c0-0.8,0-1.6,0-1.6c-4-16-20-26.4-36.8-22.4
		c-16,4-26.4,20-22.4,36.8c2.4,8.8,8,16,16,20c-2.4,6.4-3.2,12.8-1.6,20c2.4,12,11.2,20,22.4,24c-3.2,8-4,16.8-2.4,25.6
		c5.6,22.4,28,36.8,50.4,31.2c14.4-3.2,24.8-13.6,29.6-26.4c4,0.8,8.8,1.6,13.6,0c12-3.2,20-13.6,20-24.8c0.8,0,0.8,0,1.6,0
		s2.4-0.8,3.2-1.6c5.6,12,18.4,19.2,32,16c15.2-3.2,24.8-18.4,20.8-33.6C230.882,238.102,215.682,228.502,200.482,232.502z"/>
	<path style="fill:#FFFFFF;" d="M452.482,202.902l-11.2-48c-5.6-4-12-7.2-19.2-8c6.4-8.8,8.8-20.8,6.4-32
		c-4.8-21.6-27.2-35.2-48.8-29.6c-21.6,4.8-35.2,27.2-29.6,48.8v0.8c-16,5.6-26.4,21.6-24,38.4c-1.6,0-4-0.8-6.4,0
		c-6.4,1.6-11.2,7.2-11.2,13.6c-16,6.4-24.8,23.2-20.8,40c4,16,18.4,27.2,35.2,26.4c4,15.2,20,24.8,35.2,20.8
		c10.4-2.4,17.6-9.6,20.8-18.4c6.4,1.6,12.8,1.6,19.2,0c8.8-2.4,16-6.4,21.6-12.8c5.6,7.2,14.4,10.4,23.2,8.8
		c8.8-2.4,15.2-9.6,16.8-17.6l-4-17.6c-1.6-2.4-4-4.8-7.2-6.4C450.082,206.902,451.682,204.502,452.482,202.902z"/>
</g>
<g>
	<path style="fill:#FFF5CC;" d="M202.882,241.302c-7.2,1.6-12.8,5.6-16.8,11.2c-4-2.4-8.8-4-13.6-2.4c-4,0.8-8,3.2-9.6,7.2
		c-3.2-1.6-6.4-2.4-9.6-2.4c-4-8-13.6-12.8-22.4-11.2c-3.2,0.8-6.4,2.4-8,4c-2.4-4.8-7.2-8-12.8-8c0-1.6,0-2.4-0.8-4
		c-1.6-6.4-4.8-12-9.6-16.8c4-2.4,5.6-7.2,4.8-12c-1.6-6.4-8-10.4-14.4-8.8c0,0,0,0-0.8,0c0-0.8,0-1.6,0-1.6
		c-4-16-20-26.4-36.8-22.4c-16,4-26.4,20-22.4,36.8c2.4,8.8,8,16,16,20c-2.4,6.4-3.2,12.8-1.6,20c2.4,12,11.2,20,22.4,24
		c-3.2,8-4,16.8-2.4,25.6c5.6,22.4,28,36.8,50.4,31.2c14.4-3.2,24.8-13.6,29.6-26.4c4,0.8,8.8,1.6,13.6,0c12-3.2,20-13.6,20-24.8
		c0.8,0,0.8,0,1.6,0s2.4-0.8,3.2-1.6c5.6,12,18.4,19.2,32,16c15.2-3.2,24.8-18.4,20.8-33.6
		C232.482,246.902,217.282,238.102,202.882,241.302z"/>
	<path style="fill:#FFF5CC;" d="M454.882,211.702l-11.2-48c-5.6-4-12-7.2-19.2-8c6.4-8.8,8.8-20.8,6.4-32
		c-4.8-21.6-27.2-35.2-48.8-29.6c-21.6,4.8-35.2,27.2-29.6,48.8v0.8c-16,5.6-26.4,21.6-24,38.4c-1.6,0-4,0-6.4,0
		c-6.4,1.6-11.2,7.2-11.2,13.6c-15.2,6.4-24.8,23.2-20.8,40c4,16,18.4,27.2,35.2,26.4c4,15.2,20,24.8,35.2,20.8
		c10.4-2.4,17.6-9.6,20.8-18.4c6.4,1.6,12.8,1.6,19.2,0c8.8-2.4,16-6.4,21.6-12.8c5.6,7.2,14.4,10.4,23.2,8.8
		c8.8-2.4,15.2-9.6,16.8-17.6l-4-17.6c-1.6-2.4-4-4.8-7.2-6.4C452.482,215.702,454.082,214.102,454.882,211.702z"/>
</g>
<rect x="70.844" y="262.198" transform="matrix(-0.9731 0.2305 -0.2305 -0.9731 589.4345 538.7402)" style="fill:#00ADDB;" width="384.81" height="83.202"/>
<path style="fill:#E8E8E8;" d="M384.482,1.302l-368.8,87.2c-10.4,2.4-17.6,13.6-15.2,24l88,368.8c2.4,11.2,13.6,17.6,24,15.2
	l368.8-88c11.2-2.4,17.6-13.6,15.2-24l-88-368.8C406.082,5.302,394.882-1.898,384.482,1.302z M384.482,27.702l56.8,239.2
	l-356.8,84.8l-56.8-239.2L384.482,27.702z"/>
<path style="fill:#F2F2F2;" d="M112.482,495.702l22.4-5.6l108.8-176.8l-159.2,37.6l-56.8-238.4l356.8-84.8l9.6,41.6l19.2-31.2
	l-4.8-22.4c-2.4-11.2-13.6-17.6-24-15.2l-368.8,88c-10.4,2.4-17.6,13.6-15.2,24l88,368.8
	C90.882,491.702,102.082,498.902,112.482,495.702z"/>
<path style="fill:#19CBF4;" d="M362.882,237.302l-10.4,2.4l-101.6-84.8c-4.8-4-12.8-2.4-15.2,4l-38.4,89.6l-19.2-16
	c-4.8-4-12.8-2.4-15.2,4l-24,55.2l-10.4,1.6c-5.6,1.6-8.8,6.4-7.2,12s6.4,8.8,12,7.2l12-3.2c1.6,0,3.2,0,4.8-0.8l40-9.6
	c0.8,0,1.6,0,2.4,0c0.8,0,1.6-0.8,2.4-0.8l27.2-6.4c0.8,0,1.6,0,2.4,0c0.8,0,1.6-0.8,2.4-0.8l124-29.6c1.6,0,3.2,0,4.8-0.8l12-3.2
	c5.6-1.6,8.8-6.4,7.2-12C373.282,239.702,367.682,236.502,362.882,237.302z"/>
<path style="fill:#00ADDB;" d="M362.882,237.302l-10.4,2.4l-101.6-84.8c-4.8-4-12.8-2.4-15.2,4l-20,104l-37.6-31.2
	c-4.8-4-12.8-2.4-15.2,4l-8.8,51.2l-25.6,6.4c-5.6,1.6-8.8,6.4-7.2,12s6.4,8.8,12,7.2l12-3.2c1.6,0,3.2,0,4.8-0.8l40-9.6
	c0.8,0,1.6,0,2.4,0c0.8,0,1.6-0.8,2.4-0.8l27.2-6.4c0.8,0,1.6,0,2.4,0c0.8,0,1.6-0.8,2.4-0.8l124-29.6c1.6,0,3.2,0,4.8-0.8l12-3.2
	c5.6-1.6,8.8-6.4,7.2-12C373.282,239.702,367.682,236.502,362.882,237.302z"/>
<g>
	<circle style="fill:#EAE4BE;" cx="170.082" cy="95.702" r="1.6"/>
	<path style="fill:#EAE4BE;" d="M201.282,99.702c0.8,2.4-0.8,4.8-3.2,5.6c-2.4,0.8-4.8-0.8-5.6-3.2c-0.8-2.4,0.8-4.8,3.2-5.6
		C198.082,96.502,200.482,97.302,201.282,99.702z"/>
	<circle style="fill:#EAE4BE;" cx="219.682" cy="77.302" r="0.8"/>
	<circle style="fill:#EAE4BE;" cx="244.482" cy="116.502" r="4.8"/>
	<circle style="fill:#EAE4BE;" cx="172.482" cy="122.102" r="1.6"/>
	<circle style="fill:#EAE4BE;" cx="202.882" cy="125.302" r="3.2"/>
	<circle style="fill:#EAE4BE;" cx="132.482" cy="107.702" r="2.4"/>
</g>
<rect x="81.377" y="307.753" transform="matrix(-0.9731 0.2305 -0.2305 -0.9731 609.3945 563.5165)" style="fill:#E8E8E8;" width="380.81" height="19.201"/>
<g>
	<circle style="fill:#FFFB5F;" cx="154.082" cy="166.102" r="27.2"/>
	
		<rect x="148.69" y="120.543" transform="matrix(-0.7071 0.7071 -0.7071 -0.7071 352.5865 106.2394)" style="fill:#FFFB5F;" width="11.2" height="11.2"/>
	
		<rect x="148.402" y="200.631" transform="matrix(-0.7071 0.7071 -0.7071 -0.7071 408.7256 243.1618)" style="fill:#FFFB5F;" width="11.2" height="11.2"/>
	<rect x="177.282" y="131.702" style="fill:#FFFB5F;" width="11.2" height="11.2"/>
	<rect x="120.482" y="189.302" style="fill:#FFFB5F;" width="11.2" height="11.2"/>
	
		<rect x="188.575" y="160.258" transform="matrix(-0.7068 -0.7075 0.7075 -0.7068 214.0727 420.45)" style="fill:#FFFB5F;" width="11.201" height="11.201"/>
	
		<rect x="108.451" y="160.529" transform="matrix(-0.7064 -0.7078 0.7078 -0.7064 77.0295 364.2095)" style="fill:#FFFB5F;" width="11.2" height="11.2"/>
	<rect x="177.282" y="189.302" style="fill:#FFFB5F;" width="11.2" height="11.2"/>
	<rect x="120.482" y="131.702" style="fill:#FFFB5F;" width="11.2" height="11.2"/>
</g>
<g>
</g>
<g>
</g>
<g>
</g>
<g>
</g>
<g>
</g>
<g>
</g>
<g>
</g>
<g>
</g>
<g>
</g>
<g>
</g>
<g>
</g>
<g>
</g>
<g>
</g>
<g>
</g>
<g>
</g>
</svg>
