<?xml version="1.0" encoding="iso-8859-1"?>
<!-- Generator: Adobe Illustrator 19.0.0, SVG Export Plug-In . SVG Version: 6.00 Build 0)  -->
<svg version="1.1" id="Layer_1" xmlns="http://www.w3.org/2000/svg" xmlns:xlink="http://www.w3.org/1999/xlink" x="0px" y="0px"
	 viewBox="0 0 496 496" style="enable-background:new 0 0 496 496;" xml:space="preserve">
<path id="SVGCleanerId_0" style="fill:#0EE0B8;" d="M404,0H92C78.4,0,64,12.8,64,26.4v320L222.4,496H404c13.6,0,28-12.8,28-26.4
	V26.4C432,12.8,417.6,0,404,0z"/>
<g>
	<path id="SVGCleanerId_0_1_" style="fill:#0EE0B8;" d="M404,0H92C78.4,0,64,12.8,64,26.4v320L222.4,496H404c13.6,0,28-12.8,28-26.4
		V26.4C432,12.8,417.6,0,404,0z"/>
</g>
<path style="fill:#09D6B9;" d="M432,384V26.4C432,12.8,417.6,0,404,0H92C78.4,0,66.4,11.2,66.4,24"/>
<path style="fill:#09CEBB;" d="M432,384V26.4C432,12.8,417.6,0,404,0H208"/>
<path style="fill:#09D6B9;" d="M200,352v119.2c0,1.6,1.6,3.2,1.6,4.8l19.2,18.4c1.6,0,3.2,1.6,4.8,1.6h125.6l-148-144H200z"/>
<path style="fill:#09CEBB;" d="M200,351.2v120c0,1.6,1.6,3.2,1.6,4.8l19.2,18.4c1.6,0,3.2,1.6,4.8,1.6h64l-72.8-120.8L200,351.2z"/>
<path style="fill:#FFFFFF;" d="M222.4,496h1.6V370.4c0-13.6-12-26.4-25.6-26.4L64,345.6L222.4,496z"/>
<polyline style="fill:#DCF7F2;" points="64,346.4 222.4,496 224,496 224,368 "/>
<path style="fill:#1CF2C9;" d="M80,345.6L80,345.6V26.4C80,12.8,89.6,0,102.4,0H92C78.4,0,64,12.8,64,26.4v320L80,345.6L80,345.6z"
	/>
<path style="fill:#09CEBB;" d="M208.8,301.6c-1.6,0-2.4-0.8-4-1.6c-4-1.6-4.8-5.6-4.8-10.4v-148c0-4,0.8-8,4.8-10.4
	c4-1.6,8-1.6,11.2,0.8l100.8,74.4c3.2,2.4,4.8,5.6,4.8,9.6s-1.6,7.2-4.8,9.6L216,299.2C213.6,300.8,211.2,301.6,208.8,301.6z
	 M224,164v103.2l69.6-51.2L224,164z"/>
<path style="fill:#FFFFFF;" d="M197.6,292.8c-1.6,0-4.8-0.8-6.4-1.6c-4-1.6-7.2-5.6-7.2-10.4V132c0-4,3.2-8,7.2-10.4
	c4-1.6,8.8-1.6,12.8,0.8l100.8,74.4c3.2,2.4,4.8,5.6,4.8,9.6s-1.6,7.2-4.8,9.6L204,290.4C202.4,292,200,292.8,197.6,292.8z"/>
<g>
</g>
<g>
</g>
<g>
</g>
<g>
</g>
<g>
</g>
<g>
</g>
<g>
</g>
<g>
</g>
<g>
</g>
<g>
</g>
<g>
</g>
<g>
</g>
<g>
</g>
<g>
</g>
<g>
</g>
</svg>
