<?xml version="1.0" encoding="iso-8859-1"?>
<!-- Generator: Adobe Illustrator 19.0.0, SVG Export Plug-In . SVG Version: 6.00 Build 0)  -->
<svg version="1.1" id="Layer_1" xmlns="http://www.w3.org/2000/svg" xmlns:xlink="http://www.w3.org/1999/xlink" x="0px" y="0px"
	 viewBox="0 0 496 496" style="enable-background:new 0 0 496 496;" xml:space="preserve">
<path style="fill:#0EE0B8;" d="M404,0H92C78.4,0,64,12.8,64,26.4v320L222.4,496H404c13.6,0,28-12.8,28-26.4V26.4
	C432,12.8,417.6,0,404,0z"/>
<path style="fill:#FF7900;" d="M404,0H92C78.4,0,64,12.8,64,26.4v320L222.4,496H404c13.6,0,28-12.8,28-26.4V26.4
	C432,12.8,417.6,0,404,0z"/>
<path style="fill:#FF6700;" d="M432,384V26.4C432,12.8,417.6,0,404,0H92C78.4,0,66.4,11.2,66.4,24"/>
<path style="fill:#FF4E00;" d="M432,384V26.4C432,12.8,417.6,0,404,0H208"/>
<path style="fill:#FF6700;" d="M200,352v119.2c0,1.6,1.6,3.2,1.6,4.8l19.2,18.4c1.6,0,3.2,1.6,4.8,1.6h125.6l-148-144H200z"/>
<path style="fill:#FF4E00;" d="M200,351.2v120c0,1.6,1.6,3.2,1.6,4.8l19.2,18.4c1.6,0,3.2,1.6,4.8,1.6h64l-72.8-120.8L200,351.2z"/>
<path style="fill:#FFFFFF;" d="M222.4,496h1.6V370.4c0-13.6-12-26.4-25.6-26.4L64,345.6L222.4,496z"/>
<polyline style="fill:#FFEDCF;" points="64,345.6 222.4,496 224,496 224,368 "/>
<path style="fill:#FCC054;" d="M80,345.6L80,345.6V26.4C80,12.8,89.6,0,102.4,0H92C78.4,0,64,12.8,64,26.4v320L80,345.6L80,345.6z"
	/>
<path style="fill:#FF4E00;" d="M321.6,136H196c-6.4,0-12,6.4-12,12.8v13.6c0,6.4,5.6,11.2,12,11.2s12-5.6,12-12V160h40v152h-21.6
	c-6.4,0-11.2,5.6-11.2,12s4.8,12,11.2,12H292c6.4,0,11.2-5.6,11.2-12s-4.8-12-11.2-12h-20V160h40v1.6c0,6.4,5.6,11.2,12,11.2
	s12-4.8,12-11.2V148C336,142.4,328,136,321.6,136z"/>
<g>
	<path style="fill:#FFFFFF;" d="M311.2,128H184.8c-6.4,0-8.8,3.2-8.8,9.6v13.6c0,6.4,5.6,11.2,12,11.2s12-4.8,12-11.2V144h40v160
		h-24.8c-6.4,0-11.2,1.6-11.2,8s4.8,8,11.2,8h65.6c6.4,0,11.2-1.6,11.2-8s-4.8-8-11.2-8H256V144h40v7.2c0,6.4,5.6,11.2,12,11.2
		s12-4.8,12-11.2v-13.6C320,131.2,317.6,128,311.2,128z"/>
	<path style="fill:#FFFFFF;" d="M311.2,128H184.8c-6.4,0-8.8,3.2-8.8,9.6v13.6c0,6.4,5.6,11.2,12,11.2s12-4.8,12-11.2V144h40v160
		h-24.8c-6.4,0-11.2,1.6-11.2,8s4.8,8,11.2,8h65.6c6.4,0,11.2-1.6,11.2-8s-4.8-8-11.2-8H256V144h40v7.2c0,6.4,5.6,11.2,12,11.2
		s12-4.8,12-11.2v-13.6C320,131.2,317.6,128,311.2,128z"/>
</g>
<g>
</g>
<g>
</g>
<g>
</g>
<g>
</g>
<g>
</g>
<g>
</g>
<g>
</g>
<g>
</g>
<g>
</g>
<g>
</g>
<g>
</g>
<g>
</g>
<g>
</g>
<g>
</g>
<g>
</g>
</svg>
