<?xml version="1.0" encoding="iso-8859-1"?>
<!-- Generator: Adobe Illustrator 19.0.0, SVG Export Plug-In . SVG Version: 6.00 Build 0)  -->
<svg version="1.1" id="Layer_1" xmlns="http://www.w3.org/2000/svg" xmlns:xlink="http://www.w3.org/1999/xlink" x="0px" y="0px"
	 viewBox="0 0 500.8 500.8" style="enable-background:new 0 0 500.8 500.8;" xml:space="preserve">
<path style="fill:#9AA5A4;" d="M424,476c0,13.6-11.2,24.8-24.8,24.8h-360c-13.6,0-24.8-11.2-24.8-24.8V24.8C14.4,11.2,25.6,0,39.2,0
	h360C412.8,0,424,11.2,424,24.8V476z"/>
<path style="fill:#B3BCBB;" d="M424,55.2V24.8C424,11.2,412.8,0,399.2,0h-360C25.6,0,14.4,11.2,14.4,24.8V464L424,55.2z"/>
<g>
	<rect x="37.6" y="24.8" style="fill:#FFFFFF;" width="82.4" height="30.4"/>
	<rect x="37.6" y="71.2" style="fill:#FFFFFF;" width="82.4" height="30.4"/>
	<rect x="37.6" y="118.4" style="fill:#FFFFFF;" width="82.4" height="30.4"/>
	<rect x="37.6" y="164.8" style="fill:#FFFFFF;" width="82.4" height="30.4"/>
	<rect x="37.6" y="212" style="fill:#FFFFFF;" width="82.4" height="30.4"/>
	<rect x="37.6" y="258.4" style="fill:#FFFFFF;" width="82.4" height="30.4"/>
	<rect x="37.6" y="305.6" style="fill:#FFFFFF;" width="82.4" height="30.4"/>
</g>
<rect x="37.6" y="352" style="fill:#F2F2F2;" width="82.4" height="30.4"/>
<polygon style="fill:#FFFFFF;" points="119.2,352 37.6,352 37.6,382.4 96,382.4 119.2,359.2 "/>
<rect x="37.6" y="399.2" style="fill:#F2F2F2;" width="82.4" height="30.4"/>
<polygon style="fill:#FFFFFF;" points="37.6,399.2 37.6,429.6 49.6,429.6 80,399.2 "/>
<rect x="37.6" y="445.6" style="fill:#F2F2F2;" width="82.4" height="30.4"/>
<rect x="318.4" y="24.8" style="fill:#FFFFFF;" width="82.4" height="30.4"/>
<rect x="318.4" y="71.2" style="fill:#F2F2F2;" width="82.4" height="30.4"/>
<polygon style="fill:#FFFFFF;" points="400.8,71.2 318.4,71.2 318.4,101.6 376.8,101.6 400.8,77.6 "/>
<rect x="318.4" y="118.4" style="fill:#F2F2F2;" width="82.4" height="30.4"/>
<polygon style="fill:#FFFFFF;" points="318.4,118.4 318.4,148.8 330.4,148.8 360.8,118.4 "/>
<g>
	<rect x="318.4" y="164.8" style="fill:#F2F2F2;" width="82.4" height="30.4"/>
	<rect x="318.4" y="212" style="fill:#F2F2F2;" width="82.4" height="30.4"/>
	<rect x="318.4" y="258.4" style="fill:#F2F2F2;" width="82.4" height="30.4"/>
	<rect x="318.4" y="305.6" style="fill:#F2F2F2;" width="82.4" height="30.4"/>
	<rect x="318.4" y="352" style="fill:#F2F2F2;" width="82.4" height="30.4"/>
	<rect x="318.4" y="399.2" style="fill:#F2F2F2;" width="82.4" height="30.4"/>
	<rect x="318.4" y="445.6" style="fill:#F2F2F2;" width="82.4" height="30.4"/>
	<rect x="135.2" y="257.6" style="fill:#F2F2F2;" width="168" height="218.4"/>
</g>
<polygon style="fill:#FFFFFF;" points="221.6,257.6 135.2,257.6 135.2,344 "/>
<rect x="135.2" y="24.8" style="fill:#F2F2F2;" width="168" height="218.4"/>
<polygon style="fill:#FFFFFF;" points="303.2,24.8 135.2,24.8 135.2,243.2 235.2,243.2 303.2,176 "/>
<circle style="opacity:0.3;fill:#9AA5A4;enable-background:new    ;" cx="404" cy="417.6" r="82.4"/>
<circle style="fill:#FFD400;" cx="393.6" cy="417.6" r="82.4"/>
<path style="fill:#FFB000;" d="M393.6,335.2c45.6,0,82.4,36.8,82.4,82.4S439.2,500,393.6,500"/>
<path style="fill:#FFC200;" d="M335.2,359.2c32-32,84.8-32,116.8,0s32,84.8,0,116.8"/>
<path style="fill:#FFFFFF;" d="M421.6,411.2c-0.8-1.6-1.6-2.4-3.2-2.4l-15.2-2.4l-7.2-13.6c-0.8-1.6-1.6-2.4-3.2-2.4
	s-3.2,0.8-3.2,2.4l-6.4,13.6l-15.2,2.4c-1.6,0-2.4,1.6-3.2,2.4c-0.8,1.6,0,3.2,0.8,4l11.2,10.4l-2.4,15.2c0,1.6,0,3.2,1.6,4
	s2.4,0.8,4,0l13.6-7.2l13.6,7.2c0.8,0,1.6,0.8,1.6,0.8c0.8,0,1.6,0,2.4-0.8s1.6-2.4,1.6-4l-2.4-15.2l11.2-10.4
	C422.4,413.6,422.4,412,421.6,411.2z"/>
<g>
</g>
<g>
</g>
<g>
</g>
<g>
</g>
<g>
</g>
<g>
</g>
<g>
</g>
<g>
</g>
<g>
</g>
<g>
</g>
<g>
</g>
<g>
</g>
<g>
</g>
<g>
</g>
<g>
</g>
</svg>
