<?xml version="1.0" encoding="iso-8859-1"?>
<!-- Generator: Adobe Illustrator 19.0.0, SVG Export Plug-In . SVG Version: 6.00 Build 0)  -->
<svg version="1.1" id="Layer_1" xmlns="http://www.w3.org/2000/svg" xmlns:xlink="http://www.w3.org/1999/xlink" x="0px" y="0px"
	 viewBox="0 0 495.127 495.127" style="enable-background:new 0 0 495.127 495.127;" xml:space="preserve">
<path style="fill:#4F5958;" d="M354.764,466.364c-3.2,10.4-14.4,16.8-24.8,13.6l-283.2-80c-10.4-3.2-16.8-14.4-13.6-24.8l100-354.4
	c3.2-10.4,14.4-16.8,24.8-13.6l282.4,80c10.4,3.2,16.8,14.4,13.6,24.8L354.764,466.364z"/>
<path style="fill:#9AA5A4;" d="M466.764,390.364c3.2,11.2-4,23.2-15.2,25.6l-299.2,78.4c-11.2,3.2-23.2-4-25.6-15.2l-98.4-373.6
	c-3.2-11.2,4-23.2,15.2-25.6l299.2-78.4c11.2-3.2,23.2,4,25.6,15.2L466.764,390.364z"/>
<path style="fill:#B3BCBB;" d="M374.764,40.764l-6.4-24.8c-3.2-11.2-14.4-18.4-25.6-15.2l-299.2,78.4c-11.2,3.2-18.4,14.4-15.2,25.6
	l96,364.8L374.764,40.764z"/>
<g>
	
		<rect x="49.227" y="91.246" transform="matrix(-0.9671 0.2544 -0.2544 -0.9671 192.5462 183.1915)" style="fill:#FFFFFF;" width="70.4" height="25.6"/>
	
		<rect x="59.51" y="129.609" transform="matrix(-0.9671 0.2544 -0.2544 -0.9671 222.533 256.0391)" style="fill:#FFFFFF;" width="70.4" height="25.6"/>
	
		<rect x="69.99" y="168.75" transform="matrix(-0.9671 0.2545 -0.2545 -0.9671 253.1226 330.353)" style="fill:#FFFFFF;" width="70.402" height="25.601"/>
	
		<rect x="80.263" y="207.117" transform="matrix(-0.9671 0.2544 -0.2544 -0.9671 283.0743 403.2243)" style="fill:#FFFFFF;" width="70.4" height="25.6"/>
	
		<rect x="89.96" y="246.465" transform="matrix(-0.9671 0.2544 -0.2544 -0.9671 312.1588 478.1591)" style="fill:#FFFFFF;" width="70.4" height="25.6"/>
	
		<rect x="100.424" y="285.616" transform="matrix(-0.9671 0.2543 -0.2543 -0.9671 342.6772 552.531)" style="fill:#FFFFFF;" width="70.398" height="25.599"/>
	
		<rect x="110.712" y="323.989" transform="matrix(-0.9672 0.2541 -0.2541 -0.9672 372.6132 625.4489)" style="fill:#FFFFFF;" width="70.402" height="25.601"/>
</g>
<rect x="121.186" y="363.11" transform="matrix(-0.9671 0.2543 -0.2543 -0.9671 403.2245 699.6906)" style="fill:#F2F2F2;" width="70.398" height="25.599"/>
<polygon style="fill:#FFFFFF;" points="186.764,354.364 118.764,372.764 125.164,397.564 174.764,384.764 188.364,359.964 "/>
<rect x="130.653" y="401.723" transform="matrix(-0.9672 0.254 -0.254 -0.9672 431.5558 773.325)" style="fill:#F2F2F2;" width="70.4" height="25.6"/>
<polygon style="fill:#FFFFFF;" points="129.164,411.164 135.564,435.964 145.964,433.564 164.364,402.364 "/>
<rect x="141.171" y="440.844" transform="matrix(-0.9671 0.2544 -0.2544 -0.9671 462.3456 847.4937)" style="fill:#F2F2F2;" width="70.4" height="25.6"/>
<rect x="282.787" y="29.662" transform="matrix(-0.9671 0.2543 -0.2543 -0.9671 636.3157 2.6621)" style="fill:#FFFFFF;" width="70.398" height="25.599"/>
<rect x="293.058" y="68.068" transform="matrix(-0.9671 0.2542 -0.2542 -0.9671 666.2855 75.6316)" style="fill:#F2F2F2;" width="70.396" height="25.599"/>
<polygon style="fill:#FFFFFF;" points="359.564,59.964 291.564,77.564 297.964,102.364 345.964,89.564 361.164,64.764 "/>
<rect x="303.54" y="107.204" transform="matrix(-0.9671 0.2543 -0.2543 -0.9671 696.8594 149.9182)" style="fill:#F2F2F2;" width="70.398" height="25.599"/>
<polygon style="fill:#FFFFFF;" points="301.164,116.764 308.364,141.564 317.964,139.164 336.364,107.164 "/>
<g>
	
		<rect x="314.014" y="146.325" transform="matrix(-0.9671 0.2543 -0.2543 -0.9671 727.4127 224.2115)" style="fill:#F2F2F2;" width="70.398" height="25.599"/>
	
		<rect x="324.301" y="184.681" transform="matrix(-0.9671 0.2543 -0.2543 -0.9671 757.4025 297.0463)" style="fill:#F2F2F2;" width="70.398" height="25.599"/>
	
		<rect x="333.978" y="224.084" transform="matrix(-0.9671 0.2542 -0.2542 -0.9671 786.4442 372.1361)" style="fill:#F2F2F2;" width="70.396" height="25.599"/>
	
		<rect x="344.265" y="262.394" transform="matrix(-0.9671 0.2543 -0.2543 -0.9671 816.4365 444.8404)" style="fill:#F2F2F2;" width="70.398" height="25.599"/>
	
		<rect x="354.747" y="301.54" transform="matrix(-0.9671 0.2543 -0.2543 -0.9671 847.0117 519.1789)" style="fill:#F2F2F2;" width="70.398" height="25.599"/>
	
		<rect x="365.195" y="340.711" transform="matrix(-0.9671 0.2542 -0.2542 -0.9671 877.4988 593.6216)" style="fill:#F2F2F2;" width="70.396" height="25.599"/>
	
		<rect x="374.717" y="379.28" transform="matrix(-0.9671 0.2545 -0.2545 -0.9671 906.1217 666.9307)" style="fill:#F2F2F2;" width="70.402" height="25.601"/>
	
		<rect x="201.104" y="250.314" transform="matrix(-0.9672 0.2542 -0.2542 -0.9672 624.7657 607.9065)" style="fill:#F2F2F2;" width="144.007" height="188.009"/>
</g>
<polygon style="fill:#FFFFFF;" points="250.764,252.764 179.564,271.964 197.964,343.964 "/>
<rect x="150.018" y="57.603" transform="matrix(-0.9671 0.2544 -0.2544 -0.9671 475.2986 241.7369)" style="fill:#F2F2F2;" width="144" height="188"/>
<polygon style="fill:#FFFFFF;" points="268.364,42.364 128.364,79.164 176.364,260.764 259.564,239.164 301.164,167.164 "/>
<g>
</g>
<g>
</g>
<g>
</g>
<g>
</g>
<g>
</g>
<g>
</g>
<g>
</g>
<g>
</g>
<g>
</g>
<g>
</g>
<g>
</g>
<g>
</g>
<g>
</g>
<g>
</g>
<g>
</g>
</svg>
