<?xml version="1.0" encoding="iso-8859-1"?>
<!-- Generator: Adobe Illustrator 19.0.0, SVG Export Plug-In . SVG Version: 6.00 Build 0)  -->
<svg version="1.1" id="Layer_1" xmlns="http://www.w3.org/2000/svg" xmlns:xlink="http://www.w3.org/1999/xlink" x="0px" y="0px"
	 viewBox="0 0 500.8 500.8" style="enable-background:new 0 0 500.8 500.8;" xml:space="preserve">
<path style="fill:#9AA5A4;" d="M424,476c0,13.6-11.2,24.8-24.8,24.8h-360c-13.6,0-24.8-11.2-24.8-24.8V24.8C14.4,11.2,25.6,0,39.2,0
	h360C412.8,0,424,11.2,424,24.8V476z"/>
<path style="fill:#B3BCBB;" d="M424,55.2V24.8C424,11.2,412.8,0,399.2,0h-360C25.6,0,14.4,11.2,14.4,24.8V464L424,55.2z"/>
<g>
	<rect x="37.6" y="24.8" style="fill:#FFFFFF;" width="82.4" height="30.4"/>
	<rect x="37.6" y="71.2" style="fill:#FFFFFF;" width="82.4" height="30.4"/>
	<rect x="37.6" y="118.4" style="fill:#FFFFFF;" width="82.4" height="30.4"/>
	<rect x="37.6" y="164.8" style="fill:#FFFFFF;" width="82.4" height="30.4"/>
	<rect x="37.6" y="212" style="fill:#FFFFFF;" width="82.4" height="30.4"/>
	<rect x="37.6" y="258.4" style="fill:#FFFFFF;" width="82.4" height="30.4"/>
	<rect x="37.6" y="305.6" style="fill:#FFFFFF;" width="82.4" height="30.4"/>
</g>
<rect x="37.6" y="352" style="fill:#F2F2F2;" width="82.4" height="30.4"/>
<polygon style="fill:#FFFFFF;" points="119.2,352 37.6,352 37.6,382.4 96,382.4 119.2,359.2 "/>
<rect x="37.6" y="399.2" style="fill:#F2F2F2;" width="82.4" height="30.4"/>
<polygon style="fill:#FFFFFF;" points="37.6,399.2 37.6,429.6 49.6,429.6 80,399.2 "/>
<rect x="37.6" y="445.6" style="fill:#F2F2F2;" width="82.4" height="30.4"/>
<rect x="318.4" y="24.8" style="fill:#FFFFFF;" width="82.4" height="30.4"/>
<rect x="318.4" y="71.2" style="fill:#F2F2F2;" width="82.4" height="30.4"/>
<polygon style="fill:#FFFFFF;" points="400.8,71.2 318.4,71.2 318.4,101.6 376.8,101.6 400.8,77.6 "/>
<rect x="318.4" y="118.4" style="fill:#F2F2F2;" width="82.4" height="30.4"/>
<polygon style="fill:#FFFFFF;" points="318.4,118.4 318.4,148.8 330.4,148.8 360.8,118.4 "/>
<g>
	<rect x="318.4" y="164.8" style="fill:#F2F2F2;" width="82.4" height="30.4"/>
	<rect x="318.4" y="212" style="fill:#F2F2F2;" width="82.4" height="30.4"/>
	<rect x="318.4" y="258.4" style="fill:#F2F2F2;" width="82.4" height="30.4"/>
	<rect x="318.4" y="305.6" style="fill:#F2F2F2;" width="82.4" height="30.4"/>
	<rect x="318.4" y="352" style="fill:#F2F2F2;" width="82.4" height="30.4"/>
	<rect x="318.4" y="399.2" style="fill:#F2F2F2;" width="82.4" height="30.4"/>
	<rect x="318.4" y="445.6" style="fill:#F2F2F2;" width="82.4" height="30.4"/>
	<rect x="135.2" y="257.6" style="fill:#F2F2F2;" width="168" height="218.4"/>
</g>
<polygon style="fill:#FFFFFF;" points="221.6,257.6 135.2,257.6 135.2,344 "/>
<rect x="135.2" y="24.8" style="fill:#F2F2F2;" width="168" height="218.4"/>
<polygon style="fill:#FFFFFF;" points="303.2,24.8 135.2,24.8 135.2,243.2 235.2,243.2 303.2,176 "/>
<circle style="opacity:0.3;fill:#9AA5A4;enable-background:new    ;" cx="404" cy="417.6" r="82.4"/>
<circle style="fill:#5AC117;" cx="393.6" cy="417.6" r="82.4"/>
<path style="fill:#44A307;" d="M393.6,335.2c45.6,0,82.4,36.8,82.4,82.4S439.2,500,393.6,500"/>
<path style="fill:#4DB20D;" d="M335.2,359.2c32-32,84.8-32,116.8,0s32,84.8,0,116.8"/>
<g>
	<path style="fill:#44A307;" d="M420.8,421.6c-2.4,0-4-1.6-4-4c0-15.2-12.8-28-28-28c-2.4,0-4-1.6-4-4s1.6-4,4-4
		c20,0,36.8,16,36.8,36.8C424.8,419.2,423.2,421.6,420.8,421.6z"/>
	<path style="fill:#44A307;" d="M420.8,430.4c-0.8,0-2.4-0.8-3.2-1.6l-10.4-10.4c-1.6-1.6-1.6-4,0-5.6s4-1.6,5.6,0l7.2,7.2l7.2-7.2
		c1.6-1.6,4-1.6,5.6,0s1.6,4,0,5.6l-10.4,10.4C422.4,429.6,421.6,430.4,420.8,430.4z"/>
	<path style="fill:#44A307;" d="M368.8,420c2.4,0,4,1.6,4,4c0,15.2,12.8,28,28,28c2.4,0,4,1.6,4,4s-1.6,4-4,4
		c-20,0-36.8-16-36.8-36.8C364,421.6,366.4,420,368.8,420z"/>
	<path style="fill:#44A307;" d="M368.8,410.4c0.8,0,2.4,0.8,3.2,1.6l10.4,10.4c1.6,1.6,1.6,4,0,5.6s-4,1.6-5.6,0l-7.2-7.2l-7.2,7.2
		c-1.6,1.6-4,1.6-5.6,0s-1.6-4,0-5.6l10.4-10.4C366.4,411.2,367.2,410.4,368.8,410.4z"/>
</g>
<g>
	<path style="fill:#FFFFFF;" d="M418.4,416c-2.4,0-4-1.6-4-4c0-15.2-12.8-28-28-28c-2.4,0-4-1.6-4-4s1.6-4,4-4
		c20,0,36.8,16,36.8,36.8C422.4,414.4,420.8,416,418.4,416z"/>
	<path style="fill:#FFFFFF;" d="M418.4,424.8c-0.8,0-2.4-0.8-3.2-0.8l-10.4-10.4c-1.6-1.6-1.6-4,0-5.6s4-1.6,5.6,0l7.2,7.2l7.2-7.2
		c1.6-1.6,4-1.6,5.6,0s1.6,4,0,5.6L420,424C420,424,419.2,424.8,418.4,424.8z"/>
	<path style="fill:#FFFFFF;" d="M366.4,414.4c2.4,0,4,1.6,4,4c0,16,12.8,28,28,28c2.4,0,4,1.6,4,4s-1.6,4-4,4
		c-20,0-36.8-16-36.8-36.8C362.4,416,364,414.4,366.4,414.4z"/>
	<path style="fill:#FFFFFF;" d="M366.4,405.6c0.8,0,2.4,0.8,3.2,0.8l10.4,10.4c1.6,1.6,1.6,4,0,5.6s-4,1.6-5.6,0l-7.2-7.2l-7.2,7.2
		c-1.6,1.6-4,1.6-5.6,0s-1.6-4,0-5.6l10.4-10.4C364,405.6,364.8,405.6,366.4,405.6z"/>
</g>
<g>
</g>
<g>
</g>
<g>
</g>
<g>
</g>
<g>
</g>
<g>
</g>
<g>
</g>
<g>
</g>
<g>
</g>
<g>
</g>
<g>
</g>
<g>
</g>
<g>
</g>
<g>
</g>
<g>
</g>
</svg>
